<svg xmlns="http://www.w3.org/2000/svg" xmlns:xlink="http://www.w3.org/1999/xlink" viewBox="0 0 1528 642"><defs><style>.cls-1{isolation:isolate;}.cls-2{fill:#f7f7f7;}.cls-3{fill:#ededed;}.cls-4{fill:#e8e8e8;}.cls-5{fill:#ffc967;opacity:0.7;}.cls-6,.cls-75{fill:#fff;}.cls-6{opacity:0.47;}.cls-7{fill:#fe6d60;}.cls-8{fill:url(#linear-gradient);}.cls-9{fill:#ffccbc;}.cls-10{fill:url(#linear-gradient-2);}.cls-11{fill:url(#linear-gradient-3);}.cls-12{fill:url(#linear-gradient-4);}.cls-13{fill:url(#linear-gradient-5);}.cls-14{fill:url(#linear-gradient-6);}.cls-15{fill:url(#linear-gradient-7);}.cls-16{fill:url(#linear-gradient-8);}.cls-17{fill:url(#linear-gradient-9);}.cls-18{fill:url(#linear-gradient-10);}.cls-19{fill:url(#linear-gradient-11);}.cls-20{fill:url(#linear-gradient-12);}.cls-21{fill:#ffa648;}.cls-22,.cls-24{opacity:0.41;}.cls-22,.cls-24,.cls-44,.cls-46,.cls-48,.cls-50{mix-blend-mode:multiply;}.cls-22{fill:url(#New_Gradient_Swatch_1);}.cls-23{fill:url(#New_Gradient_Swatch_1-2);}.cls-24{fill:url(#New_Gradient_Swatch_1-3);}.cls-25{fill:url(#linear-gradient-13);}.cls-26{fill:url(#linear-gradient-14);}.cls-27{fill:url(#linear-gradient-15);}.cls-28{fill:url(#linear-gradient-16);}.cls-29{fill:url(#linear-gradient-17);}.cls-30{fill:url(#linear-gradient-18);}.cls-31{fill:url(#linear-gradient-19);}.cls-32{fill:url(#linear-gradient-20);}.cls-33{fill:url(#linear-gradient-21);}.cls-34{fill:url(#linear-gradient-22);}.cls-35{fill:url(#linear-gradient-23);}.cls-36{fill:url(#linear-gradient-24);}.cls-37{fill:url(#linear-gradient-25);}.cls-38{fill:url(#linear-gradient-26);}.cls-39{fill:url(#linear-gradient-27);}.cls-40{fill:url(#linear-gradient-28);}.cls-41{fill:url(#linear-gradient-29);}.cls-42{fill:url(#linear-gradient-30);}.cls-43{fill:url(#New_Gradient_Swatch_1-4);}.cls-44,.cls-46,.cls-48,.cls-50{opacity:0.74;}.cls-44{fill:url(#New_Gradient_Swatch_1-5);}.cls-45{fill:url(#New_Gradient_Swatch_1-6);}.cls-46{fill:url(#New_Gradient_Swatch_1-7);}.cls-47{fill:url(#New_Gradient_Swatch_1-8);}.cls-48{fill:url(#New_Gradient_Swatch_1-9);}.cls-49{fill:url(#New_Gradient_Swatch_1-10);}.cls-50{fill:url(#New_Gradient_Swatch_1-11);}.cls-51{fill:#ffab91;}.cls-52{fill:url(#linear-gradient-31);}.cls-53{fill:url(#linear-gradient-32);}.cls-54{fill:url(#linear-gradient-33);}.cls-55{fill:url(#linear-gradient-34);}.cls-56{fill:url(#linear-gradient-35);}.cls-57{fill:url(#linear-gradient-36);}.cls-58{fill:url(#linear-gradient-37);}.cls-59{fill:url(#linear-gradient-38);}.cls-60{fill:url(#linear-gradient-39);}.cls-61{fill:url(#linear-gradient-40);}.cls-62{fill:url(#linear-gradient-41);}.cls-63{fill:#a16733;}.cls-64{fill:url(#linear-gradient-42);}.cls-65{fill:url(#linear-gradient-43);}.cls-66{fill:url(#linear-gradient-44);}.cls-67{fill:url(#linear-gradient-45);}.cls-68{fill:url(#linear-gradient-46);}.cls-69{fill:url(#linear-gradient-47);}.cls-70{fill:url(#linear-gradient-48);}.cls-71{fill:url(#linear-gradient-49);}.cls-72{fill:url(#linear-gradient-50);}.cls-73{font-size:15.66173px;letter-spacing:0.14001em;}.cls-73,.cls-74,.cls-76{fill:#373660;}.cls-73,.cls-76{font-family:Montserrat-Bold, Montserrat;font-weight:700;}.cls-76{font-size:16.56786px;letter-spacing:0.12502em;}.cls-77{letter-spacing:0.13999em;}.cls-78{fill:none;stroke:#373660;stroke-miterlimit:10;}</style><linearGradient id="linear-gradient" x1="674.38604" y1="198.41888" x2="677.43029" y2="198.41888" gradientUnits="userSpaceOnUse"><stop offset="0.09794" stop-color="#3d405b"/><stop offset="1" stop-color="#202230"/></linearGradient><linearGradient id="linear-gradient-2" x1="742.81546" y1="131.52609" x2="762.30376" y2="131.52609" gradientUnits="userSpaceOnUse"><stop offset="0" stop-color="#f7f7ff"/><stop offset="1" stop-color="#dedee6"/></linearGradient><linearGradient id="linear-gradient-3" x1="327.25561" y1="409.63201" x2="355.9706" y2="409.63201" gradientTransform="translate(431.7982 -23.39903) rotate(-0.29794)" xlink:href="#linear-gradient"/><linearGradient id="linear-gradient-4" x1="1271.39695" y1="310.14345" x2="1231.74983" y2="303.22092" gradientTransform="matrix(-1, 0, 0, 1, 1978.4891, 0)" xlink:href="#linear-gradient"/><linearGradient id="linear-gradient-5" x1="909.83957" y1="157.30965" x2="909.83957" y2="181.96622" gradientTransform="matrix(0.1215, -0.9926, 0.9926, 0.1215, 511.67567, 1089.61275)" xlink:href="#linear-gradient-2"/><linearGradient id="linear-gradient-6" x1="943.24994" y1="129.31222" x2="943.24994" y2="230.14549" gradientTransform="matrix(0.1215, -0.9926, 0.9926, 0.1215, 511.67567, 1089.61275)" xlink:href="#linear-gradient"/><linearGradient id="linear-gradient-7" x1="708.30896" y1="115.80693" x2="708.30896" y2="140.46408" gradientTransform="translate(-23.76359 264.44005) rotate(-16.84029)" xlink:href="#linear-gradient-2"/><linearGradient id="linear-gradient-8" x1="741.71998" y1="87.80769" x2="741.71998" y2="188.64432" gradientTransform="translate(-23.76359 264.44005) rotate(-16.84029)" xlink:href="#linear-gradient"/><linearGradient id="linear-gradient-9" x1="277.10146" y1="409.63441" x2="305.99755" y2="409.63441" gradientTransform="translate(431.7982 -23.39903) rotate(-0.29794)" xlink:href="#linear-gradient"/><linearGradient id="linear-gradient-10" x1="1294.34716" y1="276.20803" x2="1172.79533" y2="323.03812" gradientTransform="matrix(-1, 0, 0, 1, 1978.4891, 0)" xlink:href="#linear-gradient"/><linearGradient id="linear-gradient-11" x1="1250.92527" y1="152.71496" x2="1250.92527" y2="253.03179" gradientTransform="matrix(-1, 0.0052, 0.0052, 1, 2003.76541, -32.33217)" xlink:href="#linear-gradient"/><linearGradient id="linear-gradient-12" x1="1216.18521" y1="107.21525" x2="1235.57916" y2="107.21525" gradientTransform="matrix(-1, 0, 0, 1, 1978.4891, 0)" xlink:href="#linear-gradient"/><linearGradient id="New_Gradient_Swatch_1" x1="798.07963" y1="58.71318" x2="819.65542" y2="58.71318" gradientUnits="userSpaceOnUse"><stop offset="0" stop-color="#fbc02d"/><stop offset="0.16092" stop-color="#fbc332"/><stop offset="0.36472" stop-color="#fcca42"/><stop offset="0.59162" stop-color="#fdd65c"/><stop offset="0.83353" stop-color="#fee780"/><stop offset="1" stop-color="#fff59d"/></linearGradient><linearGradient id="New_Gradient_Swatch_1-2" x1="817.59945" y1="65.7923" x2="830.63116" y2="65.7923" xlink:href="#New_Gradient_Swatch_1"/><linearGradient id="New_Gradient_Swatch_1-3" x1="722.02275" y1="46.86415" x2="771.54885" y2="46.86415" xlink:href="#New_Gradient_Swatch_1"/><linearGradient id="linear-gradient-13" x1="628.49635" y1="113.05707" x2="624.64514" y2="136.64574" gradientTransform="translate(217.87389)" xlink:href="#linear-gradient"/><linearGradient id="linear-gradient-14" x1="640.50407" y1="106.90486" x2="636.29184" y2="132.17827" gradientTransform="translate(217.87389)" xlink:href="#linear-gradient"/><linearGradient id="linear-gradient-15" x1="662.59486" y1="338.69239" x2="644.72856" y2="249.78587" gradientTransform="translate(217.87389)" xlink:href="#linear-gradient"/><linearGradient id="linear-gradient-16" x1="417.97103" y1="222.32247" x2="403.89826" y2="378.00371" gradientTransform="matrix(-0.9989, 0.0003, -0.0003, 1.052, 1257.30352, -24.36107)" xlink:href="#linear-gradient"/><linearGradient id="linear-gradient-17" x1="636.36796" y1="144.74745" x2="639.53057" y2="282.72034" gradientTransform="translate(217.87389)" xlink:href="#linear-gradient"/><linearGradient id="linear-gradient-18" x1="626.2601" y1="137.37898" x2="628.95966" y2="262.45947" gradientTransform="translate(217.87389)" xlink:href="#linear-gradient"/><linearGradient id="linear-gradient-19" x1="641.0776" y1="143.94193" x2="643.40016" y2="245.2668" gradientTransform="translate(217.87389)" xlink:href="#linear-gradient-2"/><linearGradient id="linear-gradient-20" x1="653.13633" y1="136.79883" x2="655.83588" y2="261.87885" gradientTransform="translate(217.87389)" xlink:href="#linear-gradient"/><linearGradient id="linear-gradient-21" x1="640.31679" y1="106.87364" x2="636.10457" y2="132.14701" gradientTransform="translate(217.87389)" xlink:href="#linear-gradient"/><linearGradient id="linear-gradient-22" x1="987.29175" y1="349.16406" x2="991.2413" y2="352.41821" gradientTransform="translate(1858.7548 475.4801) rotate(180)" xlink:href="#linear-gradient"/><linearGradient id="linear-gradient-23" x1="656.69483" y1="116.17812" x2="676.21754" y2="132.26345" gradientTransform="translate(217.87389)" xlink:href="#linear-gradient"/><linearGradient id="linear-gradient-24" x1="677.30693" y1="122.02927" x2="683.3935" y2="127.04417" gradientTransform="translate(217.87389)" xlink:href="#linear-gradient"/><linearGradient id="linear-gradient-25" x1="663.68729" y1="136.57105" x2="666.38686" y2="261.65165" gradientTransform="translate(217.87389)" xlink:href="#linear-gradient"/><linearGradient id="linear-gradient-26" x1="662.09523" y1="132.83096" x2="670.92688" y2="132.83096" gradientTransform="translate(217.87389)" xlink:href="#linear-gradient-2"/><linearGradient id="linear-gradient-27" x1="596.68187" y1="223.76951" x2="605.66583" y2="223.76951" gradientTransform="translate(217.87389)" xlink:href="#linear-gradient-2"/><linearGradient id="linear-gradient-28" x1="613.37308" y1="137.65716" x2="616.07263" y2="262.73708" gradientTransform="translate(217.87389)" xlink:href="#linear-gradient"/><linearGradient id="linear-gradient-29" x1="642.40143" y1="365.86044" x2="666.84288" y2="365.86044" gradientTransform="translate(217.87389)" xlink:href="#linear-gradient"/><linearGradient id="linear-gradient-30" x1="609.5032" y1="365.86044" x2="633.94464" y2="365.86044" gradientTransform="translate(217.87389)" xlink:href="#linear-gradient"/><linearGradient id="New_Gradient_Swatch_1-4" x1="714.2329" y1="387.17018" x2="611.46589" y2="435.40779" xlink:href="#New_Gradient_Swatch_1"/><linearGradient id="New_Gradient_Swatch_1-5" x1="715.2363" y1="391.18884" x2="618.22492" y2="436.72482" xlink:href="#New_Gradient_Swatch_1"/><linearGradient id="New_Gradient_Swatch_1-6" x1="891.59786" y1="387.1702" x2="788.83084" y2="435.40781" gradientTransform="matrix(-1, 0, 0, 1, 1738.0821, 0)" xlink:href="#New_Gradient_Swatch_1"/><linearGradient id="New_Gradient_Swatch_1-7" x1="892.60124" y1="391.18884" x2="795.58996" y2="436.72478" gradientTransform="matrix(-1, 0, 0, 1, 1738.0821, 0)" xlink:href="#New_Gradient_Swatch_1"/><linearGradient id="New_Gradient_Swatch_1-8" x1="826.49161" y1="551.03118" x2="764.18364" y2="580.2778" xlink:href="#New_Gradient_Swatch_1"/><linearGradient id="New_Gradient_Swatch_1-9" x1="844.5679" y1="541.77003" x2="753.48907" y2="585.95684" xlink:href="#New_Gradient_Swatch_1"/><linearGradient id="New_Gradient_Swatch_1-10" x1="862.70191" y1="399.76103" x2="701.4627" y2="399.76103" xlink:href="#New_Gradient_Swatch_1"/><linearGradient id="New_Gradient_Swatch_1-11" x1="872.39591" y1="407.23618" x2="751.07162" y2="407.23618" xlink:href="#New_Gradient_Swatch_1"/><linearGradient id="linear-gradient-31" x1="799.89874" y1="423.78059" x2="863.57641" y2="423.78059" xlink:href="#linear-gradient"/><linearGradient id="linear-gradient-32" x1="823.89289" y1="636.53827" x2="852.82232" y2="636.53827" xlink:href="#linear-gradient"/><linearGradient id="linear-gradient-33" x1="848.25464" y1="617.82029" x2="852.61461" y2="548.85286" xlink:href="#linear-gradient"/><linearGradient id="linear-gradient-34" x1="874.10459" y1="636.53827" x2="902.85278" y2="636.53827" xlink:href="#linear-gradient"/><linearGradient id="linear-gradient-35" x1="862.47106" y1="552.60227" x2="901.86246" y2="552.60227" xlink:href="#linear-gradient"/><linearGradient id="linear-gradient-36" x1="867.38362" y1="390.24392" x2="868.06422" y2="454.67572" xlink:href="#linear-gradient-2"/><linearGradient id="linear-gradient-37" x1="883.81178" y1="370.76589" x2="881.40871" y2="530.57474" xlink:href="#linear-gradient"/><linearGradient id="linear-gradient-38" x1="848.32963" y1="370.23233" x2="845.92656" y2="530.04105" xlink:href="#linear-gradient"/><linearGradient id="linear-gradient-39" x1="861.01059" y1="388.0921" x2="860.58281" y2="485.19886" xlink:href="#linear-gradient"/><linearGradient id="linear-gradient-40" x1="792.88206" y1="384.68384" x2="813.83612" y2="384.68384" gradientTransform="translate(-24.84399 268.80689) rotate(-19.84653)" xlink:href="#linear-gradient"/><linearGradient id="linear-gradient-41" x1="877.95463" y1="436.98959" x2="915.54516" y2="436.98959" xlink:href="#linear-gradient"/><linearGradient id="linear-gradient-42" x1="814.8819" y1="385.19247" x2="834.37018" y2="385.19247" gradientTransform="matrix(-1, 0, 0, 1, 1525.0591, 0)" xlink:href="#linear-gradient-2"/><linearGradient id="linear-gradient-43" x1="398.01226" y1="661.51144" x2="426.72726" y2="661.51144" gradientTransform="matrix(-1, -0.0052, -0.0052, 1, 1093.26089, -23.39903)" xlink:href="#linear-gradient"/><linearGradient id="linear-gradient-44" x1="1199.33059" y1="563.80982" x2="1159.68345" y2="556.88728" gradientTransform="translate(-453.43)" xlink:href="#linear-gradient"/><linearGradient id="linear-gradient-45" x1="660.51343" y1="380.42539" x2="660.51343" y2="510.33285" xlink:href="#linear-gradient"/><linearGradient id="linear-gradient-46" x1="727.05404" y1="351.64096" x2="727.05404" y2="450.67655" gradientTransform="matrix(-0.9571, -0.2897, -0.2897, 0.9571, 1548.82269, 264.44005)" xlink:href="#linear-gradient"/><linearGradient id="linear-gradient-47" x1="347.85812" y1="661.51374" x2="376.75421" y2="661.51374" gradientTransform="matrix(-1, -0.0052, -0.0052, 1, 1093.26089, -23.39903)" xlink:href="#linear-gradient"/><linearGradient id="linear-gradient-48" x1="1222.28092" y1="529.87444" x2="1100.72877" y2="576.70465" gradientTransform="translate(-453.43)" xlink:href="#linear-gradient"/><linearGradient id="linear-gradient-49" x1="1180.1799" y1="406.74927" x2="1180.1799" y2="507.06621" gradientTransform="translate(-478.70631 -32.33217) rotate(0.29794)" xlink:href="#linear-gradient"/><linearGradient id="linear-gradient-50" x1="1144.11885" y1="360.88171" x2="1163.51271" y2="360.88171" gradientTransform="translate(-453.43)" xlink:href="#linear-gradient"/></defs><title>a-business-getting-what-they-deserves</title><g class="cls-1"><g id="BACKGROUND"><rect class="cls-2" width="1528" height="642"/></g><g id="OBJECTS"><path id="City" class="cls-3" d="M1528,312.36831l-49.01327-21.62717v-110.45s-54.19726-23.12633-55.1829-23.12633c-.98419,0-55.1818,23.126-55.1818,23.126v44.22369l-55.18217-24.35031-55.18217,24.35031V266.576l-55.184,24.35059V217.44085l-27.59109-12.1746-27.59035,12.1746v48.70091l-27.59072-12.17516-55.184,24.35v-37.085l-27.59108-12.17543-55.17926,24.35059v61.4353L954.754,302.6675V278.31663l-55.18289-24.35L844.3878,278.31608V253.95494l-82.77361-36.52631-55.18362,24.35059V193.078l-55.18072-24.35L596.067,193.078v67.688l-27.59072,12.17572V224.2408l-55.18363-24.35087-55.1818,24.35087v73.0515l-82.774-36.52658v-48.6998l-55.18326-24.35059-55.18,24.35V240.0632L237.38,227.88693l-55.17962,24.3517v29.72414l-55.18217,24.35V217.16623l-55.184-24.35087L0,224.51458V642H1528Z"/><path class="cls-4" d="M164.58251,235.76447c-2.7732-12.01741-9.67277-7.89323-21.228-11.59087-11.54876-3.69563-8.17114-16.88454-15.34148-20.95319-9.5598-5.42459-18.33788-.38933-24.28509,6.73043-9.881,11.82923-16.64137,2.20928-28.453,7.00344-6.76673,2.74651-3.88015,6.59407-13.03382,8.14317-6.39553,1.08233-13.31832-1.46625-19.62226.09141-4.66809,1.15392-8.05486,3.17781-9.08775,7.3068q1.977.84978,4.08921,1.54109c17.64771,5.80837,41.7225,3.869,59.55963,4.72513C103.26068,239.05375,166.548,244.2814,164.58251,235.76447Z"/><path class="cls-4" d="M461.72708,99.38051a12.27557,12.27557,0,0,0-11.98762-3.76c-4.83082,1.10311-7.56136,5.31875-12.057,7.0045-7.84443,2.94128-18.69236-2.8702-24.64987,4.712-7.28652,9.27378-12.91705,2.31845-12.91705,8.61136s50.3433,1.656,75.18387,1.98723c3.5887.04783,19.16949-.19089,12.46254-6.9926-2.0828-2.11219-5.05471-2.466-7.82493-2.96028-3.61222-.64443-12.201-.9981-14.81716-3.564-1.40825-1.38106-1.94992-3.36554-3.22185-4.84369Q461.81334,99.47675,461.72708,99.38051Z"/><path class="cls-4" d="M197.00263,117.895a12.27555,12.27555,0,0,0-11.98762-3.76c-4.83082,1.10311-7.56136,5.31875-12.057,7.00449-7.84443,2.94129-18.69236-2.8702-24.64987,4.712-7.28652,9.27379-12.91705,2.31846-12.91705,8.61137s50.3433,1.656,75.18387,1.98722c3.5887.04783,19.16949-.19089,12.46254-6.99259-2.0828-2.11219-5.05471-2.466-7.82493-2.96028-3.61222-.64444-12.201-.9981-14.81716-3.564-1.40825-1.38106-1.94992-3.36554-3.22185-4.84369Q197.08889,117.99128,197.00263,117.895Z"/><path class="cls-4" d="M1362.79727,305.60735c2.7732-12.01742,9.67278-7.89324,21.228-11.59088,11.54876-3.69562,8.17113-16.88453,15.34147-20.95319,9.5598-5.42458,18.33788-.38932,24.28509,6.73043,9.881,11.82923,16.64137,2.20929,28.453,7.00344,6.76673,2.74651,3.88015,6.59407,13.03382,8.14317,6.39554,1.08233,13.31832-1.46625,19.62226.09142,4.66809,1.15392,8.05487,3.17781,9.08775,7.30679q-1.977.84979-4.08921,1.5411c-17.64771,5.80836-41.7225,3.869-59.55963,4.72512C1424.1191,308.89662,1360.83179,314.12428,1362.79727,305.60735Z"/><path class="cls-4" d="M1065.65271,169.22338a12.27552,12.27552,0,0,1,11.98761-3.76c4.83082,1.1031,7.56136,5.31874,12.057,7.00449,7.84443,2.94128,18.69237-2.8702,24.64987,4.712,7.28652,9.27379,12.91705,2.31846,12.91705,8.61136s-50.3433,1.656-75.18387,1.98723c-3.5887.04783-19.16949-.19089-12.46254-6.99259,2.0828-2.1122,5.05471-2.466,7.82493-2.96029,3.61223-.64443,12.201-.99809,14.81716-3.564,1.40825-1.38106,1.94992-3.36554,3.22185-4.84369Q1065.56644,169.31963,1065.65271,169.22338Z"/><path class="cls-4" d="M1330.37716,187.7379a12.27555,12.27555,0,0,1,11.98761-3.76c4.83082,1.10311,7.56136,5.31875,12.057,7.00449,7.84444,2.94129,18.69237-2.87019,24.64987,4.712,7.28652,9.27379,12.91705,2.31846,12.91705,8.61137s-50.3433,1.656-75.18387,1.98722c-3.5887.04784-19.16949-.19088-12.46254-6.99259,2.0828-2.11219,5.05471-2.466,7.82493-2.96028,3.61223-.64444,12.201-.9981,14.81716-3.564,1.40825-1.38106,1.94992-3.36553,3.22185-4.84368Q1330.29089,187.83414,1330.37716,187.7379Z"/><path class="cls-5" d="M566.78973,589.37566c1.394,22.19741,2.05773,39.37119,2.37274,51.10075A1.566,1.566,0,0,0,570.72831,642h0a2.03118,2.03118,0,0,0,2.03216-2.00537c.36777-28.97186.31869-83.71261-4.55842-114.33762-11.19466-70.29461-49.09007-39.4362-64.30321-78.98435a1.81205,1.81205,0,0,0-3.40535.07047c-4.85636,14.53789-15.69408,58.17192,19.31429,81.211C562.22863,555.87147,563.97259,544.51677,566.78973,589.37566Z"/><path class="cls-6" d="M502.7706,452.08294a27.25635,27.25635,0,0,0,1.93928,7.43028,39.21493,39.21493,0,0,0,3.63833,6.76951,46.62864,46.62864,0,0,0,10.67629,10.977,72.51093,72.51093,0,0,0,6.44105,4.28067l3.39867,2.082c1.12024.71526,2.21317,1.47608,3.32084,2.21221a93.70065,93.70065,0,0,1,12.36626,10.116,79.02561,79.02561,0,0,1,10.09521,12.415l2.07114,3.43c.364.5606.63764,1.172.94679,1.76322l.90576,1.785.90451,1.78438.77491,1.84359c.50378,1.23367,1.04825,2.45147,1.51679,3.69693l1.26364,3.78753c.19592.63528.45286,1.25252.59824,1.90219l.49384,1.93157c.3221,1.28888.67207,2.57184.94372,3.87015l.68962,3.91958.34408,1.95783.21815,1.97488.42824,3.94722c.08722.65605.116,1.31692.14185,1.97776l.08045,1.9815.157,3.95875a.45844.45844,0,0,1-.91472.05874l-.00233-.02822-.33857-3.91564-.16732-1.95556c-.04789-.65244-.09849-1.30435-.20736-1.94993l-.55658-3.88094-.28125-1.93814-.40547-1.91532-.80929-3.82655c-.30807-1.26533-.70546-2.5077-1.03859-3.76509l-.5215-1.88045c-.15437-.63286-.41931-1.23034-.62335-1.84695l-1.30858-3.6713c-.482-1.20481-1.038-2.37936-1.55224-3.56985l-.7893-1.77766-.91583-1.7154-.9148-1.71481c-.31157-.56749-.58736-1.15529-.95306-1.69153l-2.07532-3.28241a79.611,79.611,0,0,0-9.91717-11.91037,96.28611,96.28611,0,0,0-12.07589-9.784c-1.08487-.71625-2.15288-1.45647-3.25068-2.15341l-3.3345-2.03067a72.69938,72.69938,0,0,1-6.65332-4.50528,44.70128,44.70128,0,0,1-10.84548-11.87351,38.4025,38.4025,0,0,1-1.88611-3.57775,18.72206,18.72206,0,0,1-.80038-1.85474c-.22239-.637-.49857-1.25068-.674-1.90324a31.20087,31.20087,0,0,1-.97618-3.91068,19.21211,19.21211,0,0,1-.34746-4.03236.3899.3899,0,0,1,.77771-.033Z"/><path class="cls-7" d="M1022.68323,640.68775a2.1883,2.1883,0,0,1-1.43892-.91255c-4.92576-7.10218-40.62-62.5911,10.78252-110.625,48.79717-45.59922,70.54293-54.58677,74.27916-82.17578a3.24927,3.24927,0,0,1,6.17581-.8978c10.04891,22.12277,25.16508,73.47968-31.305,105.06465-62.29273,34.84152-58.574,75.338-55.98513,86.89523a2.19592,2.19592,0,0,1-2.50839,2.6513Z"/><path class="cls-5" d="M1030.22985,641.96187a3.16418,3.16418,0,0,1-2.62209-2.73525c-1.15708-9.48747-3.6114-44.88,22.6773-53.40369,28.94008-9.38333,51.18621,18.00124,72.88418-2.18177a1.59637,1.59637,0,0,1,2.65857,1.48135c-2.22141,10.83434-11.36524,35.80162-48.62262,39.69253-39.87838,4.16465-44.49209,8.57653-43.87114,14.25242a2.66458,2.66458,0,0,1-3.1042,2.89441Z"/><path class="cls-6" d="M1103.66083,475.04192a41.20058,41.20058,0,0,1-2.24028,5.68711c-.86919,1.83877-1.82723,3.63516-2.858,5.38943-1.0294,1.755-2.12885,3.47128-3.31774,5.1242-1.18212,1.65723-2.412,3.28341-3.72268,4.84309a88.35278,88.35278,0,0,1-18.1,16.33216,112.40185,112.40185,0,0,1-10.45957,6.27853,95.1238,95.1238,0,0,0-10.14472,6.33589,102.23325,102.23325,0,0,0-17.69623,16.07165,94.8359,94.8359,0,0,0-13.30546,19.83965,81.70477,81.70477,0,0,0-8.19389,46.54179,96.41475,96.41475,0,0,0,5.85058,23.28713.36288.36288,0,0,1-.67392.26925,93.96746,93.96746,0,0,1-6.41609-23.40037,82.44311,82.44311,0,0,1-.76409-12.16495c.04143-2.034.12131-4.06962.31485-6.09681.07406-1.01567.21135-2.0248.31947-3.03746.14712-1.00725.2655-2.01958.44631-3.02194a84.45716,84.45716,0,0,1,7.42216-23.21113,94.68351,94.68351,0,0,1,13.483-20.31819,104.27429,104.27429,0,0,1,17.99387-16.46125,97.248,97.248,0,0,1,10.3455-6.51336l2.6453-1.44423c.88237-.46793,1.74108-.97663,2.59975-1.48548l1.29-.76006,1.26511-.8,1.26534-.79984,1.24158-.83551a96.86928,96.86928,0,0,0,9.50394-7.266c1.50942-1.30521,2.96317-2.67281,4.39262-4.06595,1.40655-1.41512,2.79228-2.85431,4.09831-4.36473a81.28532,81.28532,0,0,0,7.24711-9.53627c1.08828-1.6776,2.108-3.40124,3.04231-5.17044a47.24108,47.24108,0,0,0,2.49108-5.4396l.00655-.01766a.33145.33145,0,0,1,.628.21134Z"/><path class="cls-6" d="M1029.0703,635.49845a5.86083,5.86083,0,0,0,.0445-.975l.00558-.97072q.01257-.97029.0488-1.93967.0747-1.93872.22934-3.873c.21-2.57838.52495-5.14911.96468-7.70065a57.79763,57.79763,0,0,1,4.47262-14.85763,32.73636,32.73636,0,0,1,4.11714-6.62881,23.15524,23.15524,0,0,1,5.8535-5.19538,20.86437,20.86437,0,0,1,7.34474-2.73937,23.365,23.365,0,0,1,3.91467-.35362c.65569-.02435,1.3091.01945,1.96347.03978.65166.04976,1.30534.09489,1.95312.17848,1.304.16049,2.56624.38946,3.84229.60351l3.81606.67409q3.81235.69337,7.61007,1.45632c5.06547,1.00359,10.11,2.10372,15.17526,3.03513,2.53283.46,5.07335.87157,7.62471,1.1275a36.05579,36.05579,0,0,0,7.64508.0472,19.58923,19.58923,0,0,0,7.23026-2.205,23.85867,23.85867,0,0,0,5.97019-4.71419.29556.29556,0,0,1,.4318.4037,24.48516,24.48516,0,0,1-6.08183,4.89765,20.30083,20.30083,0,0,1-7.46248,2.35907,36.73215,36.73215,0,0,1-7.8074-.02637c-2.58534-.25314-5.14471-.66192-7.6899-1.1178-5.08909-.92312-10.13369-2.01094-15.19545-3.00089-5.05467-.98931-10.14308-1.94392-15.213-2.69817-.63084-.08551-1.2658-.13289-1.89934-.18553-.63491-.02325-1.2701-.07054-1.905-.05031a22.56009,22.56009,0,0,0-3.78718.31819,20.08515,20.08515,0,0,0-7.09,2.59389,22.427,22.427,0,0,0-5.6986,4.99837,32.24814,32.24814,0,0,0-4.07264,6.46608,57.22221,57.22221,0,0,0-4.54907,14.66481c-.45859,2.53077-.79394,5.08488-1.02493,7.64838q-.17179,1.92293-.26133,3.852-.04305.96425-.06514,1.92918l-.01387.96455a4.40163,4.40163,0,0,0,.06065.96015.25539.25539,0,0,1-.49859.111A.26555.26555,0,0,1,1029.0703,635.49845Z"/><path class="cls-8" d="M674.386,8.5385V388.29919c0,1.59887,3.04425,1.60141,3.04425,0V8.5385C677.43029,6.93983,674.386,6.93709,674.386,8.5385Z"/><path class="cls-9" d="M746.68527,132.4772h0c1.632,6.21575,11.787,2.34554,11.787,2.34554L756.876,115.36422l-10.27505,5.2686Z"/><path class="cls-10" d="M742.81546,128.7315l.063,4.3892c2.68951,5.08438,19.42526,1.91876,19.42526,1.91876l-1.314-7.95029A77.38787,77.38787,0,0,0,742.81546,128.7315Z"/><path class="cls-9" d="M740.66275,114.16453l3.64273-11.3295a3.23311,3.23311,0,0,1,4.06793-2.08007,13.21468,13.21468,0,0,1,9.15644,12.55424c.57752-.15642-.17424,4.32518-.66386,4.16739,0,0-6.62687,7.926-11.18639,6.45988h0A7.76721,7.76721,0,0,1,740.66275,114.16453Z"/><polygon class="cls-9" points="787.021 371.886 787.089 379.047 776.798 379.101 775.506 371.947 787.021 371.886"/><path class="cls-11" d="M787.08881,379.04683l2.78368,9.4221a.93637.93637,0,0,1-.898,1.26644l-27.76276.14546h0a9.043,9.043,0,0,1,6.43521-7.9636l9.15154-2.81617Z"/><path class="cls-12" d="M748.71621,223.13159l6.57264,66.97542a210.21841,210.21841,0,0,0,4.65194,27.87318l13.61766,57.55743,16.20636-.085-3.37723-26.04761a658.09128,658.09128,0,0,1-5.43092-93.9872l.47494-33.32659Z"/><path class="cls-9" d="M777.02028,209.54621l-6.24218,7.89919a3.063,3.063,0,0,0,.917,4.57734s12.19343.77016,12.90741-.89938l.89253-7.29269Z"/><polygon class="cls-9" points="776.98 209.587 780.52 206.327 788.921 211.347 785.455 213.872 776.98 209.587"/><polygon class="cls-13" points="780.523 206.327 788.453 211.687 788.921 211.347 794.394 207.359 784.566 201.545 780.523 206.327"/><path class="cls-14" d="M771.62053,142.33508a11.78283,11.78283,0,0,0-1.73454,18.88746L797.653,185.83436l.11139.09495-.112.13214-13.08674,15.48319,9.82793,5.81422,21.09047-15.36807a8.551,8.551,0,0,0,2.52-10.98318l-4.66719-4.96732-35.23458-37.55153Z"/><path class="cls-9" d="M683.57164,170.43594s-13.39312-4.3612-13.5644-2.47984c0,0,.14622,13.34849,1.96181,13.32735l11.10573-1.36414Z"/><polygon class="cls-9" points="683.518 170.416 687.931 172.338 686.731 182.05 683.021 179.899 683.518 170.416"/><polygon class="cls-15" points="687.931 172.34 686.23 181.759 686.731 182.05 692.589 185.446 693.939 174.107 687.931 172.34"/><path class="cls-16" d="M742.87693,138.35191a11.78319,11.78319,0,0,0-17.97925,6.04112L713.59655,179.7349l-.04188.14017-.16623-.04914L693.93893,174.107l-1.34985,11.33909,22.57679,13.08714a8.55045,8.55045,0,0,0,11.06519-2.13039l2.65936-6.27565,20.12277-47.399Z"/><polygon class="cls-9" points="739.997 372.133 738.81 379.3 728.519 379.354 728.482 372.194 739.997 372.133"/><path class="cls-17" d="M738.80978,379.30035l1.12979,9.43013a1.133,1.133,0,0,1-1.119,1.268l-27.763.14546h0a11.439,11.439,0,0,1,7.825-7.97084l9.63687-2.81892Z"/><path class="cls-18" d="M727.79429,223.24122l-5.16993,67.03709a202.42347,202.42347,0,0,0-.23708,27.89882l3.51958,57.6103,16.20617-.08516,1.19029-26.0713a670.19348,670.19348,0,0,1,11.04406-94.07373l6.31462-33.35713Z"/><path class="cls-19" d="M782.77755,151.27421l.38624,73.625c.00939,1.76331-10.78995,1.49609-10.78995,1.49609l-16.30523.28112-26.7099.45674a4.16978,4.16978,0,0,1-4.24177-4.15212l-.35789-68.27554c-.06693-12.71184,1.60729-18.22869,15.36357-23.10086a69.55424,69.55424,0,0,1,10.37257-1.89741,22.32857,22.32857,0,0,1,7.304.25176l.07537.01546c2.21026.44049,5.43893,1.13176,9.73181,2.15682A19.7881,19.7881,0,0,1,782.77755,151.27421Z"/><path class="cls-20" d="M761.73678,108.52533c-1.70713,4.351-3.67365,9.224-4.53779,10.77585-1.61472-.14683-4.0372.10846-5.65192-.03837-.5464-2.15075-.96516-3.70576-1.51156-5.8567a2.55344,2.55344,0,0,0,2.7641-3.83752c-.46123-.93383-1.73492-.344-2.40446-.65681-1.88938-.88391.94322-5.95576-6.08967-6.07675-.02-.0002.046.05638,0,0-4.74747-5.854,3.78093-8.82715,8.231-7.33145.7361.24726,3.75529,2.10552,4.4724,2.38A8.19122,8.19122,0,0,1,761.73678,108.52533Z"/><path class="cls-21" d="M677.68264,8.27363A99.95574,99.95574,0,0,1,737.402,2.00678c7.47965,1.53877,15.85026,4.9959,17.86651,12.36122,1.176,4.2966-.16582,9.01117,1.17874,13.258,2.33477,7.3755,11.60438,10.08557,19.29466,9.24473s15.11572-4.0327,22.84635-3.74061c7.73063.29229,16.25707,6.18286,15.2277,13.85025-.43089,3.21085-2.48119,6.21555-2.04718,9.42582.49961,3.69636,4.28368,6.2363,7.99609,6.59593,3.71262.35964,7.3628-.9399,10.8665-2.21907-4.044,4.01273-6.882,6.72378-11.88373,9.45107-5.00176,2.72749-11.09887,3.98219-16.45519,2.04131-5.29229-1.91758-9.18619-6.63744-14.454-8.62178-6.24824-2.35356-13.3015-.453-19.33518,2.40623-6.03388,2.85924-11.68287,6.68364-18.12845,8.42621-6.44539,1.74256-14.23436.86061-18.40743-4.35162-2.52974-3.15994-3.44969-7.53094-6.52272-10.16563-3.95478-3.39037-9.90623-2.66993-14.9358-1.31382a89.36729,89.36729,0,0,0-32.73595,16.67543Z"/><path class="cls-22" d="M811.76876,56.40623c-.434-3.21046,1.61609-6.215,2.04718-9.42582a9.30412,9.30412,0,0,0-.03974-2.76371c-6.75451,7.88764-12.32578,16.57775-15.69657,25.874a20.87165,20.87165,0,0,0,4.2128,2.18481c4.95657,1.796,10.53663.83771,15.307-1.474.67578-2.62726,1.33866-5.24531,2.056-7.81775C815.97863,62.585,812.26347,60.06618,811.76876,56.40623Z"/><path class="cls-23" d="M819.76505,63.00216c-.03661-.00352-.073-.01448-.10963-.0184-.71731,2.57244-1.38019,5.19049-2.056,7.81775.38467-.18638.775-.36394,1.14817-.56735,5.00177-2.72729,7.8397-5.43853,11.88354-9.45107C827.12765,62.06226,823.47747,63.3618,819.76505,63.00216Z"/><path class="cls-24" d="M756.447,27.626c-.93067-2.9401-.58437-6.10279-.667-9.19755C743.7906,30.7948,729.86693,43.56263,722.02275,58.11238a9.56821,9.56821,0,0,1,3.42189,1.8565c3.073,2.6345,3.993,7.00569,6.52272,10.16544,4.17307,5.21242,11.96184,6.09437,18.40743,4.35181,5.04249-1.36316,9.59887-3.99746,14.23181-6.4499,1.526-10.52605,3.53916-21.13158,6.94225-31.06523C764.9817,36.59767,758.36794,33.69359,756.447,27.626Z"/><path class="cls-25" d="M841.85,111.233c-3.46829,1.75451-5.92424,5.7923-5.01938,9.57245.54385,2.27232,2.19479,4.33223,1.97533,6.65839-.25254,2.67757-2.91856,4.66641-3.13509,7.34711a5.3018,5.3018,0,0,0,2.4043,4.59143,9.62154,9.62154,0,0,0,5.14113,1.49315,6.12682,6.12682,0,0,0,2.71164-.38254,2.75232,2.75232,0,0,0,1.68794-2.03347c.166-1.2457-.761-2.33419-1.26018-3.48748-1.15173-2.66054.028-5.77977,1.7455-8.11532,1.7177-2.33536,3.9722-4.28,5.38646-6.8107a8.62421,8.62421,0,0,0,1.12862-4.80717,7.60191,7.60191,0,0,0-.81382-3.21418c-1.19813-2.04855-4.30561-2.1437-6.3802-2.10944A12.80579,12.80579,0,0,0,841.85,111.233Z"/><path class="cls-26" d="M866.54076,122.64614c2.149-3.53231.73394-8.55405-2.61551-10.97829-3.34926-2.42424-8.08224-2.41249-11.78741-.57713a13.7794,13.7794,0,0,0-7.57869,12.371,12.79272,12.79272,0,0,0,8.51839,11.57813,9.402,9.402,0,0,0,7.31795-.44871c3.48258-1.89546,4.897-6.08086,6.01547-9.8849"/><path class="cls-27" d="M878.52629,217.27038s1.41914,66.54727.66486,74.75656l-8.95364,64.20643-8.711-.046s-5.36179-82.30571-9.43443-110.14423L847.74845,216.352Z"/><path class="cls-28" d="M864.059,217.27038s-7.43266,66.54727-9.27918,74.75656l-17.494,64.20643-8.70518-.046s5.58635-82.30571,5.21695-110.14423l-.39431-29.69111Z"/><path class="cls-29" d="M835.73433,150.97213c-.05246-5.8892,6.272-8.04425,13.22968-8.52017,2.71083-.1852,14.29973-1.80678,18.85553,4.20223,4.739,6.2506,10.3569,14.35006,8.11179,21.38668-1.07968,3.38372-1.93853,12.28761-2.851,15.79779-1.12725,4.334,7.5284,33.64178,7.5284,33.64178-1.70478,12.166-52.01669,8.47437-49.23852,1.61629-.79679.916,5.13725-17.65879,10.37688-33.85223C845.438,173.83728,835.76076,153.93592,835.73433,150.97213Z"/><path class="cls-30" d="M848.64038,142.47936c-6.82851.52037-12.95773,2.69558-12.90605,8.49258.02643,2.964,9.70362,22.86534,6.01274,34.27256-5.23963,16.19344-11.17367,34.76825-10.37688,33.852-1.60354,3.9587,14.47633,6.85455,28.6917,6.26254C860.98163,197.20732,859.75805,169.29361,848.64038,142.47936Z"/><path class="cls-31" d="M870.57072,202.47279a436.863,436.863,0,0,0-7.27468-59.04863c-5.304-2.05228-12.30346-1.11081-14.332-.9722-.10848.00744-.21535.019-.32363.0274,8.18247,19.73515,10.99688,40.06682,11.55053,60.64966A53.4022,53.4022,0,0,0,870.57072,202.47279Z"/><path class="cls-32" d="M880.60871,217.48025s-8.65585-29.30779-7.5284-33.64159c.91249-3.51018,1.77134-12.41407,2.851-15.79779,2.24511-7.03662-3.37275-15.13608-8.11179-21.38668a10.10253,10.10253,0,0,0-4.5235-3.23,448.98373,448.98373,0,0,1,8.01861,80.515C876.48184,222.6956,880.16881,220.61984,880.60871,217.48025Z"/><path class="cls-9" d="M860.57914,145.61739a2.87674,2.87674,0,0,1-1.78409,2.71809c-1.8379.7455-4.82851-.72612-5.878-1.57929a3.25658,3.25658,0,0,1-1.16954-2.78054l1.47162-19.34968,6.80091.35513Z"/><path class="cls-9" d="M851.34634,131.52555a2.13792,2.13792,0,0,1-.86062-1.87843,1.81292,1.81292,0,0,1,1.261-1.54366,1.7215,1.7215,0,0,1,1.04953.04738l.13391-5.74081a5.85418,5.85418,0,0,1,6.17681-5.72729l4.786.25a3.42045,3.42045,0,0,1,3.24119,3.4955l-.24471,10.4961a5.71935,5.71935,0,0,1-6.03447,5.59554l-4.1114-.21456a4.25911,4.25911,0,0,1-4.036-4.35259h0A2.292,2.292,0,0,1,851.34634,131.52555Z"/><path class="cls-33" d="M852.26646,127.42257c-1.63251.33457-3.64977.18716-4.52232-1.507-.81539-1.584-.15349-3.62647.71691-5.13548a15.26765,15.26765,0,0,1,7.03075-6.37648c1.97749-.86746,6.6394-2.47514,8.279-.06734C867.566,119.91,855.34575,126.792,852.26646,127.42257Z"/><path class="cls-9" d="M881.23305,133.89909l-3.33382-5.87589,4.71124-5.12511,3.241,3.24276a7.05366,7.05366,0,0,1,1.9401,3.712l-.70615,3.35415Z"/><path class="cls-9" d="M877.576,119.92178a11.13851,11.13851,0,0,0,1.63839,10.34946c.70674.90388,2.16426-.18206,1.45459-1.08966a9.26131,9.26131,0,0,1-1.472-8.53212.92567.92567,0,0,0-.434-1.19714A.91148.91148,0,0,0,877.576,119.92178Z"/><path class="cls-9" d="M879.22167,119.0271a11.13974,11.13974,0,0,0,1.63841,10.34947c.70673.90368,2.16428-.18227,1.45458-1.08986a9.26138,9.26138,0,0,1-1.472-8.53212.92537.92537,0,0,0-.43422-1.19695A.91137.91137,0,0,0,879.22167,119.0271Z"/><path class="cls-9" d="M881.00319,119.63047a11.13912,11.13912,0,0,0,1.63841,10.34947c.70654.90387,2.16428-.18207,1.45458-1.08967a9.26081,9.26081,0,0,1-1.472-8.53212.92544.92544,0,0,0-.43422-1.19694A.9112.9112,0,0,0,881.00319,119.63047Z"/><path class="cls-9" d="M882.65393,120.85659a11.13863,11.13863,0,0,0,1.63861,10.34946c.70654.90388,2.16426-.18187,1.45439-1.08966a9.26129,9.26129,0,0,1-1.47181-8.53212.9257.9257,0,0,0-.43422-1.197A.91144.91144,0,0,0,882.65393,120.85659Z"/><polygon class="cls-34" points="870.311 127.542 870.311 121.71 868.692 121.563 868.692 127.689 870.311 127.542"/><polygon class="cls-35" points="870.311 122.2 870.311 127.052 897.255 128.764 897.255 120.488 870.311 122.2"/><polygon class="cls-36" points="899.393 119.827 897.095 119.973 897.095 129.279 899.393 129.425 899.393 119.827"/><path class="cls-37" d="M898.83994,171.88406c-1.07675-13.13314-5.38683-25.5803-10.03917-37.91038l-8.1535.77662c1.87687,8.50647,3.288,15.77861,5.28956,24.61632-6.80833-6.13685-13.24043-9.04445-20.73026-14.32852l5.4867,21.51628q12.12776,4.04248,24.25532,8.085c1.10278.36747,2.46652.68364,3.306-.12059A3.20938,3.20938,0,0,0,898.83994,171.88406Z"/><path class="cls-38" d="M887.64356,130.91161c-2.57987.27506-5.09436.52115-7.67444.7964.23493,1.03779.45791,2.04347.67815,3.04229l8.1535-.77662Q888.22285,132.44254,887.64356,130.91161Z"/><path class="cls-9" d="M878.81877,128.48424a7.606,7.606,0,0,1,.02586-4.32812,1.7074,1.7074,0,0,1,.35687-.70262.684.684,0,0,1,.72162-.20086c.41777.17051.42521.74549.40838,1.19636a6.639,6.639,0,0,0,1.89526,4.85709"/><path class="cls-9" d="M822.0415,225.00669l3.44967,5.80874-4.60863,5.21751-3.30485-3.17777a7.056,7.056,0,0,1-2.01331-3.67307l.63958-3.36727Z"/><path class="cls-9" d="M825.97492,238.90882a11.139,11.139,0,0,0-1.84338-10.315c-.72436-.88959-2.16014.22494-1.43266,1.11825a9.2613,9.2613,0,0,1,1.641,8.50138.92556.92556,0,0,0,.45769,1.18814A.91146.91146,0,0,0,825.97492,238.90882Z"/><path class="cls-9" d="M824.34728,239.836a11.13946,11.13946,0,0,0-1.84319-10.315c-.72455-.88958-2.16034.22514-1.43266,1.11864a9.2608,9.2608,0,0,1,1.64077,8.501.92579.92579,0,0,0,.4579,1.18834A.91151.91151,0,0,0,824.34728,239.836Z"/><path class="cls-9" d="M822.55421,239.26787a11.13921,11.13921,0,0,0-1.84319-10.31482c-.72436-.88959-2.16012.22494-1.43285,1.11825a9.26131,9.26131,0,0,1,1.64115,8.50138.92508.92508,0,0,0,.45771,1.18794A.91091.91091,0,0,0,822.55421,239.26787Z"/><path class="cls-9" d="M820.87938,238.07483a11.13842,11.13842,0,0,0-1.84338-10.315c-.72436-.88958-2.16015.22494-1.43246,1.11845a9.2613,9.2613,0,0,1,1.64076,8.50118.92549.92549,0,0,0,.45773,1.18814A.9112.9112,0,0,0,820.87938,238.07483Z"/><path class="cls-39" d="M814.55576,226.49064c2.61434-.30032,5.91485-1.18325,8.529-1.484.13958-1.13724.29287-2.47847.455-3.95831l-8.845.97318C814.66109,223.69012,814.61645,225.205,814.55576,226.49064Z"/><path class="cls-40" d="M850.13118,161.34235l-13.046-14.484c-1.77271,2.45028-15.3843,28.521-21.74983,37.24751-.77622,3.91543-.38822,25.40685-.64057,37.91567l8.845-.97318c1.12021-10.233,2.6576-27.13492,2.96829-29.66625Z"/><path class="cls-41" d="M870.23751,356.23337l-8.711-.046-1.24021,8.39469a.98078.98078,0,0,0,.31656.87627l3.45615,9.56658h2.05834v-6.47769l10.54309,6.07714a6.80237,6.80237,0,0,0,3.39781.90916h4.65858Z"/><path class="cls-42" d="M837.33947,356.23337l-8.71125-.046-1.24019,8.39469a.98072.98072,0,0,0,.31654.87627l3.45634,9.56658h2.05815v-6.47769l10.54308,6.07714a6.80316,6.80316,0,0,0,3.398.90916h4.65839Z"/><path class="cls-43" d="M729.96816,466.76817c-41.3552-7.40428-90.184-16.31228-112.04363-56.83445-9.34006-17.314-10.75941-38.20131.59143-54.96562,12.92582-19.09067,36.79606-24.97243,57.88594-17.12179,10.01509,3.72807,14.33851-12.29485,4.40878-15.991-24.61573-9.16329-53.38437-2.74589-70.83289,17.21263-15.96069,18.25629-20.15664,43.3127-12.1672,66.08779,18.99844,54.159,77.35854,68.58154,127.74917,77.60367C735.99517,484.62763,740.47285,468.649,729.96816,466.76817Z"/><path class="cls-44" d="M729.96816,466.76817c-41.3552-7.40428-90.184-16.31228-112.04363-56.83445-9.34006-17.314-10.75941-38.20131.59143-54.96562,12.92582-19.09067,36.79606-24.97243,57.88594-17.12179,6.14743,2.28837,10.14293-2.86493,10.02155-8.04132-26.65058-12.19031-65.31234-.43462-79.28123,24.399-18.2418,33.167-1.65838,69.65084,28.19209,89.551,22.95128,14.60535,48.52512,22.652,70.94664,35.27883,6.48964,1.37236,12.947,2.59182,19.27881,3.72553C735.99517,484.62763,740.47285,468.649,729.96816,466.76817Z"/><path class="cls-45" d="M830.74881,466.76817c41.35519-7.40428,90.18395-16.31228,112.04381-56.83445,9.33987-17.314,10.75921-38.20131-.59143-54.96562-12.92579-19.09067-36.79605-24.97243-57.88613-17.12179-10.0149,3.72807-14.33832-12.29485-4.40858-15.991,24.61556-9.16329,53.38419-2.74589,70.8329,17.21263,15.96067,18.25629,20.15645,43.3127,12.1672,66.08779-18.99845,54.159-77.35873,68.58154-127.74918,77.60367C824.722,484.62763,820.2441,468.649,830.74881,466.76817Z"/><path class="cls-46" d="M830.74881,466.76817c41.35519-7.40428,90.18395-16.31228,112.04381-56.83445,9.33987-17.314,10.75921-38.20131-.59143-54.96562-12.92579-19.09067-36.79605-24.97243-57.88613-17.12179-6.14723,2.28837-10.14293-2.86493-10.02136-8.04132,26.65059-12.19031,65.31234-.43462,79.28123,24.399,18.24181,33.167,1.65819,69.65084-28.19228,89.551-22.95109,14.60535-48.52493,22.652-70.94645,35.27883-6.48963,1.37236-12.94716,2.59182-19.2788,3.72553C824.722,484.62763,820.2441,468.649,830.74881,466.76817Z"/><path class="cls-47" d="M806.04381,595.86309c-5.7876-20.21752-2.44362-86.50344,9.67073-106.52794H746.26339c12.11415,20.0245,15.45832,86.31042,9.67072,106.52794-5.574,19.47262-19.61357,36.1739-38.3125,46.13691H844.35612C825.65719,632.037,811.618,615.33571,806.04381,595.86309Z"/><path class="cls-48" d="M806.04381,595.86309c-5.7876-20.21752-2.44362-86.50344,9.67073-106.52794H746.26339c7.38959,12.21478,13.90058,26.96421,15.67641,40.70738A12.61452,12.61452,0,0,0,774.47,540.94759c3.02526.00627,6.05072-.02114,9.69657-.02114C782.88677,562.46387,789.86094,626.93283,804.397,642h39.95914C825.65758,632.037,811.618,615.33571,806.04381,595.86309Z"/><path class="cls-49" d="M780.98916,512.79525h-.00039c-53.23265,0-101.52618-41.25025-108.67534-98.62249L658.31515,301.83334c-1.0325-8.28623,3.97358-15.10652,11.197-15.10652H892.466c7.22338,0,12.22906,6.82029,11.19676,15.10632L889.66432,414.17276C882.51535,471.545,834.22161,512.79525,780.98916,512.79525Z"/><path class="cls-50" d="M851.96458,409.42686c-34.28352,46.15727-83.80529,79.92219-133.4608,83.1767a107.00786,107.00786,0,0,0,62.485,20.19169h.00039c53.23245,0,101.52619-41.25025,108.67516-98.62249l13.49414-108.29224a21.33161,21.33161,0,0,0,.10063-4.20341C893.92666,343.64721,874.37612,379.2197,851.96458,409.42686Z"/><polygon class="cls-51" points="799.899 451.136 789.988 452.338 787.722 460.673 796.066 462.711 802.901 460.156 799.899 451.136"/><path class="cls-51" d="M781.55141,456.86741a13.818,13.818,0,0,1,12.14841-4.90153c1.44362.17482,1.27546,2.43207-.17423,2.25646a11.49985,11.49985,0,0,0-10.09771,3.91113,1.16561,1.16561,0,0,1-1.57145.3054A1.14089,1.14089,0,0,1,781.55141,456.86741Z"/><path class="cls-51" d="M781.2928,459.53676a13.81813,13.81813,0,0,1,12.14861-4.90154c1.44342.17483,1.27525,2.43207-.17463,2.25647a11.49909,11.49909,0,0,0-10.09731,3.91112,1.16577,1.16577,0,0,1-1.57146.30521A1.14091,1.14091,0,0,1,781.2928,459.53676Z"/><path class="cls-51" d="M783.12111,461.87133A13.81789,13.81789,0,0,1,795.26974,456.97c1.4436.17482,1.27523,2.43187-.17446,2.25626a11.5003,11.5003,0,0,0-10.09768,3.91113,1.16494,1.16494,0,0,1-1.57109.30521A1.14055,1.14055,0,0,1,783.12111,461.87133Z"/><path class="cls-51" d="M786.02832,462.58433a13.81737,13.81737,0,0,1,12.14841-4.90153c1.44362.17482,1.27545,2.43188-.17424,2.25627a11.50048,11.50048,0,0,0-10.09768,3.91112,1.16541,1.16541,0,0,1-1.57128.30541A1.14092,1.14092,0,0,1,786.02832,462.58433Z"/><path class="cls-52" d="M836.71926,457.67556l4.39547-5.21908,22.46168-54.493-4.5791-5.99707a11.79654,11.79654,0,0,0-18.98282.474L829.5503,438.00169l-.08122.12177-.1447-.09593L799.89874,451.1362l3.00274,9.02017S833.20281,460.13523,836.71926,457.67556Z"/><polygon class="cls-9" points="852.96 624.014 851.733 631.183 841.431 631.183 841.431 624.014 852.96 624.014"/><path class="cls-53" d="M851.73318,631.183l1.08166,9.44735a1.13434,1.13434,0,0,1-1.12688,1.26312H823.89289a11.45173,11.45173,0,0,1,7.8757-7.93893l9.6625-2.77154Z"/><path class="cls-54" d="M841.52506,474.89132l-5.5278,67.085a202.61962,202.61962,0,0,0-.38391,27.929L839.4724,631.183h12.26078s10.11317-92.51989,16.2046-123.79969l6.49727-33.36183Z"/><polygon class="cls-9" points="900.038 624.014 900.068 631.183 889.766 631.183 888.509 624.014 900.038 624.014"/><path class="cls-55" d="M900.06782,631.183l2.7373,9.44735a.93753.93753,0,0,1-.90566,1.26312H874.10459a9.05381,9.05381,0,0,1,6.48437-7.93893l9.17677-2.77154Z"/><path class="cls-56" d="M862.47106,474.89132l6.22827,67.085a210.51011,210.51011,0,0,0,4.51039,27.929l16.556,61.27768h12.09673l-2.34124-29.67878a658.89577,658.89577,0,0,1-4.94343-94.12091l.65075-33.36183Z"/><path class="cls-57" d="M896.94781,403.13222V476.842c0,1.76527-10.80992,1.44088-10.80992,1.44088l-16.32481.196-26.7426.317a4.1744,4.1744,0,0,1-4.22455-4.17914V406.2628c0-12.72613,1.70517-18.24082,15.50256-23.046,3.3569-1.16954,14.03135-2.26312,14.03135-2.26312s1.21437.196,3.74941.724c2.21026.45282,5.439,1.1619,9.73122,2.21026A19.80361,19.80361,0,0,1,896.94781,403.13222Z"/><path class="cls-58" d="M896.94781,403.13222v88.7973c0,1.76507-10.80992,1.44068-10.80992,1.44068l-15.6306.18872c-.19634-4.4585-.44519-9.558-.69421-15.08009-1.0787-23.31757-2.34613-54.262-1.22964-77.00636,0-5.65036.95066-13.79,3.54581-19.79486,2.21026.45282,5.439,1.1619,9.73122,2.21026A19.80361,19.80361,0,0,1,896.94781,403.13222Z"/><path class="cls-59" d="M855.63843,387.411a11.74468,11.74468,0,0,1,1.463-4.87942,21.987,21.987,0,0,0-2.75157.68442c-13.79778,4.80874-15.50491,10.31932-15.50491,23.04878l-.7545,83.441a4.1791,4.1791,0,0,0,4.22886,4.17874l9.21438-.10963C850.38745,463.54929,851.75335,417.93686,855.63843,387.411Z"/><path class="cls-60" d="M857.63687,470.57319s-.94421-55.83309,1.61374-80.17728l.12354-1.17816,4.50137.4722-.12392,1.17914c-2.52663,24.05171.20106,78.31842.20106,78.31842l-2.44225,4.26078Z"/><path class="cls-61" d="M851.52079,360.30131a7.743,7.743,0,0,1,2.34534-11.5284,12.21283,12.21283,0,0,1,7.6431-.93834,15.49869,15.49869,0,0,1,6.05424,1.992,8.29251,8.29251,0,0,1,3.80306,4.96868c.48884,2.0836-.68834,9.63353-2.39233,10.92817-.639,1.84749-7.69657,5.36688-10.47085,2.29777C856.14959,365.417,853.575,362.93639,851.52079,360.30131Z"/><path class="cls-51" d="M859.622,375.722l7.70792-2.859.47573-7.25588c-.23924-4.7549-1.80286-5.54366-4.759-6.29993a16.08068,16.08068,0,0,1-9.11807-6.24688h0a3.229,3.229,0,0,0-3.06265,3.38724l.59906,11.89939A7.77568,7.77568,0,0,0,859.622,375.722Z"/><path class="cls-51" d="M858.0151,383.97029h0c3.72514,5.2459,10.57088,0,10.57088,0l-1.34081-19.79995H858.0151Z"/><path class="cls-51" d="M867.07952,365.04818a2.0049,2.0049,0,0,1,2.26449.51273,2.18683,2.18683,0,0,1,.29875,2.33007,2.4079,2.4079,0,0,1-1.97455,1.31715,2.67794,2.67794,0,0,1-2.196-.95752Z"/><polygon class="cls-51" points="884.479 482.599 882.037 492.28 888.999 497.391 893.901 490.338 893.976 483.041 884.479 482.599"/><path class="cls-51" d="M883.22931,501.78035a13.8176,13.8176,0,0,1-.205-13.09849c.682-1.28426,2.72785-.31519,2.04265.97416a11.49985,11.49985,0,0,0,.01841,10.82872C885.90824,501.68932,884.04628,502.9959,883.22931,501.78035Z"/><path class="cls-51" d="M885.62692,502.98141a13.81735,13.81735,0,0,1-.205-13.09829c.68226-1.28407,2.72788-.31539,2.04287.97416a11.50012,11.50012,0,0,0,.01821,10.82852C888.30606,502.89038,886.44388,504.19715,885.62692,502.98141Z"/><path class="cls-51" d="M888.46289,502.11512a13.81761,13.81761,0,0,1-.205-13.09849c.68246-1.28426,2.72788-.31558,2.04268.97416a11.50051,11.50051,0,0,0,.0184,10.82852C891.1422,502.02389,889.27982,503.33067,888.46289,502.11512Z"/><path class="cls-51" d="M890.17352,499.65878a13.8166,13.8166,0,0,1-.20478-13.09849c.68207-1.28427,2.72749-.31559,2.04268.974a11.50092,11.50092,0,0,0,.018,10.82871C892.85265,499.56735,890.99048,500.87432,890.17352,499.65878Z"/><polygon class="cls-51" points="884.459 482.653 886.357 478.224 896.088 479.368 893.956 483.095 884.459 482.653"/><path class="cls-62" d="M877.95463,405.38105c3.67779-4.04973,10.41172-19.96127,16.96968-10.41936l19.91408,38.98243c4.61375,7.83674-14.79622,40.53-16.76686,48.07348l-14.18815-4.13528,12.28467-43.65766Z"/><path class="cls-63" d="M706.30758,386.14355h0c-1.63215,6.21594-11.787,2.34574-11.787,2.34574l1.59632-19.45872,10.27488,5.2688Z"/><path class="cls-64" d="M710.1772,382.39805l-.063,4.3892c-2.68951,5.08419-19.42524,1.91856-19.42524,1.91856l1.314-7.95029A77.38814,77.38814,0,0,1,710.1772,382.39805Z"/><path class="cls-63" d="M712.3301,367.83088l-3.64292-11.3295a3.233,3.233,0,0,0-4.06794-2.07988,13.21438,13.21438,0,0,0-9.15623,12.55425c-.57772-.15642.174,4.32518.66366,4.16739,0,0,6.62687,7.92581,11.18639,6.45968h0A7.76728,7.76728,0,0,0,712.3301,367.83088Z"/><polygon class="cls-63" points="665.971 625.553 665.904 630.558 676.194 630.612 677.486 625.614 665.971 625.553"/><path class="cls-65" d="M665.90386,630.55832l-2.78369,9.4219a.93659.93659,0,0,0,.898,1.26665l27.76278.14545h0a9.04253,9.04253,0,0,0-6.43522-7.96359l-9.15154-2.81637Z"/><path class="cls-66" d="M704.27645,476.79794l-6.57264,66.97542a210.25485,210.25485,0,0,1-4.65173,27.87337l-13.61787,57.55744-16.20637-.08516,3.37746-26.04741a658.12346,658.12346,0,0,0,5.4309-93.9872l-.47514-33.3266Z"/><path class="cls-63" d="M675.9724,463.21256l6.24235,7.89939a3.06312,3.06312,0,0,1-.91719,4.57733s-12.19344.77017-12.90722-.89957l-.89272-7.29249Z"/><polygon class="cls-63" points="676.012 463.254 672.472 459.993 664.072 465.013 667.538 467.538 676.012 463.254"/><path class="cls-67" d="M681.37235,396.00163l-6.4818-3.84633-35.23478,37.55135-4.667,4.96731a8.55088,8.55088,0,0,0,2.51978,10.98318L658.599,461.0254l5.4726,3.98748.46829.34045,7.92972-5.35964-4.04248-4.7827L655.3404,439.7278l-.11218-.13214.1114-.09476,27.76726-24.61181a11.7831,11.7831,0,0,0-1.73453-18.88746Z"/><path class="cls-68" d="M710.11592,392.01846a11.783,11.783,0,0,1,17.97908,6.04112l11.30131,35.34167.0417.14037.16621-.04934,38.32229,17.82227-3.00275,9.02037s-45.53-6.88255-48.16216-10.26548l-2.65936-6.27585-20.12276-47.39885Z"/><polygon class="cls-63" points="712.996 625.8 714.183 630.812 724.473 630.865 724.511 625.86 712.996 625.8"/><path class="cls-69" d="M714.1831,630.81165l-1.13,9.43013a1.13324,1.13324,0,0,0,1.119,1.2682l27.763.14546h0a11.43927,11.43927,0,0,0-7.825-7.971l-9.63685-2.81892Z"/><path class="cls-70" d="M725.19856,476.90777l5.16974,67.03689a202.39647,202.39647,0,0,1,.23708,27.899L727.086,629.454l-16.20636-.08516-1.19029-26.0713a670.21431,670.21431,0,0,0-11.04387-94.07373l-6.31481-33.35733Z"/><path class="cls-71" d="M670.21532,404.94056l-.38645,73.625c-.0092,1.76332,10.78995,1.49609,10.78995,1.49609l16.30523.28132,26.7101.45674a4.17,4.17,0,0,0,4.24159-4.15212l.35806-68.27554c.06676-12.71185-1.60728-18.22869-15.36376-23.101a69.5785,69.5785,0,0,0-10.37255-1.89742,22.33276,22.33276,0,0,0-7.30386.25176l-.07557.01547c-2.21026.44068-5.43873,1.132-9.73181,2.157A19.78762,19.78762,0,0,0,670.21532,404.94056Z"/><path class="cls-72" d="M691.25588,362.19187c1.70712,4.35083,3.67365,9.22378,4.53779,10.77586,1.61472-.14683,4.0372.10826,5.65192-.03837.5466-2.15094.96535-3.70576,1.51155-5.8569a2.55336,2.55336,0,0,1-2.7641-3.83732c.46144-.93383,1.73513-.344,2.40447-.657,1.88939-.88371-.943-5.95557,6.08967-6.07675.02019-.00019-.04581.05658,0,0,4.74746-5.854-3.78093-8.82714-8.231-7.33125-.7359.24726-3.75529,2.10532-4.4724,2.38A8.19129,8.19129,0,0,0,691.25588,362.19187Z"/><polygon class="cls-63" points="777.927 451.315 787.837 452.517 790.104 460.851 781.759 462.889 774.924 460.335 777.927 451.315"/><path class="cls-63" d="M796.27383,457.046a13.81724,13.81724,0,0,0-12.14841-4.90154c-1.44362.17483-1.27543,2.43207.17423,2.25647a11.50021,11.50021,0,0,1,10.09771,3.91092,1.16566,1.16566,0,0,0,1.57146.3056A1.14092,1.14092,0,0,0,796.27383,457.046Z"/><path class="cls-63" d="M796.53246,459.7153a13.818,13.818,0,0,0-12.14843-4.90153c-1.44362.17482-1.27545,2.43187.17443,2.25646a11.49911,11.49911,0,0,1,10.09732,3.91113,1.16557,1.16557,0,0,0,1.57145.305A1.14069,1.14069,0,0,0,796.53246,459.7153Z"/><path class="cls-63" d="M794.70433,462.04988a13.81842,13.81842,0,0,0-12.1488-4.90134c-1.44343.17482-1.27526,2.43187.17443,2.25627a11.50035,11.50035,0,0,1,10.0977,3.91112,1.1651,1.1651,0,0,0,1.57126.30521A1.14089,1.14089,0,0,0,794.70433,462.04988Z"/><path class="cls-63" d="M791.79692,462.76288a13.81733,13.81733,0,0,0-12.14841-4.90154c-1.44362.17483-1.27545,2.43188.17424,2.25627a11.50055,11.50055,0,0,1,10.0977,3.91113,1.16515,1.16515,0,0,0,1.57127.3052A1.14049,1.14049,0,0,0,791.79692,462.76288Z"/><text class="cls-73" transform="translate(424.83112 297.80749)">MISSION</text><path class="cls-74" d="M466.54371,276.68615a42.037,42.037,0,1,1,42.03686-42.037A42.084,42.084,0,0,1,466.54371,276.68615Zm0-74.50362a32.46667,32.46667,0,1,0,32.46657,32.46657A32.50311,32.50311,0,0,0,466.54371,202.18253Z"/><path class="cls-74" d="M466.54371,256.46588A21.81679,21.81679,0,1,1,488.3605,234.6491,21.84146,21.84146,0,0,1,466.54371,256.46588Zm0-34.06308A12.2464,12.2464,0,1,0,478.79,234.6491,12.26043,12.26043,0,0,0,466.54371,222.4028Z"/><path class="cls-74" d="M466.54371,235.44687a.79777.79777,0,0,1-.43618-1.46594l52.98911-34.6504a.79788.79788,0,1,1,.87216,1.33634l-52.9891,34.65059A.79615.79615,0,0,1,466.54371,235.44687Z"/><polygon class="cls-74" points="511.434 212.073 511.072 211.969 504.692 210.664 516.271 203.092 523.079 204.458 511.434 212.073"/><path class="cls-74" d="M516.97116,195.11694l-1.56853,6.64625-11.57931,7.572a29.7582,29.7582,0,0,0,1.536-6.62511Z"/><path class="cls-75" d="M784.35525,317.08434c-18.1862,0-28.2422,7.70243-28.2422,7.70243v34.716a30.80948,30.80948,0,0,0,14.26861,25.99279l13.88276,8.83458.00019-6.08654-11.12609-7.08008a25.55511,25.55511,0,0,1-11.89058-21.66075V327.63368c3.50549-1.925,11.4315-5.39429,23.01667-5.41269v0c.03074,0,.05971-.00176.09064-.00176,11.647,0,19.60829,3.49119,23.10714,5.4123v31.87123a25.55513,25.55513,0,0,1-11.8906,21.66075l-11.21654,7.13784-.09064-.05776-.00019,6.08654.09083.05775,13.9734-8.89233a30.809,30.809,0,0,0,14.26861-25.99279v-34.716S802.54146,317.08434,784.35525,317.08434Z"/><text class="cls-76" transform="translate(919.38723 58.31428)">V<tspan class="cls-77" x="14.43066" y="0">ISION</tspan></text><path class="cls-74" d="M956.73156,102.04666a55.08474,55.08474,0,0,1-39.0721-16.158l-2.11433-2.11375,2.11433-2.11374a55.32008,55.32008,0,0,1,78.14439,0l2.11433,2.11374-2.11433,2.11375A55.08485,55.08485,0,0,1,956.73156,102.04666ZM924.13461,83.7749a49.35773,49.35773,0,0,0,65.1939,0A49.3573,49.3573,0,0,0,924.13461,83.7749Z"/><circle class="cls-74" cx="957.46707" cy="82.81033" r="15.15879"/><line class="cls-78" x1="927.8944" y1="92.48047" x2="899.39299" y2="119.82663"/></g></g></svg>