<svg xmlns="http://www.w3.org/2000/svg" xmlns:xlink="http://www.w3.org/1999/xlink" viewBox="0 0 1528 642"><defs><style>.cls-1{fill:none;}.cls-2{fill:#f7f7f7;}.cls-3{opacity:0.1;}.cls-4{fill:#e8e8e8;}.cls-5{fill:#373660;}.cls-11,.cls-6{fill:#fff;}.cls-6{opacity:0.5;}.cls-7{opacity:0.99;}.cls-8{fill:#ffc967;opacity:0.7;}.cls-9{fill:url(#linear-gradient);}.cls-10{fill:#e5e5e5;}.cls-12{fill:#db5858;}.cls-13{fill:#fe6d60;}.cls-14{fill:url(#linear-gradient-2);}.cls-15{fill:url(#linear-gradient-3);}.cls-16{fill:#ffa648;}.cls-17{fill:#e58833;}.cls-18{fill:url(#linear-gradient-4);}.cls-19{fill:url(#linear-gradient-5);}.cls-20{fill:url(#linear-gradient-6);}.cls-21{fill:url(#linear-gradient-7);}.cls-22{fill:url(#linear-gradient-8);}.cls-23{fill:url(#linear-gradient-9);}.cls-24{fill:url(#linear-gradient-10);}.cls-25{fill:url(#linear-gradient-11);}.cls-26{fill:url(#linear-gradient-12);}.cls-27{fill:url(#linear-gradient-13);}.cls-28{fill:url(#linear-gradient-14);}.cls-29{fill:url(#linear-gradient-15);}.cls-30{clip-path:url(#clip-path);}.cls-31{fill:url(#linear-gradient-16);}.cls-32{fill:url(#linear-gradient-17);}.cls-33{fill:url(#linear-gradient-18);}.cls-34{fill:url(#linear-gradient-19);}.cls-35{fill:url(#linear-gradient-20);}.cls-36{fill:url(#linear-gradient-21);}.cls-37{fill:url(#linear-gradient-22);}.cls-38{fill:url(#linear-gradient-23);}.cls-39{fill:url(#linear-gradient-24);}.cls-40{fill:url(#linear-gradient-25);}.cls-41{fill:url(#linear-gradient-26);}.cls-42{fill:url(#linear-gradient-27);}.cls-43{fill:url(#linear-gradient-28);}.cls-44{fill:url(#linear-gradient-29);}.cls-45{fill:url(#linear-gradient-30);}</style><linearGradient id="linear-gradient" x1="667.23021" y1="87.75843" x2="669.12076" y2="545.19063" gradientUnits="userSpaceOnUse"><stop offset="0" stop-color="#2b3582"/><stop offset="1" stop-color="#150e42"/></linearGradient><linearGradient id="linear-gradient-2" x1="1104.66172" y1="101.26874" x2="1018.45703" y2="434.59273" xlink:href="#linear-gradient"/><linearGradient id="linear-gradient-3" x1="1157.2671" y1="366.15351" x2="1089.89488" y2="563.18523" xlink:href="#linear-gradient"/><linearGradient id="linear-gradient-4" x1="317.50959" y1="526.6408" x2="317.50959" y2="674.49918" gradientUnits="userSpaceOnUse"><stop offset="0" stop-color="#cb236d"/><stop offset="1" stop-color="#4c246d"/></linearGradient><linearGradient id="linear-gradient-5" x1="311.5099" y1="551.22878" x2="306.14837" y2="598.02052" gradientUnits="userSpaceOnUse"><stop offset="0" stop-color="#f9b776"/><stop offset="1" stop-color="#f47960"/></linearGradient><linearGradient id="linear-gradient-6" x1="365.06766" y1="526.6409" x2="365.06766" y2="674.49912" xlink:href="#linear-gradient-4"/><linearGradient id="linear-gradient-7" x1="353.95781" y1="556.2366" x2="348.59832" y2="603.01062" xlink:href="#linear-gradient-5"/><linearGradient id="linear-gradient-8" x1="367.79971" y1="420.55991" x2="196.75853" y2="685.96896" xlink:href="#linear-gradient"/><linearGradient id="linear-gradient-9" x1="366.64569" y1="134.44056" x2="313.76774" y2="294.42986" xlink:href="#linear-gradient-5"/><linearGradient id="linear-gradient-10" x1="323.01977" y1="412.95282" x2="308.20237" y2="439.3228" xlink:href="#linear-gradient"/><linearGradient id="linear-gradient-11" x1="267.26435" y1="390.62513" x2="311.78415" y2="390.62513" xlink:href="#linear-gradient-5"/><linearGradient id="linear-gradient-12" x1="-155.8594" y1="3511.91148" x2="-126.59114" y2="3511.91148" gradientTransform="translate(3358.21772 -1536.32982) rotate(55.63932)" xlink:href="#linear-gradient-5"/><linearGradient id="linear-gradient-13" x1="352.10154" y1="338.57767" x2="388.20298" y2="290.14899" xlink:href="#linear-gradient"/><linearGradient id="linear-gradient-14" x1="375.11173" y1="259.6036" x2="477.53024" y2="259.6036" xlink:href="#linear-gradient"/><linearGradient id="linear-gradient-15" x1="573.66658" y1="129.65024" x2="434.68672" y2="319.16849" xlink:href="#linear-gradient"/><clipPath id="clip-path"><path class="cls-1" d="M478.36759,305.98159c-.88522-.92683-2.81374-4.502-4.46706-13.74711a194.07913,194.07913,0,0,1-2.47784-32.63081,194.07933,194.07933,0,0,1,2.47784-32.63086c1.65332-9.2452,3.58184-12.8204,4.46706-13.74725.88528.92685,2.8138,4.502,4.46712,13.74725,1.59794,8.93446,14.207,20.523,14.207,32.63086s-12.609,23.69635-14.207,32.63081C481.18139,301.47957,479.25287,305.05476,478.36759,305.98159Z"/></clipPath><linearGradient id="linear-gradient-16" x1="499.3271" y1="258.00041" x2="429.78665" y2="261.99048" xlink:href="#linear-gradient"/><linearGradient id="linear-gradient-17" x1="367.64197" y1="283.37818" x2="365.00312" y2="216.96844" xlink:href="#linear-gradient"/><linearGradient id="linear-gradient-18" x1="376.25085" y1="300.70237" x2="393.40122" y2="300.70237" xlink:href="#linear-gradient-5"/><linearGradient id="linear-gradient-19" x1="6142.4445" y1="-165.54772" x2="6105.54984" y2="-137.31769" gradientTransform="translate(-5811.20392 234.98234) rotate(1.6045)" xlink:href="#linear-gradient-5"/><linearGradient id="linear-gradient-20" x1="6116.45589" y1="-188.11502" x2="6151.17411" y2="-143.41539" gradientTransform="translate(-5811.20392 234.98234) rotate(1.6045)" xlink:href="#linear-gradient"/><linearGradient id="linear-gradient-21" x1="6138.03064" y1="-171.53446" x2="6101.11262" y2="-143.28654" gradientTransform="translate(-5811.20392 234.98234) rotate(1.6045)" xlink:href="#linear-gradient-5"/><linearGradient id="linear-gradient-22" x1="-172.04372" y1="1580.18893" x2="-202.60891" y2="1673.87764" gradientTransform="translate(412.40609 -1085.7655) rotate(-39.30674)" xlink:href="#linear-gradient-5"/><linearGradient id="linear-gradient-23" x1="858.37119" y1="541.0539" x2="913.35412" y2="541.0539" gradientTransform="translate(471.97959)" xlink:href="#linear-gradient-5"/><linearGradient id="linear-gradient-24" x1="934.6808" y1="414.91386" x2="906.72027" y2="596.65653" gradientTransform="translate(471.97959)" gradientUnits="userSpaceOnUse"><stop offset="0" stop-color="#cb236d"/><stop offset="0.90005" stop-color="#59246d"/><stop offset="1" stop-color="#4c246d"/></linearGradient><linearGradient id="linear-gradient-25" x1="877.02104" y1="406.71882" x2="849.18348" y2="587.66217" xlink:href="#linear-gradient-24"/><linearGradient id="linear-gradient-26" x1="825.00773" y1="545.26233" x2="856.84735" y2="545.26233" gradientTransform="translate(471.97959)" xlink:href="#linear-gradient-5"/><linearGradient id="linear-gradient-27" x1="756.41962" y1="299.36579" x2="818.75131" y2="299.36579" gradientTransform="translate(471.97959)" xlink:href="#linear-gradient-5"/><linearGradient id="linear-gradient-28" x1="824.43259" y1="334.50085" x2="943.95201" y2="571.21891" gradientTransform="translate(471.97959)" xlink:href="#linear-gradient"/><linearGradient id="linear-gradient-29" x1="834.66" y1="330.8665" x2="854.14418" y2="330.8665" gradientTransform="translate(471.97959)" xlink:href="#linear-gradient-5"/><linearGradient id="linear-gradient-30" x1="865.61594" y1="304.9144" x2="1007.34951" y2="314.55227" gradientTransform="translate(471.97959)" xlink:href="#linear-gradient-5"/></defs><title>amplifying-reach-through-social-media</title><g id="BACKGROUND"><rect class="cls-2" width="1528" height="642"/></g><g id="OBJECTS"><ellipse class="cls-3" cx="1346.35692" cy="609.35178" rx="69.55435" ry="7.3612"/><path class="cls-4" d="M1261.25854,389.5644c-96.0377,23.67835,21.73523,128.59685-23.65659,186.90336-86.393,110.97316-435.90937,47.22856-530.3806,48.05418-42.53307.37171-518.7571-31.51824-577.01019-102.03463C42.07911,415.80192,466.58859,267.85292,372.03725,179.59587,123.16768-52.70639,652.78161,19.20669,787.031,1.1425c81.24629-10.93226,430.01666,59.03127,502.49125,105.65861C1448.78636,209.26547,1444.63186,344.35322,1261.25854,389.5644Z"/><path class="cls-5" d="M427.81976,303.33954c3.82728,2.97759-29.65552-63.1443-26.58891-155.89756,1.445-43.70765,11.35669-96.85453-8.25737-122.00765C376.64933,4.50027,308.16555,2.00788,285.65066,1.76072a3.42763,3.42763,0,0,0-2.622,5.57041c8.73195,11.09423,27.03867,36.80639,28.81878,59.39577,2.34624,29.77465,25.0547,52.94286,47.496,62.462,22.4412,9.5189,34.54589,16.8282,38.68988,57.5455C402.17716,227.45148,416.94482,294.87882,427.81976,303.33954Z"/><path class="cls-6" d="M313.96746,19.88717A106.46468,106.46468,0,0,1,352.566,38.52211a85.5513,85.5513,0,0,1,15.58292,15.32006,75.74287,75.74287,0,0,1,10.93817,19.20308l.98265,2.60664c.32179.87094.56447,1.77021.84984,2.65431.26351.887.561,1.7824.79557,2.6626l.70807,2.64165q1.42762,5.27976,2.78688,10.57907,2.71468,10.59924,5.10091,21.28478c3.1904,14.24408,5.94843,28.58692,7.84455,43.10022a.65739.65739,0,0,1-.55042.74271.644.644,0,0,1-.71525-.52761l-.00379-.02046c-1.33718-7.1351-2.80431-14.27188-4.4043-21.36371q-2.35052-10.653-4.93979-21.2474l-2.61726-10.58571-2.73223-10.55491q-1.36172-5.2787-2.81028-10.53329l-.71383-2.63021c-.237-.87769-.519-1.70735-.77582-2.56351-.26931-.84729-.49458-1.71076-.79869-2.54552l-.92718-2.49921a75.20291,75.20291,0,0,0-10.34935-18.50017A81.72356,81.72356,0,0,0,358.855,47.748l-.92617-.94936-.9616-.91226c-.6437-.60545-1.2725-1.22862-1.92877-1.82061-1.32878-1.16507-2.64442-2.34889-4.03488-3.44109a107.862,107.862,0,0,0-17.73719-11.57337,110.88873,110.88873,0,0,0-19.534-8.13107l-.03229-.00976a.5326.5326,0,0,1-.34788-.65845A.51444.51444,0,0,1,313.96746,19.88717Z"/><g class="cls-7"><path class="cls-8" d="M394.88191,225.10231s-41.2692-45.90487-72.66879-37.856-76.65124,38.67831-138.82959-24.32015c-36.40182-36.882-52.85771-52.46755-60.24559-59.0513a6.02267,6.02267,0,0,1,.58428-9.41591c22.49081-15.30949,98.56952-61.84435,152.439-31.38431C340.024,99.18524,394.88191,225.10231,394.88191,225.10231Z"/><path class="cls-6" d="M155.33256,97.86754c2.75757-.10517,5.47756-.12807,8.2124-.10232,1.36642.00734,2.73055.04878,4.09476.09361,1.364.04805,2.73082.06718,4.09289.1476,2.7262.13584,5.45548.25567,8.1771.4706l4.08689.28787,4.079.378,4.07822.40065,4.068.49314,4.06944.4936c1.3564.16649,2.70516.38657,4.0586.57733l4.05567.606,2.02791.305,2.01953.35649,8.08,1.43108c5.358,1.10847,10.73473,2.14881,16.04413,3.502l3.994.96325,1.99716.48179,1.98268.541,7.92783,2.18315,1.97944.55634,1.96191.61884,3.92425,1.238,3.92459,1.23847,1.9624.61934,1.94251.68273c5.16905,1.87058,10.37084,3.56376,15.4897,5.729,1.2925.49582,2.54714,1.08328,3.81478,1.63938,1.26323.56633,2.53547,1.11272,3.79112,1.69591l3.73759,1.81421,1.86777.90933,1.83877.96812,3.6773,1.9369,3.61851,2.04754c2.43082,1.333,4.75533,2.85211,7.13082,4.28091a230.21792,230.21792,0,0,1,26.75291,19.79293,255.26892,255.26892,0,0,1,23.87322,23.27993q5.5756,6.2189,10.76338,12.78621c3.46753,4.38348,6.76267,8.84491,9.84361,13.614a1.72371,1.72371,0,0,1-.45875,2.34716,1.61423,1.61423,0,0,1-2.22753-.39539l-.04208-.05839a244.77366,244.77366,0,0,0-21.06794-25.17227,277.90977,277.90977,0,0,0-23.86175-22.41009A242.75006,242.75006,0,0,0,310.386,142.10767a201.1082,201.1082,0,0,0-28.70108-14.89685,389.53315,389.53315,0,0,0-62.00923-18.9592l-7.95346-1.62714-1.98929-.406-1.99794-.35469-3.99615-.71348c-1.33258-.23517-2.6613-.49982-3.99772-.711l-4.01068-.62795-4.01212-.62845-4.02393-.5365a304.9836,304.9836,0,0,0-32.32261-2.85794l-.03332-.001a.96188.96188,0,0,1-.0059-1.92Z"/></g><path class="cls-9" d="M337.32994,584.15a12.15653,12.15653,0,0,0,11.94778,12.28683H995.36393A12.15653,12.15653,0,0,0,1007.31171,584.15l-.42023-392.93213c0-6.75761-7.73457-19.95053-21.90965-18.9592l-625.63047-6.07822a29.6877,29.6877,0,0,0-22.05563,9.03761,31.4442,31.4442,0,0,0-8.83848,22.66049Z"/><path class="cls-10" d="M349.1255,572.36232a11.50683,11.50683,0,0,0,11.30337,11.63534H979.7832a11.50681,11.50681,0,0,0,11.30337-11.63534l-.72313-357.69744c-.59751-20.87911-18.38032-28.38317-29.16-27.94015L361.83464,180.752a20.8244,20.8244,0,0,0-15.49558,6.34961,22.09974,22.09974,0,0,0-6.21364,15.93992Z"/><path class="cls-11" d="M984.394,407.53308h-.02481a1.68229,1.68229,0,0,1-1.632-1.731l.401-28.13767a1.68035,1.68035,0,0,1,1.65511-1.67987h.02478a1.68226,1.68226,0,0,1,1.632,1.73093l-.401,28.13767A1.68039,1.68039,0,0,1,984.394,407.53308Z"/><path class="cls-11" d="M985.3778,338.58116H985.353a1.68333,1.68333,0,0,1-1.63194-1.731l1.53688-107.768c-.02894-6.40126-1.91635-11.51243-5.611-15.15642-6.89656-6.80125-17.84572-6.454-18.307-6.43191l-193.42406-5.3392a1.683,1.683,0,0,1-1.6113-1.74968,1.60682,1.60682,0,0,1,1.70059-1.65775l193.30915,5.3392c1.20289-.07318,12.86055-.28082,20.62433,7.37653,4.3676,4.3078,6.59894,10.2427,6.632,17.63624L987.0329,336.90126A1.68039,1.68039,0,0,1,985.3778,338.58116Z"/><path class="cls-5" d="M306.02732,594.58274h719.66605a5.6537,5.6537,0,0,1,5.6537,5.6537v18.77274a5.6537,5.6537,0,0,1-5.6537,5.6537H306.02722a5.6537,5.6537,0,0,1-5.6537-5.6537V600.23654A5.6538,5.6538,0,0,1,306.02732,594.58274Z" transform="translate(1331.72058 1219.24563) rotate(180)"/><path class="cls-12" d="M543.01515,577.69523c-58.01594.1274-102.9666-16.50041-134.874-50.24229-31.90738-33.75345-47.92861-82.282-48.0636-145.95626q-.194-93.33149,46.0992-143.53618,46.28352-50.196,133.29994-50.41019l185.06723-.4053V311.19337l-175.40368.38792q-47.00917.10422-68.1852,18.191c-14.12853,12.10027-21.16194,29.84546-21.11126,53.36289q.07578,37.76855,21.1942,54.7003,21.10005,16.9607,69.007,16.79568l174.49891-.38211V577.29573Z"/><path class="cls-13" d="M544.92193,577.71262c-55.49073.12734-98.63585-16.512-129.154-50.25968-30.5238-33.7477-45.92355-82.282-46.05854-145.95626q-.194-93.33149,44.04495-143.53038c29.517-33.45818,72.27406-50.27706,127.76476-50.39862l183.02482-.40528V311.21654l-173.78952.38211c-29.97261.06367-51.85173,6.08487-65.356,18.1852-13.51553,12.09449-20.30987,29.84546-20.25934,53.35708q.076,37.76857,20.24232,54.7061c13.45373,11.30713,35.71539,16.871,66.26734,16.80727l172.89519-.38211V577.31892Z"/><path class="cls-11" d="M809.32155,307.44248l-.24252-116.8433a3.42231,3.42231,0,0,0-3.33714-3.6332l-85.10854.18716.2575,124.04839,85.1085-.18718A3.35725,3.35725,0,0,0,809.32155,307.44248Z"/><path class="cls-11" d="M809.87423,573.72035l-.24107-116.14985a3.30786,3.30786,0,0,0-3.33689-3.50037l-85.10851.18718.2554,123.048,85.10851-.18718A3.21171,3.21171,0,0,0,809.87423,573.72035Z"/><path class="cls-11" d="M532.10791,204.57446a1.96387,1.96387,0,0,1,1.68-2.00446l170.43279-.37485a2.03056,2.03056,0,0,1,.00829,4.00156l-170.43279.37485A1.9633,1.9633,0,0,1,532.10791,204.57446Z"/><path class="cls-11" d="M405.35355,497.11931a1.73582,1.73582,0,0,1,1.03519-1.60383,1.6672,1.6672,0,0,1,2.20322.931c16.13092,39.7341,59.45811,56.091,92.96456,62.81585a296.298,296.298,0,0,0,69.9222,5.10455,1.73411,1.73411,0,0,1,.2289,3.45922,300.048,300.048,0,0,1-70.79575-5.16085c-21.764-4.368-40.47085-11.17966-55.60091-20.246-19.03292-11.40458-32.43259-26.42243-39.82677-44.63595A1.77243,1.77243,0,0,1,405.35355,497.11931Z"/><polygon class="cls-11" points="920.431 255.322 873.023 230.538 873.023 249.379 837.849 242.93 884.998 281.437 886.968 255.988 920.431 255.322"/><polygon class="cls-11" points="892.811 324.639 864.855 291.022 859.198 305.196 834.405 289.04 858.18 332.954 867.37 314.464 892.811 324.639"/><polygon class="cls-11" points="888.687 165.281 846.508 173.828 855.721 185.864 829.869 200.153 878.707 200.416 867.578 183.091 888.687 165.281"/><polygon class="cls-11" points="923.067 521.828 875.659 497.044 875.659 515.885 840.485 509.436 887.634 547.943 889.604 522.493 923.067 521.828"/><polygon class="cls-11" points="895.447 591.145 867.491 557.528 861.833 571.702 837.041 555.546 860.815 599.46 870.006 580.97 895.447 591.145"/><polygon class="cls-11" points="891.323 431.787 849.143 440.334 858.356 452.37 832.505 466.659 881.343 466.922 870.213 449.597 891.323 431.787"/><ellipse class="cls-14" cx="1084.10769" cy="180.74426" rx="51.62892" ry="53.1451"/><path class="cls-11" d="M1071.27268,163.16488a2.44559,2.44559,0,0,0-2.40945-2.48021h-8.43472a2.4456,2.4456,0,0,0-2.40945,2.48021v39.60627a2.44561,2.44561,0,0,0,2.40945,2.48021h8.43472a2.44559,2.44559,0,0,0,2.40945-2.48021Z"/><path class="cls-11" d="M1101.18625,160.68467h-8.70777V150.02236c0-3.43939-1.76322-5.70911-5.10465-5.70911h-.21406a5.92,5.92,0,0,0-6.05053,5.96843l-2.8835,10.61469c-1.33072,0-3.41875.98062-3.41875,2.35054v40.6834c0,1.37,3.09737,3.14009,4.42809,3.14009h21.95117c4.99852,0,8.96369-4.83106,8.96369-9.97622V170.08307A9.18645,9.18645,0,0,0,1101.18625,160.68467Z"/><ellipse class="cls-13" cx="1092.41356" cy="560.00431" rx="51.63569" ry="53.15206"/><path class="cls-11" d="M1114.55636,545.20372c-5.60257-5.66857-14.34063-3.96327-20.35651,1.23539a2.29185,2.29185,0,0,1-2.98622.024c-6.0962-5.08921-14.82477-6.6385-20.33117-.87233a16.22715,16.22715,0,0,0,.18822,22.47851l20.35087,20.59108a2.30082,2.30082,0,0,0,3.31967-.02957l20.00335-20.94856A16.22734,16.22734,0,0,0,1114.55636,545.20372Z"/><ellipse class="cls-15" cx="1132.83393" cy="437.60907" rx="54.92991" ry="56.54303"/><path class="cls-11" d="M1132.52983,406.8368l-8.33394,15.78436-16.81607,2.07808a3.24217,3.24217,0,0,0-1.94284,5.27988l11.35649,13.00255-3.87233,17.89562c-.56937,2.63122,1.90945,4.81,4.20123,3.678l15.82216-7.81465,15.35568,9.59345a3.16052,3.16052,0,0,0,4.73762-3.26342l-2.35264-18.65928,13.303-12.472a3.27364,3.27364,0,0,0-1.58026-5.602l-17.46274-3.13527-6.9996-16.27289A2.97775,2.97775,0,0,0,1132.52983,406.8368Z"/><ellipse class="cls-16" cx="1127.07209" cy="303.08906" rx="55.72799" ry="57.36454"/><path class="cls-11" d="M1142.76825,284.3592c0,8.87619-6.99027,18.45868-15.6132,18.45868s-15.61318-9.58249-15.61318-18.45868,6.99024-15.17327,15.61318-15.17327S1142.76825,275.483,1142.76825,284.3592Z"/><path class="cls-11" d="M1107.77888,336.992h38.11448a9.2571,9.2571,0,0,0,8.787-6.60289l2.05105-6.59854a9.5605,9.5605,0,0,0-5.568-11.80419c-15.51126-5.838-31.55031-5.089-47.98071.53878a9.512,9.512,0,0,0-5.887,11.46385l1.57924,5.99258A9.27325,9.27325,0,0,0,1107.77888,336.992Z"/><path class="cls-17" d="M329.76273,316.12055s34.0382,42.67257,46.56018,32.38994-21.28484-66.33377-21.28484-66.33377Z"/><path class="cls-18" d="M331.15589,593.19488a2.49056,2.49056,0,0,0-.06267-.63453c-3.074-12.5453-18.33133-20.35913-18.33133-20.35913l-6.046.4878c-3.47612,11.05725-3.02942,17.83856-2.4712,20.85916.0155.08462.04047.16511.0623.24707A139.4,139.4,0,0,0,331.15589,593.19488Z"/><path class="cls-19" d="M304.28486,563.41941l2.56068,12.68886a2.0422,2.0422,0,0,0,1.72234,1.70739,16.6092,16.6092,0,0,0,3.96711-.065,2.60431,2.60431,0,0,0,2.00666-3.06461l-1.77989-11.26662Z"/><path class="cls-20" d="M384.71193,592.64176a1.77669,1.77669,0,0,0-.14519-.2846c-3.23776-4.65688-11.48427-13.93022-27.77947-17.95233L348.97,574.1509s-3.48082,6.22774-3.54661,17.76385c1.78547.75123,5.23922,1.56074,11.91646,1.75315A268.17289,268.17289,0,0,0,384.71193,592.64176Z"/><path class="cls-21" d="M347.52037,561.9558c.08688.59972,1.15835,9.716,1.57318,13.25059a1.73006,1.73006,0,0,0,1.43478,1.58153,17.39948,17.39948,0,0,0,5.36957-.085,2.3703,2.3703,0,0,0,1.75256-2.38879v-14.3099Z"/><path class="cls-22" d="M341.24884,395.58937s18.85467,73.759,18.51382,166.57737a3.5698,3.5698,0,0,1-2.76928,3.5015,39.56316,39.56316,0,0,1-8.74028,1.04094,3.27133,3.27133,0,0,1-3.08642-2.7834c-2.64368-15.95893-17.81542-105.86441-26.45976-120.46021,0,0-5.68714,80.07365-3.86932,121.61645a1.95254,1.95254,0,0,1-1.68734,2.04775,31.22541,31.22541,0,0,1-7.017-.02009,2.59435,2.59435,0,0,1-2.28079-2.23679c-1.88306-13.50663-12.72181-93.90277-12.26094-151.81718.026-3.26586,8.3905-17.46634,8.3905-17.46634Z"/><path class="cls-16" d="M354.23527,282.53853c-25.948-3.86277-54.45118-.31847-68.28494,1.47549a18.10046,18.10046,0,0,0-11.52778,6.37028c-11.7058,13.94451-37.39253,52.122-7.15836,90.59161,3.86906-2.2109,9.367-5.75593,13.10113-9.85867-3.34494-9.70624-3.619-22.10972,3.3911-37.31987a36.43311,36.43311,0,0,0,.89575,3.5736,227.35391,227.35391,0,0,1,10.15577,63.77149,1.99572,1.99572,0,0,0,1.21575,1.86467c12.716,5.2454,37.19405,2.12358,45.41089.86311a2.83393,2.83393,0,0,0,2.3119-3.22833C340.856,379.08615,350.6698,347.5643,358.474,326.8738,361.558,318.69722,355.85024,284.83062,354.23527,282.53853Z"/><path class="cls-23" d="M312.87744,251.20667,309.295,281.69041a2.85065,2.85065,0,0,0,1.96294,3.0814c3.88851,1.17028,12.21262,2.94285,19.8192-.27966a3.354,3.354,0,0,0,1.90958-3.78914l-4.52918-21.45572Z"/><path class="cls-17" d="M282.47415,331.44082c-5.12509-14.438-3.26587-31.87226-3.24636-32.04664l1.41215.16612c-.01876.17119-1.83849,17.271,3.17,31.37811Z"/><path class="cls-24" d="M318.01408,441.5854a.71431.71431,0,0,1-.68733-.54823c-1.5635-6.20757-13.27179-13.02939-13.38981-13.09763a.743.743,0,0,1-.2721-.99625.69947.69947,0,0,1,.9678-.28018c.50334.29058,12.3553,7.1967,14.07021,14.00675a.73376.73376,0,0,1-.50963.89191A.6893.6893,0,0,1,318.01408,441.5854Z"/><path class="cls-25" d="M280.36532,371.11724c-3.73415,4.10269-9.2321,7.64783-13.101,9.85859,5.77774,7.35161,13.596,14.71369,23.94585,21.91954L292.462,405.787a6.99239,6.99239,0,0,0,6.04906,4.25028c14.46529.70946,18.46792-2.44874,5.152-12.0086C303.66313,398.02868,286.63318,389.30511,280.36532,371.11724Z"/><path class="cls-26" d="M386.71521,306.50117s-18.25265,19.53167-22.46957,26.61725.477,19.98963,10.0567,16.99393,20.73157-36.88578,20.73157-36.88578Z"/><path class="cls-27" d="M356.16329,278.761s16.04,43.54489,21.10759,52.6034c5.88246,10.51523,23.06236,3.81467,22.20743-4.98542s-20.927-45.17378-20.927-45.17378Z"/><polygon class="cls-28" points="377.836 247.041 477.53 211.46 476.483 307.747 375.112 284.464 377.836 247.041"/><ellipse class="cls-16" cx="477.62421" cy="259.88296" rx="9.79457" ry="49.48257"/><path class="cls-29" d="M478.36759,305.98159c-.88522-.92683-2.81374-4.502-4.46706-13.74711a194.07913,194.07913,0,0,1-2.47784-32.63081,194.07933,194.07933,0,0,1,2.47784-32.63086c1.65332-9.2452,3.58184-12.8204,4.46706-13.74725.88528.92685,2.8138,4.502,4.46712,13.74725a194.07933,194.07933,0,0,1,2.47784,32.63086,194.07913,194.07913,0,0,1-2.47784,32.63081C481.18139,301.47957,479.25287,305.05476,478.36759,305.98159Z"/><g class="cls-30"><path class="cls-31" d="M490.92157,259.23514c0,8.40762-4.4,15.22334-13.10847,15.22334a15.23276,15.23276,0,1,1,0-30.4467C486.52161,244.01178,490.92157,250.82753,490.92157,259.23514Z"/></g><path class="cls-32" d="M361.7571,244.971a54.29119,54.29119,0,0,1,18.686.95175c-2.3956,12.88153-2.034,26.308.73659,40.21054l-20.50873,0a6.70729,6.70729,0,0,1-6.56782-5.76946c-1.02213-6.66415-2.27171-17.86478-.93934-26.8607A9.97012,9.97012,0,0,1,361.7571,244.971Z"/><path class="cls-11" d="M374.06525,255.08175H358.08683a1.68821,1.68821,0,0,1-1.4895-.91125,1.787,1.787,0,0,1,.06631-1.78208.63819.63819,0,0,1,.89753-.19752.6798.6798,0,0,1,.19188.92391.41076.41076,0,0,0-.01521.41714.38775.38775,0,0,0,.349.21356h15.97842a.40388.40388,0,0,0,.39763-.40884V252.1666a.404.404,0,0,0-.39763-.40933H357.96813a.66838.66838,0,0,1,0-1.33621h16.09712a1.723,1.723,0,0,1,1.69572,1.74554v1.17007A1.72288,1.72288,0,0,1,374.06525,255.08175Z"/><path class="cls-11" d="M372.64034,262.36625H356.662a1.68665,1.68665,0,0,1-1.48911-.91079,1.788,1.788,0,0,1,.06553-1.78212.63743.63743,0,0,1,.89753-.19834.68022.68022,0,0,1,.19267.92389.41177.41177,0,0,0-.01566.418.38847.38847,0,0,0,.349.21311h15.97838a.40385.40385,0,0,0,.39762-.40885v-1.17009a.40395.40395,0,0,0-.39762-.4093H356.54321a.6684.6684,0,0,1,0-1.33624h16.09713a1.723,1.723,0,0,1,1.69576,1.74554v1.17009A1.7229,1.7229,0,0,1,372.64034,262.36625Z"/><path class="cls-11" d="M392.3225,244.67982a.652.652,0,0,1-.61865-.46541.6728.6728,0,0,1,.4217-.83953l75.507-24.73343a.64592.64592,0,0,1,.81555.43409.67269.67269,0,0,1-.42173.8395l-75.507,24.73348A.63624.63624,0,0,1,392.3225,244.67982Z"/><path class="cls-11" d="M382.11211,248.97646a.64925.64925,0,0,1-.60131-.41535.67526.67526,0,0,1,.35539-.87128l3.88589-1.63505a.64247.64247,0,0,1,.84638.3658.6753.6753,0,0,1-.35537.87126l-3.88589,1.635A.62791.62791,0,0,1,382.11211,248.97646Z"/><path class="cls-11" d="M374.06525,270.89784H358.08683a1.68807,1.68807,0,0,1-1.48911-.91085,1.78876,1.78876,0,0,1,.06553-1.7825.63786.63786,0,0,1,.89752-.19834.6801.6801,0,0,1,.19268.92386.41057.41057,0,0,0-.01561.418.38832.38832,0,0,0,.349.21356h15.97842a.404.404,0,0,0,.39763-.4093v-1.1701a.40385.40385,0,0,0-.39763-.40884H357.96813a.66841.66841,0,0,1,0-1.33626h16.09712a1.72292,1.72292,0,0,1,1.69572,1.7451v1.1701A1.723,1.723,0,0,1,374.06525,270.89784Z"/><path class="cls-11" d="M375.5615,280.36724H359.58273a1.68755,1.68755,0,0,1-1.48911-.9113,1.788,1.788,0,0,1,.06548-1.78208.63746.63746,0,0,1,.89752-.19836.68016.68016,0,0,1,.19268.92392.41169.41169,0,0,0-.01561.418.38906.38906,0,0,0,.349.21359H375.5615a.40378.40378,0,0,0,.39723-.40884v-1.17052a.40384.40384,0,0,0-.39723-.4089H359.464a.66838.66838,0,0,1,0-1.33621H375.5615a1.72279,1.72279,0,0,1,1.69534,1.74511v1.17052A1.72282,1.72282,0,0,1,375.5615,280.36724Z"/><path class="cls-11" d="M389.83359,331.85241a10.40259,10.40259,0,0,1-2.27463-.254,10.59016,10.59016,0,0,1-7.4228-6.18838l-12.766-29.19454a.6764.6764,0,0,1,.3258-.88343.64225.64225,0,0,1,.85823.33539l12.76609,29.19414a9.29384,9.29384,0,0,0,6.515,5.43106,8.86171,8.86171,0,0,0,7.9556-2.09308c.11962-.10747.23876-.218.35877-.33059a.63557.63557,0,0,1,.917.04174.68173.68173,0,0,1-.04056.9439c-.12764.12051-.2544.23705-.38115.35105A10.123,10.123,0,0,1,389.83359,331.85241Z"/><path class="cls-11" d="M366.075,292.29286a.64862.64862,0,0,1-.59245-.39408l-1.424-3.25707a.67624.67624,0,0,1,.32577-.88344.6419.6419,0,0,1,.85824.3354l1.424,3.25707a.67617.67617,0,0,1-.3258.88341A.629.629,0,0,1,366.075,292.29286Z"/><path class="cls-11" d="M488.58659,259.04178a.657.657,0,0,1-.64649-.62071c-.27848-4.04265-1.63239-7.05269-4.02324-8.94609-4.1441-3.28057-10.10728-2.15792-10.16771-2.14529a.65083.65083,0,0,1-.75937-.53067.66733.66733,0,0,1,.51425-.78167c.26707-.05265,6.5827-1.25358,11.19627,2.39233,2.70268,2.13575,4.22814,5.47243,4.5345,9.91656a.662.662,0,0,1-.60131.71378C488.61788,259.04132,488.60225,259.04178,488.58659,259.04178Z"/><path class="cls-33" d="M379.80423,295.27327s5.20011-4.54407,9.26415,0,4.86767,12.47376,4.04092,12.86111S367.15393,302.099,379.80423,295.27327Z"/><path class="cls-34" d="M332.24084,228.142s5.94437,15.20762,6.15629,23.10562,1.72326,13.06261-7.17789,14.39493-16.23933-3.42525-20.06791-11.39705c0,0-6.0041-12.28666-4.44825-17.20258S332.24084,228.142,332.24084,228.142Z"/><path class="cls-35" d="M314.33206,248.68511l.5105-.21432a1.26627,1.26627,0,0,0,.64092-1.702c-1.18141-2.52032-3.46133-8.28341-.2795-9.52063,4.1006-1.59451,20.251-4.50188,23.87542-10.26735,3.48347-5.541.73127-12.90291-3.6465-15.1006a.60162.60162,0,0,0-.806.24491l-.38918.709a.5963.5963,0,0,1-1.10709-.14926h0a.59339.59339,0,0,0-1.07955-.19121c-1.11278,1.72408-4.06556,4.48593-11.79443,5.72483-10.98423,1.7606-18.333,6.10417-18.72454,13.87186a.60167.60167,0,0,1-.94545.48448c-.7931-.52944-2.07778-.80424-3.84416.63955-3.07176,2.511-2.02723,9.28462,4.40072,15.01722a.62637.62637,0,0,1-.05551.99148c-1.21451.76481-3.04429,2.61509,1.4936,5.28306,4.69378,2.75959,8.258,2.64723,9.63444,2.454a.61529.61529,0,0,0,.50648-.73087l-1.27634-6.874a.61439.61439,0,0,1,.60829-.736Z"/><path class="cls-36" d="M314.568,250.13467s-2.16253-9.66725-6.41586-7.097,1.87614,10.81587,5.227,11.27208Z"/><path class="cls-37" d="M1270.41043,280.85927s1.3547,60.69225,63.349,71.33552l11.12945-11.30961s-53.6828-18.78827-67.65677-58.05212l2.98488-20.82276-2.10372-13.78022Z"/><path class="cls-13" d="M1188.65589,149.35472l169.27206-8.99643c3.31936-.17644,6.11631,1.88627,6.214,4.5827l3.82338,105.513c.09835,2.7143-2.56939,5.00945-5.91394,5.08179-30.64693.66288-166.71066,3.6256-172.702,4.10452-5.92071.47324-6.36573-84.40713-6.38546-105.3542C1182.96159,151.6962,1185.471,149.524,1188.65589,149.35472Z"/><path class="cls-11" d="M1192.06515,255.81642l-.11689-.443c-2.55059-9.646-4.22938-49.3625-4.27754-101.18064a1.20177,1.20177,0,0,1,1.18841-1.1453l169.2719-8.99576a1.32553,1.32553,0,0,1,.86073.25361,1.07088,1.07088,0,0,1,.44615.83154l3.82273,105.5123a1.19571,1.19571,0,0,1-1.18923,1.18513l-.03554.00081c-24.38214.52755-147.14261,3.1953-169.52536,3.96586ZM1358.20842,145.21l-.02211.00083-169.26873,8.99576a.20709.20709,0,0,0-.13662.04795c.06395,50.8988,1.67961,90.0861,4.14331,100.37187,23.53566-.79009,144.85025-3.427,169.084-3.95045l.02051-.00081L1358.31185,145.18C1358.31028,145.223,1358.27555,145.21085,1358.20842,145.21Z"/><path class="cls-11" d="M1299.30381,161.55978c.11542,2.66789,1.07184,4.79108,2.13617,4.74229l47.05063-2.15741c1.06434-.04879,1.83356-2.2511,1.71812-4.919s-1.07184-4.79111-2.13618-4.74229l-47.05063,2.15738C1299.95759,156.68958,1299.18836,158.8919,1299.30381,161.55978Z"/><path class="cls-11" d="M1299.508,174.69975a2.20841,2.20841,0,0,0,2.03166,2.327l47.05063-2.15735a2.47941,2.47941,0,0,0-.209-4.83064l-47.05063,2.15732A2.222,2.222,0,0,0,1299.508,174.69975Z"/><path class="cls-11" d="M1299.508,184.76042a2.2084,2.2084,0,0,0,2.03166,2.327l47.05063-2.15735a2.47941,2.47941,0,0,0-.209-4.83064l-47.05063,2.15733A2.222,2.222,0,0,0,1299.508,184.76042Z"/><path class="cls-11" d="M1235.046,243.29859c-1.04628,0-1.71118-.00162-1.89358-.00243a2.27877,2.27877,0,0,1-2.23-2.05243l-4.09829-36.3578a2.366,2.366,0,0,1,.47773-1.71511,2.2389,2.2389,0,0,1,1.51377-.85835,15.67188,15.67188,0,0,0,6.1751-2.30768c.931-.634,2.00415-3.55945,2.95173-6.14023,1.46164-3.98376,3.28179-8.94293,6.62361-12.87224,5.41624-6.36864,4.51683-15.94559,4.396-17.01693a7.3894,7.3894,0,0,1,4.25624-6.90675c1.68514-.67465,5.05933-1.02336,8.73676,4.21623,4.59261,6.545,2.58767,15.3571,1.26107,21.18845a32.83635,32.83635,0,0,0-.85282,4.582.72609.72609,0,0,0,.0071.17719c.91757.71124,6.28486-.14468,9.49321-.65678,1.67486-.26743,3.38683-.53972,5.04037-.73724,5.83238-.6958,12.68739-.4365,13.97058,7.81958a9.13754,9.13754,0,0,1-2.31054,7.59361c2.57427,2.26946,3.90722,4.747,3.97039,7.392a9.172,9.172,0,0,1-2.02548,5.75172,8.784,8.784,0,0,1,2.59324,8.24549,10.28157,10.28157,0,0,1-3.09545,5.55012,5.28142,5.28142,0,0,1,1.28791,3.58059c-.109,4.02927-4.83108,8.05286-11.22808,9.568C1272.32324,243.17424,1242.91414,243.29859,1235.046,243.29859Zm-3.50448-36.81461,3.62688,32.17409c7.88548-.0057,36.73156-.14471,43.8874-1.83948,5.08855-1.20544,7.70073-3.96832,7.7331-5.17619.01264-.46415-.83468-1.03071-2.10758-1.41031a2.31783,2.31783,0,0,1-1.61723-2.44992,2.28661,2.28661,0,0,1,2.04048-2.0882c1.54929-.14468,3.18784-1.95975,3.57791-3.96424.28191-1.45011.04422-3.49117-2.6935-4.97786a2.35543,2.35543,0,0,1-.259-3.93824c.01264-.01059,2.365-1.85166,2.29868-4.07482-.06553-2.15808-2.37292-4.12925-4.29729-5.40217a2.35541,2.35541,0,0,1,.09553-3.96262c.11214-.06908,3.07334-1.92076,2.59717-4.98275-.35927-2.30929-.76912-4.92909-9.00046-3.94391-1.59748.191-3.251.45518-4.8698.71367-6.018.95834-10.77168,1.72-13.2741-.6015a4.5789,4.5789,0,0,1-1.41742-3.73421,34.25376,34.25376,0,0,1,.96573-5.40949c1.20819-5.31115,2.86251-12.5845-.52668-17.41441-1.31556-1.87362-2.61218-2.88726-3.39077-2.62957a2.944,2.944,0,0,0-1.468,2.12152c.14055,1.229,1.20974,12.68284-5.48575,20.55524-2.80485,3.29772-4.39521,7.63181-5.79841,11.45627-1.41587,3.85858-2.5348,6.90758-4.68028,8.369A19.255,19.255,0,0,1,1231.54154,206.484Z"/><path class="cls-38" d="M1330.35078,488.80576s29.41272,65.98844,44.84442,93.32057c0,0,3.06489,17.19791,0,22.606l-2.61207,1.19509,12.19043-.37349s1.08293-23.133.23732-24.4252a3.06111,3.06111,0,0,0-2.53734-1.20746s-5.227-42.62873-20.36525-51.72653l-14.67076-52.01436Z"/><path class="cls-39" d="M1367.3768,609.16714c-.018.30267,9.51907.16431,14.6999.067a4.15314,4.15314,0,0,0,3.95153-3.34427l3.91236-21.15848a3.80442,3.80442,0,0,0-2.80692-4.41988l-2.18383-.51377s-3.11536,4.39906-2.13471,8.54079,1.85332,14.87025-.62484,16.12038-9.60716,1.46852-9.60716,1.46852S1367.53983,606.44228,1367.3768,609.16714Z"/><path class="cls-40" d="M1302.47265,609.55111a1.11286,1.11286,0,0,0,.5434,2.07022c8.66981-.08962,28.09721-.372,29.82346-1.111,2.22882-.954-.81222-9.198-4.01257-11.98824l-17.6713,5.93682Z"/><path class="cls-41" d="M1296.98732,484.59723s19.00714,94.65052,24.38406,113.1137l-12.71971,8.21649s6.37415-1.11592,11.10083-1.46852,9.07444-5.93682,9.07444-5.93682l-1.52384-2.50187s-4.76647-94.13505-3.6061-104.82418Z"/><path class="cls-42" d="M1249.805,263.82451s-2.62172,49.23636,40.926,74.39619l-10.48436,24.61391S1240.82,338.287,1242.27788,271.33589a7.9186,7.9186,0,0,0-1.85043-5.24294l-8.3794-10.00656a15.8216,15.8216,0,0,1-3.1989-13.86739l1.10295-4.53839a2.26935,2.26935,0,0,1,3.36608-1.46385l.87628.524a15.68644,15.68644,0,0,1,6.31654,7.22751l4.11456,9.46756a8.80875,8.80875,0,0,0,8.83035,5.35038L1256,258.5601Z"/><path class="cls-43" d="M1289.21514,334.5312c7.2855,2.07972,31.9675,8.76324,47.37609,8.49014l-9.4606,54.95525.75306,8.96348c-10.1106,1.63869-20.31577,2.346-30.84569-.1423,0,0-8.68309-20.75822-15.53387-31.10734-1.97873-2.989-.5061-6.55412.61529-9.9819l-1.54073-1.056a4.38494,4.38494,0,0,1-1.66271-4.936l7.51141-23.65655A2.28232,2.28232,0,0,1,1289.21514,334.5312Z"/><path class="cls-44" d="M1306.64091,338.96034c-.10821-.1471,6.43976-20.34948,6.43976-20.34948l9.379.8759,3.66406,22.91846S1311.42459,345.4593,1306.64091,338.96034Z"/><path class="cls-45" d="M1320.21431,286.75151c-.62537.40082-20.04209,8.66081-15.8703,29.41083a3.87551,3.87551,0,0,0,2.15231,2.77551,32.07776,32.07776,0,0,0,16.32033,2.78087c10.17159-1.06408,16.83679-19.33515,16.55333-24.652S1326.41271,282.77843,1320.21431,286.75151Z"/><path d="M1326.12377,278.68439c-.51056.069-11.22077,3.90873-5.90946,11.89767,5.31124,7.9887,7.30363,12.69149,4.79155,16.19963-2.2886,3.19608-7.35863,1.37442-6.91628,8.02381a3.771,3.771,0,0,1-1.544,3.37094c-4.77768,3.32912-16.43381,13.57549-4.88536,28.18852a3.80905,3.80905,0,0,1,.40783,4.16468c-6.40671,11.82984-4.00785,31.62918,4.396,42.00878,4.84871,5.98858,12.125,9.26321,19.30875,11.73152,6.19942,2.13011,12.65012,3.83048,19.18268,3.623s13.21182-2.514,17.70593-7.39867a16.09949,16.09949,0,0,0,3.691-6.31869,18.97728,18.97728,0,0,0,.51189-6.91476c-.96786-11.27492-7.86429-21.10207-15.662-29.08265-3.43872-3.51938-7.27388-7.10118-8.43921-11.94649a21.18915,21.18915,0,0,1-.42891-5.34044,32.87444,32.87444,0,0,1,1.94693-11.52758c1.16543-2.94217,2.95681-5.584,4.1639-8.50836,2.75176-6.66637,2.24275-14.42854-.25335-21.20068a38.04516,38.04516,0,0,0-13.61666-17.79391C1338.94258,277.88112,1332.7514,277.78994,1326.12377,278.68439Z"/><path class="cls-16" d="M1328.91663,405.41257c2.7703,2.12833,8.58264,7.77325,13.84928,18.22195,7.37532,23.58845,13.35237,64.15206,19.34254,104.54156,8.89407,4.51936,14.08265,22.79126,19.13626,41.55663-3.5655,2.78057-7.02568,4.3632-10.35627,4.463L1315.3758,460.92045l-2.4019-49.44674C1318.73323,412.34181,1325.76911,407.62007,1328.91663,405.41257Z"/><path class="cls-16" d="M1320.21673,406.03517c-11.21906,2.21962-15.27547,1.37274-22.87022-.5687a1.7567,1.7567,0,0,0-2.14763,1.93164h0c-10.23746,44.131,5.04285,108.58574,21.18268,173.22217,3.27338,2.34431,6.80355,2.0704,10.51038,0l-1.27778-115.8434C1331.142,444.96905,1324.47682,428.85607,1320.21673,406.03517Z"/><path d="M1327.35111,402.86015c-6.68222,2.41047-18.06232,2.86-31.22874,2.56406a.61447.61447,0,0,0-.61015.49174l-.96067,4.52022a.62691.62691,0,0,0,.5728.76179c16.999.74775,30.61685.13064,36.02443-3.801a.64257.64257,0,0,0,.08756-.95718l-3.25289-3.428A.58837.58837,0,0,0,1327.35111,402.86015Z"/></g></svg>