<svg xmlns="http://www.w3.org/2000/svg" viewBox="0 0 1528 642"><defs><style>.cls-1{fill:#f7f7f7;}.cls-2,.cls-5{fill:#e0e0e0;}.cls-3{fill:#fff;}.cls-4{fill:#ebebeb;}.cls-15,.cls-4,.cls-5{fill-rule:evenodd;}.cls-6{fill:#263238;}.cls-7{fill:#455a64;}.cls-8{fill:#ffbf9d;}.cls-9{fill:#ffa648;}.cls-10{opacity:0.6;}.cls-11{fill:#ff9a6c;}.cls-12{opacity:0.2;}.cls-13{fill:#fafafa;}.cls-14,.cls-15{fill:#fe6d60;}</style></defs><title>breathing-new-life-into-online-presence</title><g id="BACKGROUND"><rect class="cls-1" width="1528" height="642"/></g><g id="OBJECTS"><polygon class="cls-2" points="674.871 10.074 674.871 151.713 471.439 151.713 464.11 11.064 674.871 10.074"/><rect class="cls-3" x="495.65051" y="-20.47643" width="140.35015" height="203.43193" transform="translate(484.58605 647.06512) rotate(-90)"/><path class="cls-2" d="M668.36014,152.23287H463.29136V10.24636H668.36014Zm-203.43225-1.63653H666.72362V11.88289H464.92789Z"/><rect class="cls-3" x="486.14269" y="28.50183" width="159.36579" height="105.4754"/><path class="cls-2" d="M645.50864,28.50167s-.2715.01538-.78177.02307c-.531.0054-1.28156.0131-2.26217.02308-2.00835.011-4.94019.02684-8.74528.04729-7.64373.02455-18.77409.06023-32.83318.10523-28.10164.04713-67.8917.1139-114.74338.19229l.3908-.39063c.01064,32.225.02258,67.93245.03519,105.46263v.01244l-.426-.426c60.11852.03273,115.54774.06284,159.36546.08657l-.33942.33942c.07479-32.11393.136-58.43765.17855-76.7612.03731-9.16325.06644-16.32012.0864-21.21465.01653-2.42762.0293-4.28885.03814-5.57074.01227-1.26176.03665-1.92881.03665-1.92881s.02422.61844.03666,1.85729c.00869,1.26733.02144,3.10728.038,5.50741.02,4.87686.0491,12.00819.08641,21.13839.04255,18.374.10375,44.77.17854,76.97231l.00066.33958-.34056.00033c-43.81772.02373-99.24694.05384-159.36546.0864l-.42632.00033v-.43908c.0126-37.53018.02455-73.23759.03519-105.46263l.00017-.39179.391.00065c46.95641.07856,86.83567.14516,115,.1923,14.02112.045,25.12153.08068,32.74464.10523,3.77105.02062,6.67655.03633,8.66706.04729.96146.01,1.6974.01768,2.21815.02308C645.26807,28.48628,645.50864,28.50167,645.50864,28.50167Z"/><path class="cls-2" d="M464.10962,10.67038a20.13513,20.13513,0,0,1,3.46437,2.308c2.07233,1.51411,4.90124,3.65175,7.9604,6.09967,3.05949,2.44972,5.75616,4.75886,7.65977,6.48327a19.22317,19.22317,0,0,1,2.94853,2.94051,21.27075,21.27075,0,0,1-3.33933-2.48163c-2.23452-1.79789-4.879-3.92538-7.80182-6.27707-2.92072-2.35562-5.56371-4.48736-7.79724-6.28885A20.25565,20.25565,0,0,1,464.10962,10.67038Z"/><path class="cls-2" d="M667.54155,11.06446c.14614.1846-4.66818,4.238-10.7515,9.05245-6.08543,4.81614-11.13543,8.56936-11.28157,8.38476-.146-.18444,4.66722-4.237,10.75265-9.05311C662.34443,14.63405,667.39557,10.87986,667.54155,11.06446Z"/><path class="cls-3" d="M667.38052,151.4349q-11.3409-9.19173-22.68179-18.38361"/><path class="cls-2" d="M644.69873,133.05129c.14828-.183,5.34621,3.78447,11.60871,8.86032,6.26463,5.0775,11.22135,9.34049,11.07308,9.52329-.14811.1828-5.34506-3.78382-11.60969-8.86131C649.50832,137.4979,644.55062,133.23409,644.69873,133.05129Z"/><path class="cls-2" d="M464.10978,151.41461c-.14614-.1846,4.6178-4.19557,10.63891-8.95771,6.02341-4.76377,11.02285-8.47459,11.169-8.29s-4.617,4.19475-10.64022,8.95852C469.25634,147.88756,464.2556,151.59921,464.10978,151.41461Z"/><rect class="cls-2" x="551.83163" y="59.58294" width="35.31726" height="41.63525" transform="translate(489.0897 649.89083) rotate(-90)"/><polygon class="cls-2" points="310.205 174.624 310.205 268.889 171.316 267.565 172.164 175.636 310.205 174.624"/><rect class="cls-3" x="192.82256" y="154.96996" width="91.92413" height="133.24041" transform="translate(17.19446 460.37479) rotate(-90)"/><path class="cls-2" d="M306.22342,268.37016H171.34649V174.81H306.22342ZM172.983,266.73363H304.58689v-90.2871H172.983Z"/><rect class="cls-3" x="186.59533" y="187.04877" width="104.37876" height="69.08261"/><path class="cls-2" d="M290.97409,187.04877a4.79842,4.79842,0,0,1-.51993.02308c-.36593.00573-.85606.01326-1.48924.02307-1.33753.011-3.25947.02684-5.74127.0473-5.02938.02471-12.32109.06022-21.51985.10523-18.41308.04713-44.45286.1139-75.10831.19229l.39064-.3908c.0108,21.10843.02275,44.4941.03535,69.0741v.00834l-.426-.426c39.37.03256,75.67143.06268,104.37843.08641l-.33941.33941c.07462-21.0032.13583-38.22816.17838-50.23929.03731-5.991.06644-10.67982.08657-13.90788q.02456-2.36838.038-3.6596c.01227-.83038.03666-1.27568.03666-1.27568s.02438.39654.03666,1.20416q.0135,1.26815.038,3.59627c.02013,3.21038.04926,7.87351.08641,13.83161.04271,12.06155.10392,29.35883.17855,50.45041l.00115.33958-.3409.00016c-28.707.0239-65.00847.054-104.37843.08658l-.42631-.42648v-.008c.01244-24.58.02438-47.96567.03518-69.0741l.00017-.39195.391.001c30.76035.07856,56.889.14516,75.36492.19229,9.16095.045,16.42272.08052,21.43131.10507,2.44792.02062,4.34368.03633,5.663.04746.61435.00982,1.09009.01735,1.44521.02291A3.42505,3.42505,0,0,1,290.97409,187.04877Z"/><path class="cls-2" d="M172.16442,175.37c.14336-.18673,3.49546,2.2805,7.486,5.51019,3.992,3.23083,7.10057,5.99215,6.94478,6.16873-.15564.17625-3.50708-2.29032-7.48663-5.511C175.13047,178.31855,172.02106,175.55658,172.16442,175.37Z"/><path class="cls-2" d="M305.40483,175.62793c.14615.1846-2.96621,2.89109-6.95066,6.04436-3.9856,3.15441-7.3341,5.56109-7.48025,5.37648-.146-.18443,2.96572-2.89043,6.95148-6.04484C301.9097,177.85067,305.25885,175.4435,305.40483,175.62793Z"/><path class="cls-3" d="M305.29944,267.56548q-7.428-6.02013-14.85575-12.04059"/><path class="cls-2" d="M290.44369,255.52489c.1481-.1828,3.59414,2.36462,7.69577,5.68906,4.10311,3.32559,7.30808,6.16873,7.16,6.35153-.14827.1828-3.59349-2.364-7.6966-5.68955C293.50122,258.55165,290.29558,255.70769,290.44369,255.52489Z"/><path class="cls-2" d="M172.16442,267.55239c-.146-.18476,2.93332-2.86343,6.877-5.98249,3.945-3.12,7.26046-5.4989,7.40644-5.31414.146.18444-2.93266,2.86262-6.87768,5.98266C175.6265,265.35748,172.3104,267.73683,172.16442,267.55239Z"/><rect class="cls-2" x="227.21887" y="188.91818" width="23.13151" height="65.67699" transform="translate(17.02795 460.5413) rotate(-90)"/><polygon class="cls-2" points="1114.394 190.305 1010.942 190.305 1012.395 44.08 1113.272 43.436 1114.394 190.305"/><rect class="cls-3" x="1003.91864" y="44.07954" width="100.88281" height="146.22561"/><path class="cls-2" d="M1105.61971,191.12325H1003.10023V43.26111h102.51948Zm-100.883-1.63653h99.24643V44.89764h-99.24643Z"/><rect class="cls-3" x="1016.45248" y="59.91671" width="75.81512" height="114.55126"/><path class="cls-2" d="M1092.2676,174.468s-.01538-.19933-.02307-.56836c-.00557-.39621-.0131-.93446-.02291-1.63211-.011-1.46077-.02684-3.57009-.04746-6.297-.02455-5.512-.06023-13.51461-.10523-23.61281-.047-20.20458-.11374-48.78835-.19213-82.44077l.39064.3908c-23.1649.01064-48.83006.02258-75.8058.03518h-.009l.42581-.426c-.03257,43.2104-.06268,83.04759-.08641,114.55093l-.3394-.33942c23.059.07463,41.96793.13584,55.14575.17855,6.57819.03715,11.72426.06644,15.25965.08641q2.60722.02454,4.01309.038c.91024.01244,1.39645.03666,1.39645.03666s-.43761.02439-1.32493.03666q-1.38549.0135-3.94976.038c-3.51772.02013-8.63809.04926-15.18339.08641-13.22822.04271-32.20966.10392-55.35686.17854l-.3396.00115-.00016-.34089c-.02389-31.50334-.054-71.34053-.08657-114.55093l-.00033-.42632h.43564c26.97574.0126,52.6409.02455,75.8058.03519l.39195.00016-.00082.391c-.07855,33.75716-.14516,62.43-.19229,82.69738-.045,10.06039-.08068,18.0329-.10523,23.52427-.02046,2.69291-.03633,4.776-.0473,6.21865-.00982.679-.01751,1.20268-.02307,1.58825A4.18221,4.18221,0,0,1,1092.2676,174.468Z"/><path class="cls-2" d="M1105.08473,44.07954c.178.13861-2.43745,3.88021-5.94993,8.28689-3.51952,4.407-6.69585,7.70363-6.8672,7.55028-.18018-.15972,2.69651-3.69348,6.20212-8.08314C1101.97109,47.4408,1104.89162,43.92881,1105.08473,44.07954Z"/><path class="cls-2" d="M1104.80161,190.30515c-.18477.14614-3.14034-3.28108-6.60094-7.65372-3.46175-4.37427-6.11749-8.03731-5.93307-8.18346.18444-.146,3.13952,3.28026,6.60143,7.65454C1102.32963,186.49515,1104.98605,190.15917,1104.80161,190.30515Z"/><path class="cls-3" d="M1003.90407,190.18945q6.60708-8.15188,13.214-16.30359"/><path class="cls-2" d="M1017.11806,173.88586c.1828.14827-2.62729,3.91834-6.2756,8.41978-3.64979,4.5029-6.75559,8.03191-6.93855,7.88381-.18264-.14811,2.62679-3.91752,6.27641-8.42043C1013.8288,177.26758,1016.93526,173.73775,1017.11806,173.88586Z"/><path class="cls-2" d="M1003.91849,44.07954c.18475-.146,3.10988,3.2449,6.53284,7.57287,3.42411,4.3296,6.04943,7.95647,5.86483,8.10261-.1846.14582-3.10924-3.24441-6.53335-7.57385C1006.35985,47.85321,1003.734,44.22551,1003.91849,44.07954Z"/><rect class="cls-2" x="1043.26094" y="83.17522" width="25.38583" height="72.07778"/><path class="cls-4" d="M87.34482,42.24948c-2.37,1.00172-4.75461,1.9676-7.13919,2.93348-.6808.27575-1.39449.5232-2.04483.82824-.14238.05777-.2923.306-.256.39588.54153,1.38827,1.10057,2.76852,1.6817,4.20293,1.95418-.79159,3.87252-1.56861,5.82653-2.3602a3.157,3.157,0,0,1,.08657.77866c.1954,3.0099-2.01767,5.43033-5.17175,6.14467a6.91528,6.91528,0,0,1-8.34712-5.51051,7.33788,7.33788,0,0,1-.17249-1.66288,6.94374,6.94374,0,0,1,5.71247-6.5088,6.38094,6.38094,0,0,1,3.31593.3057c.64021-1.51166,1.24867-2.94788,1.90968-4.50945a1.70252,1.70252,0,0,1-.36267-.12454,11.3144,11.3144,0,0,0-9.83881,1.16717,11.87139,11.87139,0,0,0-2.46313,18.13355,11.90649,11.90649,0,0,0,14.33893,2.26938,10.53645,10.53645,0,0,0,5.1315-5.52263c1.437-3.71247.79322-7.20875-1.06324-10.61011-.31177-.56247-.58786-.57589-1.14411-.35054Zm10.98552-4.05286c-.21455.08706-.46477.18836-.71647.29032l-.05826-.144-.20342-.50192c-.37035-.91449-.723-1.83619-1.1184-2.76148-.05794-.14287-.34646-.33941-.41863-.31028-.83839.29768-1.682.63939-2.55953.99484.45037,1.11186.87178,2.152,1.30006,3.20956.08.19737.16709.41257.24679.60928-1.30972.53056-2.52826,1.02414-3.85583,1.5619.12356.30522.20359.50291.28346.69995.3124.66655.614,1.35815.94312,2.018.678-.23271,1.35587-.46608,2.054-.74871.56476-.208,1.12969-.45774,1.73946-.70469.53744,1.32673,1.03151,2.54644,1.52525,3.76549.94428-.40357,1.829-.74086,2.78-1.12593-.50881-1.25588-1.00222-2.47427-1.52524-3.76566,1.29055-.5227,2.5096-1.01644,3.76449-1.52475-.29768-.73513-.57376-1.41642-.86409-2.13338-.09459-.23337-.18165-.44824-.26855-.66312-1.00335.40635-2.025.82023-3.0482,1.2346Z"/><path class="cls-5" d="M1389.16038,501.87926v7.0248h3.34507v-9.56878h-3.34507Zm14.26988.39621c-.22028-1.81344-1.04755-2.94019-3.495-2.94019a2.9852,2.9852,0,0,0-2.808,1.29417h-.04419v-1.29417h-2.66754v9.56878h2.79077v-4.74462c0-1.25031.24647-2.45594,1.77858-2.45594,1.54014,0,1.65421,1.42591,1.65421,2.54382v4.65674h2.87014v-5.25538a11.19373,11.19373,0,0,0-.079-1.37321Zm-12.597-7.72033a1.67262,1.67262,0,1,0,1.67221,1.6727,1.67209,1.67209,0,0,0-1.67221-1.6727Z"/><path class="cls-2" d="M1320.77475,190.08143a4.65548,4.65548,0,1,1-4.35089-4.94133A4.65537,4.65537,0,0,1,1320.77475,190.08143Z"/><path class="cls-2" d="M1334.38263,181.61632a4.65547,4.65547,0,1,1-4.35088-4.94133A4.65548,4.65548,0,0,1,1334.38263,181.61632Z"/><path class="cls-2" d="M1333.13117,201.31a4.672,4.672,0,1,1-4.32485-5.3503A4.87334,4.87334,0,0,1,1333.13117,201.31Z"/><path class="cls-2" d="M1327.15261,200.32986c-.2175.27919-3.19385-1.67629-6.64676-4.36691-3.4542-2.6916-6.07709-5.09926-5.85959-5.37861.21749-.279,3.19319,1.676,6.64741,4.36756C1324.74661,197.64252,1327.37027,200.05083,1327.15261,200.32986Z"/><path class="cls-2" d="M1328.78455,180.93275c.19835.29343-2.33105,2.34923-5.64864,4.59144-3.31871,2.243-6.16889,3.82309-6.36724,3.52966-.198-.2931,2.33075-2.34874,5.64946-4.5916C1325.7357,182.22,1328.58653,180.63964,1328.78455,180.93275Z"/><path class="cls-5" d="M1437.2611,9.81388,1433.29874,19.96l4.83152,1.88692,4.28509-10.97276,1.11218-2.84805L1438.696,6.13938Zm20.38738,8.62123c.70452-2.74364.1455-4.83758-3.38958-6.218-2.07266-.80959-3.76909-.59259-4.7857.28524l-.06382-.02487.72989-1.86924-3.85288-1.50463-1.03772,2.65707L1440.889,22.92427l4.03093,1.57417,2.67621-6.85279c.70535-1.80608,1.74127-3.4084,3.95453-2.54415,2.22435.86867,1.58479,2.99255.95424,4.60732l-2.62663,6.726,4.14549,1.619,2.96425-7.59054a17.32317,17.32317,0,0,0,.6605-2.02815ZM1443.80836.17865a2.59354,2.59354,0,1,0,1.47206,3.3593,2.59241,2.59241,0,0,0-1.47206-3.3593Z"/><path class="cls-5" d="M910.64086,237.28v-.0365H910.604v0a3.24689,3.24689,0,0,0-1.09255-.389H909.493a9.23855,9.23855,0,0,1-4.4237-3.25865,11.37842,11.37842,0,0,1-1.55536-2.66509h0a1.28307,1.28307,0,0,1,.05613-1.14786h.03682a3.26812,3.26812,0,0,1,1.51773-.99943h0a5.802,5.802,0,0,0,2.07348-1.05458h0a.75771.75771,0,0,0,.31453-.389.76822.76822,0,0,1,.05532-.14827.8537.8537,0,0,0-.05532-.55478h0a1.65126,1.65126,0,0,0-.70387-.685h0a1.67041,1.67041,0,0,0-1.25832-.11145h0a4.5592,4.5592,0,0,1-1.09206.31519c-.01849,0-.01849.037-.01849.037a3.12714,3.12714,0,0,1-1.25882-.037.86742.86742,0,0,0-.03731-.27788h0c0-.74069.0558-1.518.0558-2.351h0a23.03858,23.03858,0,0,0-.0743-3.73881v-.03731a8.50016,8.50016,0,0,0-3.5169-5.20138,8.74946,8.74946,0,0,0-4.31307-1.49922h0a14.55675,14.55675,0,0,0-1.55421-.093,9.64783,9.64783,0,0,0-5.8496,1.88856,9.14281,9.14281,0,0,0-2.86917,3.72064v.01817a10.39151,10.39151,0,0,0-.44431,4.55364h0c.01849,1.01792.12961,2.01784.05564,2.99943,0,.01816,0,.01816-.03715.05515a4.34713,4.34713,0,0,1-1.46207-.037h-.01866c-.35185-.05564-.68472-.20374-1.11071-.31519h-.0365a1.21594,1.21594,0,0,0-1.09271.24073h-.01865v.01882a1.14517,1.14517,0,0,0-.62892.92529.11033.11033,0,0,0,.01849.07381h.01849a1.04626,1.04626,0,0,0,.37019.61075,1.51648,1.51648,0,0,0,.38834.27789v.03731a13.43584,13.43584,0,0,0,2.31438.99959h0a1.597,1.597,0,0,1,1.03642.99943,2.55023,2.55023,0,0,1-.40783,1.75861h0a10.68247,10.68247,0,0,1-3.51657,4.03519,8.79344,8.79344,0,0,1-2.57278,1.16619h-.01882a1.5241,1.5241,0,0,0-.92546.55511.16027.16027,0,0,0-.05564.11112.77242.77242,0,0,0,.14827.70338,1.11208,1.11208,0,0,0,.40684.31487h0a8.73687,8.73687,0,0,0,2.388.83234h0a14.00639,14.00639,0,0,1,1.49988.37051c.01833.03731.0738.16676.16643.40782.14794.42517.20375.94346.36986,1.46191a.436.436,0,0,0,.31519.27756.84683.84683,0,0,0,.57344-.03682.01822.01822,0,0,0,.0185-.01882,9.70125,9.70125,0,0,1,3.77612-.1108h0a14.19842,14.19842,0,0,1,3.55454,1.90672h0a5.577,5.577,0,0,0,2.81319,1.03674h0a17.2842,17.2842,0,0,0,2.40635-.05613h0a4.47937,4.47937,0,0,0,1.88823-.62859l.0365-.03764c1.27747-.703,2.38868-1.59185,3.64717-2.14762h0a6.81439,6.81439,0,0,1,1.48121-.16578h0a21.50338,21.50338,0,0,1,3.09059.16578h.11112a.578.578,0,0,0,.35169-.1846c.07364-.092.07364-.18493.11112-.24057.037-.07381.055-.12928,0-.0558.037-.018.037-.055.055-.07348a4.2158,4.2158,0,0,1,.57425-1.51837.88281.88281,0,0,1,.64791-.20293h.07414a12.546,12.546,0,0,0,2.44333-.68506c0-.037,0-.037.03682-.037a2.05985,2.05985,0,0,0,.96293-.64839h0a.6798.6798,0,0,0-.18525-.99943Z"/><path class="cls-6" d="M1125.22142,640.64414c0,.23533-156.78465.42615-350.14342.42615-193.426,0-350.17714-.19082-350.17714-.42615s156.7511-.426,350.17714-.426C968.43677,640.21815,1125.22142,640.4088,1125.22142,640.64414Z"/><rect class="cls-6" x="550.30246" y="577.80275" width="19.47943" height="62.84138"/><rect class="cls-6" x="752.91826" y="577.80275" width="19.4796" height="62.84138"/><rect class="cls-6" x="630.35931" y="577.80275" width="19.47942" height="62.84138"/><rect class="cls-6" x="821.78568" y="577.80275" width="19.47942" height="62.84138"/><path class="cls-7" d="M841.71532,584.23693a28.38187,28.38187,0,0,0,28.0941-22.88178c4.66592-23.67974,10.67131-56.79882,10.85968-93.98959.11554-22.808-4.98323-51.69531-12.03961-73.38439-10.30784-31.68351-32.36268-59.59254-64.401-68.73763-41.61-11.8771-56.66986-7.31855-86.1768,8.155-32.09641,16.83153-40.78327,48.40589-74.19283,62.45156-32.43795,13.63719-71.55475,8.98094-101.12632,28.05222-26.01033,16.77426-38.69637,49.00617-39.72787,79.939-.65429,19.62066,1.12,33.67059,4.75035,48.89521a37.72324,37.72324,0,0,0,36.34844,29.03283Z"/><polygon class="cls-8" points="592.848 482.459 503.49 600.613 472.292 593.715 544.287 467.366 592.848 482.459"/><path class="cls-9" d="M504.50013,599.09644,475.89983,642l-53.56014-35.3099c3.68612-4.90959,38.16728,3.08518,38.16728,3.08518l17.1968-28.24091Z"/><g class="cls-10"><path class="cls-3" d="M478.59879,618.37311a2.6197,2.6197,0,0,1-.13338,3.49317,2.51856,2.51856,0,0,1-3.46355-.10146,2.764,2.764,0,0,1,.16038-3.69872c1.02464-.77882,2.97849-.62646,3.5912.5052"/></g><g class="cls-10"><path class="cls-3" d="M475.89983,642l2.71369-4.43712-52.3676-32.19542s-3.06832-.53449-3.90623,1.32264Z"/></g><path class="cls-6" d="M459.81865,608.93051c-.164.26741,1.06554,1.248,1.798,2.9374.77686,1.67024.69323,3.24033,1.002,3.29532.27461.10817.91563-1.71247-.00737-3.74225C461.7072,609.38366,459.92011,608.65328,459.81865,608.93051Z"/><path class="cls-6" d="M452.669,607.55059c-.227.214.61288,1.40561.77162,3.09729.20882,1.68677-.35561,3.03085-.08788,3.19107.21881.20325,1.40971-1.20923,1.17192-3.30906C454.30567,608.42875,452.83918,607.30494,452.669,607.55059Z"/><path class="cls-6" d="M445.04587,612.17051c.201.21274,1.4264-.85427,1.699-2.72924.28622-1.87366-.57475-3.25146-.82891-3.10662-.2895.11766-.00212,1.4097-.24957,2.94591C445.45533,610.82135,444.80317,611.97363,445.04587,612.17051Z"/><path class="cls-6" d="M464.45166,602.92936c-.04746.31061,1.39023.74085,2.80255,1.81573,1.43393,1.04639,2.25694,2.30095,2.54088,2.16643.27608-.08935-.20866-1.79772-1.88954-3.04067C466.23466,602.6158,464.45853,602.63936,464.45166,602.92936Z"/><path class="cls-6" d="M469.91668,597.4154c-.0743.10621.8528.94919,2.69176,1.75469a14.43972,14.43972,0,0,0,3.37469.988,15.13091,15.13091,0,0,0,2.07921.19818,3.95055,3.95055,0,0,0,1.22592-.09688,1.36557,1.36557,0,0,0,1.0369-1.31233,1.71864,1.71864,0,0,0-.75165-1.35341,4.19074,4.19074,0,0,0-1.09746-.52434,11.525,11.525,0,0,0-2.04517-.52713,11.325,11.325,0,0,0-3.54357-.007c-2.00131.33124-3.06948,1.02873-3.01351,1.13837.0617.16431,1.20612-.25579,3.097-.37214a12.83846,12.83846,0,0,1,3.28108.22927,11.95563,11.95563,0,0,1,1.853.54039c.66557.22518,1.1508.53923,1.13.88748-.0108.13125-.029.1738-.2571.26152a3.20371,3.20371,0,0,1-.8991.06808,16.8734,16.8734,0,0,1-1.95108-.12437,17.7798,17.7798,0,0,1-3.24834-.71566C471.06274,597.86479,470.00554,597.27057,469.91668,597.4154Z"/><path class="cls-6" d="M470.01013,598.01486c.06611.10147,1.20284-.49374,2.41551-2.12438a10.395,10.395,0,0,0,1.96073-5.257,2.65574,2.65574,0,0,0-.81827-2.48228,1.50108,1.50108,0,0,0-1.61361.00933,4.34715,4.34715,0,0,0-.9235.8019,7.14346,7.14346,0,0,0-1.19286,1.80558,7.38629,7.38629,0,0,0-.68113,3.5259c.13174,2.07806,1.01694,3.11022,1.0973,3.03609.17412-.07365-.40521-1.17978-.32633-3.04149a7.39677,7.39677,0,0,1,.813-3.08,6.62093,6.62093,0,0,1,1.07094-1.51739c.45921-.514.97537-.8325,1.15016-.63383a1.83808,1.83808,0,0,1,.359,1.4971,10.68946,10.68946,0,0,1-.29408,1.89215,11.551,11.551,0,0,1-1.24491,3.01924C470.81907,597.08613,469.8941,597.88116,470.01013,598.01486Z"/><path class="cls-6" d="M664.59335,431.12661H583.26951a51.40806,51.40806,0,0,0-43.71,24.34826l-37.819,61.08916,47.03448,28.4517L587.64,494.06716l44.24911-3.62589,95.0134-59.31466Z"/><polygon class="cls-8" points="621.968 482.459 532.609 600.613 501.411 593.715 573.406 467.366 621.968 482.459"/><path class="cls-9" d="M533.61921,599.09644,505.0189,642l-53.56013-35.3099c3.68611-4.90959,38.16728,3.08518,38.16728,3.08518l17.1968-28.24091Z"/><g class="cls-10"><path class="cls-3" d="M507.71787,618.37311a2.61988,2.61988,0,0,1-.13338,3.49317,2.51855,2.51855,0,0,1-3.46355-.10146,2.76381,2.76381,0,0,1,.16038-3.69872c1.02463-.77882,2.97832-.62646,3.5912.5052"/></g><g class="cls-10"><path class="cls-3" d="M505.0189,642l2.71353-4.43712L455.365,605.36746s-3.06849-.53449-3.90623,1.32264Z"/></g><path class="cls-6" d="M488.93772,608.93051c-.164.26741,1.06555,1.248,1.79806,2.9374.77669,1.67024.69323,3.24033,1.002,3.29532.27445.10817.91548-1.71247-.00736-3.74225C490.82611,609.38366,489.03919,608.65328,488.93772,608.93051Z"/><path class="cls-6" d="M481.78806,607.55059c-.227.214.61272,1.40561.77146,3.09729.20882,1.68677-.35546,3.03085-.08772,3.19107.2188.20325,1.4097-1.20923,1.17192-3.30906C483.42459,608.42875,481.95809,607.30494,481.78806,607.55059Z"/><path class="cls-6" d="M474.16494,612.17051c.20081.21274,1.4264-.85427,1.699-2.72924.28623-1.87366-.57475-3.25146-.8289-3.10662-.28967.11766-.00213,1.4097-.24957,2.94591C474.57424,610.82135,473.92225,611.97363,474.16494,612.17051Z"/><path class="cls-6" d="M493.57073,602.92936c-.04746.31061,1.39007.74085,2.8024,1.81573,1.43393,1.04639,2.2571,2.30095,2.541,2.16643.27609-.08935-.20865-1.79772-1.8897-3.04067C495.35373,602.6158,493.57761,602.63936,493.57073,602.92936Z"/><path class="cls-6" d="M499.03576,597.4154c-.0743.10621.85279.94919,2.6916,1.75469a14.44181,14.44181,0,0,0,3.37468.988,15.13344,15.13344,0,0,0,2.07937.19818,3.9492,3.9492,0,0,0,1.22576-.09688,1.3657,1.3657,0,0,0,1.03707-1.31233,1.71865,1.71865,0,0,0-.75166-1.35341,4.189,4.189,0,0,0-1.09762-.52434,11.51981,11.51981,0,0,0-2.045-.52713,11.325,11.325,0,0,0-3.54357-.007c-2.00132.33124-3.06948,1.02873-3.01351,1.13837.0617.16431,1.20612-.25579,3.0968-.37214a12.83967,12.83967,0,0,1,3.28124.22927,11.9601,11.9601,0,0,1,1.853.54039c.66542.22518,1.15081.53923,1.12986.88748-.01064.13125-.029.1738-.25693.26152a3.20382,3.20382,0,0,1-.89911.06808,16.87323,16.87323,0,0,1-1.95107-.12437,17.77992,17.77992,0,0,1-3.24835-.71566C500.18182,597.86479,499.12462,597.27057,499.03576,597.4154Z"/><path class="cls-6" d="M499.1292,598.01486c.06612.10147,1.20285-.49374,2.41552-2.12438a10.392,10.392,0,0,0,1.96056-5.257,2.65519,2.65519,0,0,0-.8181-2.48228,1.50108,1.50108,0,0,0-1.61361.00933,4.34831,4.34831,0,0,0-.92366.8019,7.14709,7.14709,0,0,0-1.19271,1.80558,7.38657,7.38657,0,0,0-.68128,3.5259c.13174,2.07806,1.0171,3.11022,1.09729,3.03609.17413-.07365-.405-1.17978-.32632-3.04149a7.397,7.397,0,0,1,.81319-3.08,6.62093,6.62093,0,0,1,1.07094-1.51739c.45921-.514.97537-.8325,1.15015-.63383a1.838,1.838,0,0,1,.35906,1.4971,10.68853,10.68853,0,0,1-.29409,1.89215,11.5451,11.5451,0,0,1-1.24507,3.01924C499.93814,597.08613,499.01318,597.88116,499.1292,598.01486Z"/><path class="cls-6" d="M693.71243,431.12661h-84.141a46.35093,46.35093,0,0,0-39.41,21.953L530.85952,516.564l47.03448,28.4517,42.003-55.06215,41.11105.48769,91.45935-57.09586Z"/><path class="cls-7" d="M577.894,545.01573a6.52951,6.52951,0,0,1-.90074-.4746c-.625-.36183-1.47631-.85443-2.5615-1.48236-2.278-1.34916-5.532-3.27617-9.64258-5.71051-8.3157-4.98633-20.0874-12.04517-34.12424-20.46217l-.326-.19556.20081-.32469c7.46846-12.08232,15.8789-26.29492,25.25588-41.12236,7.6295-12.0491,15.28141-23.30465,22.8862-33.06213a18.91428,18.91428,0,0,1,7.2081-5.568,42.87129,42.87129,0,0,1,8.08853-2.82972,95.84628,95.84628,0,0,1,15.12807-2.38458,202.11557,202.11557,0,0,1,22.13126-.53826c2.61239.07037,4.63923.162,6.01261.23828.64888.04222,1.16406.07577,1.56174.10163a2.47793,2.47793,0,0,1,.53072.06432,2.49717,2.49717,0,0,1-.53432.02274c-.39817-.00425-.91417-.01-1.5642-.017-1.43032-.01865-3.44489-.04484-6.01211-.07839-5.21644-.01571-12.785-.04255-22.07137.80681a96.84961,96.84961,0,0,0-15.00631,2.46887,42.41053,42.41053,0,0,0-7.93847,2.8199,18.17943,18.17943,0,0,0-6.91368,5.37436c-7.5498,9.75731-15.16554,21.00124-22.787,33.03742-9.36651,14.81107-17.80936,29.007-25.33591,41.06213l-.125-.51976c13.97121,8.52549,25.6881,15.67516,33.96485,20.72581,4.06447,2.51077,7.28172,4.49833,9.53408,5.88987,1.06.6695,1.8915,1.19483,2.50209,1.58056A6.49758,6.49758,0,0,1,577.894,545.01573Z"/><path class="cls-11" d="M541.80724,522.88823c.20392.11766-7.25931,13.43851-16.66738,29.7493-9.41135,16.31652-17.20352,29.44393-17.40743,29.32643-.20375-.11767,7.25784-13.43574,16.66919-29.75225C533.80969,535.90092,541.6035,522.77072,541.80724,522.88823Z"/><path class="cls-6" d="M818.934,331.06713a3.85815,3.85815,0,0,1,.31389.59062c.20767.43548.48736,1.02218.84445,1.77122.74494,1.60772,1.81049,3.90754,3.17372,6.84936q1.02806,2.24148,2.27559,4.96032c.81221,1.82178,1.52737,3.87072,2.38655,6.035q1.25782,3.26292,2.68374,6.96212c1.00957,2.44432,1.84142,5.11006,2.7222,7.907q1.3364,4.19231,2.79585,8.771c.52074,1.51526.91613,3.09975,1.32575,4.71222q.62253,2.417,1.26782,4.92186.64438,2.5051,1.31069,5.09418.33288,1.29441.67082,2.60912.27224,1.32977.54856,2.67916,1.08257,5.40423,2.22586,11.11187a355.11181,355.11181,0,0,1,5.13917,50.14879,422.366,422.366,0,0,1-1.98363,50.38985c-.92939,7.69742-1.6781,15.02988-2.8577,21.82606-.54923,3.403-1.01008,6.70109-1.58088,9.84944q-.90976,4.71125-1.74488,9.035c-1.03576,5.77122-2.31487,10.92006-3.34179,15.4611q-.7902,3.39718-1.46977,6.31962-.7681,2.88487-1.40332,5.27109c-.84576,3.12921-1.50692,5.57533-1.96906,7.28517-.22536.79863-.40178,1.42411-.5327,1.88856a3.87728,3.87728,0,0,1-.20964.63546,3.934,3.934,0,0,1,.12552-.65854c.111-.46968.26037-1.10253.451-1.91032.42549-1.71852,1.03445-4.17691,1.81327-7.322q.60093-2.38827,1.33017-5.28533.64635-2.92244,1.40006-6.33009c.98158-4.54661,2.2183-9.69873,3.21462-15.47011q.80714-4.31748,1.68874-9.03265c.55283-3.14688.99664-6.44269,1.53-9.84274,1.14769-6.79028,1.86842-14.11309,2.77489-21.79888a431.50888,431.50888,0,0,0,1.91327-50.28725,361.32933,361.32933,0,0,0-5.06031-50.03342q-1.12135-5.69167-2.18526-11.09124-.27051-1.3472-.53711-2.67491-.33213-1.31233-.65919-2.605-.65346-2.58465-1.28615-5.087-.63186-2.50143-1.24179-4.91646c-.40063-1.611-.787-3.19417-1.29843-4.70829q-1.4272-4.572-2.73725-8.76786c-.86049-2.79716-1.67139-5.46421-2.65953-7.91065q-1.38891-3.69987-2.61746-6.97243c-.83658-2.16873-1.52868-4.22323-2.31764-6.05172q-1.2063-2.727-2.20409-4.9829c-1.29956-2.96785-2.31519-5.288-3.02528-6.90975-.32469-.7641-.579-1.36274-.76786-1.80706A3.93537,3.93537,0,0,1,818.934,331.06713Z"/><path class="cls-6" d="M605.155,545.65937a36.95423,36.95423,0,0,1-.0257,5.14623c-.08084,3.17094-.13681,7.55-.00163,12.38312.13943,4.8348.44415,9.204.70468,12.36528a36.90246,36.90246,0,0,1,.31783,5.13608,26.4658,26.4658,0,0,1-.91712-5.07275c-.41519-3.15637-.81712-7.54357-.95737-12.40423-.13583-4.85934.0162-9.26176.25153-12.43647A26.46417,26.46417,0,0,1,605.155,545.65937Z"/><polygon class="cls-8" points="679.034 353.112 662.375 410.112 600.714 416.725 600.714 427.669 691.315 428.92 703.651 354.697 679.034 353.112"/><path class="cls-9" d="M797.50662,315.73057c-7.27928-16.7065-27.87728-22.44319-38.8178-22.46643-15.26685-.03256-13.88529-.967-28.88849,1.73341l-1.97824-.06333c-45.624-1.85239-50.87,60.81045-50.87,60.81045l20.79439,1.69741v-.00017l-5.4899,43.16868-15.927,30.55464,87.6104-.14353L768.8461,359.692l38.99765-1.04705S804.23864,331.181,797.50662,315.73057Z"/><path class="cls-6" d="M700.27032,329.27922c.23387.02668-1.3066,15.2405-3.44013,33.97662-2.13437,18.74284-4.05369,33.91018-4.28756,33.88367-.23369-.02667,1.30628-15.23722,3.44064-33.98006C698.117,344.42333,700.03646,329.25255,700.27032,329.27922Z"/><path class="cls-6" d="M763.22888,293.08183a2.72069,2.72069,0,0,1,.11521.77523c.04451.50978.09214,1.2634.10785,2.2373a25.77849,25.77849,0,0,1-1.148,8.16873,24.13436,24.13436,0,0,1-6.01653,10.63678,17.18686,17.18686,0,0,1-6.13535,3.97054,23.63172,23.63172,0,0,1-7.72032,1.27764,40.43234,40.43234,0,0,1-7.77891-.55036,15.65475,15.65475,0,0,1-6.733-2.84838,18.51914,18.51914,0,0,1-6.3913-10.37134,28.001,28.001,0,0,1-.88062-8.20211c.03437-.97358.10671-1.7254.16038-2.23436a2.719,2.719,0,0,1,.13617-.77178c.06791.00409.01325,1.07781.03518,3.00957a30.41639,30.41639,0,0,0,1.131,8.043,18.17063,18.17063,0,0,0,6.28166,9.89985,14.9987,14.9987,0,0,0,6.41519,2.6551,40.62567,40.62567,0,0,0,7.60805.51862,23.12148,23.12148,0,0,0,7.44915-1.2094,16.56211,16.56211,0,0,0,5.8735-3.748,24.01745,24.01745,0,0,0,5.99068-10.25564,27.721,27.721,0,0,0,1.39137-7.99264C763.18518,294.15932,763.16047,293.08412,763.22888,293.08183Z"/><g class="cls-12"><path d="M767.23248,329.28184c-3.7357,17.85862-8.60667,36.21408-12.34253,54.07286-.79388,3.79544-1.64651,7.72442-3.96531,10.83235a25.46852,25.46852,0,0,1-5.32837,4.9032c-7.36389,5.52623-15.12758,10.69946-23.77778,13.8524A213.77008,213.77008,0,0,0,758.83414,406.5c2.05254-.54693,4.2355-1.21316,5.55978-2.87374,1.17094-1.4683,1.44358-3.43753,1.66255-5.30268,2.68833-22.8988,1.911-45.99758,1.176-69.0417"/></g><path class="cls-8" d="M646.18273,408.749l27.1631-3.2652,19.13937,12.55,73.19127-17.54244,2.14271-40.84513,32.85134-.80877-.76557,47.93113A27.81765,27.81765,0,0,1,771.32347,433.99L664.125,431.0217l-4.55053-9.12266-22.99959-.68374Z"/><path class="cls-11" d="M765.67647,400.49145a9.06685,9.06685,0,0,1-1.37549.418q-1.47436.38392-3.98331,1.03707c-3.54686.88372-8.54466,2.129-14.6872,3.65944-12.48884,3.02643-29.61347,7.17617-48.53076,11.76025q-2.27829.54546-4.51518,1.08126l-.1792.04287-.15351-.101c-6.76753-4.45152-13.21251-8.69078-19.121-12.57721l.26168.06137c-10.74643,1.24147-20.05238,2.31667-27.17783,3.14l.17888-.1018c-3.0374,3.856-5.45995,6.93152-7.17618,9.11023-.80992,1.00319-1.45193,1.79822-1.93585,2.39768a5.76775,5.76775,0,0,1-.70664.79568,5.77685,5.77685,0,0,1,.58946-.88585c.45643-.62074,1.06179-1.44408,1.82555-2.48278,1.66959-2.21472,4.02668-5.34065,6.98176-9.26013l.06628-.08789.11308-.01423c7.11776-.8888,16.4134-2.04959,27.14788-3.39007l.14123-.01768.12111.07921c5.91948,3.86941,12.37657,8.09018,19.157,12.52239l-.33188-.05793q2.23312-.53563,4.51469-1.08289c18.94-4.48966,36.08512-8.55365,48.589-11.51756,6.16889-1.42035,11.18828-2.5759,14.75019-3.39613q2.53236-.555,4.02079-.88127A9.06932,9.06932,0,0,1,765.67647,400.49145Z"/><path class="cls-11" d="M661.95019,416.535c0,.23533-4.72433.42615-10.5507.42615q-.98928-.00368-1.93028-.0072l.271-.09966c-3.764,3.1513-6.705,5.42329-6.84019,5.26422-.135-.15875,2.581-2.69536,6.29751-5.90263l.115-.09918.15662-.00065q.94116-.00344,1.93028-.0072C657.22586,416.10884,661.95019,416.29966,661.95019,416.535Z"/><path class="cls-11" d="M778.4679,407.32019c-.225.13829-1.63391-3.29351-5.3323-5.56583-3.64995-2.35219-7.35292-2.13731-7.32559-2.4003a4.53185,4.53185,0,0,1,2.362-.18558,12.55079,12.55079,0,0,1,9.44146,5.94174A4.52707,4.52707,0,0,1,778.4679,407.32019Z"/><path class="cls-6" d="M808.46743,358.83738a19.35918,19.35918,0,0,1-2.931.22437c-2.02733.07463-4.72679.17413-7.99886.29457-6.75494.21161-16.08773.445-26.39622.65-1.1351.0221-2.25807.04386-3.31348.06432l-.4165.008-.016-.41061c-.37165-9.5714-.20129-18.08085-.02078-24.20294.09525-3.06015.21128-5.52181.3152-7.21775a16.41027,16.41027,0,0,1,.243-2.6245,16.4562,16.4562,0,0,1,.07152,2.63449c-.01359,1.83438-.03142,4.26446-.05319,7.21889-.02913,6.11325-.0972,14.6286.292,24.14795l-.43205-.40225c1.05524-.02161,2.17839-.04452,3.31332-.06759,10.30849-.20522,19.64325-.34318,26.40129-.40063,3.27437-.00965,5.97562-.01767,8.00426-.02372A19.39431,19.39431,0,0,1,808.46743,358.83738Z"/><path class="cls-13" d="M839.30144,468.04881c-.16187.17118-4.1486-3.33475-8.90387-7.82948-4.7569-4.49636-8.48082-8.2787-8.31913-8.44972.16152-.171,4.14761,3.3341,8.90453,7.8303C835.73821,464.09463,839.463,467.878,839.30144,468.04881Z"/><path class="cls-13" d="M818.31982,551.65823a20.67526,20.67526,0,0,1-3.40136,2.12372c-2.13829,1.23542-5.08682,2.94445-8.299,4.90533-3.212,1.96368-6.07872,3.80722-8.154,5.1459a20.685,20.685,0,0,1-3.44178,2.057,17.21,17.21,0,0,1,3.10007-2.55331c1.99444-1.4701,4.82351-3.40349,8.0514-5.37682,3.228-1.97054,6.23926-3.60527,8.45757-4.70878A17.2067,17.2067,0,0,1,818.31982,551.65823Z"/><path class="cls-13" d="M856.32885,378.28392c-.191.13763-3.04394-3.4989-6.37133-8.12094-3.32838-4.62369-5.87105-8.48229-5.6799-8.61976.19082-.13747,3.04312,3.49808,6.37166,8.12176C853.97667,374.28719,856.51983,378.14645,856.32885,378.28392Z"/><path class="cls-13" d="M863.6803,399.63227c.21176.10277-1.49317,4.05221-3.80755,8.8204-2.3152,4.76966-4.36313,8.55184-4.57491,8.44907-.21161-.10278,1.493-4.05156,3.8082-8.82122C861.42042,403.31233,863.46869,399.5295,863.6803,399.63227Z"/><path class="cls-13" d="M869.66328,468.16632c-.21029.10555-3.32346-5.66125-6.95263-12.879-3.63047-7.22036-6.40193-13.15736-6.19164-13.26308.21013-.10556,3.32265,5.65993,6.95312,12.88013C867.10115,462.12229,869.87343,468.0606,869.66328,468.16632Z"/><path class="cls-13" d="M868.874,498.51508c.19311.13452-2.77195,4.726-6.62187,10.254-3.85109,5.52983-7.12871,9.9023-7.32182,9.76778s2.77128-4.725,6.62252-10.25481C865.40258,502.754,868.68087,498.38056,868.874,498.51508Z"/><path class="cls-13" d="M858.99492,562.4063c.1715.16119-1.67614,2.40618-4.12618,5.01383-2.45087,2.60862-4.57623,4.59193-4.74773,4.43073-.17151-.161,1.67564-2.40569,4.12667-5.01432C856.69774,564.22906,858.82341,562.2451,858.99492,562.4063Z"/><path class="cls-13" d="M517.92882,486.0048c-.22485-.06971,1.40545-5.96842,3.64079-13.1734,2.23615-7.20759,4.23059-12.9919,4.45545-12.92219.22453.06972-1.40529,5.96728-3.64144,13.17471C520.14828,480.2889,518.15352,486.07452,517.92882,486.0048Z"/><path class="cls-13" d="M547.94128,443.014c-.04255.25284-3.849-.32092-8.55463-.15154-4.70829.13927-8.46805.96129-8.52713.71172-.06677-.20374,3.68007-1.41887,8.49915-1.56354C544.1753,441.83932,547.99463,442.80618,547.94128,443.014Z"/><path class="cls-8" d="M764.02243,239.30878l-4.12552,58.44469a18.222,18.222,0,0,1-18.17675,16.93888h0a18.222,18.222,0,0,1-18.183-19.414c.36593-5.56338.69651-10.11865.69651-10.11865s-14.1491-2.20015-14.32372-16.34647c-.15563-12.6209,3.29106-49.98268,4.035-57.89055l25.52.00016A26.18113,26.18113,0,0,1,764.02243,239.30878Z"/><path class="cls-11" d="M724.21028,284.95582a32.89742,32.89742,0,0,0,18.4427-5.24148s-4.35939,10.181-18.4756,8.90681Z"/><path class="cls-6" d="M716.11977,244.86529a2.02032,2.02032,0,0,0,1.948,2.03846,1.93253,1.93253,0,0,0,2.08232-1.82179,2.0207,2.0207,0,0,0-1.94567-2.03944A1.9338,1.9338,0,0,0,716.11977,244.86529Z"/><path class="cls-6" d="M714.86488,242.08368c.25055.26315,1.78087-.86932,3.95516-.8636,2.17151-.02536,3.7668,1.093,4.00262.82678.116-.11783-.1391-.59324-.83381-1.09909a5.54169,5.54169,0,0,0-3.20432-.98765,5.32468,5.32468,0,0,0-3.148,1.016C714.968,241.48913,714.74149,241.96569,714.86488,242.08368Z"/><path class="cls-6" d="M736.59585,245.45149a2.02049,2.02049,0,0,0,1.948,2.03814,1.9322,1.9322,0,0,0,2.08248-1.82146,2.02111,2.02111,0,0,0-1.94616-2.03944A1.93359,1.93359,0,0,0,736.59585,245.45149Z"/><path class="cls-6" d="M736.23369,242.48921c.25088.26348,1.78349-.869,3.95565-.8631,2.17135-.02537,3.76712,1.09271,4.00311.82644.11538-.11766-.13714-.59307-.83463-1.09892a5.54165,5.54165,0,0,0-3.20382-.988,5.32662,5.32662,0,0,0-3.14836,1.01629C736.33892,241.89483,736.11127,242.37138,736.23369,242.48921Z"/><path class="cls-6" d="M728.34415,258.61131a14.39507,14.39507,0,0,0-3.53081-.63694c-.55511-.05728-1.0806-.16758-1.17405-.5466a2.82475,2.82475,0,0,1,.37051-1.64536q.78307-2.0149,1.64177-4.227c2.27984-6.0185,3.93-10.967,3.68693-11.05688-.24319-.08968-2.28852,4.71566-4.5682,10.73415q-.82309,2.22626-1.57254,4.25236a3.213,3.213,0,0,0-.288,2.17871,1.39255,1.39255,0,0,0,.91269.81172,3.77479,3.77479,0,0,0,.94264.13108A14.13458,14.13458,0,0,0,728.34415,258.61131Z"/><path class="cls-6" d="M734.742,260.11528c-.35366-.02079-.35808,2.33909-2.37772,4.01375-2.0162,1.68039-4.5317,1.41543-4.5502,1.74536-.03273.14794.56034.45822,1.622.48719a5.87589,5.87589,0,0,0,3.79822-1.3233,5.11794,5.11794,0,0,0,1.8424-3.36585C735.16667,260.6861,734.90352,260.10153,734.742,260.11528Z"/><path class="cls-6" d="M735.67252,233.96961c.21455.59111,2.38509.3111,4.93528.61861,2.55708.25595,4.61386,1.0027,4.95213.47263.15089-.25367-.20751-.80976-1.03935-1.382a8.64454,8.64454,0,0,0-7.53245-.83119C736.05171,233.22483,735.58038,233.68927,735.67252,233.96961Z"/><path class="cls-6" d="M715.66416,235.79205c.38246.49357,1.87988-.01882,3.681-.04288,1.79969-.08723,3.32542.33172,3.67646-.18476.15383-.25072-.08609-.74528-.75248-1.21267a5.33008,5.33008,0,0,0-5.92831.18329C715.70458,235.04252,715.49544,235.55115,715.66416,235.79205Z"/><path class="cls-8" d="M759.25326,249.92674c.24106-.10457,9.72-2.87489,9.411,6.79651s-9.955,7.36634-9.963,7.08829C758.6934,263.53366,759.25326,249.92674,759.25326,249.92674Z"/><path class="cls-11" d="M761.77269,260.24195c.04354-.02963.165.12339.44547.263a1.68592,1.68592,0,0,0,1.25832.06611c1.0338-.34236,1.946-1.93716,2.04845-3.67859a5.56264,5.56264,0,0,0-.39441-2.4273,1.94713,1.94713,0,0,0-1.22592-1.33377.85814.85814,0,0,0-1.00925.42992c-.13812.26626-.083.46134-.13452.47623-.028.02324-.2026-.16856-.11194-.56559a1.07567,1.07567,0,0,1,.39981-.59373,1.27364,1.27364,0,0,1,.9397-.21651,2.36858,2.36858,0,0,1,1.712,1.55585,5.72169,5.72169,0,0,1,.498,2.71418c-.12421,1.94681-1.1801,3.73865-2.59112,4.098a1.80539,1.80539,0,0,1-1.53277-.305C761.78268,260.4763,761.73865,260.25847,761.77269,260.24195Z"/><path class="cls-6" d="M764.634,249.59878c-1.475-.35692-4.02651,1.0045-4.6556,2.38573s-.76753,2.94592-1.39432,4.32813c-.62695,1.382-2.04451,2.63154-3.52148,2.2823a2.97571,2.97571,0,0,1-2.01555-2.20686,8.18064,8.18064,0,0,1-.02864-3.11938c.57-4.51682,1.51952-8.99567,1.701-13.54457.18166-4.54889-.46608-9.27486-2.85476-13.15032-2.38868-3.87563-6.77572-6.72531-11.31365-6.35955-3.00581.24221-5.76238,1.80951-8.74871,2.22781a11.81361,11.81361,0,0,1-9.81639-3.277c-.32468-.32321-1.83471-1.31855-1.83471-1.31855,0-.23435.22142-2.25432,1.01775-2.99059,5.92424-5.47861,16.59931-7.00794,24.4247-5.03871,7.82522,1.9694,15.16047,7.49432,18.52731,14.8276s2.36806,17.53311.513,24.95395"/><path class="cls-6" d="M764.35448,248.76841c.52664-4.73972,2.89109-9.0626,4.108-13.67352,1.21676-4.61109.95868-10.2252-2.72955-13.24836-1.2603-1.033-2.82286-1.67171-3.99625-2.80239a20.637,20.637,0,0,1-2.74495-4.057,16.80909,16.80909,0,0,0-12.5232-7.62491c-3.48728-.307-6.99387.49619-10.48769.27493-5.53393-.35054-10.76362-3.24818-16.30327-3.00368a6.57636,6.57636,0,0,0-4.94918,2.03748c-1.14885,1.43785-.98078,3.9617.68,4.75493-.86539-1.41576-3.1819-1.36912-4.28214-.127a4.23118,4.23118,0,0,0-.30226,4.66983,9.15367,9.15367,0,0,0,3.566,3.38188,23.13783,23.13783,0,0,0,15.7925,2.912l10.445-5.6871,11.81459,2.60568,11.24442,7.51232-4.98536,20.79913Z"/><path class="cls-2" d="M523.21808,363.77724l34.25761,67.34937H665.52093l-4.373-8.80158-31.30106-.93037-25.49908-56.77575a9.88258,9.88258,0,0,0-9.01514-5.83373h-69.053A3.43482,3.43482,0,0,0,523.21808,363.77724Z"/><circle class="cls-6" cx="574.07566" cy="393.57286" r="4.41748"/><path class="cls-7" d="M811.9097,362.388c-.251,18.87049-11.74929,36.25107-26.74789,47.70562s-33.21352,17.81574-51.349,23.03742c-18.13535,5.22167-36.67345,9.53588-53.73312,17.60642-23.62508,11.17635-45.50383,26.51291-58.84841,48.98457-13.34458,22.47183-18.10115,51.98793-16.60782,78.08073l200.63052-20.06138,10.98782-114.03526Z"/><path class="cls-6" d="M733.81277,433.131a1.78961,1.78961,0,0,1-.43139.13255c-.33663.07987-.75837.18019-1.28222.30456-1.12577.27216-2.80223.59553-4.93708,1.12021-4.281.995-10.44874,2.56165-17.95664,4.8726a242.369,242.369,0,0,0-25.84258,9.60413,155.60543,155.60543,0,0,0-29.259,16.65265,147.5478,147.5478,0,0,0-13.16227,11.46339A132.35122,132.35122,0,0,0,629.96146,489.273,112.30473,112.30473,0,0,0,615.278,512.4912a96.6436,96.6436,0,0,0-6.20735,17.48221c-.61092,2.11161-.842,3.80722-1.12741,4.92923-.11979.52467-.21618.94722-.2931,1.28451a1.79408,1.79408,0,0,1-.12862.43319,1.76381,1.76381,0,0,1,.04287-.44776c.055-.34154.12421-.76966.21-1.3012.23124-1.13412.41077-2.84462.97374-4.9757a91.27976,91.27976,0,0,1,5.98249-17.65618,110.51977,110.51977,0,0,1,14.61976-23.4598A130.921,130.921,0,0,1,640.358,476.684a145.86734,145.86734,0,0,1,13.23411-11.54784,153.51272,153.51272,0,0,1,29.45408-16.68964,231.80056,231.80056,0,0,1,25.984-9.46208c7.54865-2.2427,13.75076-3.72294,18.05991-4.61976,2.14892-.47574,3.838-.74707,4.97553-.9649.53073-.09066.95819-.16365,1.29924-.22175A1.77084,1.77084,0,0,1,733.81277,433.131Z"/><path class="cls-13" d="M776.85854,528.93683c.11767.20392-6.10851,4.0131-13.9046,8.50684-7.79888,4.49538-14.21423,7.97317-14.33173,7.76926s6.10736-4.01228,13.90607-8.50749C770.32437,532.21153,776.7412,528.73309,776.85854,528.93683Z"/><path class="cls-13" d="M686.3361,534.69758a25.17065,25.17065,0,0,1-3.28353-3.01252c-1.96334-1.92014-4.67114-4.57295-7.70936-7.45292-3.0405-2.87947-5.83569-5.44064-7.85877-7.2976a25.15131,25.15131,0,0,1-3.185-3.11628,21.4426,21.4426,0,0,1,3.58023,2.66132c2.12912,1.7447,4.99861,4.24434,8.04976,7.13379,3.04885,2.89011,5.699,5.62049,7.55618,7.65241A21.42689,21.42689,0,0,1,686.3361,534.69758Z"/><path class="cls-13" d="M728.19916,478.71014c.22748.06055-1.01628,5.494-2.77769,12.13453-1.76189,6.643-3.37419,11.97759-3.60167,11.9172s1.016-5.49268,2.778-12.13567C726.359,483.98549,727.97168,478.64992,728.19916,478.71014Z"/><path class="cls-13" d="M808.35255,492.66858c-.09558.21521-5.925-2.16561-13.01908-5.31691-7.09631-3.15229-12.76983-5.88136-12.67426-6.09656.09558-.21488,5.92391,2.16545,13.02022,5.31773C802.77346,489.724,808.44812,492.45354,808.35255,492.66858Z"/><path class="cls-13" d="M716.20536,566.71937c-.23239.03715-1.17241-4.63089-2.09934-10.42518-.92725-5.79626-1.49022-10.52386-1.25783-10.561s1.17209,4.63007,2.0995,10.42632C715.87447,561.9538,716.43775,566.68222,716.20536,566.71937Z"/><path class="cls-13" d="M646.36,562.08848c-.17675.15547-4.43025-4.3985-9.49907-10.16988-5.07045-5.77334-9.03625-10.57786-8.85934-10.73333.17674-.15514,4.42926,4.39768,9.49972,10.171C642.5701,557.12767,646.53671,561.93334,646.36,562.08848Z"/><path class="cls-13" d="M702.04235,459.90921c.1054.21046-4.49668,2.725-10.27722,5.61542-5.78268,2.89158-10.55431,5.06408-10.6597,4.85362-.10507-.21046,4.49571-2.72449,10.27854-5.61591C697.16468,461.8719,701.93713,459.69875,702.04235,459.90921Z"/><path class="cls-13" d="M781.58108,446.5301c-.00017.2355-5.62492.42321-12.56184.41944-6.93937-.00376-12.56281-.19769-12.56264-.433s5.62376-.423,12.56313-.41928C775.95649,446.101,781.58123,446.29493,781.58108,446.5301Z"/><path class="cls-13" d="M813.48274,391.37108c.21209.06857-1.06292,4.43679-3.44113,9.50479-2.365,5.07651-4.89911,8.85493-5.08763,8.736-.21243-.12732,1.97348-4.06841,4.31568-9.097C811.6256,395.49513,813.24871,391.28974,813.48274,391.37108Z"/><path class="cls-6" d="M874.1504,20.59371a9.18587,9.18587,0,0,0,4.00393-9.28174c-.81319-5.00876-5.27927-8.45348-9.97676-7.69381-4.69553.759-7.845,5.4359-7.03249,10.44449a9.1721,9.1721,0,0,0,6.82366,7.56011c-12.7497,4.14712-9.7902,18.26153-9.7902,18.26153L889.12677,34.879S887.44,20.3934,874.1504,20.59371Z"/><path class="cls-6" d="M646.79469,221.33271a4.65553,4.65553,0,1,1-6.53351.813A4.65565,4.65565,0,0,1,646.79469,221.33271Z"/><path class="cls-6" d="M647.46174,205.32058a4.65547,4.65547,0,1,1-6.53351.8132A4.65536,4.65536,0,0,1,647.46174,205.32058Z"/><path class="cls-6" d="M663.03167,217.44415a4.672,4.672,0,1,1-6.85673.56133A4.87336,4.87336,0,0,1,663.03167,217.44415Z"/><path class="cls-6" d="M658.85525,221.83283c.10817.33712-3.18369,1.69561-7.35161,3.034-4.16939,1.33884-7.63588,2.15072-7.74437,1.8136-.108-.3368,3.183-1.69512,7.35242-3.03412C655.2796,222.30791,658.74707,221.496,658.85525,221.83283Z"/><path class="cls-6" d="M643.74454,209.56181c.35413.00147.62874,3.24933.61352,7.25342-.015,4.00573-.31438,7.25081-.66836,7.24933-.35381-.00131-.62859-3.24851-.61337-7.25407C643.09156,212.80623,643.39071,209.5605,643.74454,209.56181Z"/><path class="cls-14" d="M362.31648,142.871l1.95631-2.93429a1.86856,1.86856,0,0,1,2.79732-.68194c.67.44661,4.11848,2.7456,4.11848,2.7456l4.18935-6.28378-5.6537-3.80558c-6.29409-4.19606-10.84938-.45937-12.85085,2.54284l-2.21012,3.31511-3.63867-2.42582-4.89355,7.34032,3.67009,2.44677c-5.54506,8.31749-12.23158,18.34729-12.23158,18.34729l7.33852,4.8924s6.75444-10.13175,12.23157-18.34729l5.44653,3.63113,5.56354-6.89387Z"/><path class="cls-15" d="M45.02169,389.10173c-6.79127,6.8523-5.49039,15.03838-1.50838,18.98487a10.84022,10.84022,0,0,0,2.36543,1.82,6.513,6.513,0,0,0,5.92914.52648.68128.68128,0,0,0,.3638-1.05491c-.17249-.32878-.63759-1.077-.82285-1.41887-.25251-.46-.41077-.53776-.97733-.57491a5.32744,5.32744,0,0,1-2.24172-.649,6.75573,6.75573,0,0,1-1.467-1.11235c-3.53212-3.5007-3.99362-9.38582.35954-13.7781,3.84143-3.87611,8.25434-3.75092,11.32347-.7091a17.69223,17.69223,0,0,1,2.33042,2.83446c2.215,3.401,2.67883,7.00746.56771,9.13756a3.08186,3.08186,0,0,1-4.96687-.38622c-.623-1.03723-1.19532-2.20686-1.77956-3.31086A12.64561,12.64561,0,0,0,52.6011,396.509a2.66876,2.66876,0,0,0-4.0563-.1139c-1.53457,1.54832-1.20563,4.3386.85755,6.38344a8.02721,8.02721,0,0,0,1.12349.93037,7.1863,7.1863,0,0,0,1.55812.80959s4.92235,8.025,5.79757,9.4174a21.21333,21.21333,0,0,0,5.279,5.30988c.1715.14385.434-.04124.42009-.26561a20.85464,20.85464,0,0,0-1.98134-7.15506c-.47754-.78816-2.853-4.84724-2.853-4.84724,1.4246.44137,3.6997-.214,5.2598-1.78823,3.73652-3.77007,3.77776-9.28877.7006-14.14812a17.8649,17.8649,0,0,0-2.56935-3.17535c-4.16726-4.13011-11.6223-4.30735-17.11563,1.23558Z"/><path class="cls-15" d="M1193.05813,97.073a16.312,16.312,0,0,1-4.39229,1.19434,7.55039,7.55039,0,0,0,3.38074-4.19017,15.60068,15.60068,0,0,1-4.87831,1.84192,7.69144,7.69144,0,0,0-13.26079,5.1418,7.87539,7.87539,0,0,0,.22353,1.72147,21.73949,21.73949,0,0,1-15.7907-7.87514,7.43926,7.43926,0,0,0,2.34826,10.06121,7.41876,7.41876,0,0,1-3.46077-.93151v.1013a7.13294,7.13294,0,0,0,.52565,2.71238,7.63668,7.63668,0,0,0,5.62884,4.65625,7.52578,7.52578,0,0,1-2.02454.283,6.83373,6.83373,0,0,1-1.43851-.16152,7.72331,7.72331,0,0,0,7.14737,5.2634,15.48736,15.48736,0,0,1-9.495,3.21856c-.628,0-1.21415-.04124-1.84127-.1013a22.10267,22.10267,0,0,0,11.74078,3.38074,21.30539,21.30539,0,0,0,21.27472-16.88341,20.71974,20.71974,0,0,0,.506-4.5543v-.97193a15.83821,15.83821,0,0,0,3.80625-3.907Z"/><path class="cls-15" d="M1485.784,280.80092h5.43377c1.21479,0,3.29547.53383,3.29547,2.83626,0,1.21529-.957,2.633-2.15416,2.633H1485.784Zm17.49711-10.92154h9.7966v3.26h-9.7966Zm8.49,10.92154h-7.18321a3.61056,3.61056,0,0,1,7.18321,0Zm-7.42329,2.17363h12.026v-.53383a8.18616,8.18616,0,1,0-8.17624,8.19475c4.91694,0,7.275-2.81745,8.01161-6.57508h-4.4381c-.387,1.93372-1.52966,3.29728-3.57351,3.29728-2.0807,0-3.66486-1.93438-3.84978-4.38312Zm-5.432,1.08584a5.508,5.508,0,0,0-3.71983-5.138,5.54656,5.54656,0,0,0,2.59635-4.67818,5.45891,5.45891,0,0,0-5.43327-5.45094h-10.95819v21.84225H1492.359a6.58776,6.58776,0,0,0,6.55675-6.57508Zm-7.69806-6.50046H1485.784v-4.42059h5.43377a2.2103,2.2103,0,1,1,0,4.42059Z"/><rect class="cls-6" x="955.14096" y="540.13854" width="119.62564" height="16.43713"/><path class="cls-6" d="M1074.97035,556.77991h-120.034V539.93349h120.034Zm-119.62483-.40913h119.21569V540.34262H955.34552Z"/><polygon class="cls-6" points="966.232 551.105 983.451 636.052 1047.162 636.052 1063.807 556.576 966.232 551.105"/><polygon class="cls-7" points="966.232 628.017 975.416 640.644 1052.856 640.644 1063.807 628.017 966.232 628.017"/><path class="cls-6" d="M1010.46151,553.58573c-.2355.00066-.53695-39.35343-.6736-87.88861-.13665-48.552-.05662-87.89876.17889-87.89941.23515-.00066.53679,39.34492.67342,87.89712C1010.77689,514.22984,1010.69684,553.58508,1010.46151,553.58573Z"/><path class="cls-6" d="M1037.10877,455.1024a4.18348,4.18348,0,0,1-.3209.91531c-.28019.668-.63368,1.51117-1.06786,2.54726q-.35815.84126-.78029,1.83373-.37092,1.04008-.79666,2.23386-.43424,1.20726-.922,2.56264c-.31993.90893-.57148,1.89935-.88488,2.922a119.03751,119.03751,0,0,0-3.34555,14.64627,178.22741,178.22741,0,0,0-1.85255,18.3157,246.9403,246.9403,0,0,0,.94575,33.45752c.38475,4.27117.77211,7.72261,1.05638,10.10523.12274,1.11759.22257,2.02733.30177,2.74806a.48585.48585,0,1,1-.17.02471c-.12078-.71532-.27314-1.61852-.4605-2.72809-.38559-2.37149-.86493-5.81688-1.32723-10.08969a220.22,220.22,0,0,1-1.19746-33.55767,166.96139,166.96139,0,0,1,1.9293-18.40489,110.90393,110.90393,0,0,1,3.54407-14.69455c.33385-1.02332.60633-2.01277.9482-2.92055q.52263-1.35038.98912-2.55527.46272-1.18518.8664-2.21946c.29521-.66983.59633-1.26864.85244-1.81311.495-1.0122.8978-1.83586,1.21693-2.48851A4.094,4.094,0,0,1,1037.10877,455.1024Z"/><path class="cls-6" d="M1034.05043,423.2734a8.03072,8.03072,0,0,1-.38049,1.2976q-.4647,1.36536-1.24524,3.65895-.41633,1.20015-.91482,2.63694-.446,1.47312-.96244,3.17814c-.69945,2.27739-1.511,4.8649-2.23124,7.77662q-.57443,2.17691-1.2004,4.54938-.53978,2.39661-1.121,4.97619c-.83608,3.42509-1.43867,7.14672-2.2098,11.03331-1.31823,7.81623-2.47967,16.45726-3.28057,25.57158-.7556,9.12152-1.085,17.8375-1.20074,25.767-.02373,7.92964.07675,15.07472.40242,21.0654.10572,2.99828.29785,5.7051.45234,8.08347.13714,2.38.28688,4.4273.43875,6.09852q.18387,2.41821.29294,3.85468a8.01583,8.01583,0,0,1,.04452,1.35063,8.00231,8.00231,0,0,1-.21521-1.33279q-.16888-1.43335-.4525-3.84175c-.20275-1.66812-.40111-3.71378-.58375-6.09329-.19982-2.3782-.4345-5.08649-.57884-8.08789-.40324-5.99673-.56656-13.15474-.58588-21.1027.07267-7.94764.37919-16.68719,1.13674-25.83359.803-9.13935,1.99182-17.80428,3.35652-25.6367.7947-3.89511,1.42527-7.62214,2.29376-11.05164q.60709-2.57877,1.17226-4.97963.65491-2.3701,1.25716-4.54923c.75984-2.90958,1.61411-5.49284,2.3584-7.76205q.55307-1.69552,1.03183-3.16357.53736-1.42549.987-2.61812.87664-2.26405,1.39744-3.609A7.99047,7.99047,0,0,1,1034.05043,423.2734Z"/><path class="cls-6" d="M1002.895,560.54753a1.88812,1.88812,0,0,1-.06759-.45987c-.02946-.35349-.06661-.79928-.11292-1.35423-.08477-1.25407-.20244-2.9973-.35185-5.21136-.2872-4.59128-.696-11.124-1.19941-19.16947-1.03871-16.18216-2.54039-38.53943-5.26324-63.125-1.39138-12.29279-3.005-23.96713-4.68244-34.55186-.89191-5.28337-1.70052-10.31144-2.61861-14.98782-.84117-4.69127-1.7483-9.03609-2.5826-13.00189-.78619-3.97644-1.66286-7.53654-2.36757-10.67835-.69307-3.14492-1.36355-5.83553-1.92374-8.03208-.52778-2.15449-.94329-3.85092-1.24229-5.07144-.12388-.54284-.22355-.979-.30241-1.32477a1.90477,1.90477,0,0,1-.075-.45921,1.879,1.879,0,0,1,.15907.43613c.10016.34008.22666.769.38409,1.30317.33631,1.211.80387,2.89486,1.39776,5.03331.60994,2.18526,1.32805,4.86654,2.06579,8.00393.7497,3.13412,1.66846,6.68915,2.49327,10.662.87307,3.9622,1.81555,8.30588,2.68782,12.99731.94935,4.67671,1.78512,9.70642,2.69945,14.99339,1.72212,10.59112,3.36143,22.27757,4.75444,34.58328,2.72564,24.61158,4.13289,46.98931,5.01776,63.1844.43974,8.09885.74528,14.65527.92906,19.18764.08166,2.21766.14583,3.96383.19213,5.21987.01162.55691.02095,1.00417.02847,1.35864A1.88,1.88,0,0,1,1002.895,560.54753Z"/><path class="cls-9" d="M1009.48566,396.71647c-.51978-5.57533-6.15418-9.78137-11.75323-9.83881-5.59922-.05761-10.81795,3.30006-14.24238,7.73014-3.42444,4.43025-5.31281,9.83914-6.85787,15.22119-3.77057,13.13478-5.83194,26.935-4.21979,40.50506,1.61214,13.56993,7.11791,26.93038,16.8556,36.518,1.58316,1.5588,3.63406,3.11775,5.80688,2.65413a7.0009,7.0009,0,0,0,3.06342-1.89265,90.64482,90.64482,0,0,0,29.41792-68.9291c-.15156-5.16-.82908-10.53041-3.68662-14.82973-2.85771-4.29916-9.51887-8.86442-14.38393-7.13821"/><path class="cls-9" d="M967.67578,352.06052q-3.94338,7.141-7.88657,14.282c-.1838.33287-.427.70616-.80585.73742-.41437.03437-.72416-.35725-.95115-.70567l-20.849-31.99822,4.804-2.72171Z"/><g class="cls-12"><path d="M967.67578,352.06052q-3.94338,7.141-7.88657,14.282c-.1838.33287-.427.70616-.80585.73742-.41437.03437-.72416-.35725-.95115-.70567l-20.849-31.99822,4.804-2.72171Z"/></g><path class="cls-9" d="M1009.9668,377.7964q-35.56089-20.98381-71.12141-41.96779a3.31571,3.31571,0,0,1-1.73128-1.74667c-.2841-1.05228.5065-2.06742,1.2652-2.85,9.78185-10.091,23.99019-15.94093,38.00788-14.93218s27.49809,9.10647,34.3612,21.37077c6.86311,12.26415,7.09042,28.48362-.78159,40.12588"/><path class="cls-6" d="M949.09562,322.43232a3.889,3.889,0,0,1,.93184-.116c.61321-.03077,1.5187-.14156,2.68767-.129a53.45709,53.45709,0,0,1,9.86827.78357A57.67946,57.67946,0,0,1,1008.617,364.625a53.47578,53.47578,0,0,1,1.76287,9.74046c.12895,1.16177.10882,2.07364.13943,2.68685a3.88454,3.88454,0,0,1-.02259.93855c-.0756.00393-.16414-1.28418-.44677-3.59022a60.64449,60.64449,0,0,0-2.01244-9.61051A58.1005,58.1005,0,0,0,962.47686,323.564a60.64814,60.64814,0,0,0-9.76386-1.04493C950.39,322.46767,949.0994,322.50792,949.09562,322.43232Z"/><path class="cls-6" d="M1000.34023,348.82985a17.16423,17.16423,0,0,1-3.59528,1.63423c-2.26594.89322-5.43246,2.03437-8.97407,3.16014-3.54339,1.12462-6.78848,2.01964-9.15441,2.59766a17.15793,17.15793,0,0,1-3.87921.73971,19.32921,19.32921,0,0,1,3.71735-1.32018c2.62139-.81892,5.67941-1.77417,9.05835-2.82956,3.36716-1.08715,6.41568-2.07152,9.02922-2.91531A19.31743,19.31743,0,0,1,1000.34023,348.82985Z"/><path class="cls-6" d="M989.14114,318.7462c.229-.02111.733,3.52557.841,7.93373.115,4.40962-.20932,7.97627-.43892,7.96694-.24073-.00867-.29867-3.56566-.41306-7.94534C989.023,322.32316,988.90123,318.76682,989.14114,318.7462Z"/><path class="cls-6" d="M938.22449,335.03309a31.94672,31.94672,0,0,1,5.16652-1.818c3.23116-.99615,7.73114-2.2571,12.7471-3.46682,5.0184-1.20792,9.59937-2.13469,12.92954-2.71909a31.91362,31.91362,0,0,1,5.4274-.73415,38.23589,38.23589,0,0,1-5.30924,1.3251c-3.29433.73464-7.84257,1.7519-12.848,2.95655-5.00305,1.20678-9.51529,2.37215-12.78278,3.2184A38.21788,38.21788,0,0,1,938.22449,335.03309Z"/><path class="cls-9" d="M977.17321,383.51983c-6.11651-4.63858-12.5849-5.55192-20.25531-5.24786-7.67057.30407-15.13674,2.641-22.16841,5.72065-11.99281,5.25228-23.26554,12.99453-30.43125,23.95207-7.16586,10.95738-9.65895,25.46373-4.29441,37.40678a5.33028,5.33028,0,0,0,2.42893,2.94706c1.26244.54055,2.70846.11849,4.01408-.30734,13.63983-4.44972,27.3765-8.941,39.918-15.90918,12.54137-6.96834,23.9573-16.65446,30.687-29.32561a25.19748,25.19748,0,0,0,3.23018-9.73161,12.09977,12.09977,0,0,0-3.12888-9.505"/><path class="cls-6" d="M977.29464,382.08116a4.98773,4.98773,0,0,1-.98175.39882c-.73791.25383-1.68546.57966-2.858.9829q-.94682.31569-2.06956.69c-.75018.26986-1.55.60633-2.418.94182-1.72555.69831-3.72916,1.39563-5.83864,2.41945q-1.60176.72955-3.34457,1.52328c-1.16.53563-2.31766,1.194-3.54358,1.81851-2.47263,1.21479-4.97374,2.76622-7.63768,4.33892A120.67664,120.67664,0,0,0,918.51251,421.668c-1.89952,2.44236-3.757,4.7258-5.277,7.02365-.77555,1.13641-1.57614,2.201-2.25513,3.28321q-1.00844,1.626-1.93684,3.12331c-1.28418,1.96187-2.23091,3.86057-3.14344,5.48286-.44333.81827-.87882,1.56845-1.242,2.27821q-.514,1.06514-.94786,1.96449c-.54924,1.11153-.99306,2.00966-1.33886,2.70911a4.96616,4.96616,0,0,1-.52058.92284,4.89579,4.89579,0,0,1,.36331-.99174c.30865-.71794.70534-1.64012,1.196-2.78144q.40455-.91662.88406-2.00344c.34268-.723.75885-1.48711,1.18386-2.31929.876-1.65027,1.79069-3.57859,3.048-5.57057q.91048-1.518,1.90083-3.1698c.66836-1.09778,1.45962-2.17772,2.22748-3.32984,1.50446-2.32911,3.35194-4.64349,5.24769-7.11546a116.88442,116.88442,0,0,1,30.28854-26.64759c2.69291-1.56518,5.22364-3.10286,7.72507-4.29818,1.24049-.61468,2.41241-1.26193,3.58645-1.78513q1.76255-.771,3.38582-1.48138c2.136-.99338,4.16512-1.65535,5.91375-2.314.87964-.31553,1.69039-.63089,2.4512-.87882q1.13877-.33729,2.1-.62172c1.19467-.34138,2.16007-.6173,2.91171-.832A4.89621,4.89621,0,0,1,977.29464,382.08116Z"/><path class="cls-6" d="M929.5067,407.95631c.06612.226-6.59635,2.37264-14.87882,4.794-8.28525,2.42239-15.05328,4.20245-15.11923,3.97644-.06612-.22584,6.59472-2.372,14.88013-4.79437C922.67125,409.51085,929.44059,407.73063,929.5067,407.95631Z"/><path class="cls-6" d="M928.89482,440.79112a23.80681,23.80681,0,0,1-.32715-4.63612c-.07856-2.86621-.09083-6.82841.03076-11.20171.12292-4.37477.3566-8.33042.59521-11.188a23.813,23.813,0,0,1,.58555-4.6101,26.53128,26.53128,0,0,1,.016,4.64381c-.09686,3.14083-.21469,6.95738-.345,11.178-.10571,4.22-.20129,8.03683-.28,11.178A26.55924,26.55924,0,0,1,928.89482,440.79112Z"/><path class="cls-6" d="M957.02166,426.46168c-.23485.01637-.98274-8.0347-1.67041-17.98021-.688-9.94878-1.05507-18.02456-.82021-18.04076.23466-.0162.98256,8.03306,1.67039,17.982C956.8891,418.36807,957.25633,426.44548,957.02166,426.46168Z"/><path class="cls-6" d="M922.0101,389.65943a26.50091,26.50091,0,0,1,4.76949-.14385c2.941.02013,7.00027.10654,11.4814.25464,4.48277.14827,8.53924.33025,11.47517.50438a26.49385,26.49385,0,0,1,4.7492.45872,26.36868,26.36868,0,0,1-4.76213.14385c-2.94084-.02013-7.00369-.1067-11.49038-.255-4.48525-.14843-8.54431-.33042-11.48009-.50454A26.38551,26.38551,0,0,1,922.0101,389.65943Z"/><path class="cls-6" d="M992.3183,490.68249a4.20219,4.20219,0,0,1-.10179-.97193c-.03273-.73153-.0743-1.6565-.12536-2.79421-.10719-2.42681-.13158-5.94371-.04026-10.28705.07757-4.34433.36609-9.51347.87767-15.23723.554-5.71918,1.35554-11.99052,2.5034-18.52354,1.17895-6.52991,2.59226-12.69373,4.04762-18.25334,1.49628-5.54914,3.01056-10.5003,4.43794-14.60422,1.41413-4.10769,2.65118-7.39973,3.58973-9.64.44055-1.04983.79895-1.90345,1.08223-2.57851a.4909.4909,0,1,1,.15975.06333c-.244.68947-.55268,1.56141-.93219,2.63383-.842,2.27346-1.99034,5.59022-3.3277,9.71148-1.35064,4.11767-2.80044,9.07128-4.25006,14.61273-1.40874,5.55192-2.79355,11.69791-3.96811,18.20409-1.14377,6.50929-1.96594,12.754-2.561,18.45006-.55266,5.70035-.90271,10.84952-1.057,15.18027-.1679,4.32944-.23549,7.83913-.23026,10.26381-.01407,1.13772-.02553,2.06268-.03469,2.79405A4.2528,4.2528,0,0,1,992.3183,490.68249Z"/><path class="cls-6" d="M996.06971,442.15664a19.50755,19.50755,0,0,1-2.83692,3.11383c-1.84011,1.83454-4.45248,4.298-7.43327,6.9122-2.98272,2.61386-5.76713,4.8816-7.8267,6.4656a19.48925,19.48925,0,0,1-3.45813,2.40488A21.93692,21.93692,0,0,1,977.591,458.182c2.18558-1.89772,4.77932-4.15024,7.64668-6.64021,2.84281-2.516,5.41527-4.79258,7.58269-6.71075A21.94622,21.94622,0,0,1,996.06971,442.15664Z"/><path class="cls-6" d="M1018.582,460.29069a33.42117,33.42117,0,0,1-3.022-4.18542c-1.9442-2.83709-4.35824-6.36021-7.02775-10.25629-2.72612-3.85877-5.19057-7.34736-7.175-10.15646a33.40623,33.40623,0,0,1-2.87358-4.288,28.86528,28.86528,0,0,1,3.35621,3.92717c1.97233,2.50569,4.61107,6.03552,7.392,10.03061,2.77817,3.99477,5.17045,7.69578,6.83433,10.416A28.87081,28.87081,0,0,1,1018.582,460.29069Z"/><path class="cls-6" d="M1006.78867,403.26029c.1273.19818-7.35065,5.23247-16.70047,11.24328-9.35292,6.01293-17.0356,10.72531-17.16292,10.52729-.12731-.19785,7.34915-5.23132,16.70208-11.24426C998.977,407.7758,1006.66149,403.06243,1006.78867,403.26029Z"/><path class="cls-6" d="M1027.87466,426.01884c-.16447.1684-5.229-4.51159-11.3107-10.45153-6.0838-5.94223-10.88079-10.894-10.71615-11.06244.1643-.1684,5.22789,4.5106,11.31168,10.45267C1023.241,420.89765,1028.039,425.8506,1027.87466,426.01884Z"/><path class="cls-9" d="M1033.17718,425.56241l6.41977-.53155a31.76323,31.76323,0,0,0,12.96327-3.96858,51.6357,51.6357,0,0,1,6.04222-3.03445c7.93651-3.18616,16.79193-2.61615,25.3333-3.04476a104.89942,104.89942,0,0,0,40.30082-10.30522,3.9137,3.9137,0,0,0,1.75583-1.59349c1.31888-2.40177-1.13051-4.54071-3.23852-5.83962-10.815-6.66378-21.8236-13.41282-34.0884-16.72123-12.265-3.30824-26.18691-2.74855-36.65169,4.45316-12.2846,8.45414-16.761,25.8182-18.8366,40.58574"/><path class="cls-6" d="M1126.13706,402.29556a6.35331,6.35331,0,0,1-1.08829-.50667c-.76982-.40324-1.781-.93282-3.043-1.59365-2.6389-1.38778-6.43794-3.43606-11.238-5.738a105.05973,105.05973,0,0,0-17.396-6.70453,57.43325,57.43325,0,0,0-22.54711-1.82686c-7.98984,1.05295-15.34654,4.16186-20.55414,8.82662a45.71442,45.71442,0,0,0-10.70289,15.03282,125.893,125.893,0,0,0-4.65675,11.70494c-.47377,1.34278-.85344,2.41879-1.14262,3.238a6.34117,6.34117,0,0,1-.44906,1.113,6.34725,6.34725,0,0,1,.28559-1.16586c.25086-.83217.58029-1.9257.99139-3.29008a106.91584,106.91584,0,0,1,4.42452-11.853,45.50178,45.50178,0,0,1,10.72973-15.36815c5.306-4.8127,12.83333-8.01457,20.96344-9.08323a57.39031,57.39031,0,0,1,22.86737,1.91507,101.10248,101.10248,0,0,1,17.45014,6.91941c4.78441,2.38016,8.543,4.51141,11.13445,5.9892,1.23018.71925,2.216,1.29547,2.96637,1.73406A6.3366,6.3366,0,0,1,1126.13706,402.29556Z"/><path class="cls-6" d="M1110.72047,410.57819c-.13157.19507-8.52762-5.23607-18.75068-12.12929-10.22667-6.89584-18.40768-12.64219-18.2761-12.83742.13158-.19508,8.52584,5.23492,18.75251,12.13076C1102.66924,404.63547,1110.85205,410.38312,1110.72047,410.57819Z"/><path class="cls-6" d="M1102.65533,384.80827c.04484.22371-2.86818.98-6.55313,1.31446-3.68532.34367-6.68685.13125-6.68344-.09672.00066-.24253,2.96719-.41241,6.60536-.752C1099.66212,384.94426,1102.61049,384.57,1102.65533,384.80827Z"/><path class="cls-6" d="M1065.01144,378.06332c.20274.11963-1.03054,2.58571-2.75414,5.50741-1.72424,2.92284-3.28582,5.19466-3.48858,5.075s1.03037-2.58522,2.75444-5.50806C1063.24675,380.216,1064.80882,377.94369,1065.01144,378.06332Z"/><path class="cls-6" d="M1072.53421,415.52411a22.287,22.287,0,0,1-4.04075-2.19082c-2.42517-1.47173-5.703-3.629-9.20515-6.17135-3.502-2.54464-6.59046-4.9487-8.80925-6.70879a24.92141,24.92141,0,0,1-3.48631-2.98912,24.1799,24.1799,0,0,1,3.84846,2.50733c2.51862,1.83,5.5714,4.04779,8.94739,6.50062,3.49072,2.534,6.69749,4.7582,9.032,6.35529A27.3348,27.3348,0,0,1,1072.53421,415.52411Z"/><path class="cls-9" d="M1042.62927,452.83565c-6.12323-1.61739-13.42166,4.3386-14.68391,10.54464-1.26226,6.20621,1.06538,12.55315,3.79036,18.27,6.03208,12.65544,14.35661,24.39278,25.3207,33.12955,10.96408,8.73694,24.69652,14.32421,38.71584,14.253-2.5885-12.02325.6857-24.58426-.75771-36.798a47.86731,47.86731,0,0,0-42.39427-41.973c-3.90852-.42239-8.432-1.03527-9.991,2.57377"/><path class="cls-6" d="M1095.77226,529.0329a4.05845,4.05845,0,0,1-.87145-.4057,15.867,15.867,0,0,1-2.29016-1.53751,23.8785,23.8785,0,0,1-6.04566-8.08576c-.97668-1.89543-2.06727-3.95369-3.13346-6.23223-1.03445-2.28672-2.13633-4.72253-3.29417-7.2819a70.50662,70.50662,0,0,0-4.04795-7.783,61.0438,61.0438,0,0,0-5.57106-7.57647c-4.192-4.92432-8.68982-9.184-12.58917-13.25392a86.53462,86.53462,0,0,1-9.59857-11.51641,42.29843,42.29843,0,0,1-4.69-8.958,27.43769,27.43769,0,0,1-.8181-2.62647,4.05384,4.05384,0,0,1-.19328-.93985c.07956-.02292.42632,1.25047,1.32035,3.44554a46.24449,46.24449,0,0,0,4.878,8.73792,91.23232,91.23232,0,0,0,9.66534,11.31054c3.91572,4.026,8.43941,8.27494,12.67557,13.24949a60.4626,60.4626,0,0,1,5.63309,7.69185,69.13879,69.13879,0,0,1,4.0509,7.89445c1.132,2.56919,2.20915,5.01432,3.22053,7.30972,1.02724,2.26806,2.08935,4.3476,3.02757,6.25268a24.739,24.739,0,0,0,5.72343,8.10786C1094.61245,528.37845,1095.82332,528.95042,1095.77226,529.0329Z"/><path class="cls-6" d="M1064.10953,519.04124a18.35,18.35,0,0,1,.56182-4.12193c.4795-2.5214,1.26585-5.98265,2.32683-9.754,1.06375-3.7722,2.1998-7.13527,3.10693-9.53622a18.36465,18.36465,0,0,1,1.672-3.80885,22.26917,22.26917,0,0,1-1.10187,4.00425c-.75853,2.44318-1.79806,5.81786-2.85673,9.57173-1.05588,3.75338-1.93077,7.17405-2.559,9.65405A22.29463,22.29463,0,0,1,1064.10953,519.04124Z"/><path class="cls-6" d="M1094.612,489.52858a25.26039,25.26039,0,0,1-4.3134-.99158c-2.63824-.68979-6.28148-1.63194-10.33451-2.54627-4.055-.91171-7.75093-1.62229-10.43025-2.13011a25.25645,25.25645,0,0,1-4.32158-.95295,20.8315,20.8315,0,0,1,4.4175.35808c2.71173.35676,6.445.977,10.52155,1.89362,4.07465.91908,7.713,1.95893,10.31569,2.799A20.84875,20.84875,0,0,1,1094.612,489.52858Z"/><path class="cls-6" d="M1041.388,498.10333a24.973,24.973,0,0,1,.6623-4.76983c.53842-2.92267,1.39547-6.94149,2.54022-11.33165,1.14737-4.391,2.364-8.31634,3.32264-11.12937a24.955,24.955,0,0,1,1.75338-4.48458,29.24224,29.24224,0,0,1-1.178,4.66378c-.80958,2.85312-1.93029,6.79077-3.0734,11.16554-1.1405,4.37379-2.08723,8.35628-2.77523,11.24115A29.25352,29.25352,0,0,1,1041.388,498.10333Z"/><path class="cls-6" d="M1080.56466,463.80939c-.02488.234-7.66878-.38459-17.0708-1.3814-9.40561-.99713-17.00762-1.99493-16.98274-2.22911.02487-.23386,7.667.38442,17.07259,1.38155C1072.98589,462.57741,1080.58937,463.57536,1080.56466,463.80939Z"/><path class="cls-7" d="M1074.96462,556.50645c0,.23533-26.87.42615-60.0079.42615-33.14966,0-60.014-.19082-60.014-.42615s26.86429-.42616,60.014-.42616C1048.09464,556.08029,1074.96462,556.27111,1074.96462,556.50645Z"/><path class="cls-7" d="M1056.27056,591.08449c0,.2355-18.10426.42632-40.43175.42632-22.33534,0-40.43567-.19082-40.43567-.42632,0-.23517,18.10033-.426,40.43567-.426C1038.1663,590.6585,1056.27056,590.84932,1056.27056,591.08449Z"/><path class="cls-7" d="M1056.97672,596.02844c0,.23534-18.10442.42616-40.43191.42616-22.33534,0-40.43567-.19082-40.43567-.42616s18.10033-.426,40.43567-.426C1038.8723,595.60246,1056.97672,595.79311,1056.97672,596.02844Z"/><path class="cls-7" d="M1056.97672,587.00954c0,.23533-18.72647.42615-41.82116.42615-23.10287,0-41.82508-.19082-41.82508-.42615s18.72221-.42616,41.82508-.42616C1038.25025,586.58338,1056.97672,586.7742,1056.97672,587.00954Z"/></g></svg>