<svg xmlns="http://www.w3.org/2000/svg" viewBox="0 0 1528 642"><defs><style>.cls-1{fill:#f7f7f7;}.cls-2{fill:#eaeaea;}.cls-3{fill:#455a64;}.cls-4{fill:#37474f;}.cls-5{fill:#ffa648;}.cls-10,.cls-13,.cls-16,.cls-6,.cls-8,.cls-9{fill:#fff;}.cls-15,.cls-6{opacity:0.7;}.cls-7{fill:#ba68c8;}.cls-8{opacity:0.5;}.cls-9{opacity:0.2;}.cls-10{opacity:0.4;}.cls-11{fill:#f5f5f5;}.cls-12{fill:#373660;}.cls-13{opacity:0.47;}.cls-14{opacity:0.78;}.cls-15{fill:#ffc967;}.cls-16{opacity:0.33;}.cls-17{opacity:0.15;}.cls-18{fill:#dbdbdb;}.cls-19{opacity:0.1;}.cls-20{fill:#b16668;}.cls-21{fill:#263238;}.cls-22{fill:#f0f0f0;}.cls-23{fill:#ebebeb;}.cls-24{fill:#c8856a;}.cls-25{fill:#af6152;}.cls-26{fill:#f28f8f;}.cls-27{fill:#ffa8a7;}.cls-28{fill:#fafafa;}.cls-29{fill:#e0e0e0;}</style></defs><title>brothers-in-arms-bayshore-communications</title><g id="BACKGROUND"><rect class="cls-1" width="1528" height="642"/></g><g id="OBJECTS"><path id="City" class="cls-2" d="M1525.62087,291.98784l-48.90654-22.94858V151.84088s-54.07923-24.53933-55.06273-24.53933c-.982,0-55.06163,24.539-55.06163,24.539v46.92573l-55.062-25.8381-55.062,25.8381v44.63138l-55.06381,25.83839v-77.9757l-27.531-12.91846-27.53028,12.91846v51.67649l-27.53064-12.919-55.06381,25.83781V216.50478l-27.531-12.91935-55.0591,25.8384v65.18895l-27.53317-12.91846V255.85563l-55.06273-25.83781L843.49734,255.855V230.00545l-82.59336-38.758-55.06345,25.8384V165.409L650.78,139.57121,595.71726,165.409v71.82364l-27.53064,12.91963V198.4758l-55.06345-25.83869L458.06153,198.4758v77.51489l-82.59372-38.75833V185.557l-55.06309-25.83839-55.05982,25.8378v29.70849l-27.53354-12.92023L182.7519,228.18428v31.54026l-55.062,25.8378V190.969L72.62608,165.13029.94833,198.76631V641.75977H1525.62087Z"/><g id="Street_Light" data-name="Street Light"><path d="M470.97457,371.38077c.889,0,1.60994.8885,1.60994,0l.002-333.46921c0-5.31378,3.88864-12.04795,8.48978-14.70491l24.6359-14.2629c1.96207-1.13368,3.72732-1.36559,4.96193-.65085,1.23671.714,1.9179,2.35515,1.9179,4.62224v29.541a1.60988,1.60988,0,1,0,3.21975,0V12.91514c0-3.46619-1.25349-6.09757-3.52757-7.41116-2.27687-1.31332-5.1779-1.08057-8.182.652L479.46644,20.41871C473.80249,23.68878,469.367,31.3724,469.367,37.91156l-.00223,333.46921C469.36477,372.26927,470.08565,371.38077,470.97457,371.38077Z"/><path class="cls-3" d="M508.8743,35.5764a12.84437,12.84437,0,0,1,11.6216,0c1.60463.92651,2.40688,2.14086,2.40688,3.35506v2.37221c.00028,1.21406-.80225,2.42868-2.4066,3.35506a12.84409,12.84409,0,0,1-11.62188,0c-1.60435-.92638-2.40659-2.14072-2.40659-3.3545V38.93272C506.467,37.718,507.26953,36.50305,508.8743,35.5764Z"/><path class="cls-4" d="M508.8743,37.95294c-3.20912,1.85318-3.20912,4.85723.00014,6.71a12.84357,12.84357,0,0,0,11.6216,0c3.20926-1.85276,3.20912-4.85681-.00014-6.71A12.84524,12.84524,0,0,0,508.8743,37.95294Z"/><path class="cls-5" d="M506.68116,60.75622H522.689v-18.65a3.97638,3.97638,0,0,0-2.34411-3.2677,12.51151,12.51151,0,0,0-11.31979,0c-1.5627.90233-2.3444,2.08508-2.344,3.26784h0Z"/><path class="cls-6" d="M506.68116,60.75622H522.689v-18.65a3.97638,3.97638,0,0,0-2.34411-3.2677,12.51151,12.51151,0,0,0-11.31979,0c-1.5627.90233-2.3444,2.08508-2.344,3.26784h0Z"/><path class="cls-7" d="M520.34521,64.02363c3.12567-1.80453,3.12553-4.73044-.00028-6.53525a12.50992,12.50992,0,0,0-11.31965.00014c-3.12567,1.80467-3.12567,4.73058.00014,6.53511A12.50891,12.50891,0,0,0,520.34521,64.02363Z"/><path class="cls-8" d="M520.34521,64.02363c3.12567-1.80453,3.12553-4.73044-.00028-6.53525a12.50992,12.50992,0,0,0-11.31965.00014c-3.12567,1.80467-3.12567,4.73058.00014,6.53511A12.50891,12.50891,0,0,0,520.34521,64.02363Z"/><path class="cls-9" d="M509.87645,44.79852a4.80859,4.80859,0,1,1,4.8083,4.80845A4.80832,4.80832,0,0,1,509.87645,44.79852Z"/><path class="cls-9" d="M506.68116,50.53348a9.834,9.834,0,0,0,16.00788-.00042V42.1062a3.97638,3.97638,0,0,0-2.34411-3.2677,12.51151,12.51151,0,0,0-11.31979,0,3.97723,3.97723,0,0,0-2.34412,3.26784Z"/><path class="cls-10" d="M512.45079,44.79852a2.234,2.234,0,1,1,2.234,2.23424A2.23415,2.23415,0,0,1,512.45079,44.79852Z"/><path class="cls-3" d="M508.8743,56.69969a12.8453,12.8453,0,0,1,11.6216,0c1.60463.92652,2.40688,2.14059,2.40688,3.35493v2.37207c.00028,1.21448-.80225,2.42882-2.4066,3.35534a12.84409,12.84409,0,0,1-11.62188,0c-1.60435-.92652-2.40659-2.14086-2.40659-3.35506V60.0556C506.467,58.84111,507.26953,57.62649,508.8743,56.69969Z"/><path class="cls-4" d="M508.8743,59.07232c-3.20912,1.85276-3.20912,4.85682.00014,6.70971a12.8435,12.8435,0,0,0,11.6216,0c3.20926-1.85289,3.20912-4.857-.00014-6.70971A12.84357,12.84357,0,0,0,508.8743,59.07232Z"/></g><g id="Street_Light-2" data-name="Street Light"><path d="M1055.59463,371.38077c-.889,0-1.61008.8885-1.61008,0l-.00182-333.46921c0-5.31378-3.88864-12.04795-8.48992-14.70491l-24.63576-14.2629c-1.96207-1.13368-3.72746-1.36559-4.96207-.65085-1.23671.714-1.9179,2.35515-1.9179,4.62224v29.541a1.60988,1.60988,0,1,1-3.21975,0V12.91514c0-3.46619,1.25363-6.09757,3.5277-7.41116,2.27674-1.31332,5.17777-1.08057,8.182.652l24.63563,14.26276c5.66409,3.27007,10.09958,10.95369,10.09958,17.49285l.00223,333.46921C1057.20443,372.26927,1056.48354,371.38077,1055.59463,371.38077Z"/><path class="cls-3" d="M1017.69476,35.5764a12.84437,12.84437,0,0,0-11.6216,0c-1.60449.92651-2.40688,2.14086-2.40688,3.35506v2.37221c-.00028,1.21406.80239,2.42868,2.40674,3.35506a12.8438,12.8438,0,0,0,11.62174,0c1.60449-.92638,2.40673-2.14072,2.40673-3.3545V38.93272C1020.10191,37.718,1019.29953,36.50305,1017.69476,35.5764Z"/><path class="cls-4" d="M1017.69476,37.95294c3.20926,1.85318,3.20926,4.85723,0,6.71a12.84386,12.84386,0,0,1-11.62174,0c-3.20912-1.85276-3.209-4.85681.00014-6.71A12.84524,12.84524,0,0,1,1017.69476,37.95294Z"/><path class="cls-5" d="M1019.888,60.75622H1003.88v-18.65a3.97666,3.97666,0,0,1,2.34411-3.2677,12.5118,12.5118,0,0,1,11.31993,0c1.5627.90233,2.3444,2.08508,2.344,3.26784h0Z"/><path class="cls-6" d="M1019.888,60.75622H1003.88v-18.65a3.97666,3.97666,0,0,1,2.34411-3.2677,12.5118,12.5118,0,0,1,11.31993,0c1.5627.90233,2.3444,2.08508,2.344,3.26784h0Z"/><path class="cls-7" d="M1006.224,64.02363c-3.12581-1.80453-3.12567-4.73044.00014-6.53525a12.51021,12.51021,0,0,1,11.31979.00014c3.12553,1.80467,3.12553,4.73058-.00028,6.53511A12.50862,12.50862,0,0,1,1006.224,64.02363Z"/><path class="cls-8" d="M1006.224,64.02363c-3.12581-1.80453-3.12567-4.73044.00014-6.53525a12.51021,12.51021,0,0,1,11.31979.00014c3.12553,1.80467,3.12553,4.73058-.00028,6.53511A12.50862,12.50862,0,0,1,1006.224,64.02363Z"/><path class="cls-9" d="M1016.69275,44.79852a4.80859,4.80859,0,1,0-4.80844,4.80845A4.80844,4.80844,0,0,0,1016.69275,44.79852Z"/><path class="cls-9" d="M1019.888,50.53348a9.83411,9.83411,0,0,1-16.008-.00042V42.1062a3.97666,3.97666,0,0,1,2.34411-3.2677,12.5118,12.5118,0,0,1,11.31993,0,3.97723,3.97723,0,0,1,2.34412,3.26784Z"/><path class="cls-10" d="M1014.11841,44.79852a2.234,2.234,0,1,0-2.2341,2.23424A2.23427,2.23427,0,0,0,1014.11841,44.79852Z"/><path class="cls-3" d="M1017.69476,56.69969a12.8453,12.8453,0,0,0-11.6216,0c-1.60449.92652-2.40688,2.14059-2.40688,3.35493v2.37207c-.00028,1.21448.80239,2.42882,2.40674,3.35534a12.8438,12.8438,0,0,0,11.62174,0c1.60449-.92652,2.40673-2.14086,2.40673-3.35506V60.0556C1020.10191,58.84111,1019.29953,57.62649,1017.69476,56.69969Z"/><path class="cls-4" d="M1017.69476,59.07232c3.20926,1.85276,3.20926,4.85682,0,6.70971a12.8438,12.8438,0,0,1-11.62174,0c-3.20912-1.85289-3.209-4.857.00014-6.70971A12.84357,12.84357,0,0,1,1017.69476,59.07232Z"/></g><path id="Cloud" class="cls-11" d="M963.79036,94.81512c.01328-4.61218,5.05782-7.81767,10.78188-8.35725,6.74466-.63576,11.52934,2.37067,11.69,7.68221,4.4106-1.81082,9.06067-.649,8.71189,4.20009,1.14683-1.32254,5.44-1.28578,6.98034-.91645a6.04093,6.04093,0,0,1,3.84195,3.274,4.45992,4.45992,0,0,1,.39937,2.48181c2.57183-.84237,8.41919-1.35791,9.88165,1.00088,2.603,4.19883-7.79684,4.33023-9.89451,3.06123-.444,3.26686-11.621,3.80295-14.32692.78855-2.11444,2.12953-5.15037,2.5995-8.42785,2.79451-5.52947.32892-8.92088-1.54411-13.23447-3.74731-4.6899,3.97628-12.80435,4.049-17.03-.49961-1.07847,1.01725-4.04772,1.33247-6.42734.76409-1.56185-.373-1.92321-1.03849-1.92321-1.03849a13.61123,13.61123,0,0,1-2.86874.86208c-3.06584.64218-8.77047-.03565-6.377-2.79731.81469-.93994,3.79931-1.536,5.06412-1.24538,1.33764-2.63138,6.70607-5.12367,9.78617-2.89907.119-3.1869,3.03285-5.67975,7.133-6.313C958.92432,93.69849,962.22221,93.51369,963.79036,94.81512Z"/><path id="Cloud-2" data-name="Cloud" class="cls-2" d="M133.71273,81.16517c.01342-4.61218,5.058-7.81767,10.782-8.35725,6.74465-.63576,11.52919,2.37081,11.68981,7.68236,4.41075-1.81083,9.06067-.64918,8.7119,4.19994,1.147-1.3224,5.44015-1.28563,6.98034-.91645a6.041,6.041,0,0,1,3.84194,3.274,4.45918,4.45918,0,0,1,.39952,2.482c2.57183-.84251,8.419-1.35791,9.88151,1.00088,2.60314,4.19883-7.79684,4.33009-9.89451,3.06137-.44383,3.26658-11.6209,3.80281-14.32678.78841-2.11458,2.1294-5.15037,2.59937-8.428,2.79437-5.52947.32892-8.92074-1.544-13.23434-3.74717-4.69,3.97628-12.80448,4.049-17.03-.49974-1.07861,1.01738-4.04785,1.33246-6.42747.76422-1.56186-.373-1.92307-1.03863-1.92307-1.03863a13.61174,13.61174,0,0,1-2.86888.86208c-3.066.64232-8.77033-.03565-6.377-2.79731.81468-.93994,3.79945-1.536,5.06425-1.24538,1.33764-2.63137,6.70608-5.12352,9.786-2.89907.119-3.1869,3.033-5.67975,7.13312-6.31285C128.84684,80.04868,132.14473,79.86388,133.71273,81.16517Z"/><path id="Cloud-3" data-name="Cloud" class="cls-2" d="M282.28577,101.1778c.01341-4.61219,5.058-7.81768,10.782-8.35726,6.74466-.63576,11.5292,2.37081,11.68981,7.68236,4.41075-1.81082,9.06067-.64918,8.7119,4.19994,1.147-1.3224,5.44015-1.28563,6.98034-.91645a6.041,6.041,0,0,1,3.84195,3.274,4.45926,4.45926,0,0,1,.39951,2.48195c2.57183-.84251,8.419-1.35791,9.88151,1.00088,2.60314,4.19883-7.79684,4.33009-9.89451,3.06137-.44383,3.26658-11.6209,3.80281-14.32678.78841-2.11458,2.1294-5.15037,2.59937-8.428,2.79437-5.52947.32892-8.92074-1.544-13.23433-3.74717-4.69005,3.97628-12.80449,4.049-17.03-.49974-1.0786,1.01738-4.04785,1.33246-6.42747.76422-1.56186-.373-1.92307-1.03863-1.92307-1.03863a13.61174,13.61174,0,0,1-2.86888.86208c-3.066.64233-8.77033-.03565-6.377-2.79731.81469-.93994,3.79945-1.536,5.06426-1.24537,1.33763-2.63138,6.70607-5.12353,9.786-2.89908.119-3.1869,3.033-5.67974,7.13313-6.31285C277.41987,100.0613,280.71776,99.8765,282.28577,101.1778Z"/><path id="Cloud-4" data-name="Cloud" class="cls-2" d="M381.492,32.76056c.01342-4.61218,5.058-7.81767,10.782-8.35726,6.74466-.63575,11.5292,2.37082,11.68981,7.68236,4.41075-1.81082,9.06067-.64918,8.7119,4.2,1.147-1.3224,5.44015-1.28564,6.98034-.91646a6.041,6.041,0,0,1,3.84195,3.274,4.45922,4.45922,0,0,1,.39951,2.48194c2.57183-.8425,8.419-1.3579,9.88151,1.00089,2.60314,4.19883-7.79684,4.33009-9.89451,3.06137-.44383,3.26657-11.62089,3.8028-14.32678.7884-2.11458,2.1294-5.15037,2.59937-8.428,2.79438-5.52947.32892-8.92074-1.544-13.23433-3.74717-4.69005,3.97628-12.80449,4.049-17.03-.49975-1.07861,1.01738-4.04786,1.33247-6.42748.76423-1.56186-.373-1.92307-1.03863-1.92307-1.03863a13.61215,13.61215,0,0,1-2.86888.86207c-3.066.64233-8.77033-.03564-6.377-2.79731.81469-.93993,3.79945-1.536,5.06426-1.24537,1.33763-2.63138,6.70607-5.12353,9.786-2.89907.119-3.1869,3.033-5.67975,7.13313-6.31285C376.62608,31.64407,379.924,31.45927,381.492,32.76056Z"/><path id="Cloud-5" data-name="Cloud" class="cls-2" d="M1129.27458,119.634c.01342-4.61218,5.058-7.81767,10.782-8.35725,6.74466-.63576,11.5292,2.37081,11.68981,7.68235,4.41075-1.81082,9.06067-.64918,8.7119,4.2,1.147-1.3224,5.44015-1.28564,6.98034-.91646a6.041,6.041,0,0,1,3.84195,3.274,4.45923,4.45923,0,0,1,.39951,2.48194c2.57183-.8425,8.419-1.3579,9.88151,1.00089,2.60314,4.19883-7.79684,4.33009-9.89451,3.06137-.44383,3.26658-11.6209,3.8028-14.32678.78841-2.11458,2.12939-5.15037,2.59936-8.428,2.79437-5.52947.32892-8.92074-1.544-13.23433-3.74717-4.69005,3.97628-12.80449,4.049-17.03-.49975-1.0786,1.01738-4.04785,1.33247-6.42747.76423-1.56186-.373-1.92307-1.03863-1.92307-1.03863a13.61233,13.61233,0,0,1-2.86888.86207c-3.066.64233-8.77033-.03564-6.377-2.7973.81469-.93994,3.79945-1.536,5.06426-1.24538,1.33763-2.63138,6.70607-5.12353,9.786-2.89907.119-3.1869,3.033-5.67975,7.13313-6.31285C1124.40869,118.51746,1127.70658,118.33266,1129.27458,119.634Z"/><path id="Cloud-6" data-name="Cloud" class="cls-2" d="M1442.70937,37.50512c.01342-4.61218,5.058-7.81767,10.782-8.35725,6.74466-.63576,11.5292,2.37081,11.68982,7.68235,4.41074-1.81082,9.06067-.64918,8.71189,4.2,1.147-1.3224,5.44015-1.28564,6.98034-.91646a6.041,6.041,0,0,1,3.84195,3.274,4.45922,4.45922,0,0,1,.39951,2.48194c2.57183-.8425,8.419-1.3579,9.88151,1.00089,2.60314,4.19883-7.79684,4.33009-9.89451,3.06137-.44382,3.26658-11.62089,3.8028-14.32678.7884-2.11458,2.1294-5.15037,2.59937-8.428,2.79438-5.52947.32892-8.92074-1.544-13.23433-3.74717-4.69005,3.97628-12.80449,4.049-17.03-.49975-1.07861,1.01738-4.04786,1.33247-6.42748.76423-1.56186-.373-1.92307-1.03863-1.92307-1.03863a13.612,13.612,0,0,1-2.86888.86207c-3.066.64233-8.77033-.03564-6.377-2.7973.81469-.93994,3.79945-1.536,5.06426-1.24538,1.33763-2.63138,6.70607-5.12353,9.786-2.89907.119-3.1869,3.033-5.67975,7.13313-6.31285C1437.84347,36.38863,1441.14136,36.20383,1442.70937,37.50512Z"/><path class="cls-12" d="M475.50483,507.21364c.06142.15017.30155.06831.28434-.09306-.71971-6.75033-7.69481-65.41925-34.84539-87.86863-27.39012-22.64738-113.56561-37.52661-127.2362-86.26821a1.1582,1.1582,0,0,0-2.2713.24082c-1.3752,22.55155-.6807,85.48512,46.49512,110.63315C415.796,474.70365,433.682,404.99183,475.50483,507.21364Z"/><path class="cls-13" d="M325.04342,363.465a37.63669,37.63669,0,0,0,1.90874,10.81278,54.05775,54.05775,0,0,0,1.989,5.12851,51.247,51.247,0,0,0,2.6,4.86378,48.972,48.972,0,0,0,6.73344,8.75262,56.0589,56.0589,0,0,0,8.39849,7.17912,62.65269,62.65269,0,0,0,9.53415,5.51191c1.64594.813,3.3446,1.49087,5.03452,2.19337.85113.333,1.71387.63079,2.57071.94743l1.28756.46788,1.29907.40655a125.19723,125.19723,0,0,0,21.17549,4.6754c7.11281,1.0087,14.19658,1.50329,20.93868,2.921a54.72352,54.72352,0,0,1,9.78828,2.953,47.53061,47.53061,0,0,1,8.92377,4.91772,62.78127,62.78127,0,0,1,7.91466,6.63047l1.83589,1.84883c.60262.62663,1.17372,1.28691,1.76815,1.92467,1.20235,1.26285,2.29241,2.63613,3.42945,3.96723a183.73556,183.73556,0,0,1,12.27259,17.20587l.00946.01449a.9914.9914,0,0,0,1.69682-1.02424l-2.63583-4.66381c-.89973-1.54424-1.85039-3.06-2.77722-4.59131-.95972-1.51152-1.9525-3.005-2.93217-4.50806-1.04728-1.45885-2.059-2.94439-3.14234-4.38268a77.02855,77.02855,0,0,0-15.122-15.638,51.33315,51.33315,0,0,0-9.56828-5.58529,55.86825,55.86825,0,0,0-10.5064-3.43066c-3.57142-.80749-7.1521-1.346-10.69345-1.83019-3.54375-.47663-7.051-.92545-10.527-1.42748a120.3727,120.3727,0,0,1-20.37694-4.57319,74.82322,74.82322,0,0,1-18.652-8.66623,53.93176,53.93176,0,0,1-14.66057-14.15011,47.61389,47.61389,0,0,1-6.68292-13.89175,33.68493,33.68493,0,0,1-1.10181-5.01674l-.00735-.06012a.86455.86455,0,0,0-1.72265.1172Z"/><g class="cls-14"><path class="cls-15" d="M395.47017,337.256c8.52552-22.73307,6.34339-40.87084,3.94143-50.43668a2.0306,2.0306,0,0,1,3.37289-1.96829c55.94289,53.90448,58.96131,104.12536,64.04473,140.58932,4.1185,29.54324,43.61325,70.95788,68.81534,96.42115l-2.16043.47608,1.06936,4.85277c-19.61638-20.4014-48.1841-45.4428-96.81368-63.57232C362.8165,435.68592,382.68182,371.35564,395.47017,337.256Z"/><path class="cls-16" d="M416.394,313.98737c.52441,3.8908.80936,7.79145.97415,11.70387.18921,3.91148.19511,7.82879.13273,11.74609l-.07722,2.93767-.13645,2.93587c-.07843,1.95854-.21678,3.91413-.36793,5.86908q-.47881,5.8621-1.26547,11.69962c-.27064,1.94358-.6092,3.878-.91077,5.81763-.32185,1.93662-.7179,3.861-1.07376,5.79248-.76682,3.8103-1.46647,7.55845-1.869,11.37047a66.8741,66.8741,0,0,0,1.124,22.6697,57.17747,57.17747,0,0,0,3.6567,10.75587,71.02517,71.02517,0,0,0,5.61712,9.935,94.77281,94.77281,0,0,0,15.27284,17.1839c1.43119,1.29354,2.91873,2.528,4.38846,3.78162,1.52078,1.19341,3.00436,2.43559,4.55736,3.59108,3.09109,2.329,6.219,4.6217,9.44508,6.77854,6.43285,4.34391,13.12362,8.31671,19.90539,12.13942a.35972.35972,0,0,1-.33416.63686q-10.50257-5.1685-20.49815-11.3465a149.95964,149.95964,0,0,1-19.0329-13.79521,97.383,97.383,0,0,1-16.10142-17.31333,69.26326,69.26326,0,0,1-6.01766-10.30289,60.33929,60.33929,0,0,1-3.988-11.29281,68.70058,68.70058,0,0,1-1.32353-23.77718c.40453-3.94037,1.10549-7.86591,1.8846-11.69084.36539-1.89694.77164-3.78634,1.10435-5.68991.31253-1.90716.66239-3.80875.945-5.72123.26082-1.91575.59334-3.82215.832-5.742.22684-1.92092.51209-3.83622.69161-5.76353.18953-1.926.43673-3.848.58605-5.779l.25672-2.89466.20237-2.89939c.16673-1.93214.24632-3.86877.36854-5.80526.07072-1.93732.18311-3.87589.23334-5.81618.10372-3.87756.18766-7.77189.10159-11.64963l-.00016-.00915a.35993.35993,0,0,1,.71654-.05614Z"/></g><g id="Shrubbery"><path class="cls-12" d="M1081.52623,456.185c10.92266,10.92251,3.18984,20.86231-9.06961,20.12129,4.89721,13.00075-3.96329,23.06944-8.23229,24.66428H460.99773l-.00993-.06444c-20.89488-8.84428-21.3457-36.8112-8.5222-41.33811-8.94311-1.87652-11.3595-21.603.85382-18.80029a2.29826,2.29826,0,0,1-.24183-.17726c.11281.06445.24183.14511.35478.22562a12.169,12.169,0,0,1-2.304-2.46489c-1.99185-2.43581-3.0801-6.36946-.51526-8.81212-6.44747,1.04575-13.93789-4.54187-10.77783-11.34132-7.87639-3.82769-6.18369-17.70547,1.48217-20.943-8.19006-6.65478-4.745-20.72686,5.01016-23.79438a9.61487,9.61487,0,0,1-2.2875-5.81562c-.87088-14.518,11.26178-20.961,14.45106-21.34473a15.70765,15.70765,0,0,1,3.4469-14.3388h.01608a14.6362,14.6362,0,0,1,1.8206-1.62714c3.47878-2.73915,8.03351-4.36252,12.37226-3.47975-.48534-14.03589,13.59863-23.40745,25.75981-16.126,2.63347-13.6059,30.78016-11.22628,32.20377.22548,9.52421-4.769,16.42221,1.21112,15.57859,11.63138,3.46018-6.327,12.7297-5.06706,14.692,1.78817-1.26117-7.5441,6.92694-14.42491,13.67732-10.13313-2.34747-8.904,7.915-17.39625,15.49793-11.22865.23247-6.30949,6.49961-9.879,12.24338-7.765,2.48893-7.01948,12.11169-7.98569,15.6749-1.36937,7.21323-13.88966,26.526-3.68119,22.50567,9.85929,4.94921-3.9802,14.46056-4.91553,15.77149,2.96435.4792-7.706,8.19385-8.38158,12.67868-3.36708-1.197-9.71461,5.98155-14.551,12.41937-11.99092,0-7.59094,11.59336-9.10918,14.277-1.57262-1.269-3.56349,5.94157-6.70831,9.11854-2.35138,3.79372-3.805,12.11617.10092,11.26024,6.86207,1.83221-8.92158,13.54285-8.09669,16.545-.25763.06528-3.88654,7.42332-6.76911,7.41074-2.73873.05676-18.26085,26.19553-26.00052,35.375-2.15973,2.8672-8.12465,13.47309-9.48437,15.03076.62834,1.53907-5.0054,7.9836-3.98019,9.92386.25777,4.94949-14.93905,20.57141-14.20488,21.44216-2.25548,1.5181-5.12479,8.19272-3.83272,8.95708.90219,5.31616-9.75919,15.224-3.7515,12.002,5.89628,2.09431-2.27156,5.23578-3.33479,8.29673-1.43381.24155-14.03183,17.91417-10.101,20.26612-.93435,2.481-2.60985,7.1369-1.86883,8.941,1.12768,1.20833-5.60622,9.15027-3.7536,11.72811-.37058-8.74321-10.78594,6.10806-27.67868,14.88552-15.11114-.85383-10.66474,13.14557-5.44518,16.70584,3.657,7.63651-7.86171,21.99027,3.657,14.90173,13.54844,7.49127-.51554,13.17828,12.63017,5.07474,16.22273a5.16442,5.16442,0,0,1,3.94693,6.71782c2.19119-4.01137,5.78375-7.07218,10.03654-4.15633-4.83291-4.55906.40273-11.35754,6.50841-10.51979-3.43125-17.41485,22.18345-25.29263,29.65878-11.90522,4.2205-11.37361,23.7133-2.81926,19.541,7.89385,2.79437-1.14668,6.116-.29132,8.6831,1.22427a14.94777,14.94777,0,0,1,2.88383,2.25549v.01607a15.24433,15.24433,0,0,1,1.67537,2.062.01584.01584,0,0,1,.01607.01622,10.10436,10.10436,0,0,1,.41895,11.01911c8.85.20157,11.69806,13.27641,5.05839,18.7037,5.10717,1.36936,6.76646,11.53464.80546,16.60925,3.44788.01621,8.8282,7.24957,8.66744,11.14813,3.38876-7.4292,16.18471-6.14818,16.432,3.57635,8.73874-3.73907,16.30773,4.25194,13.38754,12.77527,9.10876,1.80047,10.68152,12.96873,7.74876,20.49187,12.47123,1.77629,13.75672,20.591,6.08933,29.06231C1095.25206,433.14772,1095.26814,455.70161,1081.52623,456.185Z"/><g class="cls-17"><path d="M1004.82066,321.80311a8.87464,8.87464,0,0,0-13.27208-.86026,9.81563,9.81563,0,0,0-1.73492,2.27827,8.84482,8.84482,0,0,0-7.21882-2.28666,9.76039,9.76039,0,0,0-8.00121,8.16114,10.714,10.714,0,0,1,18.59844,2.4182,9.02685,9.02685,0,0,0-.057-1.75127,10.80145,10.80145,0,0,0-1.269-3.95126,9.835,9.835,0,0,1,.97362-1.10951,10.44514,10.44514,0,0,1,12.93086-1.48441A8.3032,8.3032,0,0,0,1004.82066,321.80311Z"/><path d="M884.76653,314.50545a6.84557,6.84557,0,0,1,10.23713-.66357,7.58056,7.58056,0,0,1,1.33791,1.75728,6.82219,6.82219,0,0,1,5.56792-1.76371,7.52838,7.52838,0,0,1,6.1711,6.29467,8.26347,8.26347,0,0,0-14.34481,1.86492,6.97991,6.97991,0,0,1,.044-1.35078,8.332,8.332,0,0,1,.9788-3.04739,7.61051,7.61051,0,0,0-.75109-.85578,8.056,8.056,0,0,0-9.97334-1.14487A6.42024,6.42024,0,0,1,884.76653,314.50545Z"/><path d="M1054.13929,450.047a6.5834,6.5834,0,0,1-.7891.03229A2.72244,2.72244,0,0,1,1054.13929,450.047Z"/><path d="M1081.52623,456.185c10.92266,10.92251,3.18984,20.86231-9.06961,20.12129,4.89721,13.00075-3.96329,23.06944-8.23229,24.66428H1049.806c3.963-3.72144,9.05354-6.79833,7.42654-13.5968-1.32086-5.50963,1.11132-11.66353-2.72266-14.41835,1.33736-1.64321,2.9322-2.9965,4.36588-4.52691.99892-1.06323,1.91691-2.07823,1.91691-3.657.01608-3.70524-1.11145-7.10447-4.22049-9.02153-2.72266-1.67537-.3545-5.41289-2.43288-5.70295a8.358,8.358,0,0,0,5.94465-2.69037c1.67536-1.96529,2.15889-5.26793.61227-7.36224,4.84912,1.44988,10.48763,2.20712,14.48293-1.09539,3.75332-3.12539,4.73617-9.29551,2.73859-13.95131a14.46075,14.46075,0,0,0-11.19636-8.34481c4.75239-.98271,7.7324-7.53949,5.57407-12.25973a11.12743,11.12743,0,0,0-4.7686-4.89735c-4.73618-2.65822-11.14842-2.27156-14.72462,2.01365a13.10014,13.10014,0,0,0-5.63851-12.85565,10.91161,10.91161,0,0,0-13.017,1.44989,11.37536,11.37536,0,0,0-.25763-9.68217,10.02033,10.02033,0,0,0-4.092-4.17241c-.61185-.33828-1.91692-.46717-1.86855-1.41773a2.22533,2.22533,0,0,1,.24142-.64443,16.84962,16.84962,0,0,0,1.06365-2.31979,9.11005,9.11005,0,0,0-.4511-6.79833c-2.77089-5.28414-7.78133-4.89749-10.842-3.47975,3.834-5.719-2.28791-15.41728-8.31252-10.34267,3.04459-3.73739,4.881-5.60622,8.28023-6.29887,2.52934-.53162,5.97666-.19333,7.6523,1.40152,2.72238-3.9953,1.83641-13.80621-4.946-14.74056,4.96207-6.36345,1.9014-13.64517-4.75239-16.09385,2.80318-1.49825,7.03989-2.12646,8.58679-5.70295,1.73966-3.97908-.435-7.84549-2.83533-10.76148.16089.03229.32221.08066.483.12889.1451.03229.32249.08066.48338.12888a12.09566,12.09566,0,0,1,1.96529.82168q.41141.19332.82168.43488c.01621,0,.03229.01622.04836.03229a10.71058,10.71058,0,0,1,.9022.58c.129.08051.24155.17711.3545.25777.20955.161.41881.32221.61228.49932.20926.16118.40273.3545.59591.53162a1.84173,1.84173,0,0,1,.1774.17725c.06444.06444.12846.12888.19318.19332a5.78483,5.78483,0,0,1,.41881.46718,11.9021,11.9021,0,0,1,1.25656,1.59484.01584.01584,0,0,1,.01607.01622,3.60692,3.60692,0,0,1,.25763.41881,3.228,3.228,0,0,1,.27427.46717,14.12458,14.12458,0,0,1,.82154,1.901,1.18788,1.18788,0,0,1,.06416.22548.31182.31182,0,0,1,.04837.16118,2.87881,2.87881,0,0,1,.09673.35436,528.28732,528.28732,0,0,0,.129.58,9.96134,9.96134,0,0,1-1.27277,6.91115,7.56722,7.56722,0,0,1,5.76753,2.57756c.20927.22562.40273.45109.59592.69279,3.222,4.23685,3.41545,11.53465-1.30506,15.43335,5.10717,1.36936,6.76646,11.53464.80546,16.60925,3.44788.01621,8.8282,7.24957,8.66744,11.14813a6.40631,6.40631,0,0,1,.58013-1.09552,6.96293,6.96293,0,0,1,.74087-.9665,5.12558,5.12558,0,0,1,.41853-.41895,7.04551,7.04551,0,0,1,1.434-1.06323c.35437-.19333.70887-.37044,1.07945-.53162h.01607a9.452,9.452,0,0,1,1.144-.37057c4.80062-1.24035,10.79363,1.25669,11.019,8.02274,4.59149-1.93314,9.18257-.67658,11.79256,2.497a10.32676,10.32676,0,0,1,2.01379,8.44168,14.00043,14.00043,0,0,1-.435,1.85262,11.13235,11.13235,0,0,1,4.63944,2.14268,4.82526,4.82526,0,0,1,.53175.4511,11.91928,11.91928,0,0,1,1.22441,1.33707,15.46032,15.46032,0,0,1,2.69023,10.101c-.03229.61213-.09673,1.22427-.177,1.8364q-.14531.96665-.33829,1.88491c-.14524.62835-.30642,1.24048-.49946,1.83654-.09674.30614-.19347.59606-.30614.88612a10.63562,10.63562,0,0,1,3.093.78939,8.56,8.56,0,0,1,1.07945.56376,6.96621,6.96621,0,0,1,1.015.67658,8.65387,8.65387,0,0,1,.93407.78938l.43516.435c5.75132,6.0896,5.78347,18.97754-.46731,25.80817C1095.25206,433.14772,1095.26814,455.70161,1081.52623,456.185Z"/><path d="M472.12153,488.37256c-7.60337,1.72387-1.92432-19.69858,3.26281-23.06552-16.25531-2.73287-9.79177-16.04409-6.08206-19.54523-10.55193-2.11486-12.44775-14.55841-1.7816-21.15461-2.28764-.741-5.6044-4.20092-3.28643-10.37315,2.71483-7.22888,13.4935-8.006,16.40963-8.27981-2.31993-.54783-9.14972-8.81967-2.65808-15.6106a19.15554,19.15554,0,0,1-5.30036,2.77089,8.69055,8.69055,0,0,1-6.71767-.49932c-1.27264-.72495-6.0994-5.371-1.40166-10.37483-11.95346.306-3.44775-16.22273,5.91221-15.65882-4.33344-2.72266-7.797-5.96072-6.20172-11.79256a13.38556,13.38556,0,0,1,9.762-9.00545c-7.43591-4.20079-11.799-9.94568-8.35264-16.75226a18.8951,18.8951,0,0,0-1.91119,1.30283,14.6362,14.6362,0,0,0-1.8206,1.62714h-.01608a15.70772,15.70772,0,0,0-3.447,14.3388c-3.189.38372-15.32166,6.82671-14.45092,21.34473a9.61572,9.61572,0,0,0,2.2875,5.81562c-9.755,3.06752-13.20022,17.1396-5.01016,23.79438-7.66586,3.2375-9.35814,17.11528-1.48217,20.943-3.15978,6.79945,4.33036,12.38707,10.77783,11.34132-2.56484,2.44252-1.47645,6.37631.51526,8.81212a12.18076,12.18076,0,0,0,2.304,2.46489c-.113-.08051-.242-.16117-.35478-.22562a2.29826,2.29826,0,0,0,.24183.17726c-12.21346-2.80276-9.79693,16.92377-.85382,18.80029-12.8235,4.52691-12.37268,32.49383,8.5222,41.33811l.01021.06444h22.465C477.53512,499.15011,472.36379,495.00985,472.12153,488.37256Z"/><path d="M497.71862,500.96428h.12609l.00294-.0478C497.80585,500.93353,497.76056,500.94751,497.71862,500.96428Z"/><path d="M561.69576,338.14466a8.93514,8.93514,0,0,0-13.05792-2.72657,9.49334,9.49334,0,0,0-1.99129,2.01421,9.03551,9.03551,0,0,0-6.886-3.28643,9.48328,9.48328,0,0,0-8.90453,6.963,10.73629,10.73629,0,0,1,7.57934-3.21835,11.27766,11.27766,0,0,1,10.57486,8.24137,9.01407,9.01407,0,0,0,.15153-1.74442,10.97685,10.97685,0,0,0-.78827-4.09734,9.5191,9.5191,0,0,1,1.09748-.96259,10.421,10.421,0,0,1,12.99837.35339A8.5346,8.5346,0,0,0,561.69576,338.14466Z"/><path d="M610.67835,314.15332c1.5968-4.1896,6.01216-6.17683,9.85816-4.4373a7.24927,7.24927,0,0,1,1.86338,1.23293,7.56944,7.56944,0,0,1,4.92475-3.79288,7.30954,7.30954,0,0,1,8.029,3.90737,8.38318,8.38318,0,0,0-6.43307-1.19729,9.4649,9.4649,0,0,0-7.09007,8.33517,7.11113,7.11113,0,0,1-.37785-1.34449,8.89641,8.89641,0,0,1,.01314-3.35841,7.29081,7.29081,0,0,0-1.00494-.56363,8.46162,8.46162,0,0,0-10.1629,2.5619A7.09141,7.09141,0,0,1,610.67835,314.15332Z"/><path d="M482.41682,363.57974a5.44791,5.44791,0,0,1,8.1547-.428,6.03833,6.03833,0,0,1,1.05093,1.41186,5.42277,5.42277,0,0,1,4.44695-1.34952,6.00884,6.00884,0,0,1,4.861,5.07139,6.57745,6.57745,0,0,0-11.43511,1.34434,5.53773,5.53773,0,0,1,.04627-1.07469,6.62016,6.62016,0,0,1,.80434-2.4168,6.09184,6.09184,0,0,0-.59089-.68832,6.41722,6.41722,0,0,0-7.93034-1.009A5.09182,5.09182,0,0,1,482.41682,363.57974Z"/></g></g><g id="Field"><ellipse id="Floor" class="cls-18" cx="762.60848" cy="477.33954" rx="303.85824" ry="164.6604"/></g><ellipse id="Shadow" class="cls-19" cx="648.34296" cy="532.13132" rx="108.20846" ry="62.47417"/><ellipse id="Shadow-2" data-name="Shadow" class="cls-19" cx="880.87286" cy="523.09077" rx="103.51151" ry="59.76245"/><g id="Characters"><g id="Character"><g id="Bottom"><path class="cls-20" d="M599.4838,252.56685c-3.94105,11.98519-5.08914,28.6147-6.71236,55.88576-1.58967,26.70533-2.1554,50.57659-4.09664,80.3644-2.82694,7.10154-6.48367,14.53479-8.955,47.19469-1.25307,16.56047-1.55557,37.02536-3.306,54.49682l-1.2971,10.58689c2.24738,12.39951,20.37991,13.53,22.81726,6.20549a95.72258,95.72258,0,0,0,3.95462-12.43824c6.02614-23.53745,15.58432-55.79155,21.33354-73.27979,4.46344-13.57751,16.69815-62.39836,24.85565-90.44273l11.40646,56.03156s-3.82867,6.81651,3.37994,44.194c3.38163,17.53451,5.82555,22.56969,8.94507,46.86172.34011,2.64885,2.44756,4.1738,2.51172,6.8439.01873.77191,2.03169,3.29593,9.39407,4.38712,7.36335,1.091,15.05661-3.96538,15.00279-5.04622-1.36657-27.50744.62053-72.10346.77415-90.59371.378-45.48256-.03131-116.761-1.86519-145.75228Z"/><path class="cls-21" d="M739.75023,517.95753c.46284-.013,1.31108,5.07474-1.14207,7.319-2.83156,2.59056-11.23858,6.95322-22.54747,5.82219-11.30916-1.13061-14.51913-3.29426-19.1376-6.93826-4.61819-3.64415-8.87265-7.48176-14.00191-8.45819-4.76386-.90736-12.0281-2.59629-13.58563-4.01668-1.55738-1.41913-1.53683-7.93369-1.53683-7.93369Z"/><path class="cls-4" d="M671.29413,475.42521a2.01361,2.01361,0,0,0-1.85919,1.60659c-.29453,1.80313-.51749,7.0294-1.17688,9.99473-.91533,4.12167-.8994,15.64289-.18186,18.95966.71739,3.3162,10.56339,5.10186,15.54923,6.83775,5.093,1.77308,8.81534,4.2574,14.05294,8.3279,5.42044,4.2128,13.698,7.28759,21.03956,7.02032,8.68646-.31607,18.38652-3.41378,20.51075-7.50888,2.62816-5.06678,2.897-9.8625-10.15885-15.46019-2.47174-1.05974-10.11747-5.25367-13.08965-7.00774a55.6956,55.6956,0,0,1-9.16649-6.56363,45.112,45.112,0,0,1-3.39463-3.29509,10.83776,10.83776,0,0,1-1.894-3.58781c-.83049-2.3504-.58264-4.93747-1.05624-7.38489a1.3163,1.3163,0,0,0-.24715-.62974,1.27192,1.27192,0,0,0-.58362-.32865c-2.09682-.69293-4.1882-.34122-6.32445-.13867a25.26845,25.26845,0,0,0-6.31271,1.619,5.26476,5.26476,0,0,0-2.86189,1.9453,4.595,4.595,0,0,0-.50268,2.4196,18.2816,18.2816,0,0,1,.00252,2.4997,1.4745,1.4745,0,0,1-.31215.83118c-.421.45795-1.13172.11588-1.516-.20912a33.48143,33.48143,0,0,1-3.59383-4.06813c-.6303-.73864-3.37519-1.13662-4.16024-1.71143a22.13342,22.13342,0,0,1-2.24738-1.36559C671.00337,477.47031,671.36165,476.46286,671.29413,475.42521Z"/><path class="cls-3" d="M697.67837,521.15184A65.3866,65.3866,0,0,0,691.566,516.738l-.00042-.01161s13.88491,5.02834,19.885.66861c3.86543-2.80821,1.89455-6.0281,1.7686-7.0712-.12581-1.04366,9.47235-5.80639,13.28928-6.37268l-.00014-.00055c1.08392.55971,1.99254,1.00871,2.56148,1.2525,13.0561,5.59769,12.78729,10.39341,10.15857,15.46019-2.12395,4.0951-9.11868,7.444-20.34789,7.771C711.53714,528.64772,703.09881,525.36464,697.67837,521.15184Z"/><path class="cls-21" d="M712.07155,507.30481c8.10424,2.972,4.72974,4.56731,2.49648,4.95341-2.234.38595-13.72779-5.79773-22.14082-12.06725-8.77536-6.53972-16.46023-13.49629-19.719-15.89632-1.21448-.89465-2.52668-1.99982-3.69517-3.03383.15922-1.77.28335-3.38149.42188-4.2293.24743-1.51517,2.015-2.00233,2.015-2.00233l.35926,3.19822a6.14017,6.14017,0,0,0,2.37515,1.12767c1.78076.5811,3.40217,1.21071,4.03247,1.94935a33.48926,33.48926,0,0,0,3.59411,4.06813C689.06572,494.05021,703.96731,504.33277,712.07155,507.30481Z"/><path class="cls-22" d="M713.96443,511.09643a.79326.79326,0,0,1-.65156-1.277c2.18112-2.83561,8.5935-6.69224,14.50585-6.2164a.79116.79116,0,0,1,.72844.85271.77714.77714,0,0,1-.85187.72872c-5.52095-.43153-11.39863,3.356-13.12628,5.60286A.78623.78623,0,0,1,713.96443,511.09643Z"/><path class="cls-22" d="M706.84863,507.35527a.79354.79354,0,0,1-.68077-1.26159c2.11277-2.883,8.43121-6.88276,14.35782-6.54909a.793.793,0,1,1-.087,1.58353c-5.53115-.2958-11.31756,3.61786-12.9925,5.90424A.78735.78735,0,0,1,706.84863,507.35527Z"/><path class="cls-22" d="M700.25006,503.05566a.78567.78567,0,0,1-.50716-.16467.79372.79372,0,0,1-.14412-1.11272c2.18126-2.83519,8.59266-6.69684,14.506-6.21332a.79293.79293,0,0,1-.12385,1.581c-5.52276-.43125-11.39849,3.35409-13.12586,5.601A.78876.78876,0,0,1,700.25006,503.05566Z"/><path class="cls-22" d="M694.42172,499.164a.7837.7837,0,0,1-.51317-.14315.79356.79356,0,0,1-.19193-1.10516c2.05629-2.92564,8.32245-7.05121,14.22823-6.82615a.79324.79324,0,0,1-.05647,1.58548c-5.5285-.19165-11.245,3.83593-12.87508,6.15474A.78883.78883,0,0,1,694.42172,499.164Z"/><path class="cls-22" d="M688.13585,494.56043a.794.794,0,0,1-.70635-1.24132c2.83854-4.12823,9.67769-7.18037,15.60151-6.93211a.793.793,0,0,1-.06319,1.58478c-5.33391-.21988-11.713,2.58749-14.233,6.24687A.786.786,0,0,1,688.13585,494.56043Z"/><path class="cls-21" d="M597.05372,546.18041c-.80476,7.77406-2.24906,12.887-5.22124,17.33349-2.97162,4.44653-8.254,5.64634-13.47743,4.06966-5.22389-1.57723-11.82988-5.46027-13.04128-12.25218-1.21113-6.79274-.697-11.38661.82894-18.56167Z"/><path class="cls-4" d="M576.41381,490.50852c-1.86967.50967-2.80919,11.15568-4.53725,21.5779-1.85178,11.172-3.98342,14.473-5.60077,23.62733-1.84828,10.46023-1.26844,14.01267,2.1315,20.54107,3.39853,6.52869,16.16891,13.35707,23.011,4.53614,5.57868-7.191,5.92717-14.24584,5.92326-24.77331a219.834,219.834,0,0,1,1.204-25.0276c.7796-7.85932,5.195-15.16621,3.34305-16.12739.3408.17683-1.41145,5.40282-1.56368,5.85168a10.00007,10.00007,0,0,1-1.2676,2.859c-1.09147,1.4264-1.4805-.99348-1.43814-1.90252.072-1.5525.64135-2.77578-.51345-4.12307a9.11669,9.11669,0,0,0-3.17152-2.009,20.12546,20.12546,0,0,0-3.91212-1.31079,41.62708,41.62708,0,0,0-8.37738-.84237,4.0241,4.0241,0,0,0-3.29845,1.20666,2.31414,2.31414,0,0,0-.34891.81287c-.25763,1.01891-.18942,2.08955-.44677,3.10749-.07241.28629-.22226,1.03164-.50282,1.18709-.10051.05563-.73417.06612-.7392-.13769C576.30617,499.47064,576.12641,492.33248,576.41381,490.50852Z"/><path class="cls-3" d="M566.88317,532.13125c-.27985,1.50873-1.7577,10.93817.8973,12.873,2.87364,2.09389,4.856-5.73245,4.856-5.73245s7.04282-1.81445,16.95508,3.06682c-.5927,1.60659.72522,7.05387,3.55091,6.04362,2.80681-1.00354,4.17506-11.30763,4.19589-11.45665-.03313,10.09161-.50394,16.88324-5.92,23.86539-6.84209,8.82093-19.61247,1.99255-23.011-4.53614-3.39994-6.5284-3.97978-10.08084-2.1315-20.54107C566.46059,534.667,566.65266,533.0737,566.88317,532.13125Z"/><path class="cls-21" d="M573.39829,539.98205c-.21527,3.80113-3.55426,2.34089-3.83342-3.03076-.41894-8.05167,1.92349-15.62276,2.31225-24.8646,1.7275-10.42249,2.35222-21.50548,4.53669-21.57817-.161,1.81781-.1054,9.05424-.1054,9.05424-1.03164,7.80817-3.50324,16.8824-3.552,24.977C572.71347,531.67134,573.61315,536.18064,573.39829,539.98205Z"/><path class="cls-21" d="M588.42332,542.18078c.8836-3.70356,2.141-4.71143,3.21751-11.76138,1.06854-6.99754,5.54681-19.55963,7.3793-27.15615.51176-2.357,2.8542-8.32189,2.86846-8.40059,1.3347.71865-.15713,5.06188-1.44318,9.75206-1.28591,4.68962-2.13066,7.56787-3.02251,12.09268-2.27575,8.96534-2.9842,18.56895-4.44946,23.74392C591.50817,545.627,587.54056,545.88434,588.42332,542.18078Z"/><path class="cls-22" d="M589.27841,542.40458a.85948.85948,0,0,1-.2902-.1c-.07549-.04613-7.79657-4.44262-16.69271-2.49494a.808.808,0,0,1-.34374-1.57905,26.94022,26.94022,0,0,1,17.84987,2.67751.80737.80737,0,0,1-.52322,1.49643Z"/><path class="cls-22" d="M591.81543,534.9491a.81195.81195,0,0,1-.26518-.08639c-.08611-.04515-9.56363-4.92894-19.47156-3.1019a.80886.80886,0,1,1-.2916-1.59122c10.47925-1.92586,20.15079,3.06906,20.5264,3.2663a.80857.80857,0,0,1-.49806,1.51321Z"/><path class="cls-22" d="M571.2429,525.53365a.80868.80868,0,0,1-.109-1.5771c9.91-2.86566,22.53642,2.28121,22.93426,2.51424a.8036.8036,0,0,1,.29034,1.10377.81884.81884,0,0,1-1.10377.2909c-.0896-.0513-12.44831-5.03322-21.66945-2.35418A.79941.79941,0,0,1,571.2429,525.53365Z"/><path class="cls-22" d="M573.13018,518.79025a.80827.80827,0,0,1-.1219-1.57178c10.9091-3.36093,21.67141,3.01524,22.04213,3.2642a.808.808,0,0,1-.90024,1.34211c-.08219-.057-10.51083-6.18718-20.66381-3.06263A.80928.80928,0,0,1,573.13018,518.79025Z"/><path class="cls-23" d="M574.16671,510.5124a.80789.80789,0,0,1-.13266-1.56759c10.23042-3.31341,21.77234,3.23415,22.17577,3.49583a.80743.80743,0,0,1-.86809,1.36168c-.09436-.05885-11.30931-6.39924-20.80835-3.321A.81029.81029,0,0,1,574.16671,510.5124Z"/><path class="cls-3" d="M648.3431,335.30151l9.516,50.20811s-.16677,11.35613.89926,25.88687c1.06644,14.53073,5.25171,34.4422,8.79493,49.80146,16.77476,9.38708,31.88086-.09393,31.88086-.09393s.87634-57.54491,1.02241-78.0031c.18816-26.34328-.77638-102.71127-2.52709-135.054l-101.99388,4.746s-3.46479,11.7741-4.61525,37.8146-3.80952,96.36264-3.80952,96.36264c-8.36648,25.0993-8.83952,41.16757-10.18513,87.031,10.06226,13.45255,29.61629,6.49905,29.61629,6.49905s14.80584-47.21049,19.04954-61.09344c4.99338-16.33513,17.58483-68.47749,22.35148-84.10528"/><path class="cls-4" d="M691.10817,299.90063l1.7173,38.96325c.32431,6.33493.8618,40.14459.731,46.39468-.15516,6.27678-1.94347,56.78488-1.14109,69.49165,1.55095-14.14254,3.61968-57.60572,4.10223-70.38854.01328-12.847-.14356-22.51894-1.46009-44.38033C693.945,321.51067,693.01349,312.46622,691.10817,299.90063Z"/><path class="cls-4" d="M630.1527,295.4123c-1.56759,14.50166-11.66717,73.472-13.888,87.82114-2.29393,14.33433-17.37543,70.75366-19.14305,85.22778,2.89642-14.30064,19.68166-70.34282,22.04492-84.78381C621.34644,369.20595,629.71726,309.99168,630.1527,295.4123Z"/><path class="cls-4" d="M659.5874,285.63,648.343,335.30151l9.51624,50.208-4.43563-42.08333L664.23845,292.028s19.01277-3.87759,21.03621-17.81227C675.38476,286.3357,659.5874,285.63,659.5874,285.63Z"/></g><g id="Top"><path class="cls-4" d="M693.15537,103.90557c-5.97176-8.62551-15.703-11.50068-29.63642-9.22842l34.04926,70.12266a294.49039,294.49039,0,0,0,2.25815-32.16673C699.87514,119.74444,699.12672,112.53108,693.15537,103.90557Z"/><g id="Chest"><path class="cls-23" d="M699.43593,248.52291c-19.024,33.88738-88.61835,34.49-106.179,12.19668a457.75026,457.75026,0,0,0,4.63832-47.42673c.5537-13.62575-6.607-37.036-6.01272-54.19586.59424-17.16,7.321-28.16361,7.321-28.16361s23.59741-24.002,39.48829-30.45138c26.56638-10.78231,38.44477-3.2396,38.44477-3.2396,6.9493,2.05839,22.68977,26.68017,22.68977,45.04922C699.82636,165.83243,699.43593,248.52291,699.43593,248.52291Z"/></g><g id="Head"><path class="cls-21" d="M631.10927,39.885a15.14346,15.14346,0,0,0-7.40334-1.94949c-2.86971.00237-3.84264.03243-6.41755,1.83738a7.62823,7.62823,0,0,0-2.9726,4.27179,10.4398,10.4398,0,0,0,.52561,7.17269c.81217,2.12269-.29929,3.81133-1.00466,5.81408a7.01887,7.01887,0,0,0,1.52187,7.2739c1.68515,1.6913,4.03668,3.122,4.99479,5.39108,1.139,2.69792.82056,5.73971,1.95983,8.51144a20.68224,20.68224,0,0,0,3.957,6.00671,27.71406,27.71406,0,0,1,2.74014,4.29626c.84712,1.32981,2.64647,2.0226,3.859,2.98952.41922.33423,1.38488,1.71353,2.01,1.54718.87368-.23233.35115-2.9371.33773-3.535-.05172-2.34747-.03942-4.7064-.15587-7.05149L634.61,73.36947s5.85406-7.95452,6.50981-14.48362c.844-8.40353-.917-11.8468-.917-11.8468C637.3019,44.80244,634.40073,41.73715,631.10927,39.885Z"/><path class="cls-21" d="M640.00919,53.28075A24.40331,24.40331,0,0,0,642.68,65.96306c1.74,3.35814,4.90351,7.91049,8.683,9.12791a38.82639,38.82639,0,0,0,4.20218.9746,34.55039,34.55039,0,0,0,14.2903-.38665c3.48492-.79526,7.04534-1.98724,9.43824-4.74149a31.76435,31.76435,0,0,0,4.37789-5.54848c.3847-.7311.404-1.535.79735-2.26821.93938-1.75183,2.65668-3.30292,3.23932-5.20992.53078-1.73673.19487-3.428.2424-5.191.052-1.92168,1.295-3.31607,1.45-5.19091a6.8643,6.8643,0,0,0-1.16-4.80313,20.791,20.791,0,0,0-1.7967-2.47412,13.028,13.028,0,0,0-3.58516-2.30357c-1.13676-.64527-2.14855-1.524-3.29621-2.18056a45.09994,45.09994,0,0,0-8.82681-3.66358,29.09663,29.09663,0,0,0-13.42235-.65477c-4.601.86487-9.16215,4.55137-12.00825,8.1006A24.42238,24.42238,0,0,0,640.00919,53.28075Z"/><path class="cls-24" d="M623.51051,86.22512c5.34831,2.09836,7.77448-1.32058,7.77448-1.32058l-1.82788,22.64629c6.27972,8.03938,21.293,17.89908,32.33909,16.44584,5.923-.77932,6.81413-6.01063,1.04716-13.86255l1.02311-7.43157a48.942,48.942,0,0,0,9.285-.06207c5.98686-.92148,10.63259-5.29379,12.4402-11.76851,2.89907-10.41215,1.88155-28.91847-1.46443-48.74075-6.69279-5.2116-32.12479-3.43377-46.225,5.45944,1.56424,8.5078,1.66153,10.97577.74745,16.16947-.91981,5.22683-2.82163,7.58506-4.35511,7.8125-2.87041.4258-3.30781-2.68086-5.14044-4.61246-1.84954-1.9158-8.83295-3.06556-11.8282,3.2505C614.29649,76.64136,619.39835,84.6114,623.51051,86.22512Z"/><path class="cls-25" d="M663.86647,102.70255c-9.53763-.9665-21.5572-5.44882-24.59844-9.82448a32.37369,32.37369,0,0,1-4.15228-7.94837s.16495,5.953,2.47775,9.78268c2.31294,3.82936,10.88323,10.463,25.82956,11.50291Z"/><path class="cls-21" d="M683.65381,27.05405a4.84814,4.84814,0,0,1-2.21062-1.99716c-.84614-1.5708-1.16933-3.25595-2.38143-4.625a8.91724,8.91724,0,0,0-6.86767-3.3559c-2.45147-.065-4.782,1.48567-7.20973,1.867-2.63865.41434-3.74158-.799-5.779-2.061-2.544-1.576-6.75612-1.54047-9.59145-.67574a9.23725,9.23725,0,0,0-3.52434,1.86059c-.94693.86627-1.46275,2.16323-2.63054,2.80737-2.08663,1.151-5.3286-.23974-7.57346-.42663-3.95322-.32865-7.1411.90611-7.96711,4.23405-.353,1.42221-.38721,2.51815-.71488,3.81035a4.19725,4.19725,0,0,1-2.10647,2.50152c-1.78021,1.08979-3.4265,2.3634-3.91743,4.40515-.63031,2.621-.34668,5.6838,1.94278,7.596,1.915,1.59932,5.33265,2.86021,7.879,2.09725.32934,2.20922,3.033,3.79931,5.15917,4.05093a9.33908,9.33908,0,0,0,3.62639.01454c.41531-.11044,3.62933-1.516,3.28559-2.1417a7.42423,7.42423,0,0,0,6.04557,3.53483,8.40225,8.40225,0,0,0,7.66461-3.73669c-.6257.99516,1.05065,2.48223,1.73016,2.95275a7.87622,7.87622,0,0,0,3.84865,1.13285c2.621.18955,4.38293-1.06645,5.90705-2.99343a4.5541,4.5541,0,0,1,4.707-1.86785,19.45893,19.45893,0,0,0,5.11556.81105,6.27519,6.27519,0,0,0,5.63348-3.53232,6.35091,6.35091,0,0,0,.20661-4.38935c1.49042,2.38884,6.13252,3.30837,6.57942-.27511a1.23957,1.23957,0,0,1-2.06943-.68762c-.22547-1.22343,1.06226-2.4962,1.31-3.65756a5.43548,5.43548,0,0,0-2.93388-5.81814C685.7976,27.9308,684.66042,27.56875,683.65381,27.05405Z"/><path class="cls-21" d="M660.68516,65.50343a2.81538,2.81538,0,1,1-2.8159-2.92815A2.86044,2.86044,0,0,1,660.68516,65.50343Z"/><path class="cls-21" d="M658.3992,55.2835l-6.5319,2.14128a3.607,3.607,0,0,1,2.27059-4.44584A3.35458,3.35458,0,0,1,658.3992,55.2835Z"/><path class="cls-21" d="M683.32642,56.05066l-6.64652-1.95075a3.32418,3.32418,0,0,1,4.18065-2.41065A3.63888,3.63888,0,0,1,683.32642,56.05066Z"/><path class="cls-21" d="M682.87127,64.17139a2.81539,2.81539,0,1,1-2.81618-2.929A2.85915,2.85915,0,0,1,682.87127,64.17139Z"/><path class="cls-25" d="M658.83366,81.8229l9.24925,3.60724a4.87722,4.87722,0,0,1-6.353,2.9993A5.19912,5.19912,0,0,1,658.83366,81.8229Z"/><path class="cls-26" d="M658.55562,83.2609a5.13847,5.13847,0,0,0,3.17432,5.16854,4.72122,4.72122,0,0,0,3.319.03188A7.61511,7.61511,0,0,0,658.55562,83.2609Z"/><path class="cls-25" d="M675.242,70.76675a40.92459,40.92459,0,0,0-5.01967-7.05121c-.093-.10624-.19892-.1992-.292-.292a.10876.10876,0,0,0-.0664-.0664,7.48634,7.48634,0,0,0-4.22259-2.44322l.55762,4.75378,1.59331,13.33191,10.33107-3.14706C677.16734,74.09973,676.19805,72.37348,675.242,70.76675Z"/></g><path class="cls-24" d="M691.83074,176.10478s-51.88767-30.96217-61.30788-36.27259c-11.89782-6.70719-21.36751-12.38946-26.97443-7.18387-4.97,4.61442-7.515,10.03485-6.35744,23.2123.73753,8.39192,4.50525,14.09864,15.64974,22.80816s57.23584,27.84839,66.16861,30.26407c18.98173,5.13332,20.14324,5.48866,31.29948-4.11257"/><path class="cls-4" d="M602.0109,128.167c4.46736-2.44476,11.6167-.16314,22.26453,6.5298s47.469,29.44449,47.469,29.44449a44.08717,44.08717,0,0,1-4.57556,24.85956c-6.53861,12.62528-10.18932,13.38587-10.18932,13.38587s-42.28714-18.55762-47.00262-21.14357-13.08169-8.21411-15.81973-17.18867S588.72107,137.45676,602.0109,128.167Z"/></g></g><g id="Character-2" data-name="Character"><g id="Bottom-2" data-name="Bottom"><path class="cls-27" d="M872.89779,467.1953l2.30245-24.75375-32.85071-4.22217s.94525,13.04311.96552,22.75449c.01971,9.39407.00992,13.34309-3.20368,18.64108s-11.291,12.07269-20.237,15.6338c-8.9459,3.561-17.45762,8.338-15.02572,13.46233s15.80742,7.47142,21.62668,6.25442,18.76045-8.07838,25.36126-12.94218,17.45763-7.15773,19.97648-8.22557,3.12665-4.62882,3.03984-10.53488S872.89779,467.1953,872.89779,467.1953Z"/><path class="cls-3" d="M827.50483,231.38652c-1.16682,16.80076,2.88076,64.89666,4.07749,100.1017.56447,16.60407,3.55957,40.19408,4.15577,47.5833,1.6804,20.8289,6.30348,68.50405,6.30348,68.50405s17.48293,6.94049,33.15867.77289c2.64774-26.1459,11.87755-63.2905,4.92741-85.51757L891.38034,238.9987Z"/><path class="cls-4" d="M867.4849,362.00041c-.73865-6.6475.73878-68.76489.754-69.39185l-1.414-.03313c-.0608,2.56289-1.49419,62.83968-.74577,69.58238a60.69143,60.69143,0,0,0,1.19729,6.269,116.42835,116.42835,0,0,1,3.04753,32.5218c-.46438,13.9418-1.33386,35.20489-1.92531,49.29711q.71313-.12708,1.42752-.28294c.591-14.09473,1.45059-35.13052,1.91175-48.9672A117.651,117.651,0,0,0,868.6559,368.119,60.09426,60.09426,0,0,1,867.4849,362.00041Z"/><path class="cls-4" d="M880.12765,362.83089l6.38917-70.31081c-22.687-3.11547-38.53354-14.45441-42.69546-23.81842,3.95154,19.45925,20.05853,24.88584,20.05853,24.88584s5.2622,43.203,7.78874,58.36142,5.8124,22.72108,10.10684,47.3862C883.10794,385.72741,883.23976,372.784,880.12765,362.83089Z"/><path class="cls-21" d="M803.0856,509.14037c-.44747.00713-1.04576,4.93258,1.42081,6.98439,2.84735,2.36816,11.15526,6.20144,22.02647,4.63134,10.87205-1.57,16.71758-5.01561,21.019-8.71484,4.30157-3.69894,10.32981-8.91543,15.24086-10.07315,4.56129-1.075,11.97022-3.75766,13.413-5.18909,1.44206-1.43032,1.13914-7.69,1.13914-7.69Z"/><path class="cls-4" d="M872.89779,467.1953a3.32576,3.32576,0,0,1,1.78523,2.10284c.36248,1.72037.41322,3.93071,1.1787,6.75192,1.06267,3.92177,1.861,11.98,1.31248,15.19809-.54881,3.21723-10.4464,6.10316-15.18663,7.98443-4.841,1.92154-10.41452,5.81437-15.29509,9.95015-5.052,4.2799-15.75431,8.66157-22.85277,8.87461-10.83682.32445-17.90355-2.49466-20.13261-6.33927-1.93076-3.32976-.29272-8.23536,2.45846-10.65873,3.81273-3.35842,8.52835-5.48614,13.06016-7.796,7.05107-3.59411,14.936-8.03127,19.34519-14.79508a17.2611,17.2611,0,0,0,2.813-9.711,3.53536,3.53536,0,0,1,.18732-1.59709,3.10632,3.10632,0,0,1,2.47425-1.34882c5.29938-.86585,9.98635,1.41326,14.9754,3.22087a5.7524,5.7524,0,0,1,3.05187,1.98276c1.3593,2.117-.31034,4.92629.15768,7.39481a1.23021,1.23021,0,0,0,.16425.4627c.3401.50729,1.13354.38386,1.66055.07311,1.91132-1.127,2.44853-3.57453,3.55314-5.49313a9.39163,9.39163,0,0,1,3.723-3.58138,11.63936,11.63936,0,0,1,1.4893-.60165S872.9544,467.2206,872.89779,467.1953Z"/><path class="cls-28" d="M813.80765,496.01815c15.71069.83509,20.377,13.57737,21.1384,19.53712a37.18463,37.18463,0,0,1-11.10634,2.50207c-10.83682.32445-18.349-2.48348-20.57826-6.32808C800.65971,507.24219,802.74885,500.393,813.80765,496.01815Z"/><path class="cls-22" d="M835.44468,497.93269a.763.763,0,0,0,.57313-1.255c-2.227-2.62942-8.29463-7.14753-13.9885-6.44173a.7629.7629,0,1,0,.18774,1.51419c5.31518-.64359,10.8638,3.82615,12.63017,5.91151A.76189.76189,0,0,0,835.44468,497.93269Z"/><path class="cls-22" d="M842.14082,493.9086a.76247.76247,0,0,0,.57314-1.25474c-2.22921-2.63152-8.29939-7.15871-13.98836-6.44159a.763.763,0,1,0,.188,1.51432c5.31434-.65071,10.86394,3.8256,12.62933,5.91166A.76325.76325,0,0,0,842.14082,493.9086Z"/><path class="cls-22" d="M848.33122,489.33556a.76351.76351,0,0,0,.57355-1.25558c-2.227-2.63138-8.32049-7.15144-13.98849-6.44145a.763.763,0,1,0,.18829,1.51432c5.30777-.64624,10.86338,3.826,12.62947,5.91166A.76353.76353,0,0,0,848.33122,489.33556Z"/><path class="cls-22" d="M854.04409,483.858a.76337.76337,0,0,0,.58082-1.24594c-3.06556-3.73235-9.60892-7.20623-15.29551-6.49876a.763.763,0,1,0,.18787,1.51432c5.1206-.63352,11.20139,2.64229,13.92238,5.95038A.76109.76109,0,0,0,854.04409,483.858Z"/><path class="cls-4" d="M841.30992,440.6798c6.34822,4.47729,24.44579,8.621,34.85207,1.40054l-1.79908,13.13718c-6.26392,4.13075-24.76535,5.81618-32.08188-2.47425Z"/><path class="cls-27" d="M931.33455,490.00557l.64792-29.0317-32.53731,1.2149,4.79418,29.35992s1.88407,11.9125,2.29351,14.8a233.901,233.901,0,0,1,1.719,24.84349c.13266,10.9534.69783,21.10512,3.69545,26.1431s6.27511,5.82764,11.17833,4.1745,10.90308-7.1622,12.7782-15.85467-.72648-21.54853-1.807-24.48423S931.50551,500.72832,931.33455,490.00557Z"/><path class="cls-3" d="M926.955,240.05061l-64.349-.33675c2.10913,16.16947,17.02106,126.0354,20.347,144.59427,3.32641,18.55874,17.92172,91.3694,17.92172,91.3694s3.45362,5.45119,14.41667,4.78146c12.30852-.75192,17.06258-5.73091,17.06258-5.73091s2.39067-39.09744,2.63292-62.09307c.26364-25.01766-5.48949-42.91255-5.48949-42.91255s1.62616-41.852,1.58673-69.83343S930.92189,262.91218,926.955,240.05061Z"/><path class="cls-21" d="M905.63611,544.83313c.33465,7.6797,1.45646,12.78589,4.1239,17.33041,2.667,4.54439,7.80341,6.04194,13.0466,4.81083,5.24277-1.232,11.98491-4.64378,13.58017-11.23746,1.59485-6.594,2.53507-11.11542,1.45422-18.25023Z"/><path class="cls-4" d="M931.33455,490.00557c2.14938.20367,1.42724,10.36322,2.51493,20.69834,1.16612,11.07823,2.70183,15.488,3.756,24.5723,1.20428,10.379-.58572,14.97777-4.323,21.17963-3.736,6.203-16.72891,12.13252-22.95383,3.06039-5.0746-7.39719-5.16854-15.50855-4.543-25.842.6475-10.68277-.29243-17.87825-1.04673-25.9706-.78016-8.37236-2.38228-15.32292-.49961-16.15494,0,0,1.25069,6.38121,1.73268,7.704.21108.58,1.02158,2.03309,1.38545-.12315.108-.64037-.06808-2.12562-.00364-2.76208a2.72325,2.72325,0,0,1,1.99017-2.44616,20.76024,20.76024,0,0,1,9.20018-1.85332c4.205.04753,7.84311-.03159,10.16975,1.20247,1.39956.74213,1.34239,2.07865,1.47673,3.38861.16019,1.5613.17124,2.52556.558,2.22054C931.52815,498.265,931.092,491.10766,931.33455,490.00557Z"/><path class="cls-28" d="M938.11331,541.287c.2758,6.437-1.3326,10.81642-4.25824,15.67127-3.7364,6.2027-17.76837,12.13616-23.99315,3.06333-3.09744-4.51419-3.86711-9.80393-4.22232-15.19362C909.55242,537.9779,932.19019,535.304,938.11331,541.287Z"/><path class="cls-22" d="M910.50187,533.64446a.822.822,0,0,0,.26615-.06906c.08737-.03886,10.10615-3.97614,19.766-1.58282a.8059.8059,0,0,0,.96663-.581.79758.79758,0,0,0-.58571-.96328c-10.21672-2.52472-20.4333,1.50972-20.81548,1.68012a.79577.79577,0,0,0,.40245,1.516Z"/><path class="cls-22" d="M930.16717,524.26591a.79446.79446,0,0,0,.2006-1.54145c-9.60026-3.41294-20.381,1.29528-20.78753,1.49993a.78731.78731,0,0,0-.35115,1.066.81174.81174,0,0,0,1.0712.35226c.09142-.04459,10.59821-4.60743,19.53027-1.42011A.80307.80307,0,0,0,930.16717,524.26591Z"/><path class="cls-22" d="M929.935,516.98139a.79365.79365,0,0,0,.21276-1.535c-10.55585-3.95965-20.79913,1.21057-21.17963,1.43283a.79086.79086,0,0,0-.28363,1.087.80086.80086,0,0,0,1.09216.28447c.0843-.05074,9.984-5.00024,19.80887-1.31793A.80209.80209,0,0,0,929.935,516.98139Z"/><path class="cls-23" d="M929.51394,509.80716a.79348.79348,0,0,0,.22338-1.53068c-9.88961-3.87144-20.91152,1.42011-21.32529,1.65244a.79525.79525,0,1,0,.77569,1.38852c.09617-.05186,10.78384-5.15959,19.96668-1.563A.80149.80149,0,0,0,929.51394,509.80716Z"/><path class="cls-4" d="M898.93633,466.95235c6.65309,3.80182,24.75067,6.06514,34.18835-2.18574l-.43279,13.25237c-5.70267,4.75225-23.60664,8.32874-31.59038.83328Z"/><path class="cls-4" d="M928.553,388.09431c-.43781-3.58754-.8576-6.4279-1.26494-9.17446-1.35875-9.17432-2.64158-17.83911-4.37454-52.48051-.6517-13.04493-.70691-23.0974-.75528-31.968-.098-17.98114-.17194-31.03738-4.86128-54.47138l-1.44332-.00755c4.43283,22.067,4.76567,34.89889,4.87205,51.26435-8.59028-.358-13.49574-8.60426-15.39169-25.90756-2.00779-18.30866-4.04031-30.83161-4.06114-30.95588l-1.39467.22646c.01943.12427,2.0479,12.61535,4.05009,30.884,1.96459,17.93388,7.4724,26.81562,16.80566,27.16761.00335.60165.00685,1.19561.01034,1.80816.04837,8.8844.10358,18.9549.75807,32.03156,1.73576,34.70906,3.024,43.407,4.387,52.61582.40594,2.73818.82573,5.569,1.26075,9.13854,3.01426,24.72956,3.95881,52.41285,2.80723,82.28341l1.414.05522C932.52568,440.65911,931.57708,412.89852,928.553,388.09431Z"/></g><g id="Top-2" data-name="Top"><path class="cls-27" d="M856.19893,90.41989c-9.45194,1.03723-21.61647,10.2704-38.37585,31.7805-16.23741,20.84008-26.82052,34.342-26.82052,34.342l26.39458,25.03486L849.619,143.05753Z"/><path class="cls-4" d="M868.59048,90.16338c-13.60491-3.022-23.96869.25651-33.01328,9.90443-10.39733,11.091-36.35326,45.2775-36.35326,45.2775s9.76842,5.29127,16.14515,11.66786,9.64373,15.83594,9.64373,15.83594l25.22427-31.70976Z"/><g id="Chest-2" data-name="Chest"><path class="cls-5" d="M827.58758,137.46082c.06556-18.36891,16.81069-43.07177,23.33546-45.1303,0,0,11.1526-7.54271,36.0959,3.2396,14.9199,6.44942,39.796,24.46844,39.796,24.46844a224.0712,224.0712,0,0,1,4.1534,34.14655c.5579,17.15988-6.16537,40.57011-5.64536,54.196.51988,13.6256,1.7036,27.40791,4.35483,47.4266C913.19014,278.101,844.97,276.88348,827.10839,242.996,827.29836,216.02041,827.51727,157.107,827.58758,137.46082Z"/></g><g id="Head-2" data-name="Head"><path class="cls-21" d="M837.66759,54.56456c-2.99189-6.46913-.51861-17.28233-.51861-17.28233a17.85763,17.85763,0,0,0-2.44546,14.99316c-6.19529-7.16752-5.00807-21.561,7.52341-29.70086,16.56829-10.762,48.86573-12.73921,55.87612,10.41172,5.38018.81511,8.49844,6.9837,8.00932,19.82383s-7.82564,29.30652-6.52127,35.33881,3.09757,7.49476,3.09757,7.49476a10.48924,10.48924,0,0,1-7.82564-5.87839,41.68209,41.68209,0,0,0,2.60859,7.67663H852.14814Z"/><path class="cls-21" d="M915.56654,33.38186a8.1192,8.1192,0,0,0-.65253-4.56018,14.29058,14.29058,0,0,0-2.60943-3.84992,13.152,13.152,0,0,0-3.81762-3.0383,8.39854,8.39854,0,0,0-.94232-.38148c-3.41713-5.29324-9.75821-8.99372-15.57873-6.1623-13.42528,6.93043,3.13336,27.515,14.47273,21.30335a8.71156,8.71156,0,0,0,3.58585-6.40707,8.58281,8.58281,0,0,1,.96678,1.10838,9.73052,9.73052,0,0,1,1.07092,2.03742,16.82381,16.82381,0,0,1,1.03988,3.86725,13.93279,13.93279,0,0,0-.10162-6.065,8.381,8.381,0,0,0-3.31285-4.82928l-.00713-.03271A10.59389,10.59389,0,0,1,915.56654,33.38186Z"/><path class="cls-27" d="M899.0701,82.5916c-5.29406,1.921-7.40305-1.37846-7.40305-1.37846l1.79181,22.19953c-6.357,7.7194-21.31943,17.76726-32.10732,16.0638-5.78445-.91338-6.50939-6.09338-.65953-13.642l-1.01444-7.1548s-6.62206.27609-10.63525-.71879a15.76376,15.76376,0,0,1-11.529-12.7434c-1.301-7.13466-1.26789-24.275,1.73393-40.48288.672-3.62765,3.03425-8.98183,5.80584-11.3177.73822,3.09408,1.0698,5.94157,9.29943,6.8337,9.08988.98551,22.96808-8.81366,29.2348-1.7398a10.95134,10.95134,0,0,0-4.13578,9.25022c.1047,5.023,4.17059,10.21644,4.63706,13.33638.76912,5.14533,2.57309,7.50427,4.07022,7.76595,2.80206.48982,3.30908-2.54359,5.15387-4.38992,1.86086-1.83067,8.73328-2.78081,11.50864,3.48423C907.62754,74.33625,903.14061,81.11431,899.0701,82.5916Z"/><path class="cls-26" d="M884.34073,91.45545c2.36327-3.69405,2.67555-9.52351,2.67555-9.52351a31.73007,31.73007,0,0,1-4.27012,7.68389c-3.091,4.21071-13.69815,8.35809-23.06873,9.06388l.46927,3.30964C873.71317,100.91969,882.07979,94.98958,884.34073,91.45545Z"/><path class="cls-26" d="M845.053,72.10718l10.17478,2.92731,1.83193-17.7611C852.9824,57.76083,848.98487,64.5881,845.053,72.10718Z"/><path class="cls-21" d="M863.075,62.33009a2.7599,2.7599,0,1,0,2.81087-2.82107A2.80425,2.80425,0,0,0,863.075,62.33009Z"/><path class="cls-21" d="M865.49249,52.35311l6.36513,2.21145a3.53566,3.53566,0,0,0-2.14883-4.39648A3.28812,3.28812,0,0,0,865.49249,52.35311Z"/><path class="cls-21" d="M841.04768,52.67351l6.548-1.79685a3.25867,3.25867,0,0,0-4.05582-2.43511A3.5671,3.5671,0,0,0,841.04768,52.67351Z"/><path class="cls-21" d="M841.3534,60.64075a2.7597,2.7597,0,1,0,2.81072-2.82191A2.80271,2.80271,0,0,0,841.3534,60.64075Z"/><path class="cls-20" d="M863.85249,78.28751l-9.155,3.301a4.781,4.781,0,0,0,6.14972,3.09981A5.09663,5.09663,0,0,0,863.85249,78.28751Z"/><path class="cls-26" d="M864.08859,79.70371a5.03678,5.03678,0,0,1-3.24141,4.98458,4.62819,4.62819,0,0,1-3.2533-.05271A7.465,7.465,0,0,1,864.08859,79.70371Z"/></g><path class="cls-27" d="M915.66873,127.82855c7.3333-8.70575,12.85984-9.33508,23.05532,11.29016,13.27962,26.86469,17.48921,34.66461,24.92316,55.00691,5.63837,15.42873,5.71008,16.39048-.40818,29.30693-3.4114,7.20177-23.46951,44.23244-29.57337,51.03077-4.06491,4.52719-9.4641,13.17213-13.74317,16.75435,0,0-10.04226.51134-13.28577-17.48125,0,0-2.58987-2.14631-8.25717.39141-3.93519,1.76147-9.05662,2.51815-11.70757.38176-2.6515-2.13611,2.94605-3.89549,5.68311-5.93668,2.737-2.04091,6.42132-5.16253,13.52216-7.01389,7.10111-1.8508,8.48949-3.70285,13.95256-12.08834,6.62262-10.16542,13.4464-35.79746,13.4464-35.79746l-16.27669-32.88175C901.68457,149.88494,908.33543,136.53444,915.66873,127.82855Z"/><path class="cls-4" d="M906.51692,139.7293c3.21345-15.81846,14.66325-20.48684,18.91212-20.06188,4.38573.43865,10.90937,7.98542,14.974,17.018C946.622,150.50532,959.6357,181.881,959.6357,181.881a32.32028,32.32028,0,0,1-14.86385,15.73781c-11.33391,6.00518-17.56861,6.60752-17.56861,6.60752s-4.95578-8.62481-11.34048-21.85942S904.02337,152.00357,906.51692,139.7293Z"/><path class="cls-26" d="M933.27621,213.67322s5.09725-7.3347,16.22748-8.3265c-6.17124-2.204-13.38321.41028-17.65654,5.43959Z"/></g></g><g id="Arms"><path class="cls-27" d="M759.59866,128.167c-.32347,2.44336,1.51475,5.42533,5.188,8.538,4.80914,4.07525,30.30237,18.75318,30.30237,18.75318l22.30814,26.11906a97.02926,97.02926,0,0,1-9.64428,9.78995c-3.96259,3.38736-8.26584,4.79768-18.85286-1.51237-15.61577-9.3074-58.08841-51.18174-58.08841-51.18174l4.186-5.96995Z"/><path class="cls-24" d="M710.30882,204.82028c10.55039-9.92555,14.00568-14.75258,27.56936-33.45726a215.36018,215.36018,0,0,0,16.88953-26.58693c2.47873-4.29319,7.62532-14.52948,7.59764-16.60911a179.564,179.564,0,0,0-1.4682-18.14357,4.2125,4.2125,0,0,0-.8727-2.2095c-.962-1.16709-2.71315-1.34686-3.83621-2.36005-.984-.88765-1.35875-2.29952-2.3307-3.20059a6.02041,6.02041,0,0,0-4.33078-1.14976,3.38066,3.38066,0,0,1-1.43647-.15629,4.76212,4.76212,0,0,1-1.16-.91673c-2.67849-2.35054-6.45977-.67322-8.36075,1.80691l3.72815,3.53525c-4.3087.30068-10.46,2.88705-10.46,2.88705l3.15992,24.44341-4.18611,5.96995c-9.86459,10.857-38.98085,37.43172-38.98085,37.43172"/><path class="cls-27" d="M728.5083,108.41193c6.12553-.34584,10.60044-.27566,13.04534.27426s2.17763,3.87955-1.08965,4.98011c5.61446.05857,8.77131.5646,10.51978,1.697a2.21256,2.21256,0,0,1,.5579,2.91361c-.71684.8576-2.05755,1.22735-3.64527,1.65859.77583.10373,3.94539.3211,4.06659,2.47035.13727,2.43539-4.33428,2.75453-7.3997,3.1142,2.71762.43265,3.325,4.45031-1.602,5.46266s-7.96361,1.72037-7.96361,1.72037l-4.18611,5.96995a2.91809,2.91809,0,0,1-1.979-1.56353,7.30075,7.30075,0,0,0-.52421-1.27935c-.51959-.799-1.56381-1.09188-2.19006-1.8104a4.47774,4.47774,0,0,1-.66078-3.32557,5.08183,5.08183,0,0,0-.50534-3.37323c-.62961-.87927-1.79237-1.27347-2.37347-2.18559a4.89366,4.89366,0,0,1-.32207-3.15853,3.76241,3.76241,0,0,0-.6352-3.06751c-.35241-.36066-.83733-.57971-1.15451-.97167-.702-.86795-.311-2.167.2477-3.1335a19.44086,19.44086,0,0,1,3.63674-4.2999A6.54122,6.54122,0,0,1,728.5083,108.41193Z"/><path class="cls-26" d="M740.46385,113.6663c-1.47868.1957-2.96449.28922-4.44779.36848-1.47952.09548-2.9733.10289-4.41844.24351a3.76161,3.76161,0,0,0-.9992.18173,6.3118,6.3118,0,0,0-.912.5024c-.61675.3819-1.205.82866-1.80831,1.25418l-3.5695,2.66087a38.05766,38.05766,0,0,1,3.23667-3.083,20.5235,20.5235,0,0,1,1.77741-1.38489,6.12621,6.12621,0,0,1,1.026-.58515,4.282,4.282,0,0,1,1.17828-.24128,42.12683,42.12683,0,0,1,4.48036-.08345C737.49292,113.5321,738.97538,113.5739,740.46385,113.6663Z"/><path class="cls-26" d="M747.8964,119.93553c-3.56642.34528-7.13452.42077-10.703.51862l-1.339.006a2.19312,2.19312,0,0,0-.5948.04962c-.19891.06067-.39783.11463-.60137.1985-.81412.30376-1.60826.71111-2.4175,1.07638l-4.8111,2.35571a52.93972,52.93972,0,0,1,4.56493-2.83379,21.83285,21.83285,0,0,1,2.43484-1.192c.20787-.09114.43782-.16229.66525-.23554a2.79011,2.79011,0,0,1,.73278-.08625l1.33973-.03621C740.74287,119.74109,744.31894,119.70334,747.8964,119.93553Z"/><path class="cls-26" d="M744.54581,125.36366c-1.36657.20157-2.73873.30027-4.10642.4065-1.36154.12036-2.74908.16593-4.06547.34291a5.222,5.222,0,0,0-1.7489.77163l-1.75574,1.04939c-1.16723.71488-2.328,1.44779-3.52323,2.13751a40.22755,40.22755,0,0,1,3.22464-2.58469c.552-.41462,1.12977-.79232,1.71339-1.16961a5.61716,5.61716,0,0,1,1.98472-.89493,33.01063,33.01063,0,0,1,4.1513-.1869C741.79617,125.24065,743.16876,125.27713,744.54581,125.36366Z"/><path class="cls-26" d="M729.08073,108.38062c1.12991-1.9474,3.161-5.73608,4.55249-6.29384a41.62865,41.62865,0,0,1,6.73418-1.20861c1.08937-.12246,4.07511,1.09622,5.558,1.53124s.89171,2.758-2.89349,3.43446-6.43754.724-7.40571,1.03346-3.78841,1.38251-3.78841,1.38251Z"/></g></g><g id="Lines"><path class="cls-29" d="M745.36232,88.94778a1.39777,1.39777,0,0,1-1.41634-1.328l-.87312-17.47971a1.3965,1.3965,0,0,1,1.3259-1.46541,1.3794,1.3794,0,0,1,1.4654,1.3259l.87312,17.47971a1.39657,1.39657,0,0,1-1.3259,1.4654C745.395,88.94722,745.37867,88.9475,745.36232,88.94778Z"/><path class="cls-29" d="M730.80838,93.63852a1.39674,1.39674,0,0,1-1.19785-.63911l-9.65155-14.94a1.39813,1.39813,0,1,1,2.349-1.517l9.65156,14.94a1.39764,1.39764,0,0,1-1.15116,2.1561Z"/><path class="cls-29" d="M720.54371,104.98054a1.39955,1.39955,0,0,1-.6577-.15349l-15.21053-7.7967a1.39787,1.39787,0,0,1,1.27417-2.48851l15.21053,7.7967a1.39786,1.39786,0,0,1-.61647,2.642Z"/><path class="cls-29" d="M788.473,139.79808a1.39968,1.39968,0,0,1-.65771-.15349l-15.34-7.863a1.39788,1.39788,0,0,1,1.27418-2.48852l15.34,7.863a1.3979,1.3979,0,0,1-.61646,2.642Z"/><path class="cls-29" d="M776.34909,116.98236a1.39765,1.39765,0,0,1-.0903-2.79339l17.93263-.89661a1.37037,1.37037,0,0,1,1.46526,1.3259,1.39636,1.39636,0,0,1-1.32576,1.4654l-17.93262.8966C776.38194,116.9818,776.36559,116.98208,776.34909,116.98236Z"/><path class="cls-29" d="M771.65961,102.42437a1.398,1.398,0,0,1-.78184-2.57225l14.59811-9.43041a1.39813,1.39813,0,0,1,1.517,2.349l-14.59811,9.43041A1.396,1.396,0,0,1,771.65961,102.42437Z"/><path class="cls-29" d="M760.31507,92.16389a1.39788,1.39788,0,0,1-1.26494-2.0349l8.11332-15.82853a1.39791,1.39791,0,0,1,2.48852,1.27431L761.53864,91.4033A1.39824,1.39824,0,0,1,760.31507,92.16389Z"/></g></g></svg>