<svg xmlns="http://www.w3.org/2000/svg" xmlns:xlink="http://www.w3.org/1999/xlink" viewBox="0 0 1528 642"><defs><style>.cls-1,.cls-10,.cls-18,.cls-19,.cls-23,.cls-6{fill:none;}.cls-2{fill:#f7f7f7;}.cls-3{fill:#ebebeb;}.cls-4{fill:#070707;}.cls-5{fill:#fc8d2a;}.cls-6{stroke:#080808;stroke-width:1.23683px;}.cls-10,.cls-18,.cls-19,.cls-23,.cls-6{stroke-miterlimit:10;}.cls-7{fill:#2a2832;}.cls-8{fill:#60a2f4;}.cls-9{fill:#252728;}.cls-10{stroke:#252728;stroke-width:1.13363px;}.cls-11{fill:#37539a;}.cls-12{fill:#cedbea;}.cls-13{fill:#344b7e;}.cls-14{fill:#93b1ce;}.cls-15{fill:#fff;}.cls-16{fill:#f2f8fc;}.cls-17{fill:#c2ddef;}.cls-18{stroke:#fff;stroke-width:0.23639px;}.cls-19{stroke:#93b1ce;}.cls-20{fill:#fafbfc;}.cls-21{fill:#ce6363;}.cls-22{fill:#f99595;}.cls-23{stroke:#344b7e;stroke-linecap:round;stroke-width:2px;}.cls-24{fill:#bc610f;}.cls-25{fill:#f0bf9c;}.cls-26{fill:#eba588;}.cls-27{fill:#bc825b;}.cls-28{fill:#ff901b;}.cls-29{fill:#dd700e;}.cls-30{fill:#2d7fc9;}.cls-31{fill:#422c4f;}.cls-32{fill:#7c4756;}.cls-33{fill:#f99d87;}.cls-34{fill:#e36b85;}.cls-35{fill:#e68799;}.cls-36{fill:#dd9a05;}.cls-37{fill:#e9b98a;}.cls-38{fill:#4498e2;}.cls-39{fill:#1f2326;}.cls-40{fill:#f4b516;}.cls-41{fill:#5397e0;}.cls-42{fill:#ca876f;}.cls-43{fill:#304573;}.cls-44{fill:#f9f9f9;}.cls-45{fill:#b1dcfb;}.cls-46{fill:#dd9e10;}.cls-47{clip-path:url(#clip-path);}</style><clipPath id="clip-path"><rect class="cls-1" width="1528" height="642"/></clipPath></defs><title>crafting-the-digital-marketing-strategy</title><g id="BACKGROUND"><rect class="cls-2" width="1528" height="642"/></g><g id="OBJECTS"><path class="cls-3" d="M166.94556,615.09848S29.94744,487.3341,195.78735,369.65625C361.627,251.97855,224.629,51.92637,451.75745,6.53632S655.4521,167.923,900.60662,142.70631s423.61267,18.55989,432.62559,148.81221c9.01312,130.25218-45.065,219.35106,70.3017,323.58Z"/><rect class="cls-4" x="90.03845" y="612.74446" width="1347.9231" height="4.70804"/><path class="cls-5" d="M178.14507,503.4648a225.96224,225.96224,0,0,1-32.667-13.59409l-.794-6.4-5.01839,3.11267c-11.863-7.16228-20.78809-15.8809-16.29383-24.63136,4.57374-8.87744,14.817-10.51313,25.23484-6.09823l.76218,7.76576,5.17722-4.60558C166.44077,466.70041,177.14458,482.13666,178.14507,503.4648Z"/><path class="cls-6" d="M126.68029,463.61432s45.12824,4.89653,57.436,57.30351"/><path class="cls-5" d="M187.59415,482.21614s-15.99209-19.05713-36.00194-40.417l3.81142-9.41737s-6.13007.69875-11.16425,1.36579c-17.43723-21.01035-8.73454-35.748-4.98667-39.87693,3.31914-3.6526,20.45463-13.37183,37.98714,3.82722l-1.064,9.27459H184.831c.93694,1.36566,1.85795,2.8108,2.76317,4.36714C208.12813,446.27762,187.59415,482.21614,187.59415,482.21614Z"/><path class="cls-6" d="M143.62,393.87065s39.43754,30.83539,42.61377,69.74367S189.5,530.04938,189.5,530.04938"/><path class="cls-5" d="M235.49107,470.17838l-5.86005-1.00049,1.58806,4.62125c-21.6616,17.92964-24.25014,16.08736-32.96876,27.29925,0,0-9.86214-35.93839,12.41885-56.123l6.52709,2.22325-.85759-6.55868C244.01914,422.82151,258.37542,449.62848,235.49107,470.17838Z"/><path class="cls-6" d="M241.68457,441.11633S198.806,458.18826,195.23292,523.3"/><path class="cls-4" d="M228.58277,513.89846H150.24234s-3.46205,29.93556,3.43033,54.91616V603.308a8.65385,8.65385,0,0,0,4.93891,7.79747,10.15253,10.15253,0,0,0,4.31963,1.09577,6.28677,6.28677,0,0,0,3.52548-1.03221c2.96976-1.96927,4.70085-6.68591,5.17721-14.08638a32.195,32.195,0,0,0,17.77069,4.95483c8.22633.01592,14.817-2.33444,20.08946-6.28877.34925,8.16277,2.11205,13.32406,5.24065,15.42032a6.362,6.362,0,0,0,3.52548,1.03221,10.16187,10.16187,0,0,0,4.33555-1.09577,8.66725,8.66725,0,0,0,4.92311-7.79747V560.22312h-.04776C231.55253,537.46576,228.58277,513.89846,228.58277,513.89846Zm-62.99946,95.95242c-1.63581,1.08-3.76379,1.0322-6.2889-.17463a7.09543,7.09543,0,0,1-4.03369-6.36825V573.91249c3.12847,9.00443,7.84511,16.99258,14.84856,22.10611C169.68056,605.05488,167.52074,608.56457,165.58331,609.85088Zm60.34736-6.54288a7.08053,7.08053,0,0,1-4.0179,6.36825c-2.5409,1.20683-4.65308,1.2546-6.30469.17463-2.0485-1.36567-4.31964-5.17709-4.55782-15.3569,7.55942-6.44761,12.14882-16.35726,14.88041-27.06094Z"/><rect class="cls-7" x="146.00205" y="507.28675" width="86.8156" height="13.23406"/><path class="cls-8" d="M1333.28975,526.6333s-5.63316-6.68117-18.02017-15.19627v-3.90092l-2.73646,1.90674c-10.17442-8.06391-9.69407-16.12781.24756-17.26325a13.92964,13.92964,0,0,1,8.0639,1.36836l-.23305,3.7991,4.06117-.93168C1329.5198,501.40809,1332.86757,511.00034,1333.28975,526.6333Z"/><path class="cls-8" d="M1371.73155,485.14931a36.14929,36.14929,0,0,1-5.06538,5.41463l-5.92424-1.77577.93156,5.95326a290.39331,290.39331,0,0,1-24.94865,17.00119c-.64046-14.49751,2.22709-31.83344,14.70141-39.43151l4.36676,2.096-1.35373-3.66813a27.49481,27.49481,0,0,1,2.85292-1.048C1374.7591,464.40732,1378.58734,475.51341,1371.73155,485.14931Z"/><path class="cls-8" d="M1332.984,478.832a109.66451,109.66451,0,0,1-17.71445-11.32436v-4.74515l-3.33312,1.83393c-5.06552-4.8471-8.39879-10.26185-5.95341-15.10883,2.76561-5.47305,8.98094-5.8951,14.81775-2.40172l.24755,4.585,3.43509-1.79041C1330.5678,455.55735,1335.15283,465.73177,1332.984,478.832Z"/><path class="cls-8" d="M1369.388,458.54124l-5.90961-1.77578V460.812c-9.50494,3.42058-21.17868,6.76848-21.17868,6.76848,2.11064-11.04792,7.23431-20.9604,17.74359-24.14819l2.34343,2.24174,1.58664-3.08584c.72779-.102,1.47005-.16024,2.24148-.20377C1380.90175,441.65651,1378.95123,454.49484,1369.388,458.54124Z"/><path class="cls-8" d="M1337.9038,454.97506s-10.0143-11.13511-21.8045-22.88166l1.64481-6.01155-6.30265,1.441c-.11633-.11646-.24742-.23292-.36388-.34938-13.828-13.34756-7.01589-31.54236,13.59512-23.53662a23.4798,23.4798,0,0,1,5.22549,2.79463l-.74228,5.09453,5.09453-1.09166C1344.07561,422.21007,1341.48462,442.83561,1337.9038,454.97506Z"/><path class="cls-8" d="M1376.89888,422.73407a20.87945,20.87945,0,0,1-5.02172,6.39l-5.48754.5968.56764,3.275a107.88958,107.88958,0,0,1-20.62554,10.56758s.23279-16.81193,11.499-27.55413q.24041-.24017.48035-.43669l4.556,1.52835-.393-4.57053C1372.34287,406.99929,1381.49845,412.8361,1376.89888,422.73407Z"/><path class="cls-4" d="M1362.38673,528.99855h-56.40368l9.0974,57.99572v21.51534a4.6335,4.6335,0,0,0,1.398,3.14991,5.13541,5.13541,0,0,0,3.62614,1.241c.21674,0,.44067-.00861.67012-.02568,4.6269-.344,4.46485-9.43419,4.33479-16.73913-.01349-.75422-.02568-1.4843-.0326-2.1819h21.37732c-.007.6976-.01915,1.42768-.03264,2.1819-.13007,7.30494-.29211,16.39514,4.33466,16.73913.22958.01707.45351.02568.67025.02568a5.13541,5.13541,0,0,0,3.62614-1.241,4.63419,4.63419,0,0,0,1.398-3.14991V587.86418ZM1323.654,596.16126c.10735,5.98151.268,15.02061-2.98722,15.26085a4.12089,4.12089,0,0,1-3.18548-.81868,3.18917,3.18917,0,0,1-.94528-2.09382V593.9538h7.085C1323.62816,594.66052,1323.64049,595.39882,1323.654,596.16126Zm30.408,14.43216a4.12066,4.12066,0,0,1-3.19757.82869c-3.2552-.24024-3.09457-9.27934-2.98722-15.26085.01348-.76244.0258-1.50074.033-2.20746h7.085v14.55581A3.18483,3.18483,0,0,1,1354.06194,610.59342Z"/><rect class="cls-9" x="1302.70795" y="524.44986" width="62.58986" height="9.0974"/><path class="cls-10" d="M1375.123,416.00925s-38.93665,16.01135-40.93815,72.77892,0,65.50108,0,65.50108"/><path class="cls-10" d="M1307.92382,495.82346a35.94229,35.94229,0,0,1,25.37158,30.80984"/><path class="cls-10" d="M1371.72667,471.8065s-38.04723,19.40766-38.43127,59.67865"/><path class="cls-10" d="M1307.92382,450.57928s25.73778,8.13234,26.261,38.20889"/><path class="cls-10" d="M1311.07758,406.548s30.891,21.44678,26.82558,57.18358"/><path class="cls-10" d="M1375.123,448.032s-38.93665,3.88166-40.93815,45.6082"/><rect class="cls-11" x="826.49754" y="328.48391" width="12.91216" height="283.54328"/><rect class="cls-12" x="658.65293" y="169.69831" width="348.60137" height="283.54328"/><path class="cls-13" d="M1009.67939,173.55711H656.94291a4.97334,4.97334,0,0,1-4.97332-4.97332h0a4.97334,4.97334,0,0,1,4.97332-4.97331h352.73648a4.97336,4.97336,0,0,1,4.97345,4.97331h0A4.97337,4.97337,0,0,1,1009.67939,173.55711Z"/><path class="cls-14" d="M943.90539,319.67323H974.3651a4.8971,4.8971,0,0,1,4.8971,4.8971v29.93941a4.897,4.897,0,0,1-4.897,4.897H943.90529a4.897,4.897,0,0,1-4.897-4.897V324.57033A4.8971,4.8971,0,0,1,943.90539,319.67323Z"/><path class="cls-15" d="M959.97858,334.1597l-1.24445-.21789a6.441,6.441,0,0,0-.642-1.54953l.72533-1.03439a.95527.95527,0,0,0-.10709-1.22468l-.745-.745a.95532.95532,0,0,0-1.22468-.08718l-1.03427.7252a6.4387,6.4387,0,0,0-1.54964-.642l-.21406-1.27219a.95486.95486,0,0,0-.92332-.79261h-1.07407a.95486.95486,0,0,0-.9431.79261l-.218,1.24048a6.44127,6.44127,0,0,0-1.54966.642l-1.03039-.69349a.95481.95481,0,0,0-1.22457.107l-.745.745a.95516.95516,0,0,0-.10708,1.22468l.7252,1.03439a6.44317,6.44317,0,0,0-.642,1.54953l-1.24034.2179a.95533.95533,0,0,0-.79274.94335V336.177a.95529.95529,0,0,0,.79274.94322l1.24034.218a6.44007,6.44007,0,0,0,.642,1.5494l-.7252,1.03452a.955.955,0,0,0,.10708,1.22455l.745.7451a.95512.95512,0,0,0,1.22457.107l1.03437-.72533a6.44447,6.44447,0,0,0,1.54966.64213l.2179,1.24047a.95508.95508,0,0,0,.94322.79261h1.07009a.95508.95508,0,0,0,.94322-.79261l.2179-1.24047a6.434,6.434,0,0,0,1.54966-.64213l1.01051.70941a.95491.95491,0,0,0,1.22455-.107l.7451-.745a.95526.95526,0,0,0,.10709-1.22467l-.72533-1.04236a6.44007,6.44007,0,0,0,.642-1.5494l1.24445-.21815a.95522.95522,0,0,0,.79274-.94323V335.099A.95551.95551,0,0,0,959.97858,334.1597Zm-7.50614,4.31193a2.84547,2.84547,0,1,1,2.8456-2.84547v.01579A2.84557,2.84557,0,0,1,952.47244,338.47163Z"/><path class="cls-15" d="M973.45647,328.606l-.99908-.175a5.17527,5.17527,0,0,0-.51553-1.24394l.5823-.83049a.76689.76689,0,0,0-.0859-.98316l-.59809-.59809a.76685.76685,0,0,0-.98316-.07l-.83036.58217a5.16919,5.16919,0,0,0-1.24407-.5154l-.17178-1.02129a.76693.76693,0,0,0-.74127-.63635h-.86233a.76681.76681,0,0,0-.75718.63635l-.175.99587a5.17127,5.17127,0,0,0-1.24407.51553l-.82713-.55688a.76675.76675,0,0,0-.98318.0859l-.59809.59809a.76671.76671,0,0,0-.08589.98316l.58218.83036a5.17078,5.17078,0,0,0-.51542,1.24407l-.99574.175a.76655.76655,0,0,0-.63635.75717v.84642a.76665.76665,0,0,0,.63635.75717l.99574.175a5.16769,5.16769,0,0,0,.51542,1.24394l-.58218.83049a.76652.76652,0,0,0,.08589.983l.59809.59822a.7669.7669,0,0,0,.98318.0859l.83034-.5823a5.17652,5.17652,0,0,0,1.24407.51553l.175.99574a.76655.76655,0,0,0,.75718.63635h.85912a.76654.76654,0,0,0,.75717-.63635l.175-.99574a5.1661,5.1661,0,0,0,1.24407-.51553l.81123.56959a.76657.76657,0,0,0,.98305-.086l.5982-.59809a.76687.76687,0,0,0,.0859-.98316l-.5823-.83678a5.17125,5.17125,0,0,0,.51553-1.24394l.99908-.175a.76683.76683,0,0,0,.63635-.7573v-.84616A.76712.76712,0,0,0,973.45647,328.606Zm-6.02607,3.46166a2.28443,2.28443,0,1,1,2.28437-2.28436v.01271A2.28445,2.28445,0,0,1,967.4304,332.06768Z"/><path class="cls-15" d="M968.24022,348.10677l-.99908-.175a5.17527,5.17527,0,0,0-.51553-1.24394l.5823-.83049a.76687.76687,0,0,0-.0859-.98316l-.59809-.59809a.76685.76685,0,0,0-.98316-.07l-.83036.58217a5.16919,5.16919,0,0,0-1.24407-.5154l-.1718-1.02129a.7669.7669,0,0,0-.74125-.63635H961.791a.76679.76679,0,0,0-.75718.63635l-.175.99587a5.17127,5.17127,0,0,0-1.24407.51553l-.82715-.55688a.76672.76672,0,0,0-.98316.0859l-.59807.59809a.76669.76669,0,0,0-.08591.98316l.58216.83036a5.17193,5.17193,0,0,0-.5154,1.24407l-.99574.175a.76651.76651,0,0,0-.63633.75717v.84642a.76662.76662,0,0,0,.63633.75717l.99574.175a5.16884,5.16884,0,0,0,.5154,1.24394l-.58216.83049a.76649.76649,0,0,0,.08591.983l.59807.59822a.76688.76688,0,0,0,.98316.0859l.83036-.5823a5.17652,5.17652,0,0,0,1.24407.51553l.175.99574a.76657.76657,0,0,0,.75718.63635h.85912a.76654.76654,0,0,0,.75717-.63635l.175-.99574a5.16593,5.16593,0,0,0,1.24407-.51553l.81123.56959a.76654.76654,0,0,0,.983-.086l.59822-.59809a.76684.76684,0,0,0,.0859-.98316l-.5823-.83678a5.17125,5.17125,0,0,0,.51553-1.24394l.99908-.175a.76686.76686,0,0,0,.63637-.7573v-.84616A.76716.76716,0,0,0,968.24022,348.10677Zm-6.02607,3.46166a2.28443,2.28443,0,1,1,2.28437-2.28436v.01271A2.28445,2.28445,0,0,1,962.21415,351.56843Z"/><path class="cls-14" d="M943.90529,264.88919H974.3651a4.8971,4.8971,0,0,1,4.8971,4.8971V299.7256a4.8971,4.8971,0,0,1-4.8971,4.8971H943.90529a4.897,4.897,0,0,1-4.897-4.897V269.78619A4.897,4.897,0,0,1,943.90529,264.88919Z"/><path class="cls-16" d="M964.02112,296.56521a.905.905,0,0,1-.8988.87312h-.14124a1.48277,1.48277,0,0,1-1.361.95016,1.9337,1.9337,0,0,1-1.9902,1.75908l-.719-.01284a1.95225,1.95225,0,0,1-1.91329-1.8618,1.46734,1.46734,0,0,1-1.271-1.01436h-.16692a.89249.89249,0,0,1,.02568-1.78476h.08988l.02568-.92448h-.077a.899.899,0,0,1,.01284-1.7976h.10272l.03852-1.37388,7.43435.16692-.03864,1.38672h.0258a.89042.89042,0,0,1,.87312.91164.87684.87684,0,0,1-.886.87312h-.05136l-.02568.92448h.02568A.9128.9128,0,0,1,964.02112,296.56521Z"/><path class="cls-17" d="M970.3601,279.38812c.12545-5.3982-4.50748-9.88424-10.348-10.02s-10.677,4.13025-10.80242,9.52831a9.54912,9.54912,0,0,0,4.13718,7.9816l-.00064.00039a3.104,3.104,0,0,1,1.30634,2.53795l-.03056,1.31533a1.16638,1.16638,0,0,0,1.18308,1.14559l7.37786.17141a1.16633,1.16633,0,0,0,1.23508-1.08935l.03082-1.32688a3.08765,3.08765,0,0,1,1.3993-2.45745l-.00064-.00038A9.55,9.55,0,0,0,970.3601,279.38812Z"/><path class="cls-18" d="M958.3714,291.9369l.25615-11.01928a1.47648,1.47648,0,0,0-1.44178-1.51037h0a1.47639,1.47639,0,0,0-1.51039,1.44167l-.01913.82484a1.47639,1.47639,0,0,0,1.44168,1.51037l2.54822.06613"/><path class="cls-18" d="M960.54148,291.98737l.256-11.01942a1.47648,1.47648,0,0,1,1.51037-1.44168h0a1.47633,1.47633,0,0,1,1.44169,1.51037l-.01914.82484a1.47631,1.47631,0,0,1-1.51037,1.44168l-2.74417-.05688"/><path class="cls-14" d="M943.90539,210.10514H974.3651a4.8971,4.8971,0,0,1,4.8971,4.8971v29.93944a4.8971,4.8971,0,0,1-4.8971,4.8971H943.90529a4.897,4.897,0,0,1-4.897-4.897V215.00224A4.8971,4.8971,0,0,1,943.90539,210.10514Z"/><circle class="cls-15" cx="959.13522" cy="229.97193" r="15.2049" transform="translate(513.89189 1110.07751) rotate(-76.64854)"/><circle class="cls-14" cx="959.13525" cy="229.97196" r="11.1993"/><circle class="cls-15" cx="959.13525" cy="229.97196" r="8.20129"/><circle class="cls-14" cx="959.13525" cy="229.97196" r="5.36096"/><circle class="cls-15" cx="959.13525" cy="229.97196" r="2.95346"/><rect class="cls-14" x="724.40684" y="364.87761" width="23.112" height="40.98079"/><rect class="cls-14" x="777.49458" y="325.86827" width="23.112" height="79.99012"/><rect class="cls-14" x="830.58233" y="287.73039" width="23.112" height="118.128"/><rect class="cls-14" x="883.67008" y="254.34639" width="23.112" height="151.512"/><polygon class="cls-13" points="735.963 349.576 870.355 236.862 881.483 245.908 881.483 210.262 846.387 214.542 858.157 225.67 735.963 349.576"/><polyline class="cls-19" points="690.777 214.114 690.777 405.858 939.691 405.858"/><polygon class="cls-13" points="437.91 412.656 271.812 412.656 218.459 177.099 384.557 177.099 437.91 412.656"/><rect class="cls-13" x="224.04248" y="595.86771" width="226.49747" height="17.11315"/><rect class="cls-13" x="258.26878" y="318.03065" width="15.09984" height="286.39363"/><rect class="cls-13" x="408.26039" y="331.93213" width="15.09984" height="272.49215"/><rect class="cls-13" x="265.8187" y="412.65632" width="184.05022" height="13.42204"/><rect class="cls-13" x="236.62568" y="343.70038" width="68.45248" height="12.07987"/><polygon class="cls-13" points="251.558 160.657 265.819 160.657 275.717 185.823 261.624 185.823 251.558 160.657"/><polygon class="cls-13" points="335.11 160.657 349.371 160.657 359.27 185.823 345.177 185.823 335.11 160.657"/><polygon class="cls-15" points="443.493 412.656 277.395 412.656 224.042 177.099 390.141 177.099 443.493 412.656"/><path class="cls-20" d="M443.49811,412.65721H277.39987l-4.33992-19.183c7.65264-25.69284,38.03208-38.4558,86.20776-43.1424,37.955-3.68508,50.10168-40.94676,53.23464-74.49768Z"/><ellipse class="cls-21" cx="331.2376" cy="301.05145" rx="60.19176" ry="69.64507" transform="translate(-83.88041 133.6377) rotate(-20.30289)"/><ellipse class="cls-22" cx="334.44494" cy="296.55745" rx="60.19179" ry="69.6451" transform="translate(-82.12168 134.47108) rotate(-20.30285)"/><ellipse class="cls-15" cx="334.44494" cy="296.55745" rx="44.33523" ry="51.29817" transform="matrix(0.93787, -0.34699, 0.34699, 0.93787, -82.12224, 134.47253)"/><ellipse class="cls-22" cx="334.44494" cy="296.55742" rx="29.23013" ry="33.82082" transform="translate(-82.12485 134.47924) rotate(-20.30397)"/><ellipse class="cls-15" cx="334.44491" cy="296.55749" rx="18.95311" ry="21.92981" transform="translate(-82.1228 134.47393) rotate(-20.30324)"/><path class="cls-22" d="M341.746,293.85627c1.72621,4.66554-.1433,9.65709-4.1757,11.149s-8.70038-1.081-10.42646-5.74654.14342-9.65709,4.17569-11.149S340.0199,289.19073,341.746,293.85627Z"/><line class="cls-23" x1="333.76785" y1="296.66322" x2="411.29539" y2="253.86969"/><polyline class="cls-23" points="399.739 251.896 399.739 260.248 406.801 264.522"/><polyline class="cls-23" points="407.764 247.557 407.764 255.909 414.826 260.183"/><path class="cls-13" d="M337.14439,287.07238c-.26527.7957-5.90679,10.858-5.90679,10.858l12.00579.61773Z"/><polygon class="cls-24" points="452.349 317.543 448.147 312.729 449.457 287.208 454.049 288.777 455.879 307.667 452.349 317.543"/><path class="cls-25" d="M403.99959,284.01034l45.16752,28.30321a9.92073,9.92073,0,0,0,14.31442-4.3353h0a9.92046,9.92046,0,0,0-5.37521-13.28734l-49.54968-19.73842-2.17947-4.31232a19.61809,19.61809,0,0,0-5.45918-6.63237l-5.64742-4.39564h0a4.202,4.202,0,0,0,.693,5.6148l.47123.40472-5.23693-2.25175a22.39025,22.39025,0,0,0-7.007-1.7447h0a7.43709,7.43709,0,0,0-7.6172,4.92465h0a7.43651,7.43651,0,0,0,4.87958,9.61177l3.59867,1.07522,6.27529,3.6481a23.16581,23.16581,0,0,0,12.67244,3.11537Z"/><path class="cls-26" d="M396.43478,265.63168h0a13.32856,13.32856,0,0,0,4.80588,12.7419l1.49188,1.19168-1.47776-.52631a9.21516,9.21516,0,0,1-4.82-13.40727Z"/><polygon class="cls-27" points="449.558 313.92 455.879 318.206 453.795 292.486 448.997 290.629 449.558 313.92"/><path class="cls-28" d="M449.45666,288.04467v-.837s36.19339,12.58731,40.29692,11.49912l23.20843-6.1564,14.62759-1.38351,23.49707,5.54521a18.97178,18.97178,0,0,1,13.4879,12.02492l12.91524,35.78893-21.54141,5.13818,3.9528,52.37077H486.77971l2.569-50.5923-3.35959-18.18144-33.64028-15.71783.07241-4.588C452.55829,304.28149,455.11473,294.62042,449.45666,288.04467Z"/><path class="cls-29" d="M485.98915,333.26111,482.432,312.95529l-.66511,4.48938a29.39774,29.39774,0,0,0,1.55441,14.6308h0Z"/><path class="cls-29" d="M555.9484,349.66408l-4.44623.93874-6.52169-30.82961,6.37313-16.30411h0a18.75849,18.75849,0,0,0-7.26269,14.82327v1.46235h0a21.62625,21.62625,0,0,0-1.75072,14.18768l4.75387,21.867a8.88488,8.88488,0,0,0,2.39954,4.39551h0a8.88515,8.88515,0,0,1,2.57275,5.55317l2.68471,36.27673h5.15Z"/><path class="cls-25" d="M558.54234,592.422a6.66264,6.66264,0,0,0-4.71151-1.95142h-7.65456a13.72943,13.72943,0,0,0,1.04556-9.65234l-.43079-1.66188h18.3345l2.54541,15.21719h-4.4171A6.66331,6.66331,0,0,1,558.54234,592.422Z"/><path class="cls-4" d="M531.24065,602.605l4.36444-1.71054a13.73074,13.73074,0,0,0,5.366-3.79114l3.33544-3.84854a13.72987,13.72987,0,0,0,1.86977-2.78422h7.65456a6.66264,6.66264,0,0,1,4.71151,1.95142,6.66331,6.66331,0,0,0,4.71151,1.95155h4.4171l2.26458,13.53722H524.74631A13.7188,13.7188,0,0,1,531.24065,602.605Z"/><path class="cls-15" d="M569.93553,607.91077l.835,4.99013H522.74764a13.70551,13.70551,0,0,1,1.99867-4.99013Z"/><path class="cls-25" d="M508.29608,592.422a6.66279,6.66279,0,0,0-4.71138-1.95142h-6.66961a13.72061,13.72061,0,0,0,2.1846-8.24482l-.18066-3.0694h18.27479l-.37506,8.25072,1.18809,6.96647h-4.99913A6.66363,6.66363,0,0,1,508.29608,592.422Z"/><path class="cls-4" d="M481.63665,602.605l4.36457-1.71054a13.72864,13.72864,0,0,0,5.36584-3.79114l4.40193-5.07925a13.76248,13.76248,0,0,0,1.1461-1.55351h6.66961a6.66279,6.66279,0,0,1,4.71138,1.95142,6.66363,6.66363,0,0,0,4.71164,1.95155h4.99913l2.3085,13.53722h-45.173A13.71946,13.71946,0,0,1,481.63665,602.605Z"/><path class="cls-15" d="M520.31535,607.91077l.851,4.99013H473.1435a13.70821,13.70821,0,0,1,1.99881-4.99013Z"/><path class="cls-8" d="M559.90107,402.03485l.37313,1.63325A151.05409,151.05409,0,0,1,564.042,439.99l-.88,49.39509,6.066,96.37974H544.789l-19.4725-90.05578-4.15014,90.05578H495.91152l-7.35321-95.9844-3.65825-50.27116a151.03635,151.03635,0,0,1,1.22725-33.06275l.6524-4.41169Z"/><polygon class="cls-30" points="525.317 495.709 520.651 426.145 501.108 421.6 517.609 429.702 516.226 475.848 521.759 494.919 518.005 512.112 521.759 520.017 518.597 528.317 521.166 585.765 525.317 495.709"/><path class="cls-30" d="M514.59539,402.03485,513.47163,412.751a13.75209,13.75209,0,0,0,.36517,4.8846l1.91085,7.369-3.629-1.90443a7.87145,7.87145,0,0,1-3.84084-4.57656l-.85335-2.67393a5.43983,5.43983,0,0,1-.195-2.4785l1.73379-11.33631Z"/><path class="cls-25" d="M524.28432,285.9981a17.936,17.936,0,0,0,3.80205-6.51579c.15679-.44413.291-.8952.42591-1.34589l1.25114-.21032,2.07467,17.885-3.26546,2.04849a16.53069,16.53069,0,0,1-17.68261-.07229h0l-.87132-8.50855a13.30019,13.30019,0,0,0,4.31591.83832A13.57606,13.57606,0,0,0,524.28432,285.9981Z"/><path class="cls-31" d="M528.51228,278.13642c-.135.45069-.26912.90176-.42591,1.34589a17.936,17.936,0,0,1-3.80205,6.51579,13.57606,13.57606,0,0,1-9.94971,4.11894,13.30019,13.30019,0,0,1-4.31591-.83832l-.80854-7.89429Z"/><path class="cls-25" d="M515.63286,285.23823h0a20.15785,20.15785,0,0,0,20.1579-20.15778V252.01332a20.15774,20.15774,0,0,0-20.1579-20.15765h0a20.15766,20.15766,0,0,0-20.15752,20.15765v13.06713A20.15777,20.15777,0,0,0,515.63286,285.23823Z"/><path class="cls-4" d="M508.46082,225.32538a22.38779,22.38779,0,0,1,30.07783,4.33992c4.014,4.94866,5.746,11.43543,6.008,17.80188a91.45594,91.45594,0,0,1-1.246,19.23124H535.8809a8.20327,8.20327,0,0,1-5.72253-7.81917V250.551c-15.10793,0-17.68479-4.20574-23.12446-10.78188-8.61962,0-11.55857,8.51331-11.55857,16.12191v9.18945s-6.50243-18.64406-6.62107-23.49565a18.01091,18.01091,0,0,1,5.03957-13.22752C497.35666,224.95712,503.81325,223.92838,508.46082,225.32538Z"/><path class="cls-25" d="M532.82767,266.69842a7.45973,7.45973,0,1,0,7.45991-7.45991A7.45969,7.45969,0,0,0,532.82767,266.69842Z"/><path class="cls-26" d="M535.8809,266.69842a4.40662,4.40662,0,1,0,4.40668-4.40681A4.40647,4.40647,0,0,0,535.8809,266.69842Z"/><path class="cls-25" d="M573.17519,345.56684l-19.32882,4.75221,4.70072,25.84654L552.7836,424.2433l-7.06508,8.92213a5.8103,5.8103,0,0,0-.9752,5.30035l4.113,13.33935,1.083.20146a7.16972,7.16972,0,0,0,8.14968-8.4459h0a28.386,28.386,0,0,0,5.62507-16.01546l13.63095-46.06478a25.88847,25.88847,0,0,0,.55225-12.43631Z"/><polygon class="cls-27" points="573.125 345.567 554.034 350.068 555.347 356.99 573.535 347.521 573.125 345.567"/><path class="cls-32" d="M516.1878,252.00266a7.4928,7.4928,0,0,1,5.97317,2.96925H510.21452A7.49227,7.49227,0,0,1,516.1878,252.00266Z"/><path class="cls-31" d="M514.51244,259.61241a1.67524,1.67524,0,1,0,1.67536-1.67536A1.67508,1.67508,0,0,0,514.51244,259.61241Z"/><path class="cls-32" d="M499.07119,252.00266a5.93885,5.93885,0,0,0-4.95881,2.96925H504.03A5.93851,5.93851,0,0,0,499.07119,252.00266Z"/><path class="cls-31" d="M500.46189,259.61241a1.41488,1.41488,0,1,1-1.3907-1.67536A1.55278,1.55278,0,0,1,500.46189,259.61241Z"/><path class="cls-26" d="M505.891,268.07h6.21841a3.75088,3.75088,0,0,1-2.942,1.91278A4.35858,4.35858,0,0,1,505.891,268.07Z"/><path class="cls-15" d="M502.84011,272.52406a52.54126,52.54126,0,0,0,14.74867.81778,8.42146,8.42146,0,0,1-7.4377,4.66156C507.09734,277.9089,504.03526,275.33576,502.84011,272.52406Z"/><polygon class="cls-11" points="1029.116 449.486 1038.481 449.486 1005.566 613.099 996.201 613.099 1029.116 449.486"/><polygon class="cls-33" points="1025.398 583.765 1020.019 605.249 1001.848 605.249 1006.392 583.765 1025.398 583.765"/><path class="cls-4" d="M987.969,604.9882l4.19431-1.64391a13.19328,13.19328,0,0,0,5.15667-3.64322l3.20525-3.69844a13.19239,13.19239,0,0,0,1.797-2.67559h7.35591a6.40321,6.40321,0,0,1,4.52789,1.87528,6.40262,6.40262,0,0,0,4.52764,1.87541h4.24478l2.17638,13.00923H981.72812A13.1834,13.1834,0,0,1,987.969,604.9882Z"/><path class="cls-15" d="M1025.1548,610.087l.80237,4.79548H979.80726a13.17112,13.17112,0,0,1,1.92086-4.79548Z"/><polygon class="cls-33" points="1036.553 583.765 1040.272 610.207 1058.864 610.207 1058.117 583.765 1036.553 583.765"/><path class="cls-4" d="M1023.56829,604.9882l4.19419-1.64391a13.19249,13.19249,0,0,0,5.15667-3.64322l3.20538-3.69844a13.18722,13.18722,0,0,0,1.79683-2.67559h7.356a6.403,6.403,0,0,1,4.52777,1.87528,6.40315,6.40315,0,0,0,4.52777,1.87541h4.24477L1060.754,610.087h-43.42669A13.18375,13.18375,0,0,1,1023.56829,604.9882Z"/><path class="cls-15" d="M1060.754,610.087l.80236,4.79548h-46.14979a13.17145,13.17145,0,0,1,1.92074-4.79548Z"/><path class="cls-34" d="M1022.628,494.49974s-26.08,95.23068-21.91531,96.17288,26.20016-2.914,26.20016-2.914l15.97564-65.00455Z"/><path class="cls-35" d="M1058.31333,587.75858l-3.30526-67.21046s70.51328,16.52893,108.52443,3.85855,20.9337-56.19028,20.9337-56.19028l-129.45813,8.26331s-41.31644-4.412-34.15493,44.06842,11.56859,67.21046,11.56859,67.21046Z"/><path class="cls-9" d="M1174.55025,534.79217c9.03692-4.23989,22.35406-14.69756,28.09508-40.271,9.08969-40.49017,4.13165-66.93261-20.245-66.51942s-8.6765,44.07074-23.41258,67.75887-49.16655.55083-51.09473,20.93356c-1.47133,15.55386,9.56054,19.55584,14.874,20.58085v4.20908h4.98l-29.63215,71.61523h9.469l14.13209-34.155h54.36726l14.13222,34.155h9.469l-29.63215-71.61523h4.498Zm-1.77218,36.16438h-47.757l12.19479-29.47243h23.36738Z"/><polygon class="cls-11" points="1089.852 449.486 1080.486 449.486 1113.402 613.099 1122.767 613.099 1089.852 449.486"/><path class="cls-36" d="M1186.25866,484.81684c.30611,4.80614-2.83494,10.33645-5.54007,13.63377-9.79782-4.192-17.92143-11.26954-28.45075-14.07226-12.2595-3.2629-25.14842-3.2629-37.68783-4.54484-8.67161-.92936.34244-15.31,2.371-19.29737,3.51765-6.91421,6.24294-16.79947,5.56421-24.56831,12.63431,6.97109,30.13523,13.74663,37.93989,26.20156,2.81491,4.49259,5.92553,10.7449,10.81963,13.36914,4.40619,2.36243,10.1033.34282,13.467,4.93377A8.07959,8.07959,0,0,1,1186.25866,484.81684Z"/><path class="cls-37" d="M1052.01,387.25762s-11.34247-12.71931-6.74844-14.92278,9.50288-2.728,10.32914-2.36127-4.40708-12.80264-1.37722-13.04634,7.61283,15.271,7.93807,24.31562S1052.01,387.25762,1052.01,387.25762Z"/><path class="cls-38" d="M1047.14048,384.48854l16.83349-3.63975,11.82885,35.03176s38.64121-50.53362,54.56474-51.44346l-9.524,40.9795s-34.5767,35.48668-39.58122,36.39665-18.19839,2.72965-23.20291-2.27486S1047.14048,384.48854,1047.14048,384.48854Z"/><path class="cls-39" d="M1158.88314,317.03232q8.8527,21.27883,17.59041,42.60517c1.24279,3.03281,4.36047,7.75215,4.49749,10.99246.1072,2.541-2.11695,3.38436-4.59415,4.35764-5.1834,2.03591-10.87691,2.102-16.305,3.01714-6.36389,1.07278-12.77824,2.511-19.19079,3.23517-7.851.8866-14.34922-5.466-16.58-12.62339-1.98031-6.35375-1.3446-13.18835-.68912-19.81174.65959-6.66576,1.28413-13.33575,1.77834-20.016.296-4.00325.60375-8.02371.64713-12.03942.04265-3.95331-3.896-7.30288-.488-11.07322,2.02589-2.24148,5.16322-3.03,8.10743-3.70883,4.0722-.93886,8.37206-1.87246,12.36763-.64855C1152.72315,303.37043,1156.19226,310.56391,1158.88314,317.03232Z"/><path class="cls-30" d="M1108.47985,414.24768c-.382-15.12719,9.47772-28.52662,12.60415-43.33243a482.33132,482.33132,0,0,0-.30857,53.13218c.26656,5.40307-2.90042,11.80651-7.69488,6.15511C1109.77348,426.30444,1108.604,419.15911,1108.47985,414.24768Z"/><path class="cls-40" d="M1184.52886,464.06406c.36786,6.43438.55687,12.87852.5204,19.3242-.05495,9.72758-8.1733,11.49642-16.09032,6.90959-8.2-4.75067-16.76223-9.40119-26.36794-10.32-13.83679-1.32342-14.74432-4.73283-14.63184-19.713.11-14.64569-6.50024-27.94074-10.50954-41.71164-1.87349-6.43451-4.01751-14.1882-3.56927-20.95051.48728-7.35463,4.783-15.12231,7.53734-22.01482,5.77543-14.44783,25.82766-13.69348,38.46543-11.96688,7.08718.96826,15.02318,1.39583,19.445,7.31661,5.999,8.03245,6.68091,19.42448,4.47911,28.85649-2.76831,11.8598-7.87773,23.778-5.72638,35.76531,1.39545,7.77616,5.3675,13.51346,5.97714,21.48016Q1184.32689,460.54949,1184.52886,464.06406Z"/><path class="cls-38" d="M1143.09315,365.695c-.17963,1.156-9.98207,3.86959-11.05306,7.22777s-8.321,25.36054-8.321,25.36054l3.98862,45.32943-6.23921,38.66356-15.43574-4.15246,10.37973-45.705-3.65142-37.808,11.18041-27.22221s6.27478-4.41709,16.70946-4.67761S1143.09315,365.695,1143.09315,365.695Z"/><path class="cls-8" d="M1156.82861,361.39439s-13.71581,24.9426-13.18745,40.659c.74665,22.2096-4.358,46.70319,2.19731,68.907,2.522,8.54246,8.79733,14.24226,15.298,19.88261,2.89529,2.51215,7.70723,5.56191,9.43535,9.07467,1.99122,4.0482-.28569,8.53591,3.52034,12.47894a15.45117,15.45117,0,0,0,9.872,4.22154,45.9427,45.9427,0,0,0,10.91452-.80931c-5.73833.889-6.66884-39.206-7.1253-43.23587-2.27641-20.10166-4.64447-40.28165-7.44977-60.24092-.58165-4.13743-.67295-44.89557-3.06889-45.531Z"/><path class="cls-41" d="M1175.31245,390.11452c-3.20154,13.08357-6.43992,26.21427-11.20932,38.833a132.38457,132.38457,0,0,1-8.60063,18.62159c-2.58161,4.54549-4.13793,9.67276-6.65842,13.98135-.13317.22753-5.9755-14.76292-6.24591-16.89282-.99767-7.85666,2.47737-10.26391,7.24229-16.27945A278.51394,278.51394,0,0,0,1175.31245,390.11452Z"/><path class="cls-41" d="M1145.84284,470.95567c-.09874.32434,5.49885,9.3135,5.92938,10.02149a55.01283,55.01283,0,0,0,9.9,12.03314c.41833.3816,11.18392-18.14921,12.01054-19.9029a135.38087,135.38087,0,0,0,8.21683-23.9163c2.58713-9.93315.78324-18.98959-.52066-29.0356C1181.379,420.1555,1146.39226,470.16871,1145.84284,470.95567Z"/><path class="cls-37" d="M1160.99457,360.63773c-1.06523,4.61855-5.34364,7.46325-9.60344,8.83944-2.68908.88339-11.86119,2.87539-13.93718.688-1.42871-1.48918-.48741-3.91774.26669-5.84824a20.157,20.157,0,0,0,1.27758-5.30767,23.9334,23.9334,0,0,0-4.23425-15.68213c.019-.02273.019-.02273-.0018-.0208-.46211-.73522-.9603-1.40431-1.481-2.09241a.02045.02045,0,0,1-.0226-.019l.93013-.62569a8.438,8.438,0,0,1,.98844-.44209c2.207-.88339,4.66013-.86631,7.021-1.4278a100.13184,100.13184,0,0,0,12.45249-4.26789c.7496-.29558,1.48009-.56856,2.21092-.84179C1151.5185,335.521,1161.879,356.83106,1160.99457,360.63773Z"/><path class="cls-42" d="M1156.10212,335.7619c-2.50623,13.1045-12.20377,21.82633-15.65247,24.57781a23.93265,23.93265,0,0,0-4.23425-15.68213c.019-.0226.019-.0226-.00179-.0208-.74973-1.63209-1.3283-2.02179-1.481-2.09241a.02045.02045,0,0,1-.0226-.019l.93013-.62556a8.41861,8.41861,0,0,1,.98855-.44221c2.20707-.8834,4.66015-.86632,7.02092-1.42781A100.13007,100.13007,0,0,0,1156.10212,335.7619Z"/><path class="cls-37" d="M1161.12706,305.37976c4.53932,6.45429,3.75161,12.70634,3.02562,20.00909-.45852,4.61238-3.794,13.49946-10.28189,11.47421a9.44574,9.44574,0,0,0-.32049,1.15714c-2.61794,9.66-17.20752,20.97478-26.43845,12.53364-7.14636-6.535-9.24326-19.04956-9.17354-28.26264.00616-.78953.03595-1.53528.08936-2.227.34527-4.48437.50847-10.00685,2.12438-14.24174,1.08331-2.83944,3.54192-4.66465,6.1867-6.24769C1137.02073,293.18228,1153.64326,294.73861,1161.12706,305.37976Z"/><path class="cls-39" d="M1168.07221,365.11735c-3.90336-.67577-5.713-2.7312-8.121-5.8395-4.74733-6.05843-5.645-12.63906-6.19722-19.9341-.52786-7.024,2.65685-14.37734.6949-21.24417a25.11713,25.11713,0,0,1-1.269-5.142c-.01451-.33628-.00835-.676-.00552-1.03632-.00629.33975-.03287.683-.03915,1.02271-.1438,3.91941-.267,7.83535-.41423,11.73422-2.6001-1.23419-5.168-1.648-7.84986-2.61423-3.93893-1.38942-2.91056-.18669-3.79294-4.16594a22.85835,22.85835,0,0,1-.19311-5.91616c.06612-1.36591.17706-2.71848.16448-3.92287-.22766,1.28746-.45878,2.55413-.68628,3.84147-.49911,2.81491-1.01554,5.65422-1.51476,8.46913-3.02418-.48535-6.028-.97378-9.03191-1.46234-.109-3.28422-.21468-6.5475-.32368-9.83159-.05086-1.55788-.10529-3.13643-.15641-4.69443-.3748,1.418-.72892,2.83263-1.10385,4.25055-.79377,3.07646-1.61193,6.13585-2.4057,9.21232q-6.21925-.53928-12.43888-1.07844a24.54629,24.54629,0,0,1,2.221-14.45219c.31458-.646.6497-1.295,1.01216-1.90674,2.78487-4.70316,5.58681-5.66244,9.44061-7.5399.74408-.35849,1.50189-.76129,2.33483-1.21929,3.9872-2.21759,7.13056-4.16568,11.62816-4.98757,7.17-1.29324,19.09526.37981,19.71325,9.696a7.17715,7.17715,0,0,1,2.587-.22431,8.65171,8.65171,0,0,1,3.47527,1.15,9.30567,9.30567,0,0,1,2.41292,2.00663c2.50712,2.94319,2.98155,7.01231,3.35918,10.88627.10541,1.25254.20724,2.48428.381,3.64039a109.69039,109.69039,0,0,0,3.624,16.59981,113.66332,113.66332,0,0,0,6.04214,15.87474,47.21685,47.21685,0,0,0,3.875,7.53939C1190.97826,361.54372,1173.10819,365.98315,1168.07221,365.11735Z"/><path class="cls-42" d="M1134.20119,324.44511s-4.35725,10.20844-7.50639,12.216,5.24951,4.12664,8.20142.21417c0,0-2.9799,1.347-3.10278-1.22083S1134.20119,324.44511,1134.20119,324.44511Z"/><path class="cls-39" d="M1123.84278,326.72845c-.11171,1.73352.48946,3.18355,1.34268,3.2385s1.63569-1.3057,1.74752-3.03923-.48933-3.18355-1.34267-3.2385S1123.95462,324.99492,1123.84278,326.72845Z"/><path class="cls-39" d="M1138.29088,327.00168c-.11171,1.73353.48931,3.18355,1.34266,3.23851s1.63569-1.3057,1.74753-3.03923-.48947-3.18355-1.34267-3.23851C1139.185,323.90737,1138.4027,325.26815,1138.29088,327.00168Z"/><path class="cls-15" d="M1126.40025,341.28913a14.78483,14.78483,0,0,0,11.541-.69374,8.29374,8.29374,0,0,1-6.70593,3.63423C1126.80176,344.20664,1126.40025,341.28913,1126.40025,341.28913Z"/><path class="cls-37" d="M1122.41369,429.66352s-5.53674-3.7-11.21649-7.58331-11.07786-3.8493-15.83943-3.6603c-2.53052.10041-7.95889,4.4682-.723,4.0663s-7.02374,2.36937,1.033,8.01589c8.63272,6.05033,15.2398,2.2366,18.41849,7.37272S1122.41369,429.66352,1122.41369,429.66352Z"/><path class="cls-8" d="M1167.74274,393.00968s-3.499,33.62013-8.5753,34.60676-40.32083-4.56578-40.32083-4.56578l-10.37755,16.00044s73.52276,34.7381,78.12562,13.95528,10.57374-64.647-9.36-86.20532C1173.32288,362.57028,1167.74274,393.00968,1167.74274,393.00968Z"/><polygon class="cls-11" points="863.438 449.486 854.072 449.486 886.988 613.099 896.353 613.099 863.438 449.486"/><polygon class="cls-11" points="802.702 449.486 812.067 449.486 779.152 613.099 769.787 613.099 802.702 449.486"/><rect class="cls-2" x="776.81072" y="442.04924" width="323.36987" height="14.87398"/><rect class="cls-43" x="996.08286" y="434.7696" width="80.4164" height="6.14779"/><path class="cls-43" d="M922.84132,440.53823,897.291,382.75309a3.38422,3.38422,0,0,1,3.09534-4.7526h109.97331a3.38389,3.38389,0,0,1,3.12051,2.075l25.77553,61.44761Z"/><path class="cls-13" d="M917.10941,440.53823l-25.55018-57.78514a3.38409,3.38409,0,0,1,3.09508-4.7526h109.97357a3.384,3.384,0,0,1,3.1205,2.075l25.7754,61.44761Z"/><path class="cls-15" d="M969.6141,404.68253c1.86526,5.632-.50782,11.48448-5.30048,13.07163-4.7924,1.58715-10.18931-1.69193-12.05484-7.32406-1.86513-5.632.50783-11.48474,5.30048-13.07164C962.35167,395.77131,967.74872,399.05039,969.6141,404.68253Z"/><path class="cls-28" d="M614.84395,214.42174H560.808a13.06111,13.06111,0,0,1-13.06085-13.061h0a13.06085,13.06085,0,0,1,13.06085-13.061h54.036a13.061,13.061,0,0,1,13.061,13.061h0A13.06122,13.06122,0,0,1,614.84395,214.42174Z"/><path class="cls-15" d="M576.83383,201.39479a3.34163,3.34163,0,1,1-3.35214-3.33108A3.34149,3.34149,0,0,1,576.83383,201.39479Z"/><path class="cls-15" d="M591.16776,201.35023a3.34182,3.34182,0,1,1-3.35214-3.33146A3.34179,3.34179,0,0,1,591.16776,201.35023Z"/><path class="cls-15" d="M605.50144,201.30568a3.34169,3.34169,0,1,1-3.35213-3.33147A3.34119,3.34119,0,0,1,605.50144,201.30568Z"/><circle class="cls-22" cx="1207.87342" cy="185.82321" r="28.59855"/><path class="cls-15" d="M1217.59676,178.4655a5.92763,5.92763,0,0,0-8.38852.08873l-1.511,1.54272-1.55493-1.53142a5.93156,5.93156,0,1,0-8.3234,8.45308l5.77017,5.68311c.0122.01207.02016.02671.03248.03852a5.93078,5.93078,0,0,0,8.388-.08808l5.67644-5.79675A5.93367,5.93367,0,0,0,1217.59676,178.4655Z"/><path class="cls-8" d="M1038.97847,38.254h46.80169a4.17851,4.17851,0,0,1,4.17851,4.17851V83.10886a4.1783,4.1783,0,0,1-4.1783,4.1783h-45.6256a5.3547,5.3547,0,0,1-5.3547-5.3547v-39.5A4.1784,4.1784,0,0,1,1038.97847,38.254Z"/><path class="cls-44" d="M1057.826,73.34587c4.67928.08013,9.4166.14356,13.71954-.154,1.36258-.0945,2.53962-2.25881.88521-2.94177a3.06075,3.06075,0,0,0,1.70577-1.48225,1.46209,1.46209,0,0,0-.82792-1.93242c1.62285.40176,2.26267-2.17381.99679-3.00507a3.79112,3.79112,0,0,0,1.36885-2.19385,2.19863,2.19863,0,0,0-.98751-2.27011,3.54831,3.54831,0,0,0-1.68693-.29121q-2.919-.02157-5.83771-.04353c.52709-3.04526.68566-6.36389-.86207-9.03833-.46584-.80571-1.71851-1.77128-2.71258-1.15162-.93193.58127-.67333,2.02564-.62659,2.93689a10.28385,10.28385,0,0,1-5.30729,9.383S1057.87483,69.23,1057.826,73.34587Z"/><rect class="cls-44" x="1049.05696" y="61.16161" width="7.0724" height="12.17348"/><path class="cls-45" d="M1322.48975,297.46836l-39.04618.0841a4.7,4.7,0,0,1-4.70638-4.69366h0a4.69955,4.69955,0,0,1,4.69328-4.70638l39.04657-.08436a4.7001,4.7001,0,0,1,4.70637,4.69354h0A4.7003,4.7003,0,0,1,1322.48975,297.46836Z"/><path class="cls-45" d="M229.43252,301.59651l-79.85209.08436a4.7,4.7,0,0,1-4.70637-4.69353h0a4.70022,4.70022,0,0,1,4.69353-4.70663l79.85184-.08423a4.70023,4.70023,0,0,1,4.7065,4.69366h0A4.69973,4.69973,0,0,1,229.43252,301.59651Z"/><path class="cls-45" d="M1103.92319,126.64335h9.02055a2.76125,2.76125,0,0,1,2.76125,2.76125v8.56357a2.76131,2.76131,0,0,1-2.76131,2.76131h-9.02055a2.76125,2.76125,0,0,1-2.76125-2.76125v-8.56357a2.76131,2.76131,0,0,1,2.76131-2.76131Z" transform="translate(-0.18322 1.52797) rotate(-0.07898)"/><path class="cls-45" d="M51.37132,477.00323h9.02061a2.76137,2.76137,0,0,1,2.76137,2.76137v8.56384a2.76118,2.76118,0,0,1-2.76118,2.76118H51.37137a2.7612,2.7612,0,0,1-2.7612-2.7612v-8.564a2.76115,2.76115,0,0,1,2.76115-2.76115Z" transform="translate(-0.66715 0.07749) rotate(-0.07898)"/><path class="cls-15" d="M639.56009,321.75916h7.92551a2.4258,2.4258,0,0,1,2.4258,2.4258v7.52388a2.42591,2.42591,0,0,1-2.42591,2.42591H639.5603a2.426,2.426,0,0,1-2.426-2.426v-7.52381a2.42579,2.42579,0,0,1,2.42579-2.42579Z" transform="translate(-0.44316 0.87107) rotate(-0.07753)"/><path class="cls-15" d="M603.43009,142.9429H564.52938a4.62822,4.62822,0,0,1-4.62831-4.62817h0a4.62834,4.62834,0,0,1,4.62831-4.62831h38.90071a4.62819,4.62819,0,0,1,4.628,4.62831h0A4.62808,4.62808,0,0,1,603.43009,142.9429Z"/><path class="cls-8" d="M931.53425,123.50482H892.63368a4.628,4.628,0,0,1-4.62831-4.62805h0a4.62825,4.62825,0,0,1,4.62831-4.62831h38.90057a4.62831,4.62831,0,0,1,4.62818,4.62831h0A4.62809,4.62809,0,0,1,931.53425,123.50482Z"/><rect class="cls-22" x="718.34468" y="71.19722" width="64.19384" height="53.18842" rx="6.6615"/><rect class="cls-2" x="728.78912" y="101.95608" width="7.6728" height="10.09596"/><rect class="cls-2" x="740.6665" y="95.08977" width="7.6728" height="16.96228"/><rect class="cls-2" x="752.54389" y="89.84103" width="7.6728" height="22.21102"/><rect class="cls-2" x="764.42127" y="81.96626" width="7.67293" height="30.08579"/><circle class="cls-46" cx="415.81035" cy="84.03992" r="34.8367"/><circle class="cls-40" cx="415.81035" cy="84.03996" r="28.29472" transform="translate(62.36281 318.63705) rotate(-45)"/><path class="cls-2" d="M418.06213,98.716v4.86251h-4.34108V98.84624c-4.2978-.26039-8.422-1.60615-10.80986-3.47258l2.38785-5.2965a17.54476,17.54476,0,0,0,8.422,3.08212V85.90956c-4.81911-1.17217-10.2024-2.77832-10.2024-8.986,0-4.60224,3.34315-8.55285,10.2024-9.33378V62.77059h4.34108V67.503a19.63584,19.63584,0,0,1,8.81248,2.64812l-2.17022,5.3399a17.76278,17.76278,0,0,0-6.64226-2.25778v7.37992c4.81847,1.12889,10.11484,2.735,10.11484,8.85651C428.177,93.98438,424.878,97.89172,418.06213,98.716Zm-4.34108-19.18835V73.36346c-2.30118.52067-3.21308,1.77976-3.21308,3.21232C410.508,78.09513,411.81046,78.92023,413.72105,79.52769Zm7.46659,10.46268c0-1.51936-1.259-2.34446-3.12551-2.99532v5.99063C420.23235,92.50842,421.18764,91.37965,421.18764,89.99037Z"/><g class="cls-47"><path class="cls-3" d="M1462.29549,206.0238l-9.89488-1.73276a51.252,51.252,0,0,0-5.10532-12.32139l5.76737-8.22441a7.59545,7.59545,0,0,0-.85106-9.7376l-5.92373-5.9236a7.59532,7.59532,0,0,0-9.7376-.69375l-8.22441,5.76632a51.20566,51.20566,0,0,0-12.32139-5.10429l-1.70207-10.11561a7.59407,7.59407,0,0,0-7.34176-6.30264h-8.54016a7.59364,7.59364,0,0,0-7.49908,6.30264L1389.18762,167.8a51.20186,51.20186,0,0,0-12.32138,5.10531l-8.1927-5.515a7.59428,7.59428,0,0,0-9.7376.851l-5.92374,5.92373a7.59411,7.59411,0,0,0-.851,9.73747l5.76631,8.22454a51.20523,51.20523,0,0,0-5.10428,12.32139l-9.86318,1.73276a7.59434,7.59434,0,0,0-6.30264,7.5001V222.064a7.59326,7.59326,0,0,0,6.30264,7.49907l9.86318,1.73379a51.18075,51.18075,0,0,0,5.10428,12.32036l-5.76631,8.22544a7.59276,7.59276,0,0,0,.851,9.73657l5.92374,5.92476a7.59663,7.59663,0,0,0,9.7376.851l8.2244-5.76735a51.252,51.252,0,0,0,12.32139,5.10532l1.73276,9.86317a7.5954,7.5954,0,0,0,7.5001,6.30264h8.50845a7.59539,7.59539,0,0,0,7.50008-6.30264l1.73276-9.86317a51.16716,51.16716,0,0,0,12.32139-5.10532l8.0354,5.64061a7.59259,7.59259,0,0,0,9.73657-.851l5.92476-5.92361a7.59546,7.59546,0,0,0,.85106-9.7376l-5.76737-8.28783a51.22524,51.22524,0,0,0,5.10532-12.32037l9.89488-1.73378a7.5945,7.5945,0,0,0,6.30265-7.5001v-8.3817A7.59608,7.59608,0,0,0,1462.29549,206.0238Zm-59.68391,34.28537a22.6255,22.6255,0,1,1,22.62575-22.625v.1257A22.62583,22.62583,0,0,1,1402.61158,240.30917Z"/><path class="cls-3" d="M1569.46186,161.86421l-7.94373-1.39108a41.1397,41.1397,0,0,0-4.09852-9.89168l4.6301-6.60271a6.09755,6.09755,0,0,0-.68322-7.81738l-4.75565-4.75568a6.09763,6.09763,0,0,0-7.8174-.55687l-6.60272,4.62933a41.10231,41.10231,0,0,0-9.89168-4.09788l-1.36656-8.12079a6.09656,6.09656,0,0,0-5.89392-5.06h-6.8562a6.09651,6.09651,0,0,0-6.02042,5.06l-1.39185,7.9183a41.10946,41.10946,0,0,0-9.89168,4.09853l-6.57729-4.42749a6.09668,6.09668,0,0,0-7.81738.68322l-4.75568,4.75567a6.09667,6.09667,0,0,0-.68319,7.81738l4.62931,6.60272a41.10241,41.10241,0,0,0-4.09788,9.89167l-7.91828,1.39109a6.09708,6.09708,0,0,0-5.05988,6.02119v6.72983a6.09625,6.09625,0,0,0,5.05988,6.02029l7.91828,1.392a41.084,41.084,0,0,0,4.09788,9.89091l-4.62931,6.60349a6.09553,6.09553,0,0,0,.68319,7.8166l4.75568,4.75632a6.09843,6.09843,0,0,0,7.81738.68335l6.60271-4.63011a41.14231,41.14231,0,0,0,9.89168,4.09853l1.39109,7.9183a6.09767,6.09767,0,0,0,6.02119,5.05986h6.83077a6.09753,6.09753,0,0,0,6.021-5.05986l1.39109-7.9183a41.07687,41.07687,0,0,0,9.8918-4.09853l6.45095,4.52842a6.0954,6.0954,0,0,0,7.8166-.68335l4.75645-4.75555a6.09755,6.09755,0,0,0,.68322-7.81738l-4.6301-6.65356a41.12148,41.12148,0,0,0,4.09852-9.8909l7.94373-1.39186a6.09707,6.09707,0,0,0,5.05985-6.02119V167.86A6.098,6.098,0,0,0,1569.46186,161.86421Zm-47.9149,27.52473a18.164,18.164,0,1,1,18.16423-18.1636v.1008A18.16433,18.16433,0,0,1,1521.547,189.38894Z"/><path class="cls-3" d="M1527.98583,316.92108l-7.94372-1.39108a41.14092,41.14092,0,0,0-4.09866-9.89168l4.63011-6.60272a6.09754,6.09754,0,0,0-.68322-7.81737l-4.75568-4.75555a6.09745,6.09745,0,0,0-7.81738-.557l-6.60271,4.62933a41.102,41.102,0,0,0-9.89168-4.09776l-1.36643-8.12091a6.09657,6.09657,0,0,0-5.89407-5.05986h-6.85616a6.096,6.096,0,0,0-6.02031,5.05986l-1.392,7.9183a41.10906,41.10906,0,0,0-9.89168,4.09853l-6.57729-4.42749a6.09671,6.09671,0,0,0-7.81738.68321l-4.75568,4.75568a6.09669,6.09669,0,0,0-.68321,7.81738l4.62933,6.60271a41.108,41.108,0,0,0-4.09776,9.89168l-7.9183,1.39109a6.097,6.097,0,0,0-5.05986,6.02119v6.72983a6.096,6.096,0,0,0,5.05986,6.02029l7.9183,1.392a41.08971,41.08971,0,0,0,4.09776,9.89091l-4.62933,6.60348a6.09557,6.09557,0,0,0,.68321,7.81661l4.75568,4.75645a6.09859,6.09859,0,0,0,7.81738.68322l6.60271-4.63011a41.14252,41.14252,0,0,0,9.8917,4.09853l1.39107,7.9183a6.0979,6.0979,0,0,0,6.02118,5.06h6.83076a6.09792,6.09792,0,0,0,6.02119-5.06l1.39108-7.9183a41.07319,41.07319,0,0,0,9.89168-4.09853l6.45094,4.52841a6.09556,6.09556,0,0,0,7.81661-.68321l4.75645-4.75568a6.09755,6.09755,0,0,0,.68322-7.81738l-4.63011-6.65356a41.1226,41.1226,0,0,0,4.09866-9.89091l7.94372-1.39185a6.09718,6.09718,0,0,0,5.05986-6.02119v-6.72906A6.09827,6.09827,0,0,0,1527.98583,316.92108Zm-47.915,27.52472a18.164,18.164,0,1,1,18.16436-18.16359v.10092A18.16436,18.16436,0,0,1,1480.07081,344.4458Z"/><path class="cls-3" d="M69.68421,142.85962l-9.89489-1.73289A51.25108,51.25108,0,0,0,54.684,128.80547l5.76734-8.22453a7.59525,7.59525,0,0,0-.851-9.73747l-5.92373-5.92374a7.59548,7.59548,0,0,0-9.7376-.69374l-8.2244,5.76644a51.20044,51.20044,0,0,0-12.3214-5.10441L21.69111,94.77254a7.59407,7.59407,0,0,0-7.34178-6.30277H5.80919a7.59373,7.59373,0,0,0-7.49908,6.30277l-1.73378,9.86317A51.20541,51.20541,0,0,0-15.74506,109.741l-8.19269-5.515a7.59413,7.59413,0,0,0-9.7376.85116l-5.92374,5.92361a7.59427,7.59427,0,0,0-.851,9.7376l5.76631,8.2244a51.20523,51.20523,0,0,0-5.10428,12.32139l-9.86318,1.73276a7.59445,7.59445,0,0,0-6.30264,7.5001v8.38285a7.59348,7.59348,0,0,0,6.30264,7.49908l9.86318,1.73378a51.185,51.185,0,0,0,5.10428,12.32037l-5.76631,8.22543a7.59277,7.59277,0,0,0,.851,9.73657l5.92374,5.92463a7.59647,7.59647,0,0,0,9.7376.851l8.2244-5.76734A51.2415,51.2415,0,0,0-3.392,204.52873l1.73276,9.86317a7.5955,7.5955,0,0,0,7.5001,6.30277h8.50843a7.5955,7.5955,0,0,0,7.5001-6.30277l1.73276-9.86317a51.16713,51.16713,0,0,0,12.32139-5.10531l8.0354,5.64074a7.5926,7.5926,0,0,0,9.73657-.85117l5.92476-5.9236a7.59541,7.59541,0,0,0,.851-9.7376L54.684,180.26408a51.2284,51.2284,0,0,0,5.10531-12.32049l9.89489-1.73366a7.5947,7.5947,0,0,0,6.30264-7.5001V150.328A7.596,7.596,0,0,0,69.68421,142.85962Zm-59.684,34.28524a22.62549,22.62549,0,1,1,22.62588-22.625v.12571A22.62577,22.62577,0,0,1,10.00016,177.14486Z"/><path class="cls-3" d="M176.85057,98.7l-7.9437-1.39109a41.13815,41.13815,0,0,0-4.09858-9.89181l4.63008-6.60271a6.09746,6.09746,0,0,0-.68323-7.81738l-4.7556-4.75555a6.09766,6.09766,0,0,0-7.81741-.557l-6.6027,4.62934a41.107,41.107,0,0,0-9.89167-4.09776l-1.36656-8.12092a6.09644,6.09644,0,0,0-5.894-5.05985h-6.85617a6.09616,6.09616,0,0,0-6.02042,5.05985l-1.39186,7.9183a41.10979,41.10979,0,0,0-9.89168,4.09853l-6.57729-4.42749a6.09668,6.09668,0,0,0-7.81737.68322L89.11678,73.1234a6.09671,6.09671,0,0,0-.68322,7.81738l4.62933,6.60271A41.10272,41.10272,0,0,0,88.965,97.43517l-7.9183,1.39108a6.09721,6.09721,0,0,0-5.05986,6.02119v6.72983a6.09639,6.09639,0,0,0,5.05986,6.02042l7.9183,1.39186a41.08475,41.08475,0,0,0,4.09788,9.89091l-4.62933,6.60348a6.09556,6.09556,0,0,0,.68322,7.81661l4.75568,4.75645a6.09856,6.09856,0,0,0,7.81737.68321l6.60272-4.6301a41.1435,41.1435,0,0,0,9.89168,4.09866l1.39108,7.91829a6.0978,6.0978,0,0,0,6.02119,5.05986h6.83075a6.09775,6.09775,0,0,0,6.02106-5.05986l1.39109-7.91829a41.07394,41.07394,0,0,0,9.89177-4.09866l6.451,4.52841a6.09556,6.09556,0,0,0,7.81662-.68322l4.75639-4.75568a6.09743,6.09743,0,0,0,.68323-7.81737l-4.63008-6.65356a41.12075,41.12075,0,0,0,4.09858-9.89091l7.9437-1.39186a6.097,6.097,0,0,0,5.05986-6.02119v-6.72906A6.09788,6.09788,0,0,0,176.85057,98.7Zm-47.9149,27.52459A18.164,18.164,0,1,1,147.09991,108.061v.10092A18.16426,18.16426,0,0,1,128.93567,126.22463Z"/><path class="cls-3" d="M135.37455,253.7569l-7.94385-1.39108a41.14186,41.14186,0,0,0-4.09853-9.89181l4.6301-6.60271a6.09757,6.09757,0,0,0-.68322-7.81738l-4.75567-4.75555a6.09744,6.09744,0,0,0-7.81738-.55687l-6.60271,4.6292a41.10751,41.10751,0,0,0-9.89168-4.09775L96.84517,215.152a6.09669,6.09669,0,0,0-5.89407-5.05986H84.09492a6.096,6.096,0,0,0-6.02029,5.05986l-1.392,7.9183a41.10946,41.10946,0,0,0-9.89168,4.09853l-6.57729-4.42736a6.09639,6.09639,0,0,0-7.81738.68321l-4.75568,4.75556a6.09669,6.09669,0,0,0-.68321,7.81737l4.62933,6.60272a41.10121,41.10121,0,0,0-4.09776,9.8918l-7.9183,1.39109a6.097,6.097,0,0,0-5.06,6.02106v6.72983a6.09628,6.09628,0,0,0,5.06,6.02042l7.9183,1.39185a41.08407,41.08407,0,0,0,4.09776,9.89091l-4.62933,6.60349a6.09555,6.09555,0,0,0,.68321,7.8166l4.75568,4.75645a6.09857,6.09857,0,0,0,7.81738.68322l6.60271-4.6301a41.13839,41.13839,0,0,0,9.89168,4.09865l1.39109,7.9183a6.09791,6.09791,0,0,0,6.02119,5.05986H90.9511a6.09792,6.09792,0,0,0,6.02119-5.05986l1.39108-7.9183a41.07354,41.07354,0,0,0,9.89168-4.09865l6.451,4.52841a6.09556,6.09556,0,0,0,7.81661-.68322l4.75644-4.75555a6.09773,6.09773,0,0,0,.68322-7.81751l-4.6301-6.65356a41.12054,41.12054,0,0,0,4.09853-9.8909l7.94385-1.39186a6.09721,6.09721,0,0,0,5.05986-6.02119v-6.72893A6.09817,6.09817,0,0,0,135.37455,253.7569Zm-47.915,27.5246a18.164,18.164,0,1,1,18.16436-18.16359v.10092A18.16436,18.16436,0,0,1,87.45952,281.2815Z"/></g></g></svg>