<svg xmlns="http://www.w3.org/2000/svg" viewBox="0 0 1528 642"><defs><style>.cls-1{isolation:isolate;}.cls-2{fill:#f7f7f7;}.cls-15,.cls-3{fill:#ececf2;}.cls-31,.cls-4{fill:#95aacc;}.cls-13,.cls-14,.cls-19,.cls-24,.cls-25,.cls-26,.cls-5,.cls-7{fill:none;}.cls-5{stroke:#141a58;}.cls-16,.cls-19,.cls-24,.cls-25,.cls-26,.cls-5,.cls-6,.cls-7{stroke-miterlimit:10;}.cls-18,.cls-6,.cls-9{fill:#fff;}.cls-16,.cls-6,.cls-7{stroke:#95aacc;}.cls-16,.cls-8{fill:#f5f6f8;}.cls-10{fill:#fe6d60;}.cls-11{fill:#ffa648;}.cls-12{fill:#ff6a87;}.cls-13{stroke:#ff6a87;}.cls-13,.cls-14{stroke-linecap:round;stroke-linejoin:round;stroke-width:2px;}.cls-14,.cls-26{stroke:#fff;}.cls-15,.cls-27{mix-blend-mode:multiply;}.cls-17{fill:#373660;}.cls-18{font-size:29.99849px;letter-spacing:0.01999em;}.cls-18,.cls-31{font-family:Raleway-Black, Raleway;font-weight:800;}.cls-19{stroke:#eeb700;}.cls-20{fill:#e47773;}.cls-21{fill:#141a58;}.cls-22{fill:#e1625a;}.cls-23{fill:#081265;}.cls-24,.cls-25{stroke:#081265;}.cls-25{stroke-width:0.5px;}.cls-28{fill:#6e2e31;}.cls-29{fill:#601a2f;}.cls-30{fill:#e89243;}.cls-31{font-size:23.99873px;letter-spacing:0.06em;}.cls-32{letter-spacing:0.05103em;}</style></defs><title>crafting-compelling-content</title><g class="cls-1"><g id="BACKGROUND"><rect class="cls-2" width="1528" height="642"/></g><g id="OBJECTS"><path class="cls-3" d="M351.61554,627.15108s-56.2-33.35791-35.91465-109.91248-56.87916-106.903-10.21971-161.36206S269.07965,230.0079,295.33363,162.17535c39.661-102.47234,225.64049,62.95729,219.21022,164.28533S668.535,495.20539,661.20066,627.37851Z"/><path class="cls-3" d="M1169.24032,627.09076s26.63472-44.22914-17.75648-96.73242c-56.07544-66.32268-17.249-91.75765,26.63472-124.29214,80.04856-59.34631,73.38536-174.30667,17.48043-199.62372-93.461-42.32467-195.08757,46.29448-185.05735,106.3786s-104.72287,67.08885-99.564,137.28448S797.58869,531.64049,804.12667,627.37851Z"/><rect class="cls-4" x="629.24158" y="604.62812" width="248.02301" height="22.52296"/><path class="cls-4" d="M877.26459,604.62812h-248.023l9.16239-4.43051a125.44191,125.44191,0,0,0,70.83336-112.93175v-.00008h88.03152v.00008a125.44191,125.44191,0,0,0,70.83336,112.93175Z"/><rect class="cls-5" x="629.24158" y="599.29339" width="253.72029" height="27.85769"/><path class="cls-5" d="M629.24158,599.29339s73.39855-33.44658,74.01777-112.02761"/><path class="cls-5" d="M832.66245,565.59647s-28.65768-31.7896-29.28067-78.33069"/><rect class="cls-4" x="369.98731" y="46.43264" width="765.99269" height="449.2568" rx="11.7067"/><rect class="cls-5" x="369.98731" y="38.39716" width="773.76383" height="457.29228" rx="14.52835"/><rect class="cls-3" x="387.87731" y="65.68872" width="730.2127" height="410.74465" rx="6.74568"/><rect class="cls-4" x="424.7339" y="380.92467" width="156.23631" height="57.36903"/><rect class="cls-6" x="422.31127" y="175.28599" width="224.7613" height="85.12073"/><line class="cls-7" x1="647.07258" y1="175.28599" x2="422.31127" y2="260.40671"/><line class="cls-7" x1="422.31127" y1="175.28599" x2="647.07258" y2="260.40671"/><rect class="cls-4" x="424.7339" y="282.94757" width="222.33867" height="11.13999"/><rect class="cls-8" x="424.7339" y="306.25273" width="222.33867" height="11.13999"/><rect class="cls-8" x="424.7339" y="329.5579" width="222.33867" height="11.13999"/><rect class="cls-8" x="424.7339" y="352.86306" width="222.33867" height="11.13999"/><rect class="cls-9" x="666.25047" y="175.67636" width="139.40781" height="14.96969"/><rect class="cls-9" x="666.25047" y="201.53674" width="139.40781" height="14.96969"/><rect class="cls-9" x="666.25047" y="227.39712" width="139.40781" height="14.96969"/><rect class="cls-9" x="666.25047" y="253.2575" width="139.40781" height="14.96969"/><rect class="cls-9" x="666.25047" y="279.11787" width="94.70319" height="14.96969"/><circle class="cls-4" cx="676.43916" cy="319.28341" r="10.1887"/><circle class="cls-10" cx="702.15939" cy="319.28341" r="10.1887"/><circle class="cls-11" cx="727.87961" cy="319.28341" r="10.1887"/><rect class="cls-9" x="822.89708" y="109.74881" width="275.96091" height="350.98422"/><rect class="cls-3" x="849.37217" y="280.04579" width="226.84058" height="142.91791"/><circle class="cls-9" cx="962.79247" cy="348.65523" r="21.9902"/><polygon class="cls-12" points="972.496 348.655 957.244 357.805 957.244 339.506 972.496 348.655"/><line class="cls-13" x1="857.87246" y1="404.69045" x2="1082.59532" y2="404.69045"/><line class="cls-14" x1="890.17774" y1="404.69045" x2="1082.59532" y2="404.69045"/><circle class="cls-12" cx="890.17774" cy="404.69045" r="4.00466"/><path class="cls-9" d="M396.24039,59.703h713.27525a8.36309,8.36309,0,0,1,8.36309,8.36309v22.789a0,0,0,0,1,0,0H387.87731a0,0,0,0,1,0,0V68.0661a8.36309,8.36309,0,0,1,8.36309-8.36309Z"/><circle class="cls-11" cx="425.00652" cy="75.56069" r="6.69503"/><circle class="cls-10" cx="447.67848" cy="75.56069" r="6.69503"/><circle class="cls-4" cx="470.35044" cy="75.56069" r="6.69503"/><rect class="cls-5" x="387.87731" y="59.70301" width="735.68448" height="416.73035" rx="7.93444"/><polygon class="cls-15" points="791.346 459.038 651.938 459.038 668.957 358.904 808.365 358.904 791.346 459.038"/><polygon class="cls-9" points="783.885 448.057 644.477 448.057 661.496 347.924 800.904 347.924 783.885 448.057"/><ellipse class="cls-8" cx="730.80099" cy="376.97629" rx="10.82934" ry="9.1385" transform="translate(-62.41459 593.74867) rotate(-42.57124)"/><polygon class="cls-8" points="660.493 405.732 699.948 375.076 724.865 411.373 753.343 388.24 779.6 421.365 776.723 438.294 654.958 438.294 660.493 405.732"/><polygon class="cls-16" points="1050.115 257.849 849.919 257.849 851.919 118.398 1046.115 122.398 1050.115 257.849"/><line class="cls-7" x1="851.91916" y1="118.398" x2="1050.11454" y2="257.84853"/><line class="cls-7" x1="1046.11475" y1="122.39778" x2="849.91927" y2="257.84853"/><polygon class="cls-15" points="1058.307 249.199 858.112 249.199 860.112 109.749 1054.307 113.749 1058.307 249.199"/><polygon class="cls-4" points="1069.873 238.499 869.677 238.499 871.677 99.049 1065.873 103.048 1069.873 238.499"/><polygon class="cls-17" points="963.301 202.956 1031.102 202.956 994.87 155.992 963.301 202.956"/><polygon class="cls-8" points="908.98 202.956 999.295 202.956 951.031 140.397 908.98 202.956"/><circle class="cls-8" cx="978.19949" cy="138.23741" r="13.26729"/><path class="cls-15" d="M643.07279,207.16978l-3.2436-.40025,1.01483-5.857L407.19336,172.084l-.94331-.11718-14.6213,83.78168,5.23117.679-.67306,3.8566,28.09934,3.64764h0l3.4378,12.40559L408.31,334.21686,427.03434,345.581l-.92231,2.71092L455.55358,363.344c1.29754,14.11351,4.2809,30.79207,3.27729,48.99227,0,0-8.76638,19.98258-10.60954,32.38585,0,0-4.14053,66.1492-5.82367,76.9079s-20.101,31.73538-16.20519,45.65834-9.46874,7.7264-8.12847,41.39856h5.31307l-1.03242,4.68469H421.51l-4.08963,15.81385h8.71121s4.4629-7.67134,6.81494,0h33.06832l-.748-2.63377c-.92293-3.24946-3.80009-5.27315-7.49716-5.27315h-.86128c-5.71039,0-10.42084-2.63316-12.76678-7.13695l-.401-.77H443.063l1.03242-4.68469h5.6048l21.76044-76.43466L485.13843,489.67l1.786,5.85284,1.213-.36924,9.245,25.44225s3.39826,16.06372.05762,23.66464c-6.96228,15.84156,8.86537,20.97154,2.72409,30.75422-7.39059,11.77257-4.79222,33.67216-4.79222,33.67216h5.6352l-.10229,4.68469h-1.268l-4.08963,15.81385h8.71121s4.46277-7.67134,6.81494,0h35.85l-.74813-2.63377c-.92293-3.24946-3.80009-5.27315-7.49716-5.27315h-.86128c-5.71039,0-10.42072-2.63316-12.76666-7.13695l-.4011-.77h-.414l.10229-4.68469h3.056l4.86949-92.88508L514.0036,412.33624l.30894-49.10835,43.60315-.41221.03687-2.85654,13.60425-.61947,24.223-56.03731,14.36252-14.98663-.30284-.2971,18.80234,2.44079Zm-249.11408,46.864,13.93383-79.84829L638.51407,202.641l-.67282,3.88334L410.46479,178.46964,397.20414,254.455Zm113.30062,21.60042c.00012.01049-.00208.01965-.00208.03015-.04785-.31969-.10754-.64621-.19152-.98689l.10474.01367A7.896,7.896,0,0,1,507.25933,275.63416Zm-14.87885-2.863a16.19991,16.19991,0,0,0-1.65946,1.94558c-8.07757,11.27113-20.48853,9.47129-22.00737,17.17377-1.28228,6.50331,2.7208,17.72916,14.75532,19.95389a5.83885,5.83885,0,0,0,1.95631-.00195l-1.87038,12.87529c-.284.01611-.566.0365-.84908.05517l.59592-1.09052-48.17334-1.89272-.00916-.00122c.03271-3.80668-.09606-8.00824-.49851-12.61322-1.34392-15.37711,3.95975-31.3892,3.95975-31.3892l6.15239-11.2-5.06858-.658h0ZM586.73374,297.127s-6.7511,15.45768-18.02431,26.0018a130.89022,130.89022,0,0,0-9.39318,9.73312l-1.01361-.0188.00891-.69332-43.7677-5.68915s-6.84534-1.10968-15.77162-1.64042l.4398-6.74561h0l.05175-.79329.22545-3.4588,8.524-.90523-.15782-10.57134,4.694-1.65677-9.26391-16.11132c2.636-1.46746,6.01091-4.26455,5.9738-8.95937-.00183-.22508-.03308-.44175-.04956-.6628l78.82467,10.23236Z"/><polygon class="cls-11" points="380.188 258.284 612.643 288.46 627.074 205.17 394.466 176.47 380.188 258.284"/><text class="cls-18" transform="translate(412.75252 227.177) rotate(7.56897)">TITLE HERE</text><polygon class="cls-19" points="376.794 252.891 609.249 283.066 623.68 199.777 391.072 171.077 376.794 252.891"/><polygon class="cls-20" points="555.558 357.34 527.064 358.637 529.781 330.612 553.554 331.051 555.558 357.34"/><path class="cls-20" d="M555.55763,357.3398l24.22293-56.03735,14.36255-14.98653L584.101,276.46513l-8.02249,7.248-4.04335-.52487-1.30057,11.939s-6.75116,15.45769-18.02437,26.00174c-16.24087,15.19039-22.09271,27.94277-22.09271,27.94277Z"/><path class="cls-20" d="M392.31079,332.217l19.414-57.87946-3.43773-12.40555L420.077,251.661l3.58815,12.26717,5.06855.65795-6.15237,11.2s-5.30367,16.01215-3.95982,31.38929c1.936,22.15324-2.22943,35.5516-2.22943,35.5516Z"/><polygon class="cls-20" points="392.311 332.217 444.302 363.772 458.806 325.091 408.302 318.343 392.311 332.217"/><polygon class="cls-20" points="485.743 573.015 509.073 573.015 508.236 611.372 484.906 611.372 485.743 573.015"/><path class="cls-21" d="M508.64988,611.37175h-25.0123L479.548,627.18557h8.71124s4.46286-7.67138,6.815,0h35.85l-.74805-2.63373c-.92294-3.24951-3.80011-5.27318-7.49721-5.27318h-.8613c-5.71038,0-10.42073-2.63323-12.76669-7.137Z"/><polygon class="cls-20" points="414.798 573.015 435.517 573.015 427.064 611.372 406.345 611.372 414.798 573.015"/><path class="cls-21" d="M427.7414,611.37175H405.51076l-4.0896,15.81382h8.71123s4.46286-7.67138,6.815,0h33.06833l-.748-2.63373c-.92294-3.24951-3.80011-5.27318-7.49721-5.27318h-.8613c-5.71038,0-10.42074-2.63323-12.76669-7.137Z"/><path class="cls-17" d="M498.00444,410.33634,516.2636,513.802,511.39416,606.687H479.37277s-2.59839-21.89955,4.79213-33.67214c6.14134-9.78272-9.68635-14.91272-2.724-30.75427,3.34059-7.60091-.05768-23.66459-.05768-23.66459l-35.31659-97.19167Z"/><path class="cls-17" d="M442.83174,410.33634s-8.76641,19.9826-10.60963,32.38584h66.32255l-.54022-32.38584Z"/><polygon class="cls-20" points="470.262 304.088 467.303 324.461 482.666 324.461 483.994 304.088 470.262 304.088"/><polygon class="cls-22" points="483.49 311.823 475.096 312.714 483.213 316.075 483.49 311.823"/><polygon class="cls-20" points="484.76 278.185 496.55 298.689 491.856 300.346 492.014 310.918 475.096 312.714 469.727 287.25 484.76 278.185"/><path class="cls-23" d="M474.08619,297.26767s10.51546-2.2782,10.13959-14.3201c0,0,9.03515-2.06345,6.80155-10.4723-2.05328-7.73-11.11188-7.00531-16.30547.24157-8.07762,11.2711-20.48854,9.47133-22.00734,17.17381-1.28234,6.5033,2.72079,17.72912,14.75528,19.95383a5.99858,5.99858,0,0,0,7.0451-6.32095Z"/><path class="cls-24" d="M480.22939,266.34527c4.01017-2.95487,11.97343.16106,12.03053,7.28164.055,6.85951-8.30841,9.32066-8.30841,9.32066"/><ellipse class="cls-20" cx="470.26212" cy="300.85008" rx="6.63309" ry="7.98997" transform="translate(-63.5557 464.23847) rotate(-49.62712)"/><path class="cls-25" d="M472.1123,298.88673a2.48334,2.48334,0,0,1,1.33039,2.90143,2.6958,2.6958,0,0,1-2.66077,1.97665"/><path class="cls-9" d="M498.54466,324.46083s-45.89561-7.46768-55.12537,7.06284c-10.5521,16.61232,1.27069,45.1129-.58755,78.81267h55.1727Z"/><polygon class="cls-9" points="467.303 321.682 419.129 319.79 410.113 346.292 444.302 363.772 467.303 321.682"/><path class="cls-17" d="M432.22211,442.72218s-4.14049,66.14929-5.82362,76.90791-20.101,31.73547-16.20519,45.65839-9.46878,7.7264-8.1285,41.39854h31.63626l21.76041-76.43465,31.17325-97.04952Z"/><polyline class="cls-26" points="471.881 493.231 459.44 452.458 450.016 452.458"/><polygon class="cls-9" points="498.545 324.461 542.312 330.15 541.916 360.816 484.605 361.358 498.545 324.461"/><line class="cls-5" x1="1199.27617" y1="627.15108" x2="327.97745" y2="627.15108"/><g class="cls-27"><path class="cls-3" d="M1134.20709,342.70054l-.95113-.74313c2.0093-.19835,4.29055-.59371,3.745-1.35735-.862-1.20708-6.71619-1.64529-7.66988-1.70913l-4.49805-3.51446-6.95434,4.69884,9.5482,10.19367s2.39989,5.281,2.98031,4.61768-.7463-4.229-.7463-4.229,3.81437,3.98013,4.54615,3.31684-2.556-5.22409-2.556-5.22409,6.96545,3.64849,6.96545,2.48766-4.40943-4.97532-4.40943-4.97532,6.15079,3.234,6.73133,2.48766S1134.20709,342.70054,1134.20709,342.70054Z"/></g><g class="cls-27"><path class="cls-3" d="M1085.05052,286.31584,1071.42343,264.438h15.93178a29.6575,29.6575,0,0,0,.385-4.49549l3.22054,4.49561s1.58353-11.92405-6.86976-18.24513a47.85175,47.85175,0,0,0-8.22527-4.64733c-.79317-.50547-1.58634-1.00007-2.37109-1.4893l-10.31915-14.40488c1.38469-20.89488-10.1927-24.91139-10.1927-24.91139l-.00329.00537a14.393,14.393,0,0,0-2.84323-3.16316c-13.63832-11.49524-25.71592-2.66161-26.71526,2.068a5.67941,5.67941,0,0,0,.27574,3.24055l-9.77487,16.99971,4.1509,1.465-.13951,9.34826,8.04205.85395L1022.02652,242.68H971.71413L931.8144,201.22674l-5.2972-7.98994s-7.92976-8.52152-9.00184-8.16033,3.33905,7.38511,3.33905,7.38511-2.68858,3.42059-2.47362,4.63867c.71651,4.0585,8.45621,8.59292,8.45621,8.59292s4.00748,6.51736,11.88279,25.68479,21.28342,26.90629,21.28342,26.90629l7.19127,1.50053v.00012l8.65347,1.80557-.18151,2.84763,34.5039,11.67711c1.05537,10.36456-3.13789,25.25879-3.13789,25.25879l-10.31513,44.10508H961.46309l-1.63895-44.30917-2.01246.31248,12.06088,326.053,2.01246-.31249-2.592-70.07244h126.74253l2.60362,70.38493,2.01247-.31249-4.97227-134.42.18517-.09216s-.14111-.83711-.262-1.98207l-.14037-3.795c.19444-3.10323,1.51054-4.90306,6.46315,2.76084l2.23243-1.11091-9.39147-20.465L1089.183,317.17919a88.11088,88.11088,0,0,0,11.21583,8.98744,119.04853,119.04853,0,0,1,17.47979,13.90868l6.95446-4.69884L1095.11944,301.374ZM961.53706,347.479h34.71251l-9.45652,40.43389-.69443,9.98433H963.40208Zm1.939,52.41811h22.48342l-3.50689,50.41725H965.34106Zm111.56255,71.13831-1.16132.57785,3.81023,9.70615a16.05,16.05,0,0,1-1.90286,15.22612l-3.61553,5.03513.0055,1.15082h-65.77727l.84871-26.91959h-1.86782l3.39118-21.83111h21.71625v-1.66654h15.15373l.62766,2.08278,5.91912-2.08278h14.66023Zm-71.42321,31.69607h-5.93584C998.98246,499.19515,1002.07409,492.43172,1003.61539,502.73146Zm26.87028-52.41713v-.05591l4.651-32.79342,9.9,32.84933Zm27.38416,0,7.0205-2.47033,1.081,2.47033Zm-92.4548,1.99989h16.89852l-.116,1.66654h6.969L988.09,475.81187h-1.29692l-.91316,10.38715a16.0499,16.0499,0,0,1-8.4871,12.78374l-5.48006,2.89706-.4188.85164H967.28Zm3.804,102.83633-1.86514-50.41919h126.74266l1.865,50.41919Zm124.80355-52.41909H1075.728l17.96388-8.93946Zm-1.45781-39.41013-.37645-.82027-1.67215.83211-3.50116-11.019h5.14255Zm-.48118-13.007h-5.704l-2.86691-9.02308,7.109-2.50146L1076.314,399.89708h13.90466Zm-16.50522-52.41714-5.13425-13.95653-3.85844-36.46169h21.694l1.865,50.41822Zm12.62738-52.41811H1066.374l-1.069-10.10261c-3.25569-21.21213-21.19651-34.00247-21.19651-34.00247-1.05451-7.39341,2.00771-12.87334,5.21371-19.55609l16.50242,16.96175,3.35541-2.17518,4.04483,4.23049,5.63422,5.89263s3.44623,3.8859,8.22674,8.4744Z"/><path class="cls-3" d="M1134.20709,342.70054l-.95113-.74313c2.0093-.19835,4.29055-.59371,3.745-1.35735-.862-1.20708-6.71619-1.64529-7.66988-1.70913l-4.49805-3.51446-6.95434,4.69884,9.5482,10.19367s2.39989,5.281,2.98031,4.61768-.7463-4.229-.7463-4.229,3.81437,3.98013,4.54615,3.31684-2.556-5.22409-2.556-5.22409,6.96545,3.64849,6.96545,2.48766-4.40943-4.97532-4.40943-4.97532,6.15079,3.234,6.73133,2.48766S1134.20709,342.70054,1134.20709,342.70054Z"/></g><line class="cls-5" x1="1087.60391" y1="301.32583" x2="1139.24322" y2="627.37851"/><line class="cls-5" x1="1010.47652" y1="627.37851" x2="958.83721" y2="301.32583"/><line class="cls-5" x1="965.91814" y1="346.47876" x2="1094.68483" y2="346.47876"/><line class="cls-5" x1="974.29634" y1="398.89647" x2="1103.06304" y2="398.89647"/><line class="cls-5" x1="982.67454" y1="451.31418" x2="1111.44124" y2="451.31418"/><line class="cls-5" x1="991.05275" y1="503.73189" x2="1119.81944" y2="503.73189"/><line class="cls-5" x1="999.43095" y1="556.1496" x2="1128.19764" y2="556.1496"/><polygon class="cls-28" points="1023.033 490.901 1007.345 490.901 1011.688 402.836 1036.713 402.836 1023.033 490.901"/><path class="cls-21" d="M1027.245,475.81189h-20.453l-.91311,10.38715a16.05,16.05,0,0,1-8.48718,12.78373l-5.48006,2.897-1.28641,2.61584h26.45185s4.93747-16.29812,6.76991,0h2.4936Z"/><polygon class="cls-28" points="1115.139 477.886 1101.094 484.876 1065.747 404.098 1088.152 392.949 1115.139 477.886"/><path class="cls-21" d="M1112.18726,462.501l-18.311,9.11223,3.8102,9.70613a16.05,16.05,0,0,1-1.90292,15.22613l-3.61545,5.0351.01372,2.915,23.68159-11.78485s-2.84076-16.791,6.06091-3.01613l2.23245-1.111Z"/><polygon class="cls-17" points="1027.031 301.374 1006.792 387.913 1002.197 453.981 1050.485 453.981 1050.485 337.775 1027.031 301.374"/><path class="cls-17" d="M1064.10744,301.37405s17.94078,12.79028,21.19654,34.00242H1022.6599l4.37145-34.00243Z"/><polygon class="cls-28" points="1105.049 286.316 1089.157 296.582 1098.858 306.728 1115.118 301.374 1105.049 286.316"/><polygon class="cls-29" points="1105.049 286.316 1089.157 296.582 1093.224 300.835 1105.049 286.316"/><polygon class="cls-30" points="1079.741 245.684 1105.049 286.316 1085.824 298.78 1059.047 271.258 1079.741 245.684"/><polygon class="cls-29" points="1057.167 224.664 1057.167 242.68 1042.025 242.68 1048.422 224.664 1057.167 224.664"/><polygon class="cls-28" points="1044.347 201.759 1033.921 219.891 1038.072 221.356 1037.932 230.704 1052.893 232.293 1058.371 226.769 1057.64 209.775 1044.347 201.759"/><path class="cls-23" d="M1062.34187,224.66409s-15.89956,1.32827-9.6239-14.22284c0,0-10.69256-4.19149-9.29809-10.791.99937-4.72962,13.077-13.56321,26.71533-2.068S1062.34187,224.66409,1062.34187,224.66409Z"/><path class="cls-11" d="M1073.80387,242.68h-46.7506s-3.392,14.323,2.05914,28.57789c3.68751,9.64291-2.08106,30.11621-2.08106,30.11621h37.07609C1061.67926,284.35005,1081.07618,277.4793,1073.80387,242.68Z"/><path class="cls-30" d="M1029.11239,271.2578l6.40572,6.66763c1.93911,11.69441-6.08908,18.13852-7.40566,23.44861h-1.0811S1032.79992,280.90072,1029.11239,271.2578Z"/><path class="cls-23" d="M1043.418,249.53455c8.81091-6.466-2.4219-17.24644,13.749-22.81752l15.81471-25.977s11.675,4.03593,10.18469,25.14138c-1.18791,16.82257,28.25594,12.90262,24.18773,38.5566H1051.696l-1.5664-5.95989c-.95411,2.23988-.53341,5.95989-.53341,5.95989h-9.77611S1034.60707,256.00059,1043.418,249.53455Z"/><path class="cls-24" d="M1110.95971,264.43807s1.58345-11.924-6.86978-18.24509c-9.16244-6.85144-21.10733-6.45949-22.04171-22.1135"/><ellipse class="cls-28" cx="1056.93517" cy="222.07126" rx="5.27345" ry="4.37789" transform="translate(107.86565 737.52702) rotate(-40.37288)"/><path class="cls-25" d="M1055.633,220.41132a1.61361,1.61361,0,0,0-1.03931,2.07862,2.04791,2.04791,0,0,0,1.58954,1.58954"/><polygon class="cls-28" points="997.052 242.68 980.496 242.68 980.002 258.284 995.847 261.59 997.052 242.68"/><polygon class="cls-29" points="997.052 242.68 987.193 259.785 995.847 261.59 997.052 242.68"/><path class="cls-28" d="M980.00209,258.28434s-13.40795-7.739-21.28332-26.90635-11.88286-25.68473-11.88286-25.68473l4.97741-4.46652L991.71306,242.68Z"/><path class="cls-28" d="M951.81332,201.22674l-5.29722-7.98987s-7.92969-8.52153-9.00177-8.16034,3.33907,7.3851,3.33907,7.3851-2.68866,3.42059-2.47364,4.63866c.71643,4.05851,8.45615,8.593,8.45615,8.593Z"/><polyline class="cls-11" points="1027.053 242.68 997.052 242.68 995.665 264.438 1035.518 277.925"/><path class="cls-28" d="M1098.858,306.72766s11.39011,12.86054,21.53972,19.439a119.05654,119.05654,0,0,1,17.47989,13.90873l6.95436-4.6989-29.71352-34.00243Z"/><path class="cls-28" d="M1144.832,335.37647l4.4981,3.51445c.95367.06383,6.80784.50214,7.66992,1.70913.54545.76366-1.73574,1.15906-3.745,1.35744l.95111.74309s7.31168,5.30348,6.73124,6.04982-6.73124-2.48767-6.73124-2.48767,4.40942,3.81439,4.40942,4.97533-6.96548-2.48766-6.96548-2.48766,3.28775,4.56073,2.55606,5.22409-4.5462-3.31687-4.5462-3.31687,1.32678,3.56563.74628,4.229-2.98022-4.61761-2.98022-4.61761l-9.54831-10.19372Z"/><polygon class="cls-17" points="1085.304 335.376 1090.443 383.941 1110.621 438.79 1066.266 454.397 1050.485 402.033 1046.146 329.584 1085.304 335.376"/><polyline class="cls-26" points="1066.885 334.619 1057.929 337.753 1050.485 402.033 1050.485 450.258"/><rect class="cls-9" x="418.31149" y="113.94834" width="389.34668" height="40.36468" rx="10.0917"/><path class="cls-4" d="M428.40318,113.94834h58.08088a0,0,0,0,1,0,0V154.313a0,0,0,0,1,0,0H428.40318a10.0917,10.0917,0,0,1-10.0917-10.0917V124.04a10.0917,10.0917,0,0,1,10.0917-10.0917Z"/><path class="cls-9" d="M465.34749,144.25247l-6.20328-6.20329a11.16858,11.16858,0,1,0-2.828,2.828l6.20329,6.20328Zm-20.3954-7.47421a7.137,7.137,0,1,1,10.09322,0A7.09366,7.09366,0,0,1,444.95209,136.77826Z"/><rect class="cls-7" x="416.31159" y="109.94855" width="389.34668" height="40.36468" rx="10.0917"/><text class="cls-31" transform="translate(501.3012 138.93537)">SEA<tspan class="cls-32" x="49.46045" y="0">R</tspan><tspan x="66.88379" y="0">CH</tspan></text><polygon class="cls-15" points="906.113 445.101 807.969 445.101 819.562 521.895 917.706 521.895 906.113 445.101"/><polygon class="cls-11" points="914.112 437.102 815.969 437.102 827.562 513.896 925.706 513.896 914.112 437.102"/><path class="cls-9" d="M838.39359,474.36067l14.56589-9.65234.54134,3.58587-10.1027,6.86747,12.15888,6.7526.56431,3.738L838.6584,476.1148Z"/><path class="cls-9" d="M879.79852,461.95552,865.57647,489.042h-3.738l14.18324-27.08647Z"/><path class="cls-9" d="M903.20186,476.1148l-14.58323,9.53746-.56432-3.738,10.12-6.7526-12.17622-6.86747-.54134-3.58587,17.48024,9.65234Z"/><polygon class="cls-15" points="567.737 8 665.881 8 654.287 84.794 556.143 84.794 567.737 8"/><polygon class="cls-17" points="559.737 0 657.881 0 646.288 76.794 548.144 76.794 559.737 0"/><path class="cls-9" d="M630.76855,42.93447V33.85985l-6.40913-1.89336a22.16963,22.16963,0,0,0-1.70525-4.11656l3.19323-5.87086-6.41678-6.41679-5.87054,3.193a22.16222,22.16222,0,0,0-4.11709-1.70556l-1.89315-6.4086h-9.07473l-1.89315,6.4087a22.165,22.165,0,0,0-4.117,1.70557l-5.87065-3.19313-6.41668,6.41679,3.19313,5.87054a22.16538,22.16538,0,0,0-1.70568,4.117l-6.4087,1.89326v9.07462l6.4087,1.89315a22.16293,22.16293,0,0,0,1.70557,4.11709l-3.193,5.87054,6.41668,6.41679,5.871-3.19323a22.17046,22.17046,0,0,0,4.11655,1.70524l1.89326,6.40913h9.07473l1.89336-6.409a22.15724,22.15724,0,0,0,4.11656-1.70535l5.87086,3.19323,6.41678-6.41679-3.19323-5.87086a22.15752,22.15752,0,0,0,1.70536-4.11666Zm-27.75586,9.04781a13.58539,13.58539,0,1,1,13.585-13.585A13.60094,13.60094,0,0,1,603.01269,51.98228Z"/></g></g></svg>