<svg xmlns="http://www.w3.org/2000/svg" xmlns:xlink="http://www.w3.org/1999/xlink" viewBox="0 0 1528 642"><defs><style>.cls-1,.cls-10,.cls-11,.cls-17,.cls-22,.cls-25,.cls-26,.cls-31,.cls-38,.cls-39,.cls-40,.cls-41,.cls-42,.cls-45,.cls-46,.cls-48,.cls-49,.cls-50,.cls-51,.cls-52,.cls-53,.cls-6,.cls-7,.cls-8,.cls-9{fill:none;}.cls-2{fill:#f7f7f7;}.cls-3{fill:#eaf4f7;}.cls-4{fill:#f2e9df;}.cls-34,.cls-4,.cls-47,.cls-49,.cls-50,.cls-51{opacity:0.94;}.cls-43,.cls-44,.cls-5{fill:#76ceba;}.cls-22,.cls-46,.cls-52,.cls-53,.cls-6,.cls-7,.cls-8{stroke:#476978;}.cls-17,.cls-22,.cls-31,.cls-38,.cls-39,.cls-40,.cls-41,.cls-42,.cls-43,.cls-44,.cls-46,.cls-48,.cls-51,.cls-6,.cls-7,.cls-8{stroke-miterlimit:10;}.cls-40,.cls-41,.cls-42,.cls-6{stroke-width:1.25776px;}.cls-7{stroke-width:1.72031px;}.cls-8{stroke-width:0.75456px;}.cls-10,.cls-11,.cls-39,.cls-9{stroke:#37424f;}.cls-10,.cls-11,.cls-25,.cls-26,.cls-45,.cls-49,.cls-50,.cls-52,.cls-53,.cls-9{stroke-linecap:round;stroke-linejoin:round;}.cls-9{stroke-width:9.02672px;}.cls-10{stroke-width:8.52933px;}.cls-11{stroke-width:8.33152px;}.cls-12{isolation:isolate;}.cls-13{fill:#38535e;}.cls-14{fill:#476978;}.cls-15{fill:#37424f;}.cls-16,.cls-34{fill:#ffa757;}.cls-17,.cls-25,.cls-26,.cls-38,.cls-43,.cls-44,.cls-45,.cls-48,.cls-50{stroke:#fff;}.cls-17{stroke-width:1.10009px;}.cls-18{fill:#1e3459;}.cls-19{clip-path:url(#clip-path);}.cls-20{fill:#234672;}.cls-21{fill:#344b7e;}.cls-22{stroke-width:0.28829px;}.cls-23{fill:#f0b291;}.cls-24{fill:#becfe3;}.cls-25,.cls-46,.cls-51{stroke-width:1.12834px;}.cls-26,.cls-43{stroke-width:0.56417px;}.cls-27{fill:#97a5b5;}.cls-28{fill:#334c57;}.cls-29{fill:#db9680;}.cls-30{fill:#21273d;}.cls-31{stroke:#374475;stroke-width:0.24016px;}.cls-32{fill:#374475;}.cls-33{fill:#e89149;}.cls-35{fill:#ba2e46;}.cls-36{fill:#dd4c65;}.cls-37{fill:#42c7a9;}.cls-38{stroke-width:0.2211px;}.cls-39{stroke-width:0.31444px;}.cls-40{stroke:#dd4c65;}.cls-41{stroke:#76ceba;}.cls-42,.cls-49{stroke:#f2b873;}.cls-44{stroke-width:0.57362px;}.cls-45{stroke-width:0.33943px;}.cls-47{fill:#f2e8dc;}.cls-48{stroke-width:0.36451px;}.cls-49,.cls-50{stroke-width:0.56447px;}.cls-51{stroke:#f2d7b4;}.cls-52{stroke-width:2.51551px;}.cls-53{stroke-width:0.84626px;}</style><clipPath id="clip-path"><path class="cls-1" d="M829.32536,442.52236l-18.81317,7.63287a12.73951,12.73951,0,0,0,6.22214-5.42147l18.81273-7.63329A12.74159,12.74159,0,0,1,829.32536,442.52236Z"/></clipPath></defs><title>creative-campaigns-and-branding</title><g id="BACKGROUND"><rect class="cls-2" width="1528" height="642"/></g><g id="OBJECTS"><polygon class="cls-3" points="975.712 427.474 1210.23 642 340.385 642 566.459 425.118 975.712 427.474"/><path class="cls-4" d="M480.05971,427.02022s26.76473-326.161,138.5693-334.04184c111.80434-7.88079,125.38883,315.66048,125.38883,315.66048S826.62657,70.41413,922.7807,93.3201c96.15414,22.90554,111.62871,346.19584,111.62871,346.19584l-554.3497-3.12974Z"/><path class="cls-5" d="M595.57367,470.69783s-92.26975-45.2985-112.27046-103.46265l32.63191-2.64039L473.03191,343.737s6.69259-76.60586,76.095-55.88068l-9.64387,37.76485,29.10574-26.01747,18.82662,29.39926-21.56558,46.72637L592.63,352.94163S612.31352,419.93184,595.57367,470.69783Z"/><line class="cls-6" x1="524.42837" y1="345.03978" x2="613.1854" y2="500.45118"/><path class="cls-5" d="M898.78054,422.05727s-78.55826-116.59578-62.64383-199.20364l40.49837,19.10452-36.66672-53.97106s60.13759-86.2886,128.32186-14.41794l-37.17107,38.21511,52.24707-11.022,2.29344,47.69486L928.24409,289.1756l47.28734-8.77547S953.22661,373.25888,898.78054,422.05727Z"/><line class="cls-7" x1="900.03344" y1="224.55505" x2="899.39255" y2="469.34376"/><path class="cls-5" d="M578.12043,478.304s-52.40423,32.50251-88.34824,24.16016l9.044-17.43435-24.26285,15.178s-36.82523-27.78641-4.19593-56.4827l16.13479,16.925-3.966-23.08269,20.94272-.2158,16.89681,25.83923L517.302,442.31937S557.633,453.63255,578.12043,478.304Z"/><line class="cls-8" x1="491.57522" y1="474.48647" x2="598.85625" y2="478.8183"/><path class="cls-9" d="M791.52252,236.17933H909.41809a39.57631,39.57631,0,0,1,39.57613,39.57613v92.06871A39.57593,39.57593,0,0,0,988.5699,407.4003h0a39.576,39.576,0,0,0,39.57613-39.57613v-32.402"/><path class="cls-10" d="M741.09631,191.83717V151.77431c0-33.389-9.27047-60.4561-39.08114-60.4561H702.015c-29.81068,0-53.97692,27.06715-53.97692,60.4561v32.514c0,22.75313-16.46847,41.19831-36.78354,41.19831H559.12533"/><path class="cls-11" d="M690.03357,415.24809h0c0-44.64545-42.48423-80.83739-94.89083-80.83739h-.00023c-52.40727,0-94.89125,36.19194-94.89125,80.83739V524.66c0,24.30758,23.13088,44.01282,51.66456,44.01282h43.22669"/><g class="cls-12"><path class="cls-13" d="M909.71053,435.495c-.04429.72121-.09227,1.44177-.17238,2.16212-.07119.63154-.16888,1.262-.267,1.89247-.11115.71709-.22967,1.43352-.3771,2.14909-.13091.63459-.2846,1.26809-.44332,1.90138-.17561.69907-.36061,1.39748-.57011,2.0946-.19062.63372-.401,1.26592-.62048,1.8979-.241.69451-.49388,1.38771-.76854,2.0794-.24639.62026-.51106,1.23791-.78439,1.85578q-.48392,1.09-1.02407,2.17493-.45558.91215-.9483,1.81953c-.39228.719-.80935,1.435-1.23987,2.14952-.35148.58336-.709,1.16606-1.08637,1.74615-.55361.85169-1.14825,1.69774-1.75614,2.5414-.371.515-.73076,1.03188-1.12263,1.54315-.713.932-1.48172,1.8547-2.26261,2.77478-.36758.434-.70775.87232-1.09053,1.30348-.17542.19691-.36234.39165-.54036.58813q-1.25634,1.38565-2.61934,2.75068c-.24749.24836-.49127.49781-.74379.74531-1.07378,1.05077-2.18751,2.09286-3.35378,3.12344-.20668.18237-.42509.36234-.63524.54427-.88969.77245-1.81994,1.53578-2.76241,2.29629-.7503.60506-1.52381,1.20448-2.30735,1.80194-.72794.55448-1.463,1.10744-2.21943,1.65454-.81544.58964-1.65562,1.17235-2.50384,1.75288-.78764.53884-1.57963,1.0766-2.3955,1.60785-.88295.5738-1.79282,1.14-2.70921,1.70447-.84366.52017-1.689,1.03948-2.56115,1.551-.94873.55665-1.92873,1.104-2.91133,1.65041-1.22685.68191-2.44,1.36882-3.71917,2.03424-2.39833,1.24769-4.87415,2.43046-7.38363,3.5824-.72295.33151-1.45719.653-2.18861.97674q-2.92664,1.29544-5.94229,2.50513c-.68083.27312-1.35449.5547-2.04162.82152q-3.93583,1.528-8.00107,2.92023c-.47675.162-.96523.30937-1.44351.46829q-3.44117,1.14466-6.967,2.18752-1.45207.43051-2.91719.84474-1.93663.54612-3.89611,1.06206-1.65986.43735-3.33338.85538-1.98681.49336-3.99554.95373c-1.12111.259-2.24353.51584-3.37311.76029-1.35776.29461-2.72441.57272-4.09432.84648-1.13.226-2.25873.45288-3.39591.665-1.3964.26031-2.80148.50216-4.20849.74162-1.07316.183-2.14412.36864-3.22333.53928-3.009.47654-6.03606.91509-9.08506,1.2974-.42508.05341-.855.09379-1.28133.14546q-3.98469.48165-8.00628.85408-1.53121.143-3.06873.269-2.57722.214-5.16464.38362c-1.07941.071-2.15951.142-3.24133.20125-1.803.09987-3.6104.17651-5.41927.24468-1.01.038-2.019.08445-3.03074.11245-1.56489.04342-3.13149.06188-4.69767.08163-1.092.0139-2.18274.03843-3.275.04038-1.678.0037-3.35573-.02192-5.03351-.04537-.98171-.01389-1.96455-.01368-2.94607-.03647-1.53339-.036-3.06482-.10226-4.596-.16087-1.072-.04125-2.14562-.06774-3.21615-.11963-1.66-.08119-3.31469-.19452-4.971-.3022-.93333-.06057-1.86968-.10465-2.8017-.1739-2.01275-.14958-4.01747-.33347-6.02045-.52257-.56924-.05362-1.14174-.09292-1.70989-.14958q-3.8502-.38525-7.67064-.86949c-.41271-.05254-.82-.11789-1.23247-.172-2.1845-.28614-4.3642-.587-6.52935-.92159-.90054-.13938-1.78979-.30134-2.68685-.449-1.66322-.27333-3.32687-.54558-4.976-.84756-.861-.15784-1.71033-.33586-2.567-.50151-1.81062-.35-3.61648-.708-5.40689-1.09289-.99433-.21384-1.97934-.44245-2.96737-.66737q-2.44923-.55686-4.87176-1.1539c-.919-.22817-1.83234-.46438-2.74439-.70189q-3.83553-1.00039-7.589-2.11044c-.44246-.13135-.89316-.251-1.33407-.38471q-4.30906-1.30782-8.48371-2.775c-1.13457-.39578-2.25677-.80458-3.37615-1.21664-.88968-.32782-1.7837-.65043-2.66362-.98868-1.26244-.48544-2.50318-.99237-3.74392-1.49952-.80675-.32934-1.6224-.65-2.41959-.98868-1.36254-.5788-2.69793-1.18364-4.03115-1.78957-.648-.294-1.31019-.57554-1.95088-.876q-2.94129-1.37882-5.78619-2.84229c-31.64323-16.34993-47.44715-37.81435-47.37941-59.246l-.102,32.26479c-.06795,21.43185,15.73618,42.89626,47.37963,59.24619q2.83969,1.46674,5.78576,2.84208c.6411.30047,1.30218.58227,1.95044.87623,1.33409.60571,2.669,1.21034,4.03158,1.78957.79763.33889,1.61285.65912,2.41938.98868,1.24117.50715,2.48147,1.01408,3.74436,1.49952.88013.33781,1.77372.66086,2.66362.98825.85342.31479,1.69317.64414,2.5555.94851.26877.09509.551.17434.82043.26834q4.18106,1.45794,8.48412,2.775c.43984.13374.891.25358,1.33322.38493q3.75089,1.11275,7.58946,2.11c.42552.11094.83584.2425,1.26286.351.4887.1244.99107.229,1.48172.35084q2.41992.60115,4.87111,1.15433c.98868.2247,1.97324.45309,2.96822.66715,1.79022.38514,3.59563.74292,5.40626,1.09311.67475.13048,1.33843.28158,2.01558.40728.18236.03387.36863.06036.55143.09379,1.64911.30242,3.31319.57445,4.97619.84778.89642.14763,1.78653.30981,2.68685.449,2.16516.33477,4.34464.63545,6.52977.92181.39187.05124.77875.11528,1.17061.165.02063.0026.04147.00412.06188.00695q3.81893.48325,7.67129.86949c.56186.05644,1.12849.09465,1.69144.14806,2.00906.18931,4.01942.37385,6.038.52365.04841.00369.09661.00912.145.01281.884.06535,1.77221.104,2.65711.16152,1.65586.10769,3.31037.221,4.971.30178,1.07051.05253,2.14364.0788,3.21569.11984,1.53144.0584,3.062.12483,4.596.16087.12484.00282.249.01042.37385.013.8569.01933,1.71467.01151,2.57222.02323,1.678.02345,3.35509.04907,5.03351.04581,1.0918-.00239,2.18254-.02692,3.27433-.04038,1.56725-.02019,3.13256-.03821,4.69851-.08163.28766-.00825.57619-.00651.86472-.0152.72338-.02192,1.44329-.07055,2.166-.09726,1.80889-.0686,3.61518-.1448,5.41908-.24467,1.08138-.05927,2.15994-.13026,3.23894-.20147q2.5935-.17033,5.17462-.38427c.60093-.04972,1.206-.08055,1.80607-.13417.41835-.03756.83063-.09444,1.24833-.1333q4.0254-.37548,8.015-.85516c.42509-.05146.85452-.09184,1.2796-.145,3.049-.38253,6.07518-.82108,9.08506-1.2974.28071-.04472.56728-.076.84756-.12114.79763-.12874,1.58137-.2831,2.37555-.41836,1.40636-.23989,2.81166-.48109,4.20849-.74162,1.13718-.21232,2.26633-.43876,3.39569-.66476,1.37057-.2742,2.73638-.55209,4.09411-.84648,1.13025-.24489,2.252-.50151,3.37311-.76051q2.008-.46339,3.99619-.95351,1.6758-.41651,3.33338-.85581,1.95879-.51649,3.89611-1.06185c.56858-.16022,1.15063-.30372,1.71618-.46764.40685-.11788.79568-.257,1.20058-.37688q3.52551-1.044,6.96657-2.18752c.4785-.15935.967-.30633,1.44351-.46872q4.07037-1.38532,8.00129-2.92c.68821-.26682,1.36036-.54818,2.04206-.82173q3.01457-1.21013,5.94142-2.5047c.73187-.3237,1.46609-.64523,2.18969-.977,2.50926-1.15173,4.98422-2.33493,7.383-3.58218q.99-.51486,1.95826-1.036c.607-.327,1.16627-.668,1.76135-.99845.98282-.54623,1.96173-1.09376,2.9109-1.65041.87253-.51171,1.71814-1.03058,2.5618-1.551.91617-.56447,1.82626-1.13067,2.7088-1.7049.81519-.53038,1.60631-1.06728,2.39246-1.60547.8508-.58205,1.6925-1.16562,2.50924-1.75635.75443-.54645,1.48736-1.097,2.21335-1.65019.78634-.59877,1.56161-1.19971,2.31368-1.80694.30891-.249.64737-.49195.9509-.74249.61874-.51149,1.20859-1.03015,1.80366-1.54707.21189-.1841.43334-.366.642-.55057q1.74843-1.54521,3.35183-3.12127c.25317-.24771.49695-.49716.74488-.74618q1.358-1.36317,2.615-2.74568c.1793-.19865.36883-.39578.54576-.59486.08166-.09162.17067-.18171.25184-.27377.29548-.3365.54384-.68148.83066-1.01972.78415-.92355,1.5542-1.84928,2.27-2.78412.39078-.51062.74922-1.02558,1.11981-1.53925.6094-.845,1.20339-1.691,1.75722-2.54356.152-.23338.33456-.46243.48153-.69625.21928-.34779.39535-.701.60528-1.04968.43119-.71514.84757-1.43135,1.2403-2.15126.33022-.6042.64393-1.20969.94744-1.81714q.5409-1.08573,1.02452-2.17623c.14457-.32566.32216-.64718.45828-.97327.12332-.29309.20994-.58921.32652-.88317.27485-.6906.52713-1.38229.76748-2.07549.22012-.63394.43114-1.26766.62241-1.90355.20885-.69559.394-1.39249.56859-2.09047.0953-.37884.22339-.75573.3085-1.13544.05753-.25532.08228-.51236.135-.76768.14719-.71556.26595-1.43156.37775-2.14865.09794-.63068.196-1.26093.26595-1.89248.08055-.72078.12809-1.44134.173-2.16233.02627-.42422.08749-.84778.101-1.272q.0215-.63111.023-1.26223l.10182-32.26457C909.83145,433.80573,909.76176,434.65026,909.71053,435.495Z"/><ellipse class="cls-14" cx="749.32446" cy="432.55121" rx="83.20515" ry="160.51498" transform="translate(315.0476 1180.87687) rotate(-89.86796)"/></g><rect class="cls-15" x="733.5403" y="236.97718" width="8.36211" height="35.68957"/><rect class="cls-15" x="758.69457" y="236.97718" width="8.36254" height="35.68957"/><rect class="cls-16" x="722.75772" y="264.43317" width="53.64258" height="107.40088"/><line class="cls-17" x1="741.31818" y1="272.11097" x2="741.31818" y2="370.17408"/><line class="cls-17" x1="757.23456" y1="272.11097" x2="757.23456" y2="370.17408"/><g class="cls-12"><path class="cls-1" d="M696.879,385.32105l18.813-7.63286a13.45114,13.45114,0,0,0,11.33206,7.05407l-18.81317,7.63286A13.45044,13.45044,0,0,1,696.879,385.32105Z"/><path class="cls-1" d="M703.94456,249.5135l18.81316-7.63308a12.85367,12.85367,0,0,0-6.26664,5.459l-18.81295,7.63308A12.85417,12.85417,0,0,1,703.94456,249.5135Z"/><path class="cls-18" d="M797.24274,386.08482c-.34435.11007-.69583.20212-1.051.28223-.14264.03235-.28245.07273-.426.09987-.21124.04038-.427.06448-.6411.094-.22491.031-.44831.0673-.67627.08619-.15327.013-.30785.0152-.46219.02236-.32893.01563-.65892.03192-.99239.02236L727.024,384.74226q-.34878-.01042-.69386-.03951-.53244-.04429-1.056-.13157-.52234-.08727-1.03427-.21623-.52529-.13189-1.03688-.3072-.53895-.18366-1.06033-.41358-.56988-.25107-1.115-.55513a13.43847,13.43847,0,0,1-1.24226-.7846,13.66931,13.66931,0,0,1-1.56964-1.30261,13.886,13.886,0,0,1-2.52381-3.30364l-32.626-59.4316a13.81693,13.81693,0,0,1-.62894-1.34472c-.17042-.40837-.30937-.825-.43876-1.244-.06209-.2006-.1396-.39773-.19214-.60072-.04429-.16977-.07294-.34258-.11072-.51344-.08185-.3732-.157-.74814-.208-1.12568-.01976-.14936-.03561-.2996-.05059-.4494-.04472-.43724-.07206-.87535-.07511-1.31324-.00022-.07751-.0063-.155-.00563-.23209a13.68928,13.68928,0,0,1,.10549-1.51775c.01325-.11008.02911-.21993.04516-.32957a13.729,13.729,0,0,1,.30025-1.50733c.00977-.03582.02323-.07078.03257-.107a13.52591,13.52591,0,0,1,.45982-1.36058c.04863-.12288.09682-.24554.1485-.36712a13.26712,13.26712,0,0,1,.70037-1.42288l33.34291-57.48159.00955-.01672a13.24965,13.24965,0,0,1,.93506-1.3875,12.79635,12.79635,0,0,1,5.322-4.05481L703.945,249.5135a12.79381,12.79381,0,0,0-5.322,4.05481,13.15288,13.15288,0,0,0-.93549,1.38772l-.00955.0165L664.335,312.45433q-.31752.54937-.57858,1.12155c-.04494.09878-.07924.20147-.12157.3009-.05211.1218-.09965.24446-.14848.36734-.05734.14589-.12375.28853-.17586.43551-.1077.30524-.1991.61483-.284.92637-.00977.0356-.02323.06991-.03257.10529-.003.01259-.008.02454-.01127.03691q-.13677.52332-.23145,1.056c-.02473.13721-.03756.27681-.05729.41488-.01609.10986-.03237.21928-.0456.32935-.01326.1079-.03388.21515-.04474.3237-.03517.36516-.05666.7325-.06317,1.1-.00044.03105.003.06209.0026.09314-.00087.07859.00545.157.00586.236.00176.2768.002.554.02019.83106.01108.16.038.31936.0545.47936.01519.15024.03039.29939.05082.44962.015.10964.02017.22079.03732.33043.04233.26682.11248.53016.17086.795.03777.17129.066.34345.11029.51366.01237.04733.0178.09552.03061.14285.04255.155.11354.30308.16152.457.12961.41988.26834.83628.439,1.2453.03235.07728.0495.15826.08293.23555q.24653.56305.54582,1.10874L696.879,385.32105a13.89393,13.89393,0,0,0,2.52381,3.30407,13.68031,13.68031,0,0,0,1.56921,1.30218,13.35265,13.35265,0,0,0,1.24247.78461q.5445.30351,1.11525.55534.52073.22926,1.05989.4138.51161.17455,1.03732.30676.51095.12962,1.03449.21667.52266.08663,1.05535.13135.34548.029.69405.03929l65.96962,1.94979c.13807.00391.2755.00608.41271.00543.19539-.00022.38752-.01867.5814-.028.15349-.00716.30785-.00911.46068-.02192.04364-.00369.08923-.00217.13265-.00673.18346-.01715.36256-.0545.54428-.07968.21406-.02952.429-.05384.64-.094.03908-.00717.07968-.00934.11832-.01716.10486-.02105.20473-.059.30872-.08293.35518-.08011.70667-.17216,1.05208-.28245.07294-.023.14915-.03473.22144-.05905q.352-.11952.6956-.25878l18.81316-7.6333C797.86189,385.88791,797.55209,385.98647,797.24274,386.08482Z"/><g class="cls-12"><g class="cls-19"><path class="cls-20" d="M816.73433,444.73376l18.81273-7.63329-.0165.02865-18.81317,7.63308.01694-.02844"/></g></g><path class="cls-18" d="M815.79276,446.1345a12.69192,12.69192,0,0,1-5.28057,4.02073l18.81339-7.63308a12.69126,12.69126,0,0,0,5.28013-4.02051,13.12058,13.12058,0,0,0,.92509-1.37252l-18.81341,7.63308A12.96916,12.96916,0,0,1,815.79276,446.1345Z"/><polygon class="cls-18" points="881.959 332.28 816.734 444.733 835.547 437.1 900.772 324.647 881.959 332.28"/><path class="cls-21" d="M882.04026,318.932a13.63847,13.63847,0,0,1-.08141,13.3485L816.73433,444.73376a12.66152,12.66152,0,0,1-11.34357,6.33981L676.3303,447.25952a13.354,13.354,0,0,1-11.26126-7.00847L601.23221,323.98352a13.64036,13.64036,0,0,1,.08207-13.34828l65.23906-112.4524a12.657,12.657,0,0,1,11.34292-6.34l129.06089,3.81426a13.4196,13.4196,0,0,1,11.26128,7.00848Zm-63.10213,11.5294a13.65993,13.65993,0,0,0,.0825-13.43556l-32.62627-59.43159a13.46486,13.46486,0,0,0-11.33206-7.05364l-65.96983-1.95a12.74948,12.74948,0,0,0-11.41434,6.38193L664.335,312.45433a13.7329,13.7329,0,0,0-.08226,13.43556L696.879,385.32105a13.45044,13.45044,0,0,0,11.33184,7.05407l65.96983,1.94979a12.70383,12.70383,0,0,0,11.41434-6.38148l33.34314-57.482"/><path class="cls-18" d="M902.54682,317.85561c-.0013-.27529-.00152-.55079-.02019-.82608-.01085-.1587-.03712-.31631-.05362-.475-.0152-.15046-.03018-.2996-.05037-.44984-.0152-.10985-.02063-.22014-.03778-.32956-.0419-.26226-.11094-.521-.16825-.78157-.03821-.17433-.06687-.34931-.11246-.523-.01172-.04711-.0178-.09509-.03018-.14242-.04125-.1511-.11159-.29569-.15739-.44615-.13048-.42182-.27051-.84018-.44137-1.25137-.03233-.07816-.04969-.16-.0838-.23751q-.24392-.55588-.53755-1.09419L837.0316,195.03226a13.84178,13.84178,0,0,0-1.06423-1.62544c-.1257-.167-.26682-.317-.39882-.47719-.27656-.335-.55925-.66216-.863-.967-.06187-.06166-.11246-.13526-.17476-.19539-.10855-.1053-.23556-.18693-.34737-.28831-.30133-.27225-.61005-.53169-.93221-.77441-.10119-.076-.18912-.16868-.29224-.24163-.12831-.09183-.26788-.16587-.3999-.25314-.17542-.11572-.35192-.22839-.53212-.33607-.10551-.0621-.20407-.13634-.31065-.196-.24274-.135-.495-.25118-.7449-.37081-.09226-.04385-.18019-.094-.27268-.13612-.03256-.01433-.06358-.033-.096-.04733q-.51845-.2286-1.05555-.41206c-.08315-.02844-.1691-.04819-.25293-.07511-.10288-.03257-.206-.06123-.3085-.091-.15675-.04581-.31045-.099-.46872-.13873q-.50672-.12765-1.02385-.21406-.5155-.08662-1.041-.13-.33961-.02833-.68232-.03821l-11.92781,4.839,11.92781-4.83942-129.06027-3.814c-.13656-.00434-.27224-.00608-.40793-.00586-.195.00065-.3871.01867-.581.02822-.15067.00738-.3022.00934-.45135.02193-.04275.00369-.08684.00217-.12959.00629-.18237.01715-.36063.05428-.54169.07925-.21189.0293-.42509.0534-.63481.09313-.03777.00695-.076.00912-.11376.01672-.10334.02041-.20082.05818-.30307.08141-.35431.0799-.70515.17151-1.04947.28158-.07251.023-.14806.0343-.21949.0584q-.35007.11919-.69212.25749l-18.81273,7.63308c.29721-.12071.60354-.21819.9103-.31589.34454-.10985.69647-.2019,1.051-.282.1394-.03148.27572-.07056.41619-.0977.20928-.03995.42313-.064.63459-.09335.22318-.03061.44571-.06687.67193-.08554.14916-.01259.30113-.01455.45178-.02193.32848-.01585.65587-.03235.98825-.02236l129.06,3.81448a12.821,12.821,0,0,1,1.72422.16847l.002.00043a12.88052,12.88052,0,0,1,1.48826.35171c.10353.03018.20842.05927.3113.09227a13.1301,13.1301,0,0,1,1.4038.53428c.092.04147.1793.09119.27027.13461.36082.17281.71361.36364,1.05815.56859.17955.10681.35562.21992.53082.335.23664.15588.46525.32435.69255.49543.32218.2425.632.50237.93224.774.17607.15892.35387.31545.52213.4837.30372.30481.58661.63242.863.96719.13221.16022.27376.31024.39946.47675a13.84549,13.84549,0,0,1,1.06315,1.62566l63.8227,116.26666h0l.003.0063a13.99067,13.99067,0,0,1,.61767,1.323c.1704.40946.31.82673.43961,1.24682.06209.20038.13938.3973.19192.60007.04342.16782.07208.33846.10879.50736.082.373.15672.74683.20753,1.12351.02043.14915.03538.29938.05123.44918.04342.43182.07013.8645.07317,1.29718.00065.07946.00716.15892.00607.23838a13.76434,13.76434,0,0,1-.10464,1.51059c-.01324.106-.02866.21146-.04407.31676a13.408,13.408,0,0,1-.29917,1.49995c-.00977.03734-.0241.0736-.03365.11072a13.21925,13.21925,0,0,1-.45678,1.34734c-.04665.11984-.09314.23924-.14416.35735a12.98351,12.98351,0,0,1-.69537,1.40747l-.003.00673v0l18.81319-7.6333.00149-.00326q.31882-.549.58075-1.12306c.04321-.09379.07469-.19192.1155-.2868.05145-.12.09856-.24054.14654-.3619.05732-.1472.125-.29092.17694-.43963.10356-.29266.1904-.5903.27271-.88882.01191-.04407.02822-.08619.03992-.13026.003-.01194.00784-.0241.01085-.03626.09034-.34519.16782-.69364.22948-1.04469.02475-.13482.03691-.27159.05645-.40707.01606-.11028.03256-.22014.04559-.33064.01324-.10747.03408-.2132.04429-.32023q.05276-.54416.06274-1.0918c.00043-.031-.00239-.06209-.00239-.09314C902.554,318.01149,902.54747,317.93376,902.54682,317.85561Z"/></g><path class="cls-5" d="M801.09106,55.689a5.64073,5.64073,0,0,1,7.19454-3.857c1.69969.63264,3.11651,2.19533,3.11651,5.647,0,8.6298-8.16065,31.06987-16.32064,30.47913-8.15955-.59073-33.46729-18.24544-33.46729-18.24544l3.54069-4.4888S790.31,82.22273,793.33274,79.25517C795.634,76.99557,799.03663,62.58371,801.09106,55.689Z"/><path class="cls-22" d="M811.40211,61.32842c-4.3744,15.50063-11.46559,26.981-16.32064,26.6297-1.88162-.13634-4.67572-1.18016-7.86147-2.70617"/><path class="cls-22" d="M788.72777,78.7465c2.254.8569,3.94952,1.15172,4.605.50867,2.30128-2.2596,3.90349-10.23223,5.95768-17.12673"/><path class="cls-23" d="M764.3707,66.59444s-.58705-4.03027-2.75652-5.91081c-2.16952-1.881-3.60261-4.03006-4.22938-4.03006-.627,0,1.43311,4.51116,1.43311,4.51116a20.85082,20.85082,0,0,1-7.52282-6.48157s-4.47815,4.38828,1.343,9.22443c5.82137,4.83616,9.84233,4.70655,9.84233,4.70655Z"/><path class="cls-16" d="M810.84653,75.92873A69.21132,69.21132,0,1,0,701.5801,132.35347c7.4429,5.291,13.43013,14.20562,13.43013,23.33735h0c0,13.60034,8.79978,25.0264,22.38514,25.6662,14.50479.68257,24.27067-12.10711,24.27067-26.46144h0c0-8.30935,6.79051-14.62745,14.02173-18.72112A69.15666,69.15666,0,0,0,810.84653,75.92873Z"/><path class="cls-15" d="M783.23857,195.42391l-84.28429-2.44652h0A20.92281,20.92281,0,0,1,719.877,172.05465h39.99187a23.36964,23.36964,0,0,1,23.3697,23.36926Z"/><path class="cls-24" d="M715.28229,164.69425H763.656a1.6997,1.6997,0,0,1,1.6997,1.6997v4.36655a1.6997,1.6997,0,0,1-1.6997,1.6997h-48.3737a1.6995,1.6995,0,0,1-1.6995-1.6995v-4.36695A1.6995,1.6995,0,0,1,715.28229,164.69425Z"/><path class="cls-25" d="M681.92849,70.16533S689.4,18.76172,742.89566,16.371"/><path class="cls-26" d="M747.97648,158.4022s-1.19537-107.66269,27.49506-92.7198c28.69043,14.94311-66.53473,40.45647-70.82944,4.48293-4.29514-35.97354,35.86282,18.1966,22.71319,90.68687"/><path class="cls-27" d="M763.87787,164.73506H714.309a3.88286,3.88286,0,0,1-3.88264-3.88286h0a3.883,3.883,0,0,1,3.88264-3.88308h49.56888a3.88275,3.88275,0,0,1,3.88265,3.88308h0A3.88256,3.88256,0,0,1,763.87787,164.73506Z"/><path class="cls-28" d="M805.62805,74.83193s25.53573,18.48774,22.61267,35.21477c-2.92239,16.72682-11.18986,33.50054-11.18986,33.50054l15.594,43.81634h-4.39631L805.20709,147.216a7.30368,7.30368,0,0,1-.62807-2.963V76.86357"/><path class="cls-14" d="M804.739,75.24226l-6.19044,20.908-13.00439,43.92359a7.22356,7.22356,0,0,0-.23534,2.996l10.53334,45.83756h4.42432l-2.521-46.24658s12.728-13.95725,20.30226-29.27638c7.57425-15.31892-11.72151-39.82015-11.72151-39.82015"/><polygon class="cls-5" points="795.842 188.907 786.426 196.401 797.833 196.401 798.58 193.992 799.346 196.401 800.989 196.401 800.267 188.907 795.842 188.907"/><polygon class="cls-5" points="828.249 187.364 818.832 194.857 830.24 194.857 830.986 192.449 831.753 194.857 833.395 194.857 832.672 187.364 828.249 187.364"/><polygon class="cls-5" points="807.037 45.332 832.188 104.417 785.151 111.681 797.888 45.394 807.037 45.332"/><line class="cls-22" x1="808.31208" y1="73.56428" x2="819.81001" y2="106.3284"/><line class="cls-22" x1="801.76799" y1="85.278" x2="798.53078" y2="109.61424"/><polygon class="cls-23" points="804.066 37.967 808.312 48.328 797.926 47.622 796.896 38.711 804.066 37.967"/><path class="cls-29" d="M805.20927,38.45242s-1.60482,5.86022-7.69626,5.59579l-.36994-3.19769Z"/><path class="cls-23" d="M785.79625,17.94716s3.08827,10.96472,1.80042,15.56163a3.87993,3.87993,0,0,0,3.19227-.36907,9.56541,9.56541,0,0,0,3.27259,6.637,5.16082,5.16082,0,0,0,3.99185,1.216l3.686-.4266a5.23473,5.23473,0,0,0,3.489-1.9448c1.99061-2.49211,5.19047-7.25055,4.309-11.1892l-2.107-2.48582s2.254-6.73037-1.03058-7.15893c-3.2841-.42877-3.5596,2.43393-3.5596,2.43393l-2.96452-8.1487S789.25381,7.64047,785.79625,17.94716Z"/><path class="cls-30" d="M799.87573,12.0726s-4.52462,9.82386-20.56279,9.25309c0,0-7.69018-3.55808,3.96365-11.17422,0,0-5.64055-1.57117-1.83475-3.62907C785.247,4.46471,797.70753-1.42483,804.12441,5.111c0,0,8.92353-3.25631,10.73937,10.68618,1.815,13.94271-5.24407,14.0467-5.24407,14.0467l-2.18928-4.8976s2.72246-6.17763-1.03058-7.15893c-3.75238-.98108-3.5596,2.43393-3.5596,2.43393S798.39661,18.511,799.87573,12.0726Z"/><path class="cls-29" d="M787.59667,33.50879s2.592-2.12694,4.07978-1.27938c1.488.84735-.88751.91031-.88751.91031A4.04241,4.04241,0,0,1,787.59667,33.50879Z"/><path class="cls-31" d="M793.22265,34.9332s3.60584,2.02273,4.14338-2.20293"/><path class="cls-32" d="M790.90313,20.93925s3.4035.7642,3.66533,2.33754C794.82985,24.85056,789.59813,21.98112,790.90313,20.93925Z"/><path class="cls-32" d="M791.988,25.22614c.429.64892.50867,1.3519.17737,1.57095-.33086.21884-.94678-.12961-1.376-.77831-.42921-.64913-.50824-1.35254-.17759-1.57116C790.94286,24.22834,791.55921,24.57723,791.988,25.22614Z"/><polygon class="cls-23" points="801.768 47.883 795.294 61.165 797.888 45.394 801.768 47.883"/><path class="cls-5" d="M799.62869,59.18867a5.64072,5.64072,0,0,1,3.2628-7.48306c1.72661-.55578,3.80666-.20538,5.94316,2.506,5.34222,6.7777,12.82441,29.45224,6.05019,34.0396-6.77444,4.58758-37.57879,6.38844-37.57879,6.38844l.00174-5.71738s30.27917-2.22182,30.81585-6.42317C808.53244,79.29989,802.28317,65.875,799.62869,59.18867Z"/><path class="cls-22" d="M811.21777,57.23475c6.15961,14.88168,7.69713,28.28749,3.66707,31.01646-1.56248,1.05837-4.40324,1.968-7.84975,2.74178"/><path class="cls-22" d="M802.20067,65.36044c2.6545,6.6863,6.33177,13.93945,5.923,17.13866-.11637.911-1.63065,1.72856-3.93084,2.45108L792.16645,87.334"/><path class="cls-23" d="M777.54052,90.48454s-2.95584-2.80192-5.82375-2.93609c-2.86813-.13395-5.32377-.93506-5.81638-.54731-.49217.38839,3.91826,2.65624,3.91826,2.65624a20.85406,20.85406,0,0,1-9.92112-.43355s-.7998,6.21844,6.76554,6.413c7.56556.19474,10.64341-2.39615,10.64341-2.39615Z"/><g class="cls-12"><path class="cls-33" d="M1014.611,528.85308c-.0419.47394-.07534.94809-.16218,1.42007-.07077.38752-.18887.77158-.28983,1.15693-.11788.449-.2273.89858-.38535,1.34429-.13135.37-.30631.73576-.46569,1.10266-.20429.46938-.4075.93854-.65738,1.40205-.1819.33759-.39947.66954-.60506,1.003-.32674.52929-.67193,1.05446-1.05924,1.57247-.37407.50063-.759.99823-1.19037,1.48714-.10117.11507-.19257.23273-.297.34736-.58139.63459-1.22247,1.25485-1.9005,1.86578-.4316.38883-.91248.764-1.38272,1.14173-.41706.33478-.81739.67389-1.26484.99867-.50842.36994-1.07009.72295-1.61871,1.08008-.56729.36929-1.10678.749-1.71684,1.10375a46.93869,46.93869,0,0,1-4.25454,2.15169c-.42248.19062-.85582.36864-1.2872.54927q-1.72791.72458-3.54351,1.34234c-.43314.14785-.85866.307-1.29938.44571-.76091.23946-1.54077.44984-2.31995.66216-.59008.16109-1.17452.3326-1.77437.47784-.81934.19843-1.65692.36343-2.49143.53255-.5684.11507-1.13048.24446-1.70558.34585-1.68688.29808-3.39916.53342-5.12577.71426-.5332.05558-1.07183.08988-1.60764.13417-1.01278.08445-2.028.1587-3.0468.203-.65087.02822-1.302.04212-1.9537.05384-.82325.0152-1.64607.02236-2.46973.01194-.69062-.00912-1.38076-.03-2.0703-.05731q-1.14468-.04527-2.28456-.12223-1.04535-.0723-2.0831-.1739-1.13132-.10943-2.25373-.25184-1.01246-.12928-2.01709-.28527c-.80328-.125-1.59982-.2653-2.39224-.416-.625-.11919-1.24791-.2425-1.866-.37754-.9468-.20776-1.87861-.442-2.80411-.68777-.51692-.13656-1.03688-.26595-1.54555-.41467-1.6567-.48348-3.27671-1.02537-4.8418-1.63478-.77744-.30307-1.5297-.63523-2.28109-.96935-.38514-.17086-.78482-.32653-1.16323-.50629-1.13783-.54036-2.24548-1.11351-3.30971-1.72726-8.89292-5.13489-13.33483-11.87459-13.31548-18.60453l-.05169,17.9719c-.01889,6.7295,4.42323,13.46942,13.31661,18.60388,1.064.6144,2.17077,1.18733,3.309,1.72726.3784.1802.77787.33564,1.16453.50715.6741.29982,1.33843.61136,2.034.886.07926.03127.16738.05211.24727.08315,1.56664.61006,3.18467,1.15086,4.84224,1.63521.13308.03886.25466.09314.38774.13113.37754.10769.77354.18172,1.15433.28289.92616.24532,1.85644.47957,2.80366.68712.25249.05536.49434.13048.74748.18324.36864.0762.74965.12418,1.12111.19517.79394.15089,1.58984.29113,2.39442.4164.32111.04972.63393.12028.95633.16609.35018.04971.70666.07359,1.05794.1181q1.1222.143,2.25112.25184c.36017.03473.71535.09053,1.07639.12027.335.02736.67345.03083,1.00953.05406.762.05276,1.52383.09183,2.2889.12266.38234.015.76181.05124,1.14456.06079.30568.0076.612-.008.91747-.00412.82586.01085,1.64932.0039,2.4754-.01151.4088-.00717.81871.00847,1.22727-.00565.24294-.00825.482-.03777.7236-.04819,1.02277-.04473,2.03815-.119,3.05441-.20364.40706-.03365.81847-.04125,1.22467-.08163.12613-.01238.24814-.03887.37428-.05211q2.59187-.27094,5.12838-.714c.08271-.01476.1689-.02019.25053-.03495.49065-.08836.96437-.21167,1.45046-.31.83714-.16977,1.67581-.335,2.49819-.53429.59616-.14415,1.17517-.3148,1.76243-.47458.7833-.2132,1.567-.42444,2.33232-.66542.16283-.05124.33434-.08923.49652-.14177.27376-.089.52365-.20928.79546-.30155q1.81941-.6194,3.55156-1.3456c.4303-.18.86016-.3567,1.28177-.54688a46.89483,46.89483,0,0,0,4.2565-2.15256q.2781-.16152.55013-.32544c.41315-.24879.76594-.51735,1.15911-.77331.55212-.35909,1.11525-.71318,1.62718-1.08551.447-.32478.84648-.663,1.262-.99671.47176-.37885.95264-.75422,1.38511-1.14348.08641-.07859.19365-.152.27919-.23056.57988-.53494,1.11438-1.08182,1.62023-1.63521.1053-.11485.196-.23143.29765-.34693.30025-.34085.60636-.67975.87926-1.026.11919-.15089.19756-.3085.31067-.46048.388-.51865.73294-1.04382,1.06011-1.57355.13677-.22253.318-.43724.44506-.66107.06361-.11246.099-.22883.16-.34194.25032-.46438.45353-.93354.65739-1.40356.119-.274.28071-.543.38383-.81913.03452-.09292.04736-.18757.08076-.28071.15892-.44723.269-.89771.38645-1.34842.07989-.30394.2006-.60484.26139-.90987.01606-.081.013-.16261.02822-.24381.08684-.47241.11962-.94569.16217-1.42006.028-.3085.0964-.6157.10552-.92442.00369-.13178.00607-.26421.00607-.39621l.05146-17.9719C1014.72241,527.97339,1014.65058,528.4128,1014.611,528.85308Z"/><path class="cls-34" d="M1001.40713,508.92857c17.67338,10.20357,17.76652,26.74672.208,36.9505-17.55851,10.204-46.11848,10.204-63.79143.00043-17.67338-10.204-17.76695-26.74693-.2082-36.95049C955.174,498.725,983.734,498.725,1001.40713,508.92857Z"/></g><g class="cls-12"><path class="cls-35" d="M1014.611,496.26286c-.0419.47393-.07534.94786-.16218,1.42006-.07077.38753-.18887.77158-.28983,1.15694-.11788.449-.2273.89815-.38535,1.34385-.13135.37038-.30631.73576-.46569,1.10288-.20429.46959-.4075.93875-.65738,1.402-.1819.33781-.39947.66955-.60506,1.00323-.32674.52886-.67193,1.05446-1.05924,1.57247-.37407.50042-.759.99823-1.19037,1.48693-.10117.11528-.19257.23252-.297.34736-.58139.63437-1.22247,1.25507-1.9005,1.86577-.4316.38883-.91248.7642-1.38272,1.142-.41706.33434-.81739.67367-1.26484.99888-.50842.36973-1.07009.72252-1.61871,1.07965-.56729.36951-1.10678.749-1.71684,1.10375a47.00225,47.00225,0,0,1-4.25454,2.15191c-.42248.1904-.85582.36842-1.2872.54927q-1.72791.72457-3.54351,1.34234c-.43314.14784-.85866.30719-1.29938.44571-.76091.23946-1.54077.44961-2.31995.66216-.59008.16065-1.17452.3326-1.77437.47784-.81934.198-1.65692.36321-2.49143.53255-.5684.11506-1.13048.24424-1.70558.34584-1.68688.29786-3.39916.5332-5.12577.71383-.5332.0558-1.07183.08988-1.60764.1346-1.01278.08446-2.028.15849-3.0468.20278-.65087.02844-1.302.0419-1.9537.05406-.82325.015-1.64607.02192-2.46973.0115-.69062-.00912-1.38076-.03-2.0703-.0571-.76312-.03039-1.52449-.06969-2.28456-.12244-.6969-.04776-1.39054-.107-2.0831-.1739q-1.13132-.10942-2.25373-.25184-1.01246-.12862-2.01709-.28484-1.20492-.18758-2.39224-.41618c-.625-.119-1.24791-.24272-1.866-.37776-.9468-.20733-1.87861-.44158-2.80411-.68712-.51692-.13678-1.03688-.26617-1.54555-.41488-1.6567-.48392-3.27671-1.02538-4.8418-1.63521-.77744-.30264-1.5297-.63481-2.28109-.96871-.38514-.17151-.78482-.32674-1.16323-.5065-1.13783-.54037-2.24548-1.11352-3.30971-1.7277-8.89292-5.13445-13.33483-11.87459-13.31548-18.60409l-.05169,17.97189c-.01889,6.72951,4.42323,13.46921,13.31661,18.60367,1.064.61461,2.17077,1.18754,3.309,1.72748.3784.18.77787.33563,1.16453.50715.6741.29938,1.33843.61114,2.034.88577.07926.03148.16738.05232.24727.08337,1.56664.60984,3.18467,1.15085,4.84224,1.635.13308.03864.25466.09292.38774.13091.37754.10769.77354.18215,1.15433.2831.92616.24576,1.85644.48,2.80366.68713.25249.05558.49434.13091.74748.18345.36864.0762.74965.12418,1.12111.19474.79394.1511,1.58984.29157,2.39442.4164.32111.04972.63393.12093.95633.16652.35018.04972.70666.07338,1.05794.1181q1.1222.14232,2.25112.25184c.36017.03452.71535.09075,1.07639.12028.335.02735.67345.03061,1.00953.05384.762.05275,1.52383.092,2.2889.12288.38234.01476.76181.05145,1.14456.06078.30568.0076.612-.00846.91747-.00412.82586.01085,1.64932.00391,2.4754-.01151.4088-.0076.81871.00847,1.22727-.00564.24294-.00825.482-.03778.7236-.04841,1.02277-.04451,2.03815-.11876,3.05441-.20343.40706-.03387.81847-.04125,1.22467-.08163.12613-.01281.24814-.03908.37428-.05232q2.59187-.27095,5.12838-.71405c.08271-.01476.1689-.02019.25053-.03495.49065-.08836.96437-.21168,1.45046-.31024.83714-.16934,1.67581-.33455,2.49819-.53385.59616-.14416,1.17517-.3148,1.76243-.47459.7833-.21363,1.567-.42465,2.33232-.66541.16283-.05146.33434-.08945.49652-.14177.27376-.089.52365-.20929.79546-.30156q1.81941-.61971,3.55156-1.34559c.4303-.18041.86016-.35714,1.28177-.5471a46.78663,46.78663,0,0,0,4.2565-2.15256q.2781-.16185.55013-.32544c.41315-.2488.76594-.51757,1.15911-.77288.55212-.3593,1.11525-.71361,1.62718-1.08573.447-.32478.84648-.663,1.262-.99714.47176-.37863.95264-.75356,1.38511-1.143.08641-.07881.19365-.152.27919-.231.57988-.53494,1.11438-1.08182,1.62023-1.635.1053-.11463.196-.23165.29765-.34715.30025-.34042.60636-.67953.87926-1.02581.11919-.15066.19756-.3085.31067-.46047.388-.51887.73294-1.04382,1.06011-1.57355.13677-.2221.318-.43724.44506-.66129.06361-.11246.099-.22883.16-.3415.25032-.46439.45353-.93311.65739-1.40357.119-.27441.28071-.5434.38383-.81912.03452-.09292.04736-.18758.08076-.28071.15892-.44745.269-.89772.38645-1.34842.07989-.30395.2006-.60485.26139-.91031.01606-.08076.013-.16261.02822-.24337.08684-.47242.11962-.94613.16217-1.4205.028-.30807.0964-.61526.10552-.924.00369-.13222.00607-.26422.00607-.39621l.05146-17.9719C1014.72241,495.38338,1014.65058,495.82258,1014.611,496.26286Z"/><path class="cls-36" d="M1001.40713,476.33835c17.67338,10.20334,17.76652,26.7465.208,36.95028-17.55851,10.20421-46.11848,10.20421-63.79143.00021-17.67338-10.20356-17.76695-26.74671-.2082-36.95028C955.174,466.13435,983.734,466.13435,1001.40713,476.33835Z"/></g><path class="cls-37" d="M947.80971,469.87175s21.85888-39.36249,28.33872-24.5516c6.48049,14.81068-13.21911,30.06751-13.21911,30.06751Z"/><path class="cls-23" d="M947.64666,445.32015s-7.57294,12.33768-11.05894,10.74263c-3.48622-1.595-19.50008-.592-12.90887-16.47107,6.59121-15.87882,23.96781-32.15016,23.96781-32.15016s-1.498-11.29211,0-16.08572,3.75456,8.22186,3.75456,8.22186,5.53306-1.03123,5.53306,1.06575c0,2.09742-5.09321,6.79659-5.09321,6.79659l-5.09581,11.8531Z"/><polygon class="cls-37" points="940.342 486.262 944.196 480.584 951.036 486.262 946.906 492.199 940.342 486.262"/><path class="cls-15" d="M944.7768,489.112s-7.8263-9.71183-13.18589-6.94856c-5.35981,2.76327,7.83954,9.93371,7.83954,9.93371s7.27638,9.643,10.26717,3.709C952.68842,489.8716,944.7768,489.112,944.7768,489.112Z"/><path class="cls-5" d="M1002.44336,480.16238s4.96728,23.90724-15.04773,25.24176c-20.01461,1.33431-62.34361-25.24176-67.68084-46.5909-5.33744-21.34935,43.36564,13.34308,43.36564,13.34308Z"/><path class="cls-23" d="M957.91145,397.63506l-.97717,13.88322s13.16244,4.67334,16.28219-4.07673l-3.00794-9.14563Z"/><path class="cls-29" d="M966.72122,402.22416s-2.34969,8.34322-9.54748,5.89366l.48414-6.8793Z"/><path class="cls-23" d="M961.91025,377.37426c-1.99536,3.13647-5.85784,7.59379-11.91954,8.16238a.55237.55237,0,0,0-.29634.96241l2.704,2.42394s-6.80028,10.56113,3.21376,12.98246c10.014,2.42112,20.0526,3.43412,24.35251-10.30017,3.37919-10.79148-1.03991-19.78513-9.08874-19.64445A11.10314,11.10314,0,0,0,961.91025,377.37426Z"/><path class="cls-36" d="M961.91025,377.37426s-6.614,1.03992-4.976-5.41517c1.63846-6.45508,14.3324-1.03383,14.3324-1.03383s2.90873-8.33042,8.06555-.39687c5.15681,7.93377,2.51211,11.10693,2.51211,11.10693s3.20659,21.81872-15.12312,21.68564c0,0-6.44336-3.12431-1.412-10.68575,3.0188-4.53721,1.46566-5.42038-.26009-5.40106a7.65564,7.65564,0,0,1-6.35456-2.81016C957.23062,382.4501,956.9651,379.8401,961.91025,377.37426Z"/><path class="cls-23" d="M997.68014,423.11369s14.68042,20.972,12.58344,35.35263c-2.09742,14.381-18.27584-6.59729-18.27584-6.59729l-4.59211-26.47469Z"/><path class="cls-15" d="M973.21647,407.44155s13.07886-.5065,28.35848,17.46974l-9.63649,6.23516Z"/><path class="cls-15" d="M973.21647,407.44155s35.23105,30.6895,29.22689,72.72083c0,0-26.68656,10.67467-39.36293-8.00606l-10.00731-26.83617-8.00582,7.48849s-16.01214-5.33722-14.67783-14.01022c1.33409-8.67321,26.68657-28.02132,26.68657-28.02132S966.00631,412.11162,973.21647,407.44155Z"/><line class="cls-38" x1="953.07312" y1="445.32015" x2="956.67356" y2="440.51222"/><path class="cls-38" d="M992.64447,439.28777s8.74988,22.02258,6.28748,36.09989"/><path class="cls-38" d="M973.21647,410.82421s-3.16469,4.067-11.91975,3.81491"/><line class="cls-38" x1="990.89441" y1="429.89747" x2="980.18305" y2="414.65019"/><path class="cls-29" d="M949.69437,386.49905s2.77347.22491,2.704,2.42394Z"/><path class="cls-39" d="M951.93725,391.98282a1.90809,1.90809,0,0,0,3.20811.78265"/><path class="cls-15" d="M956.93428,386.19272c0,.81109.32348,1.46847.72275,1.46847s.72271-.65738.72271-1.46847-.32348-1.468-.72271-1.468S956.93428,385.38162,956.93428,386.19272Z"/><path class="cls-40" d="M1209.3571,288.5439a18.02608,18.02608,0,0,0-5.15356.757,18.02328,18.02328,0,1,0-34.19851-.65564,18.26187,18.26187,0,0,0-1.89769-.10139,18.03319,18.03319,0,0,0-1.91006,35.96507l-.00065.00282h.01715a17.95427,17.95427,0,0,0,3.715.00869l39.42828.092a18.03432,18.03432,0,1,0,0-36.06863Z"/><path class="cls-40" d="M209.18319,243.29041a18.026,18.026,0,0,0-5.15356.757,18.02328,18.02328,0,1,0-34.19852-.65564,18.26153,18.26153,0,0,0-1.89768-.10139,18.03319,18.03319,0,0,0-1.91006,35.96507l-.00065.00283h.01715a17.95518,17.95518,0,0,0,3.715.00868l39.42828.092a18.03432,18.03432,0,1,0,0-36.06863Z"/><path class="cls-41" d="M1031.0934,55.74782a18.01758,18.01758,0,0,0-5.15378.75682,18.023,18.023,0,1,0-34.19851-.65565,18.25918,18.25918,0,0,0-1.8979-.10117,18.03322,18.03322,0,0,0-1.91006,35.96508l-.00022.00238.01737.00044a17.9922,17.9922,0,0,0,3.71482.00825l39.42828.09205a18.0341,18.0341,0,0,0,0-36.0682Z"/><path class="cls-41" d="M131.865,75.26177a18.01753,18.01753,0,0,0-5.15378.75681,18.023,18.023,0,1,0-34.19852-.65564,18.25643,18.25643,0,0,0-1.8979-.10117,18.03321,18.03321,0,0,0-1.91006,35.96507l-.00022.00239.01737.00043a17.9923,17.9923,0,0,0,3.71483.00825L131.865,111.33a18.0341,18.0341,0,0,0,0-36.06819Z"/><path class="cls-42" d="M462.35832,300.781a18.00838,18.00838,0,0,0-5.15356.75682,18.02324,18.02324,0,1,0-34.19851-.65543,18.03276,18.03276,0,0,0-3.80819,35.8639v.00239l.01716.00021a18.35085,18.35085,0,0,0,1.89291.10052c.615,0,1.22271-.03213,1.8217-.09205l39.42849.09205a18.03421,18.03421,0,0,0,0-36.06841Z"/><path class="cls-42" d="M1442.43628,208.37056a18.00838,18.00838,0,0,0-5.15356.75681,18.02324,18.02324,0,1,0-34.19851-.65543,18.03276,18.03276,0,0,0-3.80818,35.8639v.00239l.01715.00022a18.35085,18.35085,0,0,0,1.89291.10052c.61505,0,1.22271-.03213,1.8217-.09205l39.42849.09205a18.03421,18.03421,0,0,0,0-36.06841Z"/><path class="cls-16" d="M628.88793,502.213h0a5.473,5.473,0,0,1,3.21528-5.63682c3.97274-1.66648,4.33248-5.67635,3.87179-10.26826a13.9973,13.9973,0,0,1,.22666-2.64474q.465-.28429.92962-.56837a74.675,74.675,0,0,1,5.25821,6.901,14.50845,14.50845,0,0,0,7.06471,6.34567c21.05669,8.91854,30.93178,25.29886,29.73685,48.47295-.4266,8.274-2.96061,15.94851-5.45555,23.72814a220.51907,220.51907,0,0,0-5.60014,21.5608c-.61027,2.87465-.04971,6.01719.1155,9.02991.11355,2.07354.18606,4.11169,3.15145,4.56587.86148.132,1.43309,2.15582,2.577,4.0331,1.693.0495,3.20551,1.54338,2.99014,4.573a6.74842,6.74842,0,0,0,.11029,1.04122c.82412,9.20685.221,9.83536-8.74725,9.93219-17.31842.18736-34.63662.442-51.95461.66889-.46612.00586-.932.01867-1.39814.02171-8.762.05688-12.5958-6.13226-8.63261-14.17566.54883-1.11308,2.06181-1.75136,3.36812-2.80257-1.3938-3.60063,1.82519-3.56177,3.90566-3.93171-.55036-5.2569-1.64368-10.39309-1.4928-15.49216.23035-7.8,3.68834-14.69627,8.43267-20.72062,5.10905-6.48679,10.732-12.56932,16.13174-18.82685,1.19538-1.38532,2.39572-2.76631,3.04116-3.51162-4.42627-.853-9.05661-1.50538-13.55214-2.67621-4.88218-1.27157-8.76548-.66824-12.08193,3.575-3.8783,4.96186-8.83169,5.73366-14.25316,2.56832a20.41447,20.41447,0,0,1-5.43253-4.30947,10.58542,10.58542,0,0,1-1.98844-5.14445c-.75378-5.42819,1.571-8.93395,6.27424-12.0956,7.23123-4.86134,13.73407-10.79321,18.2702-18.5216a6.47836,6.47836,0,0,1,2.98905-2.15256C622.82862,504.49622,625.78034,503.42917,628.88793,502.213Z"/><line class="cls-43" x1="609.71525" y1="606.99103" x2="673.97931" y2="606.99103"/><line class="cls-44" x1="613.35975" y1="602.66832" x2="668.40479" y2="602.66832"/><path class="cls-45" d="M592.28568,537.60185s6.77443.74726,5.06065,8.74985"/><line class="cls-45" x1="602.75127" y1="549.3058" x2="609.84008" y2="543.75169"/><path class="cls-45" d="M618.46119,514.51s4.61037-1.26852,4.61037,2.00059"/><line class="cls-46" x1="373.9278" y1="196.2908" x2="334.65735" y2="169.32828"/><path class="cls-36" d="M538.49351,220.89038l-3.28866,40.50228a6.9476,6.9476,0,0,1-8.05035,6.29356l-9.90418-1.62609a6.93935,6.93935,0,0,1-5.27753-9.546c3.21094-7.58662,6.52565-19.87328,2.94435-33.75976a2.0679,2.0679,0,0,1,1.83623-2.58742l19.51832-1.50733A2.06909,2.06909,0,0,1,538.49351,220.89038Z"/><path class="cls-16" d="M418.20569,238.09156h17.04683v-38.876H418.20569a19.43792,19.43792,0,0,0-19.4382,19.43777h0A19.43829,19.43829,0,0,0,418.20569,238.09156Z"/><path class="cls-47" d="M506.49553,182.67678s-22.19018,3.26912-77.7502-23.05251c0,0-11.04548-4.84354-14.26054,6.07016-3.21506,10.91349,3.00425,102.032,17.23592,107.765,0,0,6.71561-.05124,18.27475-11.14752,11.55958-11.09651,40.841-34.50072,46.68686-36.25273Z"/><path class="cls-36" d="M414.48479,165.69422c2.633-8.93786,10.51445-7.30765,13.28271-6.42426-2.11825.89685-4.06718,2.77825-5.14118,6.42426-3.02749,10.27672,2.31191,91.66121,14.82783,105.91177-3.71722,1.83343-5.73344,1.8534-5.73344,1.8534C417.48926,267.72617,411.26973,176.60792,414.48479,165.69422Z"/><path class="cls-16" d="M496.68232,226.76667h29.96917a22.15772,22.15772,0,0,0,22.15782-22.15762h0a22.15763,22.15763,0,0,0-22.15782-22.15784H496.68232Z"/><path class="cls-48" d="M512.95735,195.95863h24.351a2.11723,2.11723,0,0,0,2.11717-2.11761h0a2.117,2.117,0,0,0-2.11717-2.11717h-24.351a2.11723,2.11723,0,0,0-2.11761,2.11717h0A2.11747,2.11747,0,0,0,512.95735,195.95863Z"/><path class="cls-48" d="M512.95735,204.60905h24.351a2.11737,2.11737,0,0,0,2.11717-2.11761h0a2.117,2.117,0,0,0-2.11717-2.11739h-24.351a2.11728,2.11728,0,0,0-2.11761,2.11739h0A2.11761,2.11761,0,0,0,512.95735,204.60905Z"/><path class="cls-48" d="M512.95735,214.75117h24.351a2.11709,2.11709,0,0,0,2.11717-2.11761h0a2.117,2.117,0,0,0-2.11717-2.11717h-24.351a2.11723,2.11723,0,0,0-2.11761,2.11717h0A2.11733,2.11733,0,0,0,512.95735,214.75117Z"/><path class="cls-49" d="M487.31807,193.841s-33.73217-.158-57.66851-22.17868"/><path class="cls-50" d="M411.26994,207.75138s-10.53985,5.03025-5.98875,17.72592"/><path class="cls-49" d="M467.08312,197.21131s-17.48691-1.67668-26.58933-10.7791"/><path class="cls-50" d="M533.43592,235.538,531.4972,256.8663a5.8771,5.8771,0,0,1-5.87891,5.3622c-3.13973-.02822-6.91055-.4887-9.18992-2.25721"/><line class="cls-46" x1="388.6258" y1="218.65336" x2="340.38493" y2="218.65336"/><line class="cls-46" x1="373.9278" y1="245.66603" x2="346.74601" y2="272.8476"/><circle class="cls-16" cx="1026.2745" cy="276.15313" r="58.78989" transform="translate(372.57703 1114.11466) rotate(-67.10265)"/><circle class="cls-51" cx="1026.2745" cy="276.15319" r="45.49817"/><circle class="cls-51" cx="1026.27434" cy="276.15319" r="31.00829"/><path class="cls-36" d="M1038.84111,276.15319a12.56672,12.56672,0,1,1-12.56672-12.56694A12.56636,12.56636,0,0,1,1038.84111,276.15319Z"/><path class="cls-36" d="M1030.596,276.15319a4.32152,4.32152,0,1,1-4.32163-4.32141A4.32184,4.32184,0,0,1,1030.596,276.15319Z"/><path class="cls-6" d="M981.84974,224.483l2.26415-22.32609a2.51027,2.51027,0,0,0-.7935-2.09742l-17.37053-16.05185a2.51073,2.51073,0,0,0-4.07671,1.02276l-4.5177,13.05867Z"/><path class="cls-6" d="M980.77639,224.85509l-22.21146,3.19769a2.51014,2.51014,0,0,1-2.12868-.70515l-16.7659-16.68209a2.51067,2.51067,0,0,1,.85125-4.11625l16.83385-6.21215Z"/><line class="cls-52" x1="957.35545" y1="198.90188" x2="1026.27439" y2="276.15319"/><line class="cls-53" x1="1026.27439" y1="203.91129" x2="1004.98887" y2="162.44963"/><line class="cls-53" x1="1045.97247" y1="206.53496" x2="1057.2826" y2="183.18024"/><line class="cls-53" x1="1071.77284" y1="214.78352" x2="1108.37879" y2="179.43285"/></g></svg>