<svg xmlns="http://www.w3.org/2000/svg" viewBox="0 0 1528 642"><defs><style>.cls-1{isolation:isolate;}.cls-2{fill:#f7f7f7;}.cls-3{fill:#fae9dc;}.cls-4{fill:#f0cdb6;}.cls-5{fill:#fff6f0;}.cls-6{fill:#ff7c3b;}.cls-7{fill:#ffab3b;}.cls-8{fill:#ffd194;}.cls-9{fill:#404059;}.cls-10{fill:#65658c;}.cls-11{fill:#fff;}.cls-12{fill:#28495c;}.cls-13{fill:#1d3442;}.cls-14{fill:#ffb03a;}.cls-15{fill:#fe653b;}.cls-16{fill:#fd7816;}.cls-17{mix-blend-mode:screen;}.cls-18{fill:#333;}.cls-19{fill:#f04936;}.cls-20{fill:#ff643b;}.cls-21{fill:#1a1a1a;}.cls-22{fill:#367394;}.cls-23{fill:#79c5ee;}.cls-24{fill:#fad6b9;}.cls-25{fill:#40312a;}.cls-26{fill:#fec6ab;}.cls-27{fill:#fd9b73;}.cls-28{fill:#ff4e3a;}.cls-29{fill:#5091b9;}.cls-30{mix-blend-mode:color-burn;}.cls-31{fill:#ccc;}.cls-32{fill:#1a7eb4;}.cls-33{fill:#12405b;}.cls-34{fill:#506b79;}</style></defs><title>enhancing-triplaw&amp;apos;s-online-presence</title><g class="cls-1"><g id="BACKGROUND"><rect class="cls-2" width="1528" height="642"/></g><g id="OBJECTS"><path class="cls-3" d="M1129.04417,241.52419C1071.906,32.64187,805.76955-8.46007,585.12954,99.72894S360.09815,619.57108,731.09832,631.81354,1166.702,379.19144,1129.04417,241.52419Z"/><path class="cls-4" d="M608.19449,639.6059c-41.30369,0-79.63251-13.24036-115.40419-52.94166C475.434,567.40149,464.17278,547.309,458.36159,525.237c-5.188-19.70641-5.88074-40.56737-2.11712-63.77482,6.98236-43.05552,27.88015-86.33,50.00466-132.14554,7.69481-15.935,15.65219-32.4128,22.87327-48.70639,13.19051-29.76221,22.81464-62.63634,32.12219-94.428,24.43724-83.47031,47.51912-162.3115,130.08447-180.482,97.84706-21.536,133.45941,21.10072,178.54541,75.07914,23.74085,28.424,50.64966,60.64011,90.92953,88.99352,80.43733,56.62121,130.05594,105.95337,156.15314,155.25181,31.89443,60.24887,29.01244,121.48417-8.81148,187.20433-20.81427,36.16449-47.66027,58.05027-84.48582,68.87513-32.7729,9.634-69.38831,9.31222-108.14987,8.975-38.30287-.3373-77.90718-.68083-117.76727,8.39947-22.7944,5.19268-44.77566,11.351-66.03307,17.307C687.75692,628.09921,646.6831,639.6059,608.19449,639.6059ZM691.55739,6.73809l.2283,1.03781C610.44963,25.676,587.53953,103.9303,563.2844,186.77947c-9.32677,31.8581-18.97163,64.80121-32.21922,94.69214-7.23509,16.32522-15.19973,32.81858-22.90234,48.76914-43.70465,90.50406-84.985,175.98875-13.794,255.00065,68.22336,75.71738,146.32874,53.83469,236.76742,28.49716,21.2823-5.96221,43.289-12.12782,66.13427-17.33243,40.10242-9.13528,79.83485-8.78919,118.25812-8.45242,78.25586.68289,145.84875,1.27444,190.7749-76.78528,37.4301-65.03521,40.30015-125.59854,8.77518-185.14946-25.93428-48.99073-75.34532-98.0868-155.49827-154.50771-40.50873-28.51479-67.51248-60.84508-91.33741-89.3692C823.6199,28.71781,788.3739-13.482,691.78569,7.7759Z"/><path class="cls-5" d="M737.96806,177.18409c55.81254-26.85518,101.63274-69.33981,147.17753-44.65326s6.54108,99.91238,48.99756,133.45881,133.1274,91.29353,86.26164,190.96594S835.80268,498.34246,797.613,476.21989,726.32351,580.80313,620.38491,541.17s-29.22683-132.69977-29.325-169.56828-68.81558-97.38544-21.74219-137.947S658.50679,215.41829,737.96806,177.18409Z"/><path class="cls-6" d="M1046.86528,285.31216c-13.66611-75.07168,5.66543-126.722,28.21889-110.0256S1050.567,295.06649,1050.567,295.06649Z"/><path class="cls-7" d="M1046.86528,346.59233c11.03531-105.20657,74.67974-178.37331,116.28478-146.73358s-160.8535,260.1592-160.8535,260.1592Z"/><path class="cls-7" d="M960.34722,493.00249c110.44105-2.4547,223.20836-61.52328,215.69052-102.33433s-180.13209,43.44752-187.74055,60.14259S960.34722,493.00249,960.34722,493.00249Z"/><path class="cls-8" d="M1041.71005,375.07622a1.49286,1.49286,0,0,1-1.32849-2.16851c.54092-1.06386,54.53969-106.82545,91.25558-145.653a1.49171,1.49171,0,0,1,2.16754,2.05c-36.42069,38.51488-90.22523,143.89577-90.7642,144.95576A1.49184,1.49184,0,0,1,1041.71005,375.07622Z"/><path class="cls-8" d="M1097.0451,277.9512a1.49216,1.49216,0,0,1-.66523-2.82788c1.0323-.51321,25.4257-12.58417,39.50492-11.98645a1.49143,1.49143,0,1,1-.12237,2.98034c-13.3033-.53945-37.80836,11.55481-38.05406,11.67765A1.48984,1.48984,0,0,1,1097.0451,277.9512Z"/><path class="cls-8" d="M967.47616,471.00235a1.492,1.492,0,0,1-.64-2.84c1.25663-.59528,126.17-59.56472,175.00639-65.7284a1.49168,1.49168,0,1,1,.3729,2.96c-48.36634,6.104-172.8505,64.87141-174.1013,65.46424A1.49255,1.49255,0,0,1,967.47616,471.00235Z"/><path class="cls-8" d="M1124.12848,430.537a1.48739,1.48739,0,0,1-.72056-.18643c-10.16949-5.61643-34.58913-10.25013-34.83484-10.29625a1.4916,1.4916,0,1,1,.5516-2.93177c1.02065.19179,25.13631,4.76865,35.7263,10.61669a1.49193,1.49193,0,0,1-.7225,2.79776Z"/><path class="cls-8" d="M1103.603,443.89129a1.48977,1.48977,0,0,1-.60793-.13013c-14.31518-6.39627-39.30681-14.356-39.55737-14.43561a1.49171,1.49171,0,0,1,.90314-2.84344c.25251.08012,25.40435,8.09132,39.872,14.55506a1.49223,1.49223,0,0,1-.60984,2.85412Z"/><path class="cls-8" d="M1046.86471,299.44a1.49141,1.49141,0,0,1-1.48871-1.42271c-1.6004-34.67167,16.88379-105.26582,17.0712-105.97473a1.49138,1.49138,0,1,1,2.88421.76036c-.18546.70456-18.55506,70.86027-16.976,105.07647a1.49164,1.49164,0,0,1-1.42074,1.55913Q1046.8997,299.44,1046.86471,299.44Z"/><path class="cls-7" d="M505.69937,390.36869c-53.56255-69.73759-84.18686-112.067-114.11956-92.243S474.69766,473.94355,525.364,452.621,505.69937,390.36869,505.69937,390.36869Z"/><path class="cls-7" d="M551.63553,496.90391c-33.75892-9.18628-54.70505,36.05239-83.20375,26.07105s-19.23306-53.71915,73.02862-47.28941S551.63553,496.90391,551.63553,496.90391Z"/><path class="cls-6" d="M549.81875,291.14418c13.90493-35.80248,4.53751-82.02205-19.3-71.66859s-13.81336,76.67359-13.81336,76.67359-11.31419-142.23563-53.11032-122.47157,5.93951,225.294,60.12161,226.6304S549.81875,291.14418,549.81875,291.14418Z"/><path class="cls-8" d="M524.13826,390.77391a1.09,1.09,0,0,1-1.23361-.87659c-.22983-1.2214-23.27677-122.94451-50.07464-193.08472a1.09,1.09,0,1,1,2.03652-.778c26.86832,70.32377,49.95077,192.23672,50.18088,193.45987a1.09016,1.09016,0,0,1-.87,1.27279Z"/><path class="cls-8" d="M537.52334,349.8423a1.09164,1.09164,0,0,1-1.2513-1.15746c.06278-.85971,6.18688-86.30654-1.85886-115.45788a1.09011,1.09011,0,1,1,2.10156-.58034c8.1459,29.51481,2.18926,112.67168,1.93181,116.19695A1.0906,1.0906,0,0,1,537.52334,349.8423Z"/><path class="cls-8" d="M532.15419,443.79576a1.08909,1.08909,0,0,1-.9917-.36836c-.85091-.99222-85.51919-99.59963-123.53305-130.04376a1.09014,1.09014,0,0,1,1.36281-1.70186c38.17267,30.57085,122.97337,129.33266,123.82566,130.32683a1.09021,1.09021,0,0,1-.66372,1.78715Z"/><path class="cls-8" d="M472.94473,506.72515a1.09014,1.09014,0,0,1-.92944-1.85391c15.66706-15.44772,35.2192-19.999,48.86627-21.09627a94.69236,94.69236,0,0,1,26.10863,1.33133,1.09015,1.09015,0,0,1-.48071,2.12664c-.43543-.09785-43.86992-9.49339-72.96324,19.19064A1.086,1.086,0,0,1,472.94473,506.72515Z"/><path class="cls-8" d="M491.39317,250.93126a1.08525,1.08525,0,0,1-.76254-.16793l-27.38176-18.04839a1.09,1.09,0,0,1,1.2-1.82009l27.38175,18.04839a1.09015,1.09015,0,0,1-.43744,1.988Z"/><path class="cls-8" d="M497.44124,272.96359a1.08512,1.08512,0,0,1-.76254-.1679l-30.40039-20.038a1.09,1.09,0,1,1,1.2-1.82009l30.40042,20.038a1.09013,1.09013,0,0,1-.43744,1.988Z"/><path class="cls-8" d="M502.72777,293.58573a1.08613,1.08613,0,0,1-.74383-.15565l-32.65265-20.58517a1.09017,1.09017,0,1,1,1.16253-1.84457l32.65266,20.58513a1.09015,1.09015,0,0,1-.41871,2.00026Z"/><path class="cls-8" d="M442.97633,345.87463l-25.601,3.86954a1.09015,1.09015,0,1,1-.32584-2.15582l25.601-3.86955a1.09016,1.09016,0,1,1,.32583,2.15583Z"/><path class="cls-8" d="M462.29557,365.97536,433.57765,370.316a1.09016,1.09016,0,0,1-.32586-2.15583l28.71794-4.34064a1.09014,1.09014,0,1,1,.32584,2.1558Z"/><path class="cls-7" d="M796.98582,542.09549c63.32439-20.24377,102.175-3.90074,89.74642,13.30595s-94.41446,1.52366-113.22174,11.78762S796.98582,542.09549,796.98582,542.09549Z"/><path class="cls-6" d="M806.56022,531.05316c19.49534-24.42214,46.67817-20.392,45.7088-12.0693s-53.0744,20.70518-53.0744,20.70518Z"/><path class="cls-8" d="M769.10836,553.326a1.08592,1.08592,0,0,0,.39244-.01359c.666-.14529,66.997-14.41325,103.68094-4.60038a1.09048,1.09048,0,1,0,.56356-2.10688c-37.197-9.9442-104.03822,4.43-104.70943,4.57636a1.0908,1.0908,0,0,0,.07249,2.14449Z"/><rect class="cls-9" x="753.72377" y="489.17499" width="67.63037" height="83.82354"/><rect class="cls-10" x="524.46933" y="168.70223" width="526.33591" height="334.90242" rx="20.29411"/><path class="cls-11" d="M565.07265,183.1319h445.12919a26.63789,26.63789,0,0,1,26.63789,26.63789V455.73a26.6379,26.6379,0,0,1-26.6379,26.6379H565.07265a26.6378,26.6378,0,0,1-26.6378-26.6378V209.7697A26.6378,26.6378,0,0,1,565.07265,183.1319Z"/><path class="cls-10" d="M932.139,579.98954H642.93886A21.23615,21.23615,0,0,1,664.175,558.75336H910.90289A21.23614,21.23614,0,0,1,932.139,579.98954Z"/><rect class="cls-3" x="552.48275" y="196.88048" width="470.30911" height="271.73891"/><rect class="cls-4" x="552.48275" y="196.88048" width="470.30911" height="45.50151"/><rect class="cls-11" x="577.50556" y="215.51251" width="420.26349" height="8.23743"/><rect class="cls-11" x="954.79404" y="292.89307" width="56.17106" height="5.89552"/><rect class="cls-11" x="954.79404" y="305.13168" width="56.17106" height="5.89552"/><rect class="cls-11" x="954.79404" y="317.37029" width="29.85414" height="5.89552"/><rect class="cls-11" x="895.48288" y="284.45089" width="47.25713" height="47.2571"/><rect class="cls-11" x="954.79404" y="373.50293" width="56.17106" height="5.89552"/><rect class="cls-11" x="954.79404" y="385.74154" width="56.17106" height="5.89552"/><rect class="cls-11" x="954.79404" y="397.98015" width="29.85414" height="5.89552"/><rect class="cls-11" x="895.48288" y="365.06072" width="47.25713" height="47.25713"/><rect class="cls-11" x="623.62063" y="292.89307" width="56.17106" height="5.89552"/><rect class="cls-11" x="623.62063" y="305.13168" width="56.17106" height="5.89552"/><rect class="cls-11" x="623.62063" y="317.37029" width="29.85415" height="5.89552"/><rect class="cls-11" x="564.30951" y="284.45089" width="47.25713" height="47.2571"/><rect class="cls-11" x="623.62063" y="373.50293" width="56.17106" height="5.89552"/><rect class="cls-11" x="623.62063" y="385.74154" width="56.17106" height="5.89552"/><rect class="cls-11" x="623.62063" y="397.98015" width="29.85415" height="5.89552"/><rect class="cls-11" x="564.30951" y="365.06072" width="47.25713" height="47.25713"/><ellipse class="cls-4" cx="939.37037" cy="598.85953" rx="64.34392" ry="12.41506"/><ellipse class="cls-4" cx="469.40489" cy="610.87942" rx="62.43353" ry="12.41506"/><path class="cls-5" d="M762.05886,290.67014c21.26508-10.23205,38.72295-26.41906,56.0759-17.01327s2.49221,38.06746,18.66851,50.849,50.72268,34.78361,32.86642,72.75967-70.335,15.76873-84.8856,7.33986-27.16191,39.8471-67.52541,24.74654-11.1357-50.55973-11.17308-64.607-26.21936-37.10467-8.284-52.559S731.78344,305.2377,762.05886,290.67014Z"/><path class="cls-12" d="M688.41009,380.48439c5.217,8.67129,17.22759,13.27561,17.92673,13.53726a.85041.85041,0,0,0,.59672-1.5927c-.22408-.08326-22.31424-8.55813-18.81991-23.45024a.85032.85032,0,0,0-1.65561-.38878A15.50085,15.50085,0,0,0,688.41009,380.48439Z"/><ellipse class="cls-13" cx="708.23328" cy="393.88873" rx="4.3186" ry="6.81115" transform="translate(20.61689 822.75516) rotate(-61.03272)"/><path class="cls-14" d="M763.34238,371.7154c7.37258-15.46159,8.94349-29.51919,4.54295-40.65295-3.44962-8.72784-10.4596-15.41005-20.27169-19.32246a34.84672,34.84672,0,0,0-28.247.65922c-10.75034,5.14467-19.03095,15.88831-23.3177,30.25287l5.20129,1.49034c3.84728-12.89291,11.11513-22.45757,20.46524-26.932a29.04086,29.04086,0,0,1,23.847-.51043c8.40169,3.35061,14.373,8.99516,17.26963,16.325,3.848,9.73441,2.32835,22.33236-4.39475,36.4308Z"/><path class="cls-15" d="M767.04456,324.55844c-10.39606-18.90416-37.39271-18.00822-39.04731-16.55267s-1.24617,10.99292.26546,11.07207a42.64754,42.64754,0,0,1,17.18768,2.11318c9.21885,3.12773,10.23885,8.85052,11.67994,9.08483S767.5176,325.41856,767.04456,324.55844Z"/><path class="cls-16" d="M770.07375,385.9477c1.01681.723,3.8863,4.06537,2.17965,6.81231s-6.65418,1.72741-6.90772.65571S770.07375,385.9477,770.07375,385.9477Z"/><path class="cls-15" d="M740.98209,395.61169c.71377,1.82594,7.3754,4.871,14.37361,4.429a16.18861,16.18861,0,0,0,13.977-8.73219,17.54433,17.54433,0,0,0-.10408-17.11112c-3.5072-6.64573-10.12509-10.866-12.80978-9.90337C751.54888,366.04079,739.27416,391.26281,740.98209,395.61169Z"/><path class="cls-14" d="M755.3557,400.04072a16.18861,16.18861,0,0,0,13.977-8.73219,17.54433,17.54433,0,0,0-.10408-17.11112Z"/><g class="cls-17"><ellipse class="cls-18" cx="763.50206" cy="374.97835" rx="3.78492" ry="9.42044" transform="translate(-73.78861 524.93999) rotate(-36.31122)"/></g><g class="cls-17"><path class="cls-18" d="M761.849,374.64248c1.82893,2.26563,4.0495,3.5066,4.95978,2.7718s.16558-3.16718-1.66334-5.43282-4.04947-3.50663-4.95975-2.7718S760.02011,372.37681,761.849,374.64248Z"/></g><path class="cls-16" d="M682.16084,344.58117c-1.188-.381-5.5833-.67625-6.76036,2.33587s2.60328,6.36279,3.61326,5.92379S682.16084,344.58117,682.16084,344.58117Z"/><path class="cls-15" d="M691.85113,373.66409c-1.8896.52236-8.31859-2.98732-12.1572-8.8555a16.18872,16.18872,0,0,1-1.38156-16.42253,17.54431,17.54431,0,0,1,13.76308-10.16755c7.42225-1.17315,14.766,1.59746,15.6036,4.32376C709.198,347.48805,696.35642,372.42629,691.85113,373.66409Z"/><path class="cls-14" d="M679.69393,364.80859a16.18872,16.18872,0,0,1-1.38156-16.42253,17.54431,17.54431,0,0,1,13.76308-10.16755Z"/><g class="cls-17"><ellipse class="cls-18" cx="694.88086" cy="343.27158" rx="9.42045" ry="3.78491" transform="matrix(0.99996, -0.0086, 0.0086, 0.99996, -2.9256, 5.98693)"/></g><g class="cls-17"><path class="cls-18" d="M696.14008,344.39392c-2.90973-.10708-5.23367-1.14164-5.19065-2.31069s2.43673-2.03,5.34649-1.92286,5.23367,1.14162,5.19065,2.3107S699.04984,344.501,696.14008,344.39392Z"/></g><path class="cls-19" d="M860.694,419.77078l-.56472-.71715a79.54727,79.54727,0,0,1,10.80942-7.30188,10.4832,10.4832,0,0,1-2.205-1.49447c-2.28827-2.04495-3.27731-4.2307-2.78479-6.15441.53418-2.08571,2.77612-3.68627,6.31306-4.50685a45.3954,45.3954,0,0,1,5.05485-.71467c4.94161-.52661,10.54245-1.12342,12.37923-4.33657,1.0004-1.74989.79825-4.11729-.61754-7.23728-1.95336-4.304-4.81258-6.40778-7.6538-7.254-1.318,4.2804-4.3702,5.94828-6.93217,6.05455-2.26.08871-4.17544-.96852-4.65972-2.58289-.41895-1.39709,1.14907-3.0703,3.81331-4.06913a13.112,13.112,0,0,1,7.13364-.51994c.01807-.078.03567-.15731.05239-.2371,1.051-4.96861-.45554-6.067-2.73626-7.72979a13.16358,13.16358,0,0,1-4.45064-4.78471l.80807-.42478a12.39085,12.39085,0,0,0,4.18033,4.47183c2.28852,1.66854,4.26505,3.10954,3.09168,8.65642-.01938.09137-.03942.18208-.06015.27145,3.06426.89876,6.14727,3.14939,8.24457,7.771,1.54551,3.4059,1.735,6.04475.57874,8.0674-2.06855,3.6183-7.91585,4.24141-13.075,4.79119a44.859,44.859,0,0,0-4.94519.6962c-3.18841.73966-5.18967,2.10488-5.63515,3.84406-.40384,1.57714.48715,3.44069,2.5089,5.24738a9.89542,9.89542,0,0,0,2.59385,1.64378c5.14909-2.66669,8.74243-3.321,10.33516-2.496a1.66622,1.66622,0,0,1,.94225,1.64267,2.77122,2.77122,0,0,1-1.9872,2.27268c-2.3039.95894-6.0528.87584-9.2392-.40962A75.98548,75.98548,0,0,0,860.694,419.77078Zm12.4004-8.10639a12.38017,12.38017,0,0,0,7.781.13261c.62891-.26187,1.38707-.73077,1.42652-1.478a.76027.76027,0,0,0-.45083-.784C880.74079,408.95957,877.74714,409.37007,873.09435,411.66439Zm5.02832-32.08355a12.03782,12.03782,0,0,0-4.156.72986c-2.33221.87449-3.48861,2.18757-3.25931,2.95219.35859,1.19541,1.93642,2.00928,3.74734,1.93328,2.231-.09271,4.89371-1.572,6.08333-5.36749A11.74276,11.74276,0,0,0,878.12267,379.58084Z"/><path class="cls-19" d="M869.03784,363.102s4.272,4.272,5.09354,4.35416a1.60416,1.60416,0,0,0,1.56092-1.31446c0-.49291-3.32722-4.92925-3.32722-4.92925Z"/><path class="cls-20" d="M834.95859,352.47683c13.09635,11.49337,33.76891,14.76473,41.15624,8.29689a7.72774,7.72774,0,0,0,2.53085-4.23368c2.53877-11.58916-14.28822-18.54266-18.71591-14.30087-3.206,3.07189-1.24927,7.33842-1.24927,7.33842s-11.54276.06738-17.56431-6.19674c-7.42271-7.71943-3.80958-17.13508-3.80958-17.13508,9.66859-3.41345,1.09941-18.84276-11.45853-19.27687-3.06062-.1054-5.01676,1.72571-5.99844,4.752C816.78846,321.12523,823.11345,342.07957,834.95859,352.47683Z"/><path class="cls-19" d="M819.84964,311.721c5.98523-.66739,15.438,8.34142,17.457,14.52482,9.66859-3.41345,1.09941-18.84276-11.45853-19.27687C822.78746,306.8635,820.83132,308.69461,819.84964,311.721Z"/><path class="cls-19" d="M858.6805,349.57759c2.969-2.78242,13.34124,3.52464,17.43433,11.19613a7.72774,7.72774,0,0,0,2.53085-4.23368c2.53877-11.58916-14.28822-18.54266-18.71591-14.30087C856.72379,345.31106,858.6805,349.57759,858.6805,349.57759Z"/><g class="cls-17"><ellipse class="cls-21" cx="824.30032" cy="322.94096" rx="3.17517" ry="9.60019" transform="translate(-52.41964 199.96131) rotate(-13.40913)"/></g><path class="cls-13" d="M687.91473,419.84937s1.42882,4.76273,3.572,5.71528,170.26778,2.6195,171.93472,1.42882,3.09579-5.239,3.09579-5.239-73.82239-5.95341-100.97-6.906S687.91473,419.84937,687.91473,419.84937Z"/><path class="cls-12" d="M715.77673,400.084c-14.28819,8.33478-29.29081,17.14585-27.862,19.76534s176.93558,4.5246,178.60256,1.90507S839.60782,400.084,839.60782,400.084l-57.32145-1.19068Z"/><path class="cls-13" d="M715.77673,400.084s-9.76362-71.20289-6.66783-74.06055,134.78539-1.66694,137.88117,2.38137-7.38225,71.67918-7.38225,71.67918Z"/><path class="cls-7" d="M838.90908,339.20522c-.00545.23365-.00545.47269-.01089.7226-.00545.11951-.01087.23368-.01087.35862-.087,2.38524-.30423,5.3627-.614,8.69333-.03263.30423-.05433.60853-.09234.92372-.89651,9.34528-2.46131,21.22255-3.79246,30.70367-.04349.31513-.087.61942-.13038.92372-1.26057,8.88891-2.2766,15.4578-2.2766,15.4578H724.01582s-.89647-6.53632-2.02121-15.4578c-.038-.3043-.07055-.614-.11407-.92372-.03263-.26621-.07064-.54333-.10321-.815-1.11929-9.04651-2.41787-20.1359-3.24367-29.31279-.03263-.30968-.05439-.61942-.087-.92371-.30423-3.461-.53788-6.62319-.6683-9.26923-.00542-.11959-.01086-.23911-.01086-.35862-.05969-1.31481-.09231-2.49387-.09231-3.50448.00541-2.244.163-3.68925.527-4.03156.39115-.35317,3.03181-.6357,7.29154-.84756,1.49955-.07606,3.20025-.14125,5.08014-.19564.29888-.01089.60853-.0217.91821-.03256q2.19239-.057,4.651-.11417c6.29726-.13038,13.82236-.18465,21.9072-.17381.30423-.00539.61391-.00539.91821,0,2.38524.00541,4.81392.01631,7.26981.02718,8.81286.05977,17.9843.18471,26.72116.37493.30423.0108.61388.01625.9182.02712,5.74306.13583,11.27958.29336,16.38142.47814,2.04839.08144,4.03162.15214,5.92787.24448,2.42867.10327,4.71607.22279,6.84045.34773.31519.02176.614.038.91827.05432.11417.0109.22279.02177.33144.02721,3.75989.23359,6.92206.48356,9.30192.76606,2.81987.33147,4.53675.69548,4.841,1.09753a5.56535,5.56535,0,0,1,.47814,2.52659C838.91988,337.635,838.92533,338.37391,838.90908,339.20522Z"/><polygon class="cls-22" points="721.135 406.207 730.452 406.207 728.314 410.499 716.57 410.335 721.135 406.207"/><polygon class="cls-22" points="733.915 406.207 745.197 406.207 744.289 410.717 732.759 410.558 733.915 406.207"/><polygon class="cls-22" points="748.238 406.207 759.167 406.207 758.879 410.92 748.069 410.772 748.238 406.207"/><polygon class="cls-22" points="762.293 406.207 773.049 406.207 773.049 411.114 762.615 410.97 762.293 406.207"/><polygon class="cls-22" points="787.783 406.207 789.282 411.337 776.1 411.159 775.291 406.207 787.783 406.207"/><polygon class="cls-22" points="803.565 406.207 805.976 411.57 793.166 411.392 791.216 406.207 803.565 406.207"/><polygon class="cls-22" points="819.957 406.207 823.484 411.813 809.488 411.62 806.333 406.207 819.957 406.207"/><polygon class="cls-22" points="840.134 412.042 827.031 411.863 827.026 411.863 822.427 406.207 834.369 406.207 840.134 412.042"/><path class="cls-22" d="M822.42724,404.7872v1.42008s1.99936,1.05059,1.96961.06829S822.42724,404.7872,822.42724,404.7872Z"/><path class="cls-22" d="M840.13374,410.62157v1.42007s-2.6096-.95371-2.19287-1.64828S840.13374,410.62157,840.13374,410.62157Z"/><path class="cls-22" d="M806.33314,404.7872v1.42008s2.25737,1.16967,2.07877.18737S806.33314,404.7872,806.33314,404.7872Z"/><path class="cls-22" d="M823.484,410.39336v1.42008s-2.62942-.89419-2.15313-1.69791S823.484,410.39336,823.484,410.39336Z"/><path class="cls-22" d="M791.21643,404.7872v1.42008s1.00218,1.28875,1.41892.3362S791.21643,404.7872,791.21643,404.7872Z"/><path class="cls-22" d="M805.97593,410.15022v1.42011s-1.96954-1.70768-1.70163-2.22123S805.97593,410.15022,805.97593,410.15022Z"/><path class="cls-22" d="M775.2911,404.7872v1.42008s.55561,1.43758.9426.366S775.2911,404.7872,775.2911,404.7872Z"/><path class="cls-22" d="M789.28161,409.91707v1.42011s-1.64712-.65609-1.528-1.60861S789.28161,409.91707,789.28161,409.91707Z"/><path class="cls-22" d="M762.29279,404.7872v1.42008s.93267,1.05059,1.022.06829S762.29279,404.7872,762.29279,404.7872Z"/><path class="cls-22" d="M759.16726,404.7872v1.42008s-1.00218,1.05059-1.12126.30642S759.16726,404.7872,759.16726,404.7872Z"/><path class="cls-22" d="M748.069,409.35151v1.42007s1.285-.83466,1.07661-1.47465S748.069,409.35151,748.069,409.35151Z"/><path class="cls-22" d="M732.75885,409.13818v1.42007s2.15811-.94876,1.83067-1.78223S732.75885,409.13818,732.75885,409.13818Z"/><path class="cls-22" d="M745.19651,404.7872v1.42008s-.635,1.08037-.99222.27667S745.19651,404.7872,745.19651,404.7872Z"/><path class="cls-22" d="M716.5705,408.91492V410.335s2.59967-.996,2.54015-1.87286S716.5705,408.91492,716.5705,408.91492Z"/><path class="cls-22" d="M730.45188,404.7872v1.42008s-1.36926,1.43758-1.90507.5148S730.45188,404.7872,730.45188,404.7872Z"/><polygon class="cls-23" points="721.135 404.787 730.452 404.787 728.314 409.079 716.57 408.915 721.135 404.787"/><polygon class="cls-23" points="733.915 404.787 745.197 404.787 744.289 409.297 732.759 409.138 733.915 404.787"/><polygon class="cls-23" points="748.238 404.787 759.167 404.787 758.879 409.5 748.069 409.352 748.238 404.787"/><polygon class="cls-23" points="762.293 404.787 773.049 404.787 773.049 409.694 762.615 409.55 762.293 404.787"/><polygon class="cls-23" points="787.783 404.787 789.282 409.917 776.1 409.738 775.291 404.787 787.783 404.787"/><polygon class="cls-23" points="803.565 404.787 805.976 410.15 793.166 409.972 791.216 404.787 803.565 404.787"/><polygon class="cls-23" points="819.957 404.787 823.484 410.393 809.488 410.2 806.333 404.787 819.957 404.787"/><polygon class="cls-23" points="840.134 410.622 827.031 410.443 827.026 410.443 822.427 404.787 834.369 404.787 840.134 410.622"/><polygon class="cls-22" points="713.619 413.035 726.9 413.353 724.558 418.051 708.504 417.664 713.619 413.035"/><polygon class="cls-22" points="731.995 413.472 743.683 413.75 742.726 418.492 730.735 418.2 731.995 413.472"/><polygon class="cls-22" points="747.955 413.849 758.681 414.107 758.388 418.87 747.776 418.612 747.955 413.849"/><polygon class="cls-22" points="762.834 414.206 773.049 414.449 773.049 419.222 763.161 418.984 762.834 414.206"/><polygon class="cls-22" points="790.299 414.856 791.703 419.673 777.424 419.331 776.646 414.533 790.299 414.856"/><polygon class="cls-22" points="807.633 415.268 809.811 420.11 796.312 419.782 796.307 419.782 794.496 414.955 807.633 415.268"/><polygon class="cls-22" points="825.915 415.704 828.981 420.571 814.484 420.224 811.652 415.362 825.915 415.704"/><polygon class="cls-22" points="849.014 421.057 834.195 420.7 830.216 415.804 844.152 416.136 849.014 421.057"/><path class="cls-22" d="M830.21634,414.35735v1.44616s1.8753.72682,1.92.10173S830.21634,414.35735,830.21634,414.35735Z"/><path class="cls-22" d="M849.0142,419.61124v1.44616s-1.9646-.63855-2.23251-1.64515S849.0142,419.61124,849.0142,419.61124Z"/><path class="cls-22" d="M811.65157,413.91578V415.362s1.7761,1.75377,2.044.72432S811.65157,413.91578,811.65157,413.91578Z"/><path class="cls-22" d="M828.981,419.12505v1.4462s-2.78326-.73678-2.4707-1.89769S828.981,419.12505,828.981,419.12505Z"/><path class="cls-22" d="M794.49583,413.509v1.44616s.93765,2.29457,1.56274,1.13116S794.49583,413.509,794.49583,413.509Z"/><path class="cls-22" d="M809.81094,418.66364v1.44619s-3.1255-.81118-2.679-1.88278S809.81094,418.66364,809.81094,418.66364Z"/><path class="cls-22" d="M776.64552,413.08729v1.44616s.90818,2.44834,1.38676,1.55284S776.64552,413.08729,776.64552,413.08729Z"/><path class="cls-22" d="M791.70262,418.22705v1.44619s-2.02907-1.27754-1.71655-1.89768S791.70262,418.22705,791.70262,418.22705Z"/><path class="cls-22" d="M730.73469,416.75358v1.4462s1.87533-1.02949,1.60742-1.84061S730.73469,416.75358,730.73469,416.75358Z"/><path class="cls-22" d="M743.68338,412.30341v1.44616s-.35722,1.62176-.9823.9957S743.68338,412.30341,743.68338,412.30341Z"/><path class="cls-22" d="M726.89972,411.9065v1.44619s-1.6124,1.30231-2.10357.74417S726.89972,411.9065,726.89972,411.9065Z"/><path class="cls-22" d="M708.50363,417.66393v-1.44619s1.74707-1.4203,2.34367-.67469S708.50363,417.66393,708.50363,417.66393Z"/><polygon class="cls-23" points="713.619 411.589 726.9 411.906 724.558 416.605 708.504 416.218 713.619 411.589"/><polygon class="cls-23" points="731.995 412.026 743.683 412.303 742.726 417.046 730.735 416.754 731.995 412.026"/><polygon class="cls-23" points="747.955 412.403 758.681 412.661 758.388 417.423 747.776 417.165 747.955 412.403"/><polygon class="cls-23" points="762.834 412.76 773.049 413.003 773.049 417.776 763.161 417.537 762.834 412.76"/><polygon class="cls-23" points="790.299 413.41 791.703 418.227 777.424 417.885 776.646 413.087 790.299 413.41"/><polygon class="cls-23" points="807.633 413.822 809.811 418.664 796.312 418.336 796.307 418.336 794.496 413.509 807.633 413.822"/><polygon class="cls-23" points="825.915 414.258 828.981 419.125 814.484 418.778 811.652 413.916 825.915 414.258"/><polygon class="cls-23" points="849.014 419.611 834.195 419.254 830.216 414.357 844.152 414.69 849.014 419.611"/><path class="cls-24" d="M816.93572,364.25674c0,8.12865-4.71473,15.46773-12.2957,20.68906-7.21126,4.97487-17.02407,8.03283-27.82729,8.03283-11.92145,0-22.6334-3.71978-29.98159-9.63483-6.31216-5.07072-10.146-11.75712-10.146-19.08706,0-15.86025,17.96432-28.72192,40.1276-28.72192C798.97143,335.53482,816.93572,348.39649,816.93572,364.25674Z"/><path class="cls-25" d="M763.02437,330.40586c-4.286-5.13265-2.58718-17.34261,4.52645-18.829s9.26028,2.97285,9.26028,2.97285,1.0386-11.7853,11.86831-10.5112,7.6445,11.36058,7.6445,11.36058,9.87415-7.6445,15.289-.53087a9.17981,9.17981,0,0,1-.637,12.63468s9.34328.44812,8.91859,8.98339-8.91859,8.96-8.91859,8.96,8.17539,1.27407,6.05192,11.78527-11.36062,10.88341-11.36062,10.88341,9.87419.79972,5.52106,9.66321-15.8199-1.01064-15.8199-1.01064-31.42743-.31854-36.94845-2.442-7.326-7.00745-5.52106-11.2544,6.47661-5.09633,6.47661-5.09633-3.29139-2.62548-2.12347-5.772a7.05233,7.05233,0,0,1,3.93461-4.09478s-5.52722-2.55552-4.04079-8.07654,9.12488-7.92728,9.12488-7.92728Z"/><path class="cls-26" d="M797.19987,339.7163c-.847,5.31114-8.43983,6.95575-8.43983,6.95575s2.32857,29.51591.9214,30.58673c-1.40718,1.071-20.51008.49718-16.63565-1.82892,2.01517-1.21263,3.144-5.563,3.76531-9.45773a64.87871,64.87871,0,0,0,.71827-6.84281s-.09741.09891-.29277.25751c-1.19212.95143-5.76717,4.16651-10.54114,1.46867-5.46434-3.08592-7.20258-18.45886-3.67109-30.44964,0,0,1.589,2.46456,6.00361,1.54959s6.50583-5.35069,6.50583-5.35069,2.8848,7.93759,8.735,10.01882C790.11925,338.70466,798.04684,334.40514,797.19987,339.7163Z"/><path class="cls-27" d="M769.99967,336.48625c-2.86439,4.17578-4.20224,10.56615-3.57838,11.26915s3.65872.22488,4.18552-.30934S769.99967,336.48625,769.99967,336.48625Z"/><path class="cls-27" d="M784.61372,352.20269c-.13257.72795-2.237,11.68707-7.80262,13.76944a64.87871,64.87871,0,0,0,.71827-6.84281A31.94454,31.94454,0,0,0,784.61372,352.20269Z"/><path class="cls-20" d="M804.64,384.9458c-7.21126,4.97487-17.02407,8.03283-27.82729,8.03283-11.92145,0-22.6334-3.71978-29.98159-9.63483,9.48419-11.36005,25.39464-14.42712,28.60322-11.5974,5.27609,4.66451,14.73292-.81694,14.73292-.81694S803.52183,372.107,804.64,384.9458Z"/><path class="cls-28" d="M771.60442,367.39762c3.20952-.34681,9.08521-1.56117,13.41057-5.79954,3.39441-3.326,5.13576-7.85408,5.177-13.4576l-1.34477-.01043c-.03679,5.2295-1.64139,9.43522-4.76561,12.50107-5.70792,5.60077-14.68423,5.55575-14.77481,5.56026l-.01723,1.34289A20.51079,20.51079,0,0,0,771.60442,367.39762Z"/><path class="cls-28" d="M765.146,367.23229c.13506,1.2499,1.60855,2.11578,3.29112,1.93394s2.937-1.34245,2.802-2.59234-1.60854-2.11578-3.29111-1.93395S765.011,365.9824,765.146,367.23229Z"/><path class="cls-28" d="M782.86014,339.582c-.69326,9.73669,5.86843,12.58352,11.12643,12.82625s7.60119-5.16165,7.91444-11.94725-1.58462-11.78111-6.78-12.6256C790.1019,327.01956,783.53054,330.16651,782.86014,339.582Z"/><ellipse class="cls-20" cx="794.55378" cy="340.1218" rx="12.29951" ry="9.53057" transform="translate(418.15343 1118.14578) rotate(-87.3569)"/><g class="cls-17"><ellipse class="cls-18" cx="798.72213" cy="336.7698" rx="3.30815" ry="6.46595" transform="translate(-53.29649 177.28558) rotate(-12.25987)"/></g><path class="cls-20" d="M794.55461,333.69635c-.02183,0-.04384-.00088-.06589-.00238a.88481.88481,0,0,1-.81737-.94742c.67741-9.18932-4.45352-13.89945-6.69095-15.49794-3.23562-2.31173-7.09058-3.05179-9.8218-1.88532a.88483.88483,0,0,1-.69513-1.62742c3.33714-1.42525,7.761-.63076,11.54557,2.07281,5.24344,3.7463,7.95049,9.96718,7.4271,17.06791A.88492.88492,0,0,1,794.55461,333.69635Z"/><path class="cls-29" d="M820.61128,161.58441c-3.48024,4.89841-7.94,8.91966-9.98747,9.19759-2.07632.27793-9.37306,0-17.401-1.38908-9.1685-1.60848-19.28733-4.65013-23.65953-9.98728-8.1889-10.01676-8.33509-22.16835,9.56316-19.43375,0,0,36.42538-1.52081,44.14625,5.1619C827.45463,148.74557,824.72037,155.79366,820.61128,161.58441Z"/><g class="cls-30"><path class="cls-31" d="M820.61128,161.58441c-3.48024,4.89841-7.94,8.91966-9.98747,9.19759-2.07632.27793-9.37306,0-17.401-1.38908-9.13925-14.1631,6.81457-31.46823,23.84982-19.18509A94.79369,94.79369,0,0,1,820.61128,161.58441Z"/></g><path class="cls-32" d="M810.86257,169.7346c-1.12981,1.55131-6.55934,1.93911-10.842,1.45026a15.12823,15.12823,0,0,1-4.35019-1.02873c-3.43979-1.63551-2.96763-13.06764-.33733-16.05214,1.14666-1.29815,2.86655-1.14647,4.7044-.3709,2.37751.96123,5.00781,2.917,6.96379,3.97949C807.00122,157.71258,812.48119,167.54274,810.86257,169.7346Z"/><path class="cls-29" d="M848.65764,143.00524c16.212,3.49439,10.59716,23.07055-8.82722,26.4091s-31.60238,3.17967-32.94928,1.43808-2.00609-14.93163,2.345-15.62075,10.17864-7.43007,18.79808-10.43324S848.65764,143.00524,848.65764,143.00524Z"/><path class="cls-25" d="M784.64616,119.47324c-12.54494-8.52769-17.87843-21.68075,1.50165-36.2479s16.47248-29.31485,26.30279-31.04677,13.27,6.3616,13.27,6.3616,7.91078-4.32044,11.53324,4.89822-1.821,17.76358,6.07011,28.48746,15.78233,25.89917-1.214,30.75528S784.64616,119.47324,784.64616,119.47324Z"/><path class="cls-26" d="M818.00951,113.18053c-7.13595,1.46385-18.57181-8.14221-11.34424-9.972a7.93937,7.93937,0,0,0,5.723-5.13346,12.32542,12.32542,0,0,0,.68114-4.9301s.19307-.122.5184-.31506c1.85-1.08776,8.02025-4.3,8.17274,1.13836.02035.59985.06093,1.17922.122,1.7078.6404,5.16387,3.42567,7.36977,6.73951,8.44722C832.28148,105.31268,825.1455,111.7168,818.00951,113.18053Z"/><path class="cls-27" d="M821.88253,95.67609c-1.535,2.41935-6.57687,3.009-9.49427,2.399a12.32542,12.32542,0,0,0,.68114-4.9301s.19307-.122.5184-.31506C817.0032,92.91121,821.88253,95.67609,821.88253,95.67609Z"/><path class="cls-26" d="M802.49892,74.49268c-.87625,6.13374,4.96541,7.74022,4.96541,7.74022s.73021,14.1904,10.95312,14.1904,10.369-12.14583,10.369-12.14583,8.32438-2.4827,7.01-6.86395-5.11149.43812-9.78482-1.60648a6.38871,6.38871,0,0,1-3.79709-6.86394s-3.65105,7.01-9.05459,7.74022S802.49892,74.49268,802.49892,74.49268Z"/><path class="cls-27" d="M818.49567,78.6348c-3.44511,3.54793-3.44511,7.76433-3.188,8.02143s2.72524-.20569,3.188-.46276S818.49567,78.6348,818.49567,78.6348Z"/><path class="cls-23" d="M809.226,102.11312c9.78992,9.05475,16.34275.50059,16.34275.50059s10.928,2.61189,14.85507,5.99253c5.48917,4.72543,11.52732,28.90979,8.23379,34.399s-58.55148,4.39134-60.01527-4.39137S809.226,102.11312,809.226,102.11312Z"/><path class="cls-23" d="M809.22609,102.11325c-14.7286.08877-20.912,6.06322-23.1266,11.2183-2.20031,5.12185-10.33068,20.50034-7.74388,28.59457a180.23865,180.23865,0,0,0,18.66822-10.0985C795.70267,125.49858,809.22609,102.11325,809.22609,102.11325Z"/><path class="cls-26" d="M818.05548,138.80209c3.826-2.48689,8.13018-4.20856,8.79973-3.44338s-1.3391,2.742-1.3391,2.742,6.88674-3.88185,8.13018-1.112-7.65192,12.942-17.02554,9.33853S818.05548,138.80209,818.05548,138.80209Z"/><path class="cls-23" d="M818.97246,137.35158s-20.27019.7132-21.91337-5.32482c-.0165-.06087-.02186-.1347-.03526-.19914a180.23865,180.23865,0,0,1-18.66822,10.0985c.01672.05264.02251.11241.04036.16414,2.74446,8.051,35.212,8.783,38.73927,6.03824C820.66273,145.38382,818.97246,137.35158,818.97246,137.35158Z"/><path class="cls-33" d="M800.02055,171.18486a15.12823,15.12823,0,0,1-4.35019-1.02873c-3.43979-1.63551-2.96763-13.06764-.33733-16.05214,1.14666-1.29815,2.86655-1.14647,4.7044-.3709C795.99065,157.93158,797.87913,167.20538,800.02055,171.18486Z"/><path class="cls-11" d="M803.76437,167.95581a.24448.24448,0,0,1-.05435-.00657.21151.21151,0,0,1-.14983-.2577c.01481-.05515,1.44243-5.55491.5055-9.20135a.21088.21088,0,0,1,.40838-.10537c.96492,3.75347-.4446,9.18488-.50554,9.41374A.2108.2108,0,0,1,803.76437,167.95581Z"/><path class="cls-11" d="M801.48377,167.42313a.2441.2441,0,0,1-.05432-.00658.2119.2119,0,0,1-.14983-.2577c.01481-.05514,1.44243-5.55487.50713-9.20135a.211.211,0,0,1,.15149-.25685.20868.20868,0,0,1,.25689.15149c.96329,3.75347-.4479,9.18487-.50717,9.41374A.21084.21084,0,0,1,801.48377,167.42313Z"/><path class="cls-20" d="M790.02343,120.90318c1.42412-.20976,49.84588.19962,50.97346.7985s-2.59795,26.28989-7.17731,28.33434-34.86312.76367-37.96191-1.03453C793.86952,147.84775,789.0214,121.05079,790.02343,120.90318Z"/><ellipse class="cls-24" cx="815.54439" cy="135.96491" rx="4.56634" ry="3.93402"/><path class="cls-28" d="M817.36482,99.6009c-2.5073-.45662-7.06428-1.74885-10.22764-5.33346-2.4825-2.813-3.59465-6.47795-3.30664-10.89246l1.05945.0687c-.2701,4.11976.75278,7.52307,3.03745,10.11576,4.174,4.73646,11.24445,5.21435,11.3155,5.22309l-.06322,1.05835A16.18949,16.18949,0,0,1,817.36482,99.6009Z"/><path class="cls-28" d="M822.45956,99.8401c-.17786.97644-1.38758,1.57395-2.702,1.33453s-2.23582-1.225-2.058-2.20144,1.38758-1.57392,2.702-1.33453S822.63738,98.86366,822.45956,99.8401Z"/><path class="cls-20" d="M829.68206,74.50445s-1.76188,10.95856-.85154,11.69738,7.71-.08946,7.97841-5.84868S832.69409,72.17826,829.68206,74.50445Z"/><path class="cls-20" d="M806.98839,74.50445s1.76188,10.95856.85154,11.69738-7.71-.08946-7.97842-5.84868S803.97636,72.17826,806.98839,74.50445Z"/><path class="cls-20" d="M833.4247,78.41429l-1.46007-.30385c.13978-.67278,3.26967-16.49393-9.09642-19.251-4.87151-1.09023-9.17022-.22911-12.43406,2.4775A17.26613,17.26613,0,0,0,804.722,74.83786l-1.49116.04854a18.80923,18.80923,0,0,1,6.252-14.69795c3.63273-3.00949,8.37025-3.97059,13.7116-2.78523C836.99339,60.48163,833.46161,78.23472,833.4247,78.41429Z"/><path class="cls-32" d="M483.26281,602.63445a5.32341,5.32341,0,0,0,2.22681,2.85759c3.73657,2.38221,22.57412,2.97308,26.40127-.75368a2.04175,2.04175,0,0,0,.67422-1.42c.04916-2.37325-3.63843-4.80638-7.95743-6.81813-.28526-.1318-.57067-.26362-.85918-.38781-1.01884-.45641-2.06151-.87818-3.08464-1.28252-.3223-.12966-.64024-.24849-.95049-.364a66.27942,66.27942,0,0,0-8.067-2.52663c-2.78715-.55141-3.62278-.785-4.02505-.436C483.72953,594.87807,482.1636,599.41592,483.26281,602.63445Z"/><path class="cls-33" d="M483.26281,602.63445a5.32341,5.32341,0,0,0,2.22681,2.85759c3.73657,2.38221,22.57412,2.97308,26.40127-.75368l-.00432-.01087C494.94864,602.12775,486.93672,601.92018,483.26281,602.63445Z"/><path class="cls-11" d="M495.323,597.28408a.24234.24234,0,0,0,.00814.33655.2813.2813,0,0,0,.07274.04033.23468.23468,0,0,0,.2639-.04844c1.98341-2.0989,3.6585-2.72822,4.9961-2.78267-.3223-.12966-.64024-.24849-.95049-.364A8.75386,8.75386,0,0,0,495.323,597.28408Z"/><path class="cls-11" d="M499.21908,598.96082a.23541.23541,0,0,0,.0082.33658.22787.22787,0,0,0,.06507.037.23438.23438,0,0,0,.2638-.04847c2.015-2.13027,3.70957-2.74221,5.05153-2.78576-.28526-.1318-.57067-.26362-.85918-.38781A8.54845,8.54845,0,0,0,499.21908,598.96082Z"/><path class="cls-32" d="M418.59891,573.20675a5.32337,5.32337,0,0,0-1.59495,3.25278c-.50676,4.40227,7.20575,21.59878,12.23157,23.4091a2.04185,2.04185,0,0,0,1.5719-.01525c2.15542-.99438,2.72944-5.37492,2.64821-10.13877-.00635-.31416-.01271-.6285-.02733-.94225-.03548-1.11585-.11254-2.23793-.19674-3.33483-.02442-.34653-.05674-.68442-.08864-1.014a66.2792,66.2792,0,0,0-1.25851-8.35926c-.72391-2.74737-.87956-3.601-1.36941-3.81C425.77736,570.232,421.01181,570.80985,418.59891,573.20675Z"/><path class="cls-33" d="M418.59891,573.20675a5.32337,5.32337,0,0,0-1.59495,3.25278c-.50676,4.40227,7.20575,21.59878,12.23157,23.4091l.00788-.00867C424.1685,583.49238,420.84892,576.19758,418.59891,573.20675Z"/><path class="cls-11" d="M428.68756,581.70927a.24234.24234,0,0,0-.29907.15458.28168.28168,0,0,0-.00441.083.23464.23464,0,0,0,.159.21612c2.75524.86485,4.05414,2.09564,4.68846,3.27452-.02442-.34653-.05674-.68442-.08864-1.014A8.75412,8.75412,0,0,0,428.68756,581.70927Z"/><path class="cls-11" d="M428.88492,585.94626a.23539.23539,0,0,0-.299.15468.22787.22787,0,0,0-.00483.07468.23448.23448,0,0,0,.159.216c2.79729.87959,4.08908,2.13544,4.71554,3.323-.00635-.31416-.01271-.6285-.02733-.94225A8.54838,8.54838,0,0,0,428.88492,585.94626Z"/><path class="cls-25" d="M485.55,435.95814c-7.83816-2.4081-6.6792-7.09584-6.6792-7.09584s-5.92641-4.51123-5.19725-9.63089a8.02111,8.02111,0,0,1,4.8201-6.53463s.95465-9.36283,7.45706-10.69319a8.65075,8.65075,0,0,1,9.01472,3.61331s4.60586-6.60045,12.56357-2.14c8.392,4.70384,4.03666,13.19314,4.03666,13.19314s2.36308,5.08534-2.28636,7.45371S485.55,435.95814,485.55,435.95814Z"/><path class="cls-26" d="M482.36243,423.44774c-.54192,4.05222,4.62821,6.90622,4.62821,6.90622s-8.13472,20.9848-7.34365,22.07152,14.82648,4.83644,12.51266,2.29742c-1.20283-1.32263-1.07577-4.73671-.67851-7.70834a49.316,49.316,0,0,1,.96978-5.13945s.04934.09328.157.25137c.6605.9529,3.29055,4.29211,7.35542,3.36908,4.6522-1.055,9.27167-11.87,9.316-21.37182,0,0-1.69471,1.448-4.70972-.18136s-3.57007-5.31552-3.57007-5.31552-3.83232,5.15063-8.54633,5.38983S482.90435,419.39552,482.36243,423.44774Z"/><path class="cls-27" d="M505.81151,427.90981c1.17481,3.66558.75488,8.61076.14726,8.98658s-2.71327-.63442-2.98034-1.13836S505.81151,427.90981,505.81151,427.90981Z"/><path class="cls-27" d="M488.80334,435.2858c-.06225.559-.9207,8.99826,2.6778,11.72876a49.316,49.316,0,0,1,.96978-5.13945A24.283,24.283,0,0,1,488.80334,435.2858Z"/><path class="cls-22" d="M492.45092,507.22888c11.79867,32.15755,5.95184,83.87944,4.82748,85.67846s-11.24391,3.14826-13.94244.89951-8.09558-24.06193-6.97119-37.32972-6.37556-47.67408-.15193-52.6214S492.45092,507.22888,492.45092,507.22888Z"/><path class="cls-29" d="M482.2116,556.8144c-4.72247,7.14-41.95846,28.05347-45.38788,27.5287-2.45492-.356-6.48391-5.04091-7.90815-9.74461a9.367,9.367,0,0,1-.26239-.97451,8.17677,8.17677,0,0,1,.03751-4.31026c1.79895-5.62194,29.00921-24.73646,29.00921-24.73646s-10.68173-33.15061,2.41741-41.32138c13.0992-8.15154,26.59177-2.64216,26.59177-2.64216C486.82152,520.49664,486.934,549.67444,482.2116,556.8144Z"/><path class="cls-11" d="M468.47529,544.97073c-1.5742,3.54208-16.09755,13.4928-28.89677,22.24437-3.61676,2.47355-7.43975,5.09718-10.663,7.38339a9.367,9.367,0,0,1-.26239-.97451c2.811-1.98632,6.29656-4.36631,10.40057-7.17728,12.06847-8.26433,27.09782-18.55246,28.55948-21.85068.95574-2.15489-.03742-7.4209-1.18063-13.49258-1.93013-10.3444-4.36629-23.21866,1.27441-29.14051l.67459.63733c-5.30339,5.58443-2.92338,18.19629-1.012,28.31559C468.58773,537.41876,469.54348,542.55345,468.47529,544.97073Z"/><path class="cls-26" d="M437.39114,508.19935c-.28576,4.42744-1.35971,11.24811-2.911,11.12846s-1.17831-4.66679-1.17831-4.66679-4.90746,9.33355-8.48734,7.65831-2.98322-14.12,5.25049-17.94914S437.39114,508.19935,437.39114,508.19935Z"/><path class="cls-7" d="M480.70632,447.73352a12.63886,12.63886,0,0,0,10.50732,3.53388s13.96135,5.13913,21.48182,13.00983,21.84533,29.59607,16.50436,32.38243c-10.78294,5.62535-28.26912-11.46877-28.26912-11.46877s-6.11116,21.13849-8.47978,22.038-30.599-1.799-32.33768-4.49754,0-28.55948,0-28.55948-17.92991,35.08093-21.75284,35.5307-11.24388-3.1483-11.46876-5.39706,9.939-34.18144,26.31071-47.44923A42.26962,42.26962,0,0,1,480.70632,447.73352Z"/><path class="cls-19" d="M468.26916,476.30821c8.99512-.89951,43.17653,7.66156,43.17653,7.66156l-17.78847,6.49568Z"/><path class="cls-20" d="M493.15344,491.63137s-25.67135-11.7069-26.57086-12.915c-.4757-.63887.22489-2.40814,1.68658-2.40814s26.76046,13.60511,26.76046,13.60511Z"/><path class="cls-20" d="M540.79227,494.52328c-.61842.61858-6.1092.65587-13.17413.39347-1.61159-.075-3.317-.14983-5.05976-.24339-.88072-.05627-1.78032-.11257-2.67981-.16883-7.00867-.41223-14.35463-.99326-19.56435-1.57408-4.44134-.48725-7.32724-.95574-7.15862-1.29316,0,0,11.03778-25.786,13.399-26.6292,1.16185-.41222,13.399-.20613,25.54238.35593,5.13469.24386,10.25062.56231,14.50459.91823.506.03752,1.01192.09382,1.49917.13133.71211.075,1.38673.13129,2.02394.2061,4.104.431,6.8213.91823,7.02742,1.42424C557.99541,470.23656,542.64749,492.66806,540.79227,494.52328Z"/><g class="cls-17"><path class="cls-21" d="M546.60158,466.28225l-26.723,28.22228c-7.00867-.41223-14.35463-.99326-19.56435-1.57408L532.097,465.364C537.23168,465.60788,542.34761,465.92633,546.60158,466.28225Z"/></g><g class="cls-17"><path class="cls-21" d="M550.12469,466.61968l-22.50655,28.29707c-1.61159-.075-3.317-.14983-5.05976-.24339l25.54237-28.25978C548.81286,466.4886,549.48748,466.54487,550.12469,466.61968Z"/></g><path class="cls-26" d="M526.00082,496.70669c-1.883-3.20992,5.75587-8.30021,8.9227-7.31465s6.32118,4.78969,5.02438,7.00243c-1.86237,3.17783-6.97138,1.01055-6.97138,1.01055S528.23433,500.51405,526.00082,496.70669Z"/><path class="cls-28" d="M495.84411,447.73715c-2.34589-.996-6.508-3.25714-8.80716-7.44883-1.80433-3.28942-2.08471-7.10908-.83453-11.35266l1.01853.29963c-1.168,3.95995-.91727,7.50478.74241,10.53582,3.03232,5.53727,9.82531,7.55582,9.89272,7.58l-.29405,1.01865A16.18989,16.18989,0,0,1,495.84411,447.73715Z"/><path class="cls-28" d="M500.762,449.089c-.38786.91357-1.69923,1.23089-2.92905.70875s-1.91234-1.686-1.52444-2.59954,1.69923-1.23089,2.92905-.70876S501.14989,448.17546,500.762,449.089Z"/><path class="cls-28" d="M494.09641,422.46917c-.39817,6.94216-5.2936,8.355-9.03047,8.047s-4.89944-4.33985-4.502-9.16242,2.19393-8.17878,5.94149-8.30159C490.12579,412.9335,494.48143,415.75605,494.09641,422.46917Z"/><ellipse class="cls-20" cx="485.7857" cy="421.78414" rx="8.76163" ry="6.78915" transform="translate(25.5197 871.27809) rotate(-85.28781)"/><g class="cls-17"><path class="cls-18" d="M485.36632,419.82694c-.854,2.39624-2.54012,3.98459-3.76613,3.54765s-1.52753-2.73362-.67356-5.12986,2.54012-3.98456,3.76609-3.54766S486.2203,417.43073,485.36632,419.82694Z"/></g><path class="cls-20" d="M487.54781,414.80782a.606.606,0,0,1-.11178-.0077.59516.59516,0,0,1-.49123-.68317c.82088-4.99526,3.24809-9.30114,5.64643-10.01719a2.40791,2.40791,0,0,1,2.59589.78822.59469.59469,0,1,1-.87537.8052,1.2558,1.2558,0,0,0-1.38078-.45309c-1.67932.50184-3.997,4.11206-4.8118,9.0688A.59509.59509,0,0,1,487.54781,414.80782Z"/><path class="cls-15" d="M969.727,590.02092a5.75016,5.75016,0,0,0,2.38177,3.11457c4.03037,2.6225,24.509,3.52167,28.72339-.44676a2.19714,2.19714,0,0,0,.75313-1.52307c.08664-2.56028-3.88978-5.23708-8.55879-7.46792-.30836-.14617-.61691-.2924-.92894-.43039-1.10166-.5067-2.22972-.97629-3.33677-1.42681-.34869-.14441-.69281-.27705-1.02864-.406a72.48889,72.48889,0,0,0-8.738-2.83849c-3.02345-.63373-3.929-.89741-4.37135-.52642C970.34305,581.65746,968.5765,586.5325,969.727,590.02092Z"/><path class="cls-19" d="M969.727,590.02092a5.75016,5.75016,0,0,0,2.38177,3.11457c4.03037,2.6225,24.509,3.52167,28.72339-.44676l-.00454-.01181C982.443,589.63637,973.73252,589.30114,969.727,590.02092Z"/><path class="cls-11" d="M982.91789,584.41476a.26008.26008,0,0,0,.00414.36328.30637.30637,0,0,0,.07856.0445.25664.25664,0,0,0,.28767-.0486c2.18644-2.23739,4.017-2.8932,5.47248-2.9334-.34869-.14441-.69281-.27705-1.02864-.406A9.53494,9.53494,0,0,0,982.91789,584.41476Z"/><path class="cls-11" d="M987.13166,586.27822a.25268.25268,0,0,0,.00422.36331.24951.24951,0,0,0,.07024.04087.25647.25647,0,0,0,.28757-.04866c2.2213-2.2708,4.07276-2.90763,5.53276-2.936-.30836-.14617-.61691-.2924-.92894-.43039A9.31253,9.31253,0,0,0,987.13166,586.27822Z"/><path class="cls-15" d="M908.82738,590.02092a5.75016,5.75016,0,0,1-2.38177,3.11457c-4.03037,2.6225-24.509,3.52167-28.72339-.44676a2.19726,2.19726,0,0,1-.75313-1.52307c-.08664-2.56028,3.88978-5.23708,8.55879-7.46792.30836-.14617.61691-.2924.929-.43039,1.10163-.5067,2.22969-.97629,3.33674-1.42681.34869-.14441.69281-.27705,1.02864-.406a72.48889,72.48889,0,0,1,8.738-2.83849c3.02345-.63373,3.929-.89741,4.37135-.52642C908.21131,581.65746,909.97783,586.5325,908.82738,590.02092Z"/><path class="cls-19" d="M908.82738,590.02092a5.75016,5.75016,0,0,1-2.38177,3.11457c-4.03037,2.6225-24.509,3.52167-28.72339-.44676l.00457-.01181C896.11135,589.63637,904.82181,589.30114,908.82738,590.02092Z"/><path class="cls-11" d="M895.63644,584.41476a.26008.26008,0,0,1-.00414.36328.30637.30637,0,0,1-.07856.0445.25662.25662,0,0,1-.28766-.0486c-2.18645-2.23739-4.017-2.8932-5.47249-2.9334.34869-.14441.69281-.27705,1.02864-.406A9.53494,9.53494,0,0,1,895.63644,584.41476Z"/><path class="cls-11" d="M891.42267,586.27822a.25268.25268,0,0,1-.00422.36331.24909.24909,0,0,1-.07024.04087.25648.25648,0,0,1-.28757-.04866c-2.22126-2.2708-4.07273-2.90763-5.53276-2.936.30836-.14617.61691-.2924.929-.43039A9.31247,9.31247,0,0,1,891.42267,586.27822Z"/><path class="cls-25" d="M929.53908,406.65082c-2.23786-7.21655.13987-15.95971,6.57374-16.7924s8.25214,5.41243,8.25214,5.41243,5.87442-7.21658,13.5671-3.05317,3.7764,14.43314,3.7764,14.43314,5.73457,2.0817,5.45482,8.32679-7.55281,6.80022-7.55281,6.80022,4.43605,12.27381-7.99226,8.84311-20.68047-15.36578-20.82031-17.1699S929.53908,406.65082,929.53908,406.65082Z"/><path class="cls-26" d="M934.01486,432.248c3.15472,1.68072,7.59938.33939,7.95687.23133l.01547-.01543s-.17093,1.71159-.45065,3.97848c-.48177,3.94742-1.32094,9.59122-2.20676,10.73227-1.39873,1.804,9.371.41636,11.88863-1.38783s-.55946-23.17632-.55946-23.17632,7.55279-3.19185,5.59473-7.21664c-1.95815-4.02442-6.29409-.97128-11.46908-.83257s-7.55291-7.91046-7.55291-7.91046a6.87667,6.87667,0,0,1-4.19591,2.498c-2.51761.27765-3.49668-2.498-3.49668-2.498C927.581,420.38992,929.05734,429.64193,934.01486,432.248Z"/><path class="cls-26" d="M882.27722,410.379c.37409-2.10322-6.1101-9.27938-7.23236-9.27938s0,5.32025,0,5.32025-10.10033-7.67105-12.09549-4.5779,10.47445,15.34214,15.46228,13.98112S882.27722,410.379,882.27722,410.379Z"/><path class="cls-26" d="M1010.80177,413.31227c1.67841-3.33073,11.18934-10.4085,12.02854-9.57585s-.69933,5.96757-.69933,5.96757,10.21029-4.85733,12.16841-3.05317-7.1332,14.84946-18.18269,13.18412S1010.80177,413.31227,1010.80177,413.31227Z"/><path class="cls-29" d="M960.68279,498.3382c7.17982,12.39768,27.60041,78.457,25.64226,81.2326s-16.784,3.60828-20.14084,1.66535-24.33685-57.17738-24.33685-57.17738S916.67131,581.411,912.755,582.295s-19.58135.60649-20.98-2.72424,27.1342-75.21882,34.59377-81.2326C934.84577,491.50416,960.68279,498.3382,960.68279,498.3382Z"/><path class="cls-20" d="M952.18976,438.93458c-7.918,4.07661-11.14988,1.1826-11.16184,1.26289s-55.24782-31.493-58.91734-30.7157-6.46688,4.52889-5.16147,7.27911,43.63849,39.57321,43.63849,39.57321,2.61086,38.11825,5.78117,42.00411,30.39772,2.77559,34.314,0,7.646-40.15371,7.646-40.15371,48.58045-35.9903,47.78788-38.34955-2.56423-6.24512-5.31493-6.52267S952.18976,438.93458,952.18976,438.93458Z"/><path class="cls-27" d="M932.70939,412.29455c-1.77165,1.91979-2.63309,5.59746-2.51761,8.04924.04109.87186,3.26356.64764,3.45006,0S932.70939,412.29455,932.70939,412.29455Z"/><path class="cls-27" d="M941.53655,436.44237c5.62573-1.04865,5.62573-9.66837,5.62573-9.66837s-1.81824,3.97829-5.17508,5.68989C941.9872,432.46389,941.81627,434.17548,941.53655,436.44237Z"/><path class="cls-22" d="M938.32848,439.57276c2.53376-.63646,7.10765-2.26611,10.10114-6.14639,2.34921-3.045,3.23916-6.8689,2.64636-11.36485l-1.079.14185c.5546,4.19566-.26174,7.74589-2.42345,10.55222-3.94949,5.12671-11.14926,6.09323-11.22137,6.107l.13618,1.07827A16.59011,16.59011,0,0,0,938.32848,439.57276Z"/><path class="cls-22" d="M933.13342,440.16162c.24787.98674,1.52563,1.51617,2.85393,1.18251s2.20417-1.40408,1.95633-2.39083-1.52563-1.51617-2.85393-1.18251S932.88555,439.17487,933.13342,440.16162Z"/><path class="cls-22" d="M944.10736,414.26018c-.69817,7.09378,4.03544,9.3013,7.86879,9.58223s5.65043-3.61779,6.013-8.56486-.92425-8.63105-4.70005-9.35C949.64147,405.233,944.78251,407.4005,944.10736,414.26018Z"/><ellipse class="cls-23" cx="952.63262" cy="414.885" rx="8.98144" ry="6.95951" transform="translate(469.22326 1334.6425) rotate(-85.80813)"/><g class="cls-17"><path class="cls-18" d="M953.36789,412.96943c.48468,2.56222,1.94029,4.43833,3.25122,4.19034s1.98069-2.52609,1.496-5.08835-1.9403-4.43833-3.25122-4.19037S952.8832,410.40717,953.36789,412.96943Z"/></g><path class="cls-23" d="M951.86167,409.211h-.00683a.74813.74813,0,0,1-.74169-.75538c.04484-5.24356-1.04969-9.05149-3.16468-11.01054a4.92259,4.92259,0,0,0-3.51456-1.42881.76351.76351,0,0,1-.81186-.67641.74612.74612,0,0,1,.66858-.81381,6.40974,6.40974,0,0,1,4.63444,1.78358c2.49509,2.27775,3.73484,6.36833,3.68512,12.15964A.7492.7492,0,0,1,951.86167,409.211Z"/><path class="cls-20" d="M775.55707,537.1922c-2.7134,3.50341,8.04574,53.76987,10.04969,55.86532s38.7073,3.52981,41.22641.92012,6.27439-52.56936,4.69284-55.21319S777.03517,535.28377,775.55707,537.1922Z"/><path class="cls-20" d="M831.179,576.10328a12.36016,12.36016,0,0,1-5.50255-1.33441l1.59615-3.02177c2.94251,1.55764,7.49748,1.1553,11.60313-1.02272,4.47033-2.36684,7.41416-6.253,7.872-10.39162.37424-3.3828-.50642-6.02258-2.622-7.84214-3.32556-2.86458-9.55571-3.45087-16.67886-1.5638l-.87418-3.30386c8.3268-2.204,15.53953-1.37546,19.78373,2.27728,2.97674,2.56642,4.28681,6.30389,3.78741,10.80871-.5831,5.264-4.19648,10.13655-9.6683,13.03507A19.24417,19.24417,0,0,1,831.179,576.10328Z"/><ellipse class="cls-19" cx="803.48737" cy="538.39211" rx="5.89142" ry="28.08621" transform="translate(247.30091 1329.66617) rotate(-88.72144)"/><g class="cls-17"><path class="cls-18" d="M786.90557,574.39087l4.91926.10978c-.29612,7.13658-.79919,12.83332-1.34033,12.58176C789.97809,586.79781,788.49514,581.262,786.90557,574.39087Z"/><path class="cls-18" d="M791.94954,570.4364l-6.10415-.61522c-2.39492-10.61448-4.79864-22.35732-4.77807-23.27934.03736-1.6743,9.50592-.198,10.29243,1.32323C792.21194,549.4904,792.3082,560.4979,791.94954,570.4364Z"/></g><path class="cls-24" d="M798.80723,530.21406c-14.01753-10.991-8.61193-18.84383,0-28.67223a24.67948,24.67948,0,0,0,3.866-27.5572s14.40606,5.55885,11.386,20.66526c-2.15294,10.769-12.663,16.58739-14.93347,21.83111C796.50308,522.53837,798.80723,530.21406,798.80723,530.21406Z"/><path class="cls-24" d="M809.28054,528.76364c-4.30081-10.25742-.11648-12.52731,5.55675-18.14227s5.23192-14.814,5.23192-14.814,6.7112,8.20693,2.43588,16.47811c-3.46456,6.70269-7.27621,6.53013-10.55962,10.31341C808.987,526.00784,809.28054,528.76364,809.28054,528.76364Z"/><path class="cls-29" d="M341.85743,512.20727a14.56812,14.56812,0,0,1,4.38206.76324,40.33268,40.33268,0,0,0-5.56586-17.605,14.93425,14.93425,0,0,1-10.82526,4.28928A15.323,15.323,0,0,1,316.8959,477.085a38.90249,38.90249,0,0,0-9.67238-1.42724,39.70833,39.70833,0,0,0-7.16786.49007,15.33719,15.33719,0,0,1-13.6782,22.529,15.04038,15.04038,0,0,1-12.16684-6.70742,40.12392,40.12392,0,0,0-6.73,14.29778,14.66024,14.66024,0,0,1,3.60618-.35765,15.31648,15.31648,0,0,1,.5463,30.58522,40.22476,40.22476,0,0,0,17.64807,16.40137,15.40027,15.40027,0,0,1-.62922-4.7198,15.12424,15.12424,0,1,1,28.733,6.987,39.98808,39.98808,0,0,0,19.67569-13.02274,15.32924,15.32924,0,0,1,4.79677-29.9333ZM306.0695,526.95441a10.765,10.765,0,1,1,10.87362-10.52232A10.70563,10.70563,0,0,1,306.0695,526.95441Z"/><path class="cls-29" d="M310.28815,506.37939a10.74925,10.74925,0,0,0-13.6605,14.155,10.78928,10.78928,0,0,1,4.06647-20.81772A10.62845,10.62845,0,0,1,310.28815,506.37939Z"/><path class="cls-29" d="M331.20106,536.42585l5.8596,5.71472s-4.16811,4.31938-8.34536.87568S331.20106,536.42585,331.20106,536.42585Z"/><path class="cls-29" d="M311.52536,549.44859l5.85961,5.71472s7.56878-6.05183,3.74194-11.06224S311.52536,549.44859,311.52536,549.44859Z"/><path class="cls-29" d="M311.03633,471.37033l5.85957,5.71468s-7.114,3.93409-9.745,1.80125S311.03633,471.37033,311.03633,471.37033Z"/><path class="cls-29" d="M334.814,489.65081l5.8596,5.71469s2.37739,6.97895-3.11062,5.18062S334.814,489.65081,334.814,489.65081Z"/><path class="cls-29" d="M261.621,500.55245l5.85959,5.71472s4.89133-1.44516,3.56438-5.50271S261.621,500.55245,261.621,500.55245Z"/><path class="cls-23" d="M335.99783,506.49258a14.56736,14.56736,0,0,1,4.38209.76321,40.33271,40.33271,0,0,0-5.56589-17.605,14.94557,14.94557,0,0,1-18.365,2.046,15.32982,15.32982,0,0,1-7.23628-13.40218,15.124,15.124,0,0,1,1.82357-6.92425,38.90228,38.90228,0,0,0-9.67241-1.42728,39.71143,39.71143,0,0,0-7.16786.49007,15.33722,15.33722,0,0,1-13.67817,22.529,15.04039,15.04039,0,0,1-12.16684-6.70745,40.12328,40.12328,0,0,0-6.73,14.29778,14.6603,14.6603,0,0,1,3.60617-.35762,15.20212,15.20212,0,0,1,14.66932,13.38342,15.907,15.907,0,0,1,.10668,2.26206,15.24411,15.24411,0,0,1-14.22967,14.93974,40.22446,40.22446,0,0,0,17.648,16.40134,15.399,15.399,0,0,1-.62919-4.71977,15.12424,15.12424,0,1,1,28.733,6.987,39.98771,39.98771,0,0,0,19.6757-13.02274,15.32923,15.32923,0,0,1,4.79677-29.93327ZM300.2099,521.23972a10.68346,10.68346,0,0,1-10.38276-10.708,2.17761,2.17761,0,0,1-.00657-.29271,10.70575,10.70575,0,0,1,10.87355-10.52232,10.44336,10.44336,0,0,1,5.81385,1.912,10.789,10.789,0,0,1-6.29807,19.61107Z"/><g class="cls-17"><path class="cls-18" d="M316.449,491.69676a44.02495,44.02495,0,0,1-9.94107,9.93189,10.44336,10.44336,0,0,0-5.81385-1.912A10.70575,10.70575,0,0,0,289.82057,510.239a2.17761,2.17761,0,0,0,.00657.29271,86.08647,86.08647,0,0,1-9.93064,3.04653,15.20212,15.20212,0,0,0-14.66932-13.38342,14.6603,14.6603,0,0,0-3.60617.35762,40.12328,40.12328,0,0,1,6.73-14.29778,15.04039,15.04039,0,0,0,12.16684,6.70745,15.33722,15.33722,0,0,0,13.67817-22.529,39.71143,39.71143,0,0,1,7.16786-.49007,38.90228,38.90228,0,0,1,9.67241,1.42728,15.124,15.124,0,0,0-1.82357,6.92425A15.32982,15.32982,0,0,0,316.449,491.69676Z"/></g><path class="cls-15" d="M437.52511,273.34822H360.16a31.61958,31.61958,0,0,1,31.62369-31.12182h14.11776A31.61956,31.61956,0,0,1,437.52511,273.34822Z"/><circle class="cls-15" cx="398.84255" cy="223.60408" r="15.29426"/><polygon class="cls-16" points="1156.922 90.773 1250.411 101.96 1259.364 67.423 1156.922 90.773"/><polygon class="cls-14" points="1291.841 74.656 1156.922 90.773 1227.499 60.325 1244.357 64.083 1244.874 70.723 1259.364 67.423 1291.841 74.656"/><polygon class="cls-16" points="1244.357 64.083 1244.874 70.723 1156.922 90.773 1244.357 64.083"/><path class="cls-14" d="M253.04033,90.66379,261.621,102.819c-.03545.0522-.07732.09532-.12215.15415a21.29071,21.29071,0,0,1-3.48964,3.7526l-21.45865,15.14815-9.22007-13.061Z"/><path class="cls-14" d="M264.15574,87.71521c2.72088,3.85436,1.8861,9.44956-1.61888,14.31211a.895.895,0,0,1-.06081.08345c-.03723.05329-.08079.09757-.12775.15772a22.8254,22.8254,0,0,1-3.63721,3.84938c-.51709.43255-1.057.854-1.61587,1.24855-.57863.40847-1.16651.78312-1.75722,1.13256a22.61107,22.61107,0,0,1-5.9883,2.44612l-.01.00705c-5.42983,1.31-10.54442.14385-13.12547-3.51243a8.63425,8.63425,0,0,1-1.49929-3.83964l2.59466-1.83162c5.54845-3.91676,8.73893-9.54231,8.67023-14.40533a7.63232,7.63232,0,0,0-.07227-1.20377,25.19609,25.19609,0,0,1,2.76569-1.25068c.35637-.13016.71934-.2515,1.07871-.35677C255.63547,82.71954,261.37129,83.77079,264.15574,87.71521Z"/><path class="cls-14" d="M262.53874,102.02807c-.01206.02414-.0362.04828-.06034.08442-.03617.04828-.08436.09647-.13264.15678a31.23927,31.23927,0,0,1-2.36355,2.5565c-.591.60295-1.218,1.16976-1.88127,1.72443-.32553.26534-.65118.53062-.98879.808l-.012.012-.01209.01209a26.75648,26.75648,0,0,1-2.54444,1.79677c-.34976.21715-.68736.41006-1.013.59095a11.337,11.337,0,0,1-1.4109.67532,5.12881,5.12881,0,0,1-2.77356.49439l-.01208.01208c-2.74948-.398-3.29215-4.14832-2.99067-8.69462a76.36717,76.36717,0,0,1,1.013-7.573v-.01209c.54267-3.08711,1.14562-5.909,1.37474-7.66951a6.06621,6.06621,0,0,0,.06027-1.628c-.03619-.15679-.07233-.32556-.12055-.47025-.92857-2.90629-4.3051-2.78564-4.3051-2.78564l-.06028-.09651v-.01205c-4.75127-7.85047,7.163-17.93182,15.55616-21.98364,8.41719-4.10009,10.61193-1.00093,11.20283,6.59626C271.06443,66.62269,274.53743,87.304,262.53874,102.02807Z"/><path class="cls-14" d="M249.75611,84.55451a2.86918,2.86918,0,0,1-1.025,2.448.845.845,0,0,1-.12062.09641,2.75775,2.75775,0,0,1-2.62889.26534,7.98681,7.98681,0,0,0-.07233-1.2059,8.77882,8.77882,0,0,0-1.54354-4.03976l-.06028-.09651v-.01205a2.62136,2.62136,0,0,1,.26528-.25329c.06028-.04819.10856-.08442.16884-.1326a3.16336,3.16336,0,0,1,4.32915,1.04911A3.70186,3.70186,0,0,1,249.75611,84.55451Z"/><path class="cls-14" d="M217.3996,115.82338l8.58065,12.15522c.06106-.0159.1157-.04089.18615-.06347a21.28773,21.28773,0,0,0,4.7044-2.03176l21.45868-15.14815-9.22-13.061Z"/><path class="cls-14" d="M210.89953,125.31c2.72089,3.85436,8.27264,4.94118,14.02806,3.26659a.89519.89519,0,0,0,.099-.02937c.06266-.01722.119-.04346.19138-.06757a22.82613,22.82613,0,0,0,4.845-2.13841c.58072-.34244,1.15862-.71,1.71751-1.10455.57862-.40847,1.1285-.837,1.65558-1.2766a22.60977,22.60977,0,0,0,4.30992-4.82366l.01-.00705c3.05242-4.67781,3.66608-9.88762,1.085-13.5439a8.63421,8.63421,0,0,0-3.116-2.69837l-2.59467,1.83165c-5.54841,3.91676-11.9175,5.03956-16.47683,3.34653a7.62926,7.62926,0,0,1-1.11012-.47112,25.18887,25.18887,0,0,0-2.1045,2.18729c-.242.29221-.47783.59362-.69736.897C209.045,115.60879,208.11509,121.36553,210.89953,125.31Z"/><path class="cls-14" d="M237.75732,119.1278l-.012.01205a5.22756,5.22756,0,0,1-1.39887,2.448,11.98971,11.98971,0,0,1-1.10943,1.09734c-.25326.22914-.53059.45826-.83206.69946a27.31062,27.31062,0,0,1-2.61681,1.85707h-.01208c-.36176.22911-.73556.44617-1.10946.67528-.73559.43421-1.48327.83209-2.23091,1.18185a29.65465,29.65465,0,0,1-3.21975,1.37468,1.9888,1.9888,0,0,1-.193.07242.81462.81462,0,0,0-.09641.03614c-17.8957,6.37922-36.21341-3.82271-36.21341-3.82271-6.9581-3.11125-9.15278-6.19837-2.47207-12.77057,6.63248-6.548,20.12656-14.39851,25.939-7.29571l.07234.08445v.01205s-1.2421,3.13534,1.18179,4.99241c.1326.08442.26534.18089.41.26531a5.672,5.672,0,0,0,1.54351.48239h.01209c1.73649.37384,4.58241.75967,7.68161,1.27827h.012c2.48417.422,5.12511.9285,7.46458,1.57974C234.94763,114.62978,238.31208,116.4025,237.75732,119.1278Z"/><path class="cls-14" d="M216.654,108.06966a2.79,2.79,0,0,1-1.12149,2.38775.723.723,0,0,1-.1326.07233h-.01209a2.80449,2.80449,0,0,1-2.64094.14473,3.67447,3.67447,0,0,1-1.54351-1.26627,3.15018,3.15018,0,0,1,.37384-4.35329.52178.52178,0,0,1,.08441-.07236,1.90429,1.90429,0,0,1,.50646-.27734l.01207-.01208.07234.08445v.01205a8.8309,8.8309,0,0,0,3.29211,2.80972A8.28173,8.28173,0,0,0,216.654,108.06966Z"/><path class="cls-16" d="M271.06443,66.62269c-3.31626-1.242-21.97158,7.07865-26.49371,15.13409-.07236.12065-.14469.2412-.205.36185l-.06028-.09651v-.01205c-4.75127-7.85047,7.163-17.93182,15.55616-21.98364C268.27879,55.92634,270.47353,59.0255,271.06443,66.62269Z"/><path class="cls-16" d="M212.25245,104.77758v.01205c-.22912.08442-.45823.16877-.67528.26528-12.98764,5.0286-21.646,16.00238-22.864,19.7045-6.9581-3.11125-9.15278-6.19837-2.47207-12.77057,6.63248-6.548,20.12656-14.39851,25.939-7.29571Z"/><g class="cls-17"><ellipse class="cls-18" cx="264.58865" cy="76.4183" rx="14.30141" ry="3.94387" transform="translate(164.15456 332.85523) rotate(-84.72183)"/></g><path class="cls-34" d="M1171.65856,589.18389c-9.30816,3.73462-21.55444.19276-22.26348-.01844a.84281.84281,0,0,1,.48062-1.61565c.22686.06813,22.75438,6.57731,28.89649-7.28288a.84273.84273,0,0,1,1.54106.68258A15.3625,15.3625,0,0,1,1171.65856,589.18389Z"/><ellipse class="cls-34" cx="1147.97554" cy="587.92647" rx="4.28008" ry="6.75041" transform="translate(403.46127 1641.11395) rotate(-81.86182)"/><path class="cls-14" d="M1127.53109,544.18141c2.82247-13.735,8.73918-23.68834,17.11047-28.78383,6.56228-3.99439,14.43874-4.895,22.77671-2.60359a28.52549,28.52549,0,0,1,18.11553,14.38009c4.4777,8.66773,4.578,19.77108.28269,31.266l-4.13166-1.59565c3.85542-10.31713,3.83407-20.15061-.06044-27.6893a23.77268,23.77268,0,0,0-15.31648-12.11c-7.13975-1.96169-13.82565-1.22553-19.33656,2.12927-7.31947,4.4548-12.54882,13.42986-15.1221,25.95419Z"/><path class="cls-15" d="M1148.40242,511.56664c16.12284-7.20753,33.30514,6.70961,33.66655,8.477s-4.61525,7.79214-5.64123,7.09728a34.91106,34.91106,0,0,0-12.26457-7.10846c-7.56315-2.51078-11.05523.72166-12.11177.163S1147.66884,511.89458,1148.40242,511.56664Z"/><path class="cls-16" d="M1116.108,550.14869c-1.02088-.03012-4.54486.73487-4.78725,3.371s3.49114,4.41388,4.1859,3.83946S1116.108,550.14869,1116.108,550.14869Z"/><path class="cls-15" d="M1130.32791,570.82466c-1.36772.83958-7.22056-.4623-11.57106-4.20687a13.25188,13.25188,0,0,1-4.81258-12.60331,14.36162,14.36162,0,0,1,8.51824-11.1196c5.57162-2.60666,11.97627-2.09367,13.2536-.13937C1138.03287,546.30091,1133.59059,568.829,1130.32791,570.82466Z"/><path class="cls-14" d="M1118.75685,566.61779a13.25188,13.25188,0,0,1-4.81258-12.60331,14.36162,14.36162,0,0,1,8.51824-11.1196Z"/><g class="cls-17"><path class="cls-18" d="M1126.69972,549.20221c-4.08181,1.21555-7.78669.87146-8.27506-.76853s2.4247-3.95481,6.50651-5.17035,7.78669-.87145,8.27506.76853S1130.78153,547.98667,1126.69972,549.20221Z"/></g><g class="cls-17"><path class="cls-18" d="M1127.0605,546.82983c-2.31288.57593-4.37543.28949-4.60682-.6398s1.456-2.14943,3.76887-2.72536,4.37546-.28948,4.60683.63977S1129.37339,546.25391,1127.0605,546.82983Z"/></g><path class="cls-16" d="M1193.93064,566.558c.96376.338,3.979,2.3158,3.25993,4.86356s-4.8418,2.86833-5.28433,2.083S1193.93064,566.558,1193.93064,566.558Z"/><path class="cls-15" d="M1173.24183,580.75931c.97566,1.27419,6.90606,2.15783,12.31007.22247a13.25188,13.25188,0,0,0,9.01216-10.03917,14.36158,14.36158,0,0,0-3.964-13.43474c-4.26627-4.43135-10.42891-6.24925-12.32209-4.883C1174.8439,555.10362,1170.91182,577.7263,1173.24183,580.75931Z"/><path class="cls-14" d="M1185.5519,580.98178a13.25188,13.25188,0,0,0,9.01216-10.03917,14.36158,14.36158,0,0,0-3.964-13.43474Z"/><g class="cls-17"><ellipse class="cls-18" cx="1186.27312" cy="559.42134" rx="3.09832" ry="7.71153" transform="translate(19.26963 1158.00216) rotate(-52.40182)"/></g><g class="cls-17"><path class="cls-18" d="M1184.89675,559.53218c1.95251,1.36707,3.98061,1.83932,4.52986,1.05485s-.58832-2.52863-2.54084-3.89569-3.98061-1.83932-4.52986-1.05482S1182.94424,558.16515,1184.89675,559.53218Z"/></g></g></g></svg>