<svg xmlns="http://www.w3.org/2000/svg" viewBox="0 0 1528 642"><defs><style>.cls-1{isolation:isolate;}.cls-2{fill:#f7f7f7;}.cls-3{fill:#d7eff9;}.cls-17,.cls-4,.cls-45,.cls-46{fill:#fff;}.cls-5{fill:#98c4e5;}.cls-12,.cls-14,.cls-15,.cls-26,.cls-28,.cls-29,.cls-38,.cls-39,.cls-44,.cls-6{fill:none;}.cls-6{stroke:#224cb3;stroke-width:1.98425px;}.cls-12,.cls-14,.cls-15,.cls-26,.cls-28,.cls-29,.cls-38,.cls-39,.cls-44,.cls-46,.cls-6{stroke-linecap:round;stroke-linejoin:round;}.cls-7{fill:#224cb3;}.cls-8{fill:#a05e47;}.cls-9{fill:#cc8025;}.cls-10{fill:#fbb040;}.cls-11{fill:#774031;}.cls-12{stroke:#935d16;}.cls-12,.cls-15,.cls-26,.cls-29,.cls-38,.cls-44{stroke-width:0.28346px;}.cls-13{fill:#171e26;}.cls-14{stroke:#0d2638;}.cls-14,.cls-39{stroke-width:0.56693px;}.cls-15{stroke:#774031;}.cls-16{fill:#0a2274;}.cls-17,.cls-45,.cls-46{stroke:#1f74c2;}.cls-17,.cls-45{stroke-miterlimit:10;}.cls-18{fill:#eeb399;}.cls-19{fill:#cc957f;}.cls-20{fill:#638dce;}.cls-21{fill:#b57359;}.cls-22{fill:#7298e2;}.cls-23{fill:#f15a29;}.cls-24{fill:#f9ed32;}.cls-25{fill:#f7941d;}.cls-26{stroke:#f7941d;}.cls-27{fill:#2d2d2d;}.cls-28{stroke:#2d2d2d;}.cls-29{stroke:#3c62a0;}.cls-30{fill:#3f2009;}.cls-31{fill:#c13d3d;}.cls-32{fill:#f75454;}.cls-33{fill:#cc4848;}.cls-34{fill:#c18b76;}.cls-35{fill:#5e3513;}.cls-36{fill:#1f74c2;}.cls-37{fill:#bcbec0;mix-blend-mode:multiply;}.cls-38{stroke:#bc2f2f;}.cls-39{stroke:#383838;}.cls-40{fill:#383838;}.cls-41{fill:#d89073;}.cls-42{fill:#c6e9f4;}.cls-43{fill:#b6cad8;}.cls-44{stroke:#80a4bc;}.cls-45,.cls-46{stroke-width:0.85039px;}</style></defs><title>feline-community-engagement</title><g class="cls-1"><g id="BACKGROUND"><rect class="cls-2" width="1528" height="642"/></g><g id="OBJECTS"><path class="cls-3" d="M1071.92729,156.41338c-28.774-35.256-65.84514-63.11695-106.65767-83.00077-25.526-12.43622-57.47534-27.10779-85.2935-31.75968C812.25029,30.328,742.43448,28.377,675.12157,41.94077,607.80848,55.50453,543.00528,85.10544,492.5314,131.66068c-16.27183,15.00868-30.95817,31.64621-45.16643,48.6214-64.21663,76.72187-116.13432,185.63683-65.87133,283.90329,13.02684,25.468,32.85328,46.86615,54.29438,65.80306,18.90831,16.70008,39.51651,31.90471,62.79847,41.61921,30.56276,12.75247,65.05671,15.48009,97.47122,8.69673,60.13119-12.58327,108.87418-55.34756,164.53393-81.349a311.62669,311.62669,0,0,1,124.18785-29.10107c36.79074-.85853,74.14111,4.77884,110.10173-3.04018,62.40252-13.56857,111.67912-68.8665,124.79637-131.36552S1112.30583,205.88814,1071.92729,156.41338Z"/><path class="cls-4" d="M1066.99308,244.07766a11.92121,11.92121,0,0,0,5.38513-1.09322,9.94019,9.94019,0,0,0,3.3498-3.58413c2.52651-4.062,4.05241-8.98,3.06989-13.66174-.98233-4.68178-4.93991-8.89435-9.71745-9.1392-4.77736-.24466-9.47039,4.48768-8.33177,9.13385a11.19157,11.19157,0,0,0-8.77332-2.809c-3.12432.5266-5.94992,3.238-5.94678,6.40641.06328-9.15857-9.45563-17.11266-18.45718-15.42309-9.00174,1.68957-14.98836,12.55413-11.60812,21.06635-2.33445-1.29194-4.82572-2.62264-7.4908-2.4968-2.66468.12584-5.41574,2.35584-5.05836,4.99951-1.00411-7.4286-15.85669-4.30612-16.59418,2.46507-.87439,8.027,11.875,6.11819,16.81947,6.03885Q1035.32723,245.47183,1066.99308,244.07766Z"/><path class="cls-4" d="M427.15586,445.65641a11.92125,11.92125,0,0,1-5.38514-1.09322,9.94028,9.94028,0,0,1-3.3498-3.58413c-2.5265-4.062-4.05241-8.98-3.06989-13.66174.98234-4.68178,4.93991-8.89435,9.71745-9.1392,4.77736-.24466,9.4704,4.48768,8.33178,9.13385a11.19156,11.19156,0,0,1,8.77331-2.809c3.12432.5266,5.94992,3.238,5.94679,6.40641-.06329-9.15857,9.45563-17.11265,18.45718-15.42309,9.00173,1.68957,14.98837,12.55413,11.60813,21.06635,2.33443-1.29194,4.8257-2.62264,7.49078-2.4968,2.6647.12584,5.41576,2.35584,5.05836,4.99951,1.00411-7.4286,15.85669-4.30612,16.59418,2.46507.8744,8.027-11.87494,6.11819-16.81946,6.03885Q458.82172,447.05058,427.15586,445.65641Z"/><path class="cls-3" d="M496.01331,85.63074c5.67186-.10314,11.72031-.32289,16.36851-3.57453,4.64838-3.25182,6.73908-10.73817,2.60548-14.623-3.55571-3.34187-10.4256-1.48107-11.80888,3.19831.89377-3.7858-4.87146-6.94352-7.58026-4.15187a29.20278,29.20278,0,0,0-5.11188-16.55081c-1.94751-2.82855-4.60982-5.42352-7.97346-6.11525-3.514-.72254-7.14777.77735-10.02835,2.91564a24.144,24.144,0,0,0-9.22333,22.83692,7.53216,7.53216,0,0,0-13.48148,3.2247c-2.39218-2.13461-5.03548-4.32494-8.22328-4.66591-3.188-.341-6.84554,2.13221-6.46323,5.31539-3.88488-4.12124-8.78789-7.59041-14.39038-8.42163-5.60212-.83123-11.9087,1.52719-14.49518,6.56563-2.77264,5.40119.58453,13.10434,6.20676,15.10905,6.833,2.43647,17.50234.13931,24.6645.009Z"/><path class="cls-3" d="M1214.42276,134.12176c5.67186-.10314,11.72031-.32289,16.36851-3.57453,4.64838-3.25182,6.73908-10.73817,2.60548-14.62305-3.55571-3.34186-10.4256-1.48106-11.80889,3.19832.89377-3.7858-4.87145-6.94352-7.58025-4.15187a29.20276,29.20276,0,0,0-5.11188-16.55081c-1.94751-2.82856-4.60983-5.42352-7.97346-6.11525-3.514-.72254-7.14777.77735-10.02835,2.91564a24.144,24.144,0,0,0-9.22333,22.83692,7.53216,7.53216,0,0,0-13.48148,3.2247c-2.39218-2.13461-5.03548-4.32494-8.22328-4.66591-3.188-.341-6.84554,2.1322-6.46323,5.31539-3.88488-4.12124-8.78789-7.59041-14.39038-8.42164-5.60212-.83122-11.90871,1.5272-14.49518,6.56564-2.77265,5.40119.58453,13.10434,6.20676,15.109,6.833,2.43647,17.50234.1393,24.6645.009Z"/><path class="cls-3" d="M1446.07493,223.34205c5.67187-.10314,11.72031-.32289,16.36851-3.57453,4.64839-3.25182,6.73908-10.73816,2.60548-14.623-3.55571-3.34186-10.4256-1.48107-11.80888,3.19831.89377-3.78579-4.87146-6.94351-7.58026-4.15186a29.20264,29.20264,0,0,0-5.11188-16.55082c-1.94751-2.82855-4.60982-5.42351-7.97346-6.11525-3.514-.72254-7.14776.77735-10.02834,2.91565a24.144,24.144,0,0,0-9.22334,22.83692,7.53216,7.53216,0,0,0-13.48147,3.22469c-2.39219-2.1346-5.03549-4.32493-8.22329-4.66591-3.188-.341-6.84554,2.13221-6.46323,5.31539-3.88488-4.12124-8.78789-7.59041-14.39038-8.42163-5.60212-.83122-11.9087,1.5272-14.49518,6.56564-2.77264,5.40118.58454,13.10433,6.20677,15.109,6.833,2.43647,17.50234.13931,24.6645.009Z"/><path class="cls-3" d="M125.05679,269.58294c5.67186-.10314,11.72031-.3229,16.36851-3.57453,4.64838-3.25182,6.73908-10.73817,2.60548-14.62305-3.55571-3.34186-10.4256-1.48107-11.80889,3.19832.89377-3.7858-4.87145-6.94352-7.58025-4.15187a29.20276,29.20276,0,0,0-5.11188-16.55081c-1.94751-2.82856-4.60983-5.42352-7.97346-6.11525-3.514-.72255-7.14777.77734-10.02835,2.91564a24.144,24.144,0,0,0-9.22333,22.83692,7.53216,7.53216,0,0,0-13.48148,3.2247c-2.39218-2.13461-5.03549-4.32494-8.22328-4.66592-3.188-.341-6.84554,2.13221-6.46323,5.3154-3.88488-4.12124-8.78789-7.59042-14.39038-8.42164-5.60212-.83122-11.90871,1.5272-14.49518,6.56564-2.77265,5.40119.58453,13.10434,6.20676,15.109,6.833,2.43646,17.50234.1393,24.6645.009Z"/><path class="cls-5" d="M601.93808,124.42324a1.92391,1.92391,0,0,1-1.88663-.01919l-33.25588-19.13083a5.47074,5.47074,0,0,0-.80095,2.82007v29.28188a5.56143,5.56143,0,0,0,5.54509,5.54511h58.94368a5.56148,5.56148,0,0,0,5.54529-5.54511V108.09329a5.48945,5.48945,0,0,0-.4312-2.1324Z"/><path class="cls-5" d="M601.03416,120.52508l31.79012-17.437a5.46573,5.46573,0,0,0-2.34089-.53988H571.53971a5.45018,5.45018,0,0,0-1.40246.20315Z"/><path class="cls-5" d="M891.47576,359.8127a1.41257,1.41257,0,0,1-1.3853-.014l-24.42021-14.04793a4.01763,4.01763,0,0,0-.588,2.07077v21.502a4.08386,4.08386,0,0,0,4.07179,4.07179h43.28294a4.0839,4.0839,0,0,0,4.072-4.07179v-21.502a4.03187,4.03187,0,0,0-.31663-1.566Z"/><path class="cls-5" d="M890.81208,356.9502l23.34377-12.80414a4.01226,4.01226,0,0,0-1.71891-.39633H869.154a4.00179,4.00179,0,0,0-1.02975.14909Z"/><path class="cls-3" d="M709.141,534.201c14.11564-9.6752,30.64081-18.36438,47.54865-15.72273a21.64264,21.64264,0,0,1,10.42782,4.16293c2.93741,2.39034,4.94507,6.14237,4.53472,9.90713a13.28132,13.28132,0,0,1-4.39745,7.88139c-4.55041,4.33563-10.71953,6.6149-16.908,7.71348-6.18849,1.09876-12.50928,1.12441-18.77786,1.58218a136.21536,136.21536,0,0,0-20.47905,3.07838c-4.66075,1.06739-13.40158,5.80194-17.954,4.18434C679.40683,552.10944,705.37675,536.781,709.141,534.201Z"/><path class="cls-3" d="M767.9732,504.17941a11.9706,11.9706,0,0,0,1.28289,9.65767,9.6973,9.6973,0,0,0,2.52337,2.85328,13.72918,13.72918,0,0,0,5.12535,2.01615,19.17163,19.17163,0,0,0,4.572.61054,11.25428,11.25428,0,0,0,4.20555-21.61619,21.50935,21.50935,0,0,0-5.04766-1.24785A11.81737,11.81737,0,0,0,767.9732,504.17941Z"/><polygon class="cls-6" points="939.688 95.01 1033.318 410.905 521.718 561.769 443.424 205.403 939.688 95.01"/><circle class="cls-7" cx="1033.31842" cy="410.9053" r="87.2275" transform="translate(368.39699 1302.23555) rotate(-74.96305)"/><path class="cls-8" d="M960.39189,473.94674a12.57467,12.57467,0,0,1-3.98267-24.50029l35.73589-11.93933,15.06643-47.14679a12.57276,12.57276,0,0,1,23.95247,7.65351l-17.00933,53.22366a12.57245,12.57245,0,0,1-7.99135,8.09745L964.379,473.29486A12.57012,12.57012,0,0,1,960.39189,473.94674Z"/><path class="cls-9" d="M1023.01453,382.211a12.56161,12.56161,0,0,0-15.803,8.14929l-9.2307,28.88519c4.586,3.01749,13.30119,7.73488,23.68215,8.49783l9.501-29.72951A12.5729,12.5729,0,0,0,1023.01453,382.211Z"/><path class="cls-10" d="M1005.16347,398.88289c-2.0287,21.52394,11.89265,42.30135,6.88633,64.0085a46.82517,46.82517,0,0,0-1.596,7.6978c-.92682,15.90743,34.172,14.72859,43.66763,13.62447,8.098-.94174,16.561-2.87523,23.51629-7.3249,7.92126-5.068,6.06783-11.07748,3.19351-19.41295a90.00974,90.00974,0,0,1-3.94373-42.22256c1.80359-12.2827,5.19306-26.67677-4.7829-36.43186-8.47956-8.29174-21.32983-8.9534-32.43628-7.36734-13.73221,1.96117-31.10448,8.14062-33.98044,23.65707Q1005.33745,397.00115,1005.16347,398.88289Z"/><path class="cls-8" d="M1036.78144,403.835c12.87887-8.33971,15.824-30.88621,16.06389-32.9066a60.15749,60.15749,0,0,0-13.177.52567,62.89383,62.89383,0,0,0-18.66623,5.463C1025.35579,395.51464,1036.78144,403.835,1036.78144,403.835Z"/><polygon class="cls-8" points="1048.043 349.392 1048.043 371.193 1037.998 380.34 1028.241 374.394 1028.241 361.283 1048.043 349.392"/><path class="cls-11" d="M1045.32135,360.38524l-17.08,5.65839v6.97821C1037.77208,371.74945,1045.32135,360.38524,1045.32135,360.38524Z"/><path class="cls-8" d="M1018.62406,316.35355H1040.455a7.5879,7.5879,0,0,1,7.5879,7.5879v37.73613a7.5878,7.5878,0,0,1-7.5878,7.5878h-21.83092a7.5879,7.5879,0,0,1-7.5879-7.5879V323.94135A7.5878,7.5878,0,0,1,1018.62406,316.35355Z"/><path class="cls-8" d="M1066.33216,379.52788a12.5934,12.5934,0,0,0-13.62853,11.41956l-4.76444,53.975-50.62259,3.255s-1.6606,13.34309,1.61113,25.09145l61.39251-3.94576a12.5695,12.5695,0,0,0,11.71847-11.44116l5.713-64.72551A12.57349,12.57349,0,0,0,1066.33216,379.52788Z"/><path class="cls-8" d="M992.23036,473.43472a9.4807,9.4807,0,0,1-4.37917-1.22737,3.30834,3.30834,0,0,1-1.39012-3.9716c.35666-.7111,1.07625-1.28493,1.10448-2.0798.0358-1.00024-1.00651-1.64363-1.591-2.4564a3.83908,3.83908,0,0,1,.92164-4.92976c.4622-.3943,1.03215-.75225,1.18806-1.33955.34541-1.30117-1.59713-2.40787-1.229-3.703.28195-.99193,1.73256-1.25855,2.04051-2.24291a7.125,7.125,0,0,0-.028-1.66651,2.38587,2.38587,0,0,1,1.78017-1.95452,7.00143,7.00143,0,0,1,2.79275-.07215q2.2.23942,4.4.479a6.88381,6.88381,0,0,1,2.52151.60446c1.65377.88067,2.29089,2.89461,2.694,4.72422a29.83042,29.83042,0,0,1,.72586,10.67746,14.87257,14.87257,0,0,1-3.62416,8.0945C998.27438,474.32591,994.71111,473.706,992.23036,473.43472Z"/><path class="cls-10" d="M1066.39545,378.87674a12.856,12.856,0,0,0-13.91268,11.65777l-3.99927,45.30611c4.49394,1.99936,14.95629,6.17,25.16563,6.84424l4.40409-49.89544A12.83569,12.83569,0,0,0,1066.39545,378.87674Z"/><path class="cls-12" d="M1052.16486,394.13561l-3.68136,41.705s15.4264,6.616,25.16563,6.84424l4.152-42.93643"/><path class="cls-13" d="M1025.63846,303.05769c-2.85217.4384-5.46558,3.29407-4.65226,6.06266a7.648,7.648,0,0,0-9.87392,4.72385,6.96937,6.96937,0,0,0-1.32313,13.46819c-1.54027.97274-1.52756,3.42674-.32787,4.79765a6.45724,6.45724,0,0,0,4.97609,1.81135,12.90634,12.90634,0,0,0,6.79626-2.009,9.73031,9.73031,0,0,0,12.1604.73934,4.90722,4.90722,0,0,0,3.9284,3.1568,14.44332,14.44332,0,0,0,5.26668-.31552,8.41656,8.41656,0,0,0-.71166,4.47661c.31884,1.49786,1.8309,2.85124,3.29832,2.41285a4.52531,4.52531,0,0,0-1.08954,2.65437q1.46409.1157,2.928.23119a2.106,2.106,0,0,0,2.01117,2.97985c-.551,1.49694-1.82811,2.71508-2.04327,4.2956a3.37883,3.37883,0,1,0,6.56619-.574c3.51108,1.64178,8.25686-1.08363,8.60854-4.9436,3.80093-2.35824,4.11275-8.69213.562-11.41237a7.78872,7.78872,0,0,0,.65243-13.63388,7.866,7.866,0,0,0,1.31981-6.40862,9.22914,9.22914,0,0,0-2.84848-4.9401,18.036,18.036,0,0,0-2.71176-1.88349q-2.0619-1.25264-4.12363-2.50529c-1.86965-1.13585-3.82821-2.30177-6.0086-2.47908-2.18037-.17714-4.636.96923-5.19343,3.08446.81535-3.0948-6.35326-4.09245-7.97917-3.7583-1.37959.28341-2.39865,1.16039-3.83451,1.136C1029.79106,304.18819,1028.033,302.68959,1025.63846,303.05769Z"/><path class="cls-14" d="M1031.76385,343.41743c0,4.09928-2.63629,7.4225-5.88848,7.4225s-5.88867-3.32322-5.88867-7.4225,2.63648-7.42232,5.88867-7.42232S1031.76385,339.31815,1031.76385,343.41743Z"/><path class="cls-14" d="M1017.60543,343.41743c0,4.09928-2.24386,7.4225-5.01171,7.4225s-5.0115-3.32322-5.0115-7.4225,2.24365-7.42232,5.0115-7.42232S1017.60543,339.31815,1017.60543,343.41743Z"/><path class="cls-14" d="M1017.60543,343.41743a2.343,2.343,0,0,1,2.38127,0"/><line class="cls-14" x1="1031.76385" y1="343.41743" x2="1049.53115" y2="343.41743"/><path class="cls-8" d="M1054.0668,346.882a4.53565,4.53565,0,1,1-4.53565-4.53546A4.53575,4.53575,0,0,1,1054.0668,346.882Z"/><path class="cls-15" d="M1036.77166,403.835s-2.647-7.81348-.42456-14.61714"/><path class="cls-4" d="M1050.805,351.41782a1.274,1.274,0,1,1-1.27386-1.274A1.274,1.274,0,0,1,1050.805,351.41782Z"/><path class="cls-16" d="M990.92673,468.63116h109.49543a.601.601,0,0,1,.601.601v4.18914a.6009.6009,0,0,1-.6009.6009H990.92683a.601.601,0,0,1-.601-.601v-4.18914A.6009.6009,0,0,1,990.92673,468.63116Z"/><path class="cls-17" d="M1042.52767,473.94083H952.19481a8.16417,8.16417,0,0,1-7.74706-6.688l-7.79541-49.21737a5.58042,5.58042,0,0,1,5.62869-6.688h90.33286a8.16441,8.16441,0,0,1,7.74727,6.688l7.7952,49.21737A5.58043,5.58043,0,0,1,1042.52767,473.94083Z"/><path class="cls-16" d="M982.128,442.51124a8.32172,8.32172,0,1,0,8.32163-8.32181A8.32177,8.32177,0,0,0,982.128,442.51124Z"/><line class="cls-6" x1="524.79442" y1="563.36849" x2="939.68792" y2="95.01036"/><circle class="cls-7" cx="521.71752" cy="561.76878" r="78.29334"/><path class="cls-18" d="M533.47363,534.19749a12.46225,12.46225,0,0,1,17.21469,3.77214l23.98716,37.44557,43.32372-21.62763c4.19449,14.92472,11.21716,21.00731,11.21716,21.00731L576.18312,602.806a12.46281,12.46281,0,0,1-16.31427-4.29837L529.70112,551.412A12.45968,12.45968,0,0,1,533.47363,534.19749Z"/><path class="cls-19" d="M559.86885,598.50767l-6.5221-10.18168L573.628,573.78025l1.04747,1.635,40.2911-20.11372c-1.93128,7.98453-10.96567,25.91419-51.76418,46.67924A12.42421,12.42421,0,0,1,559.86885,598.50767Z"/><path class="cls-20" d="M533.47363,534.19749a12.46225,12.46225,0,0,1,17.21469,3.77214l22.671,35.39123c-3.64021,5.28845-10.40088,13.94921-18.03132,18.0579L529.70112,551.412A12.45965,12.45965,0,0,1,533.47363,534.19749Z"/><path class="cls-18" d="M630.07544,547.50479a5.81487,5.81487,0,0,1,2.973-.57014,2.12055,2.12055,0,0,1,1.89327,2.04124c-.13451,1.56152-2.27945,1.98829-3.19739,3.259a3.49616,3.49616,0,0,0-.11956,3.36917,24.77093,24.77093,0,0,0,1.8392,3.004,12.12235,12.12235,0,0,1-2.70179,15.24983,4.1723,4.1723,0,0,1-2.89535,1.1257c-1.33512-.13561-2.30989-1.27866-3.13631-2.33591a47.68841,47.68841,0,0,1-5.98148-8.97774c-1.37221-2.94314-3.24186-8.04136-.24116-10.34922C621.775,550.80846,626.26473,548.99933,630.07544,547.50479Z"/><path class="cls-21" d="M625.74257,569.57137a3.77263,3.77263,0,0,0,.7111.088.4155.4155,0,0,0,.42955-.40076.4098.4098,0,0,0-.40076-.42954,1.64063,1.64063,0,0,1-1.43089-.62919,3.406,3.406,0,0,1,.08875-2.62817.415.415,0,0,0-.25333-.553c-.90779-.29928-1.44343-.7159-1.59214-1.239a2.16967,2.16967,0,0,1,.49283-1.67517.41588.41588,0,0,0-.30611-.68251,1.88681,1.88681,0,0,1-1.45542-.51,1.08248,1.08248,0,0,1-.2347-.788c.43766-4.14854,9.36541-4.47937,9.45582-4.48232a.41573.41573,0,0,0-.02657-.831c-.398.01292-9.74273.36109-10.25217,5.2069a1.92466,1.92466,0,0,0,.41091,1.41575,2.27563,2.27563,0,0,0,1.3794.74635,2.52509,2.52509,0,0,0-.26422,1.82334,2.68053,2.68053,0,0,0,1.73534,1.65931,3.80766,3.80766,0,0,0,.12084,2.98612A2.14978,2.14978,0,0,0,625.74257,569.57137Z"/><path class="cls-21" d="M623.37714,562.24241a.4081.4081,0,0,0,.23857-.01586c.07547-.02805,7.56071-2.83907,9.995-2.92838a.41487.41487,0,1,0-.03008-.82919c-2.56876.09373-9.9444,2.86232-10.25788,2.97985a.41565.41565,0,0,0,.05443.79358Z"/><path class="cls-21" d="M624.6641,565.81768a.40709.40709,0,0,0,.23064-.0131c.07511-.02694,7.54816-2.64994,9.81451-2.65419a.416.416,0,1,0-.003-.832c-2.40639.00628-9.77557,2.59294-10.08739,2.70346a.415.415,0,0,0,.0452.79579Z"/><path class="cls-21" d="M626.37526,569.64887a.41337.41337,0,0,0,.28913-.03783,24.85727,24.85727,0,0,1,7.84153-2.52706.41752.41752,0,0,0,.37566-.4526.42189.42189,0,0,0-.453-.37548,25.28409,25.28409,0,0,0-8.157,2.6219.4151.4151,0,0,0,.1037.77107Z"/><path class="cls-21" d="M622.14018,558.354a.41675.41675,0,0,0,.38821-.112,2.04116,2.04116,0,0,0,.56589-1.62166,18.23943,18.23943,0,0,0,3.38246-.63232,6.72547,6.72547,0,0,0,3.0972-1.89733,2.53894,2.53894,0,0,0,.68693-1.35025,2.25818,2.25818,0,0,0-.99433-2.03977,4.67243,4.67243,0,0,0-1.98367-.71645,12.70366,12.70366,0,0,0-5.572.28119.41572.41572,0,0,0,.23082.79875,11.84642,11.84642,0,0,1,5.20284-.26,3.83032,3.83032,0,0,1,1.6368.572,1.41981,1.41981,0,0,1,.6552,1.25891,1.74783,1.74783,0,0,1-.48527.90614,5.9152,5.9152,0,0,1-2.72448,1.65525,17.724,17.724,0,0,1-3.31327.60556.67137.67137,0,0,0-.65187.85041,1.20313,1.20313,0,0,1-.32438,1.00485.41643.41643,0,0,0,.00333.58785A.42213.42213,0,0,0,622.14018,558.354Z"/><path class="cls-22" d="M559.8825,553.95806l-6.0717,78.57269s-17.7435,9.66173-42.78753,6.74959c-25.04441-2.91232-30.52992-13.97873-30.52992-13.97873s4.3266-77.096,5.05523-77.85956c.72826-.7635,3.691-26.0963,39.92724-20.92132C561.71212,531.69534,559.8825,553.95806,559.8825,553.95806Z"/><path class="cls-23" d="M543.22135,531.4957c17.79829,8.36517,16.66115,22.46236,16.66115,22.46236l-6.0717,78.57269a56.16146,56.16146,0,0,1-9.15986,3.63523c1.35265-11.11014,3.03114-26.22546,4.95817-46.27774C552.91444,555.49079,547.58485,538.988,543.22135,531.4957Z"/><path class="cls-23" d="M511.02327,639.28034c-25.04441-2.91213-30.52992-13.97873-30.52992-13.97873s4.3266-77.096,5.05523-77.85956c.61018-.63988,2.8018-18.5212,24.81174-21.25861,6.24348,5.87981,15.70686,17.19974,14.94077,31.299-.94137,17.31967-4.08193,66.118-5.13106,82.34151A81.64178,81.64178,0,0,1,511.02327,639.28034Z"/><path class="cls-24" d="M550.54717,565.0289c3.17378-.18211,6.015-.40426,8.529-.63841l-1.56078,20.19989c-2.52024.2513-5.02553.45445-7.51642.62383A187.64988,187.64988,0,0,0,550.54717,565.0289Z"/><path class="cls-24" d="M556.319,600.07048l-1.56189,20.2128q-4.19826.36838-8.33545.59173.99441-8.98,2.1357-20.30322C551.37507,600.43157,553.97261,600.26016,556.319,600.07048Z"/><path class="cls-24" d="M483.03388,581.96553c.45334-7.39188.90706-14.54758,1.30745-20.42573a334.69383,334.69383,0,0,0,40.512,3.7869c-.33857,5.74973-.77125,12.83163-1.24009,20.37351A325.68542,325.68542,0,0,1,483.03388,581.96553Z"/><path class="cls-24" d="M522.67329,600.68711c-.44781,7.09057-.89414,14.0959-1.29693,20.38588a325.27453,325.27453,0,0,1-40.41545-4.00038c.30056-5.25137.72069-12.52147,1.18916-20.4285A335.64558,335.64558,0,0,0,522.67329,600.68711Z"/><polygon class="cls-18" points="517.102 504.459 517.102 526.259 527.146 535.406 536.903 529.461 536.903 516.35 517.102 504.459"/><path class="cls-19" d="M519.82333,515.45192l17.07981,5.65839v6.97821C527.3726,526.81613,519.82333,515.45192,519.82333,515.45192Z"/><path class="cls-18" d="M524.68959,471.42023h21.83092a7.5879,7.5879,0,0,1,7.5879,7.5879v37.73613a7.5878,7.5878,0,0,1-7.5878,7.5878H524.68969a7.5879,7.5879,0,0,1-7.5879-7.5879V479.008A7.5878,7.5878,0,0,1,524.68959,471.42023Z" transform="translate(1071.21022 995.75229) rotate(180)"/><path class="cls-13" d="M530.34544,491.99412q-2.28942.6385-4.62163,1.10854a3.40063,3.40063,0,0,1-1.30376,4.6554c-.66516.33212-1.47276.45795-1.95894,1.02053a3.41506,3.41506,0,0,0-.353,2.65013c.102.9137.02343,2.02814-.77956,2.476-.90816.50667-2.39052-.06993-2.87763.84912a3.02348,3.02348,0,0,0-.18156.97348c-.24134,1.541-2.25989,2.27871-3.70111,1.68219a5.61945,5.61945,0,0,1-2.83445-3.54464,9.1363,9.1363,0,0,1-.415-4.93549c.68915-3.0876,3.30219-5.292,5.32536-7.724,1.87131-2.24975,3.428-4.93992,6.02981-6.27891a8.169,8.169,0,0,1,8.65172,1.1388C533.50224,487.907,533.22953,491.19,530.34544,491.99412Z"/><path class="cls-18" d="M515.28768,501.94867a4.53565,4.53565,0,1,0,4.53584-4.53546A4.53579,4.53579,0,0,0,515.28768,501.94867Z"/><path class="cls-10" d="M555.35829,484.76646s-21.9675,6.47117-39.74476,8.26886c0,0-10.17818-22.40978,13.46505-27.5628S553.56079,475.2992,555.35829,484.76646Z"/><path class="cls-25" d="M555.35829,484.76646s13.80714,4.083-23.35539,5.69659C532.0029,490.46305,549.84584,485.00614,555.35829,484.76646Z"/><path class="cls-25" d="M543.33888,487.24426s-1.89751-23.90321-19.67145-20.0652l-2.3551,1.19618s18.81588-1.84178,20.34233,19.96962Z"/><path class="cls-26" d="M548.99931,486.223s-1.041-22.21383-14.60275-21.619"/><path class="cls-18" d="M536.90314,529.46073s1.38734,6.45806-9.75676,5.94549c-11.1439-.51257-10.04459-10.073-10.04459-10.073Z"/><path class="cls-27" d="M591.64181,534.30715h16.446a.69434.69434,0,0,1,.69434.69434v28.479a.69434.69434,0,0,1-.69434.69434h-16.446a.69439.69439,0,0,1-.69439-.69439V535.00149A.69433.69433,0,0,1,591.64181,534.30715Z" transform="translate(-211.1543 487.99196) rotate(-38.15863)"/><line class="cls-28" x1="597.46885" y1="537.32329" x2="583.79475" y2="519.92077"/><path class="cls-18" d="M494.14863,536.10275a12.59378,12.59378,0,0,1,17.77948.20352l37.8764,38.74766,41.23321-29.54758s9.737,9.273,14.64722,20.43625l-50.00468,35.835a12.56933,12.56933,0,0,1-16.31482-1.43014L493.94512,553.882A12.57349,12.57349,0,0,1,494.14863,536.10275Z"/><path class="cls-18" d="M610.97247,561.82856a9.48256,9.48256,0,0,0,2.611-3.7238,3.30839,3.30839,0,0,0-1.44011-3.9537c-.72641-.32437-1.64676-.31256-2.17206-.90964-.66147-.75133-.26236-1.90932-.32492-2.90863a3.839,3.839,0,0,0-3.8358-3.23079,3.05793,3.05793,0,0,1-1.7678-.28378c-1.09138-.78823-.2895-2.875-1.39453-3.64409-.84654-.589-2.13793.12362-2.99978-.443-.467-.307-.65243-.8982-1.03382-1.30726a2.38566,2.38566,0,0,0-2.61562-.3847,7.00069,7.00069,0,0,0-2.20675,1.71318l-3.10126,3.15772a6.88983,6.88983,0,0,0-1.56835,2.065c-.7218,1.72886.06089,3.691.908,5.36207a29.83019,29.83019,0,0,0,6.20178,8.72183,14.8708,14.8708,0,0,0,7.93176,3.96772C606.8601,566.34668,609.2246,563.60983,610.97247,561.82856Z"/><path class="cls-22" d="M493.68736,535.63907a12.85612,12.85612,0,0,1,18.15.20776l31.79308,32.52448c-2.21081,4.39376-7.66459,14.24812-15.13746,21.23684l-35.01354-35.8191A12.83555,12.83555,0,0,1,493.68736,535.63907Z"/><path class="cls-29" d="M514.36439,538.4322l29.266,29.93911s-7.746,14.89114-15.13746,21.23684l-30.41054-30.59394"/><circle class="cls-7" cx="443.42419" cy="205.40325" r="65.05099"/><path class="cls-30" d="M471.48682,108.8031s.35721,49.15371,13.83887,58.13442c0,0-33.51161,4.87219-50.07479-1.93294,0,0-4.13544-37.99394-3.79133-43.01467S467.40617,106.78492,471.48682,108.8031Z"/><path class="cls-31" d="M485.722,223.92464c-.159,0-.31939-.00332-.47973-.00978a12.56932,12.56932,0,0,1-10.35179-6.17872C466.15408,202.91641,455.42,185.35171,452.308,181.1288A12.57229,12.57229,0,0,1,460.76046,159.25h.05849c7.45424.03469,10.05861,2.51323,25.77046,28.86951l14.038-20.13864a12.57214,12.57214,0,0,1,20.62795,14.37783l-25.22025,36.18186A12.573,12.573,0,0,1,485.722,223.92464Zm-25.0361-39.53018.01827.00111Zm-.02177,0h0Zm-.01734,0h0Zm-.02159,0h0Zm-.01624,0h0Zm-.0369-.00092h0Z"/><path class="cls-32" d="M476.0518,178.40911c1.05633,6.9306.49191,14.02339.32511,21.04827-.36828,15.50889.13913,31.3866,5.27664,46.10338,1.74142,4.98881,3.35644,9.45379-.57881,13.82817C473.25,268.086,454.75389,270.09942,443.989,270.41955c-6.87266.20444-29.79316-.19023-32.71821-9.799-.94876-3.1162,2.50824-10.18814,3.10458-13.52022,1.27995-7.15257.56755-15.37659.57309-22.69946.00719-9.52943-.14355-19.79968-2.38407-29.09073-2.09844-8.70135-1.81282-17.21063,2.00711-25.56952,1.95471-4.2766,4.83843-8.329,8.98329-10.55,5.52407-2.96048,12.20669-3.87344,18.36049-3.89595,7.22287-.0262,16.71448.35057,23.21277,3.83358,6.12465,3.28282,9.47021,11.388,10.676,17.82062Q475.94046,177.67791,476.0518,178.40911Z"/><path class="cls-33" d="M419.46987,184.295l23.75338,44.62213s5.22738,8.00537,15.15924,4.0526c6.18831-2.46286,13.72281-7.393,18.52489-10.76068-.484-5.45359-.639-10.952-.61719-16.43218l-32.3907,2.7839Z"/><path class="cls-18" d="M453.90588,147.36533l.37364,13.2739s.08893,6.37689-9.70878,6.29755c-9.7979-.0799-10.43041-8.97461-10.43041-8.97461l-.62106-22.07176Z"/><path class="cls-34" d="M436.58769,146.9428l17.454,5.24214.19872,7.06511C444.55487,158.23321,436.58769,146.9428,436.58769,146.9428Z"/><path class="cls-18" d="M440.912,101.90231h22.30619a7.58792,7.58792,0,0,1,7.58792,7.58792v38.41651a7.58768,7.58768,0,0,1-7.58768,7.58768H440.912a7.58789,7.58789,0,0,1-7.58789-7.58789V109.49019a7.58788,7.58788,0,0,1,7.58788-7.58788Z" transform="translate(907.5728 244.62451) rotate(178.38747)"/><path class="cls-18" d="M429.08049,133.47184a4.59393,4.59393,0,1,0,4.46277-4.72145A4.59342,4.59342,0,0,0,429.08049,133.47184Z"/><path class="cls-35" d="M471.48682,108.8031s-15.81627,21.45918-39.51634,19.99158c0,0-5.24435-28.3228,17.814-29.16436C449.78446,99.63032,461.7321,98.08984,471.48682,108.8031Z"/><path class="cls-17" d="M535.24346,208.54547l-43.00267-7.17637a1.00265,1.00265,0,0,1-.81554-1.26021l15.24042-59.03962a1.23832,1.23832,0,0,1,1.37184-.89525l43.00267,7.17637a1.00242,1.00242,0,0,1,.81536,1.26021L536.6153,207.65022A1.23832,1.23832,0,0,1,535.24346,208.54547Z"/><path class="cls-36" d="M539.59866,149.51138l-22.1343-3.69372a1.00255,1.00255,0,0,1-.81554-1.26021l1.30689-5.06262a1.23814,1.23814,0,0,1,1.37184-.89524L541.462,142.2935a1.00234,1.00234,0,0,1,.81535,1.26021l-1.30671,5.06261A1.2385,1.2385,0,0,1,539.59866,149.51138Z"/><path class="cls-37" d="M519.06,173.18044s-4.45336,21.77469-17.51433,30.71111l-9.10838-1.203Z"/><path class="cls-18" d="M490.89165,174.41021a7.09157,7.09157,0,0,1,1.7106-3.7214c1.01961-.93935,2.91693-1.04636,3.62767.14428.60649,1.01629.32566,2.73224,1.46132,3.066a1.884,1.884,0,0,0,1.08807-.105c4.39357-1.4045,7.59539-5.11631,11.47824-7.6061,1.75414-1.125,3.93562-2.023,5.88147-1.27718a5.10561,5.10561,0,0,1,2.89959,3.54648,11.52673,11.52673,0,0,1,.0214,4.72311A32.59855,32.59855,0,0,1,506.20919,194.147a6.39289,6.39289,0,0,1-2.49422,1.25855,7.06273,7.06273,0,0,1-2.72209-.203,22.35834,22.35834,0,0,1-5.20819-1.5414,12.58505,12.58505,0,0,1-6.47043-8.56832C488.33285,180.93267,489.9702,178.2759,490.89165,174.41021Z"/><path class="cls-32" d="M489.81872,177.715l-30.68859,22.21327L438.3267,167.07184a12.57268,12.57268,0,1,0-21.24533,13.45085l27.961,44.16029a12.57133,12.57133,0,0,0,17.99461,3.45847l41.52566-30.0583C499.7764,186.599,489.81872,177.715,489.81872,177.715Z"/><path class="cls-38" d="M419.46987,184.295l25.57248,40.388s6.87395,10.1446,17.99461,3.45847l13.87042-10.04016"/><polyline class="cls-38" points="476.907 187.06 459.13 199.928 442.941 174.36"/><path class="cls-39" d="M437.49308,135.89041l9.81543,11.05239s3.94042,5.99034,19.18674.631"/><path class="cls-40" d="M431.43928,128.35425s-4.83382-28.526,18.34518-28.72393c0,0-14.983,2.43887-14.15143,29.11823Z"/><path class="cls-27" d="M440.11111,133.34269a6.43861,6.43861,0,1,1-6.4387-6.4387A6.43855,6.43855,0,0,1,440.11111,133.34269Z"/><circle class="cls-7" cx="939.68787" cy="95.01031" r="80.82432" transform="translate(627.30344 986.33304) rotate(-76.45928)"/><path class="cls-41" d="M883.26429,47.9215a21.91284,21.91284,0,0,1,3.231-6.09c1.92519-2.85494,4.09817-5.90029,7.38763-6.91824a10.311,10.311,0,0,1,4.07364-.31312,10.06693,10.06693,0,0,1,5.71024,2.24107,10.78662,10.78662,0,0,1,2.97819,5.2534,15.14761,15.14761,0,0,1,.61516,4.34043,12.52145,12.52145,0,0,1-9.79605,11.70851,18.9911,18.9911,0,0,1-6.53354-.07712c-2.23551-.34411-5.52942-.94913-6.84517-3.03982A9.461,9.461,0,0,1,883.26429,47.9215Z"/><path class="cls-40" d="M892.09662,30.573h13.60749a.72005.72005,0,0,1,.72005.72005V56.70759a.72012.72012,0,0,1-.72012.72012H892.0966a.72007.72007,0,0,1-.72007-.72007V31.2931A.72009.72009,0,0,1,892.09662,30.573Z" transform="translate(285.46339 -614.52296) rotate(44.22774)"/><rect class="cls-42" x="893.89456" y="32.24831" width="12.39333" height="21.12079" transform="translate(284.97178 -615.69328) rotate(44.22792)"/><path class="cls-18" d="M900.97476,60.99687a23.82136,23.82136,0,0,0,7.95758-4.84378,7.31483,7.31483,0,0,0,1.9394-2.94018,6.80328,6.80328,0,0,0-.15628-3.94983c-1.06279-3.47305-4.15425-6.44552-7.78083-6.64553a3.97959,3.97959,0,0,0-2.01117.33415,3.42666,3.42666,0,0,0-1.71484,2.9745,6.5809,6.5809,0,0,0,1.01591,3.41087.6544.6544,0,0,1,.12806.531.63045.63045,0,0,1-.33655.29393,54.61794,54.61794,0,0,0-5.84659,3.11049,10.37817,10.37817,0,0,0-4.19228,4.98419c-.65409,1.88958-.222,5.37462,2.29384,5.50193C894.91857,63.8924,898.57039,61.98364,900.97476,60.99687Z"/><path class="cls-19" d="M910.87174,53.21291a6.80478,6.80478,0,0,0-.15628-3.94983,9.51336,9.51336,0,0,0-6.3612-6.41489c-.631,3.44261-1.06666,9.6514,2.1907,15.23212a16.70656,16.70656,0,0,0,2.38738-1.9274A7.31125,7.31125,0,0,0,910.87174,53.21291Z"/><path class="cls-4" d="M927.07309,78.49423a12.57485,12.57485,0,0,0-16.06721-7.61108L892.99412,77.3152,901.386,61.62808s-7.7847-7.68063-22.17212-11.86147L855.45222,94.18245a12.57118,12.57118,0,0,0,15.31348,17.77044l48.695-17.39034A12.57,12.57,0,0,0,927.07309,78.49423Z"/><path class="cls-43" d="M927.07309,78.49423A12.5748,12.5748,0,0,0,911.00588,70.883L901.255,74.36506c-.86905,6.68206-3.09222,19.003-8.39876,29.69869l26.60445-9.5012A12.57018,12.57018,0,0,0,927.07309,78.49423Z"/><path class="cls-4" d="M900.21549,89.96527l6.0717,78.57269s17.74331,9.66173,42.78735,6.7496c25.04441-2.91214,30.52992-13.97874,30.52992-13.97874s-4.3266-77.096-5.05505-77.85955c-.72826-.76351-3.69114-26.09612-39.92743-20.92133C898.38588,67.70255,900.21549,89.96527,900.21549,89.96527Z"/><path class="cls-43" d="M979.60446,161.30882s-4.3266-77.096-5.05505-77.85955c-.15111-.1585-.40426-1.38365-1.025-3.16584l-20.7477,6.82229s26.38175,29.9369,24.03938,77.59552A14.33807,14.33807,0,0,0,979.60446,161.30882Z"/><path class="cls-18" d="M1002.27845,169.50056a9.72773,9.72773,0,0,1-2.09051,4.11072c-1.10983,1.10522-3.00623,1.61336-4.23672.70852-.639-.46977-1.06907-1.27442-1.85638-1.43457-.99082-.20186-1.83865.71811-2.76527,1.15891a3.84481,3.84481,0,0,1-4.73565-1.72887c-.30185-.52106-.54616-1.14231-1.10116-1.39379-1.23-.55686-2.718,1.17293-3.93728.59467-.93363-.443-.91278-1.9167-1.83384-2.38406a7.27319,7.27319,0,0,0-1.668-.24983,2.30512,2.30512,0,0,1-1.59786-2.07962,6.98184,6.98184,0,0,1,.48026-2.764q.67394-2.12778,1.34785-4.25574a7.0409,7.0409,0,0,1,1.10172-2.38425c1.20541-1.48292,3.34057-1.77537,5.24564-1.868a30.56672,30.56672,0,0,1,10.795,1.06223,14.56444,14.56444,0,0,1,7.3583,4.91869C1004.3625,163.69307,1003.03938,167.10118,1002.27845,169.50056Z"/><polygon class="cls-18" points="942.996 40.466 942.996 62.266 932.951 71.413 923.195 65.468 923.195 52.357 942.996 40.466"/><path class="cls-19" d="M940.27448,51.45932l-17.07981,5.65821v6.97839C932.72521,62.82335,940.27448,51.45932,940.27448,51.45932Z"/><path class="cls-18" d="M913.57738,7.42744H935.4082a7.58781,7.58781,0,0,1,7.58781,7.58781V52.75147a7.5878,7.5878,0,0,1-7.5878,7.5878H913.57738a7.5878,7.5878,0,0,1-7.5878-7.5878V15.01524A7.5878,7.5878,0,0,1,913.57738,7.42744Z"/><path class="cls-18" d="M923.19467,65.46794s-1.38715,6.45807,9.75675,5.9455c11.14409-.51258,10.04459-10.073,10.04459-10.073Z"/><path class="cls-13" d="M905.09066,19.34408s18.74482,11.24926,27.99215,0c0,0-1.32351,19.08932,10.60475,18.612,0,0,9.11595-31.1222-12.51-31.801C931.17753,6.15506,903.15106-3.54266,905.09066,19.34408Z"/><circle class="cls-18" cx="940.27448" cy="37.95607" r="4.53565"/><path class="cls-44" d="M892.99412,77.3152s-13.95421,4.58768-18.38948,12.17311"/><path class="cls-4" d="M978.88653,157.93375s13.55714,6.74646,24.56744,5.36447c12.96153-59.3579-36.77524-94.68529-38.89767-96.16027A12.5727,12.5727,0,0,0,950.211,87.78989C950.59436,88.05522,988.30286,114.81853,978.88653,157.93375Z"/><polygon class="cls-13" points="930.785 74.528 927.714 81.226 931.735 85.246 935.739 85.246 939.902 81.226 934.666 74.528 930.785 74.528"/><path class="cls-13" d="M931.73457,85.24622v75.4l8.53991,7.9467,5.32037-8.87073-9.856-74.476S934.34743,81.91986,931.73457,85.24622Z"/><path class="cls-44" d="M918.2293,68.5323s-.50114,10.81252,7.662,16.32626c0,0,3.59519-7.66181,5.84327-11.88656"/><path class="cls-44" d="M933.80811,73.18677l7.83655,10.58115s9.45212-7.05145,7.94836-18.87713"/><path class="cls-44" d="M943.0259,97.867l14.34462-1.65783s3.15477,10.86862-4.59377,11.974C945.02805,109.28837,944.15548,103.57775,943.0259,97.867Z"/><path class="cls-45" d="M820.14153,289.12988H939.59575a3.37351,3.37351,0,0,1,3.37351,3.37351v31.35634a3.37351,3.37351,0,0,1-3.37351,3.37351H820.14153a3.3735,3.3735,0,0,1-3.3735-3.3735V292.50338A3.3735,3.3735,0,0,1,820.14153,289.12988Z"/><path class="cls-36" d="M822.46112,293.2668h9.48421a.4135.4135,0,0,1,.4135.4135v9.48439a.4135.4135,0,0,1-.4135.4135H822.461a.4134.4134,0,0,1-.4134-.4134V293.6803A.4135.4135,0,0,1,822.46112,293.2668Z"/><line class="cls-46" x1="836.81772" y1="294.44509" x2="913.05266" y2="294.44509"/><line class="cls-46" x1="836.81772" y1="298.42241" x2="870.01493" y2="298.42241"/><line class="cls-46" x1="836.81772" y1="302.39991" x2="902.38959" y2="302.39991"/><line class="cls-46" x1="821.40128" y1="309.22552" x2="937.20495" y2="309.22552"/><line class="cls-46" x1="821.40128" y1="314.22946" x2="929.11138" y2="314.22946"/><line class="cls-46" x1="821.40128" y1="319.23339" x2="910.09771" y2="319.23339"/><rect class="cls-45" x="830.88717" y="453.72877" width="126.20123" height="38.10354" rx="3.3735"/><path class="cls-36" d="M836.58027,457.86587h9.48421a.4135.4135,0,0,1,.4135.4135v9.48431a.4134.4134,0,0,1-.4134.4134h-9.48441a.4134.4134,0,0,1-.4134-.4134v-9.48431A.4135.4135,0,0,1,836.58027,457.86587Z"/><line class="cls-46" x1="850.93687" y1="459.04397" x2="927.1718" y2="459.04397"/><line class="cls-46" x1="850.93687" y1="463.02147" x2="884.13407" y2="463.02147"/><line class="cls-46" x1="850.93687" y1="466.99898" x2="916.50873" y2="466.99898"/><line class="cls-46" x1="835.52043" y1="473.82459" x2="951.3241" y2="473.82459"/><line class="cls-46" x1="835.52043" y1="478.82853" x2="943.23053" y2="478.82853"/><line class="cls-46" x1="835.52043" y1="483.83246" x2="924.21686" y2="483.83246"/><rect class="cls-45" x="714.97021" y="75.13834" width="126.20142" height="38.10354" rx="3.3735"/><path class="cls-36" d="M720.66331,79.27545h9.48439a.4135.4135,0,0,1,.4135.4135v9.48431a.4134.4134,0,0,1-.4134.4134h-9.48449a.4135.4135,0,0,1-.4135-.4135V79.68895A.4135.4135,0,0,1,720.66331,79.27545Z"/><line class="cls-46" x1="735.01991" y1="80.45355" x2="811.25484" y2="80.45355"/><line class="cls-46" x1="735.01991" y1="84.43105" x2="768.2173" y2="84.43105"/><line class="cls-46" x1="735.01991" y1="88.40855" x2="800.59177" y2="88.40855"/><line class="cls-46" x1="719.60346" y1="95.23417" x2="835.40732" y2="95.23417"/><line class="cls-46" x1="719.60346" y1="100.2381" x2="827.31356" y2="100.2381"/><line class="cls-46" x1="719.60346" y1="105.24204" x2="808.30008" y2="105.24204"/><rect class="cls-45" x="450.77565" y="284.35824" width="126.20123" height="38.10354" rx="3.3735"/><path class="cls-36" d="M456.46865,288.49535H465.953a.4135.4135,0,0,1,.4135.4135v9.48421a.4135.4135,0,0,1-.4135.4135h-9.48431a.4134.4134,0,0,1-.4134-.4134v-9.48441A.4134.4134,0,0,1,456.46865,288.49535Z"/><line class="cls-46" x1="470.82516" y1="289.67364" x2="547.0601" y2="289.67364"/><line class="cls-46" x1="470.82516" y1="293.65095" x2="504.02255" y2="293.65095"/><line class="cls-46" x1="470.82516" y1="297.62846" x2="536.39703" y2="297.62846"/><line class="cls-46" x1="455.40872" y1="304.45407" x2="571.21258" y2="304.45407"/><line class="cls-46" x1="455.40872" y1="309.45801" x2="563.11901" y2="309.45801"/><line class="cls-46" x1="455.40872" y1="314.46194" x2="544.10534" y2="314.46194"/></g></g></svg>