<svg xmlns="http://www.w3.org/2000/svg" xmlns:xlink="http://www.w3.org/1999/xlink" viewBox="0 0 1528 642"><defs><style>.cls-1{fill:none;}.cls-2{isolation:isolate;}.cls-3{fill:#f7f7f7;}.cls-4{fill:#e8e8e8;}.cls-5{clip-path:url(#clip-path);}.cls-6{fill:#fdb605;}.cls-7{fill:#df5604;}.cls-8{fill:#f59b20;}.cls-9{fill:#373660;}.cls-10{fill:#c88060;}.cls-11{fill:#ffa648;}.cls-12,.cls-21{opacity:0.35;mix-blend-mode:soft-light;}.cls-13{fill:#5c3530;}.cls-14{fill:#a15434;}.cls-15{fill:#fff;}.cls-16{fill:#3b2724;}.cls-17{fill:#b24914;}.cls-18{fill:#cc8527;}.cls-19{fill:#ed9f8c;}.cls-20{opacity:0.21;mix-blend-mode:multiply;}.cls-22{fill:#b55e40;}.cls-23{fill:#e58d71;}</style><clipPath id="clip-path"><rect class="cls-1" width="1528" height="641.06585"/></clipPath></defs><title>happy-ending</title><g class="cls-2"><g id="BACKGROUND"><rect class="cls-3" width="1528" height="642"/></g><g id="OBJECTS"><path class="cls-4" d="M144.39924,172.41236c-2.7732-12.01742-9.67277-7.89324-21.228-11.59088-11.54876-3.69562-8.17114-16.88454-15.34148-20.95319-9.55979-5.42458-18.33787-.38932-24.28508,6.73043-9.881,11.82923-16.64138,2.20929-28.453,7.00344-6.76674,2.74651-3.88015,6.59407-13.03382,8.14317-6.39554,1.08233-13.31832-1.46625-19.62226.09142-4.66809,1.15392-8.05487,3.17781-9.08776,7.30679q1.977.8498,4.08921,1.5411c17.64771,5.80836,41.7225,3.869,59.55964,4.72512C83.07741,175.70163,146.36472,180.92929,144.39924,172.41236Z"/><path class="cls-4" d="M441.54381,36.02839a12.27552,12.27552,0,0,0-11.98761-3.76c-4.83083,1.1031-7.56136,5.31874-12.057,7.00449-7.84444,2.94128-18.69237-2.8702-24.64988,4.712-7.28651,9.27379-12.917,2.31846-12.917,8.61136s50.34329,1.656,75.18387,1.98723c3.58869.04783,19.16949-.19089,12.46254-6.99259-2.08281-2.1122-5.05472-2.466-7.82494-2.96029-3.61222-.64443-12.201-.9981-14.81716-3.564-1.40825-1.38106-1.94991-3.36554-3.22184-4.84369Q441.63008,36.12464,441.54381,36.02839Z"/><path class="cls-4" d="M176.81936,54.54291a12.27555,12.27555,0,0,0-11.98761-3.76c-4.83083,1.10311-7.56136,5.31875-12.057,7.00449-7.84444,2.94129-18.69237-2.87019-24.64988,4.712-7.28651,9.27379-12.917,2.31846-12.917,8.61137s50.34329,1.656,75.18387,1.98722c3.58869.04784,19.16949-.19088,12.46254-6.99259-2.08281-2.11219-5.05472-2.466-7.82494-2.96028-3.61222-.64444-12.201-.9981-14.81716-3.564-1.40825-1.38106-1.94991-3.36554-3.22184-4.84369Q176.90563,54.63916,176.81936,54.54291Z"/><path class="cls-4" d="M1342.614,242.25523c2.7732-12.01742,9.67277-7.89323,21.228-11.59088,11.54876-3.69562,8.17114-16.88453,15.34148-20.95319,9.55979-5.42458,18.33787-.38932,24.28508,6.73043,9.881,11.82923,16.64138,2.20929,28.453,7.00344,6.76674,2.74651,3.88015,6.59407,13.03382,8.14317,6.39554,1.08233,13.31832-1.46624,19.62226.09142,4.66809,1.15392,8.05487,3.17781,9.08776,7.3068q-1.977.84978-4.08921,1.54109c-17.64771,5.80837-41.7225,3.869-59.55964,4.72512C1403.93584,245.5445,1340.64853,250.77216,1342.614,242.25523Z"/><path class="cls-4" d="M1045.46944,105.87126a12.27552,12.27552,0,0,1,11.98761-3.76c4.83083,1.10311,7.56136,5.31875,12.057,7.00449,7.84444,2.94129,18.69237-2.8702,24.64988,4.712,7.28651,9.27379,12.917,2.31846,12.917,8.61136s-50.34329,1.656-75.18387,1.98723c-3.58869.04783-19.16949-.19089-12.46254-6.99259,2.08281-2.11219,5.05472-2.466,7.82494-2.96029,3.61222-.64443,12.201-.99809,14.81716-3.564,1.40825-1.38106,1.94991-3.36554,3.22184-4.84369Q1045.38318,105.96751,1045.46944,105.87126Z"/><path class="cls-4" d="M1310.19389,124.38578a12.27557,12.27557,0,0,1,11.98761-3.76c4.83083,1.10311,7.56136,5.31875,12.057,7.00449,7.84444,2.94129,18.69237-2.87019,24.64988,4.712,7.28651,9.27379,12.917,2.31846,12.917,8.61137s-50.34329,1.656-75.18387,1.98722c-3.58869.04784-19.16949-.19088-12.46254-6.99259,2.08281-2.11219,5.05472-2.466,7.82494-2.96028,3.61222-.64443,12.201-.9981,14.81716-3.564,1.40825-1.38106,1.94991-3.36553,3.22184-4.84368Q1310.10764,124.482,1310.19389,124.38578Z"/><g class="cls-5"><path class="cls-6" d="M549.14769,97.93484c-.81761-1.98576-2.91247-3.17725-4.42245-4.75145a44.07515,44.07515,0,0,1-4.06436-5.29,1.75742,1.75742,0,0,0-3.19815,1.24123,18.78115,18.78115,0,0,0,3.09981,6.603c1.29995,1.83294,3.16071,4.46349,5.59048,4.9539C547.80145,101.02414,549.84979,99.64,549.14769,97.93484Z"/><path class="cls-6" d="M619.89726,101.4634a24.22724,24.22724,0,0,0-2.88506-3.676,9.7034,9.7034,0,0,0-3.2102-2.937,1.36727,1.36727,0,0,0-2.02243,1.06827,8.718,8.718,0,0,0,1.30034,3.96179,22.48037,22.48037,0,0,0,2.19706,4.06884C617.24748,106.52012,621.48851,104.319,619.89726,101.4634Z"/><path class="cls-6" d="M604.33385,87.1207a24.22724,24.22724,0,0,0-2.88506-3.676,9.70351,9.70351,0,0,0-3.2102-2.937,1.36728,1.36728,0,0,0-2.02243,1.06828,8.718,8.718,0,0,0,1.30033,3.96178,22.47955,22.47955,0,0,0,2.19707,4.06885C601.68406,92.17743,605.9251,89.97627,604.33385,87.1207Z"/><path class="cls-6" d="M641.67839,93.98344c-.78571-.7012-1.62282-1.35842-2.414-2.05564-1.3756-1.21213-2.45208-2.91877-4.24424-3.597a1.13117,1.13117,0,0,0-1.37265.71735c-.32028,1.916,1.06609,3.78588,2.10667,5.37277,1.22651,1.87038,2.72991,4.2763,5.42136,3.8137a2.02474,2.02474,0,0,0,1.5233-1.40213A2.684,2.684,0,0,0,641.67839,93.98344Z"/><path class="cls-6" d="M617.34517,80.1168c.88724.7171,1.70947,1.63344,2.44529,2.31066,1.49317,1.35457,3.8519,2.68914,4.39284,4.62131a2.2755,2.2755,0,0,1-2.878,2.64927c-2.25068-.498-3.85206-3.0675-5.04214-4.78068-.95224-1.37445-2.25063-3.10738-2.27232-4.80056Z"/><path class="cls-6" d="M597.23084,104.21844c-.512-1.799-2.32361-3.25751-3.6169-4.64439a22.07029,22.07029,0,0,0-4.27257-3.83127,1.00515,1.00515,0,0,0-1.49022,1.05455,20.6717,20.6717,0,0,0,2.53887,5.0666c1.01635,1.64716,1.87615,3.55792,3.59984,4.64786A2.1858,2.1858,0,0,0,597.23084,104.21844Z"/><path class="cls-6" d="M582.78031,113.40748c-.873-1.56-2.7176-2.69273-3.91845-4.07128-1.05583-1.21174-1.90832-2.9057-3.45942-3.64344a1.07523,1.07523,0,0,0-1.38793.335c-.86326,1.80485.02026,3.78049.88148,5.45354.904,1.75614,2.44668,4.27732,4.45693,5.081C581.60216,117.46145,584.00244,115.59172,582.78031,113.40748Z"/><path class="cls-6" d="M566.21274,140.85612a13.88729,13.88729,0,0,0-2.57183-4.94826,10.29989,10.29989,0,0,0-3.8215-3.50739c-.64852-.2722-1.69718.03077-1.60267.84646a21.13717,21.13717,0,0,0,1.37815,4.231c.5267,1.55087.87992,3.15148,1.43368,4.69389C562.11069,145.186,567.0133,143.97376,566.21274,140.85612Z"/><path class="cls-6" d="M565.78322,117.783a24.37441,24.37441,0,0,0-7.9705-7.98627c-.81016-.52619-1.52791.45926-1.21443,1.11789,1.39152,2.92249,2.59734,5.957,3.85449,8.937C561.98734,123.489,567.831,121.17643,565.78322,117.783Z"/><path class="cls-6" d="M591.10507,139.07742c-2.49221-2.54977-4.76876-5.368-7.34675-7.825-.74325-.70824-2.43989-.2245-2.29437.87493.51349,3.88063,2.90146,7.72049,5.62446,10.64734C589.4574,145.321,593.557,141.58579,591.10507,139.07742Z"/><path class="cls-6" d="M617.51736,133.56182c-.35181-2.14488-3.49509-3.63907-5.2452-4.89915a44.09039,44.09039,0,0,0-6.01512-3.94333,1.13161,1.13161,0,0,0-1.59587,1.46907,25.63561,25.63561,0,0,0,4.4149,5.871c1.61176,1.73434,3.45457,4.27719,6.11833,4.30937A2.29889,2.29889,0,0,0,617.51736,133.56182Z"/><path class="cls-6" d="M620.1824,160.28824c-3.15789-2.91852-6.22359-5.91781-9.43416-8.77888-.82056-.73133-2.57067-.00359-2.07694,1.11289a41.03547,41.03547,0,0,0,7.63778,11.23121C618.57576,166.30234,622.69846,162.61364,620.1824,160.28824Z"/><path class="cls-6" d="M645.412,136.09352c-1.34357-1.37483-2.81007-2.63478-4.25491-3.91807a26.47189,26.47189,0,0,0-4.35681-3.43829c-1.119-.63491-2.92326.44426-2.38425,1.68716,1.48291,3.41893,4.30245,6.68913,6.75427,9.57355C643.50194,142.74086,648.03659,138.7792,645.412,136.09352Z"/><path class="cls-6" d="M649.9544,118.34292c-2.51106-2.69068-5.73716-6.49887-9.60189-7.49983A1.08251,1.08251,0,0,0,638.98,112.1065a17.62485,17.62485,0,0,0,2.93506,4.64362q1.79012,2.399,3.33957,4.9307C647.31436,125.05244,652.87343,121.47081,649.9544,118.34292Z"/><path class="cls-6" d="M578.827,91.17929c-2.51108-2.69068-5.73717-6.49887-9.60188-7.49983a1.08253,1.08253,0,0,0-1.37255,1.26341,17.62506,17.62506,0,0,0,2.93506,4.64363q1.79012,2.399,3.33957,4.93069C576.187,97.88881,581.746,94.30718,578.827,91.17929Z"/><path class="cls-6" d="M673.19575,109.0049c-1.12187-1.92705-3.77039-3.215-5.69064-4.45028-1.84178-1.185-3.92293-2.80428-6.16192-3.21367-.9975-.18232-2.23155.62081-1.80922,1.66549.83313,2.0609,2.80236,3.65305,4.42618,5.21661,1.76575,1.70049,3.57163,3.84088,6.02794,4.62247A2.71,2.71,0,0,0,673.19575,109.0049Z"/><path class="cls-6" d="M691.13313,98.2346a32.82732,32.82732,0,0,0-5.22712-4.1591c-1.68062-1.18982-3.35765-2.56914-5.44534-3.08584a1.37815,1.37815,0,0,0-1.74678,1.60818c.62389,1.89127,2.13847,3.39175,3.47612,4.89351a31.86616,31.86616,0,0,0,4.67542,4.67171C689.88421,104.3705,693.68483,101.00632,691.13313,98.2346Z"/><path class="cls-6" d="M662.77,91.26237c-.72992-1.47778-2.78351-2.45092-4.165-3.41406a11.12945,11.12945,0,0,0-4.44015-2.26963c-1.15571-.17886-2.32438.644-1.96538,1.80909.49121,1.59331,1.85268,2.86762,3.07045,4.04577,1.3438,1.29982,2.558,2.898,4.46438,3.46368A2.56911,2.56911,0,0,0,662.77,91.26237Z"/><path class="cls-6" d="M593.46073,158.14811c-1.51048-1.85909-3.62946-4.37464-6.25809-4.78979-1.17994-.1863-2.16706.62568-1.90281,1.75165.49516,2.1091,2.40349,4.00268,3.45932,5.92383,1.07135,1.94948,1.76242,4.78825,4.25437,5.46355a2.4861,2.4861,0,0,0,2.63478-.987C597.2934,163.26458,594.967,160.00207,593.46073,158.14811Z"/><path class="cls-6" d="M646.86846,160.14592A29.825,29.825,0,0,0,641.183,155.791a17.17057,17.17057,0,0,0-6.31975-2.88185c-1.30368-.22886-2.57606.99339-1.80422,2.16039a23.36924,23.36924,0,0,0,4.47336,4.52362c1.68741,1.46393,3.28649,3.12968,5.10416,4.4481C645.63105,166.21323,649.41539,162.89328,646.86846,160.14592Z"/><path class="cls-6" d="M674.0504,137.90786a24.47964,24.47964,0,0,0-5.26174-3.326c-1.861-.93672-3.61008-2.07346-5.518-2.92813-1.71293-.76735-3.21072,1.049-1.99756,2.3831,1.36457,1.50022,2.98762,2.79107,4.4272,4.22962a23.72324,23.72324,0,0,0,4.7853,3.89422C673.32843,143.78067,676.44311,140.05518,674.0504,137.90786Z"/><path class="cls-6" d="M668.95367,157.84809c-2.21066-1.612-4.56824-3.57651-7.20648-4.53631-1.3415-.48785-2.10924,1.04711-1.661,1.98884,1.10455,2.32053,3.52586,4.43,5.42906,6.22334,1.78921,1.68587,4.005,4.737,6.90722,3.85345a2.159,2.159,0,0,0,1.57638-1.451C674.52825,160.84071,671.25407,159.52563,668.95367,157.84809Z"/><path class="cls-6" d="M1058.95,455.12664c-3.06994-.37618-6.19834,2.30438-8.65334,3.7846-2.82918,1.70587-6.10066,3.43227-8.36516,5.75254a1.38124,1.38124,0,0,0,1.43085,2.263c3.45779-.8589,6.79222-2.88069,9.86537-4.5399,2.66965-1.44137,6.18051-2.58234,7.23853-5.42816C1060.8347,455.96734,1059.88554,455.24126,1058.95,455.12664Z"/><path class="cls-6" d="M1075.52,457.40563c-5.18189,2.25681-11.49767,4.60452-15.76025,8.20282a.65436.65436,0,0,0,.50221,1.11584c5.96987-.59721,12.11012-3.47727,17.58752-5.65022C1080.53735,460.00772,1078.22274,456.22851,1075.52,457.40563Z"/><path class="cls-6" d="M1085.27264,442.672c-2.25886-.51169-3.83883,1.382-5.53906,2.512a60.20477,60.20477,0,0,1-5.96832,3.44265.767.767,0,0,0,.42246,1.43547,26.34236,26.34236,0,0,0,7.26379-1.72c2.03782-.80261,5.03073-1.83152,5.0498-4.18449A1.58991,1.58991,0,0,0,1085.27264,442.672Z"/><path class="cls-6" d="M1104.81092,448.3866c-2.77992.375-5.51727,2.26515-7.89331,3.58074-2.02564,1.12161-4.80364,2.28591-5.887,4.30309a.53126.53126,0,0,0,.34848.78877c2.385.40874,4.90493-.82044,7.09019-1.64421,2.77556-1.0466,6.17064-1.94,8.31555-3.90716C1108.34883,450.07325,1106.68629,448.13351,1104.81092,448.3866Z"/><path class="cls-6" d="M1109.4339,459.32191a41.432,41.432,0,0,0-6.94553,3.34918c-2.13414,1.14738-4.52878,2.21655-6.24042,3.88024a1.26406,1.26406,0,0,0,.96839,2.1518,28.16734,28.16734,0,0,0,7.07429-2.09679,42.44773,42.44773,0,0,0,7.13647-2.93275A2.40693,2.40693,0,0,0,1109.4339,459.32191Z"/><path class="cls-6" d="M1085.60228,474.76531c-1.95935.30874-3.69369,2.13321-5.25174,3.20956-1.35611.937-3.14956,1.77755-4.1141,3.0766a.4379.4379,0,0,0,.28784.65158c1.74882.53081,4.25616-.15039,5.93344-.68466,2.01911-.64311,4.61388-1.41239,5.66485-3.23545C1089.09122,476.10257,1087.50227,474.46593,1085.60228,474.76531Z"/><path class="cls-6" d="M1060.93663,473.66563c-2.81889.30412-5.028,1.91563-7.51288,3.10634-2.69289,1.29034-5.69166,2.18809-8.14784,3.84614a1.18693,1.18693,0,0,0,.65273,2.21848c3.22571.1209,6.36181-1.00789,9.32856-2.06129,2.78707-.9898,5.718-1.85024,7.5625-4.089C1063.77271,475.52972,1062.49827,473.497,1060.93663,473.66563Z"/><path class="cls-6" d="M1069.90335,490.65272c-2.73158-.159-5.20341,1.67177-7.51124,2.84479-2.37156,1.20533-5.19815,2.30284-6.91723,4.28424a1.12614,1.12614,0,0,0,.86059,1.91269c2.90234.041,5.75123-1.36393,8.40037-2.33887,2.588-.95236,5.37188-1.53817,7.0506-3.68215C1072.82661,492.34513,1071.39652,490.73952,1069.90335,490.65272Z"/><path class="cls-6" d="M1090.5531,495.86574c-2.705-.1595-5.38585,1.49483-7.72805,2.60477-2.41527,1.14456-5.052,2.29284-6.81888,4.24245a.8213.8213,0,0,0,.6276,1.3947c2.754.23874,5.5274-.66376,8.12333-1.41855,2.5199-.73274,5.64535-1.288,7.44559-3.15737C1093.57932,498.10254,1092.60785,495.98677,1090.5531,495.86574Z"/><path class="cls-6" d="M1105.19825,481.252a3.18192,3.18192,0,0,0-.63747-1.007,2.65237,2.65237,0,0,0-3.004-.35669,37.50557,37.50557,0,0,1-8.54823,3.523,1.41881,1.41881,0,0,0,.41134,2.797,34.45476,34.45476,0,0,0,10.63913-2.37951A2.20538,2.20538,0,0,0,1105.19825,481.252Z"/><path class="cls-6" d="M1128.53331,480.92044c-2.327.346-4.72389,2.356-6.74,3.50342-2.06408,1.17457-4.27476,2.22271-5.862,3.94961a.734.734,0,0,0,.3581,1.24841c2.69043.577,5.35957-.15308,7.87476-1.06058,2.535-.9148,5.75994-2.0282,7.20439-4.246C1132.5933,482.43451,1130.57933,480.61619,1128.53331,480.92044Z"/><path class="cls-6" d="M1131.89211,463.23933c-2.33964-.38823-3.66818.87031-5.47266,2.03423a48.2942,48.2942,0,0,1-5.52432,3.13494c-1.6151.76454-.48169,3.04455,1.21149,2.6453a45.96849,45.96849,0,0,0,6.3686-1.91654c1.94439-.76825,4.3471-1.56343,4.76287-3.71561A1.78832,1.78832,0,0,0,1131.89211,463.23933Z"/><path class="cls-6" d="M1131.01013,439.4781c-2.22-.54158-3.98936.8171-5.86614,1.76088-1.66584.83774-3.63343,1.65856-4.7503,3.10147-.76953.99442.303,2.06462,1.35765,2.17783,1.7964.19283,3.90653-.72363,5.59446-1.26277,1.85588-.59311,4.08692-.89993,5.05865-2.62273A2.12712,2.12712,0,0,0,1131.01013,439.4781Z"/><path class="cls-7" d="M1191.9157,412.11715s22.14859-63.374,12.26269-64.15684-12.33783,49.2436-12.33783,49.2436-6.24729-51.07308-15.73945-48.96359c-9.492,2.10949,8.79774,51.91211,8.79774,51.91211s-28.29409-45.51619-37.21452-43.07527S1173.95059,405.7947,1191.9157,412.11715Z"/><path class="cls-8" d="M1251.18928,659.717l-2.45938.54657c-15.3025-104.33244-59.87388-250.25249-60.333-251.73758a1.25739,1.25739,0,1,1,2.40322-.74056C1191.25924,409.27056,1235.83063,555.19061,1251.18928,659.717Z"/><path class="cls-8" d="M1183.39478,407.241s3.89475,10.90055,8.29052,9.901c4.39553-.99955,2.86248-12.37962,2.86248-12.37962Z"/><path class="cls-8" d="M1200.77817,448.3975s2.55811-37.52479,27.059-46.13058C1227.83718,402.26692,1226.58672,431.72094,1200.77817,448.3975Z"/><path class="cls-8" d="M1216.90778,506.98861s-22.20576-31.292-48.18264-25.762C1168.72514,481.22661,1187.19337,513.83545,1216.90778,506.98861Z"/><path class="cls-8" d="M1217.24985,506.91374c-1.41176.58491-6.25114-30.94066,21.22415-49.93275C1238.474,456.981,1241.34815,496.93183,1217.24985,506.91374Z"/><path class="cls-8" d="M1201.47694,447.69759s-16.75413-29.34274-40.39728-31.13926C1161.07966,416.55833,1172.08843,448.87984,1201.47694,447.69759Z"/><path class="cls-8" d="M1230.48455,561.35408s1.31531-23.8715,21.972-35.51313C1252.45654,525.841,1252.9258,557.821,1230.48455,561.35408Z"/><path class="cls-8" d="M1230.48455,561.35408s-17.26508-31.41262-44.76373-27.97586C1185.72082,533.37822,1201.1723,568.59325,1230.48455,561.35408Z"/><path class="cls-8" d="M1241.0948,609.92828s-23.00272-29.20043-50.88947-21.9051C1190.20533,588.02318,1212.95419,621.12449,1241.0948,609.92828Z"/><path class="cls-8" d="M1241.11673,610.02662s-3.24918-30.29665,22.04551-41.95674C1263.16224,568.06988,1270.06047,601.6743,1241.11673,610.02662Z"/><path class="cls-8" d="M1248.73618,651.99976s-12.10832-16.54745-40.04866-15.27891C1208.68752,636.72085,1220.774,659.61088,1248.73618,651.99976Z"/><path class="cls-8" d="M1248.73618,651.99976s-1.4106-23.04221,19.01683-34.44421C1267.753,617.55555,1276.75412,647.17,1248.73618,651.99976Z"/><path class="cls-7" d="M1201.92466,445.1155l6.67106-10.21666c2.18872-3.42317,4.41617-6.818,6.53989-10.27667,2.14232-3.44586,4.25014-6.91326,6.26488-10.43348,1.00391-1.76114,2.00718-3.52766,2.9239-5.33636.46632-.90044.97276-1.78473,1.40778-2.70184q.6489-1.3768,1.33678-2.74389a82.96827,82.96827,0,0,1-4.8643,11.218c-1.83794,3.64586-3.93089,7.15006-6.06038,10.62579q-3.23829,5.18782-6.79581,10.16064C1206.97626,438.72267,1204.543,441.99172,1201.92466,445.1155Z"/><path class="cls-7" d="M1162.69312,417.7134c1.35929,1.278,2.69937,2.56913,4.07589,3.8228q2.02836,1.91608,4.097,3.785c2.75774,2.49106,5.53163,4.95955,8.38937,7.3229,2.83287,2.3931,5.7578,4.67311,8.79043,6.793,1.49535,1.09532,3.07878,2.05372,4.6717,2.99467.81084.44183,1.61677.90365,2.43938,1.33342q1.27605.541,2.55273,1.12443a36.33531,36.33531,0,0,1-10.1523-4.71337,79.99579,79.99579,0,0,1-9.03929-6.64811c-2.86236-2.405-5.63535-4.913-8.26026-7.56842C1167.6234,423.31567,1165.0576,420.602,1162.69312,417.7134Z"/><path class="cls-7" d="M1170.45871,482.041c1.68921,1.20777,3.36983,2.419,5.0907,3.57382,1.69755,1.18533,3.40714,2.35245,5.14612,3.473,3.47058,2.249,6.95172,4.48,10.55076,6.50194a115.147,115.147,0,0,0,11.00864,5.63138c.92763.45631,1.89679.80223,2.8548,1.18315a30.62588,30.62588,0,0,0,2.90787,1.04738c.98365.30155,1.95115.68965,2.956.92262q1.509.3404,3.02339.72171a45.01759,45.01759,0,0,1-12.08435-3.04622,82.293,82.293,0,0,1-11.24506-5.44919,116.21493,116.21493,0,0,1-10.47771-6.7776A110.92367,110.92367,0,0,1,1170.45871,482.041Z"/><path class="cls-7" d="M1218.93713,503.45249c1.12725-1.69946,2.24784-3.39546,3.27675-5.15032q1.60433-2.59074,3.06891-5.26007c1.95-3.55779,3.78165-7.17468,5.41341-10.87953a102.90108,102.90108,0,0,0,4.2553-11.36212l.83643-2.92031c.2822-.97391.44747-1.974.68289-2.96058.54373-1.96409.715-3.98909,1.11417-5.99576a56.80184,56.80184,0,0,1-1.77949,12.11538,75.4159,75.4159,0,0,1-4.055,11.58829,93.588,93.588,0,0,1-5.70523,10.85953A79.90867,79.90867,0,0,1,1218.93713,503.45249Z"/><path class="cls-7" d="M1187.09129,534.13019c1.51676,1.38867,3.03481,2.76735,4.61016,4.08128,1.54407,1.34662,3.11494,2.66209,4.7262,3.92384,3.21661,2.52733,6.46579,5.01236,9.88561,7.24173a91.41344,91.41344,0,0,0,10.601,6.07846c.90919.46221,1.86589.81274,2.79864,1.22585.47067.19552.9366.40694,1.412.59016l1.45147.47785,1.4483.502.72594.25091.74492.17591q1.49279.34464,2.99083.73068a41.37482,41.37482,0,0,1-11.94252-3.12442,69.11808,69.11808,0,0,1-10.88212-5.924,92.68027,92.68027,0,0,1-9.81356-7.53163A87.55363,87.55363,0,0,1,1187.09129,534.13019Z"/><path class="cls-7" d="M1231.43651,558.71673c1.13481-.94378,2.24616-1.90358,3.28828-2.93916,1.06943-1.00314,2.08744-2.05705,3.07571-3.13494a60.296,60.296,0,0,0,5.40136-6.87761,46.59516,46.59516,0,0,0,4.21693-7.63715l.85505-2.0164.683-2.0827.3581-1.04058.26578-1.06647q.25963-1.0695.5544-2.14039a32.40776,32.40776,0,0,1-1.98769,8.64169,36.85491,36.85491,0,0,1-4.09782,7.91178,44.61559,44.61559,0,0,1-5.68536,6.85043A39.48968,39.48968,0,0,1,1231.43651,558.71673Z"/><path class="cls-7" d="M1190.22713,588.12165c1.81421,1.44907,3.64753,2.86351,5.554,4.17731q2.809,2.03456,5.74854,3.87127a114.88428,114.88428,0,0,0,12.1005,6.66824,81.65561,81.65561,0,0,0,12.959,4.6635,51.692,51.692,0,0,0,6.79158,1.18289,53.749,53.749,0,0,0,6.9221.36592,44.77019,44.77019,0,0,1-13.92767-.60375,66.11277,66.11277,0,0,1-13.27493-4.46669,85.73073,85.73073,0,0,1-12.10343-7.00608A78.37759,78.37759,0,0,1,1190.22713,588.12165Z"/><path class="cls-7" d="M1242.17744,608.63422c1.38229-1.37432,2.70106-2.79735,3.94-4.28911q1.885-2.2115,3.58894-4.55914a75.577,75.577,0,0,0,6.09269-9.826c.9538-1.6769,1.683-3.46509,2.49785-5.21032.70225-1.79345,1.46522-3.56766,2.03551-5.4124a80.14908,80.14908,0,0,0,2.82982-11.26737q-.1064,1.45452-.25081,2.91352a26.42961,26.42961,0,0,1-.36361,2.9089l-.55568,2.884c-.1864.9625-.49234,1.89487-.73351,2.8457a54.34335,54.34335,0,0,1-1.85973,5.58381c-.79518,1.79267-1.53227,3.61984-2.48477,5.33841a57.68773,57.68773,0,0,1-6.44271,9.829A49.15583,49.15583,0,0,1,1242.17744,608.63422Z"/><path class="cls-7" d="M1210.60212,637.46936c1.34393.85249,2.68171,1.70357,4.05231,2.5017,1.35124.8262,2.71466,1.63113,4.10051,2.39258,2.76377,1.53407,5.55266,3.0184,8.43386,4.2895a57.64885,57.64885,0,0,0,8.82992,3.27316,18.16161,18.16161,0,0,0,2.28719.54862,16.577,16.577,0,0,0,2.32117.383c.77915.0677,1.56446.22656,2.35056.22079.78579-.02013,1.57738-.026,2.37794-.02321a23.39641,23.39641,0,0,1-9.54249-.28091,43.71213,43.71213,0,0,1-9.09149-3.088,65.00233,65.00233,0,0,1-8.41207-4.57708A65.66217,65.66217,0,0,1,1210.60212,637.46936Z"/><path class="cls-7" d="M1250.08845,649.41127a19.39857,19.39857,0,0,0,3.95832-2.27617,19.68911,19.68911,0,0,0,1.77627-1.41407,17.41413,17.41413,0,0,0,1.62805-1.57292,29.17878,29.17878,0,0,0,5.04059-7.44636l.92068-2.066c.27373-.70261.48131-1.4315.73466-2.14334.56773-1.40855.77582-2.92287,1.203-4.38245.32631-1.48343.50852-2.99929.77672-4.50439.15706-1.51881.2745-3.0448.465-4.57746.06169,1.5342.05244,3.07557.07836,4.62349-.15965,1.53318-.24914,3.083-.4789,4.61555-.14037.76235-.2872,1.52522-.44785,2.28553a15.91927,15.91927,0,0,1-.59129,2.25539c-.23773.74159-.45506,1.49138-.72648,2.22155l-.93019,2.15027a25.5864,25.5864,0,0,1-5.44432,7.57278A18.9286,18.9286,0,0,1,1250.08845,649.41127Z"/><path class="cls-9" d="M727.04543,535.22144,795.133,860.93892l-34.59973-.898L680.272,638.24893c-3.09019-9.35751-13.44981-9.26417-16.76435,0L590.2198,861.39241l-38.31907-.59863s38.52011-186.489,64.18249-328.7978Z"/><path class="cls-10" d="M456.31642,273.68952s-6.63389-49.75389-10.614-46.43689c-3.98038,3.31688-1.05789,24.234-3.04789,26.88746-1.99025,2.65363-16.536-41.10373-22.82425-38.82846-4.18435,1.5142,9.52944,28.32088,8.65029,28.90681-1.41725.94506-15.11864-26.93-17.48072-22.20549-3.90229,7.8042,11.56919,29.771,8.83043,29.12157-1.27123-.30156-11.37417-23.46173-14.02755-20.14473-2.65373,3.31662,7.64984,21.53251,8.97659,25.51263,1.3269,3.98038-6.2287-14.184-9.449-10.394-1.35855,1.59869,27.76777,56.76985,27.76777,56.76985"/><path class="cls-10" d="M882.88007,297.94156s21.95728-52.24815,24.69117-47.84711c2.734,4.4013-6.62388,23.33531-5.57022,26.48025,1.05378,3.1452,28.63336-33.80955,33.88587-29.6707,3.49509,2.7544-17.95946,23.88188-17.30942,24.71475,1.04786,1.34316,22.82669-20.80233,23.58174-15.57444,1.24738,8.6358-20.35205,24.61616-17.548,24.86182,1.3015.11385,18.18076-18.689,19.65534-14.70554,1.47483,3.98346-14.03857,18.03011-16.55078,21.39044-2.51237,3.36034,10.3768-11.50238,12.24038-6.89145.78633,1.945-44.22524,45.144-44.22524,45.144"/><path class="cls-10" d="M882.88007,297.94156S784.62981,361.555,767.10974,355.19912l-55.96992-20.30281a57.539,57.539,0,0,0-19.14954-5.83011c-.393-.139-.62183-.2136-.62183-.2136l-15.32635-7.50753-33.45953,6.325-11.8619,8.84042c-29.78276,5.70395-66.18928,15.32673-66.18928,15.32673s-90.25848,11.12955-108.20471-77.85385l-25.01133,24.56795s22.54757,115.34992,154.90112,130.30509l4.63542-1.04083c3.62023,1.58677,10.99864,3.33021,15.50636,4.70132l-2.6244,120.68949H745.4712s1.4174-79.37318-4.7694-138.29957l2.19655.83133c28.77834,10.0991,54.60855-6.9703,82.23608-24.78745,23.54593-15.18531,70.9098-65.44795,70.9098-65.44795Z"/><path class="cls-11" d="M780.458,415.24122q-8.90074-28.66968-16.91439-57.63477a11.10263,11.10263,0,0,1-.397-3.84473l-52.00685-18.86541a57.545,57.545,0,0,0-19.14954-5.83024c-.393-.13885-.62183-.21322-.62183-.21322l-15.32635-7.50778-33.45953,6.32476-11.8619,8.84068c-25.29351,4.84441-55.35142,12.51156-63.84208,14.71387.36438,21.98408-5.306,44.8832-10.423,65.15281-.54849,2.17334-2.2245,14.18691-2.80261,16.35244,9.75346,2.657,48.19751-1.58382,52.70523-.21271l-2.6244,120.68949H745.4712s1.4174-79.37318-4.7694-138.29957l2.19655.83146C755.87275,420.29128,768.24737,419.31135,780.458,415.24122Z"/><path class="cls-12" d="M721.30584,453.23591c-11.103,17.67739-23.05747,34.87719-35.3067,51.77658q-17.88435,24.67347-37.25029,48.19392H745.4712s1.38534-77.83411-4.59683-136.57318C740.7795,416.66041,728.69669,441.46876,721.30584,453.23591Z"/><path class="cls-12" d="M767.48809,371.43437c-1.054,19.04132-6.82555,38.20906-21.12312,45.37939,11.71894,3.26212,22.97478,2.13346,34.093-1.57254C775.94427,400.70223,771.66185,386.08619,767.48809,371.43437Z"/><path class="cls-10" d="M674.31635,292.12927l5.00981,36.41562s-17.08736,47.22065-45.28554,7.59778l5.98871-43.51042Z"/><path class="cls-13" d="M671.1909,252.8886l3.30226,39.74134s-11.40469,52.02839-35.07989-1.77178l7.97819-39.12309Z"/><path class="cls-10" d="M629.29994,271.97236l6.95005-1.95768,1.61921,8.28257-6.9508,1.95768a3.73861,3.73861,0,0,1-4.68416-3.04968h0A4.553,4.553,0,0,1,629.29994,271.97236Z"/><path class="cls-14" d="M630.89081,274.0666l2.86954-.80826.66812,3.41957-2.86928.80826a1.54409,1.54409,0,0,1-1.934-1.25931h0A1.87969,1.87969,0,0,1,630.89081,274.0666Z"/><path class="cls-10" d="M684.19226,269.76325l-7.08086.963-.58465-8.49784,7.08134-.96314a3.80987,3.80987,0,0,1,4.23988,3.7119h0A4.47349,4.47349,0,0,1,684.19226,269.76325Z"/><path class="cls-14" d="M683.90183,263.98263l-2.92672.34425.18642,3.51535,2.92621-.34451a1.84192,1.84192,0,0,0,1.53881-1.94961h0A1.57739,1.57739,0,0,0,683.90183,263.98263Z"/><path class="cls-10" d="M659.18848,305.69717c-7.01377,2.19873-25.82072-15.042-26.09638-29.27068l-.0209-1.08712c-.27514-14.22871,7.44524-36.981,20.62912-38.01751l-.03718-.15168c13.18352-1.03609,26.87809,20.18819,27.15311,34.41639l.02128,1.0875C681.11258,286.90279,669.81877,305.69717,659.18848,305.69717Z"/><path class="cls-15" d="M658.54485,291.873l-.019.00179c-5.80355.52-10.61759-3.11865-10.75273-8.12756l-.0182-.68555,21.0349-1.8864.01847.68594C668.94333,286.87048,664.34817,291.35268,658.54485,291.873Z"/><path class="cls-16" d="M652.22792,270.6951c.004,1.03917-.6095,1.88371-1.37086,1.8864-.76053.00308-1.381-.83684-1.38483-1.876-.00395-1.03879.60978-1.88345,1.3706-1.88615C651.60391,268.8164,652.22433,269.65658,652.22792,270.6951Z"/><path class="cls-16" d="M664.61587,269.37079c-.004,1.0425-.62452,1.88525-1.38547,1.88242-.76107-.0032-1.3747-.8512-1.3706-1.89332.00424-1.043.62427-1.886,1.38573-1.88268C664.00609,267.48041,664.61985,268.32777,664.61587,269.37079Z"/><path class="cls-14" d="M660.12764,278.37058l-4.88876.25874c-.60222.03192-1.043-.70851-.82941-1.39214l1.35393-14.97979a.77066.77066,0,0,1,1.47637-.14449l3.535,14.72092C661.11117,277.49309,660.75576,278.33738,660.12764,278.37058Z"/><path class="cls-13" d="M645.60994,263.11283c-1.35547,1.17264.42272-3.63112,2.36271-4.3663a3.52994,3.52994,0,0,1,4.66414,1.70242A11.02886,11.02886,0,0,0,645.60994,263.11283Z"/><path class="cls-13" d="M667.81877,257.55748c1.58638.83352-1.23739-3.4397-3.29441-3.71433a3.52929,3.52929,0,0,0-4.15439,2.71876A11.02848,11.02848,0,0,1,667.81877,257.55748Z"/><path d="M680.272,261.5812c-.01359,5.4188-6.90979-3.01173-11.74224-14.47091a76.30365,76.30365,0,0,1-15.13277,3.86678,52.43523,52.43523,0,0,1-13.363.08129c-3.34636,11.76317-4.72425,24.10061-7.244,21.15338-1.06546-1.24636-2.41-10.478-2.65745-12.22487-.52147-3.67818-.70879-8.68157-1.29357-11.97973,0,0-4.02179-7.50919-2.78159-9.9896,1.24036-2.48028,6.02384-10.63041,14.351-7.44111,0,0,1.59446-8.85876,6.37822-8.85876,4.78351,0,7.97281,4.42938,7.97281,4.42938s3.89781-5.66958,10.63028-4.07513c6.73247,1.59472,11.33892,4.78377,10.2759,10.099Z"/><path class="cls-13" d="M649.835,409.10981c-.02387,0-.04887-.002-.074-.002a1.33426,1.33426,0,0,1-1.25813-1.40291c.25332-4.65221-1.63231-14.60707-3.22664-15.3466-1.52138.5699-4.47823,10.26154-4.73155,14.91375a1.35893,1.35893,0,0,1-1.40394,1.25931,1.33421,1.33421,0,0,1-1.25831-1.40278,47.48578,47.48578,0,0,1,2.15-10.00922c2.21193-6.78157,4.164-7.459,5.46021-7.408,1.28329.06962,3.16023.97006,4.62186,7.95819a47.48327,47.48327,0,0,1,1.05055,10.179A1.33411,1.33411,0,0,1,649.835,409.10981Z"/><path class="cls-13" d="M691.16485,410.63888c-.024,0-.049-.00218-.074-.00218a1.33414,1.33414,0,0,1-1.25816-1.40291c.25335-4.65221-1.63343-14.60707-3.22776-15.34647-1.52138.56978-4.47708,10.26141-4.73056,14.91375a1.36022,1.36022,0,0,1-1.40393,1.25931,1.33421,1.33421,0,0,1-1.25816-1.40291,47.44147,47.44147,0,0,1,2.14988-10.007c1.68344-5.16776,3.41906-7.545,5.45919-7.41008,1.28329.06962,3.16033.97006,4.62183,7.95819a47.41354,47.41354,0,0,1,1.0516,10.17884A1.334,1.334,0,0,1,691.16485,410.63888Z"/><path class="cls-9" d="M706.07553,418.86183a41.04294,41.04294,0,0,1-81.9645-4.46233s20.91467,4.92454,38.994,5.6383A360.80992,360.80992,0,0,0,706.07553,418.86183Z"/><path class="cls-17" d="M673.27847,446.05533c-9.65484-8.45784-22.38858-3.46637-27.42557,6.82851a41.02969,41.02969,0,0,0,33.97226,2.05256A27.66456,27.66456,0,0,0,673.27847,446.05533Z"/><path class="cls-7" d="M286.8427,652.93461l-2.90506-3.22572a311.21823,311.21823,0,0,0,34.15855-24.893c1.29675-1.05263,2.59491-2.13552,3.89319-3.21828,49.847-42.0152,98.22475-99.94511,108.25166-112.16985,1.17892-1.40714,1.82717-2.22117,1.8923-2.30861l.62478.50208,2.51529,1.994.20347.16194c-.04769.04295-.22719.291-.56555.68209-.37335.48016-.97236,1.2211-1.74934,2.17975-4.768,5.7619-16.43141,19.74829-32.14842,37.12644-11.73061,12.95324-25.69533,27.80353-40.74563,42.56677-1.88294,1.8396-3.76588,3.6792-5.67895,5.51727C332.73313,618.82824,309.00459,639.13374,286.8427,652.93461Z"/><path class="cls-7" d="M319.24677,626.68117s29.023-47.774,3.1461-84.55223C322.39287,542.12894,299.05757,596.265,319.24677,626.68117Z"/><path class="cls-7" d="M352.77721,596.48325s32.883-23.32749,66.05171.42746C418.82892,596.91071,375.40953,615.076,352.77721,596.48325Z"/><path class="cls-8" d="M428.5003,492.2303s-67.59027-20.38846-71.78771-6.339S428.5003,492.2303,428.5003,492.2303Z"/><path class="cls-8" d="M434.11641,494.65981c1.984-.57478-65.40423,27.35748-62.15555,33.207C379.23387,540.9622,434.11641,494.65981,434.11641,494.65981Z"/><path class="cls-8" d="M438.72183,501.197s-49.79543,51.951-38.89154,61.77631S438.72183,501.197,438.72183,501.197Z"/><path class="cls-8" d="M440.129,502.75942c.42605.92711-33.898,63.1723-21.89663,71.52167S440.129,502.75942,440.129,502.75942Z"/><path class="cls-8" d="M450.35692,514.116s-9.85793,59.33167,7.82946,65.28038C475.87352,585.345,450.35692,514.116,450.35692,514.116Z"/><path class="cls-8" d="M441.25968,513.48343s-14.11819,49.80838-3.84152,56.1948,9.95769-61.7031,9.95769-61.7031Z"/><path class="cls-8" d="M427.56716,493.924s-61.623-.36476-61.76529,12.72362,62.61495-8.126,62.61495-8.126Z"/><path class="cls-8" d="M431.45663,502.81032s-48.24982,35.0513-41.28822,42.76871c6.96171,7.71779,44.97358-40.5037,44.97358-40.5037Z"/><path class="cls-13" d="M457.63455,527.49379c-3.40175,3.06366-15.28506-4.58567-26.54243-17.08543-11.25724-12.4995-17.62572-25.11593-14.22384-28.17972,3.40162-3.06352,18.18372,1.97551,29.44095,14.475S461.03631,524.43014,457.63455,527.49379Z"/><path class="cls-7" d="M212.11822,647.86684l-1.79665-1.00006c4.59029-13.55829,10.03563-27.38262,16.02806-41.16912.57068-1.31688,1.1502-2.62876,1.73459-3.94961,12.8144-29.00079,27.89906-57.66528,42.30035-82.97751q1.17335-2.07687,2.34861-4.09475c21.28941-37.10489,40.71513-66.42506,48.57907-78.03387,1.68331-2.48284,2.83172-4.15051,3.37342-4.91556.18911-.2772.29553-.42669.32014-.47093l1.66267,1.15725c-.03345.03937-.17424.25079-.41656.60273-.58606.84467-1.78281,2.57824-3.48573,5.09648-5.21046,7.69522-15.19326,22.71527-27.351,42.41356q-1.81742,2.95307-3.7,6.04371c-13.264,21.74867-28.67283,48.41291-43.12078,76.829-.59132,1.16622-1.18739,2.34143-1.77472,3.52163-12.15026,24.14228-23.53623,49.45182-32.30447,74.01592q-.7839,2.18937-1.52638,4.36694C212.68814,646.15545,212.39632,647.01307,212.11822,647.86684Z"/><path class="cls-7" d="M282.35918,564.57072c-.20464.01359-.40542.041-.60608.06846-14.6504,1.74563-30.51294,2.19065-34.93333,2.28066-.78506.01513-1.20714.02359-1.20714.02359l.96468-1.92063.26309-.51427s.62107-.40784,1.74908-1.10148l.005-.00884c5.4638-3.38111,22.76129-13.50675,38.08841-16.30167.20565-.03615.41131-.07244.61209-.09987,1.25649-.21643,2.49721-.38362,3.71228-.484.19578-.01859.40041-.03218.60505-.04577,6.11281-.42323,11.63213.67812,15.57045,4.30745a8.46163,8.46163,0,0,1,1.84781,2.3036l.00885.005C312.09629,559.21256,298.01028,562.65175,282.35918,564.57072Z"/><path class="cls-7" d="M272.382,517.18121l-1.51227,2.71709s-.173-.39759-.48516-1.12776c-2.22335-5.19046-11.48931-27.365-15.219-44.82384-.03821-.1604-.08039-.33464-.11373-.50388-.31758-1.533-.587-3.02762-.818-4.46618-.02833-.17808-.048-.3513-.07244-.51554-1.281-8.65375-.593-15.28417,3.98475-16.57322a7.194,7.194,0,0,1,2.80106-.17988c9.58253,1.09071,12.81645,14.69156,13.49277,29.22209.0136.20462.02718.40938.0359.62286a209.97566,209.97566,0,0,1-1.74267,33.12284l-.00487.00885C272.52138,516.28512,272.382,517.18121,272.382,517.18121Z"/><path class="cls-7" d="M324.17679,484.81379c-.19577.01859-.40541.041-.60119.05962-14.176,1.47637-27.75572,1.67331-31.85533,1.6869l-.005.00885c-.81159.00025-1.25136-.001-1.25136-.001l1.81011-3.60625.45221-.89583s.96852-.57388,2.689-1.5406a241.82078,241.82078,0,0,1,31.07169-14.71234c.19386-.07757.38285-.14616.57171-.21488,1.62279-.60389,3.24853-1.17123,4.85851-1.68947.19783-.06372.38181-.1236.57466-.1786,13.26415-4.23283,25.60223-5.36431,29.224,2.95762a7.503,7.503,0,0,1,.27591.73325.079.079,0,0,1,.01565.055C365.47,477.95849,344.34869,482.68686,324.17679,484.81379Z"/><path class="cls-7" d="M227.02082,606.61617s-.23975-.319-.67119-.91851c-3.04365-4.17475-15.6974-21.82445-22.98529-36.03547-.09129-.19-.18757-.371-.279-.56106-.77991-1.53535-1.49791-3.03622-2.12834-4.46528-.08257-.185-.15616-.365-.23372-.559-2.86852-6.69709-3.75089-11.85985-.578-13.16583a4.2981,4.2981,0,0,1,1.33329-.31284c7.12519-.55516,13.54624,11.2143,18.33154,23.77752.08154.20771.15808.42413.23963.63184a238.74326,238.74326,0,0,1,8.03447,26.74052c.2363,1.0125.3608,1.58035.3608,1.58035l-.48978,1.13-.01474.02654Z"/><path class="cls-7" d="M258.26381,644.5815c-.246.02539-.49592.03706-.737.0536-19.21391,1.17635-39.70942.78159-44.53793.6676-.69748-.0173-1.06455-.02448-1.06455-.02448l.41515-1.18316.91506-2.64388s.43887-.1845,1.26072-.51542c4.99441-1.99628,24.02035-9.37469,42.42253-13.00838.20078-.02731.39759-.06846.59439-.10962,1.90692-.36451,3.80781-.69761,5.67434-.96865.20078-.02731.40643-.06359.60221-.08218,12.38373-1.75524,23.60366-1.19059,28.92361,4.62208C300.36619,639.72992,280.29751,643.21257,258.26381,644.5815Z"/><path class="cls-18" d="M322.64247,430.05472s-3.44458-57.35758,8.71656-57.03243-6.414,52.89537-6.414,52.89537,27.329-44.13713,37.65763-37.54056-32.5259,40.56639-32.5259,40.56639S374.567,400.971,381.49936,407.712s-47.53362,24.92208-47.53362,24.92208,51.16179-13.2375,54.46444-4.27745c3.30264,8.95979-59.96992,6.46976-59.96992,6.46976Z"/><path class="cls-7" d="M345.69378,382.35031a1.774,1.774,0,1,0,1.72344-3.0966,1.774,1.774,0,1,0-1.72344,3.0966Z"/><path class="cls-7" d="M368.04031,396.81071a1.91175,1.91175,0,1,0,1.85729-3.337,1.91175,1.91175,0,1,0-1.85729,3.337Z"/><path class="cls-7" d="M388.40825,421.44559a1.08511,1.08511,0,1,0,1.05417-1.8941,1.08511,1.08511,0,1,0-1.05417,1.8941Z"/><path class="cls-7" d="M322.69041,428.2237s-3.9396,5.99423-.74209,9.2761,8.85132-2.90493,8.85132-2.90493Z"/><path class="cls-8" d="M362.00737,467.476c-2.62735.65914-5.26148,1.268-7.89665,1.89947l-8.81363,2.02667-17.6665,3.91563-9.17762,1.95153-.53529.10783-7.98307,1.70062-8.86068,1.8614-4.42105.92429-2.21206.49605a1.5668,1.5668,0,0,1-.17411.04219,11.75505,11.75505,0,0,0-1.99269.56016,15.42744,15.42744,0,0,1,2.105-.74107c.73505-.21694,1.47792-.40618,2.20809-.61414l4.38093-1.14379,8.79592-2.14078c4.807-1.1384,9.63344-2.208,14.46475-3.28636.1831-.03731.35721-.07949.54017-.11667.88364-.19219,1.76331-.3981,2.647-.59017q.927-.19713,1.85382-.39412c.18309-.03719.3749-.0695.56286-.11565,5.094-1.07135,10.1891-2.16527,15.29891-3.18148l8.87838-1.74717c2.66556-.49874,5.31829-1.01608,7.9819-1.46945A.079.079,0,0,1,362.00737,467.476Z"/><path class="cls-8" d="M324.613,475.57411l-.48888-.12142.10462-.417,2.25822-9.22263c.19386-.07757.38285-.14616.57171-.21488l-2.28976,9.32084Z"/><path class="cls-8" d="M329.577,474.77816l-.49285-.13514.18552-.70824,2.64748-10.026c.19783-.06372.38181-.1236.57466-.1786l-2.65928,10.089Z"/><path class="cls-8" d="M324.17679,484.81379c-.19577.01859-.40541.041-.60119.05962-2.114-2.84595-4.8589-6.495-5.65792-7.49624-.11206-.13193-.18091-.21655-.2113-.24514l.15258-.17014-.06475-.27938c.09155-.01859.15552-.02936.65876.58683C319.15083,478.09824,320.66336,480.08773,324.17679,484.81379Z"/><path class="cls-8" d="M272.04608,517.77483c-.04705-2.84761-.13206-5.69112-.29489-8.53092q-.19925-4.26045-.56093-8.50822c-.48272-5.66074-1.09545-11.312-2.07769-16.90132a116.66387,116.66387,0,0,0-3.85447-16.55065,64.24985,64.24985,0,0,0-3.007-7.94435,48.64524,48.64524,0,0,0-4.10333-7.4529,51.56543,51.56543,0,0,1,7.85,15.15223,81.94092,81.94092,0,0,1,2.385,8.23488c.66606,2.77889,1.25354,5.57689,1.72767,8.39334a165.77291,165.77291,0,0,1,1.85332,17.01466A154.45916,154.45916,0,0,1,272.04608,517.77483Z"/><path class="cls-8" d="M266.63344,470.75432l-.3649-.05244-12.03473-1.72524c-.02833-.17808-.048-.3513-.07244-.51554l11.95409,1.70344.59017.08513Z"/><path class="cls-8" d="M267.69786,474.67367c-.04526-.002-.18988-.01295-.40733-.01808-1.72755-.1036-8.31283-.4767-12.125-.70889-.03821-.1604-.08039-.33464-.11373-.50388,3.17956.18155,8.53913.48683,12.11217.6903.18989.01295.37977.0259.56081.03385Z"/><path class="cls-8" d="M274.47585,481.553l-4.18077,3.28366-.32887.25746-.32233-.39965.55914-.44233,4.23693-3.322C274.45355,481.13471,274.46713,481.33947,274.47585,481.553Z"/><path class="cls-8" d="M246.57628,565.026a150.9358,150.9358,0,0,1,14.98863-5.80716c1.26957-.43208,2.54209-.85659,3.83255-1.223,1.28842-.37246,2.564-.79,3.86371-1.1243l3.88626-1.0493,3.9164-.93685c1.30368-.32105,2.63261-.53068,3.94859-.79582,1.3179-.25733,2.6358-.51375,3.96832-.69235,1.3297-.19245,2.65465-.41452,3.9873-.58222,1.33675-.14155,2.6753-.26553,4.01346-.3822a64.71544,64.71544,0,0,1,16.054.64811l-4.00255-.29155a15.42194,15.42194,0,0,0-2.00026-.05629l-2.00178.01641-1.99873.00436-1.99653.134c-1.32893.11322-2.66324.124-3.98461.32105a133.66489,133.66489,0,0,0-15.76663,2.66389c-5.22469,1.09519-10.36283,2.57118-15.48533,4.08551q-1.92492.55945-3.83139,1.17853c-1.27649.39708-2.54477.8189-3.81063,1.24867C251.61109,563.20717,249.09144,564.10517,246.57628,565.026Z"/><path class="cls-8" d="M291.61232,546.46689l-3.9605,7.11583-.44248-.2463,3.79793-6.82376C291.20305,546.49407,291.40768,546.48048,291.61232,546.46689Z"/><path class="cls-8" d="M283.95811,554.15827l-.46221-.21091.16066-.351,3.02634-6.49977c.20565-.03615.41131-.07244.61209-.09987l-3.03135,6.50861Z"/><path class="cls-8" d="M282.35918,564.57072c-.20464.01359-.40542.041-.60608.06846-1.84792-2.19937-5.807-6.8953-6.89505-8.23115-.15924-.193-.2536-.315-.27912-.35246l.42029-.276c.03436.04231.17591.2254.41284.508C276.557,557.66669,279.79567,561.53271,282.35918,564.57072Z"/><path class="cls-8" d="M212.33067,644.09622c6.54516-1.89845,13.188-3.4483,19.86022-4.84351,6.675-1.38906,13.403-2.51311,20.14832-3.51676q10.13313-1.40412,20.35076-2.08718a188.718,188.718,0,0,1,20.4441-.17c-3.40777.11629-6.80991.0568-10.20718.3013-3.39982.11013-6.79093.38451-10.18076.64581-6.77235.61016-13.53918,1.29995-20.26589,2.31181-6.739.91749-13.447,2.05346-20.14036,3.27623q-5.02012.91774-10.02,1.95038C218.9784,642.61625,215.65588,643.35527,212.33067,644.09622Z"/><path class="cls-8" d="M259.68083,635.41247l-.45337-.20591.1695-.34618,3.8096-8.01127c.20078-.02731.40643-.06359.60221-.08218l-3.82844,8.02409Z"/><path class="cls-8" d="M254.07624,636.33881l-.47208-.19322.2445-.60581,3.08917-7.6124c.20078-.02731.39759-.06846.59439-.10962l-3.09519,7.64381Z"/><path class="cls-8" d="M258.26381,644.5815c-.246.02539-.49592.03706-.737.0536l-9.04827-7.31982-.35-.28758.32092-.38926.7089.58Z"/><path class="cls-8" d="M228.0582,604.745l-6.14462-13.9451c-2.07038-4.63453-4.13616-9.269-6.33758-13.83844q-3.22423-6.89043-6.87479-13.55892l-1.88178-3.29944c-.64825-1.08661-1.35239-2.13693-2.023-3.21161-.65375-1.08725-1.45688-2.06411-2.18077-3.10584a12.904,12.904,0,0,0-1.21624-1.45419l-1.26354-1.42689c3.82127,3.39355,6.61529,7.76972,9.2411,12.11025,2.58118,4.39374,4.88492,8.93825,7.11288,13.51251,2.13167,4.62,4.21654,9.26007,6.13718,13.96844q1.42566,3.53734,2.80672,7.09058Z"/><path class="cls-8" d="M210.54505,566.21646c-.11706-.01872-.243-.04244-.37387-.05731-2.75043-.45272-6.37425-1.04391-9.21417-1.5233-.08257-.185-.15616-.365-.23372-.559,2.67759.45862,6.22475,1.04186,9.1512,1.5115.25181.04744.50862.08591.75159.12847Z"/><path class="cls-8" d="M213.11688,571.11408l-.41913-.05937-9.33341-1.39252c-.09129-.19-.18757-.371-.279-.56106l9.34225,1.39739.76146.11091Z"/><path class="cls-8" d="M217.62575,579.77911l-.45234-.22861.37246-.73171,2.26425-4.4431c.08154.20771.15808.42413.23963.63184L217.81,579.40639Z"/><path class="cls-19" d="M837.34529,794.79772c-8.77773-7.71818-17.791-10.2418-26.78206-29.63417-.08485.088-11.54636-107.50328-23.9842-137.51875,19.68124-25.05644,63.39321-36.13227,84.782-45.96314a67.84623,67.84623,0,0,1,15.56072-4.745c26.18856-5.056,55.4453-26.24024,60.50126-68.43929,2.35489-2.016-32.96723-18.367-42.27307-38.66679l-51.27937,20.389c-38.17957,26.1151-61.94542,37.2858-96.37822,72.7847-35.22975,36.32-41.83326,44.54612-2.60709,140.37624,10.08025,29.17183,43.46016,114.38679,43.46016,114.38679s2.383,49.58644,2.38836,50.32251c.00449.56619,26.42114-38.94154,38.65819-57.27346A12.28835,12.28835,0,0,0,837.34529,794.79772Z"/><path class="cls-9" d="M905.14993,469.83054l-51.27908,20.389c-38.17986,26.115-61.94571,37.28606-96.37851,72.78444-35.22975,36.32023-41.83326,44.54626-2.607,140.37624,6.15564,17.81471,20.99965,56.527,31.62557,83.97194,7.20879-10.73209,22.31935-17.68586,30.12638-28.04458-3.12981-26.62514-19.836-106.99415-30.0583-131.663,19.68124-25.05618,63.393-36.13226,84.782-45.96288a67.872,67.872,0,0,1,15.56072-4.7453c26.18856-5.05583,55.44517-26.24023,60.50126-68.439C949.77789,506.4813,914.45577,490.13028,905.14993,469.83054Z"/><path class="cls-20" d="M905.14993,469.83054l-49.2268,19.69855c-5.86524,42.19315-11.03993,75.697-32.61574,111.73021,17.62172-8.334,36.241-14.14858,48.05363-19.57764a67.872,67.872,0,0,1,15.56072-4.7453c26.18856-5.05583,55.44517-26.24023,60.50126-68.439C949.77789,506.4813,914.45577,490.13,905.14993,469.83054Z"/><path class="cls-19" d="M838.35279,383.10049c-18.783-5.44586-66.30261-28.75424-84.47145-49.48888a48.36994,48.36994,0,0,1-9.01069-15.1889c-7.47611-20.32525-17.873-58.13608-17.873-58.13608l-6.7503-31.84059c-10.48707-26.30011-10.26626-38.61806-10.26626-38.61806l6.62373,17.27711-3.22841-25.23941c-.07578-.68017,1.38575,1.20367,1.5992,1.85333l6.59724,20.07959-1.76245-25.61033a.49.49,0,0,1,.958-.17488l7.57624,25.15094s-1.193-24.55205.55927-22.19819c1.75283,2.35374,7.156,30.86283,7.156,30.86283s4.23181-18.16472,5.76639-15.45481c.99686,1.76011-.40218,13.874-1.50548,22.15152-.71056,5.33072-2.40772,5.71471-.95955,10.9871l35.87853,75.3669c4.48131,8.86748,22.16755,20.70169,74.05721,33.544,0,0,.22168,3.1734-1.66946,22.94734C845.73608,381.145,838.35279,383.10049,838.35279,383.10049Z"/><path class="cls-11" d="M799.93372,322.68516q-5.47188,18.70656-11.16557,37.34593c18.683,10.98454,38.837,19.95318,49.58464,23.06914,0,0,7.38329-1.95525,9.27469-21.72918s1.66933-22.94734,1.66933-22.94734C827.15081,332.94273,811.25186,327.64675,799.93372,322.68516Z"/><path class="cls-12" d="M834.9422,334.65706q-12.19655,18.49521-24.19037,37.12156c11.04557,5.36008,21.06543,9.427,27.601,11.32161,0,0,7.38329-1.95525,9.27469-21.72918s1.66933-22.94734,1.66933-22.94734C844.1806,337.1576,839.41235,335.90163,834.9422,334.65706Z"/><path class="cls-19" d="M849.04539,340.78258c-1.47958,1.41021-22.89221,44.03968-19.54658,62.15364,2.24306,12.14435,28.28482,55.72939,36.34981,79.33626,0,0,31.36812-10.11436,53.22424-20.32256,1.4288-19.07491,18.16809-97.68574-7.16751-126.67346,0,0-27.018-.61568-33.256-.21565C878.64933,335.06081,854.238,362.85306,849.04539,340.78258Z"/><path class="cls-11" d="M859.73952,467.333c20.2237-3.14507,53.7926-11.00672,73.72671-15.69932,3.46573-26.64449,1.35264-90.14065-21.56088-116.35717,0,0-27.018-.61593-33.256-.21565,0,0-24.41131,27.79225-29.60394,5.72151-1.47958,1.41047-22.89221,44.03994-19.54658,62.1539C831.32415,412.8185,848.90666,443.51851,859.73952,467.333Z"/><g class="cls-21"><path d="M917.31992,342.78193c-4.44793,40.52-14.19691,80.11259-27.18337,118.70591,15.51777-3.32316,31.72959-7.1234,43.32993-9.85434C936.63578,427.2648,935.12787,372.089,917.31992,342.78193Z"/></g><path class="cls-19" d="M915.21582,377.48116c65.32977-38.15009,65.659-48.80152,69.66081-69.77553,5.85806-30.70436,2.95467-99.523,2.95467-99.523,5.88858-27.19465,6.89415-39.37683,4.86262-39.46042-1.25983-.05193-4.69235,18.08254-4.69235,18.08254l-.821-25.12939c-.03231-.67607-1.127,1.37265-1.22892,2.03794l-3.16135,20.563-2.26784-25.30274a.46793.46793,0,0,0-.93185-.01744l-3.30944,25.65905s-2.642-24.17-3.93986-21.621c-1.298,2.54939-2.03385,31.18336-2.03385,31.18336s-6.79671-17.15787-7.83382-14.29115c-.67312,1.86153,2.51233,13.50521,4.82812,21.44058,1.49189,5.1107,3.15763,5.24571,2.59683,10.60451l-3.86883,39.104c-2.77338,33.16951-20.13614,74.5107-66.80346,86.47888,0,0-15.8498,14.217-11.02146,33.27889C893.03315,389.8554,915.21582,377.48116,915.21582,377.48116Z"/><path class="cls-11" d="M926.45732,325.37456a85.844,85.844,0,0,1-27.231,12.13948s-15.8498,14.217-11.02146,33.27914,27.01093,6.688,27.01093,6.688c11.96527-6.98723,21.73152-13.04479,29.75792-18.41949Q935.63681,342.26215,926.45732,325.37456Z"/><path d="M837.00976,321.4329c-10.32885-12.339-23.19748-43.81865-3.37906-61.79464,18.00075-16.32718,15.18967-13.58355,19.16957-16.12191,10.8995-6.95236,23.78851-17.88818,38.55123-12.27141,0,0,20.2064,1.303,21.02465,14.1255s-1.48919,23.09311,6.41579,25.63994,10.8393,3.20584,9.10073,14.375c-1.73883,11.16917-7.39585,30.85989-11.08534,32.18869S837.00976,321.4329,837.00976,321.4329Z"/><path class="cls-15" d="M826.70822,294.18017A13.10355,13.10355,0,1,1,841.06335,305.9,13.1185,13.1185,0,0,1,826.70822,294.18017Zm1.47137-.14873a11.62468,11.62468,0,1,0,10.39671-12.73426A11.63752,11.63752,0,0,0,828.17959,294.03144Z"/><path class="cls-19" d="M887.43834,277.68041a1.09182,1.09182,0,0,0,1.15235,1.07276c2.60119-.14231,8.578-.99416,9.76115,5.73241,1.19633,6.80043-5.16881,10.97915-9.10278,11.39033-1.136.11924-3.752.48221-4.48246,1.35586-2.24524,2.68529-.79258,12.62464-.98814,19.8574-.18488,6.83863,1.497,16.673,1.44522,23.75251,0,0-36.81667,23.259-37.42555,3.30521,0,0,2.7912-44.26175,2.593-44.44022-3.33088-2.99827-15.72806-3.73729-9.27-30.266,5.98259-24.57514,23.93061-23.746,28.51076-23.17287C873.49666,246.75129,886.84006,246.91528,887.43834,277.68041Z"/><path class="cls-15" d="M875.07958,304.58518a13.10348,13.10348,0,1,1,14.35488,11.71919A13.11843,13.11843,0,0,1,875.07958,304.58518Zm1.47125-.14873a11.62467,11.62467,0,1,0,10.39668-12.73413A11.63821,11.63821,0,0,0,876.55083,304.43645Z"/><path class="cls-22" d="M895.4924,286.59546s-4.5131-8.3745-9.133,3.38136"/><path class="cls-23" d="M864.83253,278.84228a6.0851,6.0851,0,1,0,6.27873,5.914A6.1072,6.1072,0,0,0,864.83253,278.84228Z"/><path class="cls-23" d="M839.48735,282.38455a6.07739,6.07739,0,0,0,1.48869-11.29788S838.69871,277.94107,839.48735,282.38455Z"/><path class="cls-15" d="M844.47305,278.99524l9.543,4.14872s-4.39348,3.52535-6.94466,1.84409S844.47305,278.99524,844.47305,278.99524Z"/><path class="cls-22" d="M853.22834,267.83967l-2.7203,10.70772-2.30219-.87736a.59424.59424,0,0,1-.17245-1.01045Z"/><path class="cls-13" d="M862.05325,270.08955c.8639,1.08276.20207-2.81312-1.17071-3.64766a2.74814,2.74814,0,0,0-3.79985.62491A8.55517,8.55517,0,0,1,862.05325,270.08955Z"/><path class="cls-13" d="M845.08463,264.71216c-1.31816.44,1.37534-2.468,2.9839-2.425a2.72836,2.72836,0,0,1,2.84316,2.58093A8.59564,8.59564,0,0,0,845.08463,264.71216Z"/><path class="cls-16" d="M856.54829,278.19391c.37246-1.06648,1.336-4.85544.85185-5.85511a.59389.59389,0,0,0-.33771-.32c-1.16046-.39862-3.10391,3.43765-3.45035,4.43091l.58927.20643c.57658-1.64805,2.19488-3.99551,2.65671-4.04218a.082.082,0,0,1,.01372-.00064c.27963.36156-.30131,3.61946-.91275,5.37418Z"/><path class="cls-16" d="M847.90916,274.86357c.42544-1.21854.88467-4.885.37416-5.936a.66354.66354,0,0,0-.37121-.36451c-1.307-.43619-3.21648,4.66939-3.23405,4.72132l.58927.20642c.64632-1.845,2.02846-4.27424,2.46631-4.33219.35992.35733.12129,3.96576-.41375,5.49855Z"/><path class="cls-22" d="M850.39114,299.70667s7.1567,1.97576,12.99963,1.306C858.6824,308.5953,849.24591,308.74467,850.39114,299.70667Z"/><path d="M864.56931,234.43026c-3.19918,1.40573-21.485,13.16865-21.88689,19.89741a12.23637,12.23637,0,0,0,.67915,5.436L860.465,245.83854s4.48041,30.13715,24.87326,34.09842c2.2745.4417,11.26836-4.46758,11.26836-4.46758S899.0942,219.25906,864.56931,234.43026Z"/><path class="cls-19" d="M866.95,482.16119,869.75066,670.888l78.753,162.16991-32.30988,55.62362,67.89185-24.77489s-43.55132-167.642-60.41343-182.04732c0,0,42.38474-158.14094,18.58748-194.47912,0,0-11.70535-18.91067-23.18687-25.43031Z"/><path class="cls-9" d="M973.599,808.44435c-14.2382-50.333-27.97047-125.74943-38.47344-134.7223,0,0,30.93143-150.00364,7.13391-186.34195,0,0-11.70509-18.91054-23.18661-25.43018l-53.22424,20.32256L869.4809,663.606a34.6071,34.6071,0,0,0,3.453,13.837l64.629,133.08476C948.12548,809.95649,963.02475,808.52538,973.599,808.44435Z"/><path class="cls-13" d="M855.76914,394.094a.55884.55884,0,0,0,.50209-.58119,28.56282,28.56282,0,0,0-1.24534-6.02c-1.40316-4.42361-2.62388-4.36707-3.02634-4.34912-.021.00206-.04231.0027-.0618.00475-2.59363.26219-3.29713,9.28314-3.23133,10.7158a.56.56,0,0,0,.58411.53208.54906.54906,0,0,0,.53221-.58414c-.14308-3.06916,1.19675-9.44931,2.21514-9.55226a.03791.03791,0,0,1,.01372.00013c.19809-.00949.97673.62619,1.90948,3.56984a26.88292,26.88292,0,0,1,1.19379,5.735.56024.56024,0,0,0,.58414.53221Z"/><path class="cls-13" d="M880.8202,392.49313a.55876.55876,0,0,0,.50208-.58106c-.067-1.44458-1.62728-10.48912-4.27168-10.36925-.01948.00206-.04077.0027-.06179.00475-2.5936.26219-3.29713,9.28327-3.23136,10.7158a.56024.56024,0,0,0,.58414.53221.54985.54985,0,0,0,.53221-.58427c-.14308-3.06916,1.19674-9.44931,2.21517-9.55226a.04428.04428,0,0,1,.01369.00013c1.01955-.0468,2.96031,6.22205,3.10327,9.30494a.56027.56027,0,0,0,.58427.53208Z"/><path class="cls-9" d="M890.35262,396.79865a24.91123,24.91123,0,1,1-49.76892,2.309,147.66085,147.66085,0,0,0,23.89176,1.02443A218.99048,218.99048,0,0,0,890.35262,396.79865Z"/><path class="cls-17" d="M872.20748,415.22237c-6.34668-4.518-13.73176-.72645-16.145,5.7978a24.9019,24.9019,0,0,0,20.64056-.83441A16.793,16.793,0,0,0,872.20748,415.22237Z"/><circle class="cls-11" cx="1121.49637" cy="230.83063" r="93.04067"/><path class="cls-13" d="M1102.86605,223.14861a1.09814,1.09814,0,0,1-1.098-1.098c0-6.46362-3.483-19.76778-5.63882-19.76778s-5.63894,13.30416-5.63894,19.76778a1.098,1.098,0,1,1-2.196,0c0-4.19386,2.6117-21.96382,7.83495-21.96382s7.83485,17.77,7.83485,21.96382A1.09814,1.09814,0,0,1,1102.86605,223.14861Z"/><path class="cls-13" d="M1155.25024,222.23715a1.09853,1.09853,0,0,1-1.098-1.098c0-6.46374-3.48307-19.76791-5.639-19.76791s-5.63882,13.30417-5.63882,19.76791a1.098,1.098,0,1,1-2.196,0c0-4.194,2.61161-21.96394,7.83486-21.96394s7.835,17.77,7.835,21.96394A1.09862,1.09862,0,0,1,1155.25024,222.23715Z"/><path class="cls-9" d="M1174.77056,232.19905a51.99326,51.99326,0,0,1-103.98652,0s26.79489,4.78876,49.71286,4.44669A457.1277,457.1277,0,0,0,1174.77056,232.19905Z"/><path class="cls-7" d="M1135.15757,268.85558c-12.79529-10.03383-28.559-2.84312-34.22138,10.526a51.977,51.977,0,0,0,43.114.25694A35.03881,35.03881,0,0,0,1135.15757,268.85558Z"/></g><path class="cls-8" d="M1457.82757,123.56822c7.2632-.36927,13.95779,5.35138,13.95779,5.35138-9.13639-17.52565.738-31.40248.738-31.40248s15.59654,6.84222,16.74971,26.57264c0,0,2.42737-7.20783,7.92525-10.964a13.66562,13.66562,0,0,1,1.30771-.792s12.1939,27.11485-8.81623,47.34054C1461.27827,153.09834,1457.82757,123.56822,1457.82757,123.56822Z"/><path class="cls-18" d="M1472.7325,140.17517a36.12145,36.12145,0,0,0,4.37253,3.10837,49.60245,49.60245,0,0,0,7.94964,3.9404c-.62045-2.48057-1.21818-4.96659-1.84175-7.44621-.93871-3.66854-1.82693-7.35069-2.75066-11.02331l-6.86494-7.90447,6.35933,5.87848c-1.60433-6.39851-3.23192-12.78982-4.79134-19.20045l.228-.063c1.95605,6.31634,3.84379,12.65118,5.75453,18.97962l2.57119-8.39007-1.97523,10.35469c1.09109,3.62351,2.21756,7.23708,3.29382,10.8644.761,2.52656,1.55031,5.04509,2.31294,7.571a22.24528,22.24528,0,0,0,2.52616-2.87162,35.4437,35.4437,0,0,0,2.81583-4.70058,47.66735,47.66735,0,0,0,3.66963-10.44014,35.77064,35.77064,0,0,1-2.841,10.82819,28.21339,28.21339,0,0,1-2.76641,4.94019,23.901,23.901,0,0,1-3.0333,3.49942c.70223,2.3626,1.37778,4.732,1.96721,7.12523,1.26634,5.39546,2.57595,10.779,3.39641,16.298l-.2279.06273c-2.128-5.15722-3.76719-10.45-5.44934-15.73084-.73747-2.40574-1.38635-4.83569-2.00735-7.27354a42.4254,42.4254,0,0,1-8.78643-4.54275,28.6668,28.6668,0,0,1-7.7665-7.60771A32.56348,32.56348,0,0,0,1472.7325,140.17517Z"/><path class="cls-7" d="M257.40192,73.33818c-7.70771,5.61344-19.15787,4.13429-19.15787,4.13429,22.59483,12.68615,21.70647,34.99823,21.70647,34.99823s-22.0258,3.6729-37.4388-17.15759c0,0,2.5037,9.6522-.83788,17.71736a17.96965,17.96965,0,0,1-.8674,1.80706S187.97951,93.81818,196.539,56.55218C232.4404,43.39852,257.40192,73.33818,257.40192,73.33818Z"/><path class="cls-17" d="M229.13379,65.7966a47.37826,47.37826,0,0,0-7.02835-.27648,64.9962,64.9962,0,0,0-11.55138,1.375c2.45975,2.27771,4.89843,4.578,7.36076,6.8527,3.66078,3.35356,7.276,6.75854,10.92344,10.12747l13.20305,3.754-11.19543-1.89264c6.34872,5.873,12.71812,11.72132,19.02642,17.63994l-.20518.23267c-6.67595-5.53084-13.29027-11.13067-19.9254-16.707l3.19382,11.05311-5.25668-12.78234c-3.79562-3.195-7.62322-6.35389-11.40551-9.56349-2.64683-2.22791-5.31912-4.42628-7.96747-6.652a29.18259,29.18259,0,0,0-.71377,4.96332,46.48194,46.48194,0,0,0,.2796,7.17871,62.50588,62.50588,0,0,0,3.45791,14.09114,46.89807,46.89807,0,0,1-4.64575-13.923,36.97865,36.97865,0,0,1-.50546-7.4062,31.32641,31.32641,0,0,1,.82018-6.016c-2.46479-2.0898-4.90523-4.20627-7.26823-6.41049-5.25872-5.01449-10.55635-9.98461-15.41422-15.45436l.205-.23226c6.03386,4.135,11.62811,8.76915,17.26127,13.35979,2.53418,2.11184,4.9889,4.31376,7.41845,6.54465a55.63219,55.63219,0,0,1,12.9018-1.314,37.58539,37.58539,0,0,1,13.98,2.78182A42.698,42.698,0,0,0,229.13379,65.7966Z"/><path class="cls-8" d="M88.65665,344.63748l27.4244-32.90313s1.196,14.63281-5.75766,21.90458C103.36946,340.9107,93.55072,338.57082,88.65665,344.63748Z"/><path class="cls-8" d="M88.65475,344.63571l27.42426-32.903s-14.60885,1.45955-20.509,9.60948S93.7404,338.72893,88.65475,344.63571Z"/><path class="cls-8" d="M492.77308,567.91367l27.42452-32.90313s1.196,14.63281-5.75778,21.90472C507.486,564.18689,497.66729,561.847,492.77308,567.91367Z"/><path class="cls-8" d="M492.77116,567.912l27.4244-32.90313s-14.60886,1.45955-20.509,9.60962S497.85694,562.00512,492.77116,567.912Z"/><path class="cls-8" d="M1255.21481,55.30209l42.74976-2.67786s-9.811,10.92222-19.87233,10.86534S1262.98539,54.69035,1255.21481,55.30209Z"/><path class="cls-8" d="M1255.21471,55.29964l42.74959-2.678s-11.09716-9.61247-21.07282-8.30041S1263.00077,54.9369,1255.21471,55.29964Z"/><path class="cls-8" d="M789.47286,502.4837,768.037,483.24542s9.86255-.44383,14.578,4.40791C787.3304,492.50522,785.51656,499.04579,789.47286,502.4837Z"/><path class="cls-8" d="M789.47177,502.48506l-21.436-19.23841s.6214,9.8529,5.953,14.0182S785.62743,498.92224,789.47177,502.48506Z"/><path class="cls-7" d="M489.48291,161.45089l27.34358,9.052s-8.86072,4.35362-15.12386,1.79454S494.48447,163.01834,489.48291,161.45089Z"/><path class="cls-7" d="M489.48346,161.44926l27.34357,9.052s-4.51254-8.78086-11.06549-10.46437S494.43236,163.1759,489.48346,161.44926Z"/><path class="cls-7" d="M1012.09289,383.95419l27.34358,9.052s-8.86072,4.35362-15.12386,1.79454S1017.09445,385.52164,1012.09289,383.95419Z"/><path class="cls-7" d="M1012.09346,383.95255l27.34355,9.052s-4.51254-8.78085-11.06549-10.46437S1017.0422,385.6792,1012.09346,383.95255Z"/></g></g></svg>