<svg xmlns="http://www.w3.org/2000/svg" xmlns:xlink="http://www.w3.org/1999/xlink" viewBox="0 0 1528 642"><defs><style>.cls-1{fill:none;}.cls-2{isolation:isolate;}.cls-3{fill:#f7f7f7;}.cls-4{fill:#e8e8e8;}.cls-5{fill:#dbdbdb;}.cls-6{opacity:0.78;}.cls-7{fill:#ffc967;opacity:0.7;}.cls-24,.cls-26,.cls-28,.cls-29,.cls-30,.cls-8{fill:#fff;}.cls-8{opacity:0.33;}.cls-9{fill:#fe6d60;}.cls-10{fill:url(#linear-gradient);}.cls-11{fill:#373660;}.cls-12{fill:url(#linear-gradient-2);}.cls-13{fill:url(#linear-gradient-3);}.cls-14{fill:url(#linear-gradient-4);}.cls-15{fill:url(#linear-gradient-5);}.cls-16{fill:url(#linear-gradient-6);}.cls-17{fill:url(#linear-gradient-7);}.cls-18{fill:url(#linear-gradient-8);}.cls-19{fill:url(#linear-gradient-9);}.cls-20{fill:url(#linear-gradient-10);}.cls-21{fill:url(#linear-gradient-11);}.cls-22{fill:url(#linear-gradient-12);}.cls-23{opacity:0.23;}.cls-24{mix-blend-mode:overlay;}.cls-25{fill:#afb7e0;}.cls-26{opacity:0.26;}.cls-27{opacity:0.68;}.cls-28{mix-blend-mode:soft-light;}.cls-30{opacity:0.47;}.cls-31{fill:#272747;}.cls-32{fill:#ffa648;}.cls-33{fill:#e5bda1;}.cls-34{fill:#c6a58d;}.cls-35{fill:#f2c9a7;}.cls-36{fill:url(#linear-gradient-13);}.cls-37{fill:url(#linear-gradient-14);}.cls-38{fill:url(#linear-gradient-15);}.cls-39{fill:url(#linear-gradient-16);}.cls-40{fill:url(#linear-gradient-17);}.cls-41{fill:url(#linear-gradient-18);}.cls-42{fill:#21213a;}.cls-43{fill:#ef8e35;}.cls-44{fill:url(#linear-gradient-19);}.cls-45{fill:url(#linear-gradient-20);}.cls-46{fill:url(#linear-gradient-21);}.cls-47{fill:url(#linear-gradient-22);}.cls-48{fill:url(#linear-gradient-23);}.cls-49{clip-path:url(#clip-path);}.cls-50{fill:url(#linear-gradient-24);}.cls-51{fill:url(#linear-gradient-25);}.cls-52{fill:url(#linear-gradient-26);}.cls-53{fill:#db5858;}.cls-54{fill:url(#linear-gradient-27);}.cls-55{fill:url(#linear-gradient-28);}.cls-56{fill:url(#linear-gradient-29);}.cls-57{fill:url(#linear-gradient-30);}.cls-58{fill:url(#linear-gradient-31);}.cls-59{fill:url(#linear-gradient-32);}.cls-60{fill:url(#linear-gradient-33);}.cls-61{fill:url(#linear-gradient-34);}.cls-62{fill:url(#linear-gradient-35);}.cls-63{fill:url(#linear-gradient-36);}.cls-64{fill:url(#linear-gradient-37);}.cls-65{fill:url(#linear-gradient-38);}.cls-66{fill:url(#linear-gradient-39);}.cls-67{fill:url(#linear-gradient-40);}.cls-68{fill:url(#linear-gradient-41);}.cls-69{fill:url(#linear-gradient-42);}.cls-70{fill:url(#linear-gradient-43);}</style><linearGradient id="linear-gradient" x1="1063.90596" y1="348.75693" x2="998.80807" y2="349.00257" gradientUnits="userSpaceOnUse"><stop offset="0" stop-color="#b37cff"/><stop offset="1" stop-color="#f895e7"/></linearGradient><linearGradient id="linear-gradient-2" x1="1143.58993" y1="348.67649" x2="1080.42285" y2="348.91485" xlink:href="#linear-gradient"/><linearGradient id="linear-gradient-3" x1="1183.64978" y1="348.63605" x2="1121.44673" y2="348.87077" xlink:href="#linear-gradient"/><linearGradient id="linear-gradient-4" x1="1065.63497" y1="398.97251" x2="1001.24406" y2="399.21549" xlink:href="#linear-gradient"/><linearGradient id="linear-gradient-5" x1="1104.39563" y1="398.80017" x2="1043.62882" y2="399.02947" xlink:href="#linear-gradient"/><linearGradient id="linear-gradient-6" x1="1144.49357" y1="398.62351" x2="1081.99371" y2="398.85935" xlink:href="#linear-gradient"/><linearGradient id="linear-gradient-7" x1="1184.14177" y1="398.4481" x2="1122.58618" y2="398.68038" xlink:href="#linear-gradient"/><linearGradient id="linear-gradient-8" x1="1067.3283" y1="447.96792" x2="1003.63026" y2="448.20827" xlink:href="#linear-gradient"/><linearGradient id="linear-gradient-9" x1="1105.69057" y1="447.66631" x2="1045.56978" y2="447.89317" xlink:href="#linear-gradient"/><linearGradient id="linear-gradient-10" x1="1068.9874" y1="495.9647" x2="1005.96782" y2="496.2025" xlink:href="#linear-gradient"/><linearGradient id="linear-gradient-11" x1="1070.61332" y1="542.99738" x2="1008.25797" y2="543.23267" xlink:href="#linear-gradient"/><linearGradient id="linear-gradient-12" x1="1072.20711" y1="589.09471" x2="1010.5019" y2="589.32755" xlink:href="#linear-gradient"/><linearGradient id="linear-gradient-13" x1="-3430.7012" y1="605.61573" x2="-3433.63423" y2="631.2132" gradientTransform="matrix(-1, 0, 0, 1, -2097.596, 0)" gradientUnits="userSpaceOnUse"><stop offset="0" stop-color="#f9b776"/><stop offset="1" stop-color="#f47960"/></linearGradient><linearGradient id="linear-gradient-14" x1="-3406.80951" y1="608.35328" x2="-3409.74254" y2="633.95078" xlink:href="#linear-gradient-13"/><linearGradient id="linear-gradient-15" x1="1318.17186" y1="477.45044" x2="1335.5731" y2="437.01338" gradientTransform="matrix(1, 0, 0, 1, 0, 0)" xlink:href="#linear-gradient-13"/><linearGradient id="linear-gradient-16" x1="1314.25526" y1="443.94674" x2="1344.69895" y2="425.87463" gradientTransform="matrix(1, 0, 0, 1, 0, 0)" xlink:href="#linear-gradient-13"/><linearGradient id="linear-gradient-17" x1="-5590.57501" y1="-1562.63038" x2="-5564.50451" y2="-1562.63038" gradientTransform="matrix(-0.9543, -0.2987, -0.2987, 0.9543, -4464.28952, 257.76845)" gradientUnits="userSpaceOnUse"><stop offset="0" stop-color="#2b3582"/><stop offset="1" stop-color="#150e42"/></linearGradient><linearGradient id="linear-gradient-18" x1="1319.69031" y1="446.40063" x2="1342.60006" y2="432.80084" gradientTransform="matrix(1, 0, 0, 1, 0, 0)" xlink:href="#linear-gradient-13"/><linearGradient id="linear-gradient-19" x1="-3455.56082" y1="517.8532" x2="-3430.51481" y2="517.8532" xlink:href="#linear-gradient-13"/><linearGradient id="linear-gradient-20" x1="-2149.99894" y1="6713.13065" x2="-2134.09826" y2="6713.13065" gradientTransform="matrix(-0.5644, 0.8255, 0.8255, 0.5644, -5455.81372, -1536.32982)" xlink:href="#linear-gradient-13"/><linearGradient id="linear-gradient-21" x1="-3407.41096" y1="489.37892" x2="-3387.69301" y2="462.92805" gradientTransform="matrix(-1, 0, 0, 1, -2097.596, 0)" xlink:href="#linear-gradient-17"/><linearGradient id="linear-gradient-22" x1="1298.70808" y1="448.5956" x2="1233.45561" y2="445.9855" gradientTransform="matrix(1, 0, 0, 1, 0, 0)" xlink:href="#linear-gradient-17"/><linearGradient id="linear-gradient-23" x1="-3343.30772" y1="446.83772" x2="-3328.80356" y2="445.51916" gradientTransform="matrix(-1, 0, 0, 1, -2097.596, 0)" xlink:href="#linear-gradient-17"/><clipPath id="clip-path"><path class="cls-1" d="M1239.20209,471.593c.49795-.5066,1.58293-2.4605,2.51305-7.5132a114.77093,114.77093,0,0,0,0-35.6675c-.93012-5.05279-2.0151-7.00682-2.51305-7.51333-.49809.50651-1.58307,2.46054-2.51319,7.51333-.89894,4.883-7.99252,11.21638-7.99252,17.83371s7.09358,12.95083,7.99252,17.83379C1237.619,469.13245,1238.704,471.08635,1239.20209,471.593Z"/></clipPath><linearGradient id="linear-gradient-24" x1="-3325.00836" y1="445.35003" x2="-3364.1258" y2="447.5945" gradientTransform="matrix(-1, 0, 0, 1, -2097.596, 0)" xlink:href="#linear-gradient-17"/><linearGradient id="linear-gradient-25" x1="-3399.1074" y1="459.24802" x2="-3400.55021" y2="422.93806" gradientTransform="matrix(-1, 0, 0, 1, -2097.596, 0)" xlink:href="#linear-gradient-17"/><linearGradient id="linear-gradient-26" x1="-3394.24703" y1="468.70764" x2="-3384.59857" y2="468.70764" xlink:href="#linear-gradient-13"/><linearGradient id="linear-gradient-27" x1="516.9491" y1="240.80697" x2="452.55798" y2="268.04936" gradientUnits="userSpaceOnUse"><stop offset="0" stop-color="#cb236d"/><stop offset="1" stop-color="#4c246d"/></linearGradient><linearGradient id="linear-gradient-28" x1="444.52477" y1="265.22026" x2="459.39558" y2="265.22026" gradientTransform="matrix(1, 0, 0, 1, 0, 0)" xlink:href="#linear-gradient-17"/><linearGradient id="linear-gradient-29" x1="445.93842" y1="261.03324" x2="450.24859" y2="261.03324" gradientTransform="matrix(1, 0, 0, 1, 0, 0)" xlink:href="#linear-gradient-13"/><linearGradient id="linear-gradient-30" x1="477.60496" y1="241.9089" x2="413.21388" y2="269.15128" xlink:href="#linear-gradient-27"/><linearGradient id="linear-gradient-31" x1="414.06236" y1="263.37414" x2="422.66959" y2="263.37414" gradientTransform="matrix(1, 0, 0, 1, 0, 0)" xlink:href="#linear-gradient-17"/><linearGradient id="linear-gradient-32" x1="418.53629" y1="257.44006" x2="423.68753" y2="257.44006" gradientTransform="matrix(1, 0, 0, 1, 0, 0)" xlink:href="#linear-gradient-13"/><linearGradient id="linear-gradient-33" x1="425.86058" y1="225.01854" x2="468.51253" y2="199.42733" xlink:href="#linear-gradient-27"/><linearGradient id="linear-gradient-34" x1="442.13638" y1="182.35451" x2="423.79883" y2="198.59282" gradientTransform="matrix(1, 0, 0, 1, 0, 0)" xlink:href="#linear-gradient-13"/><linearGradient id="linear-gradient-35" x1="476.51197" y1="183.89043" x2="490.95345" y2="183.89043" gradientTransform="matrix(1, 0, 0, 1, 0, 0)" xlink:href="#linear-gradient-13"/><linearGradient id="linear-gradient-36" x1="462.47449" y1="145.29756" x2="462.31676" y2="172.26604" gradientTransform="matrix(1, 0, 0, 1, 0, 0)" xlink:href="#linear-gradient-13"/><linearGradient id="linear-gradient-37" x1="663.16008" y1="48.337" x2="393.30476" y2="239.80571" gradientTransform="matrix(1, 0, 0, 1, 0, 0)" xlink:href="#linear-gradient-17"/><linearGradient id="linear-gradient-38" x1="671.2107" y1="59.68306" x2="401.35476" y2="251.15221" gradientTransform="matrix(1, 0, 0, 1, 0, 0)" xlink:href="#linear-gradient-17"/><linearGradient id="linear-gradient-39" x1="142.24569" y1="1832.53413" x2="128.97061" y2="1850.09598" gradientTransform="translate(68.75905 -1652.48323) rotate(-8.21032)" xlink:href="#linear-gradient-13"/><linearGradient id="linear-gradient-40" x1="132.10726" y1="1836.77046" x2="147.9646" y2="1836.77046" gradientTransform="translate(68.75905 -1652.48323) rotate(-8.21032)" xlink:href="#linear-gradient-17"/><linearGradient id="linear-gradient-41" x1="122.98763" y1="1846.48349" x2="133.57345" y2="1835.62272" gradientTransform="translate(68.75905 -1652.48323) rotate(-8.21032)" xlink:href="#linear-gradient-13"/><linearGradient id="linear-gradient-42" x1="449.37785" y1="190.53213" x2="431.04038" y2="206.77037" gradientTransform="matrix(1, 0, 0, 1, 0, 0)" xlink:href="#linear-gradient-13"/><linearGradient id="linear-gradient-43" x1="489.41921" y1="182.19436" x2="494.5908" y2="182.19436" gradientTransform="matrix(1, 0, 0, 1, 0, 0)" xlink:href="#linear-gradient-13"/></defs><title>lessons-learned-and-future-prospects</title><g class="cls-2"><g id="BACKGROUND"><rect class="cls-3" width="1528" height="642"/></g><g id="OBJECTS"><path class="cls-4" d="M555.86173,47.61436c-12.89984,7.75042-36.16929,25.69979-56.46839,52.47458-15.10262,19.92063-20.50816,32.68886-34.5301,35.90164-10.27761,2.3549-21.85292-1.909-37.73332-11.39481-33.9768-20.29531-73.88988-6.66058-102.77663,47.379s-17.99145,105.20894,35.3293,165.83735c39.02145,44.36941-13.45409,44.85541-43.7902,121.74833S328.34,622.7127,469.10877,621.68608c140.9608-1.02785,354.04685.94184,354.05052.94189,111.29228,1.02817,231.36611,19.91389,334.82105-33.24952,37.3856-19.21174,70.44213-48.84171,88.79053-86.98422,24.23007-50.36907,16.13519-113.65514-15.881-158.97856-21.34147-30.21178-52.06214-21.51093-77.66946-41.39461-26.72915-20.755-42.80725-43.28511-4.58849-80.22316s67.47594-61.826,48.15485-110.76563c-27.71979-70.213-94.9891-79.27244-168.89385-49.512S864.81743,135.73488,798.966,116.37391c-67.375-19.80889-73.97351-73.2871-156.34315-82.4021C624.3089,31.94522,588.53122,27.98606,555.86173,47.61436Z"/><path class="cls-5" d="M568.02443,66.97666C534.38216,86.97675,511.41972,117.929,511.41972,117.929c-13.6804,18.4406-19.22259,31.64269-33.06115,34.85808-9.84035,2.28642-20.92321-1.85356-36.128-11.06367-32.53143-19.70525-70.7464-6.4669-98.40421,46.00186s5.74772,100.66463,50.654,164.58511c44.90608,63.92025-29.70944,39.9832-58.75489,114.64092s11.918,158.40971,146.70132,157.41307c82.97438-.61358,165.95737-.25762,248.93148.24564,27.56543.16717,55.26751-.24239,82.68646-.49429,55.2383-.50747,108.97949,7.72743,164.18612.12263,56.9256-7.84164,112.34984-26.036,163.83634-52.01668,27.27411-13.76289,54.04611-30.14175,73.71817-53.91093,30.69193-37.08413,31.1474-80.74634,14.91284-124.41006-28.02164-75.36524-67.67557-59.75771-93.2677-79.90941-25.592-20.15152-40.98606-42.02678-4.39325-77.89115s64.60525-60.0288,46.10619-107.5458c-26.54056-68.17219-90.948-76.96822-161.70854-48.07286s-163.42139,77.393-222.41972,47.83409C738.18074,99.84088,731.40549,62.73072,659.0888,53.04078,643.22186,50.91467,603.90419,45.64637,568.02443,66.97666Z"/><g class="cls-6"><path class="cls-7" d="M341.17919,202.85212c25.40243-19.96086,35.45322-42.09448,39.33126-54.63218a2.702,2.702,0,0,1,5.19557.09219c26.37182,99.95267-4.89574,159.14834-24.30972,204.12675-15.72938,36.44161.56781,110.82628,11.63327,157.19591l-2.78574-.95136-2.137,6.25734c-8.211-36.75394-23.39529-84.9693-66.16922-139.18634C236.03612,292.2225,303.07545,232.79341,341.17919,202.85212Z"/><path class="cls-8" d="M381.0507,190.8488c-2.092,4.78688-4.46311,9.4195-6.979,13.98249-2.48746,4.57878-5.18742,9.03753-7.965,13.4491l-2.11759,3.2873-2.1837,3.24432c-1.44244,2.173-2.951,4.30129-4.47363,6.42q-4.59492,6.33542-9.5229,12.43018c-1.65068,2.0232-3.37227,3.989-5.0554,5.98639-1.7041,1.9799-3.4841,3.89457-5.22335,5.84517-3.50475,3.80316-6.89015,7.58205-9.98176,11.6389a88.98459,88.98459,0,0,0-14.3854,26.55611,76.08158,76.08158,0,0,0-3.27344,14.75793,94.50886,94.50886,0,0,0-.47694,15.17906,126.108,126.108,0,0,0,5.49476,30.09391c.73374,2.45986,1.5724,4.89148,2.37755,7.33257.90481,2.40791,1.73363,4.84557,2.70129,7.2326,1.90588,4.78431,3.87873,9.5527,6.05711,14.23448,4.31388,9.38456,9.17748,18.52533,14.24826,27.55829a.47865.47865,0,0,1-.82.49332c-5.58141-8.75615-10.76242-17.77918-15.4702-27.06615a199.53978,199.53978,0,0,1-12.112-28.83837,129.58168,129.58168,0,0,1-6.34757-30.8136,92.16449,92.16449,0,0,1,.27562-15.87412,80.2903,80.2903,0,0,1,3.26771-15.59741,91.41515,91.41515,0,0,1,14.92373-27.95339c3.18262-4.2014,6.69207-8.18111,10.22089-11.99242,1.72621-1.90469,3.49367-3.77257,5.18728-5.70738,1.67316-1.95285,3.3849-3.87356,5.02766-5.85314,1.62029-1.99835,3.31564-3.9365,4.91354-5.95476,1.58522-2.02769,3.233-4.00864,4.7688-6.07629,1.54631-2.05928,3.15538-4.07406,4.65944-6.16684l2.292-3.11437,2.23345-3.1573c1.52462-2.082,2.95324-4.22928,4.43024-6.347,1.419-2.15421,2.88626-4.281,4.284-6.4528,2.79714-4.33782,5.58338-8.70836,8.16482-13.17751l.00614-.01053a.47893.47893,0,0,1,.85363.43125Z"/></g><path class="cls-9" d="M1196.87513,322.01891a6.37225,6.37225,0,0,0-2.61307-4.89,9.49118,9.49118,0,0,0-6.09424-1.87672l-171.48925,5.63963c-2.94344.09673-5.24817,2.11188-5.17845,4.52752l8.70516,300.70312,173.40008-1.73541a9.34089,9.34089,0,0,0,5.89493-2.0747,6.27242,6.27242,0,0,0,2.37494-4.88772Z"/><polygon class="cls-10" points="1058.291 364.131 1032.952 364.124 1031.691 333.525 1057.193 333.525 1058.291 364.131"/><polygon class="cls-11" points="1097.778 364.05 1073.672 364.04 1072.673 333.525 1096.932 333.525 1097.778 364.05"/><polygon class="cls-12" points="1138.143 363.966 1113.077 363.959 1112.329 333.525 1137.553 333.525 1138.143 363.966"/><polygon class="cls-13" points="1178.287 363.883 1153.358 363.876 1152.865 333.525 1177.951 333.525 1178.287 363.883"/><polygon class="cls-14" points="1060.08 413.909 1035.006 414.045 1033.771 384.135 1059.004 384.049 1060.08 413.909"/><polygon class="cls-15" points="1099.156 413.697 1075.301 413.826 1074.322 383.997 1098.328 383.915 1099.156 413.697"/><polygon class="cls-16" points="1139.103 413.48 1114.297 413.614 1113.564 383.863 1138.526 383.778 1139.103 413.48"/><polygon class="cls-17" points="1178.833 413.264 1154.161 413.398 1153.679 383.726 1178.504 383.642 1178.833 413.264"/><polygon class="cls-18" points="1061.832 462.555 1037.017 462.772 1035.808 433.472 1060.779 433.303 1061.832 462.555"/><polygon class="cls-19" points="1100.506 462.217 1076.896 462.423 1075.937 433.201 1099.694 433.041 1100.506 462.217"/><polygon class="cls-11" points="1140.044 461.872 1115.491 462.086 1114.773 432.939 1139.478 432.772 1140.044 461.872"/><polygon class="cls-11" points="1179.369 461.528 1154.948 461.741 1154.475 432.671 1179.047 432.505 1179.369 461.528"/><polygon class="cls-20" points="1063.549 510.217 1038.988 510.511 1037.803 481.803 1062.517 481.556 1063.549 510.217"/><polygon class="cls-11" points="1101.829 509.759 1078.46 510.039 1077.519 481.405 1101.034 481.17 1101.829 509.759"/><polygon class="cls-11" points="1140.965 509.291 1116.662 509.582 1115.958 481.02 1140.411 480.775 1140.965 509.291"/><polygon class="cls-11" points="1179.894 508.825 1155.719 509.114 1155.256 480.626 1179.578 480.383 1179.894 508.825"/><polygon class="cls-21" points="1065.232 556.926 1040.92 557.294 1039.758 529.161 1064.22 528.837 1065.232 556.926"/><polygon class="cls-11" points="1103.125 556.352 1079.991 556.703 1079.07 528.64 1102.346 528.333 1103.125 556.352"/><polygon class="cls-11" points="1141.869 555.766 1117.809 556.13 1117.119 528.137 1141.326 527.817 1141.869 555.766"/><polygon class="cls-11" points="1180.409 555.183 1156.475 555.545 1156.021 527.622 1180.099 527.304 1180.409 555.183"/><polygon class="cls-22" points="1066.881 602.709 1042.813 603.148 1041.674 575.572 1065.889 575.176 1066.881 602.709"/><polygon class="cls-11" points="1104.396 602.025 1081.493 602.443 1080.59 574.935 1103.632 574.558 1104.396 602.025"/><polygon class="cls-11" points="1142.754 601.325 1118.934 601.76 1118.257 574.318 1142.222 573.926 1142.754 601.325"/><polygon class="cls-11" points="1180.913 600.629 1157.216 601.061 1156.771 573.687 1180.61 573.297 1180.913 600.629"/><path class="cls-11" d="M921.88832,370.94668a6.45351,6.45351,0,0,0-2.39065-4.803,8.30461,8.30461,0,0,0-5.5555-1.86958l-166.76706,4.70118c-4.24475.11975-7.57852,3.24817-7.45209,6.99328l8.22859,243.66226c.12483,3.6976,3.57981,6.62762,7.77289,6.59164l164.52065-.45066c2.05277-.01767,2.90649-1.70895,4.33823-3.00661a6.38964,6.38964,0,0,0,2.18117-4.85714Z"/><g class="cls-23"><polygon class="cls-24" points="768.279 392.411 768.019 386.316 822.264 384.175 822.506 390.285 768.279 392.411"/><polygon class="cls-24" points="769.008 409.489 768.749 403.405 822.945 401.303 823.187 407.402 769.008 409.489"/><polygon class="cls-24" points="769.737 426.535 769.478 420.462 823.625 418.4 823.866 424.487 769.737 426.535"/><polygon class="cls-24" points="770.464 443.549 770.205 437.488 824.303 435.464 824.544 441.54 770.464 443.549"/><polygon class="cls-24" points="771.189 460.532 770.931 454.482 824.98 452.497 825.221 458.561 771.189 460.532"/><polygon class="cls-24" points="772.637 494.402 772.379 488.374 826.331 486.467 826.571 492.509 772.637 494.402"/><polygon class="cls-24" points="774.797 544.972 774.542 538.978 828.348 537.186 828.586 543.194 774.797 544.972"/><polygon class="cls-24" points="771.914 477.483 771.656 471.443 825.656 469.498 825.897 475.551 771.914 477.483"/><polygon class="cls-24" points="773.358 511.29 773.101 505.273 827.004 503.405 827.244 509.436 773.358 511.29"/><polygon class="cls-24" points="774.078 528.146 773.822 522.141 827.677 520.311 827.916 526.33 774.078 528.146"/><polygon class="cls-24" points="775.515 561.766 775.26 555.783 829.017 554.03 829.255 560.026 775.515 561.766"/><polygon class="cls-24" points="776.231 578.529 775.976 572.557 829.686 570.842 829.923 576.827 776.231 578.529"/><polygon class="cls-24" points="776.946 595.261 776.692 589.3 830.353 587.623 830.59 593.598 776.946 595.261"/><polygon class="cls-24" points="777.66 611.962 777.406 606.012 831.019 604.373 831.256 610.336 777.66 611.962"/><polygon class="cls-24" points="839.031 389.636 838.793 383.522 893.349 381.369 893.569 387.497 839.031 389.636"/><polygon class="cls-24" points="839.696 406.766 839.459 400.663 893.966 398.549 894.185 404.666 839.696 406.766"/><polygon class="cls-24" points="840.36 423.862 840.124 417.771 894.581 415.697 894.8 421.802 840.36 423.862"/><polygon class="cls-24" points="841.023 440.928 840.788 434.848 895.195 432.813 895.413 438.907 841.023 440.928"/><polygon class="cls-24" points="841.685 457.961 841.45 451.893 895.807 449.897 896.025 455.979 841.685 457.961"/><polygon class="cls-24" points="843.005 491.932 842.771 485.886 897.03 483.969 897.247 490.029 843.005 491.932"/><polygon class="cls-24" points="844.976 542.652 844.743 536.64 898.854 534.839 899.07 540.864 844.976 542.652"/><polygon class="cls-24" points="842.346 474.962 842.111 468.905 896.419 466.949 896.637 473.02 842.346 474.962"/><polygon class="cls-24" points="843.663 508.87 843.429 502.836 897.639 500.957 897.856 507.006 843.663 508.87"/><polygon class="cls-24" points="844.32 525.777 844.086 519.754 898.247 517.913 898.464 523.951 844.32 525.777"/><polygon class="cls-24" points="845.63 559.496 845.398 553.496 899.46 551.732 899.676 557.747 845.63 559.496"/><polygon class="cls-24" points="846.284 576.309 846.051 570.319 900.065 568.594 900.28 574.598 846.284 576.309"/><polygon class="cls-24" points="846.936 593.09 846.704 587.112 900.669 585.425 900.884 591.417 846.936 593.09"/><polygon class="cls-24" points="847.587 609.841 847.355 603.873 901.271 602.224 901.486 608.205 847.587 609.841"/></g><ellipse class="cls-25" cx="646.75664" cy="349.31039" rx="274.36026" ry="296.14495" transform="translate(269.41809 980.12536) rotate(-87.48642)"/><ellipse class="cls-26" cx="630.72854" cy="329.51574" rx="232.38206" ry="219.52694"/><g class="cls-27"><path class="cls-28" d="M722.924,350.63568c-.02582,24.21582-.914,48.4348-2.79837,72.58494-1.93633,24.14387-4.90494,48.21733-9.201,72.07331-4.38529,23.82362-9.971,47.5186-18.4146,70.33085-4.28289,11.362-9.25072,22.563-15.99365,32.813a65.73607,65.73607,0,0,1-12.02281,13.98953,34.35056,34.35056,0,0,1-7.89433,5.07472,23.70918,23.70918,0,0,1-9.24221,2.16644,23.3937,23.3937,0,0,1-9.34391-1.71047,32.292,32.292,0,0,1-8.08041-4.798,62.42418,62.42418,0,0,1-12.28383-13.77333C610.78669,589.20894,605.752,578.03055,601.425,566.686a335.02968,335.02968,0,0,1-10.83657-34.75362c-3.02749-11.746-5.57006-23.60618-7.76145-35.5249-4.37352-23.84211-7.36443-47.91228-9.39152-72.05Q570.416,388.14588,570.251,351.773c-.07067-12.10979.30034-24.21725.743-36.317q.70827-18.14918,2.06715-36.26465c1.82865-24.14633,4.54147-48.23728,8.556-72.12979,2.01433-11.94344,4.35993-23.83639,7.17762-35.62447A342.73092,342.73092,0,0,1,598.964,136.5236c4.10679-11.40448,8.89147-22.66966,15.55045-32.9176a59.88631,59.88631,0,0,1,12.00317-13.8339,30.66923,30.66923,0,0,1,7.94817-4.7449,22.46038,22.46038,0,0,1,9.1452-1.611,24.32143,24.32143,0,0,1,9.0331,2.10487,35.21826,35.21826,0,0,1,7.84192,4.87743,66.74637,66.74637,0,0,1,12.25632,13.58931c6.98119,10.01614,12.24464,21.05651,16.80626,32.28891,9.008,22.55828,15.11406,46.12258,19.92309,69.85643a686.10315,686.10315,0,0,1,10.21668,71.92655C721.81658,302.19139,722.85277,326.413,722.924,350.63568Zm-4.606,0c.05877-24.09718-.84278-48.20191-2.83074-72.21655a697.158,697.158,0,0,0-9.32794-71.64548c-4.44741-23.65663-10.191-47.15963-18.80186-69.63176-4.35966-11.18763-9.41927-22.17838-16.1335-32.10274a65.06866,65.06866,0,0,0-11.74582-13.40809c-4.52014-3.77248-10.01174-6.67005-15.91034-6.85224a20.781,20.781,0,0,0-8.54869,1.62189,29.14921,29.14921,0,0,0-7.48427,4.61714A58.20917,58.20917,0,0,0,616.07921,104.617c-6.38492,10.13113-10.9691,21.3363-14.87493,32.68735a340.13785,340.13785,0,0,0-9.60214,34.78333c-2.63458,11.75008-4.80065,23.60714-6.63709,35.514-7.27045,47.66472-9.60553,95.98161-9.42737,144.16539q-.13823,36.14356,2.45144,72.23288c1.77835,24.02851,4.51671,47.99779,8.628,71.73054,2.05991,11.86347,4.46878,23.66637,7.35646,35.3466A331.71917,331.71917,0,0,0,604.36,565.591c4.15755,11.24142,9.02206,22.29946,15.58926,32.2456a59.82437,59.82437,0,0,0,11.60589,13.29873c4.4935,3.67746,9.99911,6.29012,15.73529,6.09456,5.73169-.15587,11.10537-2.99878,15.50517-6.80509a63.0909,63.0909,0,0,0,11.37055-13.52994c6.45221-10.02575,11.24614-21.10883,15.35622-32.36948,8.11094-22.61889,13.42246-46.20483,17.5352-69.91506,4.08934-23.73587,6.79209-47.70771,8.59355-71.73553C717.48678,398.84623,718.33176,374.73917,718.318,350.63568Z"/><path class="cls-28" d="M845.07061,350.63568a353.32685,353.32685,0,0,1-12.57743,92.53271,297.67254,297.67254,0,0,1-38.82072,84.81119c-17.40442,25.86069-39.56953,48.799-66.05328,65.43589a175.48052,175.48052,0,0,1-42.485,19.40313,159.485,159.485,0,0,1-92.37392.05232A175.57486,175.57486,0,0,1,550.23262,593.508c-26.52037-16.61294-48.73611-39.53725-66.19065-65.39831-17.47482-25.9202-30.37049-54.80745-38.951-84.85073a335.2523,335.2523,0,0,1-9.43666-45.88638,343.42655,343.42655,0,0,1,.03712-93.46938,335.02745,335.02745,0,0,1,9.47731-45.86971c8.60779-30.02772,21.52928-58.89012,39.01884-84.77548,17.46488-25.8281,39.67463-48.72178,66.18112-65.28a176.4784,176.4784,0,0,1,42.4849-19.27,158.033,158.033,0,0,1,92.18871.04843,176.30282,176.30282,0,0,1,42.44151,19.31369c26.46914,16.58324,48.6289,39.49028,66.04334,65.31833a297.49224,297.49224,0,0,1,38.88778,84.73612A353.28063,353.28063,0,0,1,845.07061,350.63568Zm-5.27993,0A348.28174,348.28174,0,0,0,827.86,259.38826c-8.126-29.65378-20.36081-58.29774-37.24155-84.06486a241.01489,241.01489,0,0,0-28.75885-36.03709,200.91848,200.91848,0,0,0-35.60231-29.27406,171.968,171.968,0,0,0-41.79-19.3569,153.01892,153.01892,0,0,0-91.00952.04843,171.81227,171.81227,0,0,0-41.74649,19.4002,200.72836,200.72836,0,0,0-35.5384,29.30258,240.82881,240.82881,0,0,0-28.68512,36.04693c-16.8356,25.76273-29.03644,54.39-37.11062,84.025a338.29226,338.29226,0,0,0-8.91106,45.19057,353.221,353.221,0,0,0,.03708,91.92779,338.03052,338.03052,0,0,0,8.95161,45.17369c8.10147,29.61953,20.32817,58.22188,37.17838,83.95019A240.63384,240.63384,0,0,0,516.32287,561.716,199.86337,199.86337,0,0,0,551.847,590.95177a172.68921,172.68921,0,0,0,41.70383,19.30745,151.63548,151.63548,0,0,0,90.82431.0526,172.7855,172.7855,0,0,0,41.7464-19.26745,200.12532,200.12532,0,0,0,35.5878-29.20778A240.86006,240.86006,0,0,0,790.473,525.85123c16.89521-25.73279,29.15638-54.35148,37.30875-83.99011A348.24243,348.24243,0,0,0,839.79068,350.63568Z"/><path class="cls-28" d="M399.1201,244.20411c20.57426-.29768,41.14852-.42507,61.72278-.64109l61.72277-.36337c20.57431-.15477,41.14857-.13811,61.72283-.18594l61.72282-.1073,123.44556.32272,61.72278.39683c20.5743.23556,41.14856.37321,61.72282.69227a.23307.23307,0,0,1,0,.46609c-20.57426.31883-41.14852.45671-61.72282.69227l-61.72278.397-123.44556.32258-61.72282-.10721c-20.57426-.04783-41.14852-.03126-61.72283-.18608l-61.72277-.36323c-20.57426-.216-41.14852-.3435-61.72278-.64118a.3472.3472,0,0,1,0-.69433Z"/><path class="cls-28" d="M470.72576,140.82374c14.60709-.29764,29.21419-.42517,43.82133-.64118l43.82128-.36324c14.60723-.15481,29.21437-.13824,43.82147-.18607l43.82146-.10721,43.82129.122c14.60709.07374,29.21423.03337,43.82133.20054l43.82128.397c14.60714.23561,29.21432.37349,43.82146.69218a.23315.23315,0,0,1,0,.46618c-14.60714.31906-29.21432.45657-43.82146.69231l-43.82128.39679c-14.6071.16736-29.21424.12694-43.82133.20054l-43.82129.12218-43.82146-.1073c-14.6071-.04783-29.21424-.03117-43.82147-.18594l-43.82128-.36337c-14.60714-.216-29.21424-.34341-43.82133-.64105a.34726.34726,0,0,1,0-.69437Z"/><path class="cls-28" d="M377.67074,347.58457l67.08506-.64118L511.841,346.58c22.36177-.15468,44.72339-.1381,67.08516-.18594l67.08519-.10721,134.17017.32258,67.08515.397c22.36177.23561,44.72339.37349,67.08515.69218a.23312.23312,0,0,1,0,.46618c-22.36176.31906-44.72338.45657-67.08515.69218l-67.08515.39692-134.17017.32272-67.08519-.10729c-22.36177-.04784-44.72339-.03118-67.08516-.18595L444.7558,348.92l-67.08506-.64118a.34714.34714,0,0,1,0-.69424Z"/><path class="cls-28" d="M399.1201,450.96494c20.57426-.29768,41.14852-.42507,61.72278-.64109l61.72277-.36337c20.57431-.15476,41.14857-.1381,61.72283-.18594l61.72282-.1073,123.44556.32272,61.72278.39683c20.5743.23557,41.14856.37322,61.72282.69227a.23307.23307,0,0,1,0,.46609c-20.57426.31883-41.14852.45671-61.72282.69227l-61.72278.397L646.0113,452.957l-61.72282-.10721c-20.57426-.04784-41.14852-.03127-61.72283-.18608l-61.72277-.36332c-20.57426-.21588-41.14852-.34342-61.72278-.6411a.3472.3472,0,0,1,0-.69433Z"/><path class="cls-28" d="M830.12876,555.909H479.55763a1.21689,1.21689,0,1,1,0-2.43377H830.12876a1.21689,1.21689,0,0,1,0,2.43377Z"/></g><path class="cls-4" d="M1236.40188,97.4822a1.11666,1.11666,0,0,1-.68531-1.149c.06381-.609.13857-1.21819.22179-1.81075a1.11633,1.11633,0,0,1,2.21093.31081c-.07974.56689-.15129,1.14985-.21254,1.733a1.11677,1.11677,0,0,1-1.53487.91593Z"/><path class="cls-4" d="M1237.69684,90.22516a1.11658,1.11658,0,0,1-.6562-1.307c.287-1.12916.61683-2.2655.98066-3.37744a1.11618,1.11618,0,1,1,2.12167.69424c-.34817,1.06461-.66407,2.1522-.93878,3.23292a1.11778,1.11778,0,0,1-1.50735.75727Zm2.98528-8.51615-.03585-.01547a1.11614,1.11614,0,0,1-.55773-1.47673c.25287-.55957.51928-1.12307.79169-1.67458q.36942-.74768.75929-1.47888a1.11632,1.11632,0,0,1,1.97024,1.05014q-.37353.70073-.72807,1.41764c-.26129.52857-.51644,1.06859-.75864,1.60472A1.11636,1.11636,0,0,1,1240.68212,81.709Zm4.41174-7.86984a1.1174,1.1174,0,0,1-.499-1.66167c.65721-.96431,1.35561-1.91874,2.07589-2.83682a1.11618,1.11618,0,1,1,1.75629,1.378c-.68961.87908-1.35826,1.79268-1.98759,2.71607A1.11658,1.11658,0,0,1,1245.09386,73.83917Zm5.71828-6.981a1.11667,1.11667,0,0,1-.37266-1.81341c.81788-.83514,1.67457-1.65283,2.54651-2.43079a1.11633,1.11633,0,0,1,1.48612,1.6662c-.83463.7445-1.65485,1.52726-2.43771,2.32651A1.11634,1.11634,0,0,1,1250.81214,66.8582Zm6.86145-5.86723a1.11657,1.11657,0,0,1-.22229-1.94141c.95021-.677,1.93673-1.331,2.93185-1.9441a1.11632,1.11632,0,0,1,1.17081,1.901c-.953.5868-1.89741,1.21311-2.8073,1.86143A1.11588,1.11588,0,0,1,1257.67359,60.991Zm7.78295-4.57119a1.11625,1.11625,0,0,1-.05424-2.04064c1.05394-.50047,2.13879-.97223,3.22427-1.402a1.11628,1.11628,0,1,1,.82182,2.0758c-1.0398.41157-2.079.86342-3.08828,1.34288A1.11389,1.11389,0,0,1,1265.45654,56.41978Zm8.45866-3.14544a1.11623,1.11623,0,0,1,.12707-2.10894c1.12316-.30936,2.273-.58543,3.41759-.82a1.11619,1.11619,0,0,1,.44856,2.18685c-1.09643.22471-2.19761.48911-3.2733.78551A1.11059,1.11059,0,0,1,1273.9152,53.27434Zm8.87238-1.62624a1.11639,1.11639,0,0,1,.31906-2.14432c1.16065-.109,2.34057-.18013,3.50689-.21131a1.11621,1.11621,0,1,1,.05965,2.23163c-1.11675.02989-2.24641.09787-3.35757.20242A1.11141,1.11141,0,0,1,1282.78758,51.6481Zm43.485,17.35956a1.112,1.112,0,0,1-.41559-.2981c-.7349-.84149-1.50823-1.66912-2.29869-2.46018a1.11619,1.11619,0,0,1,1.579-1.578c.82561.826,1.63347,1.69069,2.40117,2.56977a1.11637,1.11637,0,0,1-1.26593,1.76654Zm-34.46949-17.4116a1.11636,1.11636,0,0,1,.51667-2.145c1.16482.0964,2.33993.23355,3.49229.408a1.11609,1.11609,0,1,1-.33379,2.20709c-1.103-.16667-2.22751-.29809-3.34261-.39033A1.11307,1.11307,0,0,1,1291.8031,51.59606Zm27.95732,11.16566a1.11543,1.11543,0,0,1-.27447-.1621c-.87043-.698-1.77757-1.37675-2.69621-2.01711a1.11624,1.11624,0,1,1,1.27683-1.83131c.95951.66888,1.907,1.37772,2.81623,2.107a1.11633,1.11633,0,0,1-1.12238,1.9035Zm-19.06819-9.62993a1.11636,1.11636,0,0,1,.71219-2.111c1.12626.29924,2.25835.641,3.36512,1.01568a1.11629,1.11629,0,1,1-.71626,2.11457c-1.05976-.35893-2.14368-.68605-3.22212-.97251A1.15187,1.15187,0,0,1,1300.69223,53.13179Zm11.55934,4.62428a1.1307,1.1307,0,0,1-.11257-.05355c-.618-.33787-1.25142-.66746-1.88281-.97952q-.5607-.27705-1.12485-.539a1.11628,1.11628,0,0,1,.94015-2.025q.58872.2735,1.17383.56259c.65885.32565,1.32009.66952,1.96493,1.02222a1.11622,1.11622,0,0,1-.95868,2.01226Z"/><path class="cls-4" d="M1330.72462,74.92007a1.11067,1.11067,0,0,1-.51283-.42686c-.31187-.48339-.639-.97141-.97214-1.45027a1.11622,1.11622,0,0,1,1.83259-1.2749c.34785.5001.68948,1.00981,1.01536,1.51472a1.1162,1.1162,0,0,1-1.363,1.63731Z"/><path class="cls-5" d="M1337.68942,114.26026a1.11615,1.11615,0,0,1-.66246-1.28085c.12954-.56712.25034-1.14211.359-1.70864a1.11629,1.11629,0,0,1,2.19257.42073c-.11361.592-.23986,1.19283-.3754,1.78531a1.11782,1.11782,0,0,1-1.51368.78345Z"/><path class="cls-5" d="M1270.7823,151.45466a1.11623,1.11623,0,0,1,.79064-2.08679c1.122.38873,2.27144.74162,3.41657,1.04882a1.11618,1.11618,0,0,1-.57823,2.15618c-1.19627-.321-2.39725-.68961-3.569-1.09546C1270.82189,151.47018,1270.80212,151.46281,1270.7823,151.45466Zm-5.48661-2.26042q-.03049-.01256-.06056-.027-.26718-.12853-.53361-.25987c-.938-.46371-1.87064-.95923-2.77288-1.47325a1.1162,1.1162,0,0,1,1.1054-1.93952c.8642.49232,1.75779.96724,2.656,1.41109q.25536.1262.51273.24989a1.11618,1.11618,0,0,1-.90709,2.03867Zm14.79207,4.5353a1.11633,1.11633,0,0,1,.5874-2.13664c1.17159.17226,2.36524.304,3.54795.392a1.11625,1.11625,0,0,1-.16543,2.22636c-1.23572-.09178-2.483-.22961-3.707-.40974A1.11228,1.11228,0,0,1,1280.08776,153.72954Zm-23.01169-9.46321a1.11883,1.11883,0,0,1-.23684-.13316c-.999-.73324-1.98485-1.51244-2.93021-2.316a1.11626,1.11626,0,0,1,1.44579-1.70113c.90521.76941,1.849,1.51551,2.80524,2.21753a1.11631,1.11631,0,0,1-1.084,1.93275Zm32.57158,9.96084a1.11639,1.11639,0,0,1,.377-2.14818c1.18523-.04957,2.384-.1424,3.56247-.27589a1.11626,1.11626,0,1,1,.25108,2.21835c-1.23087.1393-2.48243.23616-3.71993.28807A1.11223,1.11223,0,0,1,1289.64765,154.22717Zm-39.73244-16.33056a1.1117,1.1117,0,0,1-.392-.27186c-.84438-.907-1.667-1.85672-2.44572-2.82278a1.11634,1.11634,0,0,1,1.73862-1.40074c.74514.92495,1.53276,1.83415,2.341,2.70247a1.11635,1.11635,0,0,1-1.24194,1.79291Zm49.22233,15.04219a1.11619,1.11619,0,0,1,.17121-2.12c1.15666-.26852,2.31809-.58153,3.45168-.93048a1.11627,1.11627,0,0,1,.65661,2.1338c-1.18349.36428-2.39614.69107-3.60375.97122A1.11034,1.11034,0,0,1,1299.13754,152.9388Zm9.09069-3.02a1.11619,1.11619,0,0,1-.024-2.05456c1.0875-.477,2.17152-.9991,3.22185-1.55148a1.11617,1.11617,0,0,1,1.0393,1.97564c-1.09693.57687-2.22865,1.122-3.36421,1.62029A1.11336,1.11336,0,0,1,1308.22823,149.91878Zm8.37855-4.64817a1.11645,1.11645,0,0,1-.20476-1.95367c.98112-.67067,1.94969-1.38491,2.87917-2.12273a1.11624,1.11624,0,1,1,1.38811,1.74846c-.971.7705-1.98251,1.5166-3.007,2.21725A1.11576,1.11576,0,0,1,1316.60678,145.27061Zm7.37244-6.12583a1.11673,1.11673,0,0,1-.36621-1.82c.8388-.84246,1.65631-1.72419,2.42979-2.6209a1.11613,1.11613,0,1,1,1.69041,1.45792c-.80808.93694-1.66212,1.85827-2.53823,2.738A1.11664,1.11664,0,0,1,1323.97922,139.14478Zm6.09492-7.39043a1.11707,1.11707,0,0,1-.50051-1.65951c.66554-.98162,1.3047-2.00018,1.89979-3.02776a1.11612,1.11612,0,1,1,1.9317,1.11867c-.62131,1.07313-1.28878,2.13687-1.98375,3.162A1.11653,1.11653,0,0,1,1330.07414,131.75435Zm4.619-8.39251-.02234-.00938a1.11623,1.11623,0,0,1-.577-1.46941q.217-.498.42284-.9986c.31425-.76464.61371-1.54787.89015-2.3278a1.11628,1.11628,0,0,1,2.10424.746c-.28858.81407-.60137,1.63186-.92953,2.43038q-.21465.52239-.44133,1.04245A1.11636,1.11636,0,0,1,1334.69316,123.36184Z"/><path class="cls-5" d="M1244.04971,130.26814a1.11258,1.11258,0,0,1-.51992-.43775c-.31965-.50852-.63716-1.03335-.94372-1.55954a1.11622,1.11622,0,1,1,1.92918-1.12343c.29379.50445.59811,1.00734.90449,1.49435a1.11621,1.11621,0,0,1-1.37,1.62637Z"/><path class="cls-5" d="M1251.61551,117.24494a.61708.61708,0,0,0,.5673.43753l7.50519.28175a32.71432,32.71432,0,0,0,6.72141,8.19581l-1.18687,7.41108a.617.617,0,0,0,.31837.64182l7.94487,4.24668a.61736.61736,0,0,0,.71053-.09183l5.50258-5.10433a32.71717,32.71717,0,0,0,10.54888,1.03522l4.404,6.08371a.61733.61733,0,0,0,.67895.2287l8.62071-2.61509a.617.617,0,0,0,.43748-.56735l.28184-7.50505a32.71627,32.71627,0,0,0,8.19576-6.72155l7.41122,1.187a.6169.6169,0,0,0,.64168-.31837l4.24668-7.945a.61682.61682,0,0,0-.09187-.71049l-5.10438-5.50263a32.70991,32.70991,0,0,0,1.03526-10.54878l6.08385-4.40406a.6172.6172,0,0,0,.22861-.6789l-2.61513-8.62066a.61688.61688,0,0,0-.56731-.43752l-7.50509-.28176a32.71115,32.71115,0,0,0-6.72156-8.19581l1.187-7.41121a.61689.61689,0,0,0-.31828-.64173l-7.9451-4.24668a.61684.61684,0,0,0-.71044.09187l-5.50263,5.10438a32.71032,32.71032,0,0,0-10.54892-1.03531l-4.40387-6.08362a.61692.61692,0,0,0-.679-.22874l-8.6207,2.61513a.6172.6172,0,0,0-.43748.5673l-.2818,7.505a32.71421,32.71421,0,0,0-8.19581,6.72156l-7.41117-1.187a.61671.61671,0,0,0-.64168.31846l-4.24659,7.94483a.61714.61714,0,0,0,.09169.71058l5.10438,5.50263a32.71861,32.71861,0,0,0-1.03527,10.54878l-6.08362,4.404a.61714.61714,0,0,0-.22878.679Z"/><path class="cls-29" d="M1284.76084,109.67164a8.91708,8.91708,0,1,1,1.2533.41043A9.02376,9.02376,0,0,1,1284.76084,109.67164Zm6.11383-14.7875a7.21266,7.21266,0,0,0-1.00176-.328,7.07667,7.07667,0,1,0,1.00176.328Z"/><path class="cls-29" d="M1279.91926,121.90823a22.38371,22.38371,0,0,1-5.9467-3.61511.44639.44639,0,1,1,.57732-.681,21.3124,21.3124,0,0,0,33.49831-8.17576,21.29216,21.29216,0,0,0-38.488-18.091,21.29322,21.29322,0,0,0-2.49241,11.06386.44658.44658,0,1,1-.89208.044,22.18586,22.18586,0,1,1,13.74358,19.455Z"/><path class="cls-5" d="M1354.32119,80.38009l4.20433-.176a18.33068,18.33068,0,0,0,4.11805,4.27913l-.3338,4.192a.34571.34571,0,0,0,.20631.34433l4.626,2.01908a.34587.34587,0,0,0,.39276-.08285l2.84676-3.09523a18.33094,18.33094,0,0,0,5.93773.10972l2.72985,3.20235a.346.346,0,0,0,.38942.09755l4.69875-1.8434a.34555.34555,0,0,0,.21913-.33631l-.17587-4.20425a18.32989,18.32989,0,0,0,4.27909-4.11813l4.19207.33379a.34561.34561,0,0,0,.34428-.20631l2.019-4.626a.3456.3456,0,0,0-.0829-.39276L1391.837,73.03a18.32566,18.32566,0,0,0,.10973-5.93773l3.20248-2.72994a.34583.34583,0,0,0,.0975-.38927l-1.84344-4.69881a.34584.34584,0,0,0-.33631-.21918l-4.20429.176a18.327,18.327,0,0,0-4.11809-4.27909l.33388-4.19207a.34584.34584,0,0,0-.20631-.34432l-4.62611-2.019a.34563.34563,0,0,0-.39276.08285l-2.84671,3.09528a18.326,18.326,0,0,0-5.93778-.10977l-2.72989-3.2023a.34565.34565,0,0,0-.38937-.0976l-4.69871,1.84345a.34574.34574,0,0,0-.21917.33627l.17591,4.20428a18.3297,18.3297,0,0,0-4.27913,4.1181l-4.19207-.33385a.3454.3454,0,0,0-.34419.20641l-2.019,4.62593a.34574.34574,0,0,0,.08276.3928l3.09528,2.84671a18.331,18.331,0,0,0-.10977,5.93773l-3.20234,2.7299a.34582.34582,0,0,0-.09756.38941l1.8434,4.69876A.346.346,0,0,0,1354.32119,80.38009Z"/><path class="cls-29" d="M1371.82022,74.27647a4.93344,4.93344,0,1,1,1.068.30317h0A4.92771,4.92771,0,0,1,1371.82022,74.27647Zm1.14106-.13729.00407.00165Zm2.27442-8.1526a4.07368,4.07368,0,0,0-.88174-.25007,4.03541,4.03541,0,0,0-1.31958,7.96222h0a4.03652,4.03652,0,0,0,2.20132-7.71215Z"/><path class="cls-4" d="M1346.69318,75.86809a1.11541,1.11541,0,0,1-.67268-.82186c-.11705-.60767-.21478-1.22556-.29077-1.8368a1.11629,1.11629,0,0,1,2.21556-.27511c.06967.56231.15966,1.13075.26733,1.68958a1.11649,1.11649,0,0,1-1.51944,1.24419Z"/><path class="cls-4" d="M1346.32871,68.21784a1.11653,1.11653,0,0,1-.68636-1.13794c.06207-.654.14836-1.31647.25662-1.96942.09741-.58859.2145-1.17969.34776-1.75638a1.11617,1.11617,0,0,1,2.17513.50216c-.12282.53169-.23066,1.07643-.32057,1.61928-.09988.602-.17948,1.21274-.23666,1.8152a1.11712,1.11712,0,0,1-1.53592.9271Zm2.52166-9.13683c-.01936-.008-.03845-.01652-.05759-.02554a1.11636,1.11636,0,0,1-.52642-1.48822,28.05277,28.05277,0,0,1,1.85434-3.29225,1.11615,1.11615,0,0,1,1.8666,1.22432A25.858,25.858,0,0,0,1350.281,58.529,1.11613,1.11613,0,0,1,1348.85037,59.081Zm5.524-7.70221a1.11676,1.11676,0,0,1-.3537-1.83209,28.37261,28.37261,0,0,1,2.87454-2.44773,1.11618,1.11618,0,1,1,1.33038,1.79263,26.1312,26.1312,0,0,0-2.64754,2.25447A1.11608,1.11608,0,0,1,1354.37433,51.3788Zm7.838-5.32808a1.11621,1.11621,0,0,1-.03258-2.05081,28.29368,28.29368,0,0,1,3.53929-1.31121,1.11626,1.11626,0,0,1,.6335,2.14076,26.00383,26.00383,0,0,0-3.25865,1.20739A1.11334,1.11334,0,0,1,1362.21231,46.05072Zm9.192-2.30024a1.11634,1.11634,0,0,1,.34758-2.14653,28.2341,28.2341,0,0,1,3.77536-.0032,1.11624,1.11624,0,0,1-.14754,2.22759,26.00181,26.00181,0,0,0-3.47585.00275A1.11113,1.11113,0,0,1,1371.40435,43.75048Zm9.42086,1.01489a1.1162,1.1162,0,0,1,.73576-2.10413,28.16822,28.16822,0,0,1,3.5496,1.29138,1.11618,1.11618,0,0,1-.90353,2.04133,25.881,25.881,0,0,0-3.26661-1.18829A1.15548,1.15548,0,0,1,1380.82521,44.76537Z"/><path class="cls-4" d="M1390.74435,50.086a1.11327,1.11327,0,0,1-.29754-.18123c-.43318-.367-.88449-.72454-1.34119-1.06264a1.11608,1.11608,0,1,1,1.32764-1.79441c.49616.367.98642.75539,1.45687,1.154a1.11634,1.11634,0,0,1-1.14578,1.88427Z"/><path class="cls-5" d="M1400.31275,69.67777a1.11653,1.11653,0,0,1-.69163-.98967c-.022-.567-.06317-1.14134-.12295-1.70708a1.1163,1.1163,0,1,1,2.22031-.234c.06464.61468.10968,1.2387.13349,1.85471a1.11663,1.11663,0,0,1-1.53922,1.076Z"/><path class="cls-5" d="M1362.96,95.77361c-.661-.27163-1.3189-.572-1.95569-.89281a1.11624,1.11624,0,0,1,1.0046-1.99368,25.91667,25.91667,0,0,0,3.14893,1.33249,1.11621,1.11621,0,1,1-.73191,2.109C1363.93381,96.15776,1363.44057,95.97109,1362.96,95.77361Zm7.04834,1.838a1.11636,1.11636,0,0,1,.56039-2.14039,26.08516,26.08516,0,0,0,3.4142.19158,1.11618,1.11618,0,0,1,.02215,2.23226,28.28785,28.28785,0,0,1-3.7073-.20792A1.11443,1.11443,0,0,1,1370.00836,97.61165Zm9.31073-.48019a1.11622,1.11622,0,0,1,.17358-2.12066,25.94653,25.94653,0,0,0,3.27239-.984,1.11624,1.11624,0,0,1,.78263,2.09081,28.179,28.179,0,0,1-3.55523,1.069A1.11116,1.11116,0,0,1,1379.31909,97.13146Zm8.58541-3.62316a1.11621,1.11621,0,0,1-.17884-1.97065,26.236,26.236,0,0,0,2.74907-2.03575,1.11618,1.11618,0,0,1,1.44308,1.70323,28.3913,28.3913,0,0,1-2.98417,2.20965A1.11449,1.11449,0,0,1,1387.9045,93.5083Zm6.86122-6.31447a1.11674,1.11674,0,0,1-.46225-1.71188,25.90365,25.90365,0,0,0,1.89627-2.84657,1.11623,1.11623,0,0,1,1.93586,1.11189,28.1559,28.1559,0,0,1-2.0601,3.09267A1.11687,1.11687,0,0,1,1394.76572,87.19383Zm4.302-8.27436a1.11641,1.11641,0,0,1-.63922-1.36746,26.30467,26.30467,0,0,0,.81257-3.32388,1.11628,1.11628,0,1,1,2.19862.38781,28.58146,28.58146,0,0,1-.88183,3.60705,1.11634,1.11634,0,0,1-1.40015.72921C1399.12711,78.94245,1399.09694,78.93146,1399.06774,78.91947Z"/><path class="cls-5" d="M1356.20409,91.75389a1.12552,1.12552,0,0,1-.28075-.167c-.47753-.38882-.9492-.79925-1.40179-1.22021a1.1162,1.1162,0,1,1,1.52031-1.6347c.41674.38763.851.76546,1.29083,1.12329a1.1164,1.1164,0,0,1-1.1286,1.89865Z"/><path class="cls-29" d="M1368.90159,81.39851q-.12942-.05322-.258-.10913h0a12.72222,12.72222,0,0,1-2.33617-1.32915.44645.44645,0,0,1,.52171-.72463,11.81394,11.81394,0,0,0,2.17165,1.23512,11.73224,11.73224,0,0,0,15.4464-6.06q.05245-.11988.10194-.24046a11.73271,11.73271,0,0,0-21.6081-9.14594q-.05138.11715-.09971.23506a11.71142,11.71142,0,0,0-.78643,5.95142.44652.44652,0,0,1-.88567.11449,12.60455,12.60455,0,0,1,.84612-6.40515q.05218-.127.107-.253a12.62578,12.62578,0,0,1,23.25293,9.84191q-.0533.12976-.10945.25886a12.6259,12.6259,0,0,1-16.36421,6.63055Z"/><path class="cls-4" d="M1312.824,64.19853a.4466.4466,0,0,1-.27411-.45959c.03969-.37921.09316-.76125.15916-1.13574a.44641.44641,0,1,1,.87936.15444c-.06221.3544-.11283.71566-.15037,1.07427a.44718.44718,0,0,1-.614.36662Z"/><path class="cls-4" d="M1313.51123,60.94029a.4467.4467,0,0,1-.255-.54958c.13367-.41528.28564-.83088.45186-1.2354q.18222-.44337.39211-.88133a.44659.44659,0,1,1,.8052.38654q-.19891.41431-.37138.83422c-.15738.383-.30116.7764-.42759,1.16948a.44657.44657,0,0,1-.56181.28834Zm1.91293-3.99015a.44661.44661,0,0,1-.20352-.65876,16.70271,16.70271,0,0,1,1.38014-1.81268.44656.44656,0,0,1,.67172.58859,15.78367,15.78367,0,0,0-1.30617,1.71531A.44626.44626,0,0,1,1315.42416,56.95014Zm2.91588-3.32832a.44655.44655,0,0,1-.122-.75045,16.69769,16.69769,0,0,1,1.8217-1.37.44646.44646,0,1,1,.48665.74866,15.81541,15.81541,0,0,0-1.72411,1.2966A.44611.44611,0,0,1,1318.34,53.62182Zm3.711-2.41193a.44644.44644,0,0,1-.02014-.817,16.88849,16.88849,0,0,1,2.1224-.8274.44646.44646,0,0,1,.26742.85193,15.98569,15.98569,0,0,0-2.00965.78364A.44561.44561,0,0,1,1322.051,51.20989Zm4.22232-1.323a.44648.44648,0,0,1,.09476-.8534,16.73267,16.73267,0,0,1,2.26614-.22627.44647.44647,0,1,1,.02778.8925,15.84652,15.84652,0,0,0-2.14483.21432A.4443.4443,0,0,1,1326.27332,49.88687Zm14.22729,4.57833a.44506.44506,0,0,1-.147-.09883,15.73092,15.73092,0,0,0-1.62-1.42354.44649.44649,0,1,1,.54195-.70971,16.57863,16.57863,0,0,1,1.712,1.50475.44659.44659,0,0,1-.487.72733Zm-9.80831-4.71556a.44661.44661,0,0,1,.21739-.857,16.60246,16.60246,0,0,1,2.24366.397.44644.44644,0,0,1-.2156.86645,15.77424,15.77424,0,0,0-2.12282-.37555A.44409.44409,0,0,1,1330.6923,49.74964Zm6.29222,2.02938a.46074.46074,0,0,1-.05109-.02476q-.39226-.22241-.80167-.42494c-.33105-.1636-.67039-.317-1.00853-.45593l-.13454-.05461a.44651.44651,0,0,1,.33215-.829l.14181.05764c.3571.14675.71525.30876,1.06462.48133q.43222.21369.84657.44856a.4465.4465,0,0,1-.38932.80167Z"/><path class="cls-4" d="M1342.5988,57.07612a.44579.44579,0,0,1-.20517-.17084c-.195-.30212-.40319-.60172-.61907-.89034a.44654.44654,0,0,1,.71525-.5348c.2281.30519.44828.62173.65432.94116a.4465.4465,0,0,1-.54533.65482Z"/><path class="cls-5" d="M1344.665,70.03112a.44632.44632,0,0,1-.26115-.52711c.09191-.34689.17312-.70289.24155-1.05807a.44642.44642,0,1,1,.8767.169c-.07209.375-.15806.751-.25533,1.11789a.44741.44741,0,0,1-.60177.29833Z"/><path class="cls-5" d="M1322.12657,80.60824l-.01922-.00834q-.17826-.08322-.35554-.17065a16.87911,16.87911,0,0,1-1.60875-.90769.44638.44638,0,1,1,.48074-.75228,16.081,16.081,0,0,0,1.52306.85926q.16788.08274.3375.16177a.4465.4465,0,0,1-.35779.81793Zm2.03323.78656a.44648.44648,0,0,1,.3029-.83907,15.73487,15.73487,0,0,0,2.06262.49269.44642.44642,0,1,1-.14827.88045,16.606,16.606,0,0,1-2.17985-.52056C1324.18448,81.40423,1324.17193,81.39979,1324.1598,81.3948Zm-5.7012-3.13185a.44754.44754,0,0,1-.11907-.07274,16.60187,16.60187,0,0,1-1.60737-1.56265.44647.44647,0,1,1,.6643-.59669,15.70667,15.70667,0,0,0,1.52081,1.47843.44663.44663,0,0,1-.45867.75365Zm9.99329,3.85415a.44666.44666,0,0,1,.18374-.85953,15.73867,15.73867,0,0,0,2.1181-.07636.44652.44652,0,1,1,.09215.88828,16.70466,16.70466,0,0,1-2.23812.0808A.45028.45028,0,0,1,1328.45189,82.1171Zm4.32729-.44856a.4465.4465,0,0,1,.06431-.84713,15.97042,15.97042,0,0,0,2.02376-.6355.4464.4464,0,0,1,.32368.83207,16.82,16.82,0,0,1-2.13746.6713A.44468.44468,0,0,1,1332.77918,81.66854Zm4.05561-1.57872a.44648.44648,0,0,1-.04592-.80373,15.82566,15.82566,0,0,0,1.78343-1.14847.44642.44642,0,1,1,.53293.71635,16.69237,16.69237,0,0,1-1.88473,1.21384A.44569.44569,0,0,1,1336.83479,80.08982Zm3.49284-2.5986a.44683.44683,0,0,1-.1425-.73219,15.7049,15.7049,0,0,0,1.412-1.58394.44655.44655,0,1,1,.7054.54776,16.655,16.655,0,0,1-1.49252,1.67434A.44708.44708,0,0,1,1340.32763,77.49122Zm2.67171-3.43791a.44652.44652,0,0,1-.217-.63739c.17826-.307.34863-.62465.50674-.94458.15414-.31192.30034-.63391.43446-.95686a.4465.4465,0,0,1,.58209-.24183l.00142.00059a.44635.44635,0,0,1,.24128.58351c-.14158.34108-.29589.681-.45876,1.01027-.16681.33756-.34689.67319-.535.99728A.4466.4466,0,0,1,1342.99934,74.05331Z"/><path class="cls-5" d="M1315.54011,75.01039a.44489.44489,0,0,1-.19959-.16241c-.21317-.31457-.41834-.64123-.61005-.97031a.44658.44658,0,0,1,.772-.44925c.18133.31187.37564.62081.57751.91872a.44651.44651,0,0,1-.53983.66325Z"/><path class="cls-5" d="M1317.66242,70.34981a.19475.19475,0,0,0,.17907.13815l2.36918.0889a10.32685,10.32685,0,0,0,2.12171,2.58725l-.37467,2.33942a.19479.19479,0,0,0,.10052.20261l2.508,1.34055a.19486.19486,0,0,0,.22426-.029l1.73706-1.61126a10.32527,10.32527,0,0,0,3.33.32679l1.39012,1.92044a.19477.19477,0,0,0,.21432.07219l2.72133-.82548a.19471.19471,0,0,0,.13811-.17912l.08894-2.36913a10.32778,10.32778,0,0,0,2.58721-2.12176l2.33942.37467a.19475.19475,0,0,0,.20261-.10047l1.34059-2.508a.19475.19475,0,0,0-.02907-.2243l-1.61126-1.737a10.32521,10.32521,0,0,0,.32679-3.32987l1.92053-1.39031a.19467.19467,0,0,0,.0721-.21428l-.82552-2.72124a.19467.19467,0,0,0-.17908-.13815l-2.36913-.08894a10.32556,10.32556,0,0,0-2.12176-2.58716l.37472-2.33952a.19487.19487,0,0,0-.10052-.20256l-2.508-1.34055a.1948.1948,0,0,0-.22431.029l-1.73706,1.61126a10.32651,10.32651,0,0,0-3.32992-.32684l-1.39017-1.92039a.1946.1946,0,0,0-.21432-.07219l-2.72133.82548a.19489.19489,0,0,0-.13811.17912l-.08894,2.36913a10.32509,10.32509,0,0,0-2.58716,2.12176l-2.33952-.37467a.19475.19475,0,0,0-.20256.10047l-1.3405,2.508a.19482.19482,0,0,0,.02893.2243l1.61136,1.73706a10.32765,10.32765,0,0,0-.32684,3.32992l-1.92044,1.39017a.19488.19488,0,0,0-.07219.21437Z"/><path class="cls-29" d="M1328.06664,68.11269a2.97315,2.97315,0,1,1,.41487.13587h0A2.97552,2.97552,0,0,1,1328.06664,68.11269Zm.52244-.29745.004.00165Zm1.40326-4.37187a2.125,2.125,0,0,0-.29291-.0959,2.0786,2.0786,0,1,0-1.00273,4.03446h0a2.07887,2.07887,0,0,0,1.29564-3.93856Z"/><path class="cls-29" d="M1326.48083,72.10458a7.40063,7.40063,0,0,1-.67177-.31663l-.00022-.00009-.01323-.00733a7.36556,7.36556,0,0,1-1.27344-.86672.44641.44641,0,1,1,.57732-.681,6.47541,6.47541,0,0,0,1.13044.76743h0a6.4171,6.4171,0,0,0,8.631-2.54c.01716-.0309.03428-.0623.051-.09365a6.51083,6.51083,0,0,0,.28083-.595,6.4157,6.4157,0,0,0-11.59623-5.45333,6.46318,6.46318,0,0,0-.2779.58959,6.39,6.39,0,0,0-.47323,2.74377.44659.44659,0,1,1-.89209.044,7.29177,7.29177,0,0,1,.5392-3.12677q.14076-.34236.31631-.67163a7.3088,7.3088,0,0,1,13.21038,6.21262,7.46579,7.46579,0,0,1-.31956.67785A7.31892,7.31892,0,0,1,1326.48083,72.10458Z"/><path class="cls-4" d="M177.47315,174.60168c-2.7732-12.01741-9.67277-7.89323-21.228-11.59087-11.54876-3.69563-8.17114-16.88454-15.34148-20.9532-9.55979-5.42458-18.33788-.38932-24.28508,6.73044-9.881,11.82923-16.64138,2.20928-28.453,7.00344-6.76674,2.74651-3.88015,6.59406-13.03382,8.14317-6.39554,1.08232-13.31832-1.46625-19.62226.09141-4.66809,1.15392-8.05487,3.17781-9.08776,7.3068q1.977.84978,4.08921,1.54109c17.64771,5.80837,41.7225,3.869,59.55964,4.72513C116.15132,177.891,179.43863,183.11861,177.47315,174.60168Z"/><path class="cls-4" d="M474.61772,38.21771a12.27555,12.27555,0,0,0-11.98761-3.76c-4.83083,1.10311-7.56136,5.31875-12.057,7.00449-7.84444,2.94129-18.69237-2.87019-24.64988,4.712-7.28652,9.27379-12.917,2.31846-12.917,8.61137s50.34329,1.656,75.18387,1.98722c3.58869.04784,19.16949-.19088,12.46254-6.99259-2.08281-2.11219-5.05472-2.466-7.82494-2.96028-3.61222-.64444-12.201-.9981-14.81716-3.564-1.40825-1.38106-1.94991-3.36553-3.22184-4.84368Q474.704,38.314,474.61772,38.21771Z"/><path class="cls-4" d="M209.89327,56.73224a12.27555,12.27555,0,0,0-11.98761-3.76c-4.83083,1.10311-7.56136,5.31875-12.057,7.0045-7.84444,2.94128-18.69237-2.8702-24.64988,4.712-7.28652,9.27378-12.917,2.31845-12.917,8.61136s50.34329,1.656,75.18387,1.98723c3.58869.04783,19.16949-.19089,12.46254-6.9926-2.08281-2.11219-5.05472-2.466-7.82494-2.96028-3.61222-.64443-12.201-.9981-14.81716-3.564-1.40825-1.38106-1.94991-3.36554-3.22184-4.84369Q209.97952,56.82848,209.89327,56.73224Z"/><path class="cls-11" d="M334.5501,623.62538c-.02778.15985.21913.21812.29031.07228,2.97768-6.1007,28.24759-59.506,17.17861-92.95157-11.16667-33.7406-76.25874-92.14119-61.93628-140.69525a1.1582,1.1582,0,0,0-2.052-1.003c-13.14954,18.37262-46.00612,72.0528-19.40789,118.42646C301.24748,564.355,353.44585,514.80719,334.5501,623.62538Z"/><path class="cls-30" d="M283.48661,421.89582a37.63684,37.63684,0,0,0-4.12935,10.17388,54.05916,54.05916,0,0,0-1.04058,5.40137,51.24386,51.24386,0,0,0-.38227,5.50186,48.97134,48.97134,0,0,0,1.05248,10.99272,56.0586,56.0586,0,0,0,3.29916,10.54466,62.65305,62.65305,0,0,0,5.14718,9.7359c.96221,1.56343,2.04092,3.04034,3.09912,4.53351.544.73438,1.11661,1.44514,1.67416,2.16872l.84205,1.08059.88439,1.03476a125.19692,125.19692,0,0,0,15.45313,15.21386c5.48921,4.63444,11.227,8.81795,16.18485,13.6019a54.72273,54.72273,0,0,1,6.72233,7.70331,47.52941,47.52941,0,0,1,4.9459,8.90817,62.78175,62.78175,0,0,1,3.18088,9.82278l.57266,2.5418c.17747.85107.31036,1.7139.475,2.57.34739,1.70873.541,3.45133.79677,5.18317a183.73281,183.73281,0,0,1,1.25239,21.09715l.00032.01731a.9914.9914,0,0,0,1.98168.0341l.24568-5.35148c.0585-1.78627.05873-3.57551.08739-5.36521-.00971-1.79043-.057-3.58311-.08812-5.377-.11188-1.79236-.17944-3.58842-.33279-5.38252a77.0286,77.0286,0,0,0-4.49927-21.28328,51.33345,51.33345,0,0,0-5.13711-9.81619,55.86756,55.86756,0,0,0-7.07682-8.48955c-2.59623-2.582-5.34324-4.94106-8.08581-7.23319-2.74862-2.287-5.48112-4.53109-8.15887-6.80363a120.37267,120.37267,0,0,1-14.831-14.7029A74.823,74.823,0,0,1,286.42749,462.699a53.93179,53.93179,0,0,1-4.89917-19.77767,47.61392,47.61392,0,0,1,1.7214-15.31923,33.68577,33.68577,0,0,1,1.73271-4.83522l.02573-.05484a.86455.86455,0,0,0-1.52155-.81618Z"/><path class="cls-31" d="M700.25906,324.34675c-50.77-48.15214-136.67338-89.80452-212.03-89.90953l-6.48182,78.94657q3.029-.0894,6.07885-.0932c62.74249,0,123.63745,35.382,160.72977,80.21226,10.27491-21.60673,31.5624-35.82089,41.57643-57.78284Z"/><polygon class="cls-31" points="517.521 204.825 395.536 264.1 412.882 277.07 523.026 277.07 528.245 208.099 517.521 204.825"/><path class="cls-11" d="M517.52069,204.82538,505.82147,359.0958,385.96058,270.44758a1.336,1.336,0,0,1,.21409-2.27754Z"/><path class="cls-11" d="M641.23381,433.42892c11.34762-25.74574,32.4163-77.6977,50.54265-98.779-51.58827-54.8151-133.70005-95.36817-214.90254-95.48137l-6.48178,78.94656q3.029-.0894,6.07882-.0932C542.65872,318.02189,629.69054,365.35927,641.23381,433.42892Z"/><path class="cls-29" d="M675.85335,339.60757a.42568.42568,0,0,1-.32922-.15509c-14.30611-17.33543-35.91486-34.46963-62.49016-49.55023a.42651.42651,0,1,1,.42109-.74184c26.6647,15.13132,48.3553,32.33427,62.7271,49.74912a.42652.42652,0,0,1-.32881.698Z"/><path class="cls-29" d="M604.54711,285.19246a.42357.42357,0,0,1-.19894-.04948,348.82842,348.82842,0,0,0-50.47733-21.81735.42653.42653,0,0,1,.27493-.80754,349.69968,349.69968,0,0,1,50.60116,21.87073.42654.42654,0,0,1-.19982.80364Z"/><path class="cls-29" d="M543.81309,260.065a.42759.42759,0,0,1-.12405-.0185,262.05021,262.05021,0,0,0-29.98794-7.29485.42653.42653,0,0,1,.14932-.83989,262.91093,262.91093,0,0,1,30.08627,7.31847.42659.42659,0,0,1-.1236.83477Z"/><polygon class="cls-31" points="705.913 13.212 691.73 11.792 695.083 18.714 629.691 131.627 746.895 131.627 772.576 139.168 783.767 132.919 705.913 13.212"/><path class="cls-31" d="M667.74919,121.39031V266.60867c12.7956,10.4533,14.37249,51.45209,26.01765,64.20082,12.92543-12.59268,37.53374-39.197,53.74143-48.8489V121.39031Z"/><path class="cls-11" d="M620.38645,139.30412H772.57571l-80.15015-127.525a.40646.40646,0,0,0-.69584.01254L619.12757,137.12A1.45489,1.45489,0,0,0,620.38645,139.30412Z"/><path class="cls-11" d="M653.24756,129.06766V300.56328c14.50163,10.4533,25.51238,25.41566,37.15755,38.16439C703.33048,326.135,718.505,300.3122,734.28617,290.35V129.06766Z"/><path class="cls-29" d="M654.10064,135.892H628.56693a1.365,1.365,0,0,1-1.19045-2.033l62.08715-110.6722a.42646.42646,0,1,1,.74386.41729l-62.08715,110.6722a.51229.51229,0,0,0,.44659.76268h25.53371a.42652.42652,0,0,1,0,.853Z"/><path class="cls-7" d="M632.13191,545.19283c2.18667,34.82041,3.22789,61.76041,3.722,80.16022a2.45659,2.45659,0,0,0,2.45629,2.39h0a3.18626,3.18626,0,0,0,3.18779-3.14577c.57691-45.44729.49992-131.31746-7.15066-179.358-17.56074-110.269-77.00612-61.86239-100.87052-123.90038a2.84251,2.84251,0,0,0-5.34187.11055c-7.618,22.80514-24.61883,91.25254,30.29775,127.39327C624.977,492.63581,627.71275,474.824,632.13191,545.19283Z"/><path class="cls-30" d="M531.707,329.82585a42.75649,42.75649,0,0,0,3.04209,11.65565,61.51606,61.51606,0,0,0,5.70734,10.61914,73.14512,73.14512,0,0,0,16.74757,17.2193,113.74451,113.74451,0,0,0,10.10389,6.715l5.33139,3.266c1.75729,1.122,3.47173,2.31549,5.2093,3.47023a146.98665,146.98665,0,0,1,19.39859,15.86859,123.9653,123.9653,0,0,1,15.836,19.475l3.249,5.38055c.57105.8794,1.00025,1.8385,1.4852,2.76592l1.42084,2.80007,1.41887,2.7991,1.21558,2.892c.79027,1.93522,1.64436,3.84554,2.37934,5.79926l1.98223,5.94139c.30734.99654.7104,1.96479.93845,2.9839l.77467,3.03c.50527,2.02183,1.05426,4.03437,1.48039,6.071l1.08178,6.14852.53974,3.0712.34222,3.09793.67176,6.19188c.13683,1.02914.18192,2.06582.22252,3.10247l.12621,3.10832.24632,6.21a.71914.71914,0,0,1-1.4349.09214l-.00366-.04426-.53109-6.14235-.26248-3.06763c-.07512-1.02346-.15449-2.04609-.32528-3.05879l-.87309-6.08792-.44119-3.0403-.63605-3.0045-1.26951-6.0026c-.48325-1.98489-1.10663-3.93375-1.62921-5.90619l-.81806-2.9498c-.24215-.99274-.65775-1.93-.97782-2.89725l-2.05273-5.75907c-.75617-1.88995-1.6282-3.73243-2.435-5.5999l-1.23815-2.78858-1.43663-2.69089-1.435-2.69c-.48875-.8902-.92138-1.81227-1.495-2.65344l-3.25549-5.149a124.88179,124.88179,0,0,0-15.55677-18.68343,151.04052,151.04052,0,0,0-18.94308-15.34785c-1.70181-1.12356-3.37716-2.28472-5.09925-3.378l-5.23072-3.18546a114.03622,114.03622,0,0,1-10.43686-7.0673,70.12174,70.12174,0,0,1-17.013-18.62562,60.23507,60.23507,0,0,1-2.95868-5.61231,29.3661,29.3661,0,0,1-1.25554-2.90947c-.34886-.9992-.78208-1.96191-1.05729-2.98555a48.9462,48.9462,0,0,1-1.53129-6.13457,30.13737,30.13737,0,0,1-.54506-6.32545.61164.61164,0,0,1,1.22-.05178Z"/><path class="cls-31" d="M927.45934,236.93911c-116.957.15989-217.09914,65.72185-260.40082,169.366h-.00114l-.00147.03044c-.03932.09082-.0797.19331-.119.28413l.05273.00838c-22.72357,49.91621-9.09764,134.40651-7.3073,221.037l77.89331.00348h3.32594a6.22478,6.22478,0,0,0,6.21545-6.5606c-3.53971-65.66935-6.58738-131.73572,2.71158-186.90215a99.51854,99.51854,0,0,1,22.00938-47.493,203.27932,203.27932,0,0,1,156.02428-72.24254c2.03377,0,4.05954-.02211,6.07881.03639Z"/><path class="cls-11" d="M910.90517,231.46907a1.91824,1.91824,0,0,0-1.9214-1.76178c-116.194.82919-215.5423,67.09884-258.62462,172.53492H650.358l-.00146.00471c-.03933.09251-.0797.18375-.119.27626l.05278.002c-22.37165,50.0571-9.511,134.2472-7.39889,221.04795a4.19489,4.19489,0,0,0,4.19078,4.0985h82.29155a1.91769,1.91769,0,0,0,1.9121-2.01753c-3.7317-71.76949-8.02818-134.88642,1.76-194.53692a103.39115,103.39115,0,0,1,22.40575-49.26171A201.79689,201.79689,0,0,1,911.163,308.64712c1.32988,0,2.65633-.00407,3.9798.00971a1.91213,1.91213,0,0,0,1.92589-2.06912Z"/><polygon class="cls-31" points="1006.367 276.281 1006.668 276.058 1003.778 260.094 1003.504 259.962 1003.453 259.669 1003.168 259.8 885.253 202.933 893.386 310.178 891.331 311.121 881.812 349.633 893.933 359.38 896.949 357.152 896.953 357.203 1006.261 276.36 1006.367 276.281 1006.367 276.281"/><polygon class="cls-11" points="870.113 195.363 881.812 349.633 1003.453 259.669 870.113 195.363"/><path class="cls-32" d="M1211.93463,322.47731c-6.34143-9.50043-13.78812-12.66244-24.82222-11.38749-23.19154,2.67967-45.20111,14.0321-67.706,19.8158-15.32532,3.93878-31.45071,6.50622-47.24418,4.13086q-7.70016-1.23822-15.32852-2.24554c-.11792-.01675-.23286-.03378-.35032-.04838-58.73366-7.75513-112.64043-5.84463-133.6166-4.61463a61.1986,61.1986,0,0,0-16.46427,3.247c-57.60336,19.96035-110.79053,46.50627-145.56585,30.79478-8.06137,10.70012-5.41433,32.1297-11.06917,69.53874,63.30146,47.1139,135.23405,3.88679,161.26732-1.93371-5.69782,42.28481-6.57878,105.40948,9.55737,193.22979a8.13648,8.13648,0,0,0,3.16014,5.10786c20.82035,15.23446,93.856,21.55048,141.51527-.04394a8.56458,8.56458,0,0,0,4.97291-7.13129c3.18262-39.7075,12.64011-109.51151,30.63659-160.79733,16.33-7.24917,31.56977-16.16828,47.26212-24.47162a182.48586,182.48586,0,0,0,43.78068-32.35785c12.58055-12.61374,23.59473-27.76781,26.81058-45.29028C1220.93985,345.982,1218.78014,332.73294,1211.93463,322.47731Z"/><path class="cls-33" d="M583.40253,221.45444s53.03721,11.69749,85.29587,26.59169a29.45581,29.45581,0,0,1,14.42769,14.50542c9.64764,21.13383,35.53145,78.32177,91.51077,103.61246-8.06146,10.70007-18.06047,28.7649-23.71522,66.17417C717.3001,407.314,688.2741,365.52269,674.33881,296.9836c0,0-10.61154,5.76868-23.84911-.66045-6.99392-3.39667-15.06925-8.21463-21.13135-12.00355a27.69616,27.69616,0,0,1-12.28557-16.49873c-2.307-9.051-.94821-17.0101-.94821-25.54814l-27.26193-8.44616S580.66724,230.73313,583.40253,221.45444Z"/><path class="cls-34" d="M660.19209,288.76792a.426.426,0,0,1-.33124-.15756c-.19267-.23716-19.35419-23.7571-25.8795-27.44421-3.27133-1.84853-5.11065-3.8011-5.62252-5.96937-.4135-1.75161.059-3.60274,1.44414-5.659a.426.426,0,0,1,.43766-.1799l23.15167,4.63952a.42585.42585,0,0,1,.19405.09453l12.3085,10.56366a.42654.42654,0,0,1-.55563.64732l-12.22382-10.491-22.76033-4.56111a6.10609,6.10609,0,0,0-1.16587,4.75c.44769,1.89718,2.20141,3.72163,5.21191,5.42266,6.66479,3.76612,25.33033,26.6755,26.1218,27.64893a.42661.42661,0,0,1-.33082.69556Z"/><path class="cls-33" d="M1052.16181,259.816s5.16376,58.79536,10.26159,76.90336c.77343,2.74724-4.16671,7.92083-6.66255,9.34689-8.65206,4.94371-33.58913,9.90957-54.68688.31292-4.66136-2.12029-6.09172-8.1184-5.87726-13.19129l2.50083-59.1558Z"/><path class="cls-35" d="M996.449,181.49981s-18.5186,42.53992-19.762,64.86762c-1.2436,22.32776-6.05491,36.81579,19.762,41.31222,25.817,4.49611,47.56539-8.36463,59.3476-30.60582,0,0,18.46079-34.271,14.31939-48.30609C1065.97478,194.73266,996.449,181.49981,996.449,181.49981Z"/><path d="M1046.97453,241.08265l-1.46964-.64782a3.5441,3.5441,0,0,1-1.73142-4.86786c3.64042-7.034,10.73756-23.15272,1.56947-26.91294-11.81595-4.84607-58.61981-14.39044-68.71784-30.9978-9.70552-15.96147-1.10613-36.56466,11.81742-42.42493a1.77937,1.77937,0,0,1,2.32816.75864l1.077,2.0379a1.75444,1.75444,0,0,0,3.23626-.332v-.00032a1.7458,1.7458,0,0,1,3.15877-.45263c3.10416,4.96865,11.48435,13.02375,33.89477,17.15983,31.84965,5.87795,52.9068,18.76685,53.431,40.77522a1.75693,1.75693,0,0,0,2.71506,1.44789c2.35156-1.433,6.11484-2.10546,11.14415,2.12345,8.74682,7.35487,5.1676,26.43344-14.00725,42.12707a1.74287,1.74287,0,0,0,.083,2.80982c3.47622,2.26275,8.65837,7.64737-4.76894,14.825-13.88864,7.42407-24.25949,6.81511-28.25285,6.15589a1.74679,1.74679,0,0,1-1.41713-2.10921l4.26238-19.34358a1.75416,1.75416,0,0,0-1.71316-2.13169Z"/><path class="cls-35" d="M1046.17258,245.1644s7.06464-27.17382,19.248-19.5546c12.18326,7.61894-6.32216,30.447-16.117,31.464Z"/><path class="cls-29" d="M1080.69641,197.70434a.21338.21338,0,0,1-.21281-.203c-.943-19.40647-27.18032-28.5991-50.32911-36.70958-16.10923-5.644-31.325-10.9751-35.16185-18.99572a.21332.21332,0,0,1,.38488-.18407c3.7604,7.86073,18.89484,13.16332,34.918,18.77728,23.27572,8.155,49.65725,17.398,50.6141,37.0914a.21313.21313,0,0,1-.20274.22334Z"/><path class="cls-33" d="M1023.85385,193.07356l-67.32364,6.63119s57.75231,16.28913,61.99079,10.46158c0,0,46.58171,27.407,73.37192,67.88028,19.787-11.822,37.45088-27.83848,22.2048-47.58951C1091.28992,218.54561,1061.06294,197.38693,1023.85385,193.07356Z"/><path class="cls-33" d="M1020.16449,206.49652a5.3371,5.3371,0,0,0,5.34-6.96c-3.01736-9.37921-12.448-23.22226-41.92236-18.47342-11.06268,1.78229-25.11752,8.00946-36.92656,14.12151a6.65484,6.65484,0,0,0,3.31473,12.55976C973.58155,206.84341,1006.12658,205.8384,1020.16449,206.49652Z"/><path class="cls-32" d="M1155.54273,379.23958a55.63817,55.63817,0,0,0,14.72172,8.99153c6.66881,2.92454,13.82409,5.08214,21.10434,4.92719,32.75788-.69713,32.07834-53.06413,25.52067-75.4805-7.03544-24.04939-26.10866-42.00774-45.85872-56.26639-17.55095-12.67095-36.99775-22.6225-56.933-30.95431,6.88543,12.40445-5.08094,29.37266-22.20466,47.58974,8.86254,14.70876,16.55779,30.07427,24.61554,45.22756,7.99051,15.02686,17.72343,28.40666,27.61565,42.2699C1147.5844,370.39352,1151.08489,375.288,1155.54273,379.23958Z"/><path class="cls-11" d="M1322.80434,477.13412s-19.14921,23.32187-26.19385,17.70214,11.97447-36.25342,11.97447-36.25342Z"/><path class="cls-11" d="M1322.02061,628.56369a1.327,1.327,0,0,1,.03524-.34676c1.72942-6.8564,10.31291-11.12693,10.31291-11.12693l3.40138.2666c1.95559,6.04315,1.70428,9.74931,1.39021,11.40017-.0087.04619-.02275.09027-.035.135A80.71513,80.71513,0,0,1,1322.02061,628.56369Z"/><path class="cls-36" d="M1337.13774,612.29053l-1.44053,6.93482a1.134,1.134,0,0,1-.969.93315,9.61833,9.61833,0,0,1-2.23181-.03557,1.4253,1.4253,0,0,1-1.12884-1.6749l1.00126-6.1575Z"/><path class="cls-11" d="M1291.891,628.26138a.963.963,0,0,1,.08167-.15554c1.82151-2.54514,6.46081-7.61332,15.62817-9.81148l4.39792-.13883s1.95829,3.40371,1.99524,9.70852a20.304,20.304,0,0,1-6.704.95813C1301.48311,628.98464,1294.59534,628.48477,1291.891,628.26138Z"/><path class="cls-37" d="M1312.81425,611.49064c-.04885.32776-.65167,5.31006-.885,7.2418a.95688.95688,0,0,1-.80717.86439,10.073,10.073,0,0,1-3.02085-.04651,1.30113,1.30113,0,0,1-.98592-1.30549V610.424Z"/><path class="cls-32" d="M1316.34252,520.56627s-10.60729,40.31155-10.41553,91.03959a1.9637,1.9637,0,0,0,1.55793,1.91366,22.87764,22.87764,0,0,0,4.91716.569,1.82208,1.82208,0,0,0,1.73633-1.52127c1.4873-8.722,10.02268-57.8581,14.88577-65.8352,0,0,3.19951,43.76274,2.17683,66.46718a1.076,1.076,0,0,0,.94926,1.11913,18.079,18.079,0,0,0,3.94762-.011,1.44042,1.44042,0,0,0,1.2831-1.22249c1.05935-7.38178,7.15706-51.32062,6.89779-82.9726-.0146-1.78494-4.72032-9.546-4.72032-9.546Z"/><path class="cls-11" d="M1309.03659,458.78059c14.59789-2.11114,30.6332-.174,38.41588.80639a10.26507,10.26507,0,0,1,6.48526,3.48158c6.58546,7.62105,21.03636,28.48626,4.02718,49.511a31.6939,31.6939,0,0,1-7.37043-5.38805c1.8818-5.30479,2.036-12.08361-1.9078-20.39642a19.45245,19.45245,0,0,1-.504,1.953,120.96807,120.96807,0,0,0-5.71338,34.85309,1.09033,1.09033,0,0,1-.684,1.01911c-7.15381,2.86677-20.92467,1.16056-25.54735.47168a1.55453,1.55453,0,0,1-1.30058-1.76434c1.62605-11.78089-3.89489-29.00857-8.28544-40.31654C1304.91689,478.54242,1308.128,460.03334,1309.03659,458.78059Z"/><path class="cls-38" d="M1332.30375,441.65683l2.01543,16.66028a1.5571,1.5571,0,0,1-1.10434,1.684c-2.18764.63963-6.87061,1.60834-11.14992-.15284a1.82019,1.82019,0,0,1-1.07427-2.07081l2.548-11.72619Z"/><path class="cls-39" d="M1317.44782,430.83943c-1.58151.26143-1.24712,17.19609.66009,18.21469,4.28257,1.17548,13.05314-2.80487,14.616-5.92985l-1.33355-12.01078S1321.93716,430.0974,1317.44782,430.83943Z"/><path class="cls-40" d="M1326.36589,433.40448a9.85573,9.85573,0,0,1,1.52726,3.85905c.15811.78021-.28266,2.53063.43277,3.04639.48422.34908,1.52406.02852,2.05685-.03855a1.78236,1.78236,0,0,1,1.61433.33051,1.70342,1.70342,0,0,1,.30734.92417,28.58149,28.58149,0,0,1,.20466,3.82247c-.00562.41628.02047.91231.37587,1.12915a.90476.90476,0,0,0,.56437.09471,1.39015,1.39015,0,0,0,1.238-.96875c.16369-.70495-.39761-1.35428-.586-2.0531a4.08907,4.08907,0,0,1-.09984-.98816,7.03225,7.03225,0,0,1,.76821-3.80288,15.86707,15.86707,0,0,0,1.71065-3.53111c.48426-1.93609,1.05687-3.783.27626-5.76777a6.02856,6.02856,0,0,0-2.614-2.79658,16.49438,16.49438,0,0,1-3.21869-3.33569c-1.13583-1.35854-3.687-1.30682-5.271-.8811-1.34009.36021-2.72527,1.24556-4.1451,1.185a8.63373,8.63373,0,0,1-1.77913-.39249c-1.84788-.481-4.949-.18452-5.478,2.11915a5.33638,5.33638,0,0,1-.24893,1.11451c-.2027.42883-.625.71168-.8827,1.10988-1.04337,1.61228.09645,3.188,1.47641,4.10043,2.20956,1.46089,3.54283.5938,5.91324.05278a7.45709,7.45709,0,0,1,2.72532-.22037A4.92852,4.92852,0,0,1,1326.36589,433.40448Z"/><path class="cls-41" d="M1329.40989,442.22916s-.79421-4.29254.85528-5.04619,3.77166.11846,2.81146,2.98028C1331.8823,443.72288,1329.40989,442.22916,1329.40989,442.22916Z"/><path class="cls-29" d="M1316.66533,432.003l-.01785-.00087c-.0168-.0016-1.67659-.18956-1.93568-2.57324a5.77,5.77,0,0,1,1.15424-4.18754,2.57441,2.57441,0,0,1,1.82256-.984.18589.18589,0,0,1,.19309.1739.18373.18373,0,0,1-.17386.19313,2.21723,2.21723,0,0,0-1.562.85505,5.46542,5.46542,0,0,0-1.06881,3.90972c.22709,2.08985,1.59208,2.246,1.60572,2.24732a.18371.18371,0,0,1-.01744.36657Z"/><path class="cls-29" d="M1334.56531,427.83923l-.00622-.00014a3.65051,3.65051,0,0,1-2.12854-.72829,5.95059,5.95059,0,0,1-1.22867-1.494,5.36949,5.36949,0,0,0-1.194-1.44,4.0086,4.0086,0,0,0-3.02061-.50948,14.81645,14.81645,0,0,0-1.86857.50536c-.42156.134-.85739.2726-1.29574.38287a4.99089,4.99089,0,0,1-3.35784-.10528.18373.18373,0,0,1,.15334-.33394,4.64874,4.64874,0,0,0,3.11469.083c.42755-.10762.85807-.2444,1.27422-.37674a15.07616,15.07616,0,0,1,1.91554-.51708,4.24431,4.24431,0,0,1,3.30488.577,5.72576,5.72576,0,0,1,1.28163,1.53331,5.5915,5.5915,0,0,0,1.14825,1.406,3.28093,3.28093,0,0,0,1.91348.65011.18372.18372,0,0,1-.00582.36735Z"/><path class="cls-42" d="M1349.40807,485.50713c2.88328-7.8908,1.83734-17.41915,1.82636-17.51441l-.79449.09082c.01058.09352,1.03431,9.439-1.78343,17.149Z"/><path class="cls-43" d="M1329.414,545.70452a.39955.39955,0,0,0,.38662-.29965c.87963-3.39259,7.46651-7.121,7.53293-7.15821a.4.4,0,0,0-.39138-.69762c-.28322.15879-6.95089,3.9332-7.91562,7.6551a.40022.40022,0,0,0,.38745.50038Z"/><path class="cls-44" d="M1350.59448,507.19155a31.693,31.693,0,0,0,7.37034,5.388,61.20906,61.20906,0,0,1-13.47149,11.97974l-.70431,1.58037a3.93087,3.93087,0,0,1-3.403,2.3229c-8.138.38777-10.38972-1.33831-2.89844-6.56308C1337.48756,521.89944,1347.06832,517.1317,1350.59448,507.19155Z"/><path class="cls-45" d="M1290.764,471.87694s10.26854,10.67467,12.64092,14.54708-.26834,10.925-5.65776,9.28771-11.6632-20.15916-11.6632-20.15916Z"/><path class="cls-46" d="M1307.95193,456.7161s-9.02376,23.79857-11.87473,28.74929c-3.30942,5.74689-12.9745,2.08486-12.49348-2.72463s11.7731-24.68888,11.7731-24.68888Z"/><polygon class="cls-47" points="1295.759 439.38 1239.673 419.934 1240.262 472.558 1297.292 459.833 1295.759 439.38"/><path class="cls-32" d="M1234.11,446.39862c0,14.93585,2.467,27.04372,5.51023,27.04372s5.51032-12.10787,5.51032-27.04372-2.467-27.04368-5.51032-27.04368S1234.11,431.46281,1234.11,446.39862Z"/><path class="cls-48" d="M1239.20209,471.593c.49795-.5066,1.58293-2.4605,2.51305-7.5132a114.77093,114.77093,0,0,0,0-35.6675c-.93012-5.05279-2.0151-7.00682-2.51305-7.51333-.49809.50651-1.58307,2.46054-2.51319,7.51333a114.775,114.775,0,0,0,0,35.6675C1237.619,469.13245,1238.704,471.08635,1239.20209,471.593Z"/><g class="cls-49"><path class="cls-50" d="M1232.13937,446.04459c0,4.595,2.47538,8.32,7.37459,8.32a8.33713,8.33713,0,1,0,0-16.64005C1234.61475,437.72454,1232.13937,441.44951,1232.13937,446.04459Z"/></g><path class="cls-51" d="M1304.805,438.24877a31.42328,31.42328,0,0,0-10.51249.52019,56.14048,56.14048,0,0,1-.41431,21.97624l11.53777.00009a3.739,3.739,0,0,0,3.69494-3.15318c.575-3.64216,1.278-9.76373.52839-14.6802A5.53308,5.53308,0,0,0,1304.805,438.24877Z"/><path class="cls-29" d="M1297.88068,443.77465h8.98911a.95367.95367,0,0,0,.80066-1.472.36512.36512,0,0,0-.61294.39693.2235.2235,0,0,1-.18772.34478h-8.98911a.22394.22394,0,0,1-.2238-.22348v-.63944a.224.224,0,0,1,.2238-.22375h9.05585a.36514.36514,0,1,0,0-.73027h-9.05585a.955.955,0,0,0-.95406.954v.63944A.955.955,0,0,0,1297.88068,443.77465Z"/><path class="cls-29" d="M1298.68226,447.75583h8.98916a.95374.95374,0,0,0,.80084-1.47179.36517.36517,0,1,0-.6133.39656.22335.22335,0,0,1-.18754.34492h-8.98916a.22386.22386,0,0,1-.2237-.22348v-.63944a.22385.22385,0,0,1,.2237-.22371h9.05594a.36513.36513,0,0,0,0-.73026h-9.05594a.955.955,0,0,0-.954.954v.63944A.955.955,0,0,0,1298.68226,447.75583Z"/><path class="cls-29" d="M1287.60939,438.08969a.36521.36521,0,0,0,.11082-.71323l-42.47881-13.51758a.36526.36526,0,0,0-.22156.69611l42.47886,13.51758A.36681.36681,0,0,0,1287.60939,438.08969Z"/><path class="cls-29" d="M1293.35363,440.43791a.36515.36515,0,0,0,.13833-.70317l-2.18612-.89368a.36521.36521,0,1,0-.27626.67616l2.18617.89354A.36127.36127,0,0,0,1293.35363,440.43791Z"/><path class="cls-29" d="M1297.88068,452.41856h8.98911a.95384.95384,0,0,0,.80085-1.472.36517.36517,0,0,0-.61331.39656.22355.22355,0,0,1-.18754.34515h-8.98911a.224.224,0,0,1-.2238-.22366v-.63958a.22387.22387,0,0,1,.2238-.22343h9.05585a.36514.36514,0,1,0,0-.73027h-9.05585a.95494.95494,0,0,0-.95406.9537v.63958A.955.955,0,0,0,1297.88068,452.41856Z"/><path class="cls-29" d="M1297.03881,457.5939h8.98939a.954.954,0,0,0,.80089-1.472.36515.36515,0,0,0-.61326.39656.22353.22353,0,0,1-.18763.34515h-8.98939a.22378.22378,0,0,1-.22343-.22348v-.63972a.22383.22383,0,0,1,.22343-.22348h9.05627a.36513.36513,0,0,0,0-.73026h-9.05627a.95493.95493,0,0,0-.95373.95374v.63972A.95494.95494,0,0,0,1297.03881,457.5939Z"/><path class="cls-29" d="M1289.00963,485.73208a6.02008,6.02008,0,0,0,1.27971-.1388,5.91845,5.91845,0,0,0,4.17591-3.38215l7.18187-15.9557a.36518.36518,0,1,0-.66613-.29951l-7.18187,15.95556a5.194,5.194,0,0,1-3.66528,2.96816,5.08946,5.08946,0,0,1-4.47565-1.1439c-.06734-.05877-.13435-.11915-.20182-.18072a.36514.36514,0,1,0-.49306.53869c.07178.06587.1431.12955.21437.1918A5.78935,5.78935,0,0,0,1289.00963,485.73208Z"/><path class="cls-29" d="M1302.37578,464.11165a.36533.36533,0,0,0,.3333-.21537l.80117-1.78014a.36518.36518,0,1,0-.66613-.29951l-.80113,1.78a.3652.3652,0,0,0,.33279.515Z"/><path class="cls-29" d="M1233.45305,445.93889a.36513.36513,0,0,0,.36373-.33915,6.41544,6.41544,0,0,1,2.2634-4.88942c2.33136-1.79291,5.68605-1.17937,5.72011-1.17241a.3652.3652,0,0,0,.13787-.71727c-.15019-.02874-3.70327-.68512-6.29881,1.30746a7.10545,7.10545,0,0,0-2.551,5.41973.36512.36512,0,0,0,.33829.3901Z"/><path class="cls-52" d="M1294.65192,465.74045s-2.92545-2.48348-5.21177,0-2.7385,6.81741-2.27332,7.029S1301.76884,469.471,1294.65192,465.74045Z"/><path class="cls-9" d="M735.84928,629.5567a2.18828,2.18828,0,0,1-1.43892-.91254c-4.92576-7.10218-40.62-62.5911,10.78252-110.62505,48.79717-45.59922,70.54293-54.58677,74.27916-82.17578a3.24927,3.24927,0,0,1,6.17581-.8978c10.04891,22.12276,25.16508,73.47968-31.305,105.06465-62.29274,34.84151-58.574,75.338-55.98514,86.89522a2.19591,2.19591,0,0,1-2.50838,2.6513Z"/><path class="cls-7" d="M743.3959,630.83083a3.16418,3.16418,0,0,1-2.62209-2.73525c-1.15708-9.48747-3.6114-44.88,22.6773-53.40369,28.94008-9.38333,51.18621,18.00124,72.88418-2.18178a1.59637,1.59637,0,0,1,2.65857,1.48136c-2.22141,10.83433-11.36524,35.80162-48.62263,39.69252-39.87837,4.16465-44.49208,8.57653-43.87113,14.25243a2.66459,2.66459,0,0,1-3.1042,2.89441Z"/><path class="cls-30" d="M816.82688,463.91088a41.20157,41.20157,0,0,1-2.24028,5.68711c-.86919,1.83877-1.82724,3.63515-2.858,5.38942-1.02941,1.755-2.12885,3.47128-3.31774,5.1242-1.18212,1.65723-2.412,3.28342-3.72268,4.8431a88.35333,88.35333,0,0,1-18.1,16.33216,112.404,112.404,0,0,1-10.45957,6.27853,95.11959,95.11959,0,0,0-10.14472,6.33589,102.23208,102.23208,0,0,0-17.69623,16.07165,94.83564,94.83564,0,0,0-13.30546,19.83965,81.70477,81.70477,0,0,0-8.19389,46.54179,96.41512,96.41512,0,0,0,5.85057,23.28712.36288.36288,0,0,1-.67391.26925,93.96679,93.96679,0,0,1-6.41609-23.40037,82.44311,82.44311,0,0,1-.76409-12.165c.04143-2.034.12131-4.06961.31485-6.0968.07406-1.01568.21134-2.02481.31947-3.03746.14712-1.00726.2655-2.01959.44631-3.02194a84.45731,84.45731,0,0,1,7.42215-23.21114,94.6838,94.6838,0,0,1,13.483-20.31819,104.27469,104.27469,0,0,1,17.99387-16.46125,97.24913,97.24913,0,0,1,10.3455-6.51336l2.64529-1.44423c.88238-.46792,1.74109-.97663,2.59976-1.48547l1.29-.76007,1.26511-.8,1.26533-.79984,1.24158-.8355a96.871,96.871,0,0,0,9.50395-7.266c1.50942-1.30521,2.96317-2.67281,4.39261-4.066,1.40656-1.41511,2.79229-2.85431,4.09832-4.36473a81.28366,81.28366,0,0,0,7.24711-9.53627c1.08827-1.67759,2.108-3.40124,3.04231-5.17043a47.24186,47.24186,0,0,0,2.49108-5.4396l.00655-.01767a.33145.33145,0,0,1,.628.21135Z"/><path class="cls-30" d="M742.23635,624.36741a5.85986,5.85986,0,0,0,.04449-.975l.00559-.97072q.01257-.97029.0488-1.93966.0747-1.93873.22933-3.87306c.21-2.57837.525-5.1491.96468-7.70065a57.798,57.798,0,0,1,4.47263-14.85763,32.73615,32.73615,0,0,1,4.11713-6.62881,23.15548,23.15548,0,0,1,5.85351-5.19538,20.86456,20.86456,0,0,1,7.34474-2.73937,23.36487,23.36487,0,0,1,3.91467-.35362c.65569-.02435,1.3091.01946,1.96346.03978.65167.04976,1.30535.0949,1.95312.17848,1.304.16049,2.56625.38946,3.8423.60351l3.81606.6741q3.81235.69336,7.61006,1.45631c5.06547,1.00359,10.11,2.10373,15.17527,3.03513,2.53283.46,5.07334.87157,7.62471,1.12751a36.05579,36.05579,0,0,0,7.64508.04719,19.58923,19.58923,0,0,0,7.23026-2.205,23.85867,23.85867,0,0,0,5.97019-4.71419.29556.29556,0,0,1,.4318.4037,24.48561,24.48561,0,0,1-6.08183,4.89766,20.30082,20.30082,0,0,1-7.46248,2.35906,36.73093,36.73093,0,0,1-7.80741-.02637c-2.58533-.25314-5.14471-.66192-7.68989-1.1178-5.08909-.92312-10.13369-2.01093-15.19545-3.00088-5.05467-.98931-10.14308-1.94392-15.213-2.69817-.63084-.08551-1.2658-.13289-1.89934-.18553-.63491-.02326-1.2701-.07054-1.905-.05031a22.559,22.559,0,0,0-3.78718.31819,20.08507,20.08507,0,0,0-7.09005,2.59389,22.42689,22.42689,0,0,0-5.69859,4.99836,32.24753,32.24753,0,0,0-4.07264,6.46608,57.22216,57.22216,0,0,0-4.54907,14.66482c-.45859,2.53076-.79394,5.08488-1.02493,7.64837q-.1718,1.92294-.26133,3.852-.043.96425-.06514,1.92918l-.01387.96454a4.40155,4.40155,0,0,0,.06065.96015.25539.25539,0,0,1-.49859.111A.26527.26527,0,0,1,742.23635,624.36741Z"/><path class="cls-53" d="M389.77268,419.34175H456.4919a37.4287,37.4287,0,0,1,37.4287,37.4287V623.84a0,0,0,0,1,0,0H352.344a0,0,0,0,1,0,0V456.77045A37.4287,37.4287,0,0,1,389.77268,419.34175Z"/><path class="cls-9" d="M371.49893,419.34175H438.2183a37.4286,37.4286,0,0,1,37.4286,37.4286V623.84a0,0,0,0,1,0,0H334.07033a0,0,0,0,1,0,0V456.77035A37.4286,37.4286,0,0,1,371.49893,419.34175Z"/><path class="cls-32" d="M467.63753,419.4285a1.23473,1.23473,0,0,1-1.23485-1.23485V270.59228a1.23485,1.23485,0,0,1,2.4697,0V418.19365A1.23473,1.23473,0,0,1,467.63753,419.4285Z"/><path class="cls-32" d="M434.17374,419.4285a1.23472,1.23472,0,0,1-1.23481-1.23485V270.59228a1.23483,1.23483,0,1,1,2.46966,0V418.19365A1.23473,1.23473,0,0,1,434.17374,419.4285Z"/><path class="cls-32" d="M351.95754,420.3648a1.236,1.236,0,0,1-1.13593-1.71866l63.14678-148.53726a1.235,1.235,0,0,1,2.27291.9667L353.09443,419.61275A1.23545,1.23545,0,0,1,351.95754,420.3648Z"/><path class="cls-32" d="M390.96269,420.3648a1.236,1.236,0,0,1-1.136-1.71866l63.14691-148.53726a1.23491,1.23491,0,0,1,2.27278.9667L392.09963,419.61275A1.23562,1.23562,0,0,1,390.96269,420.3648Z"/><path class="cls-32" d="M469.55477,271.95063H411.71063a1.74036,1.74036,0,0,1-1.7404-1.7404h0a1.74042,1.74042,0,0,1,1.7404-1.74044h57.84414a1.74039,1.74039,0,0,1,1.74035,1.74044h0A1.74032,1.74032,0,0,1,469.55477,271.95063Z"/><path class="cls-32" d="M444.57009,294.53949H405.4494a1.23483,1.23483,0,1,1,0-2.46966h39.12069a1.23483,1.23483,0,1,1,0,2.46966Z"/><rect class="cls-32" x="393.4459" y="320.16205" width="39.1206" height="2.4697"/><rect class="cls-32" x="381.82527" y="348.25432" width="39.12074" height="2.46961"/><path class="cls-32" d="M408.75964,378.8162h-39.1207a1.23488,1.23488,0,0,1,0-2.46975h39.1207a1.23488,1.23488,0,0,1,0,2.46975Z"/><path class="cls-32" d="M396.97774,406.90888H357.85709a1.23488,1.23488,0,0,1,0-2.46975h39.12065a1.23488,1.23488,0,0,1,0,2.46975Z"/><path class="cls-54" d="M459.39558,267.47915c-2.6214.22659-7.171.59467-10.75775.75251a10.35648,10.35648,0,0,1-4.11219-.40242c.00119.08057.00348.15674.00668.22751a.74187.74187,0,0,0,.70481.7006,125.9882,125.9882,0,0,0,14.086.01414.52821.52821,0,0,0,.43034-.79357A4.31856,4.31856,0,0,0,459.39558,267.47915Z"/><path class="cls-55" d="M448.63783,268.23166c3.58672-.15784,8.13635-.52592,10.75775-.75251-2.57728-3.16206-10.75775-5.2933-10.75775-5.2933h-2.31036a9.68926,9.68926,0,0,0-1.80183,5.64339A10.35648,10.35648,0,0,0,448.63783,268.23166Z"/><path class="cls-56" d="M445.93842,258.414l.2162,4.27849a.977.977,0,0,0,.83418.919,3.80065,3.80065,0,0,0,1.73559-.14388,1.15609,1.15609,0,0,0,.77714-.88869l.74706-4.165Z"/><path class="cls-57" d="M415.92924,268.19957a2.07519,2.07519,0,0,1-1.86688-1.38046l-.00425.017a1.47751,1.47751,0,0,0,.99562,1.68451,6.505,6.505,0,0,0,2.75663.43153,2.74054,2.74054,0,0,0,2.06692-.95337l.00645-.00852A6.94,6.94,0,0,1,415.92924,268.19957Z"/><path class="cls-58" d="M421.289,258.38654h-1.90529c-2.90228-.05932-4.72476,6.06206-5.32136,8.43257a2.07519,2.07519,0,0,0,1.86688,1.38046,6.94,6.94,0,0,0,3.95449-.20929,18.20171,18.20171,0,0,0,2.719-6.84881A2.40452,2.40452,0,0,0,421.289,258.38654Z"/><path class="cls-59" d="M419.62862,254.41544l-1.058,4.20808a1.14214,1.14214,0,0,0,.59422,1.29441,4.0548,4.0548,0,0,0,2.191.53054.95445.95445,0,0,0,.77833-.63628l1.55336-4.42736Z"/><path class="cls-11" d="M418.36654,255.63175c1.31642,1.16765,5.59793,1.32173,5.59793,1.32173,15.42291-37.01642,21.73193-42.27511,21.73193-42.27511-2.22695,13.97168-.359,44.90324-.359,44.90324,2.545,1.123,5.82623,0,5.82623,0a238.41929,238.41929,0,0,1,7.87583-58.54794c-10.424-.23424-15.96746-3.80137-17.77749-5.233C432.57286,209.80928,418.36654,255.63175,418.36654,255.63175Z"/><path class="cls-32" d="M443.90922,153.23162c-1.973,9.84155-1.26589,27.45612-.8014,35.49057.13051,2.25831-1.44592,5.38888-2.72005,7.52465a.66977.66977,0,0,0,.2704.94225,46.46725,46.46725,0,0,0,17.73652,4.9172,1.19437,1.19437,0,0,0,1.20185-.89245c6.21311-23.19909,13.42982-38.02353,13.42982-38.02353C465.05888,150.46708,443.90922,153.23162,443.90922,153.23162Z"/><path class="cls-60" d="M446.74879,213.802a.4941.4941,0,0,1-.42159-.75054,15.49449,15.49449,0,0,1,6.11516-5.30882.4938.4938,0,1,1,.42928.88943,14.77447,14.77447,0,0,0-5.70079,4.93313A.49408.49408,0,0,1,446.74879,213.802Z"/><path class="cls-61" d="M431.53347,181.47678a33.85549,33.85549,0,0,0,6.25194,14.89731l1.424-1.16083a43.96936,43.96936,0,0,1-.70935-14.23786A17.042,17.042,0,0,0,431.53347,181.47678Z"/><path class="cls-32" d="M446.11306,165.37483l-2.20384-12.14321s-14.72428,11.255-12.37575,28.24516a17.042,17.042,0,0,1,6.96659-.50138C439.1732,175.52312,441.184,169.6042,446.11306,165.37483Z"/><path class="cls-32" d="M473.02636,163.19031l-5.68353,12.24039c.91886,7.38988,4.88877,10.58513,9.16914,11.81069a25.9753,25.9753,0,0,1,1.90877-7.97115C472.95152,173.62351,473.02636,163.19031,473.02636,163.19031Z"/><path class="cls-62" d="M478.42074,179.27024a25.9753,25.9753,0,0,0-1.90877,7.97115c11.42009,4.43088,14.44148-4.16213,14.44148-4.16213l-2.11055-.37244C484.07662,183.209,480.74734,181.67247,478.42074,179.27024Z"/><path class="cls-63" d="M467.78987,148.07858l-2.7438,10.08672a1.96236,1.96236,0,0,1-2.62429,1.30576,39.824,39.824,0,0,1-3.95477-1.80636,2.6442,2.6442,0,0,1-.93268-3.80014l5.70469-8.506Z"/><path class="cls-64" d="M496.1876,176.32946l-70.309,25.58961a5.38351,5.38351,0,0,0-3.0593,7.28748l.21336.46906a5.0043,5.0043,0,0,0,6.65642,2.47012l68.26914-31.58163Z"/><path class="cls-65" d="M528.50435,123.01274c-21.32943,0-38.62036,16.97916-38.62036,37.9237,0,20.94486,17.29093,37.92388,38.62036,37.92388s38.6205-16.979,38.6205-37.92388C567.12485,139.9919,549.83391,123.01274,528.50435,123.01274Zm0,70.2767c-18.19616,0-32.94717-14.48483-32.94717-32.353,0-17.868,14.751-32.35286,32.94717-32.35286,18.19634,0,32.94735,14.48487,32.94735,32.35286C561.4517,178.80461,546.70069,193.28944,528.50435,193.28944Z"/><path class="cls-29" d="M492.8201,165.689a.3145.3145,0,0,1-.31146-.27434c-.115-.90151-.19578-1.81776-.24055-2.72353a.31428.31428,0,0,1,.62781-.03067c.04386.8892.12332,1.78883.23625,2.67441a.31442.31442,0,0,1-.27191.35166A.29818.29818,0,0,1,492.8201,165.689Zm.26568-10.60395a.35578.35578,0,0,1-.0558-.0049.31434.31434,0,0,1-.25383-.36456,34.95444,34.95444,0,0,1,2.08633-7.14154l.00028-.00064a36.14778,36.14778,0,0,1,33.64163-22.26774,36.64693,36.64693,0,0,1,19.48072,5.56736.31434.31434,0,1,1-.33389.53269,36.01686,36.01686,0,0,0-19.14683-5.47164,35.52078,35.52078,0,0,0-33.06046,21.87869h0a34.34443,34.34443,0,0,0-2.04916,7.01328A.31427.31427,0,0,1,493.08578,155.085Z"/><path class="cls-66" d="M473.79284,140.41514c.025.17327-2.28857,11.51049-2.28857,11.51049l-6.44539-1.45855.59633-11.07123S473.3744,137.51529,473.79284,140.41514Z"/><path class="cls-67" d="M467.10484,141.8629l-.77023,5.80351a.80468.80468,0,0,0,.00074.22225c.065.45492.40342,2.00361,1.96689,1.56077a7.35368,7.35368,0,0,1,3.61754-.47263.81707.81707,0,0,1,.5624.94527,35.33144,35.33144,0,0,1-1.4836,5.28258.81532.81532,0,0,1-.99018.48225,26.34894,26.34894,0,0,1-5.68147-2.32468.81793.81793,0,0,1-.39857-.73589c.06184-1.465.23318-5.91865.08894-7.167-.13536-1.17181-1.57346-1.87383-2.1983-2.12551a.80373.80373,0,0,1-.44732-.449,2.1197,2.1197,0,0,1,1.42624-3.09042.819.819,0,0,0,.51841-1.059A2.12371,2.12371,0,0,1,464.507,135.8a2.99585,2.99585,0,0,1,3.57455.8615.81834.81834,0,0,0,1.0425.12309.64674.64674,0,0,1,.73617.025.80563.80563,0,0,0,1.14074-.3457,2.442,2.442,0,0,1,2.83733-1.41379c2.88814.49456,3.2153,3.69508,2.4534,5.57061s-3.86289,1.16129-5.41849.21569c-1.18267-.71891-2.71689.03461-3.38444.43712A.811.811,0,0,0,467.10484,141.8629Z"/><path class="cls-68" d="M464.07081,147.69379s.87446-3.44359-.34542-4.25789-3.02671-.39157-2.62892,2.01716C461.59131,148.44909,464.07081,147.69379,464.07081,147.69379Z"/><path class="cls-69" d="M438.62219,195.01112l6.64662-.54172,2.87862,2.6535s-.681.94133-2.81.40026a30.49144,30.49144,0,0,0-5.04551-.67382s-2.93918,1.325-2.975-1.15419Z"/><path class="cls-70" d="M490.10692,184.65143c.57485.44906,2.54413-.48843,3.74927-1.13662a1.38681,1.38681,0,0,0,.67021-1.63845c-.29-.91447-.7733-2.09494-1.36866-2.24389C492.16981,179.38555,487.73815,182.80085,490.10692,184.65143Z"/><path class="cls-29" d="M427.2656,211.21684a.31908.31908,0,0,1-.10281-.01712c-2.77539-.95987-3.42106-2.60451-3.47352-3.816a4.23694,4.23694,0,0,1,2.7623-4.08349l8.44186-3.29183a.31418.31418,0,1,1,.22828.58542l-8.4419,3.29184a3.6098,3.6098,0,0,0-2.36268,3.4711c.06409,1.47774,1.09079,2.57137,3.05124,3.24885a.31425.31425,0,0,1-.10277.6112Z"/><path class="cls-29" d="M437.60876,199.601a.31422.31422,0,0,1-.11416-.607l1.09418-.42654a.31423.31423,0,0,1,.22833.58552l-1.09423.42649A.31169.31169,0,0,1,437.60876,199.601Z"/><polygon class="cls-31" points="510.159 150.588 522.954 160.547 547.517 140.414 553.854 147.65 522.954 179.98 503.155 158.293 510.159 150.588"/></g></g></svg>