<svg xmlns="http://www.w3.org/2000/svg" viewBox="0 0 1528 642"><defs><style>.cls-1{fill:#f7f7f7;}.cls-2{fill:#ebebeb;}.cls-3{fill:#b1dcfb;}.cls-4{fill:#e2e2e2;}.cls-5{fill:#fc8d2a;}.cls-6{fill:#420f2c;}.cls-7{fill:#c47c26;}.cls-8{fill:#dce5ef;}.cls-9{fill:#8e8e8e;}.cls-10{fill:#595959;}.cls-11{fill:#cedbea;}.cls-12{fill:#fff;}.cls-13{fill:#f2e5dc;}.cls-14{fill:#93b1ce;}.cls-15{fill:#96bcea;}.cls-16{fill:#6fa0e8;}.cls-17{fill:#344b7e;}.cls-18{fill:#070707;}.cls-19{fill:#ef9d7f;}.cls-20{fill:#e2876a;}.cls-21{fill:#377dd1;}.cls-22{fill:#4a1651;}.cls-23{fill:#d87f64;}.cls-24{fill:#cae0ff;}.cls-25{fill:#7a3457;}.cls-26{fill:#bcbcbc;opacity:0.3;}.cls-27{fill:#d7eff9;}</style></defs><title>measuring-success-analytics-and-insights</title><g id="BACKGROUND"><rect class="cls-1" width="1528" height="642"/></g><g id="OBJECTS"><path class="cls-2" d="M93.78827,578.73v-2.80351l-4.53514-.646A24.65515,24.65515,0,0,0,88.15,569.70779l3.92424-2.33613-1.07979-2.58709-4.42846,1.1495a24.78217,24.78217,0,0,0-3.087-4.60637l2.74659-3.65912-1.98244-1.98229-3.659,2.74659a24.79309,24.79309,0,0,0-4.728-3.14564l1.12606-4.43819-2.593-1.06579-2.31163,3.93231a24.67338,24.67338,0,0,0-5.44631-1.05682l-.64589-4.53514H63.18191l-.64606,4.53514a24.65845,24.65845,0,0,0-5.57262,1.10308l-2.336-3.92439L52.04,550.91738l1.14935,4.4283a24.79214,24.79214,0,0,0-4.60636,3.087l-3.659-2.74644-1.98229,1.98229,2.74644,3.659a24.7782,24.7782,0,0,0-3.14563,4.728l-4.438-1.12591-1.0658,2.59287,3.93231,2.31178a24.67928,24.67928,0,0,0-1.057,5.44616l-4.535.646V578.73l4.535.6459a24.64644,24.64644,0,0,0,1.10323,5.57262l-3.9244,2.336,1.08,2.5874,4.4283-1.1495a24.78451,24.78451,0,0,0,3.08719,4.60652l-2.74659,3.65882,1.98229,1.98244,3.659-2.74659a24.79072,24.79072,0,0,0,4.728,3.14564l-1.12606,4.43819,2.59318,1.06579,2.31163-3.93246a24.68147,24.68147,0,0,0,5.44615,1.057l.64606,4.53513h2.80351l.64589-4.53513a24.6577,24.6577,0,0,0,5.57278-1.10324l2.336,3.92455,2.58725-1.0801-1.1495-4.42845a24.781,24.781,0,0,0,4.60636-3.08689l3.659,2.74659,1.98244-1.98244-2.74659-3.659a24.793,24.793,0,0,0,3.14564-4.728l4.43819,1.12606,1.06579-2.59318-3.93231-2.31148a24.68041,24.68041,0,0,0,1.057-5.4463Zm-29.20469,9.77583A11.17767,11.17767,0,1,1,75.7614,577.32815,11.17757,11.17757,0,0,1,64.58358,588.50581Z"/><path class="cls-2" d="M191.05051,613.4176h-12.3454a3.17419,3.17419,0,0,1-3.17014-3.17166l-.4444-4.33379a33.97358,33.97358,0,0,1-6.43022-2.66334l-3.43693,2.803a3.15039,3.15039,0,0,1-4.426-.05205l-8.72953-8.73013a3.1703,3.1703,0,0,1,0-4.484l2.75025-3.37818a33.99016,33.99016,0,0,1-2.66395-6.431l-4.41126-.44882h-.0067a3.1516,3.1516,0,0,1-3.08612-3.16572V567.01716a3.17425,3.17425,0,0,1,3.17013-3.17151l4.33395-.443a33.977,33.977,0,0,1,2.664-6.43083l-2.8023-3.43632a3.09046,3.09046,0,0,1-.87677-2.18623,3.1478,3.1478,0,0,1,.92882-2.24116l8.72953-8.72876a3.17277,3.17277,0,0,1,4.48324,0l3.37894,2.74963a33.86206,33.86206,0,0,1,6.43022-2.662l.44881-4.41263a3.153,3.153,0,0,1,3.16649-3.09282h12.3454a3.174,3.174,0,0,1,3.17015,3.17014l.44438,4.33394a33.95868,33.95868,0,0,1,6.43022,2.66334l3.43693-2.80168a3.15464,3.15464,0,0,1,4.426.05205l8.7294,8.72876a3.1737,3.1737,0,0,1,0,4.484l-2.75024,3.37971a34.00238,34.00238,0,0,1,2.6641,6.42946l4.37473.44439a3.1744,3.1744,0,0,1,3.1292,3.17151V579.362a3.174,3.174,0,0,1-3.17014,3.17014l-4.33379.4444a33.992,33.992,0,0,1-2.6641,6.431l2.80229,3.43464a3.15367,3.15367,0,0,1-.052,4.42754l-8.7294,8.73013a3.17278,3.17278,0,0,1-4.48324,0l-3.379-2.751a33.9973,33.9973,0,0,1-6.4302,2.66334l-.44885,4.4111A3.15317,3.15317,0,0,1,191.05051,613.4176Zm-22.553-11.9998.45185.25264a32.42518,32.42518,0,0,0,7.05223,2.92191l.49781.14123.55368,5.4352a1.67461,1.67461,0,0,0,1.652,1.72691h12.3454a1.65089,1.65089,0,0,0,1.64824-1.64975l.55734-5.51236.49789-.14123a32.42433,32.42433,0,0,0,7.0522-2.92191l.45182-.25264,4.23578,3.454a1.67513,1.67513,0,0,0,2.38839.05205l8.72945-8.73028a1.65084,1.65084,0,0,0,0-2.33187l-3.50531-4.29072.2534-.45186a32.4833,32.4833,0,0,0,2.9212-7.05374l.14123-.49782,5.436-.55291a1.67425,1.67425,0,0,0,1.72539-1.65264V567.01716a1.65082,1.65082,0,0,0-1.64823-1.6496l-.07655-.00456-5.43657-.55139-.14123-.49782a32.4322,32.4322,0,0,0-2.9212-7.05374l-.2534-.45186,3.45326-4.23578a1.67346,1.67346,0,0,0,.052-2.38833l-8.72945-8.72876a1.65165,1.65165,0,0,0-2.33117,0L201.258,544.96l-.45182-.25264a32.39845,32.39845,0,0,0-7.0522-2.92054l-.49789-.14123-.55363-5.43657a1.67323,1.67323,0,0,0-1.65195-1.72554h-12.3454a1.64954,1.64954,0,0,0-1.64823,1.64823l-.55748,5.51388-.49781.14123a32.40053,32.40053,0,0,0-7.05223,2.92054l-.45185.25264-4.23578-3.4526a1.67238,1.67238,0,0,0-2.38833-.05205l-8.72937,8.72876a1.64861,1.64861,0,0,0,0,2.33187l3.50526,4.29224-.2534.45186a32.42761,32.42761,0,0,0-2.92131,7.05374l-.14108.49782-5.43671.55139a1.67541,1.67541,0,0,0-1.72478,1.65416V579.362a1.64964,1.64964,0,0,0,1.64822,1.64823l5.51327.55732.14108.49782a32.47819,32.47819,0,0,0,2.92131,7.05374l.2534.45186-3.45337,4.23426a1.70534,1.70534,0,0,0-.535,1.22163,1.63924,1.63924,0,0,0,.48306,1.1667l8.72937,8.73028a1.65156,1.65156,0,0,0,2.3311,0Zm16.3799-11.32971a16.89929,16.89929,0,1,1,16.9-16.89852A16.91869,16.91869,0,0,1,184.87741,590.08809Zm0-32.27666a15.37738,15.37738,0,1,0,15.37812,15.37814A15.39558,15.39558,0,0,0,184.87741,557.81143Z"/><path class="cls-3" d="M1492.344,549.14705l.70343-5.42287-14.63971-4.05908a41.97024,41.97024,0,0,0-.47011-6.89319l13.94084-6.02509-1.43988-5.27539-15.06964,1.89325a42.25546,42.25546,0,0,0-2.97929-5.97578l10.60984-10.87846-3.33725-4.332-13.22509,7.48353a42.26464,42.26464,0,0,0-5.2028-4.54564l5.59667-14.116-4.74851-2.7122-9.31667,11.99387a42.00662,42.00662,0,0,0-6.33267-2.12185l-.18976-15.19079-5.423-.70327-4.05893,14.63955a42.00616,42.00616,0,0,0-6.89334.47012l-6.02509-13.941-5.27539,1.44,1.89325,15.0698a42.261,42.261,0,0,0-5.97563,2.97914l-10.87845-10.60984-4.332,3.33724,7.48354,13.22525a42.27577,42.27577,0,0,0-4.54595,5.20264l-14.11586-5.59652-2.7122,4.74836,11.99387,9.31668a41.99453,41.99453,0,0,0-2.12183,6.33266l-15.19065.18994-.70343,5.42287,14.6397,4.05893a41.98852,41.98852,0,0,0,.47012,6.89334l-13.941,6.02509,1.43987,5.27539,15.0698-1.8931a42.26179,42.26179,0,0,0,2.97929,5.97563l-10.60984,10.87845,3.33724,4.332,13.2251-7.48354a42.26344,42.26344,0,0,0,5.20264,4.5458l-5.59652,14.116,4.74836,2.71205,9.31668-11.99387a42.00247,42.00247,0,0,0,6.33266,2.12185l.19,15.19079,5.423.70342,4.05878-14.6397a42.008,42.008,0,0,0,6.89349-.47012l6.02494,13.94084,5.27554-1.43988-1.89325-15.06964a42.27721,42.27721,0,0,0,5.97562-2.97929L1468.803,585.9033l4.332-3.33724-7.48354-13.22525a42.26368,42.26368,0,0,0,4.54579-5.20265l14.116,5.59668,2.7122-4.74852-11.99387-9.31667a42.02244,42.02244,0,0,0,2.12187-6.33267Zm-59.026,12.21987a22.44467,22.44467,0,1,1,25.14515-19.37132A22.44465,22.44465,0,0,1,1433.318,561.36692Z"/><path class="cls-2" d="M799.17435,182.24956l-.91528-5.39121-15.18653.40574a41.9958,41.9958,0,0,0-2.46808-6.45351l11.5656-9.8431-2.92161-4.62265-13.8547,6.22309a42.27271,42.27271,0,0,0-4.59845-4.8415l6.95924-13.50832-4.45935-3.16481L762.841,152.08135a42.266,42.266,0,0,0-6.30572-2.823l1.21767-15.13615-5.33444-1.20277-5.39624,14.19623a41.99318,41.99318,0,0,0-6.67647-.17442l-4.62965-14.4694-5.3912.91543.40573,15.18653a41.98024,41.98024,0,0,0-6.4535,2.46808l-9.84311-11.56575-4.62264,2.92161,6.22308,13.85485a42.24823,42.24823,0,0,0-4.84134,4.59845l-13.50847-6.95939-3.16481,4.4595L705.548,168.80531a42.29048,42.29048,0,0,0-2.82315,6.30573l-15.136-1.21783-1.20276,5.33445,14.19623,5.39623a41.99369,41.99369,0,0,0-.17442,6.67647l-14.46925,4.6298.91527,5.39121,15.18653-.40589a41.99734,41.99734,0,0,0,2.46808,6.4535l-11.56575,9.84311,2.92162,4.62265,13.85485-6.22294a42.27282,42.27282,0,0,0,4.59845,4.84135l-6.95924,13.50847,4.45935,3.16481,10.45415-11.02822a42.27294,42.27294,0,0,0,6.30573,2.8233L727.36,244.05736l5.33429,1.20292,5.39624-14.19623a41.994,41.994,0,0,0,6.67646.17441l4.6298,14.46926,5.39122-.91543-.4059-15.18638a42.014,42.014,0,0,0,6.45366-2.46808l9.8431,11.5656,4.6225-2.92161-6.22294-13.8547a42.27506,42.27506,0,0,0,4.84135-4.59861l13.50847,6.95939,3.16481-4.4595L779.565,209.37425a42.26669,42.26669,0,0,0,2.823-6.30573l15.13614,1.21784,1.20277-5.33445-14.19622-5.39623a41.99419,41.99419,0,0,0,.17441-6.67647Zm-52.86064,28.96818a22.44468,22.44468,0,1,1,18.37082-25.88525A22.44466,22.44466,0,0,1,746.31371,211.21774Z"/><path class="cls-3" d="M849.914,128.42506a3.17737,3.17737,0,0,1-3.12555-2.63945l-1.16228-4.1994a33.99641,33.99641,0,0,1-6.7862-1.54946l-2.919,3.33816a3.15337,3.15337,0,0,1-4.37244.68957l-10.06774-7.1443a3.167,3.167,0,0,1-.74907-4.42084l2.14466-3.79138a33.88161,33.88161,0,0,1-3.70235-5.89375l-4.4245.29647a3.1614,3.1614,0,0,1-3.58029-2.60384l-2.06584-12.17162a3.17293,3.17293,0,0,1,2.59486-3.65685l4.19864-1.163a33.96458,33.96458,0,0,1,1.5487-6.786L814.10893,73.811a3.15571,3.15571,0,0,1-.6911-4.37336l7.1443-10.067a3.1721,3.1721,0,0,1,4.42161-.75061l3.79138,2.1462a33.96194,33.96194,0,0,1,5.89451-3.703l-.29723-4.42312a3.08867,3.08867,0,0,1,.54986-2.28956,3.14458,3.14458,0,0,1,2.054-1.2915l12.17087-2.0666a3.18079,3.18079,0,0,1,3.6576,2.595L853.967,53.787a33.96312,33.96312,0,0,1,6.78619,1.5493l2.92039-3.338a3.07864,3.07864,0,0,1,2.00649-1.22985,3.14673,3.14673,0,0,1,2.36459.54013L878.11239,58.453a3.17621,3.17621,0,0,1,.752,4.42084l-2.146,3.79138a33.99478,33.99478,0,0,1,3.70067,5.8936l4.38889-.29343a3.17632,3.17632,0,0,1,3.61605,2.6008l2.06584,12.17162a3.17317,3.17317,0,0,1-2.595,3.65685l-4.19864,1.163a33.95532,33.95532,0,0,1-1.54855,6.78619l3.33663,2.91827a3.08351,3.08351,0,0,1,1.23047,2.00709,3.15671,3.15671,0,0,1-.53935,2.36535l-7.14447,10.06774a3.17678,3.17678,0,0,1-4.4216.75137l-3.79139-2.147a33.98725,33.98725,0,0,1-5.89283,3.703l.29571,4.42388a3.08808,3.08808,0,0,1-.54987,2.2888,3.14393,3.14393,0,0,1-2.054,1.2915l-12.17086,2.0666A3.2296,3.2296,0,0,1,849.914,128.42506Zm-11.54064-10.16651.48746.17456a32.50973,32.50973,0,0,0,7.44306,1.69952l.51425.05494,1.4551,5.26733a1.66824,1.66824,0,0,0,1.91867,1.42451l12.16934-2.0666a1.6495,1.6495,0,0,0,1.34948-1.90163l-.373-5.528.46662-.2222a32.461,32.461,0,0,0,6.4637-4.06122l.40422-.32477,4.75307,2.6953a1.67609,1.67609,0,0,0,2.36307-.34852l7.1443-10.06773a1.64561,1.64561,0,0,0-.3893-2.29854l-4.17338-3.645.17395-.48747a32.45,32.45,0,0,0,1.69877-7.44229l.05493-.51425,5.26719-1.45586a1.70822,1.70822,0,0,0,1.14295-.68805,1.63246,1.63246,0,0,0,.28093-1.23062l-2.06584-12.17086a1.63981,1.63981,0,0,0-1.90238-1.34872l-.07579.00883-5.45164.365-.223-.46738a32.4025,32.4025,0,0,0-4.0603-6.46446l-.324-.4027,2.69605-4.75384a1.67683,1.67683,0,0,0-.34927-2.36383l-10.0679-7.1443a1.64719,1.64719,0,0,0-2.29761.39007l-3.64727,4.1749-.48747-.17471a32.473,32.473,0,0,0-7.44305-1.69952l-.51425-.05494-1.4551-5.26718a1.6698,1.6698,0,0,0-1.9173-1.42466l-12.17072,2.0666a1.64948,1.64948,0,0,0-1.34947,1.90163l.37439,5.52894-.46814.22144a32.42928,32.42928,0,0,0-6.46355,4.06107l-.40437.32477-4.75293-2.6953a1.69617,1.69617,0,0,0-1.29606-.32249,1.63321,1.63321,0,0,0-1.067.671L814.66032,70.319a1.6514,1.6514,0,0,0,.38946,2.29854l4.17338,3.645-.174.48747a32.45,32.45,0,0,0-1.69875,7.44244l-.05494.51425-5.26733,1.45571a1.70807,1.70807,0,0,0-1.1428.68805,1.63242,1.63242,0,0,0-.281,1.23062l2.06584,12.17086a1.642,1.642,0,0,0,1.90239,1.34872l5.52727-.37378.223.46753a32.40681,32.40681,0,0,0,4.06045,6.46431l.324.40285-2.69454,4.75369a1.707,1.707,0,0,0-.32249,1.29529,1.63665,1.63665,0,0,0,.67024,1.06854l10.06774,7.14445a1.65284,1.65284,0,0,0,2.30067-.39022ZM849.78767,104.588a16.90844,16.90844,0,1,1,2.83868-.24h0A17.01649,17.01649,0,0,1,849.78767,104.588Zm.01628-32.28108a15.37837,15.37837,0,1,0,2.56672,30.54h0a15.37854,15.37854,0,0,0-2.56672-30.54Z"/><path class="cls-2" d="M1143.69727,465.2587l-4.093-.41624a27.60143,27.60143,0,0,0-2.48665-6.00317l2.59988-3.18871a2.00373,2.00373,0,0,0,0-2.8338l-7.25966-7.26a2.00409,2.00409,0,0,0-2.8341,0l-3.18871,2.6a27.59835,27.59835,0,0,0-6.00317-2.48665l-.41624-4.09318a2.00388,2.00388,0,0,0-2.0039-2.00389h-10.2668a2.004,2.004,0,0,0-2.00405,2.00389l-.41625,4.09318a27.597,27.597,0,0,0-6.003,2.48665l-3.18872-2.6a2.00409,2.00409,0,0,0-2.8341,0l-7.25982,7.26a2.00375,2.00375,0,0,0,0,2.8338l2.6,3.18871a27.6014,27.6014,0,0,0-2.48664,6.00317l-4.093.41624a2.00405,2.00405,0,0,0-2.00405,2.00405v10.2668a2.004,2.004,0,0,0,2.00405,2.0039l4.093.41625a27.59132,27.59132,0,0,0,2.48664,6.00317l-2.6,3.1887a2.00393,2.00393,0,0,0,0,2.834l7.25982,7.25982a2.00411,2.00411,0,0,0,2.8341,0l3.18872-2.6a27.59,27.59,0,0,0,6.003,2.48681l.41625,4.09317a2.004,2.004,0,0,0,2.00405,2.00375h10.2668a2.00386,2.00386,0,0,0,2.0039-2.00375l.41624-4.09317a27.5914,27.5914,0,0,0,6.00317-2.48681l3.18871,2.6a2.00411,2.00411,0,0,0,2.8341,0l7.25966-7.25982a2.00391,2.00391,0,0,0,0-2.834l-2.59988-3.18855a27.6,27.6,0,0,0,2.48665-6.00332l4.093-.41625a2.004,2.004,0,0,0,2.00405-2.0039v-10.2668A2.004,2.004,0,0,0,1143.69727,465.2587Zm-30.819,20.55917A13.42172,13.42172,0,1,1,1126.3,472.39615,13.42171,13.42171,0,0,1,1112.8783,485.81787Z"/><path class="cls-3" d="M524.49834,439.91664l-2.59242.17365a17.42105,17.42105,0,0,0-2.18286-3.47482l1.28159-2.26019a1.26536,1.26536,0,0,0-.29951-1.76435l-5.28756-3.75257a1.26557,1.26557,0,0,0-1.76452.29951l-1.71032,1.956a17.42143,17.42143,0,0,0-4.00064-.91361l-.69186-2.50445a1.26555,1.26555,0,0,0-1.45951-1.03581l-6.39218,1.08542a1.26566,1.26566,0,0,0-1.036,1.45951l.17365,2.59242a17.42935,17.42935,0,0,0-3.47467,2.18288l-2.26019-1.28175a1.26571,1.26571,0,0,0-1.7645.29966l-3.75258,5.28757a1.26556,1.26556,0,0,0,.29952,1.7645l1.95595,1.71033a17.42977,17.42977,0,0,0-.9136,4.00064l-2.50445.69186a1.26558,1.26558,0,0,0-1.03581,1.45951l1.08542,6.39233a1.26553,1.26553,0,0,0,1.45951,1.03566l2.59242-.1735a17.42839,17.42839,0,0,0,2.18288,3.47482l-1.2816,2.26019a1.26538,1.26538,0,0,0,.29951,1.76435l5.28757,3.75257a1.26555,1.26555,0,0,0,1.7645-.29951l1.71048-1.956a17.4261,17.4261,0,0,0,4.00049.91361l.69186,2.50445a1.26565,1.26565,0,0,0,1.45951,1.03581l6.39233-1.08542a1.26567,1.26567,0,0,0,1.03581-1.45951L513.593,463.46a17.43424,17.43424,0,0,0,3.47482-2.18287l2.26019,1.2816a1.26557,1.26557,0,0,0,1.7645-.29951l3.75242-5.28757a1.26556,1.26556,0,0,0-.29951-1.76451l-1.956-1.71032a17.4209,17.4209,0,0,0,.9136-4.00064l2.50446-.69186a1.26554,1.26554,0,0,0,1.03581-1.45951l-1.08543-6.39233A1.26566,1.26566,0,0,0,524.49834,439.91664Zm-17.01479,16.05858a8.47619,8.47619,0,1,1,6.93762-9.77553A8.47629,8.47629,0,0,1,507.48355,455.97522Z"/><path class="cls-3" d="M108.07033,415.25484l-2.585-.263a17.42981,17.42981,0,0,0-1.5703-3.79108l1.64183-2.01379a1.2652,1.2652,0,0,0,0-1.78961l-4.5846-4.58476a1.2654,1.2654,0,0,0-1.78976,0l-2.0138,1.642a17.43049,17.43049,0,0,0-3.79107-1.57046l-.263-2.585a1.26542,1.26542,0,0,0-1.26547-1.26547H85.36541a1.26552,1.26552,0,0,0-1.26547,1.26547l-.26283,2.585a17.42889,17.42889,0,0,0-3.79123,1.57046l-2.01364-1.642a1.2654,1.2654,0,0,0-1.78976,0l-4.58476,4.58476a1.26549,1.26549,0,0,0,0,1.78961l1.642,2.01379a17.43077,17.43077,0,0,0-1.57046,3.79108l-2.58481.263a1.26545,1.26545,0,0,0-1.26562,1.26546v6.4838a1.26554,1.26554,0,0,0,1.26562,1.26546l2.58481.26284a17.421,17.421,0,0,0,1.57046,3.79123l-1.642,2.01363a1.26569,1.26569,0,0,0,0,1.78977l4.58476,4.58475a1.26566,1.26566,0,0,0,1.78976,0l2.01364-1.642a17.42836,17.42836,0,0,0,3.79123,1.57045l.26283,2.58482a1.26555,1.26555,0,0,0,1.26547,1.26562H91.8492a1.26545,1.26545,0,0,0,1.26547-1.26562l.263-2.58482a17.43,17.43,0,0,0,3.79107-1.57045l2.0138,1.642a1.26566,1.26566,0,0,0,1.78976,0l4.5846-4.58475a1.2654,1.2654,0,0,0,0-1.78977l-1.64183-2.01363a17.42793,17.42793,0,0,0,1.5703-3.79123l2.585-.26284a1.2655,1.2655,0,0,0,1.26546-1.26546v-6.4838A1.26541,1.26541,0,0,0,108.07033,415.25484ZM88.60738,428.2384a8.4762,8.4762,0,1,1,8.47613-8.47612A8.47611,8.47611,0,0,1,88.60738,428.2384Z"/><path class="cls-2" d="M1238.17778,188.62079l-2.58481-.26283a17.43191,17.43191,0,0,0-1.57044-3.79123l1.64182-2.01364a1.26542,1.26542,0,0,0,0-1.78977l-4.5846-4.58475a1.26569,1.26569,0,0,0-1.78977,0l-2.01379,1.642a17.4267,17.4267,0,0,0-3.79108-1.57046l-.26283-2.58481a1.26542,1.26542,0,0,0-1.26545-1.26547H1215.473a1.26546,1.26546,0,0,0-1.26562,1.26547l-.26283,2.58481a17.42629,17.42629,0,0,0-3.79108,1.57046l-2.01379-1.642a1.26569,1.26569,0,0,0-1.78977,0l-4.58475,4.58475a1.26571,1.26571,0,0,0,0,1.78977l1.642,2.01364a17.432,17.432,0,0,0-1.57046,3.79123l-2.58481.26283a1.26552,1.26552,0,0,0-1.26547,1.26547v6.48379a1.26555,1.26555,0,0,0,1.26547,1.26562l2.58481.26283a17.42728,17.42728,0,0,0,1.57046,3.79108l-1.642,2.01379a1.26552,1.26552,0,0,0,0,1.78962l4.58475,4.58475a1.2654,1.2654,0,0,0,1.78977,0l2.01379-1.642a17.41888,17.41888,0,0,0,3.79108,1.57046l.26283,2.585a1.26555,1.26555,0,0,0,1.26562,1.26547h6.48381a1.26552,1.26552,0,0,0,1.26545-1.26547l.26283-2.585a17.41929,17.41929,0,0,0,3.79108-1.57046l2.01379,1.642a1.2654,1.2654,0,0,0,1.78977,0l4.5846-4.58475a1.26524,1.26524,0,0,0,0-1.78962l-1.64182-2.01364a17.4315,17.4315,0,0,0,1.57044-3.79123l2.58481-.26283a1.26555,1.26555,0,0,0,1.26547-1.26562v-6.48379A1.26552,1.26552,0,0,0,1238.17778,188.62079Zm-19.46294,12.98357a8.47613,8.47613,0,1,1,8.47612-8.47613A8.47612,8.47612,0,0,1,1218.71484,201.60436Z"/><path class="cls-3" d="M1319.18052,426.38022h-6.4844a2.02853,2.02853,0,0,1-2.02581-2.02718l-.20653-2.00055a18.12646,18.12646,0,0,1-3.00073-1.24249l-1.61857,1.3198a1.95852,1.95852,0,0,1-1.37474.54241h-.00137a2.01251,2.01251,0,0,1-1.43287-.59446l-4.58506-4.585a2.02952,2.02952,0,0,1-.00137-2.86393l1.27064-1.56209a18.12349,18.12349,0,0,1-1.24249-2.99923l-2.07923-.21246h-.00593a2.00792,2.00792,0,0,1-1.94257-2.02277v-6.483a2.02843,2.02843,0,0,1,2.02581-2.02718l2.00192-.20668a18.31231,18.31231,0,0,1,1.24112-3.00075l-1.31978-1.617a2.01178,2.01178,0,0,1,.05051-2.809l4.58643-4.58505a2.01313,2.01313,0,0,1,1.43287-.59446h.00137a2.01769,2.01769,0,0,1,1.43273.596l1.55906,1.26638a18.23579,18.23579,0,0,1,3.00073-1.24264l.21261-2.07923a2.00531,2.00531,0,0,1,2.02125-1.94835h6.4844a2.02714,2.02714,0,0,1,2.02582,2.02566l.20654,2.00192a18.25248,18.25248,0,0,1,3.00073,1.24112l1.62007-1.31828a1.94891,1.94891,0,0,1,1.37474-.54256h.00152a2.01821,2.01821,0,0,1,1.43273.596l4.58354,4.58216a2.02919,2.02919,0,0,1,0,2.867l-1.26928,1.559a18.26721,18.26721,0,0,1,1.244,3.0006l2.0436.2082a2.03072,2.03072,0,0,1,1.98412,2.02718v6.483a2.02985,2.02985,0,0,1-2.02734,2.02719l-2.00038.20652a18.214,18.214,0,0,1-1.24251,2.99923l1.3198,1.61855a1.95982,1.95982,0,0,1,.54241,1.37778,2.01733,2.01733,0,0,1-.596,1.43273l-4.58353,4.58353a2.01569,2.01569,0,0,1-1.43121.59446h-.00152a2.012,2.012,0,0,1-1.43272-.59446l-1.56057-1.26775a18.0726,18.0726,0,0,1-3.00073,1.24249l-.21248,2.07771A2.00693,2.00693,0,0,1,1319.18052,426.38022Zm-11.88246-7.09971.45186.254a16.67815,16.67815,0,0,0,3.62488,1.50121l.498.14108.315,3.09892a.53343.53343,0,0,0,.50832.58258h6.4844a.50549.50549,0,0,0,.50391-.50527l.3196-3.17623.49781-.14108a16.616,16.616,0,0,0,3.62489-1.50121l.45185-.254,2.41666,1.9692a.57872.57872,0,0,0,.41318.20059h.00152a.49926.49926,0,0,0,.3537-.147l4.58658-4.58657a.50267.50267,0,0,0,0-.71348l-2.0214-2.47158.25278-.45185a16.65293,16.65293,0,0,0,1.50259-3.62489l.14108-.49781,3.09891-.31519a.53443.53443,0,0,0,.58259-.50969v-6.483a.50679.50679,0,0,0-.50543-.50527l-.07716-.00457-3.09891-.315-.14108-.49782a16.69714,16.69714,0,0,0-1.50259-3.62656l-.25278-.4517,1.96935-2.41375a.53114.53114,0,0,0,.05205-.77131l-4.58506-4.58353a.50069.50069,0,0,0-.35522-.14869h-.00152a.50419.50419,0,0,0-.35673.14869l-2.47311,2.01973-.45033-.25264a16.5753,16.5753,0,0,0-3.62641-1.50106l-.49781-.14123-.31519-3.10029a.53193.53193,0,0,0-.50832-.58106h-6.4844a.50428.50428,0,0,0-.5039.50375l-.31945,3.1776-.498.14123a16.64037,16.64037,0,0,0-3.62641,1.50106l-.45185.25264-2.4136-1.96768a.58154.58154,0,0,0-.4132-.20074h-.00137a.50419.50419,0,0,0-.35673.14869l-4.58506,4.58353a.50817.50817,0,0,0,.00152.71637l2.01973,2.46869-.25264.4517a16.63772,16.63772,0,0,0-1.501,3.62656l-.14125.49782-3.10028.315a.53336.53336,0,0,0-.58122.50984v6.483a.50559.50559,0,0,0,.5039.50528l3.1776.3196.14125.49781a16.5629,16.5629,0,0,0,1.501,3.62489l.25264.45185-1.9692,2.41512a.53182.53182,0,0,0-.05205.76994l4.58506,4.58505a.504.504,0,0,0,.35673.14854h.00137a.49926.49926,0,0,0,.3537-.147Zm8.6411-5.15288a9.237,9.237,0,1,1,9.23693-9.23692A9.24735,9.24735,0,0,1,1315.93916,414.12763Zm0-16.95209a7.71509,7.71509,0,1,0,7.715,7.71517A7.72453,7.72453,0,0,0,1315.93916,397.17554Z"/><path class="cls-3" d="M1454.37269,84.389h-7.36439a2.20024,2.20024,0,0,1-2.19809-2.19886l-.24229-2.35043a20.644,20.644,0,0,1-3.5165-1.45586l-1.89191,1.542a2.18175,2.18175,0,0,1-3.05126-.05129l-5.20632-5.20782a2.19922,2.19922,0,0,1,0-3.10911l1.49071-1.8333a20.57954,20.57954,0,0,1-1.45646-3.51576l-2.42852-.2467h-.00608a2.18054,2.18054,0,0,1-2.11485-2.19444V56.40321a2.20031,2.20031,0,0,1,2.19809-2.19825l2.34983-.24228a20.57282,20.57282,0,0,1,1.458-3.51638l-1.54276-1.89127a2.12337,2.12337,0,0,1-.59156-1.49665,2.18737,2.18737,0,0,1,.64361-1.55539l5.20632-5.20691a2.20441,2.20441,0,0,1,3.10926-.00076l1.83391,1.49208a20.58542,20.58542,0,0,1,3.515-1.45647l.24822-2.42851a2.17837,2.17837,0,0,1,2.19368-2.12078h7.36439a2.20017,2.20017,0,0,1,2.19808,2.19809l.24228,2.3512a20.47535,20.47535,0,0,1,3.5164,1.45586l1.89049-1.54276a2.29238,2.29238,0,0,1,3.0528.05129l5.20632,5.20843a2.19612,2.19612,0,0,1,0,3.10926l-1.49073,1.83329a20.53258,20.53258,0,0,1,1.45647,3.51577l2.39442.24365a2.2,2.2,0,0,1,2.155,2.19749v7.36422a2.20032,2.20032,0,0,1-2.19824,2.19824l-2.3512.24214a20.51448,20.51448,0,0,1-1.45647,3.51652l1.54276,1.89128a2.125,2.125,0,0,1,.59294,1.49665,2.18877,2.18877,0,0,1-.645,1.55524l-5.20632,5.2063a2.25227,2.25227,0,0,1-3.10926,0l-1.834-1.49071a20.69962,20.69962,0,0,1-3.51487,1.45662l-.24823,2.42775A2.17859,2.17859,0,0,1,1454.37269,84.389Zm-13.48627-7.83464.45186.2534a19.14342,19.14342,0,0,0,4.14066,1.715l.498.14047.35065,3.44956a.70434.70434,0,0,0,.68075.75426h7.36439a.67739.67739,0,0,0,.67617-.677l.35521-3.52687.498-.14047a19.14653,19.14653,0,0,0,4.14066-1.715l.4517-.2534,2.68724,2.1914a.67534.67534,0,0,0,1.015.05129l5.20628-5.2063a.67259.67259,0,0,0,0-.95561l-2.24421-2.74659.25279-.45186a19.00965,19.00965,0,0,0,1.715-4.13914l.14123-.49857,3.45109-.35156a.70251.70251,0,0,0,.75349-.68V56.40321a.6768.6768,0,0,0-.67633-.67634l-.07716-.00365-3.45261-.35156-.13971-.49858a18.88877,18.88877,0,0,0-1.715-4.13914l-.25279-.45185,2.19231-2.68861a.7486.7486,0,0,0,.25112-.5351.67028.67028,0,0,0-.19922-.47773l-5.20628-5.20858a.69307.69307,0,0,0-.95715,0l-2.74507,2.24421-.4517-.2534a19.038,19.038,0,0,0-4.14066-1.71443l-.498-.14047-.3508-3.45093a.70342.70342,0,0,0-.68058-.7535h-7.36439a.67674.67674,0,0,0-.67618.67618l-.35522,3.52825-.498.14047a19.035,19.035,0,0,0-4.14066,1.71443l-.45186.2534-2.68859-2.19216a.6999.6999,0,0,0-1.01359-.05129l-5.20632,5.20706a.67626.67626,0,0,0,0,.95561l2.24421,2.74659-.25264.45185a18.97485,18.97485,0,0,0-1.71656,4.1399l-.14121.49782-3.44958.35156a.70242.70242,0,0,0-.7535.68v7.36422a.67685.67685,0,0,0,.67618.67633l3.5269.35522.14121.49781a19.09741,19.09741,0,0,0,1.715,4.14066l.25279.4511-2.19079,2.6886a.74594.74594,0,0,0-.24974.53511.669.669,0,0,0,.19769.47772l5.20632,5.20783a.67765.67765,0,0,0,.95711-.00076Zm9.80325-1.98411a14.48493,14.48493,0,1,1,14.48491-14.48493A14.50127,14.50127,0,0,1,1450.68967,74.57025Zm0-27.44795a12.963,12.963,0,1,0,12.963,12.963A12.97781,12.97781,0,0,0,1450.68967,47.1223Z"/><path class="cls-3" d="M1450.68967,67.80034a7.715,7.715,0,1,1,7.71667-7.715A7.7239,7.7239,0,0,1,1450.68967,67.80034Zm0-13.90813a6.19311,6.19311,0,1,0,6.19476,6.19311A6.2,6.2,0,0,0,1450.68967,53.89221Z"/><path class="cls-3" d="M65.38108,95.03012H58.62684a2.08209,2.08209,0,0,1-2.07923-2.08l-.21779-2.10754A18.97318,18.97318,0,0,1,53.171,89.534l-1.70256,1.38814a2.16463,2.16463,0,0,1-2.88326-.052l-4.77606-4.77606a2.07832,2.07832,0,0,1,0-2.94048l1.33685-1.64382A18.92119,18.92119,0,0,1,43.83723,78.35l-2.18471-.22144h-.00669a2.06127,2.06127,0,0,1-1.996-2.07543V69.29888a2.08134,2.08134,0,0,1,2.07924-2.07923l2.10754-.21778a18.95658,18.95658,0,0,1,1.3093-3.159L43.757,62.14043a2.00436,2.00436,0,0,1-.55732-1.41355,2.06344,2.06344,0,0,1,.60937-1.46986L48.58513,54.481a2.08016,2.08016,0,0,1,2.94048,0l1.64457,1.337a18.93644,18.93644,0,0,1,3.159-1.30869l.2222-2.18546a2.0608,2.0608,0,0,1,2.07543-2.00207h6.75424A2.08144,2.08144,0,0,1,67.46031,52.401l.217,2.1083A18.83234,18.83234,0,0,1,70.83712,55.818l1.70165-1.38829a2.16492,2.16492,0,0,1,2.88417.05129L80.19816,59.257a2.07835,2.07835,0,0,1,0,2.94048L78.862,63.84208a18.9768,18.9768,0,0,1,1.3079,3.159l2.15207.21916a2.08086,2.08086,0,0,1,2.03615,2.07862v6.75424a2.08143,2.08143,0,0,1-2.07925,2.07923l-2.109.21687A18.89523,18.89523,0,0,1,78.862,81.509l1.38815,1.70256a2.00525,2.00525,0,0,1,.55734,1.41264,2.06829,2.06829,0,0,1-.60936,1.47062l-4.776,4.7753a2.12944,2.12944,0,0,1-2.94064,0L70.83788,89.534a19.02259,19.02259,0,0,1-3.15979,1.30778l-.22143,2.18485A2.06179,2.06179,0,0,1,65.38108,95.03012ZM53.006,87.70516l.45109.2534a17.44558,17.44558,0,0,0,3.78393,1.5665l.49782.14048.327,3.20727a.58469.58469,0,0,0,.561.6354h6.75424a.55816.55816,0,0,0,.55732-.55809l.32995-3.28382.498-.14124a17.44541,17.44541,0,0,0,3.78468-1.5665l.4511-.2534,2.49836,2.03693a.55257.55257,0,0,0,.84482.052l4.77684-4.77606a.55527.55527,0,0,0,0-.787L77.03321,81.674l.25341-.4511a17.45085,17.45085,0,0,0,1.56649-3.78468l.1412-.49782,3.20805-.32629a.58371.58371,0,0,0,.63388-.561V69.29888a.55748.55748,0,0,0-.55734-.55732l-.07728-.0038-3.208-.32691-.14046-.498A17.455,17.455,0,0,0,77.28662,64.129l-.25341-.4511,2.0369-2.49913a.585.585,0,0,0,.052-.84557L74.346,55.5571a.57137.57137,0,0,0-.78835,0L71.0021,57.64669l-.45186-.2534A17.36537,17.36537,0,0,0,66.76632,55.826l-.498-.14109-.32615-3.20742a.58384.58384,0,0,0-.56112-.63388H58.62684a.55761.55761,0,0,0-.55732.55733l-.33071,3.28458L57.241,55.826a17.40737,17.40737,0,0,0-3.78332,1.56726l-.4517.2534L50.50684,55.609a.58335.58335,0,0,0-.84572-.0519l-4.77606,4.77606a.55868.55868,0,0,0,0,.78835l2.08973,2.55635-.25339.45186a17.39871,17.39871,0,0,0-1.56727,3.78316l-.14047.498-3.20727.32691a.584.584,0,0,0-.63464.56112v6.75424a.55751.55751,0,0,0,.55733.55732l3.28382.32995.14123.49782a17.358,17.358,0,0,0,1.56727,3.78392l.25339.45186-2.03768,2.49913a.62942.62942,0,0,0-.2155.45109.55065.55065,0,0,0,.16345.39311l4.77606,4.77682a.56025.56025,0,0,0,.7885,0Zm8.99768-1.68094A13.34868,13.34868,0,1,1,75.35232,72.67555,13.36359,13.36359,0,0,1,62.00365,86.02422Zm0-25.17544A11.82677,11.82677,0,1,0,73.83041,72.67555,11.83976,11.83976,0,0,0,62.00365,60.84878Z"/><path class="cls-3" d="M62.00365,79.81543a7.13951,7.13951,0,1,1,7.13913-7.13988A7.1476,7.1476,0,0,1,62.00365,79.81543Zm0-12.7571a5.6176,5.6176,0,1,0,5.61722,5.61722A5.62361,5.62361,0,0,0,62.00365,67.05833Z"/><polygon class="cls-4" points="408.127 629.127 305.164 629.127 294.635 465.642 418.656 465.642 408.127 629.127"/><polygon class="cls-5" points="413.217 575.082 417.715 503.135 295.576 503.135 300.074 575.082 413.217 575.082"/><polygon class="cls-5" points="293.293 452.468 290.872 465.642 422.42 465.642 419.999 452.468 293.293 452.468"/><polygon class="cls-5" points="407.267 436.762 401.123 436.762 327.504 436.762 305.666 436.762 302.314 455.002 327.465 455.002 401.091 455.002 410.619 455.002 407.267 436.762"/><rect class="cls-6" x="302.7793" y="451.70724" width="107.37422" height="1.52191"/><path class="cls-7" d="M372.12875,565.45675a26.34807,26.34807,0,1,1,26.3473-26.34807A26.37839,26.37839,0,0,1,372.12875,565.45675Zm0-51.17422a24.82616,24.82616,0,1,0,24.82539,24.82615A24.854,24.854,0,0,0,372.12875,514.28253Z"/><path class="cls-8" d="M596.77219,275.81815h433.30942a15.2125,15.2125,0,0,1,15.2125,15.2125v306.221a15.2125,15.2125,0,0,1-15.2125,15.2125H596.7723a15.21261,15.21261,0,0,1-15.21261-15.21261V291.03065A15.2125,15.2125,0,0,1,596.77219,275.81815Z"/><path class="cls-9" d="M541.68155,612.46412a25.99947,25.99947,0,0,0,24.13611,16.66279H1061.036a25.99919,25.99919,0,0,0,24.13612-16.66279Z"/><path class="cls-10" d="M817.29026,612.46412H777.0572a12.99957,12.99957,0,0,0,12.068,8.33139h48.60326a12.99976,12.99976,0,0,0,12.06812-8.33139Z"/><path class="cls-11" d="M596.77219,275.81815h433.30942a15.2125,15.2125,0,0,1,15.2125,15.2125v306.221a15.2125,15.2125,0,0,1-15.2125,15.2125H596.7723a15.21261,15.21261,0,0,1-15.21261-15.21261V291.03065A15.2125,15.2125,0,0,1,596.77219,275.81815Z"/><rect class="cls-10" x="600.30109" y="611.70256" width="426.25129" height="1.52191"/><rect class="cls-12" x="603.06625" y="296.93571" width="420.72113" height="294.41085"/><path class="cls-10" d="M823.57818,289.4225h-20.3035a2.75359,2.75359,0,1,1,0-5.50718h20.3035a2.75359,2.75359,0,1,1,0,5.50718Zm-20.3035-3.98527a1.23168,1.23168,0,1,0,0,2.46336h20.3035a1.23168,1.23168,0,1,0,0-2.46336Z"/><rect class="cls-13" x="603.06625" y="532.82183" width="420.72175" height="1.52191"/><rect class="cls-13" x="603.06625" y="453.93957" width="420.72175" height="1.52191"/><rect class="cls-13" x="603.06625" y="375.05747" width="420.72175" height="1.52191"/><rect class="cls-14" x="630.66289" y="471.94711" width="72.34093" height="119.39945"/><rect class="cls-15" x="728.39201" y="409.284" width="72.34078" height="182.06256"/><rect class="cls-16" x="826.12098" y="353.44559" width="72.34079" height="237.90097"/><rect class="cls-17" x="923.84996" y="258.60657" width="72.34078" height="332.73999"/><polygon class="cls-17" points="567.282 491.854 560.825 485.397 677.484 368.738 728.273 368.738 764.036 332.975 785.834 332.975 915.689 203.121 1017.014 203.121 1050.473 169.661 1056.93 176.117 1020.795 212.253 919.47 212.253 789.616 342.107 767.819 342.107 732.056 377.869 681.267 377.869 567.282 491.854"/><polygon class="cls-17" points="1062.708 198.979 1053.576 198.979 1053.576 172.75 1027.881 172.75 1027.881 163.618 1062.708 163.618 1062.708 198.979"/><polygon class="cls-12" points="1251.684 620.944 1269.648 620.944 1265.72 595.942 1248.548 595.942 1251.684 620.944"/><path class="cls-18" d="M1269.13641,615.40765c-9.69106.41366-14.8841-.6949-18.52362-3.06056,0,0-3.20544,5.86437-6.963,7.45857-3.75775,1.59421-12.3611,2.11789-12.3611,9.79273l35.7614.00016a3.47859,3.47859,0,0,0,3.70065-3.41624Z"/><rect class="cls-19" x="1201.1973" y="258.6399" width="27.08482" height="64.86273" transform="translate(2429.47941 582.14253) rotate(180)"/><path class="cls-19" d="M1180.86367,307.51786s-10.40619-6.9495-27.15756-6.9011c-16.75136.04824,6.82881,22.891,6.82881,22.891Z"/><path class="cls-5" d="M976.39937,221.4811a87.69051,87.69051,0,1,0,26.21976-121.20945A87.69029,87.69029,0,0,0,976.39937,221.4811Zm23.909-15.40461a59.24852,59.24852,0,1,1,81.89578,17.71563A59.24849,59.24849,0,0,1,1000.30842,206.07649Z"/><path class="cls-12" d="M1098.50994,271.93683l22.303-14.37-11.906-18.47872c-5.97382-3.23086-23.94712,9.03938-22.303,14.36987Z"/><path class="cls-5" d="M1120.2174,252.11578l49.71074,71.38106a5.73248,5.73248,0,0,1-1.71412,7.92367l-22.0438,14.20307a5.73256,5.73256,0,0,1-7.92382-1.71412l-44.45407-74.76777C1089.92516,263.47394,1116.34779,246.59292,1120.2174,252.11578Z"/><path class="cls-6" d="M997.15167,201.69719A60.00885,60.00885,0,1,1,1098.04059,136.692l-1.2781.82488a58.48768,58.48768,0,0,0-98.33272,63.35543Z"/><path class="cls-6" d="M1046.31057,254.05819a87.83075,87.83075,0,0,1-18.58843-1.99827A86.51922,86.51922,0,0,1,972.9215,214.105l1.27811-.82473a85.57621,85.57621,0,0,0,143.87555-92.6983l1.27812-.82487a87.14038,87.14038,0,0,1-73.04271,134.30107Z"/><path class="cls-12" d="M1098.70931,163.30474a49.84063,49.84063,0,0,0-29.62366-35.3042l1.73589-4.22239a54.40372,54.40372,0,0,1,32.34651,38.54708Z"/><path class="cls-12" d="M1059.35516,125.112a49.70085,49.70085,0,0,0-16.91039-.28384l-.70145-4.51216a54.22718,54.22718,0,0,1,18.462.31062Z"/><polygon class="cls-12" points="1168.463 620.944 1187.24 620.944 1189.15 595.942 1171.2 595.942 1168.463 620.944"/><path class="cls-17" d="M1174.10776,398.068h67.0246c18.56593,50.11,28.32883,126.56582,32.14382,208.28263-8.3025,2.67719-17.3367,2.90289-30.55251,0-15.48924-58.96654-31.34784-102.72327-35.31926-159.49111,1.25527,53.08116-5.92662,106.17009-14.96509,159.49111-9.60371,3.08963-19.20255,2.49107-28.7988,0C1158.61077,516.94587,1153.95022,428.40589,1174.10776,398.068Z"/><path class="cls-6" d="M1207.456,447.61863l-.10395-1.51887c8.28132-.56478,14.08513-2.99177,17.74562-7.42083l1.17416.969C1222.33038,444.41729,1216.17578,447.02417,1207.456,447.61863Z"/><path class="cls-18" d="M1188.013,615.40765c-9.69107.41366-14.88413-.6949-18.52362-3.06056,0,0-3.2053,5.86437-6.96305,7.45857s-12.3611,2.11789-12.3611,9.79273l35.76138.00016a3.47849,3.47849,0,0,0,3.70067-3.41624Z"/><path class="cls-19" d="M1118.61863,295.175l-3.20681-14.4274c-.68121-3.24365-5.70991-2.86287-6.00089,0-.56555,4.19621.32279,11.7152-1.42132,12.27237L1095.022,271.20981c-4.37869,9.04867-5.23811,18.656,1.10247,29.40664C1104.30857,317.5582,1121.19979,307.58939,1118.61863,295.175Z"/><path class="cls-19" d="M1202.61359,284.14315h.00015a17.805,17.805,0,0,0,17.75277-17.75277V252.37024a17.80494,17.80494,0,0,0-17.75277-17.75277h-.00015c-9.764,0-17.75275-12.99254-17.75275-3.22858v16.97355c-1.726,4.38554-3.57149,7.11828-2.63506,8.90607.93643,1.78763,2.63506,4.41886,2.63506,4.41886C1184.94985,277.9852,1192.84962,284.14315,1202.61359,284.14315Z"/><path class="cls-20" d="M1201.1973,284.08608V272.70539l-3.76764,10.66067A17.47589,17.47589,0,0,0,1201.1973,284.08608Z"/><path class="cls-18" d="M1228.17634,232.82253c-5.33414-11.08711-20.94558-14.50669-30.71-12.77841-7.94985-4.57989-14.30687-1.93481-16.33162,3.802-2.33658,10.3292,5.69042,13.941,14.651,15.748-.57087,10.84407-.6529,17.1921,3.27333,18.8764a11.56824,11.56824,0,0,1-.191-6.5745c1.73513-4.26378,5.824-3.9145,7.51092-1.43211,1.878,2.52287,1.88352,9.57479-2.35515,13.90782,7.95609,9.57159,14.38281,10.09345,24.25833,10.093C1234.53808,257.92278,1243.84029,238.44111,1228.17634,232.82253Z"/><path class="cls-12" d="M1163.78252,422.4333s19.91571,9.864,53.21266,8.82708c33.29679-1.03688,33.75763-11.873,33.75763-11.873l-87.18488-1.75872Z"/><polygon class="cls-20" points="1184.861 261.687 1184.861 255.254 1183.476 259.46 1184.861 261.687"/><path class="cls-16" d="M1250.75281,419.38735c8.01788-30.58719,7.50727-63.86922,5.01667-98.9115-2.416-21.62086-13.795-26.06635-28.06675-26.06635h-27.52435c-23.44639.64392-38.95237,9.65773-38.95237,28.32913-5.07587,32.69564-6.81693,64.93289,1.388,96.55315C1200.08463,423.69588,1230.50974,423.88551,1250.75281,419.38735Z"/><path class="cls-12" d="M1100.16106,315.2767l-1.19348-7.44716c3.15659-4.119,14.65571-8.16322,21.33915-6.15825l3.24608,8.97485Z"/><path class="cls-16" d="M1191.73422,300.46046a17.50257,17.50257,0,0,0-18.31558.30042l-.00959-.00943c-13.19313,7.45994-26.93414,19.5608-39.6879,34.05029-3.72364-12.60293-6.447-18.37949-10.69339-27.68825-9.07409-.24077-19.19083,2.50141-23.42965,7.35158,0,0,7.48505,58.2409,28.108,61.678s64.54221-39.73524,64.54221-39.73524l-.191-1.60607c2.83623-1.45692,4.08087-7.39633,5.82526-10.34244A17.51779,17.51779,0,0,0,1191.73422,300.46046Z"/><rect class="cls-21" x="1126.64724" y="339.24392" width="10.90114" height="1.5226" transform="translate(470.51801 1319.57716) rotate(-72.68253)"/><path class="cls-12" d="M1228.4022,286.33135c2.02413,3.27272,2.77885,5.20128,2.94385,8.22684-8.68054,6.23907-20.276,5.5294-35.70753.20652a24.71152,24.71152,0,0,1,5.53138-8.51295C1208.54523,287.87487,1220.00021,288.87735,1228.4022,286.33135Z"/><path class="cls-21" d="M1157.3698,365.87244l-.862-1.25436c.14123-.09664,14.22331-9.77948,23.02636-17.66465l1.01647,1.134C1171.672,356.03953,1157.511,365.776,1157.3698,365.87244Z"/><path class="cls-21" d="M1200.06058,323.6536l-1.49512-.29129c1.4134-7.24764.43544-13.06332-2.90563-17.28646-5.29548-6.69473-14.86845-7.15252-14.96494-7.15617l.05936-1.52054c.41913.01567,10.35324.47864,16.09162,7.72247C1200.48109,309.70971,1201.56164,315.94452,1200.06058,323.6536Z"/><path class="cls-21" d="M1211.93409,306.90818c-7.69282,0-14.05836-.41092-16.5552-1.31615l.52018-1.4312c5.88112,2.13569,40.09274,1.35328,53.7662-1.85034l.34774,1.48173C1241.72134,305.73479,1224.93272,306.90818,1211.93409,306.90818Z"/><path class="cls-18" d="M385.75411,236.56567c0,21.805-13.28217,39.48138-29.66659,39.48138-16.38427,0-29.66648-17.67638-29.66648-39.48138a43.59682,43.59682,0,0,1,1.52483-11.83711c3.93552-13.97068,15.048-21.04528,28.14165-21.04528,13.06757,0,24.16169,7.04629,28.118,20.96142A43.53238,43.53238,0,0,1,385.75411,236.56567Z"/><path class="cls-22" d="M249.69233,313.33231c2.33568,6.44727,26.51685,5.95584,26.56753-8.089C274.83352,302.4849,248.83489,309.62859,249.69233,313.33231Z"/><path class="cls-19" d="M263.42179,314.83063a10.47623,10.47623,0,0,1-8.626-1.99537c-2.68723-2.20845-4.35342-5.49623-5.48252-8.72435a40.10442,40.10442,0,0,1-2.52516-10.81743c-.42994-2.97533,1.66969-5.53747,4.54854-5.23446.43861-2.67232,4.46513-3.31867,5.36838-1.79372-.31595-1.90787,4.7444-3.55061,5.09992-1.05392-1.00751-4.493-3.36768-17.84226-3.36768-17.84226-.72078-3.76353,4.22923-6.0292,5.6268-1.33243.99731,2.53687,5.70184,24.5589,5.70184,24.5589,1.961-.50634.42339-8.91032,5.11011-10.71987.65792-.12008.918.36891,1.0107.773,1.51933,13.15356-2.03814,20.698-2.85327,23.48048C271.80142,308.33467,269.12012,313.81719,263.42179,314.83063Z"/><path class="cls-23" d="M255.92638,300.00982a3.75233,3.75233,0,0,1-2.51632-1.02638,3.73936,3.73936,0,0,1-3.16269.7952,3.426,3.426,0,0,1-2.3757-2.34907l1.08041-.36556a2.28438,2.28438,0,0,0,1.568,1.60592,2.78,2.78,0,0,0,2.53185-.8821l.43618-.41609.39159.4584a2.56957,2.56957,0,0,0,2.69317.93932,2.16874,2.16874,0,0,0,1.48477-1.94545l.20348-2.01014.87845,1.81914a2.20255,2.20255,0,0,0,2.54524,1.33608A1.76731,1.76731,0,0,0,262.763,295.803l-1.63483-11.01817,1.12956-.168,1.63483,11.01969a2.89146,2.89146,0,0,1-1.87408,3.42354,3.203,3.203,0,0,1-3.17318-.8783,3.20046,3.20046,0,0,1-1.93206,1.67715A3.31185,3.31185,0,0,1,255.92638,300.00982Z"/><rect class="cls-23" x="257.13593" y="286.16625" width="1.1418" height="10.79372" transform="translate(-45.86378 48.11549) rotate(-9.7994)"/><rect class="cls-23" x="251.82054" y="287.95114" width="1.1415" height="10.35838" transform="translate(-54.39701 57.52963) rotate(-11.7481)"/><path class="cls-23" d="M260.45269,303.69421a14.57239,14.57239,0,0,1-.41167-4.96629l1.13549.12327a13.44151,13.44151,0,0,0,.38489,4.574Z"/><path class="cls-23" d="M263.53958,293.94212l-.78622-.82777a12.72712,12.72712,0,0,1,6.963-3.08689l.1003,1.13687A11.76307,11.76307,0,0,0,263.53958,293.94212Z"/><polygon class="cls-19" points="254.796 312.835 258.342 331.587 278.528 326.43 272.176 305.365 254.796 312.835"/><path class="cls-18" d="M301.98867,535.3275c-.26072,8.11147.89681,21.0439,4.03577,30.5601,2.06607,6.26357,5.68371,14.8167,12.61669,16.94555a9.76912,9.76912,0,0,0,5.26712.10075c13.66128-3.441,3.9319-32.47588,3.9319-32.47588l-5.42207-24.11177c-1.18654-5.27661-6.9175-8.03035-11.90383-6.94325a11.1728,11.1728,0,0,0-7.5418,5.9875A23.903,23.903,0,0,0,301.98867,535.3275Z"/><path class="cls-6" d="M320.557,580.83336c-4.33536,0-8.30065-3.249-11.5741-9.52974l1.34951-.70449c3.52238,6.75941,7.59839,9.604,12.118,8.47,4.49885-1.134,6.76314-5.42621,6.729-12.76243l1.52193-.00593c.03713,8.01087-2.68715,12.93623-7.87933,14.24416A9.29234,9.29234,0,0,1,320.557,580.83336Z"/><path class="cls-12" d="M301.05,513.19787l3.286,23.00184a9.85262,9.85262,0,0,0,.54711,2.20707c2.29182,3.9107,14.16022,5.06644,17.66257-2.20723l-1.50607-23.96Z"/><path class="cls-18" d="M412.68,535.3275c.2607,8.11147-.89671,21.0439-4.03565,30.5601-2.06615,6.26357-5.68372,14.8167-12.61678,16.94555a9.76878,9.76878,0,0,1-5.267.10075c-13.66142-3.441-3.932-32.47588-3.932-32.47588l5.42211-24.11177c1.18648-5.27661,6.91754-8.03035,11.90377-6.94325a11.17273,11.17273,0,0,1,7.54183,5.9875A23.90355,23.90355,0,0,1,412.68,535.3275Z"/><path class="cls-6" d="M394.11167,580.83336a9.22312,9.22312,0,0,1-2.26505-.28992c-5.19215-1.30641-7.91637-6.23177-7.87924-14.24264l1.52191.00593c-.03424,7.33622,2.23006,11.62846,6.729,12.76091,4.516,1.14737,8.59711-1.7091,12.11881-8.46851l1.34948.70449C402.41308,577.58439,398.44775,580.83336,394.11167,580.83336Z"/><path class="cls-12" d="M413.61875,513.19787l-3.28611,23.00184a9.8456,9.8456,0,0,1-.547,2.20707c-5.418,5.90029-16.56431,2.6326-17.66268-2.20723l1.50609-23.96Z"/><path class="cls-16" d="M393.32911,393.2239,321.67839,390.782s-28.06846-1.31112-41.67783,19.13741c-13.60922,20.44853,17.32694,114.671,17.32694,114.671,9.44384,4.40151,22.10836,1.32193,27.88653-2.893-2.05583-32.57039-.95941-62.59371-4.11485-84.94007h73.4155c-5.686,23.3805-4.42191,51.3118-4.28083,81.42841,8.49941,5.74613,17.92581,7.38522,28.534,3.49294,0,0,28.96742-91.32615,17.40182-109.83379S393.32911,393.2239,393.32911,393.2239Z"/><path class="cls-21" d="M320.33922,436.78248c-.00521-.13819-.48972-13.92609-2.20484-18.66273-2.62173-7.244-8.78293-11.239-18.31122-11.875l.10107-1.519c10.18669.68075,16.79451,5.01165,19.6414,12.87688,1.79613,4.9596,2.27469,18.55269,2.294,19.12934Z"/><path class="cls-21" d="M395.26726,436.86862l-1.50563-.22281a92.09283,92.09283,0,0,1,4.3793-18.79954c.02009-.07275,3.7891-12.23616,17.03382-13.12054l.10106,1.519c-12.17011.81148-15.555,11.62678-15.69318,12.08761A90.78023,90.78023,0,0,0,395.26726,436.86862Z"/><rect class="cls-21" x="356.95802" y="400.05842" width="1.52174" height="36.71423" transform="translate(-16.85633 15.02024) rotate(-2.35008)"/><path class="cls-21" d="M353.80268,431.38594c-12.96378,0-24.1626-1.63484-34.13673-4.973l.483-1.44459c10.92763,3.6576,23.36894,5.25089,38.04776,4.8348,14.66694-.79215,27.85657-3.88056,39.18247-9.18062l.645,1.37931c-11.50351,5.38163-24.88262,8.519-39.76583,9.3217Q355.99675,431.38587,353.80268,431.38594Z"/><path class="cls-19" d="M387.71448,286.8625s-41.87459,20.77072-62.08091,0l16.56013-4.16669.12084-24.602h26.28277l.302,24.70912C370.75066,283.26942,387.71448,286.8625,387.71448,286.8625Z"/><path class="cls-24" d="M312.27268,391.4177c29.79607,14.08557,61.33324,8.10386,87.90152,2.17115,6.15126-18.61326,11.95962-72.98972,10.7424-84.20148,4.66146-26.58441-30.987-24.79526-41.0768-26.50193-7.01752,7.78472-25.98037,7.54974-28.77353-.08248-12.44277,2.991-48.68985,2.31421-43.01525,27.03764C296.02611,321.54469,307.53063,384.20415,312.27268,391.4177Z"/><path class="cls-19" d="M390.77413,244.05909c-3.49294-7.90967-10.2385-1.33532-10.2385-1.33532a68.257,68.257,0,0,0-2.39807-20.37061H338.45467l-5.754,5.75388a75.90277,75.90277,0,0,0-1.06153,14.61673s-6.74552-6.57435-10.238,1.33532c-3.83077,11.686,8.62862,15.47721,11.26533,12.12156,0,0,3.18429,21.74306,23.42112,21.74306s23.42113-21.74306,23.42113-21.74306C382.1452,259.5363,394.60492,255.74508,390.77413,244.05909Z"/><path class="cls-23" d="M356.08782,278.49428a22.55657,22.55657,0,0,1-12.56108-3.524l.62429-.95561a22.94638,22.94638,0,0,0,24.33868-.31367l.65093.938A22.42465,22.42465,0,0,1,356.08782,278.49428Z"/><path class="cls-23" d="M328.82193,253.19618c-4.18079-.32477-5.8922-3.38275-5.71384-6.08612.1501-2.28073,1.63708-3.845,3.52313-3.75881l-.06243,1.14006c-1.48995-.09664-2.23307,1.3405-2.32224,2.69378-.14268,2.16173,1.25587,4.608,4.66307,4.87255Z"/><path class="cls-23" d="M324.7214,250.9229l-.619-.95849a6.02777,6.02777,0,0,1,5.62171-.226l-.48452,1.03292A4.86383,4.86383,0,0,0,324.7214,250.9229Z"/><path class="cls-23" d="M383.70653,253.19618l-.08766-1.13854c3.40725-.26451,4.805-2.71082,4.66313-4.87178-.08919-1.35405-.8576-2.75923-2.323-2.69455l-.0624-1.14006c1.92978-.07716,3.37377,1.4796,3.52383,3.75958C389.59875,249.81419,387.88737,252.87141,383.70653,253.19618Z"/><path class="cls-23" d="M387.8064,250.9229a4.87439,4.87439,0,0,0-4.51748-.15158l-.48458-1.03292a6.0229,6.0229,0,0,1,5.621.226Z"/><path class="cls-25" d="M356.37318,263.60285a16.41092,16.41092,0,0,1-7.30714-1.83847l.50679-1.02257c4.81761,2.38316,9.28381,2.31559,13.64956-.20515l.57071.98848A14.68828,14.68828,0,0,1,356.37318,263.60285Z"/><path class="cls-23" d="M356.39982,266.825a10.09893,10.09893,0,0,1-3.03484-.49644l.34182-1.08938a8.0547,8.0547,0,0,0,5.24115.00517l.37013,1.079A8.889,8.889,0,0,1,356.39982,266.825Z"/><path class="cls-23" d="M357.36075,257.65644h-2.35059V256.515h2.35059a1.39434,1.39434,0,0,0,1.14067-.43694,1.98579,1.98579,0,0,0-.08766-1.742l-2.69911-6.338,1.05088-.44744,2.70565,6.35519a2.91337,2.91337,0,0,1-.02831,2.8172A2.40989,2.40989,0,0,1,357.36075,257.65644Z"/><path class="cls-25" d="M339.67555,244.95976a6.71492,6.71492,0,0,1,1.99842-1.29347,6.55376,6.55376,0,0,1,2.41162-.50528,6.43549,6.43549,0,0,1,4.41,1.79875.426.426,0,0,1,.00411.60237.43681.43681,0,0,1-.46769.09375,16.49016,16.49016,0,0,0-1.9835-.70251,7.024,7.024,0,0,0-1.963-.28049,9.628,9.628,0,0,0-3.94662.983.42416.42416,0,0,1-.55991-.2155A.43469.43469,0,0,1,339.67555,244.95976Z"/><path class="cls-25" d="M364.18225,244.95976a6.71747,6.71747,0,0,1,1.99858-1.29347,6.55371,6.55371,0,0,1,2.41161-.50528,6.43547,6.43547,0,0,1,4.41,1.79875.42594.42594,0,0,1,.004.60237.43654.43654,0,0,1-.46753.09375,16.48311,16.48311,0,0,0-1.98366-.70251,7.02211,7.02211,0,0,0-1.96281-.28049,9.628,9.628,0,0,0-3.94661.983.42439.42439,0,0,1-.56007-.2155A.43523.43523,0,0,1,364.18225,244.95976Z"/><path class="cls-12" d="M342.21486,278.38379a26.62494,26.62494,0,0,0-7.51641,5.52833l11.47231,14.67213,8.65388-9.97019C348.57294,286.99764,344.4618,283.507,342.21486,278.38379Z"/><path class="cls-12" d="M368.98038,278.38379a25.70569,25.70569,0,0,1,7.51641,5.52833l-11.47216,14.67213-8.65388-9.97019C362.6223,286.99764,366.73343,283.507,368.98038,278.38379Z"/><path class="cls-13" d="M345.04865,300.35971l-.56478-.315c-5.48572-3.06315-8.96648-8.45588-10.34716-16.02982l1.12363-.20515c1.28708,7.06273,4.30792,11.95019,9.22581,14.91669a19.54171,19.54171,0,0,1,10.10792-10.6348l.46068,1.04479c-4.4802,1.97453-7.67408,5.44935-9.76381,10.62369Z"/><path class="cls-13" d="M366.44914,300.36716l-.24229-.61074c-2.09186-5.2792-5.28666-8.82464-9.76686-10.83767l.46814-1.0419a19.76,19.76,0,0,1,10.1064,10.84133c4.91729-3.02739,7.93737-8.01225,9.22368-15.21606l1.12363.20059c-1.37855,7.71882-4.85778,13.21642-10.342,16.33907Z"/><path class="cls-24" d="M305.3817,291.51635c-14.05433,5.64917-19.18012,24.21038-22.54309,33.19056a115.40123,115.40123,0,0,0-6.57875-19.46355c-1.97286,6.44849-24.10629,10.91529-26.56753,8.089,0,0,4.63118,64.55865,28.6495,65.8678s40.5085-44.06781,40.5085-44.06781S313.55327,287.25424,305.3817,291.51635Z"/><path class="cls-24" d="M402.3417,289.60148c12.95572,6.89653,20.61458,26.12525,23.97739,35.10543,4.32177,10.53086,24.88429,51.90367,4.49678,54.4932-24.01832,1.30915-40.50851-44.06781-40.50851-44.06781S394.17027,285.33952,402.3417,289.60148Z"/><rect class="cls-13" x="286.96871" y="323.93428" width="1.14209" height="29.36334" transform="translate(-93.29019 109.9056) rotate(-18.67611)"/><path class="cls-25" d="M345.64174,250.91271a1.55623,1.55623,0,1,1-1.55615-1.55615A1.5562,1.5562,0,0,1,345.64174,250.91271Z"/><path class="cls-25" d="M340.211,251.01072l-.60785-.96611c3.37818-2.12459,6.24591-2.10084,8.52056.06986l-.78759.82639C345.46185,249.15292,343.1315,249.17362,340.211,251.01072Z"/><path class="cls-25" d="M367.03614,250.91271a1.55623,1.55623,0,1,0,1.5563-1.55615A1.55624,1.55624,0,0,0,367.03614,250.91271Z"/><path class="cls-25" d="M372.46692,251.01072c-2.9213-1.8371-5.25165-1.8578-7.12512-.06986l-.78774-.82639c2.27479-2.1707,5.14177-2.19445,8.52071-.06986Z"/><path class="cls-18" d="M331.64778,238.98839c.24762-21.45055,4.97178-5.373,24.43974-5.56166,19.46812-.18872,22.76944-16.22371,24.56149,5.02032l-.69171-16.90522-9.8087-5.4078H350.77986l-12.70231,4.52753-6.03681,2.89254Z"/><path class="cls-12" d="M349.73781,254.46393H337.62569a2.88022,2.88022,0,0,1-2.87656-2.87656V249.757a2.88022,2.88022,0,0,1,2.87656-2.87656h12.11212a2.88022,2.88022,0,0,1,2.87656,2.87656v1.8304A2.88022,2.88022,0,0,1,349.73781,254.46393Zm-12.11212-6.82257a2.11781,2.11781,0,0,0-2.11561,2.11561v1.8304a2.11781,2.11781,0,0,0,2.11561,2.11561h12.11212a2.11782,2.11782,0,0,0,2.11561-2.11561V249.757a2.11782,2.11782,0,0,0-2.11561-2.11561Z"/><path class="cls-12" d="M374.67171,254.46393H362.55959a2.88022,2.88022,0,0,1-2.87656-2.87656V249.757a2.88022,2.88022,0,0,1,2.87656-2.87656h12.11212a2.87957,2.87957,0,0,1,2.8758,2.87656v1.8304A2.87957,2.87957,0,0,1,374.67171,254.46393Zm-12.11212-6.82257a2.11781,2.11781,0,0,0-2.1156,2.11561v1.8304a2.11781,2.11781,0,0,0,2.1156,2.11561h12.11212a2.11765,2.11765,0,0,0,2.11485-2.11561V249.757a2.11765,2.11765,0,0,0-2.11485-2.11561Z"/><path class="cls-12" d="M360.0976,249.05035c-2.965-1.31691-5.53549-1.32056-7.86584-.01568l-.37165-.66431c2.55194-1.43121,5.34754-1.43653,8.54659-.01568Z"/><path class="cls-17" d="M382.15053,372.96332H330.51822a8.62683,8.62683,0,0,1-8.62673-8.62679l-6.15967-71.731a8.62676,8.62676,0,0,1,8.62677-8.6268h63.95156a8.62675,8.62675,0,0,1,8.6268,8.6268l-6.15963,71.731A8.62692,8.62692,0,0,1,382.15053,372.96332Z"/><path class="cls-6" d="M396.62572,295.33634h-1.14144a7.87746,7.87746,0,0,0-7.86812-7.86888H325.05283a7.87758,7.87758,0,0,0-7.8689,7.86888H316.0425a9.02023,9.02023,0,0,1,9.01033-9.01031h62.56333A9.0201,9.0201,0,0,1,396.62572,295.33634Z"/><path class="cls-19" d="M374.75435,340.314c-4.16638,8.13978-15.08928,4.54016-16.482,4.33439-7.188-1.06229-21.24053-11.38251-21.24053-11.38251-3.78575-2.39168-1.95854-5.54416-.73067-5.04757.57376.29267-2.09323-1.27186-2.63123-1.60972-4.63963-3.15644-1.40381-6.20513.72078-5.46335-3.98223-1.81914-2.27526-6.31349.38017-5.33932-2.70337-1.61642-.96778-5.66363,3.3931-4.02271,2.49487.70267,21.87958,9.79623,21.87958,9.79623.74346-1.77622-6.86883-5.16384-5.54584-9.75392A.80516.80516,0,0,1,355.58,311.518a49.01216,49.01216,0,0,1,16.59278,15.36475C374.6501,330.23312,377.2617,335.41522,374.75435,340.314Z"/><rect class="cls-23" x="341.60739" y="324.82799" width="1.14203" height="12.76485" transform="translate(-103.83103 498.12951) rotate(-64.58523)"/><rect class="cls-23" x="341.34314" y="316.7046" width="1.14136" height="16.94031" transform="translate(-104.56364 477.82322) rotate(-62.4379)"/><rect class="cls-23" x="342.69315" y="310.564" width="1.14122" height="18.74658" transform="translate(-95.42995 486.48369) rotate(-63.77444)"/><path class="cls-24" d="M363.20641,347.27212c15.91871,13.23848,37.84761,24.7843,61.2211,31.23,13.28383,4.22908,20.70527-25.66731.9171-34.45375-12.63383-8.52026-31.01652-14.57853-52.29084-19.39826C368.161,325.88959,362.384,344.51487,363.20641,347.27212Z"/><path class="cls-21" d="M306.63682,522.25764c-4.71583,0-8.75245-.91405-11.40545-2.42851l.755-1.32284c5.49022,3.13894,17.38608,3.47787,28.62131-2.0733l.67326,1.36439A42.74363,42.74363,0,0,1,306.63682,522.25764Z"/><path class="cls-21" d="M409.98854,518.67583c-7.79172,0-14.56665-1.941-20.22481-5.80822l.859-1.2574c7.69812,5.26277,17.61275,6.78467,29.47589,4.533l.28383,1.49512A55.8125,55.8125,0,0,1,409.98854,518.67583Z"/><circle class="cls-26" cx="253.11454" cy="248.06925" r="28.54585"/><circle class="cls-26" cx="253.11458" cy="248.06929" r="14.29587" transform="translate(-46.47222 437.41847) rotate(-76.71754)"/><path class="cls-17" d="M257.60326,248.06925a4.48872,4.48872,0,1,1-4.48872-4.48857A4.48873,4.48873,0,0,1,257.60326,248.06925Z"/><path class="cls-26" d="M253.1153,303.41958q-.73554,0-1.46545-.01933l.01933-.761c.99883.02678,2.01014.026,3.00745-.00381l.02222.761Q253.90966,303.41882,253.1153,303.41958Zm-4.50926-.18141c-1.0002-.0802-2.019-.191-3.03043-.32767l.10258-.75349c.9973.13453,2.00268.243,2.98887.32325Zm9.13663-.00807-.06377-.75806c1.00461-.08462,2.01014-.19541,2.98873-.33071l.10409.7535C259.77959,303.03241,258.76006,303.14457,257.74267,303.2301Zm-15.17451-.81376c-.99791-.19252-1.99963-.41472-2.97609-.6599l.18567-.73874c.96246.24229,1.95.4616,2.9347.65108Zm21.211-.02374-.14565-.74619c.983-.19237,1.97-.41381,2.933-.65762l.18719.73721C265.77729,301.97346,264.77633,302.19779,263.77917,302.3926ZM236.656,300.9308c-.95941-.298-1.93222-.63007-2.89148-.98756l.266-.71348c.946.35309,1.90528.68076,2.8513.97433Zm33.03016-.03485-.22737-.72534c.95789-.30088,1.91425-.63022,2.84323-.97874l.2674.712C271.628,300.25751,270.65744,300.59127,269.68616,300.896Zm-38.75148-2.09932c-.93034-.40726-1.86007-.845-2.76211-1.30123l.34319-.67923c.89032.44957,1.80666.88134,2.72361,1.28342Zm44.4527-.04018-.3062-.697c.90964-.39981,1.82218-.83234,2.71234-1.2848l.34487.67847C277.23559,297.91225,276.30966,298.35071,275.38738,298.75645Zm-49.89976-2.71387c-.88134-.50832-1.756-1.04631-2.59942-1.59846l.41609-.63616c.83233.54408,1.69434,1.07386,2.56381,1.57472Zm55.326-.04231-.382-.65838c.86429-.50025,1.72478-1.03079,2.55711-1.57624l.41762.63616C282.56151,294.95533,281.689,295.49348,280.8136,296.00027Zm-60.43275-3.29356c-.81-.59522-1.61992-1.22544-2.40766-1.87195l.48305-.58852c.77724.639,1.57609,1.26029,2.37494,1.84668Zm65.52765-.04459-.45186-.61227c.80479-.59385,1.60212-1.21509,2.36977-1.84821l.48458.58716C287.53222,291.43,286.72439,292.061,285.9085,292.66212Zm-70.236-3.82928c-.74985-.68882-1.4863-1.40381-2.18851-2.12459l.54545-.53053c.69262.71042,1.41858,1.41552,2.15731,2.09475Zm74.93624-.04612-.51577-.56021c.73418-.67558,1.45873-1.38159,2.155-2.09719l.54545.53069C292.08751,287.386,291.35257,288.1008,290.60876,288.78672ZM211.41665,284.47c-.66066-.7573-1.31463-1.54717-1.941-2.34907l.599-.46814c.619.79079,1.26318,1.57031,1.91563,2.31635Zm83.44121-.05357-.57368-.49934c.65617-.7535,1.30045-1.53454,1.91352-2.32152l.60044.46814C296.17615,282.86117,295.523,283.65332,294.85786,284.41641Zm-87.19181-4.74623c-.57436-.82411-1.13686-1.68095-1.672-2.54661l.64651-.39981c.52841.853,1.08345,1.698,1.64975,2.511Zm90.94085-.0624-.6257-.43405c.57072-.82107,1.12509-1.66831,1.64824-2.51845l.648.3998C299.74684,277.91572,299.18505,278.77469,298.6069,279.60778Zm-94.14218-5.11864c-.48443-.89107-.94967-1.80437-1.38144-2.7131l.68821-.32706c.42507.897.88347,1.79768,1.36211,2.676Zm97.34057-.07655-.66881-.36267c.4756-.87692.93411-1.78048,1.3614-2.68556l.68813.32538C302.75277,272.60761,302.28758,273.523,301.80529,274.41259Zm-99.94958-5.42028c-.38276-.93856-.74467-1.898-1.07462-2.85358l.7194-.24822c.32539.94221.68212,1.889,1.05971,2.8134Zm102.55719-.09816-.70448-.28688c.37454-.92213.72974-1.8718,1.056-2.82162l.71934.24685C305.15379,266.99556,304.79338,267.95863,304.4129,268.89415Zm-104.54511-5.66333c-.27562-.96976-.529-1.96327-.752-2.95388l.74163-.16786c.22068.97721.47042,1.95732.74239,2.91369Zm106.52478-.10912-.73271-.20668c.272-.96382.51944-1.9447.73568-2.91446l.74312.16574C306.9187,261.15006,306.66753,262.14448,306.39257,263.1217Zm-107.86391-5.83729c-.1671-1.001-.3091-2.01683-.4205-3.01855l.75639-.08477c.11.98848.24974,1.9902.41472,2.97852Zm109.19039-.11064-.75056-.125c.16274-.98239.30022-1.98411.40872-2.97838l.7565.08325C308.02372,255.16135,307.884,256.17722,307.71905,257.17377ZM197.85324,251.228c-.05723-1.00842-.0869-2.03388-.08919-3.04747l.761-.00152c.00228,1.0002.032,2.01166.08766,3.00592Zm110.52866-.11216-.75946-.0417c.05351-.99427.081-2.00558.081-3.00517l-.00074-.21991h.76095l.00075.21626C308.46439,249.08193,308.4369,250.10739,308.3819,251.11581Zm-109.7811-5.942-.75943-.04017c.05265-1.01588.13438-2.0383.24213-3.03865l.75654.08188C198.73381,243.16292,198.65361,244.17133,198.6008,245.17381Zm109.009-.32842c-.05872-1.00172-.14492-2.01014-.25713-2.99558l.75649-.08614c.113.99944.20065,2.02125.2601,3.03712Zm-108.36768-5.64705-.7506-.12327c.16345-1.00325.35749-2.01014.57452-2.9933l.743.16346C199.59506,237.215,199.40406,238.20849,199.24213,239.19834Zm107.68995-.32538c-.1672-.98848-.36413-1.98046-.58409-2.9487l.74163-.16954c.22368.98315.42283,1.98867.593,2.9904Zm-106.39252-5.54523-.73265-.20516c.2741-.98011.57742-1.95961.902-2.91217l.72093.24518C201.10952,231.3949,200.81016,232.36086,200.53956,233.32773Zm105.06159-.3158c-.27644-.96383-.58186-1.92765-.90809-2.86621l.71934-.24975c.32994.9512.63982,1.92917.92,2.90639ZM202.47984,227.6332l-.70586-.28536c.3782-.93552.78911-1.87713,1.2224-2.79864l.68805.324C203.258,225.7821,202.85286,226.71031,202.47984,227.6332Zm101.14908-.29952c-.382-.92806-.79217-1.85109-1.218-2.74278l.68664-.32843c.43177.90508.84717,1.8406,1.23433,2.78144ZM205.04,222.18537l-.66964-.36115c.48153-.89169.99426-1.78124,1.52267-2.64478l.64955.39829C206.02087,220.42863,205.5156,221.30631,205.04,222.18537Zm96.0036-.26755c-.4756-.87023-.98464-1.74259-1.513-2.595l.64652-.40118c.53579.86414,1.05226,1.74929,1.53379,2.63062Zm-92.85812-4.8622-.62565-.43253c.57223-.82776,1.17856-1.65568,1.80285-2.46047l.60192.46677C209.34853,215.42291,208.75026,216.23972,208.18548,217.05562Zm89.69094-.24077c-.56923-.81452-1.1719-1.62661-1.78943-2.41435l.59894-.46967c.62647.79809,1.23655,1.62221,1.81471,2.44861Zm-86.0035-4.51078-.57513-.49934c.65457-.7535,1.34795-1.51,2.06066-2.24726l.54683.52917C213.20231,210.81412,212.51866,211.56031,211.87292,212.30407Zm82.29459-.21627c-.65841-.75121-1.3458-1.49284-2.04358-2.20555l.544-.53206c.70745.7223,1.4045,1.47443,2.07182,2.23538Zm-78.11086-4.10124-.51715-.55885c.74315-.68653,1.51445-1.36287,2.29322-2.00785l.48594.58563C217.5504,206.64226,216.78945,207.30885,216.05665,207.98656Zm73.90622-.19465c-.74224-.67847-1.507-1.34141-2.27389-1.96935l.48153-.58853c.778.63692,1.55311,1.30869,2.30524,1.996Zm-69.27886-3.639-.4517-.61242c.81438-.60191,1.65493-1.18891,2.49837-1.74335l.41761.63616C222.31672,202.98024,221.48819,203.55841,220.684,204.15287Zm64.627-.17243c-.80327-.58776-1.63636-1.16229-2.47676-1.70926l.41457-.63753c.85242.55367,1.69739,1.137,2.511,1.733Zm-59.6094-3.12783-.382-.65838c.87692-.50984,1.77607-1.0002,2.67232-1.45723l.34623.67771C227.45392,199.8658,226.56741,200.34886,225.7016,200.85261Zm54.565-.15082c-.8649-.49721-1.75659-.97722-2.65056-1.42755l.34182-.67923c.90736.4555,1.81168.943,2.68784,1.44688Zm-49.21826-2.578-.30758-.69551c.91695-.40574,1.86373-.79368,2.81493-1.15406l.26892.712C232.88684,197.34141,231.95269,197.72417,231.04837,198.12382Zm43.84181-.12768c-.92213-.40133-1.86221-.77953-2.79408-1.12515l.26451-.71332c.94526.34989,1.898.73417,2.83288,1.14143Zm-38.22383-1.99462-.2289-.72519c.96611-.30469,1.95216-.58639,2.93166-.83675l.18872.73707C238.59172,195.42411,237.61906,195.7014,236.66635,196.00152Zm32.57617-.09953c-.952-.29434-1.92613-.56554-2.89665-.80707l.1843-.73858c.98392.24441,1.97149.52018,2.93683.81878Zm-26.753-1.3889-.14717-.746c.98833-.19556,1.99979-.36647,3.00593-.50755l.10546.75349C244.46172,194.1527,243.46442,194.32057,242.48948,194.51309Zm20.92032-.06316c-.97874-.18734-1.97681-.34927-2.96726-.48229l.101-.7535c1.00385.13378,2.01684.29875,3.00882.48823Zm-14.96874-.77282-.06392-.75807c1.007-.08537,2.031-.14412,3.04382-.17456l.02237.761C250.4445,193.53511,249.43471,193.5931,248.44106,193.67711Zm9.01184-.02755c-.99792-.07731-2.00786-.12936-3.00212-.1531l.0178-.761c1.00842.0245,2.03236.07655,3.04382.15615Z"/><path class="cls-26" d="M619.1473,118.7949a76.67639,76.67639,0,0,1-76.67639,76.6764c-16.05372,0-26.68867-2.39411-39.00427-10.82778L420.87382,291.24173l68.7337-116.57158c-16.21975-14.0591-23.813-32.72548-23.813-55.87525a76.67639,76.67639,0,0,1,153.35279,0Z"/><path class="cls-26" d="M543.33809,215.53525l-.00594-.761q1.52039-.01323,3.02967-.07427l.0312.761Q544.87148,215.52216,543.33809,215.53525Zm-3.05432-.02085q-1.53158-.03333-3.05052-.11582l.0417-.75958q1.50578.08035,3.02525.11444Zm9.15748-.2222-.05342-.75943q1.51582-.10707,3.01855-.26223l.07869.75639Q550.97016,215.18422,549.44125,215.2922Zm-15.25182-.10319q-1.52586-.12944-3.03712-.3062l.08766-.75655q1.50053.17625,3.01338.30469Zm21.32911-.52323-.10106-.7535q1.50464-.20409,2.99619-.45322l.12632.75045Q557.03626,214.46154,555.51854,214.66578Zm-27.39148-.18643q-1.51469-.22418-3.01262-.49721l.13529-.74908q1.48705.26982,2.98888.49416Zm33.41672-.82046-.14869-.746q1.48911-.29769,2.96285-.6421l.17243.74163Q563.0456,213.35915,561.54378,213.65889Zm-39.42325-.26969q-1.49709-.32233-2.97472-.689l.18278-.73858q1.467.36435,2.95083.68288Zm45.37331-1.11769-.19618-.73569q1.467-.39128,2.91522-.82868l.22007.72839Q568.97259,211.8768,567.49384,212.27151Zm-51.29977-.35232q-1.4736-.41571-2.92633-.87677l.23026-.72534q1.44141.457,2.90274.86946Zm57.15927-1.41492-.24229-.72078q1.44255-.486,2.86485-1.01663l.266.71347Q574.80829,210.01428,573.35334,210.50427Zm-62.98088-.43161q-1.44232-.50954-2.86393-1.06123l.27485-.70891q1.41014.54722,2.84171,1.05225Zm68.72152-1.707-.2884-.70449q1.40784-.57642,2.79347-1.19576l.31063.69414Q580.513,207.78485,579.094,208.36568Zm-74.41377-.50466q-1.40784-.59972-2.79118-1.24021l.3196-.6911q1.37314.63646,2.77033,1.23138Zm80.005-1.9937-.33284-.68517q1.36765-.66339,2.71006-1.37032l.35521.67329Q586.06457,205.19851,584.68518,205.86732Zm-85.54792-.57589q-1.36652-.68668-2.70717-1.41492l.36267-.66888q1.3309.72343,2.68632,1.40457Zm90.96607-2.27176-.37607-.66142q1.322-.75015,2.618-1.539l.39539.6494Q591.43531,202.26473,590.10333,203.01967Zm-96.33369-.64209q-1.322-.77253-2.61358-1.58279l.40438-.64514q1.283.80495,2.59272,1.57107Zm101.557-2.54068-.41609-.63768q1.27065-.83028,2.51313-1.69952l.4371.62353Q596.60774,198.9994,595.32667,199.8369Zm-106.73213-.70753q-1.26722-.8538-2.50795-1.74411l.44439-.6182q1.23046.88392,2.48863,1.73071Zm111.74226-2.79788-.45627-.60922q1.21494-.90858,2.40036-1.85491l.47559.59446Q601.56026,195.41606,600.3368,196.33149Zm-116.70247-.769q-.56637-.4349-1.12667-.87769-.63874-.505-1.267-1.02029l.48154-.58852q.62436.51045,1.2574,1.01131.55611.44036,1.11845.87175Zm121.48142-3.04382-.49341-.5797q1.15491-.983,2.27922-2.00116l.51121.56478Q606.2791,191.528,605.11575,192.51865Zm-126.20847-.8264q-1.15148-1.00538-2.27023-2.045l.5173-.55748q1.11129,1.03118,2.25379,2.02886Zm130.7363-3.27637-.529-.547q1.09121-1.05332,2.14832-2.1395l.54546.53069Q610.74157,187.35587,609.64358,188.41588ZM474.4315,187.533q-1.08573-1.07568-2.13722-2.18333l.55139-.5246q1.04441,1.10012,2.12093,2.16689Zm139.47176-3.49567-.56189-.51273q1.02112-1.11792,2.00876-2.26871l.578.49492Q614.93282,182.91008,613.90326,184.03735Zm-143.67634-.9378q-1.01771-1.1403-1.99751-2.31407l.58411-.48746q.972,1.16265,1.98107,2.29473Zm147.652-3.6955-.59309-.47712q.94968-1.17933,1.8616-2.3891l.60785.45779Q618.83577,178.21605,617.87894,179.40405Zm-151.572-.9929q-.94306-1.20147-1.84745-2.43444l.61394-.45034q.896,1.22294,1.83253,2.41512Zm155.24665-3.88056-.62124-.43831q.87273-1.2364,1.70773-2.50065l.63464.41913Q622.433,173.286,621.55359,174.53059ZM462.69012,173.4858q-.865-1.25854-1.69054-2.54586l.64057-.41167q.81931,1.27727,1.6773,2.52652ZM624.914,169.43736l-.64788-.39843q.79238-1.28845,1.54565-2.60232l.6599.379Q625.71351,168.13872,624.914,169.43736Zm-165.52168-1.09471q-.7837-1.31082-1.52724-2.64766l.66584-.37013q.7369,1.32771,1.51384,2.627Zm168.55286-4.19636-.67177-.35673q.70907-1.33434,1.37779-2.693l.68212.33588Q628.66008,162.80237,627.94515,164.14629Zm-171.52028-1.14584q-.69879-1.35786-1.35541-2.73914l.68668-.32706q.652,1.37109,1.34507,2.71844Zm174.21041-4.3236-.69261-.31351q.62207-1.37451,1.20321-2.77262l.703.2913Q631.26352,157.291,630.63528,158.67685ZM453.801,157.48048q-.6109-1.39894-1.17933-2.81934l.706-.28246q.56411,1.409,1.17035,2.79711Zm179.17077-4.4283-.712-.26892q.53623-1.41561,1.0285-2.85206l.71926.2467Q633.51261,151.62593,632.97172,153.05218ZM451.53224,151.806q-.52164-1.43342-.99944-2.88859l.7223-.23772q.47482,1.44347.992,2.86622Zm183.42055-4.533-.72671-.22448q.44469-1.44459.845-2.9108l.73417.20073Q635.40161,145.81528,634.95279,147.273Zm-185.32735-1.27368q-.43032-1.46355-.81453-2.94657l.73721-.19024q.3801,1.47039.80707,2.92267Zm186.93631-4.62083-.74026-.17684q.35225-1.47131.65838-2.95905l.74467.1531Q636.91568,139.89717,636.56175,141.37852Zm-188.4701-1.29514q-.33672-1.48935-.6258-2.99253l.74756-.14428q.28764,1.49253.61987,2.96879Zm189.70209-4.68764-.75046-.12936q.25842-1.49025.46966-2.99481l.7535.10562Q638.05232,133.89415,637.79374,135.39574Zm-190.85843-1.31538q-.2397-1.50577-.43405-3.02526l.755-.09648q.19176,1.50806.431,3.00135Zm191.7078-4.73512-.75639-.08173q.16256-1.50258.28-3.01855l.75882.058Q638.80734,127.83224,638.64311,129.34524ZM446.164,128.018q-.14382-1.517-.24152-3.04671l.75943-.04916q.097,1.51835.24,3.02465Zm192.94725-4.764-.75943-.03425q.068-1.51033.09224-3.03118l.76095.01187Q639.18149,121.732,639.11125,123.254Zm-193.33442-1.33624q-.04908-1.52266-.04977-3.05721h.761q.00091,1.52152.04976,3.03195Zm192.66266-4.76038q-.02557-1.52153-.098-3.02967l.75943-.03713q.07466,1.52038.09954,3.05341Zm-191.90627-1.32878-.761-.02222q.04588-1.53271.14048-3.052l.75943.04764Q446.57857,114.30885,446.53322,115.82855Zm191.61649-4.73131q-.12144-1.51833-.289-3.02236l.75639-.08462q.16848,1.517.29068,3.04595Zm-191.24408-1.31691-.75806-.07062q.14268-1.52586.33147-3.03712l.755.09512Q447.04686,108.266,446.90563,109.78033ZM637.47794,105.063q-.215-1.50577-.47788-2.99695l.74908-.13225q.26527,1.50372.4823,3.02221Zm-189.81957-1.29591-.752-.119q.23834-1.51263.52232-3.00958l.74756.14123Q447.89435,102.26544,447.65837,103.76711Zm188.76884-4.68018q-.31114-1.48933-.66811-2.96l.7401-.17974q.3591,1.48363.67254,2.98356ZM448.78869,97.81249l-.74315-.165q.3333-1.496.71271-2.97107l.73706.18872Q449.11864,96.32984,448.78869,97.81249Zm186.211-4.623q-.40566-1.46467-.85531-2.91156l.72671-.226q.45361,1.45806.86125,2.9353Zm-184.704-1.24705-.73127-.21246q.428-1.46925.8999-2.92054l.72382.23635Q450.72015,90.48381,450.29568,91.94248Zm182.90265-4.5464q-.49721-1.43569-1.03809-2.85054l.71042-.272q.54606,1.42565,1.04692,2.87291Zm-181.027-1.21646-.71485-.25857q.51936-1.43913,1.08345-2.85663l.70754.281Q452.68768,84.75207,452.17129,86.17962Zm178.86151-4.449q-.58737-1.40009-1.21722-2.77855l.69262-.31656q.63418,1.39,1.2262,2.80077ZM454.4126,80.546l-.69855-.30317q.61089-1.40214,1.26257-2.78144l.68806.32553Q455.017,79.15456,454.4126,80.546Zm174.09886-4.33151q-.67437-1.361-1.39041-2.69607l.67039-.35977q.7223,1.34665,1.40214,2.71691ZM457.00228,75.073l-.6777-.34791q.69787-1.35876,1.435-2.693l.66583.3686Q457.69422,73.72385,457.00228,75.073ZM625.646,70.86845q-.7602-1.31426-1.55829-2.60247l.64651-.40133q.80471,1.29873,1.57015,2.62332ZM459.93242,69.776l-.654-.38946q.78142-1.312,1.603-2.59866l.64057.41016Q460.70707,68.47326,459.93242,69.776Zm162.51666-4.05893q-.84054-1.264-1.71884-2.49837l.61973-.44136q.885,1.24508,1.73223,2.51755ZM463.19174,64.67077l-.62718-.42948q.86292-1.26083,1.76344-2.49243l.61378.44881Q464.04781,63.42037,463.19174,64.67077Zm155.74158-3.89472q-.91841-1.20717-1.87332-2.38544l.59157-.47849q.96177,1.1871,1.88671,2.40325Zm-152.16418-.995-.60039-.46814q.93962-1.20489,1.9173-2.378l.584.48746Q467.70139,58.585,466.76914,59.781ZM615.11378,56.0662q-.418-.4826-.84192-.96093c-.19328-.21764-.8993-.99579-1.05833-1.16807q-1.03095-1.11039-2.09628-2.18851l.541-.5351q1.07454,1.08687,2.11271,2.20631c.16193.174.8754.96094,1.07006,1.18009q.42688.48146.84785.96824Zm-144.46925-.94237-.56919-.50527q1.01541-1.14258,2.06355-2.25319l.55291.52323Q471.652,53.98986,470.64453,55.12383Zm4.16364-4.40593-.53647-.53951q1.08459-1.07775,2.20114-2.12l.51866.5558Q475.88363,49.64968,474.80817,50.7179Zm134.14736-1.09242q-1.09692-1.04328-2.22793-2.05458l.5068-.56783q1.14028,1.02,2.24573,2.071ZM479.24028,46.58166l-.50086-.57209q1.1492-1.00765,2.32958-1.97818l.48306.587Q480.38049,45.58268,479.24028,46.58166Zm125.197-.99564q-1.15923-.97433-2.3512-1.91364l.47119-.59735q1.20055.94625,2.369,1.92826ZM483.92334,42.73016l-.46372-.60344q1.2106-.93186,2.45012-1.82735l.44592.61683Q485.125,41.80468,483.92334,42.73016Zm115.75508-.89625q-1.21608-.90059-2.46351-1.7642l.43252-.62566q1.2574.86955,2.48422,1.77759Zm-110.837-2.65436-.42507-.63023q1.26609-.85493,2.56077-1.67045l.40574.64347Q490.09757,38.33162,488.84139,39.17955Zm105.85582-.79733q-1.2695-.825-2.56746-1.60973l.39387-.65092q1.30876.79147,2.58831,1.62145Zm-100.72242-2.436-.38489-.657q1.31859-.77251,2.66258-1.50547l.364.66872Q495.28356,35.17822,493.97479,35.94625Zm95.53925-.70236q-1.3188-.7424-2.66258-1.44673l.35217-.67481q1.35557.71,2.68343,1.45875Zm-90.20952-2.201-.34334-.67923q1.36537-.6901,2.75389-1.33471l.32113.68958Q500.65848,32.35957,499.30452,33.0429Zm84.84266-.61013q-1.36218-.66-2.74734-1.27962l.31061-.69415q1.39689.62413,2.76821,1.2886Zm-79.33913-1.95-.29875-.69992q1.4067-.60086,2.83425-1.15711l.27638.70891Q506.20318,29.88638,504.80805,30.48274Zm73.808-.52094q-1.39984-.57391-2.82086-1.10491l.266-.71347q1.4325.5351,2.84324,1.11388Zm-68.14928-1.68537-.25416-.71788q1.44255-.50931,2.90334-.97418l.23042.72535Q511.89636,27.76994,510.46682,28.27643Zm62.47561-.43542q-1.43228-.48488-2.884-.92593l.22143-.72823q1.46242.4447,2.9064.93339Zm-56.686-1.40533-.208-.73264q1.47017-.41687,2.96057-.78851l.18431.73874Q517.71536,26.021,516.25646,26.43568Zm50.89114-.35445q-1.4592-.39219-2.93531-.74087l.17381-.7401q1.48933.35,2.9592.7468Zm-44.9945-1.11465-.16041-.74452q1.49027-.32119,2.99695-.596l.13667.74893Q523.63171,24.64828,522.1531,24.96658Zm39.10075-.27348q-1.47906-.29975-2.97533-.55291l.12632-.75046q1.50919.25522,3.0006.55733Zm-33.13867-.8159-.11292-.752q1.50714-.22645,3.0289-.40513l.08919.755Q529.61,23.65363,528.11518,23.8772Zm27.17142-.19465q-1.49574-.20409-3.0044-.36191l.07883-.75654q1.52154.15819,3.02815.3648ZM534.136,23.16906l-.06544-.75807q1.5172-.13149,3.04747-.21474l.0417.75943Q535.64141,23.03924,534.136,23.16906Zm15.132-.11308q-1.50464-.10913-3.02144-.16939l.0312-.761q1.52928.06255,3.04534.17091Zm-9.08016-.21764-.01781-.76095q1.14714-.02672,2.30067-.02679l.75578.00305-.00746.76095-.74832-.003Q541.32612,22.81156,540.18789,22.83834Z"/><path class="cls-5" d="M483.12221,93.71946a64.5025,64.5025,0,0,0,.48488,51.22322l58.86382-26.14778S508.74127,104.516,483.12221,93.71946Z"/><path class="cls-27" d="M542.47091,118.7949l-39.92366,50.52725A64.39237,64.39237,0,0,0,606.801,122.03764Z"/><path class="cls-3" d="M590.26434,75.61787c-20.60787,18.77184-47.79343,43.177-47.79343,43.177l64.33005,3.24274q.07991-1.61148.082-3.24274A64.17066,64.17066,0,0,0,590.26434,75.61787Z"/><path class="cls-17" d="M590.26434,75.61787A64.42405,64.42405,0,0,0,483.12221,93.71946c25.61906,10.79658,59.3487,25.07544,59.3487,25.07544Z"/><path class="cls-16" d="M483.60709,144.94268a64.60278,64.60278,0,0,0,18.94016,24.37947l39.92366-50.52725Z"/><path class="cls-2" d="M386.72264,145.9243l-4.14507-.42157a27.93992,27.93992,0,0,0-2.5183-6.07942l2.633-3.229a2.02935,2.02935,0,0,0,0-2.86986l-7.35189-7.352a2.02953,2.02953,0,0,0-2.87,0l-3.22919,2.63305a27.95048,27.95048,0,0,0-6.07927-2.5183l-.42157-4.14507a2.02935,2.02935,0,0,0-2.02931-2.02932H350.31385a2.02935,2.02935,0,0,0-2.02932,2.02932l-.42157,4.14507a27.95048,27.95048,0,0,0-6.07927,2.5183l-3.22918-2.63305a2.02954,2.02954,0,0,0-2.87,0l-7.35192,7.352a2.02928,2.02928,0,0,0,0,2.86986l2.63309,3.22919a27.93882,27.93882,0,0,0-2.51837,6.07927l-4.145.42157a2.02941,2.02941,0,0,0-2.02938,2.02947V158.351a2.02925,2.02925,0,0,0,2.02938,2.02916l4.145.42157a27.94438,27.94438,0,0,0,2.51821,6.07942l-2.63293,3.22919a2.02928,2.02928,0,0,0,0,2.86986l7.35192,7.35189a2.02927,2.02927,0,0,0,2.87,0l3.22918-2.6329a27.94312,27.94312,0,0,0,6.07927,2.51815l.42157,4.14507a2.02925,2.02925,0,0,0,2.02932,2.02932h10.39723a2.02925,2.02925,0,0,0,2.02931-2.02932l.42157-4.14507a27.94312,27.94312,0,0,0,6.07927-2.51815l3.22919,2.6329a2.02926,2.02926,0,0,0,2.87,0l7.35189-7.35189a2.02935,2.02935,0,0,0,0-2.86986l-2.633-3.22919a27.93376,27.93376,0,0,0,2.5183-6.07942l4.14507-.42157A2.02922,2.02922,0,0,0,388.752,158.351V147.95377A2.02938,2.02938,0,0,0,386.72264,145.9243Zm-31.21025,29.28078a22.05278,22.05278,0,1,1,22.05277-22.05278A22.05278,22.05278,0,0,1,355.51239,175.20508Z"/><path class="cls-17" d="M355.273,184.72432h0a3.61451,3.61451,0,0,1-3.60388-3.604v-1.25421a3.6146,3.6146,0,0,1,3.60388-3.604h0a3.61463,3.61463,0,0,1,3.604,3.604v1.25421A3.61454,3.61454,0,0,1,355.273,184.72432Z"/><rect class="cls-17" x="350.13289" y="169.22961" width="10.28035" height="12.0692" rx="1.3007"/><path class="cls-5" d="M370.7365,153.30906a15.46392,15.46392,0,1,0-25.99634,11.30946,10.75338,10.75338,0,0,1,3.40512,7.88061h0a2.95622,2.95622,0,0,0,2.94748,2.94748h8.36046a2.95612,2.95612,0,0,0,2.94748-2.94748v-.43573a10.181,10.181,0,0,1,3.39082-7.43148A15.39777,15.39777,0,0,0,370.7365,153.30906Z"/><path class="cls-12" d="M366.45339,152.10356a1.524,1.524,0,0,1-1.47062-1.13246,9.88778,9.88778,0,0,0-4.31826-5.85585,1.52205,1.52205,0,0,1,1.62007-2.5772,12.92889,12.92889,0,0,1,5.641,7.65277,1.52288,1.52288,0,0,1-1.08117,1.86145A1.54621,1.54621,0,0,1,366.45339,152.10356Z"/><rect class="cls-17" x="354.70258" y="158.15695" width="1.14143" height="9.90961"/><path class="cls-17" d="M357.38814,169.13068l-.9066-.69414,4.54275-5.93073a6.98041,6.98041,0,0,1-5.754-3.25339,6.7686,6.7686,0,0,1-5.70716,3.306l4.50105,5.87807-.90661.69414-6.11366-7.98485,1.3822.19694c2.75846.38945,4.82811-.74163,6.34925-3.46448l.50391-.902.49492.90737a6.10076,6.10076,0,0,0,6.37818,3.45549l1.28631-.11Z"/><path class="cls-17" d="M358.03465,177.03229H352.511V170.258a2.76181,2.76181,0,1,1,5.52362,0Zm-4.38219-1.14144h3.24075V170.258a1.62038,1.62038,0,1,0-3.24075,0Z"/><path class="cls-17" d="M1429.6238,205.96219H1282.91491a8.91126,8.91126,0,0,1-8.88522-8.88521h0a8.91116,8.91116,0,0,1,8.88522-8.88522H1429.6238a8.91126,8.91126,0,0,1,8.88521,8.88522h0A8.91135,8.91135,0,0,1,1429.6238,205.96219Z"/><path class="cls-3" d="M1396.04925,201.58685H1283.55456a4.52318,4.52318,0,0,1-4.51-4.50987h0a4.52322,4.52322,0,0,1,4.51-4.51h112.49469a4.52333,4.52333,0,0,1,4.51,4.51h0A4.52329,4.52329,0,0,1,1396.04925,201.58685Z"/><circle class="cls-12" cx="1396.61986" cy="197.07694" r="13.34869" transform="translate(269.70604 1045.28187) rotate(-45)"/><path class="cls-5" d="M1404.75808,197.077a8.13819,8.13819,0,1,1-8.13826-8.13826A8.1382,8.1382,0,0,1,1404.75808,197.077Z"/><rect class="cls-17" x="82.01969" y="628.83744" width="1363.96062" height="1.52191"/></g></svg>