<svg xmlns="http://www.w3.org/2000/svg" xmlns:xlink="http://www.w3.org/1999/xlink" viewBox="0 0 1528 642"><defs><style>.cls-1{isolation:isolate;}.cls-2{fill:#f7f7f7;}.cls-3{fill:#e8e8e8;opacity:0.61;}.cls-4{fill:#dbdbdb;}.cls-4,.cls-7{opacity:0.7;}.cls-5{fill:#373660;}.cls-6{fill:#fff;}.cls-7{fill:#ffc967;}.cls-8{fill:#afb7e0;}.cls-9{fill:#bbb4f8;}.cls-10{opacity:0.14;mix-blend-mode:overlay;}.cls-11{fill:url(#linear-gradient);}.cls-12,.cls-24,.cls-28,.cls-29,.cls-30{fill:none;stroke-linecap:round;}.cls-12{stroke:#454a82;stroke-width:3.89888px;}.cls-12,.cls-28,.cls-29,.cls-30{stroke-linejoin:round;}.cls-13{fill:url(#linear-gradient-2);}.cls-14{fill:url(#linear-gradient-3);}.cls-15{fill:url(#linear-gradient-4);}.cls-16{fill:url(#linear-gradient-5);}.cls-17{fill:url(#linear-gradient-6);}.cls-18{fill:url(#linear-gradient-7);}.cls-19{fill:url(#linear-gradient-8);}.cls-20{fill:url(#linear-gradient-9);}.cls-21{fill:url(#linear-gradient-10);}.cls-22,.cls-27{fill:#ffa648;}.cls-23{fill:#fafafa;}.cls-24{stroke:#fafafa;stroke-miterlimit:10;stroke-width:2.79917px;}.cls-25{fill:url(#linear-gradient-11);}.cls-26{fill:#574aa4;}.cls-27{opacity:0.5;}.cls-28{stroke:#574aa4;}.cls-29{stroke:#ffde80;}.cls-30{stroke:#212042;stroke-width:2px;}.cls-31{fill:#f6a19e;}.cls-32{fill:#1b1b44;}.cls-33{fill:#f26463;opacity:0.42;}.cls-34{fill:#ffc214;}.cls-35{fill:#161638;}</style><linearGradient id="linear-gradient" x1="782.26393" y1="86.69758" x2="782.26393" y2="1069.00093" gradientUnits="userSpaceOnUse"><stop offset="0" stop-color="#fff"/><stop offset="0.35922" stop-color="#efeefe"/><stop offset="0.74272" stop-color="#bbb4f8"/></linearGradient><linearGradient id="linear-gradient-2" x1="675.83872" y1="172.39513" x2="675.83872" y2="201.3461" xlink:href="#linear-gradient"/><linearGradient id="linear-gradient-3" x1="675.83857" y1="190.10036" x2="675.83857" y2="223.18752" xlink:href="#linear-gradient"/><linearGradient id="linear-gradient-4" x1="675.83872" y1="277.79156" x2="675.83872" y2="306.74311" xlink:href="#linear-gradient"/><linearGradient id="linear-gradient-5" x1="675.83857" y1="295.4971" x2="675.83857" y2="328.58368" xlink:href="#linear-gradient"/><linearGradient id="linear-gradient-6" x1="675.83872" y1="383.18829" x2="675.83872" y2="412.13985" xlink:href="#linear-gradient"/><linearGradient id="linear-gradient-7" x1="675.83857" y1="400.89353" x2="675.83857" y2="433.98069" xlink:href="#linear-gradient"/><linearGradient id="linear-gradient-8" x1="675.83872" y1="488.58473" x2="675.83872" y2="517.53629" xlink:href="#linear-gradient"/><linearGradient id="linear-gradient-9" x1="675.83857" y1="506.29026" x2="675.83857" y2="539.37742" xlink:href="#linear-gradient"/><linearGradient id="linear-gradient-10" x1="782.26397" y1="612.56192" x2="782.26397" y2="585.74838" gradientUnits="userSpaceOnUse"><stop offset="0" stop-color="#867ad1"/><stop offset="1" stop-color="#212042"/></linearGradient><linearGradient id="linear-gradient-11" x1="866.81987" y1="53.53395" x2="866.81987" y2="171.39942" xlink:href="#linear-gradient"/></defs><title>measurable-success-and-client-testimonials</title><g class="cls-1"><g id="BACKGROUND"><rect class="cls-2" width="1528" height="642"/></g><g id="OBJECTS"><path class="cls-3" d="M381.94423,618.98583c-37.51912-11.87741-68.37945-42.98268-79.95943-80.59452-11.58-37.61213-3.55888-80.68812,20.78262-111.61143,23.1314-29.38545,59.4197-47.88,76.97994-80.89806,13.40973-25.21423,17.67746-62.154,3.42592-87.66853-16.21542-29.03-27.12912-57.33045-29.89983-91.27-2.55492-31.29684,3.40142-64.24321,22.04288-89.51226,19.315-26.182,50.4795-41.72242,82.3881-48.08,40.80244-8.12929,93.226-8.11559,133.52462,1.958C676.244,47.56125,732.14838,88.2039,793.78126,114.5186c62.77855,26.8037,133.91616,38.465,199.95412,21.18618,34.0378-8.90579,66.16568-25.25272,101.01761-30.07244,34.85221-4.81972,75.60013,5.69828,91.78406,36.93885,5.91114,11.41115,7.94733,24.44326,8.58679,37.27855,2.5803,51.785-16.02734,101.90113-30.17742,151.78228-14.14978,49.88115-23.74811,104.58436-3.99072,152.52176,9.29624,22.55491,24.59635,42.18954,34.44894,64.5071,9.85289,22.31756,13.457,49.93451-.424,69.99574Z"/><path class="cls-4" d="M831.57856,1.76646C786.2127,1.15908,730.351,6.55907,756.10643,51.619c10.54717,18.45309,46.08346,32.12671,63.58072,42.30822,29.46506,17.1456,59.72,27.14282,94.28359,22.77711,29.02067-3.66589,49.314-9.85755,48.00213-43.51541-.94476-24.23857-10.65564-41.14244-29.91557-54.50434C916.309,7.759,895.48556,2.92933,876.44,3.21655,867.94151,3.34456,850.69152,2.02248,831.57856,1.76646Z"/><path class="cls-5" d="M1024.43825,560.401c3.80585-16.99543,22.78381-25.48571,32.84577-39.70139,5.98726-8.45908,8.66115-18.796,13.66954-27.86889,5.00838-9.07317,13.86985-17.441,24.20707-16.70179,10.05438.71936,18.39478,9.83918,28.46024,9.289,10.93644-.59806,20.6966-12.53787,30.86674-8.47162,3.38363,1.353,5.85954,4.27853,8.91862,6.25844,6.05053,3.91637,13.78588,3.82772,20.96983,3.24512,7.18365-.5826,14.67844-1.48274,21.38651,1.15295,6.70807,2.636,12.10514,10.267,9.50123,16.98756-4.05167,10.45765-21.84956,9.16677-26.18291,19.5107-1.80437,4.30681-.55985,9.38051-2.13182,13.77742-2.11171,5.90619-8.69615,8.98628-14.89626,9.93482s-12.62535.41465-18.67063,2.08576a11.89743,11.89743,0,0,0-6.32316,3.67668c-4.20359,5.30376-.198,14.06027-4.30973,19.43576-3.12849,4.09045-9.1936,4.03534-14.32445,3.59416q-15.94933-1.37165-31.89839-2.74359c-2.23564,2.61879.31579,6.45439.81121,9.86193,1.1337,7.798-8.71714,12.31946-16.58429,12.77085-9.04838.51874-18.0854-1.46729-26.86552.15046-10.13689,1.86764-20.61554,7.20523-29.45543,12.31829,6.434-15.8553.59251-15.48994,1.25151-24.04349C1026.32193,576.6327,1022.53678,568.89181,1024.43825,560.401Z"/><path class="cls-6" d="M1021.1111,612.01539c4.967-6.99011,10.3056-13.6117,15.851-20.08808q8.33011-9.6914,17.314-18.78552a332.14191,332.14191,0,0,1,38.45843-33.54919c6.81262-5.10492,13.89881-9.84076,21.16748-14.26471a229.24216,229.24216,0,0,1,22.46613-12.09387,203.12149,203.12149,0,0,1,23.69159-9.43171l6.09167-1.88812c2.03473-.61365,4.111-1.08246,6.16394-1.63061l3.08722-.794c1.03192-.25244,2.0802-.43457,3.11939-.65527l6.24664-1.26935-6.23328,1.33038c-1.03656.23084-2.08209.423-3.111.68543l-3.07788.82391c-2.04633.56793-4.11524,1.0564-6.14209,1.68939l-6.066,1.94556a202.73788,202.73788,0,0,0-23.55548,9.64593,228.62341,228.62341,0,0,0-22.28833,12.28138c-7.204,4.482-14.22046,9.27136-20.96033,14.426a330.89656,330.89656,0,0,0-37.9859,33.79785q-8.85342,9.13477-17.05243,18.86945c-5.44537,6.48462-10.71911,13.16565-15.53064,20.07947Z"/><path class="cls-7" d="M985.5157,543.19179c-1.71019-13.08052,3.87059-26.02574,10.746-37.28439,6.87545-11.25836,15.22984-21.75771,20.06531-34.03139,5.38541-13.66924,6.06686-28.6626,8.96061-43.06694,2.89347-14.40405,8.81891-29.3423,21.18386-37.27739,10.16489-6.52291,23.48772-7.49741,32.5708-15.45786,10.63669-9.3219,13.1018-26.2628,25.16758-33.64153,11.07262-6.77135,25.21074-2.64036,38.18774-2.40913a61.0023,61.0023,0,0,0,28.88158-6.73082c7.87473-4.0572,15.3838-9.99576,24.24061-10.17013a19.68659,19.68659,0,0,1,16.95461,30.31738c-7.37407,11.48813-25.92076,14.7143-28.48152,28.12315-.82113,4.3004.3432,8.69673.70332,13.06011a36.053,36.053,0,0,1-11.42807,29.11456c-7.4353,6.795-17.33542,10.09637-25.95546,15.30653-8.62033,5.21016-16.61548,13.89319-15.7547,23.9289.52486,6.124,4.24557,11.438,6.44447,17.17767,6.72935,17.56491-3.32211,39.681-20.98,46.16248-11.78031,4.324-26.0167,2.56689-35.79,10.43812-11.61673,9.356-11.50476,28.09953-22.63248,38.032-15.296,13.65321-39.29054,5.7741-55.23011,19.1812C999.06131,577.34768,987.76416,560.391,985.5157,543.19179Z"/><path class="cls-6" d="M999.779,607.82624c1.32348-6.40308,2.93884-12.60016,4.67608-18.81653,1.75965-6.19568,3.61341-12.36175,5.66071-18.46228q6.04449-18.33326,13.591-36.10669a479.65727,479.65727,0,0,1,35.60706-68.31463c6.91-10.8321,14.20392-21.4162,21.98425-31.636,1.93872-2.55878,3.97821-5.04077,5.96191-7.56427l2.99506-3.77008,3.11566-3.67157c2.08661-2.43927,4.14282-4.90418,6.25354-7.32117l6.48889-7.11307c2.12769-2.40319,4.39484-4.67565,6.644-6.96411,2.26342-2.274,4.45715-4.61737,6.77685-6.8334,4.68677-4.38251,9.24329-8.90335,14.15015-13.04068a376.62021,376.62021,0,0,1,30.139-23.88049,376.34433,376.34433,0,0,0-29.8064,24.2539c-4.84491,4.1937-9.33661,8.7681-13.95569,13.20087-2.28589,2.24118-4.44525,4.609-6.67352,6.90665-2.21411,2.31207-4.4455,4.6073-6.53693,7.03262l-6.37829,7.17685c-2.07337,2.43756-4.09174,4.9223-6.13984,7.38049l-3.05761,3.69928-2.9364,3.79688c-1.94446,2.541-3.944,5.03936-5.84247,7.61407-7.61951,10.28326-14.746,20.9187-21.48419,31.79a477.15275,477.15275,0,0,0-34.53449,68.40857q-7.24283,17.74932-13.03143,36.0332c-1.95294,6.07941-3.71112,12.21777-5.3739,18.37512-1.63507,6.14948-3.16864,12.38849-4.36023,18.55677Z"/><path class="cls-8" d="M488.09093,551.60771c-8.11318-15.41121-28.65-18.64934-42.07582-29.74324-7.989-6.60135-13.27034-15.881-20.47464-23.33055-7.20471-7.44959-17.94433-13.21232-27.72957-9.79836-9.51755,3.32065-15.1861,14.30258-25.04563,16.40058-10.71308,2.27966-23.25334-6.69611-32.008-.1146-2.91277,2.18986-4.5384,5.66068-6.97436,8.371-4.81738,5.36092-12.30721,7.29592-19.39377,8.61012-7.08684,1.31421-14.55626,2.403-20.3429,6.69962s-9.00289,13.07235-4.734,18.8794c6.64275,9.03614,23.48539,3.141,30.37045,11.99375,2.86664,3.686,2.99086,8.90872,5.65688,12.74227,3.58075,5.14952,10.74137,6.40278,16.97385,5.69887,6.23249-.70419,12.29526-2.89783,18.5674-2.86372a11.89543,11.89543,0,0,1,7.06381,1.89739c5.44315,4.02134,3.86424,13.52024,9.23734,17.63518,4.08841,3.13111,9.92841,1.49353,14.76592-.27264q15.03695-5.49053,30.07419-10.98076c2.84215,1.944,1.38105,6.313,1.793,9.73158.94242,7.82341,11.63247,9.61466,19.34449,7.99516,8.86964-1.86269,17.07387-6.14034,25.97179-6.87253,10.27278-.845,21.7822,1.56993,31.65054,4.1963-10.35209-13.62375-4.61823-14.79712-7.48837-22.8815C490.5126,567.768,492.14435,559.30719,488.09093,551.60771Z"/><path class="cls-6" d="M503.48194,602.07838c-6.45049-5.41687-13.28631-10.48835-20.23653-15.32538q-10.44957-7.24622-21.38937-13.76a330.89754,330.89754,0,0,0-45.49555-22.70184c-7.85233-3.215-15.87625-6.00525-24.00089-8.44989a228.61421,228.61421,0,0,0-24.72252-6.03284,202.73277,202.73277,0,0,0-25.25732-3.158l-6.3636-.29346c-2.12181-.0816-4.24646-.01263-6.3701-.0263l-3.18624.00866c-1.06175.01551-2.12118.10309-3.182.15106l-6.36437.344,6.36133-.40643c1.06071-.05841,2.12022-.15644,3.1822-.18232l3.18747-.04c2.12484-.00715,4.25145-.09693,6.37586-.03614l6.37338.23127a203.12629,203.12629,0,0,1,25.33273,2.91564,229.253,229.253,0,0,1,24.84519,5.80542c8.17194,2.37171,16.24917,5.09211,24.15869,8.24018a332.1429,332.1429,0,0,1,45.88678,22.33838q11.04118,6.42406,21.61991,13.61059c7.04459,4.80292,13.92743,9.80011,20.548,15.25006Z"/><path class="cls-7" d="M520.95566,545.38485c1.70989-13.08052-3.87059-26.026-10.74633-37.28439-6.87544-11.25836-15.22954-21.7577-20.0653-34.03139-5.38541-13.66953-6.06686-28.66259-8.96033-43.06694-2.89375-14.40434-8.81919-29.3423-21.18414-37.27739-10.16489-6.5229-23.48772-7.4974-32.5708-15.45786-10.63669-9.3219-13.10152-26.2628-25.16758-33.64182-11.07262-6.77105-25.21074-2.64007-38.18745-2.40884a61.00081,61.00081,0,0,1-28.88158-6.73081c-7.875-4.05721-15.38409-9.99577-24.2409-10.17014a19.68682,19.68682,0,0,0-16.95461,30.31738c7.37436,11.48813,25.92076,14.71431,28.48152,28.12315.82148,4.3004-.3432,8.69673-.70332,13.05982a36.05412,36.05412,0,0,0,11.42807,29.11486c7.4353,6.79467,17.33542,10.09636,25.95575,15.30652,8.62,5.21017,16.61519,13.89319,15.75471,23.9289-.52516,6.124-4.24587,11.438-6.44477,17.17768-6.72935,17.5649,3.32211,39.681,20.98,46.16248,11.78031,4.324,26.0167,2.56688,35.79,10.43811,11.61673,9.356,11.50482,28.09924,22.63248,38.03173,15.29639,13.6535,39.29054,5.7744,55.23011,19.1812C507.40976,579.54074,518.70719,562.5841,520.95566,545.38485Z"/><path class="cls-6" d="M502.75927,610.74958c-1.19158-6.16827-2.72516-12.40729-4.36024-18.55676-1.66277-6.15735-3.421-12.29572-5.37388-18.37506q-5.76083-18.269-13.03143-36.03327A477.1587,477.1587,0,0,0,445.45934,469.376c-6.73816-10.87133-13.86469-21.50671-21.48416-31.79-1.89849-2.57471-3.898-5.07312-5.84246-7.61408l-2.93643-3.79687-3.05755-3.69928c-2.04813-2.45819-4.06652-4.94294-6.13986-7.3805l-6.37825-7.17685c-2.09148-2.42535-4.32283-4.72058-6.53694-7.03265-2.22829-2.29764-4.38763-4.66547-6.67348-6.90665-4.61911-4.43277-9.11076-9.00717-13.95567-13.20086a376.34773,376.34773,0,0,0-29.80639-24.25394,376.61834,376.61834,0,0,1,30.13892,23.88052c4.90691,4.13733,9.46336,8.65818,14.15019,13.04068,2.31967,2.216,4.51339,4.55936,6.7768,6.83341,2.24922,2.28845,4.51637,4.56091,6.644,6.96411l6.48886,7.113c2.11071,2.41705,4.167,4.882,6.25355,7.32122l3.11562,3.67157,2.995,3.77008c1.98374,2.5235,4.02321,5.00544,5.9619,7.56427,7.78033,10.21979,15.07419,20.80384,21.98426,31.636a479.65337,479.65337,0,0,1,35.60692,68.31464q7.51922,17.76315,13.591,36.10669c2.04729,6.10052,3.901,12.26654,5.6607,18.46222,1.73727,6.21637,3.35263,12.41345,4.67608,18.81659Z"/><path class="cls-5" d="M550.60938,570.84489c-8.04181-2.54559-16.67118,1.283-25.10023.962-2.57942-.098-5.27716-.65434-7.21427-2.35986-1.93733-1.70581-2.80278-4.81709-1.35561-6.95475,1.62942-2.4068,5.07078-2.51032,7.97445-2.37881,8.52761.38694,17.15172.62138,25.6038-.79954a54.96067,54.96067,0,0,0,6.56-1.47458,5.03411,5.03411,0,0,0,.55986-.21753c3.19519-11.7946,2.35133-25.009-1.63875-36.61664a4.50051,4.50051,0,0,1-1.94994.668,61.37757,61.37757,0,0,0-29.74353,14.57988,22.98393,22.98393,0,0,1-5.58894,4.22779,9.804,9.804,0,0,1-8.73113-.41144,3.975,3.975,0,0,1-1.50636-1.33228,4.01886,4.01886,0,0,1-.25952-2.883c.99783-4.722,5.20345-8.01615,9.31665-10.54134,7.36386-4.52025,15.67714-8.22755,20.69718-15.25987a27.39692,27.39692,0,0,0,3.63615-8.16311c.966-3.08854,2.41912-6.14093,1.07015-9.3878-.97071-2.33682-3.16086-3.90762-5.29677-5.26411a110.26428,110.26428,0,0,0-25.22211-11.57415c-.42776-.13909-.86078-.26068-1.29-.39423-3.10254,5.51429-7.23993,10.46844-9.6164,16.33147-3.24105,7.9972-3.19148,17.61565-8.94692,24.04466a6.47949,6.47949,0,0,1-4.224,2.47066c-2.21989.121-4.19426-1.72331-4.84538-3.849a11.04633,11.04633,0,0,1,.442-6.55c1.60871-4.9973,4.65737-9.43737,6.25406-14.43846a23.63054,23.63054,0,0,0-2.259-18.72544,23.16322,23.16322,0,0,0-6.11672-6.75735c-2.387-1.77055-4.78123-2.43508-7.4388-3.48511a86.15625,86.15625,0,0,0-12.11272-4.05662,59.7928,59.7928,0,0,0-19.83758-.89315,38.82285,38.82285,0,0,1,4.55642,6.26165,59.79888,59.79888,0,0,1,7.29423,18.96688,14.38924,14.38924,0,0,1,.02764,7.28513c-.77185,2.33244-2.92846,4.37125-5.38221,4.25228a7.45359,7.45359,0,0,1-4.20038-1.9974,24.27971,24.27971,0,0,1-7.24838-10.16285c-1.40781-3.76095-1.85744-7.81321-3.07484-11.64035-1.03049-3.23958-3.21159-8.11237-6.9288-8.80957-4.50772-.84591-8.55618.46451-12.89594,1.509a97.4872,97.4872,0,0,1-47.43791-.33213c5.52917,1.40227,9.13237,6.739,11.23008,12.04362a47.65086,47.65086,0,0,1,3.25708,15.08288,43.61834,43.61834,0,0,1-.25252,7.86685c-.31252,2.375-1.35532,4.52638-1.72826,6.86262a7.33906,7.33906,0,0,0,.19128,2.98823c.67445,2.59575,3.27662,2.98182,5.59856,3.46382a53.1748,53.1748,0,0,0,8.93583.85116c4.45967.1592,9.01077.27759,13.20795,1.79358a9.92751,9.92751,0,0,1,4.429,2.8331,4.93061,4.93061,0,0,1,.90773,4.97339c-.88644,1.98691-3.22151,2.84127-5.35625,3.26116a30.58236,30.58236,0,0,1-12.88253-.24493c-4.07762-.96342-7.90644-2.75409-11.88375-4.07208a30.87925,30.87925,0,0,0-6.59471-1.48829c-.45984-.04578-1.45883,8.00741-1.51686,8.78654-.16854,2.27529-.57444,5.71986.38024,7.8132,1.08209,2.37385,2.73075,4.64885,5.32446,5.465,3.32036,1.04478,7.05536.95876,10.49614.95847,7.458-.00059,15.00065-.30122,22.18139-2.31466,5.47376-1.53523,10.98484-4.08024,16.59274-3.148,2.22718.37,4.56807,1.50782,5.339,3.63a5.45524,5.45524,0,0,1-1.38506,5.38337,12.19155,12.19155,0,0,1-4.99526,2.92991c-14.00311,4.96319-29.51.17321-44.284,1.73848-.78847.08368-1.586.18195-2.38347.26068,3.75686,7.69132,5.35887,16.25478,8.26691,24.31671a50.64254,50.64254,0,0,0,4.35814,9.24434c4.799-2.01578,9.42424-4.25783,14.127-6.66812,8.23543-4.22079,17.34512-8.01265,26.48412-6.55819a5.926,5.926,0,0,1,3.49473,1.49295c1.49907,1.60054,1.02232,4.33655-.43593,5.97384s-3.60641,2.44762-5.66615,3.19905q-3.58623,1.30823-7.17264,2.61675c-3.16494,1.1547-6.48675,2.41758-8.62412,5.0215a39.46106,39.46106,0,0,0-3.09728,5.33175,17.84566,17.84566,0,0,1-1.65333,2.3237c2.31122.52982,4.66284.9433,6.958,1.53319,7.759,1.9942,14.80878,6.04557,22.26041,8.98686a81.13553,81.13553,0,0,0,10.5148,3.31336,35.97183,35.97183,0,0,0,2.66865-2.77421,67.16486,67.16486,0,0,0,8.89209-14.465c2.27332-4.67626,4.42462-9.5301,7.96483-13.33858a4.02351,4.02351,0,0,1,2.9754-1.632c1.76793.12043,2.64912,2.21,2.82932,3.97265.831,8.13424-4.56429,15.40625-7.472,23.04858a47.054,47.054,0,0,1-3.0378,7.42189,80.95791,80.95791,0,0,0,8.178.06036c6.14442-.27322,13.85994-1.2728,18.74177-5.43265,6.2249-5.30435,8.56376-16.02705,12.61193-22.58262,9.67327,3.456,24.1021,2.07293,32.66178-3.17339a40.76305,40.76305,0,0,0,12.83937-12.45855C551.27741,571.06621,550.94121,570.94987,550.60938,570.84489ZM406.68579,502.81332a4.1673,4.1673,0,0,1-2.8864,3.12965,9.7646,9.7646,0,0,1-4.43511.20441,8.77263,8.77263,0,0,1-4.66-1.7026,3.67725,3.67725,0,0,1-1.03252-4.50451,4.45961,4.45961,0,0,1,1.44046-1.33375C398.679,496.31957,407.59731,496.384,406.68579,502.81332Zm13.88444-19.70577c-1.31625,1.20894-3.36731,1.00482-5.109.60447a2.86888,2.86888,0,0,1-1.73935-.87915,2.64037,2.64037,0,0,1-.41464-1.32762,6.673,6.673,0,0,1,.60651-3.92162c2.3823-4.3141,7.43909-3.36876,7.82078,1.48654A4.88881,4.88881,0,0,1,420.57023,483.10755Zm17.13422,39.294a4.14322,4.14322,0,0,1-1.72243,1.2556,14.85032,14.85032,0,0,1-11.71354-.2429,3.21033,3.21033,0,0,1-2.063-1.81662c-.31754-1.1547.59747-2.25342,1.455-3.0897,2.67973-2.613,7.342-4.72379,11.26011-4.38088C438.61888,514.45075,439.74414,519.5574,437.70445,522.40158Zm11.35,12.61922c7.42648-2.9407,9.74172,8.18265,3.56581,9.65111C444.55423,546.5897,441.57154,537.98366,449.05444,535.0208Zm11.0291,35.138a6.08131,6.08131,0,0,1-3.0553,1.09405,4.50774,4.50774,0,0,1-1.17774-.08748,3.68417,3.68417,0,0,1-2.93633-2.98561C452.06156,560.8328,470.05044,563.33261,460.08354,570.15878ZM470.8101,514.0953a4.9652,4.9652,0,0,1-7.67593,3.56879,5.84012,5.84012,0,0,1-2.38107-5.39182c.24691-2.51469,3.10626-7.30205,6.19451-6.86728C469.77721,505.80272,471.06962,511.84829,470.8101,514.0953Zm32.74453,33.94128a4.60282,4.60282,0,0,1-4.2899-.00816,1.43108,1.43108,0,0,1-.62693-.50854,1.39792,1.39792,0,0,1-.13617-.76426,4.80866,4.80866,0,0,1,2.28229-3.85484c1.92392-1.15821,3.4402-.88965,4.26307-.00729C506.21336,544.145,505.98708,546.63024,503.55463,548.03658Z"/><path class="cls-6" d="M516.10424,608.73017A226.86309,226.86309,0,0,0,505.574,587.135q-5.78981-10.55036-12.42089-20.61542-6.62669-10.05158-14.06448-19.53821c-4.9475-6.32123-10.16181-12.43884-15.68771-18.26452a233.17179,233.17179,0,0,0-17.34025-16.7074,208.3414,208.3414,0,0,0-18.99975-14.79785c-3.25468-2.35883-6.70645-4.42029-10.08286-6.59766-1.72337-1.03113-3.4769-2.01239-5.21416-3.0213l-2.61187-1.5036-2.67564-1.38642L401.11861,481.94l-5.48194-2.50824-2.74353-1.24945-2.79967-1.11786-5.60038-2.23608,5.61692,2.19519,2.809,1.09778,2.75344,1.22973,5.50371,2.46967,5.38195,2.72534,2.68862,1.36829,2.62536,1.4859c1.74645.99713,3.50957,1.967,5.24285,2.98687,3.3961,2.15491,6.86916,4.195,10.14606,6.53345A208.78554,208.78554,0,0,1,446.407,511.60865a233.78916,233.78916,0,0,1,17.50645,16.62225c5.584,5.80139,10.85842,11.89844,15.8677,18.20288q7.52349,9.4499,14.2545,19.4997,6.72424,10.03821,12.6201,20.60364a227.89881,227.89881,0,0,1,10.76045,21.66949Z"/><path class="cls-5" d="M513.20165,193.27667h538.1234a35.36979,35.36979,0,0,1,35.36979,35.36979v325.906a35.3695,35.3695,0,0,1-35.3695,35.3695h-538.124a35.3695,35.3695,0,0,1-35.3695-35.3695v-325.906A35.36979,35.36979,0,0,1,513.20165,193.27667Z"/><path class="cls-9" d="M608.52108,106.11547H956.00679a5.6313,5.6313,0,0,1,5.6313,5.6313V671.45118a5.6326,5.6326,0,0,1-5.6326,5.6326H608.52238a5.6326,5.6326,0,0,1-5.6326-5.6326V111.74677A5.6313,5.6313,0,0,1,608.52108,106.11547Z" transform="translate(1173.86356 -390.66431) rotate(90)"/><path class="cls-8" d="M1067.73934,228.64442V554.55658a16.43268,16.43268,0,0,1-16.41662,16.41632H513.19005a16.45146,16.45146,0,0,1-16.41662-16.41632V228.64442a16.45152,16.45152,0,0,1,16.41662-16.41662h538.13267A16.43274,16.43274,0,0,1,1067.73934,228.64442Z"/><g class="cls-10"><path class="cls-6" d="M972.12639,212.2278,613.381,570.9729H513.19005a16.45146,16.45146,0,0,1-16.41662-16.41632v-5.97793L833.12487,212.2278Z"/><polygon class="cls-6" points="1046.074 212.228 687.329 570.973 636.475 570.973 995.22 212.228 1046.074 212.228"/></g><path class="cls-11" d="M623.57428,92.22057H940.95359a16.8953,16.8953,0,0,1,16.8953,16.8953V573.0267a16.8953,16.8953,0,0,1-16.8953,16.8953H623.57418a16.8952,16.8952,0,0,1-16.8952-16.8952V109.11587A16.8953,16.8953,0,0,1,623.57428,92.22057Z"/><line class="cls-12" x1="762.05228" y1="174.01382" x2="907.95199" y2="174.01382"/><line class="cls-12" x1="762.05228" y1="205.59438" x2="792.61285" y2="205.59438"/><circle class="cls-7" cx="675.83865" cy="189.80417" r="36.94873" transform="translate(63.73674 533.48245) rotate(-45)"/><path class="cls-13" d="M683.17313,179.892a7.33441,7.33441,0,1,1-7.33441-7.33412A7.33446,7.33446,0,0,1,683.17313,179.892Z"/><path class="cls-14" d="M675.83872,190.28639a16.76419,16.76419,0,0,0-16.7642,16.7642h33.5281A16.76412,16.76412,0,0,0,675.83872,190.28639Z"/><line class="cls-12" x1="762.05228" y1="279.41055" x2="907.95199" y2="279.41055"/><line class="cls-12" x1="762.05228" y1="310.99111" x2="816.05392" y2="310.99111"/><circle class="cls-7" cx="675.83865" cy="295.20076" r="36.94854" transform="translate(232.49955 884.56636) rotate(-76.64369)"/><circle class="cls-15" cx="675.83872" cy="285.28875" r="7.33441"/><path class="cls-16" d="M675.83872,295.68313a16.76412,16.76412,0,0,0-16.7642,16.7639h33.5281A16.764,16.764,0,0,0,675.83872,295.68313Z"/><line class="cls-12" x1="762.05228" y1="384.80699" x2="907.95199" y2="384.80699"/><line class="cls-12" x1="762.05228" y1="416.38784" x2="841.27457" y2="416.38784"/><circle class="cls-7" cx="675.83865" cy="400.59734" r="36.94873" transform="translate(-85.31654 595.22234) rotate(-45)"/><circle class="cls-17" cx="675.83872" cy="390.68548" r="7.33441"/><path class="cls-18" d="M675.83872,401.07956a16.76419,16.76419,0,0,0-16.7642,16.7642h33.5281A16.76412,16.76412,0,0,0,675.83872,401.07956Z"/><line class="cls-12" x1="762.05228" y1="490.20372" x2="907.95199" y2="490.20372"/><line class="cls-12" x1="762.05228" y1="521.78428" x2="792.61285" y2="521.78428"/><circle class="cls-7" cx="675.83865" cy="505.994" r="36.94873"/><circle class="cls-19" cx="675.83872" cy="496.08192" r="7.33441"/><path class="cls-20" d="M675.83872,506.4763a16.76418,16.76418,0,0,0-16.7642,16.76419h33.5281A16.76411,16.76411,0,0,0,675.83872,506.4763Z"/><path class="cls-5" d="M1091.11684,618.344H473.4111a28.4219,28.4219,0,0,1-28.42181-28.422h674.54958A28.42214,28.42214,0,0,1,1091.11684,618.344Z"/><path class="cls-21" d="M818.12276,600.52107H746.40517a10.58986,10.58986,0,0,1-10.58973-10.58974H828.7125A10.58986,10.58986,0,0,1,818.12276,600.52107Z"/><circle class="cls-22" cx="496.7734" cy="391.60043" r="54.11158" transform="translate(-130.02924 306.43497) rotate(-30.51073)"/><path class="cls-23" d="M523.56161,370.85345a18.39268,18.39268,0,0,0-26.72351-.89227.09082.09082,0,0,1-.12947,0,18.39235,18.39235,0,0,0-26.72322.89227c-6.53165,7.36736-5.67437,18.72719,1.28767,25.68924L490.83043,416.1a8.405,8.405,0,0,0,11.88616,0l19.55735-19.55735C529.236,389.58064,530.093,378.22081,523.56161,370.85345Z"/><circle class="cls-22" cx="550.885" cy="295.20083" r="21.63906"/><path class="cls-23" d="M561.59743,286.90417a7.35492,7.35492,0,0,0-10.68655-.35691.03592.03592,0,0,1-.05161,0,7.35526,7.35526,0,0,0-10.68684.35691,7.54594,7.54594,0,0,0,.51495,10.27307l7.82108,7.82079a3.36073,3.36073,0,0,0,4.75323,0l7.82079-7.82079A7.54564,7.54564,0,0,0,561.59743,286.90417Z"/><circle class="cls-22" cx="1025.44446" cy="367.22816" r="21.63928" transform="translate(40.6762 832.65737) rotate(-45)"/><path class="cls-23" d="M1036.157,358.93172a7.35526,7.35526,0,0,0-10.68684-.35691.03642.03642,0,0,1-.05161,0,7.35492,7.35492,0,0,0-10.68655.35691,7.54556,7.54556,0,0,0,.51466,10.27278l7.82108,7.82107a3.36124,3.36124,0,0,0,4.75323,0l7.82108-7.82107A7.54558,7.54558,0,0,0,1036.157,358.93172Z"/><circle class="cls-22" cx="1068.92495" cy="469.16742" r="48.48938"/><path class="cls-23" d="M1073.27638,444.35354l3.89041,11.41582a4.597,4.597,0,0,0,4.28582,3.11391l12.05965.17233a4.5971,4.5971,0,0,1,2.68935,8.27683l-9.65518,7.22769a4.597,4.597,0,0,0-1.637,5.03841l3.56267,11.52254a4.59712,4.59712,0,0,1-7.04078,5.1154l-9.85755-6.94922a4.59731,4.59731,0,0,0-5.29764,0l-9.85755,6.94922a4.59713,4.59713,0,0,1-7.04078-5.1154l3.563-11.52254a4.59757,4.59757,0,0,0-1.63728-5.03841l-9.65519-7.22769a4.59711,4.59711,0,0,1,2.68964-8.27683l12.05936-.17233a4.597,4.597,0,0,0,4.28582-3.11391l3.89042-11.41582A4.59709,4.59709,0,0,1,1073.27638,444.35354Z"/><circle class="cls-22" cx="1086.69485" cy="215.64847" r="89.3309"/><path class="cls-23" d="M1070.11465,199.40651c0,8.97024-4.545,16.242-10.15148,16.242-5.60615,0-10.15119-7.27172-10.15119-16.242s4.545-16.242,10.15119-16.242C1065.5696,183.16456,1070.11465,190.43627,1070.11465,199.40651Z"/><ellipse class="cls-23" cx="1113.42653" cy="199.40651" rx="10.15119" ry="16.24195"/><path class="cls-24" d="M1138.22524,227.15322a56.156,56.156,0,0,1-103.06079,0"/><circle class="cls-5" cx="866.81983" cy="88.38352" r="55.71886"/><path class="cls-25" d="M893.71648,65.29586a19.01866,19.01866,0,0,0-26.89672,0A19.01875,19.01875,0,0,0,839.923,92.19229L866.81976,119.089l26.89672-26.89672A19.01833,19.01833,0,0,0,893.71648,65.29586Z"/><path class="cls-5" d="M365.36436,77.60862H650.05565a5.2865,5.2865,0,0,1,5.2865,5.2865V140.516a5.2866,5.2866,0,0,1-5.2866,5.2866H365.36436a5.2866,5.2866,0,0,1-5.2866-5.2866V82.89522A5.2866,5.2866,0,0,1,365.36436,77.60862Z"/><polygon class="cls-5" points="622.924 166.542 593.731 137.348 622.924 137.348 622.924 166.542"/><path class="cls-6" d="M405.42757,95.41846l2.55324,7.493a3.01813,3.01813,0,0,0,2.81322,2.04406l7.91526.11285a3.01755,3.01755,0,0,1,1.76529,5.43294l-6.33716,4.7439a3.017,3.017,0,0,0-1.07452,3.307l2.33857,7.563a3.01752,3.01752,0,0,1-4.62137,3.35768l-6.4702-4.56137a3.018,3.018,0,0,0-3.47723,0l-6.47013,4.56137a3.01755,3.01755,0,0,1-4.62144-3.35768l2.33857-7.563a3.01738,3.01738,0,0,0-1.07452-3.307l-6.3371-4.7439a3.01746,3.01746,0,0,1,1.76494-5.43294l7.91555-.11285a3.01762,3.01762,0,0,0,2.813-2.04406l2.55347-7.493A3.01762,3.01762,0,0,1,405.42757,95.41846Z"/><path class="cls-6" d="M457.99691,95.41846l2.55317,7.493a3.018,3.018,0,0,0,2.81328,2.04406l7.91526.11285a3.01755,3.01755,0,0,1,1.7653,5.43294l-6.33717,4.7439a3.01712,3.01712,0,0,0-1.07451,3.307l2.33856,7.563a3.01754,3.01754,0,0,1-4.62143,3.35768l-6.47013-4.56137a3.01792,3.01792,0,0,0-3.47717,0l-6.4702,4.56137a3.01756,3.01756,0,0,1-4.62144-3.35768l2.33857-7.563a3.01746,3.01746,0,0,0-1.07452-3.307l-6.33716-4.7439a3.01749,3.01749,0,0,1,1.765-5.43294l7.91555-.11285a3.01775,3.01775,0,0,0,2.813-2.04406l2.5534-7.493A3.01763,3.01763,0,0,1,457.99691,95.41846Z"/><path class="cls-6" d="M510.56624,95.41846l2.55318,7.493a3.018,3.018,0,0,0,2.81328,2.04406l7.91526.11285a3.01755,3.01755,0,0,1,1.76529,5.43294l-6.33716,4.7439a3.01711,3.01711,0,0,0-1.07452,3.307l2.33857,7.563a3.01755,3.01755,0,0,1-4.62144,3.35768l-6.47013-4.56137a3.018,3.018,0,0,0-3.47723,0l-6.47013,4.56137a3.01755,3.01755,0,0,1-4.62144-3.35768l2.33857-7.563a3.01749,3.01749,0,0,0-1.07452-3.307l-6.33716-4.7439a3.01749,3.01749,0,0,1,1.765-5.43294l7.91555-.11285a3.01762,3.01762,0,0,0,2.813-2.04406l2.55347-7.493A3.01762,3.01762,0,0,1,510.56624,95.41846Z"/><path class="cls-6" d="M563.13558,95.41846l2.55317,7.493a3.018,3.018,0,0,0,2.81335,2.04406l7.91519.11285a3.0176,3.0176,0,0,1,1.7653,5.43294l-6.33717,4.7439a3.017,3.017,0,0,0-1.07451,3.307l2.33856,7.563a3.01754,3.01754,0,0,1-4.62143,3.35768l-6.47014-4.56137a3.018,3.018,0,0,0-3.47723,0l-6.47013,4.56137a3.0175,3.0175,0,0,1-4.62137-3.35768l2.33857-7.563a3.0176,3.0176,0,0,0-1.07459-3.307l-6.33716-4.7439a3.01749,3.01749,0,0,1,1.765-5.43294l7.91555-.11285a3.01759,3.01759,0,0,0,2.813-2.04406l2.55347-7.493A3.01763,3.01763,0,0,1,563.13558,95.41846Z"/><path class="cls-6" d="M615.70462,95.41846l2.55347,7.493a3.018,3.018,0,0,0,2.81328,2.04406l7.91526.11285a3.0176,3.0176,0,0,1,1.76529,5.43294l-6.33709,4.7439a3.01692,3.01692,0,0,0-1.07459,3.307l2.33857,7.563a3.01755,3.01755,0,0,1-4.62144,3.35768l-6.47013-4.56137a3.018,3.018,0,0,0-3.47723,0l-6.47013,4.56137a3.01755,3.01755,0,0,1-4.62144-3.35768l2.33857-7.563a3.01749,3.01749,0,0,0-1.07452-3.307l-6.33717-4.7439a3.0175,3.0175,0,0,1,1.765-5.43294l7.91555-.11285a3.01762,3.01762,0,0,0,2.813-2.04406l2.55347-7.493A3.01742,3.01742,0,0,1,615.70462,95.41846Z"/><path class="cls-26" d="M1025.44453,40.70534a8.04094,8.04094,0,1,1-8.04093-8.04064A8.04105,8.04105,0,0,1,1025.44453,40.70534Z"/><circle class="cls-26" cx="587.77129" cy="59.72529" r="5.08245"/><path class="cls-27" d="M426.6053,224.75313a8.0409,8.0409,0,1,1-8.04093-8.04065A8.04086,8.04086,0,0,1,426.6053,224.75313Z"/><circle class="cls-27" cx="477.83186" cy="54.64285" r="3.42999"/><circle class="cls-26" cx="452.35344" cy="299.56713" r="2.78703"/><path class="cls-26" d="M466.15273,189.8041a2.78718,2.78718,0,1,1-2.787-2.787A2.78693,2.78693,0,0,1,466.15273,189.8041Z"/><path class="cls-27" d="M1147.49669,308.20408a2.78718,2.78718,0,1,1-2.78732-2.78733A2.78718,2.78718,0,0,1,1147.49669,308.20408Z"/><path class="cls-27" d="M712.78719,29.87737a7.78084,7.78084,0,1,1-7.78083-7.78083A7.781,7.781,0,0,1,712.78719,29.87737Z"/><path class="cls-27" d="M1082.78431,82.23443a3.4733,3.4733,0,1,1-3.47344-3.47315A3.47337,3.47337,0,0,1,1082.78431,82.23443Z"/><line class="cls-28" x1="1144.70937" y1="68.11351" x2="1144.70937" y2="75.88939"/><line class="cls-28" x1="1148.59745" y1="72.00131" x2="1140.82157" y2="72.00131"/><line class="cls-29" x1="406.10611" y1="19.59614" x2="406.10611" y2="27.37172"/><line class="cls-29" x1="409.9939" y1="23.48393" x2="402.21802" y2="23.48393"/><line class="cls-28" x1="655.34215" x2="655.34215" y2="7.77588"/><line class="cls-28" x1="659.22994" y1="3.88809" x2="651.45436" y2="3.88809"/><line class="cls-29" x1="342.64815" y1="269.67372" x2="342.64815" y2="277.4496"/><line class="cls-29" x1="346.53594" y1="273.5618" x2="338.76007" y2="273.5618"/><line class="cls-29" x1="1244.58043" y1="273.5618" x2="1244.58043" y2="281.33739"/><line class="cls-29" x1="1248.46823" y1="277.4496" x2="1240.69264" y2="277.4496"/><line class="cls-30" x1="384.49274" y1="618.34403" x2="1215.93154" y2="618.34403"/><line class="cls-30" x1="333.41496" y1="618.34403" x2="367.13778" y2="618.34403"/><rect class="cls-31" x="916.57523" y="615.40887" width="11.93602" height="16.44519"/><polygon class="cls-31" points="840.162 630.926 852.098 630.926 855.811 614.48 843.875 614.48 840.162 630.926"/><path class="cls-31" d="M806.19024,306.82718s-.24523-10.00772-3.22938-11.7981c-2.98386-1.79037-6.76376-10.41974-6.76376-10.41974s-1.98924,1.66674-1.98924,3.45712a20.84114,20.84114,0,0,0,.99462,4.82322,23.49083,23.49083,0,0,0-6.76376-1.70669c-10.21213-1.06081-11.93631-6.49842-13.1298-5.90182-.67474.33737-2.74534,4.40129-.24494,9.35018,1.92247,3.80528,7.67237,8.54219,11.95585,10.01152,7.44405,2.55376,13.75293,9.882,13.75293,9.882l7.16149-5.76914Z"/><path class="cls-32" d="M927.49447,248.44525c.14551,2.6602-1.09755,4.46136-1.72068,6.874-.71673,2.77479-2.87918,4.55816-5.06408,6.85241-2.73163,2.86809-5.06,7.55689-8.94224,7.55951-5.17313.00379-3.099-16.3755-1.08443-19.11909C912.83324,247.68332,922.82171,243.81419,927.49447,248.44525Z"/><path class="cls-5" d="M918.01161,281.17s20.42426,6.16687,26.79029,15.3179c6.36574,9.151,5.17226,31.43185-2.78528,58.48719-7.95725,27.05505-6.36574,55.30388-6.36574,55.30388H867.93539s-1.59151-39.81773-3.183-67.27081-3.53642-46.52026,3.26058-50.8991A95.7958,95.7958,0,0,1,892.28272,281.17Z"/><polygon class="cls-31" points="913.186 256.107 913.186 288.133 901.759 286.491 892.283 288.133 892.283 256.107 913.186 256.107"/><path class="cls-33" d="M913.18635,259.98587s-2.02568,13.3275-20.90363,12.13372V262.868Z"/><path class="cls-5" d="M866.59494,293.3813s-7.78579,9.73158-14.83969,20.44962c-7.2341,10.99214-12.78717,19.19491-12.78717,19.19491s-26.06044-23.07658-30.43694-27.8511c0,0-7.75838,4.77452-10.9414,11.53829,0,0,23.27544,27.8511,28.64656,32.82449,5.37142,4.97339,9.74792,6.96263,19.89356-1.59151,10.14565-8.55443,23.07658-21.88309,23.07658-21.88309S875.54739,306.77411,866.59494,293.3813Z"/><path class="cls-8" d="M935.65088,410.279s8.67573,94.52182-4.8518,215.87241H914.08854s-11.06329-134.30893-14.644-166.93426L857.66815,626.1514H838.17232S863.21714,420.476,867.93539,410.279Z"/><path class="cls-32" d="M852.57958,629.25219a9.99651,9.99651,0,0,1,2.06039,4.20155c.9016,3.48014,1.02961,8.54626-1.74634,8.54626H821.46207c-3.02847,0-3.93445-5.51983.75143-6.37391,3.80353-.6934,7.55952-.74676,10.74254-2.47094,3.183-1.72389,7.68752-4.36222,7.68752-4.36222S849.24406,629.833,852.57958,629.25219Z"/><path class="cls-22" d="M903.75044,292.559l3.70672,80.223-9.1035,16.675s-6.18933-10.0433-8.99181-16.67439c0,0,3.41162-58.65136,9.66393-80.22361Z"/><path class="cls-34" d="M901.86005,286.4662s3.3431,2.58613,3.94,4.77452c.5966,2.18811-2.72492,4.606-4.63164,4.606-1.98458,0-3.68368-2.85206-3.5341-4.30623C897.79,290.0277,899.93,286.93829,901.86005,286.4662Z"/><path class="cls-31" d="M881.80087,231.79507c-.21986,6.66433.21345,14.742.71323,21.62357.37149,5.11511,2.81795,12.05645,6.98479,15.54068,3.148,2.6322,19.0185,3.16027,23.68746-8.97345,4.00327.98733,9.36739-4.52667,7.42393-8.25817-1.24335-2.38726-5.79247-2.40855-7.42393-.33008.02829-9.18427.07407-20.21752-10.68771-22.54354-4.53834-.98092-12.20982-1.54573-16.69917.54236C884.43715,230.03006,881.851,230.27442,881.80087,231.79507Z"/><path class="cls-32" d="M931.08338,230.94158a14.11456,14.11456,0,0,0,.12655-1.70231c.0659-4.49081-5.63851-6.236-8.00623-9.3983-3.48423-4.65409-6.26223-8.23338-12.65654-7.52307-6.42086.71295-12.77843,4.95036-19.30659,3.47636-3.79536-.857-6.69145-3.442-10.78219-2.24613-10.08,2.94654-5.523,16.223,2.40213,18.64409,3.60291,1.10076,6.09544,2.957,10.01852,2.9235,3.3778-.02887,6.51591-1.65624,9.796-2.27092a21.88127,21.88127,0,0,1,9.69076.126c4.14936,1.13808,7.94063,4.03884,12.31626,4.29515C928.78185,237.5059,930.61159,234.378,931.08338,230.94158Z"/><path class="cls-32" d="M908.12694,243.82c2.36948,2.25372,4.2275,3.68018,4.47623,8.753.58318-2.08868,4.27707-3.77991,7.83974-1.63175,3.42649,2.06593,7.28367,1.12992,9.64731-2.55522,1.856-2.89317,2.15632-6.12868,1.92976-9.53359a16.26644,16.26644,0,0,0-2.31612-7.64175,14.46294,14.46294,0,0,0-5.08419-5.52829,11.29623,11.29623,0,0,0-6.434-.76543,24.98731,24.98731,0,0,0-6.14267,1.85948,9.86756,9.86756,0,0,0-3.81548,2.71735,19.0927,19.0927,0,0,0-1.68336,2.77391A9.04689,9.04689,0,0,0,908.12694,243.82Z"/><path class="cls-23" d="M913.18635,278.18587s-1.97582,7.31108-11.42777,8.30512c0,0,.52486,7.21194,6.36661,8.20655S918.01161,281.17,918.01161,281.17A5.57032,5.57032,0,0,0,913.18635,278.18587Z"/><path class="cls-23" d="M901.75858,286.491s-8.20364-2.38668-9.47586-7.50937a4.2094,4.2094,0,0,0-3.03255,3.35127s-.49221,6.69349,4.60948,9.47848C898.72369,294.4669,901.75858,286.491,901.75858,286.491Z"/><path class="cls-35" d="M922.17846,410.279s-4.01172,16.21659,14.307,20.39393c0,0-.708-15.1237-.83453-20.39393Z"/><path class="cls-31" d="M937.77279,410.279s-3.521,4.08054-6.50949,4.87629c-2.98882.79576-8.60779,4.35085-8.60779,4.35085s1.47924,8.38209,13.8299,11.16679c0,0,6.58123-6.16745,7.17812-8.55472s2.785-10.14593,2.785-10.14593Z"/><path class="cls-5" d="M944.8019,296.48792s22.28053,37.79788,27.05506,54.1104c4.77452,16.31281-24.52579,64.557-24.52579,64.557s-4.082,0-10.84576-5.968l15.478-46.25491-13.92555-24.66808S930.87635,308.822,944.8019,296.48792Z"/><path class="cls-32" d="M928.51125,630.234s4.7235,6.41356,4.27765,7.52861c-.44613,1.115-3.34514,4.23741-3.34514,4.23741H916.509a5.50212,5.50212,0,0,1-3.45944-4.96552c0-1.57693,3.52563-6.63459,3.52563-6.63459S923.828,631.57209,928.51125,630.234Z"/></g></g></svg>