<svg xmlns="http://www.w3.org/2000/svg" viewBox="0 0 1528 642"><defs><style>.cls-1{fill:#f7f7f7;}.cls-2,.cls-24{fill:#ff901b;}.cls-2{opacity:0.63;}.cls-3{fill:#f70;}.cls-13,.cls-17,.cls-18,.cls-23,.cls-28,.cls-29,.cls-4,.cls-8,.cls-9{fill:none;}.cls-4{stroke:#995417;}.cls-13,.cls-18,.cls-23,.cls-28,.cls-29,.cls-4,.cls-8,.cls-9{stroke-miterlimit:10;}.cls-29,.cls-4{stroke-width:1.02233px;}.cls-5{fill:#a6b1ed;}.cls-6{fill:#ffeb8a;}.cls-7{fill:#8ead46;}.cls-13,.cls-8{stroke:#525730;}.cls-8{stroke-width:0.87706px;}.cls-9{stroke:#000;stroke-width:0.95556px;}.cls-10{fill:#d4daff;}.cls-11{fill:#ecffbf;}.cls-12{fill:#598048;}.cls-13{stroke-width:0.95123px;}.cls-14{fill:#3747a3;}.cls-15{fill:#4a60db;}.cls-16{fill:#292e4a;}.cls-17{stroke:#fff;stroke-linecap:round;stroke-linejoin:round;stroke-width:1.44674px;}.cls-18{stroke:#3747a3;stroke-width:0.98229px;}.cls-19{fill:#f9b989;}.cls-20{fill:#fff;}.cls-21{fill:#6470b5;}.cls-22{fill:#495285;}.cls-23{stroke:#ffa200;stroke-width:0.71461px;}.cls-25{fill:#d1d1d1;}.cls-26{fill:#f59462;}.cls-27{fill:#995417;}.cls-28{stroke:#495285;}.cls-29{stroke:#292e4a;}</style></defs><title>partnership-with-catflix</title><g id="BACKGROUND"><rect class="cls-1" width="1528" height="642"/></g><g id="OBJECTS"><rect class="cls-2" x="684.12674" y="113.63363" width="93.51527" height="124.07592"/><path class="cls-3" d="M354.59728,273.875s13.03192-39.41019,18.24365-54.2633c5.21154-14.8529,8.74082-45.54473-9.15184-48.97881-17.89245-3.43388-25.12889,21.82421-24.945,45.4708C338.9277,239.68031,354.59728,273.875,354.59728,273.875Z"/><path class="cls-3" d="M351.48141,337.05956s-12.98044-75.587-36.70255-67.53928C291.05674,277.56784,313.58971,330.37963,351.48141,337.05956Z"/><path class="cls-3" d="M363.37109,311.56436s-2.15231-25.71065,9.24048-48.14743c11.3928-22.43657,25.67865-20.11055,28.54687-9.88206C407.42616,275.88558,372.07056,297.01932,363.37109,311.56436Z"/><path class="cls-3" d="M369.54579,374.3071a169.81281,169.81281,0,0,1,7.12256-48.97543c7.92831-26.81175,29.05011-35.36971,40.006-22.595,5.82669,6.79382-1.82754,36.055-20.58438,49.34333A212.33336,212.33336,0,0,0,369.54579,374.3071Z"/><path class="cls-3" d="M363.76283,394.09707s-13.68442-35.669-32.99916-44.4353c-19.31455-8.76645-24.47043,4.91659-19.58565,19.00886C316.06261,382.7629,334.88086,395.63741,363.76283,394.09707Z"/><path class="cls-4" d="M361.94224,172.70489s-24.1542,115.31106,14.56591,251.004"/><path class="cls-4" d="M402.35375,307.49327c-.62845.6384-28.55224,44.94371-35.56111,76.69808"/><path class="cls-4" d="M318.10719,355.83389s9.55849,19.24518,51.57772,41.4985"/><path class="cls-4" d="M313.08964,278.30283c3.161,21.02025,12.75108,43.38607,46.43833,62.73281"/><path class="cls-4" d="M393.31043,251.79855s-21.22914,23.82826-35.16539,77.733"/><path class="cls-3" d="M1353.93962,394.83727s-3.38461-25.94061-4.84585-35.75271c-1.46144-9.8123,0-29.22781,11.48225-29.22781,11.48241,0,12.96094,16.49283,10.03826,31.10663C1367.70015,375.53425,1353.93962,394.83727,1353.93962,394.83727Z"/><path class="cls-3" d="M1348.36275,434.315s17.01277-45.242,30.73933-37.44311S1372.609,434.68154,1348.36275,434.315Z"/><path class="cls-3" d="M1344.03209,417.12259s4.38631-15.65766,0-30.89794-13.50475-15.49766-16.495-9.50761C1321.00283,389.8064,1340.37541,407.08669,1344.03209,417.12259Z"/><path class="cls-4" d="M1361.41116,331.34661s1.25255,74.23989-38.83121,153.62631"/><path class="cls-4" d="M1379.10447,402.50839c-4.45349,12.63481-13.04584,25.33878-36.19435,33.31161"/><path class="cls-4" d="M1332.60094,376.57473s10.30918,17.27,12.53165,52.28927"/><path class="cls-5" d="M1381.048,194.4864h96.68917c13.085,0,24.42514,1.3084,25.29745-4.79793.87233-6.10613-8.45163-7.41473-12.29494-12.64872-3.84311-5.2338-2.53452-23.55278-18.67257-23.55278s-20.30215,12.97269-26.50706,10.63c-6.20511-2.34272-9.69444-30.25716-25.39622-29.82109-15.702.43626-25.01479,36.57794-33.30284,33.5845-8.28788-2.99344-24.2707-1.74467-26.01537,8.72332-1.74464,10.46779-32.14591,5.28289-33.12319,13.52106C1326.74519,198.3627,1357.6342,194.4864,1381.048,194.4864Z"/><path class="cls-5" d="M527.31614,102.95393h96.68917c13.085,0,24.42514,1.3084,25.29744-4.79793.87234-6.10613-8.45162-7.41473-12.29493-12.64872-3.84312-5.2338-2.53452-23.55278-18.67257-23.55278s-20.30215,12.97269-26.50706,10.63c-6.20511-2.34271-9.69444-30.25715-25.39622-29.82108-15.702.43626-25.01479,36.57793-33.30284,33.5845-8.28788-2.99344-24.2707-1.74467-26.01537,8.72332-1.74464,10.46779-32.14592,5.28289-33.12319,13.52105C473.01329,106.83023,503.90231,102.95393,527.31614,102.95393Z"/><path class="cls-6" d="M1132.64158,234.30777a52.88118,52.88118,0,0,1,14.99821,4.89253,44.53657,44.53657,0,0,1,10.817,7.64369,32.49665,32.49665,0,0,1,6.62508,9.0147,25.62127,25.62127,0,0,1,2.6166,8.84457,3.77341,3.77341,0,0,1-1.306,3.34662,5.04082,5.04082,0,0,1-3.40406,1.28833h-12.20868a7.33138,7.33138,0,0,1-4.44553-1.11561,11.47922,11.47922,0,0,1-2.70306-3.00417,22.57538,22.57538,0,0,0-7.93606-7.471q-5.32433-3.1757-15.78566-3.17708a38.33872,38.33872,0,0,0-8.6319.94587,25.05909,25.05909,0,0,0-7.14859,2.74638,14.61158,14.61158,0,0,0-4.79614,4.37956,11.22065,11.22065,0,0,0,.17274,12.27883,14.95813,14.95813,0,0,0,6.19336,4.2921,68.15359,68.15359,0,0,0,10.98435,3.34941q6.7169,1.54521,16.30918,3.604a102.83247,102.83247,0,0,1,17.70065,5.23777,40.57449,40.57449,0,0,1,11.85848,7.21339,24.31385,24.31385,0,0,1,6.63024,9.70259,36.53559,36.53559,0,0,1,2.00682,12.53622,30.32206,30.32206,0,0,1-2.6164,12.53623,32.38775,32.38775,0,0,1-7.58545,10.473,42.11176,42.11176,0,0,1-12.12222,7.72915,60.995,60.995,0,0,1-16.22292,4.2921v11.67821a4.42744,4.42744,0,0,1-1.39208,3.26135,4.5739,4.5739,0,0,1-3.3178,1.37359h-14.12386a4.55466,4.55466,0,0,1-3.31285-1.37359,4.41383,4.41383,0,0,1-1.39725-3.26135V355.88694a64.25819,64.25819,0,0,1-14.739-4.03451,48.68487,48.68487,0,0,1-12.031-6.9564,34.05834,34.05834,0,0,1-8.28664-9.52967,26.196,26.196,0,0,1-3.48517-11.93321,3.76278,3.76278,0,0,1,1.30541-3.3494,5.03721,5.03721,0,0,1,3.40446-1.28833h12.20888a8.261,8.261,0,0,1,4.5316,1.03074,7.77029,7.77029,0,0,1,2.617,3.09142,32.30889,32.30889,0,0,0,2.9672,4.46482,16.10054,16.10054,0,0,0,4.70431,3.94925,28.83911,28.83911,0,0,0,7.41276,2.83145,46.2749,46.2749,0,0,0,11.076,1.11839,64.605,64.605,0,0,0,10.1154-.77315,29.80677,29.80677,0,0,0,8.54564-2.57626,18.16528,18.16528,0,0,0,5.92946-4.46481,9.83942,9.83942,0,0,0,2.26579-6.61077,8.31879,8.31879,0,0,0-2.43871-6.18324,19.73271,19.73271,0,0,0-7.41256-4.122,104.94908,104.94908,0,0,0-12.29554-3.26136q-7.3233-1.5461-16.91875-3.94984a91.35387,91.35387,0,0,1-15.257-4.89472,35.97749,35.97749,0,0,1-10.8166-6.95362,26.02106,26.02106,0,0,1-6.3661-9.70258,37.98966,37.98966,0,0,1-2.09346-13.309,29.16105,29.16105,0,0,1,2.61638-12.3639,34.7794,34.7794,0,0,1,7.24042-10.21776,39.19649,39.19649,0,0,1,11.076-7.55624,57.43415,57.43415,0,0,1,14.12385-4.37955v-11.676a4.41387,4.41387,0,0,1,1.39725-3.26136,4.557,4.557,0,0,1,3.31285-1.376h14.12386a4.57624,4.57624,0,0,1,3.3178,1.376,4.42748,4.42748,0,0,1,1.39208,3.26136Z"/><path class="cls-7" d="M1034.33413,637.52834h277.59848s15.23789-2.16642,6.62527-17.97732c-8.61282-15.8109-13.25035-15.8109-2.65019-49.59912,10.60036-33.78823,29.81314-96.10027,14.57545-99.395-15.2379-3.29455-31.80069,44.58177-51.01366,46.48166s23.85051-164.67585-23.18807-166.18976c-47.03837-1.51411-66.9138,111.77582-83.47678,131.65124-16.56279,19.87543-40.69116-13.98852-58.55142,11.681s-12.88861,108.807-30.39608,100.28822C1054.59156,580.22928,1034.33413,637.52834,1034.33413,637.52834Z"/><path class="cls-8" d="M1256.28141,350.84878s-31.47452,185.31887-75.8629,286.67956"/><path class="cls-8" d="M1330.48314,470.55688s-44.39356,114.62874-97.06343,166.97146"/><path class="cls-8" d="M1124.1635,485.55905s27.767,76.27294,26.77319,151.96929"/><path class="cls-8" d="M1053.11481,604.23045s6.726,18.38715,19.64507,33.29789"/><path class="cls-8" d="M1109.36724,503.91063s7.22253,5.46117,25.14122,15.71231"/><path class="cls-8" d="M1101.901,536.16765s18.18085,28.32069,45.78185,49.5222"/><path class="cls-8" d="M1178.53292,472.58238s-3.60122,80.22676,16.4503,127.64019"/><path class="cls-8" d="M1207.44332,398.862s-2.843,86.697,11.9819,120.7609"/><path class="cls-8" d="M1275.24734,476.8556s-29.19064,59.63-68.46925,87.29685"/><path class="cls-8" d="M1279.22879,410.12525s-23.93578,23.69091-43.071,40.913"/><line class="cls-8" x1="1233.41971" y1="359.96067" x2="1244.95361" y2="410.12525"/><path class="cls-8" d="M1333.34579,506.5308s-14.81812,17.54563-32.52792,29.63685"/><path class="cls-8" d="M1315.90769,569.9519s-35.38243,33.5515-64.40095,46.9223"/><line class="cls-9" x1="1339.89634" y1="637.52834" x2="1009.07842" y2="637.52834"/><path class="cls-10" d="M160.71513,463.20028V439.14485l-15.1739.81151a42.66742,42.66742,0,0,0-4.20246-10.16787l11.2968-10.15-17.00979-17.00959-10.15,11.2968a42.67514,42.67514,0,0,0-10.16767-4.20266l.81171-15.17389H92.06442l.81171,15.17389a42.6795,42.6795,0,0,0-10.16827,4.20266l-10.14978-11.2968L55.54849,419.63851l11.2966,10.14979a42.662,42.662,0,0,0-4.20246,10.16806l-15.1739-.81151v24.05543l15.1739-.81152a42.67049,42.67049,0,0,0,4.20246,10.16787l-11.2966,10.14979L72.55808,499.716l10.14978-11.2968a42.67085,42.67085,0,0,0,10.16827,4.20266L92.06442,507.796h24.05542l-.81171-15.17409a42.67468,42.67468,0,0,0,10.16827-4.20266l10.14938,11.2968,17.00979-17.00959-11.2968-10.14979a42.68214,42.68214,0,0,0,4.20246-10.16787Zm-56.6235,8.98488a21.0126,21.0126,0,1,1,21.0127-21.0125A21.01277,21.01277,0,0,1,104.09163,472.18516Z"/><path class="cls-10" d="M290.94148,237.21905V209.7852l-17.30493.9254a48.66179,48.66179,0,0,0-4.79276-11.59592L281.72724,187.539l-19.39881-19.39861L250.753,181.02407a48.66609,48.66609,0,0,0-11.59593-4.79316l.92579-17.30494H212.649l.9256,17.30494a48.66193,48.66193,0,0,0-11.59632,4.79316l-11.57544-12.88365L171.00422,187.539l12.88325,11.57545a48.65643,48.65643,0,0,0-4.79276,11.59612l-17.30493-.9254v27.43385l17.30493-.9256a48.66162,48.66162,0,0,0,4.79276,11.59592l-12.88325,11.57545,19.39862,19.39862L201.97828,265.98a48.66182,48.66182,0,0,0,11.59632,4.793l-.9256,17.30513h27.43385l-.92579-17.30513a48.6654,48.6654,0,0,0,11.59631-4.793l11.57506,12.88345,19.39881-19.39862-12.88345-11.57545a48.67569,48.67569,0,0,0,4.79276-11.59592Zm-64.57605,10.24678a23.9638,23.9638,0,1,1,23.9638-23.9638A23.96422,23.96422,0,0,1,226.36543,247.46583Z"/><path class="cls-11" d="M379.90722,637.04644H956.29456s-29.81314-43.77284-73.53907-55.15927c-43.72594-11.38664-56.67955,7.45527-81.50654-34.26325s-47.68373-67.45282-77.49687-68.49847-78.86509,30.83016-134.22193-3.39512c-64.86365-40.10265-117.53353-5.12349-120.51484,47.43111S366.98819,558.50174,379.90722,637.04644Z"/><path class="cls-12" d="M749.75531,635.04644s11.09227-31.53037,21.48055-29.27113c10.38829,2.25943,17.32821,17.675,29.3892,5.37849,12.0612-12.29633,6.08446-55.2046,27.78068-58.85114,21.69621-3.64674,9.55133,48.0711,23.73861,39.35056,17.45659-10.73054,35.66089-67.68318,57.70432-62.43925,22.04344,5.24413,21.58114,105.83247,21.58114,105.83247Z"/><polygon class="cls-2" points="683.087 564.999 767.226 399.605 815.937 417.212 873.114 290.145 930.358 311.346 1004.984 137.767 1036.207 149.03 1036.207 54.953 946.768 120.542 976.788 129.817 901.755 241.782 836.128 209.318 750.001 331.568 679.112 296.297 517.654 564.999 683.087 564.999"/><path class="cls-7" d="M328.96372,636.6761s-23.89841-89.48354-6.10076-92.10829,15.77076,18.84508,32.96141,17.88371c17.19065-.96158-10.48965-156.54283,30.34142-163.05621,40.83108-6.51358,65.23752,148.82441,85.712,133.00953,20.47447-15.81468,63.90983-101.78444,69.88,103.53189Z"/><path class="cls-13" d="M386.16579,399.39531s8.34748,137.65144,42.85043,237.28079"/><path class="cls-13" d="M399.15955,402.75108s-3.53624,27.17666-8.92824,41.86758"/><path class="cls-13" d="M364.51331,439.79291S367.63573,452.58,395.638,487.74"/><path class="cls-13" d="M433.961,462.41691s-5.64124,92.81526-21.09418,117.965"/><path class="cls-13" d="M322.863,544.56781s12.57022,39.9023,57.2128,92.10829"/><path class="cls-13" d="M362.12985,500.28s16.64049,60.76514,59.7334,113.99531"/><path class="cls-13" d="M343.06017,557.09549a275.39543,275.39543,0,0,1,5.4242,37.36063"/><path class="cls-13" d="M319.378,592.429s20.418,14.41266,49.40652,30.46366"/><path class="cls-14" d="M349.58124,354.25718H688.451a15.7373,15.7373,0,0,1,15.7373,15.7373V535.40465a15.73771,15.73771,0,0,1-15.73771,15.73771H349.58034a15.7368,15.7368,0,0,1-15.7368-15.7368V369.99488A15.7377,15.7377,0,0,1,349.58124,354.25718Z" transform="translate(971.71569 -66.31616) rotate(90)"/><path class="cls-15" d="M364.93251,354.25718H703.80278a15.7377,15.7377,0,0,1,15.7377,15.7377V535.40465a15.7377,15.7377,0,0,1-15.7377,15.7377H364.93251a15.7368,15.7368,0,0,1-15.7368-15.7368V369.994A15.7368,15.7368,0,0,1,364.93251,354.25718Z" transform="translate(987.06786 -81.66833) rotate(90)"/><path class="cls-16" d="M601.53133,277.02306H570.30108a3.77486,3.77486,0,0,0-3.60561,2.65675l-1.44335,4.65363a6.184,6.184,0,0,1-5.90658,4.35232H509.39005a6.18416,6.18416,0,0,1-5.90658-4.35232l-1.44335-4.65363a3.77485,3.77485,0,0,0-3.60559-2.65675H467.20446a21.78281,21.78281,0,0,0-21.78287,21.78287V606.5938a21.7828,21.7828,0,0,0,21.78287,21.78287H601.53133A21.78293,21.78293,0,0,0,623.3142,606.5938V298.80593A21.78294,21.78294,0,0,0,601.53133,277.02306Z"/><path class="cls-16" d="M548.2163,281.29628H520.51949a1.50358,1.50358,0,0,1-1.50357-1.50358h0a1.50358,1.50358,0,0,1,1.50357-1.50357H548.2163a1.50341,1.50341,0,0,1,1.50337,1.50357h0A1.50341,1.50341,0,0,1,548.2163,281.29628Z"/><line class="cls-17" x1="427.37908" y1="329.88434" x2="427.37908" y2="375.78187"/><line class="cls-17" x1="427.37908" y1="390.10509" x2="427.37908" y2="411.55028"/><polygon class="cls-15" points="856.997 623.608 893.28 416.009 1161.161 416.009 1124.878 623.608 856.997 623.608"/><polygon class="cls-16" points="1117.533 614.841 867.464 614.841 900.625 424.777 1150.694 424.777 1117.533 614.841"/><rect class="cls-14" x="679.77472" y="623.60796" width="446.16296" height="14.96878"/><rect class="cls-15" x="679.77472" y="623.60796" width="204.96075" height="14.96878"/><line class="cls-18" x1="1125.93768" y1="623.60796" x2="679.77472" y2="623.60796"/><path class="cls-19" d="M1058.3509,570.83453s2.81575,7.78461,1.822,11.59413c-.99378,3.80932-3.97509,7.122-4.14085,12.75327-.16556,5.6315.378,15.56921,2.17656,15.90034,1.79852.33132.567-7.45329,2.17656-8.11574s7.07525,11.44626,7.07525,11.44626h16.23166s-5.6313-34.96544-6.45951-40.92807S1058.3509,570.83453,1058.3509,570.83453Z"/><path class="cls-19" d="M782.57937,477.42s-26.16938-2.15311-32.79446-3.80933c-6.62507-1.65642-24.01607,3.80933-24.01607,3.80933l29.14155,23.9962a48.06292,48.06292,0,0,1,15.24683-5.92328,57.55789,57.55789,0,0,1,13.41592-.84749Z"/><path class="cls-19" d="M894.68452,327.47842c-.32576,6.57857-2.09209,22.98037-1.07725,30.58391s4.99211,12.91982,12.91088,11.69092c7.919-1.22889,14.964,32.22622,14.964,32.22622l17.02131,2.54346,12.29852-18.6672-11.5041-20.47765s8.33337-22.60532,3.983-35.871c-4.35014-13.26566-35.83659-23.68118-47.6414-19.3539S894.68452,327.47842,894.68452,327.47842Z"/><polygon class="cls-3" points="911.42 383.886 930.983 391.625 935.123 400.569 935.123 389.14 949.735 373.737 953.591 382.184 992.596 536.715 934.461 536.715 900.424 400.569 910.61 393.861 911.42 383.886"/><polygon class="cls-20" points="1024.517 614.413 905.802 614.413 928.001 536.715 1018.163 536.715 1024.517 614.413"/><path class="cls-21" d="M910.6103,393.86056c5.79687,15.81746,31.88336,125.79475,35.9,140.70132,4.01642,14.90657,6.33529,55.98251,6.33529,55.98251s-34.45087.66245-42.23528,0c-7.78461-.66244,2.48443-48.36347,2.1531-59.29495S891.56288,463.673,891.56288,463.673s-39.0882,34.11935-45.05083,34.782c-5.96263.66244-67.57645-1.65642-67.57645-1.65642V475.26692s51.67611-2.98131,57.30741-5.96263,39.75086-42.40084,48.03235-52.33855C892.55665,407.028,900.1757,394.27456,910.6103,393.86056Z"/><path class="cls-22" d="M879.05806,439.32559c-4.472.49689-9.19238,28.81937-14.90657,37.018A215.43357,215.43357,0,0,0,852.14435,495.493c12.58989-8.40432,39.41853-31.82,39.41853-31.82C888.99577,457.71036,883.53,438.82871,879.05806,439.32559Z"/><path class="cls-21" d="M1057.01089,575.56389h22.54053l-8.86981-49.754a167.06835,167.06835,0,0,0-17.46016-52.514c-14.75371-27.83216-37.76945-69.43282-47.20911-76.70245-6.22458-4.79376-34.28511-15.40346-52.42143-14.40969,0,0,20.62075,126.70584,23.60206,146.58127s15.40346,59.12939,15.40346,59.12939h41.66306l-9.74231-57.03035-11.05155-53.27826,23.5321,31.62935Z"/><path class="cls-22" d="M1013.46563,477.58579s-14.16124-19.627-17.391-30.55847-4.96886-26.0865-3.4782-30.31-3.4782-5.96263-5.71419,12.17369-2.236,34.28511,8.6955,52.173,3.22976,28.32248,11.92526,44.22282,19.8468,22.15872,19.8468,22.15872Z"/><path d="M880.42072,308.22907c5.68219-12.36907,19.28453-4.98177,34.31194-3.20392,15.02721,1.77766,29.04078,3.69087,33.90867,14.3916s-1.16709,32.48758-9.34344,45.96133c0,0-6.60222-8.2336-6.67059-13.89968-.06837-5.66629,6.66741-9.317,3.87313-14.7911-2.79449-5.47429-6.80416-2.01556-7.69378.33888s-1.41869,4.83271-2.44408,3.59387c-1.02518-1.239.87789-6.30846.314-10.53258s-2.60348-10.48707-12.04312-9.05525a61.90693,61.90693,0,0,1-19.3529-.68451l-.59606,7.13071S874.02443,322.153,880.42072,308.22907Z"/><path class="cls-5" d="M69.16476,98.344H292.58024c35.3081,0,49.91852-4.43958,31.65559-17.12447s-23.74179-13.31912-29.82924-26.004c-6.08764-12.68469-20.08927-20.93-39.56958-18.39291-19.48031,2.53689-32.63744,9.51357-47.67-5.70823C192.13461,15.89256,178.133-7.57436,141.6073,6.379c-38.07156,14.54384-39.90766,49.47073-70.61639,56.4474C40.28238,69.80306,6.46217,98.344,69.16476,98.344Z"/><path class="cls-15" d="M643.72805,387.0884s13.34695-2.33377,18.52211-17.74856,19.26306-31.51527,43.98869-29.21528c24.72582,2.30018,37.23144,20.32521,33.85381,46.96384-3.37783,26.63864-26.19919,30.63439-43.108,30.3615-16.909-.27289-28.52064-17.811-35.79643-23.56112C653.91222,388.13862,643.72805,387.0884,643.72805,387.0884Z"/><path class="cls-20" d="M721.47535,382.73469v-8.10281l-5.11136.27328a14.36375,14.36375,0,0,0-1.41553-3.42493l3.80535-3.41917-5.72969-5.72969-3.419,3.80535a14.37384,14.37384,0,0,0-3.42513-1.41553l.27348-5.11136h-8.103l.27349,5.11136a14.37384,14.37384,0,0,0-3.42513,1.41553l-3.419-3.80535-5.72969,5.72969,3.80535,3.419a14.374,14.374,0,0,0-1.41573,3.42513l-5.11116-.27328v8.10281l5.11116-.27329a14.374,14.374,0,0,0,1.41573,3.42513l-3.80535,3.419,5.72969,5.72948,3.419-3.80534a14.3657,14.3657,0,0,0,3.42513,1.41572l-.27349,5.11137h8.103l-.27348-5.11137a14.371,14.371,0,0,0,3.42533-1.41572l3.41877,3.80534,5.72969-5.72948-3.80535-3.419a14.36844,14.36844,0,0,0,1.41553-3.42513Zm-19.07345,3.02663a7.078,7.078,0,1,1,7.078-7.078A7.07816,7.07816,0,0,1,702.4019,385.76132Z"/><rect class="cls-6" x="835.65262" y="100.3095" width="60.47595" height="80.23928"/><line class="cls-23" x1="842.50387" y1="114.42801" x2="854.36195" y2="114.42801"/><line class="cls-23" x1="842.50387" y1="126.26561" x2="887.03755" y2="126.26561"/><line class="cls-23" x1="842.50387" y1="138.10322" x2="887.03755" y2="138.10322"/><line class="cls-23" x1="842.50387" y1="149.94082" x2="887.03755" y2="149.94082"/><line class="cls-23" x1="842.50387" y1="161.77843" x2="887.03755" y2="161.77843"/><path class="cls-15" d="M765.79934,268.49273c8.11832-7.66754,90.3835-3.18762,96.08675,1.61508,5.70305,4.80249,1.84643,37.787,2.007,50.11548.094,7.21637,6.79064,21.62427,15.29893,22.52482-9.80178,5.10282-25.41055,1.5008-33.21484-3.00178-7.80428-4.50238-10.30938-3.572-25.11578-3.572h-48.125c-9.73856,0-12.607-9.63521-12.607-24.34342S760.3962,273.59554,765.79934,268.49273Z"/><path class="cls-24" d="M819.055,282.52a16.54316,16.54316,0,0,1,4.69377,1.5312,13.93645,13.93645,0,0,1,3.38559,2.39221,10.172,10.172,0,0,1,2.07339,2.82131,8.01587,8.01587,0,0,1,.81887,2.76806,1.18127,1.18127,0,0,1-.40864,1.04743,1.57845,1.57845,0,0,1-1.06552.40307h-3.82085a2.29431,2.29431,0,0,1-1.39128-.349,3.59446,3.59446,0,0,1-.8461-.94031,7.06318,7.06318,0,0,0-2.48363-2.33814,9.809,9.809,0,0,0-4.94044-.99437,11.99064,11.99064,0,0,0-2.70167.29615,7.83917,7.83917,0,0,0-2.23717.85941,4.57259,4.57259,0,0,0-1.501,1.37081,3.51081,3.51081,0,0,0,.054,3.84271,4.67885,4.67885,0,0,0,1.93825,1.34338,21.33816,21.33816,0,0,0,3.43785,1.04823q2.10213.48357,5.10421,1.12793a32.18747,32.18747,0,0,1,5.53968,1.63933,12.69626,12.69626,0,0,1,3.71153,2.25765,7.609,7.609,0,0,1,2.075,3.03657,11.43254,11.43254,0,0,1,.62806,3.9234,9.48914,9.48914,0,0,1-.81887,3.92341,10.13375,10.13375,0,0,1-2.37412,3.27786,13.18047,13.18047,0,0,1-3.79382,2.41884,19.08852,19.08852,0,0,1-5.07716,1.34338v3.65489a1.38615,1.38615,0,0,1-.43568,1.0208,1.43228,1.43228,0,0,1-1.03849.42991h-4.4203a1.42547,1.42547,0,0,1-1.0369-.42991,1.38172,1.38172,0,0,1-.43726-1.0208v-3.65489a20.12006,20.12006,0,0,1-4.61289-1.26269,15.23145,15.23145,0,0,1-3.7652-2.17715,10.653,10.653,0,0,1-2.59354-2.98251,8.19711,8.19711,0,0,1-1.09077-3.73479,1.17747,1.17747,0,0,1,.40864-1.04823,1.57618,1.57618,0,0,1,1.06552-.40307H804.919a2.58441,2.58441,0,0,1,1.41831.32258,2.43414,2.43414,0,0,1,.81906.96733,10.10311,10.10311,0,0,0,.92858,1.39744,5.04161,5.04161,0,0,0,1.47237,1.23606,9.03905,9.03905,0,0,0,2.31986.88624,14.48646,14.48646,0,0,0,3.46648.34981,20.21481,20.21481,0,0,0,3.16576-.24189,9.32445,9.32445,0,0,0,2.67463-.80634,5.68444,5.68444,0,0,0,1.85577-1.39724,3.0801,3.0801,0,0,0,.709-2.069,2.60311,2.60311,0,0,0-.76322-1.93507,6.17363,6.17363,0,0,0-2.31986-1.29011,32.86864,32.86864,0,0,0-3.84808-1.0208q-2.292-.48387-5.295-1.23606a28.58013,28.58013,0,0,1-4.77507-1.532,11.26026,11.26026,0,0,1-3.38519-2.17616,8.14518,8.14518,0,0,1-1.99249-3.03657,11.89167,11.89167,0,0,1-.65511-4.16549,9.126,9.126,0,0,1,.81887-3.86955,10.88513,10.88513,0,0,1,2.266-3.19776,12.268,12.268,0,0,1,3.46648-2.36478,17.96617,17.96617,0,0,1,4.42029-1.3708v-3.6543a1.38128,1.38128,0,0,1,.43726-1.0206,1.42623,1.42623,0,0,1,1.0369-.4307h4.4203a1.433,1.433,0,0,1,1.03849.4307,1.38571,1.38571,0,0,1,.43568,1.0206Z"/><path class="cls-20" d="M586.8893,549.63421l4.61548,78.67349h-126.909s3.28938-17.54781,3.28938-31.7178a75.14859,75.14859,0,0,1,16.89412-46.95569Z"/><polygon class="cls-25" points="548.911 628.308 591.505 628.308 586.889 549.634 570.652 549.634 548.911 628.308"/><path class="cls-26" d="M626.06039,313.77909s-1.3251,17.88788.99377,21.03475c2.31887,3.14708,1.44435,5.13462-.6853,6.12839-2.12985.99377-2.13045,17.55656-7.09931,18.7159-4.96885,1.15953-9.27447-2.6009-11.09665,2.67463-1.82237,5.27554-4.141,18.029-4.141,18.029l-31.3038-2.1531,8.77818-23.18807s-5.96262-17.22543-1.98754-32.132S625.06662,298.87252,626.06039,313.77909Z"/><path class="cls-21" d="M565.27478,371.25226l52.397,7.38312a2.04074,2.04074,0,0,1,1.69159,2.52915l-3.07512,11.9507s2.65019,18.55033,1.65642,32.46313-12.25658,62.27627-15.2379,77.18284-5.30018,51.6761-12.919,52.00743-96.06449,0-111.30239,0,7.61885-15.569,15.2379-29.15069c7.61884-13.58148,16.89411-59.295,29.15049-85.46434,12.25658-26.16918,39.41973-55.48543,40.08217-61.19961S562.3515,370.84024,565.27478,371.25226Z"/><path class="cls-22" d="M560.78175,424.43711c-5.53432-6.96952-8.64145-5.23539-5.67663,6.44143s6.69146,22.11141,17.62294,29.06781c9.86795,6.27964,12.24982,43.52539,28.3366,53.09044.55015-3.93553,1.0846-7.48807,1.6421-10.27559,2.43733-12.18762,10.40817-46.73091,13.77884-66.53419C616.47507,436.22582,565.43875,430.302,560.78175,424.43711Z"/><path class="cls-26" d="M627.38548,439.32559s18.88166,25.56278,25.00985,27.35654c6.12819,1.794,67.41088,6.76281,72.71086,6.76281,5.30018,0,17.391,7.45329,22.1943,9.77215s17.391,12.919,10.93148,16.72855c-6.45951,3.80933-17.72232,3.4782-24.18183,0s-11.7595-8.11593-17.55656-8.11593-62.61872,1.44057-75.02974-2.31867c-17.22483-5.2173-43.95788-34.28511-48.31378-38.09463Z"/><path class="cls-19" d="M719.682,496.219c.49689-3.771-.24844-7.57751,5.2173-5.59s11.05571,6.58373,15.40346,7.826-.12423,6.33529-3.60243,6.33529S719.181,500.01978,719.682,496.219Z"/><path class="cls-19" d="M719.06088,476.4678s22.48368-4.1013,28.19826-3.16974c5.71439.93156,2.008,3.28342-4.472,5.2815C727.8806,483.17575,713.01538,479.49045,719.06088,476.4678Z"/><path class="cls-27" d="M593.76282,332.49518s-5.96262-5.96263-7.61884,0c-1.65642,5.96263,4.96885,10.93148,3.80932,14.24392-1.15933,3.31264-6.12819,16.23166-9.772,15.56922-3.644-.66265.99377-7.95017-3.31264-14.57545-4.30641-6.62507-9.93771-14.57524-6.29395-29.48181,3.644-14.90657,15.23789-10.93149,19.213-16.56279,3.97508-5.63151,7.28772-11.26281,22.85674-9.60659,15.569,1.65642,22.52541-7.54451,29.15069-.294,6.62507,7.25036,5.6313,20.50071-10.93149,24.14447-16.563,3.644-19.87443-1.3249-23.35322,2.65019C604.03186,322.55746,598.06923,332.16385,593.76282,332.49518Z"/><path class="cls-21" d="M557.15885,420.27818l32.46333,37.26642,41.57263-16.0659s-19.5441-29.48182-26.16918-37.432c-6.62527-7.95017-18.21921-16.0661-28.15692-14.40968C566.931,391.29325,549.04312,409.51245,557.15885,420.27818Z"/><path class="cls-28" d="M598.36915,397.49736s8.98509,6.44282,19.746,24.63241"/><line class="cls-29" x1="397.70288" y1="637.87216" x2="633.22628" y2="637.87216"/><line class="cls-29" x1="672.49435" y1="637.87216" x2="1163.52509" y2="637.87216"/></g></svg>