<svg xmlns="http://www.w3.org/2000/svg" viewBox="0 0 1528 642"><defs><style>.cls-1{fill:#f7f7f7;}.cls-2{fill:#ebebeb;}.cls-3{fill:#ededed;}.cls-4{fill:#f5f5f5;}.cls-5{fill:#fafafa;}.cls-6{fill:#e8e8e8;}.cls-7{fill:#e0e0e0;}.cls-8{fill:#fff;}.cls-9{fill:#263238;}.cls-10{fill:#ff725e;}.cls-11{fill:#ffbf9d;}.cls-12{fill:#455a64;}.cls-13{opacity:0.6;}.cls-14{opacity:0.3;}.cls-15{fill:#ff9a6c;}.cls-16{fill:#ffa648;}</style></defs><title>the-failed-rescue</title><g id="BACKGROUND"><rect class="cls-1" width="1528" height="642"/></g><g id="OBJECTS"><path class="cls-2" d="M362.45032,200.6232c.9548-6.92421-8.83287-12.62047-16.18737-13.21226-3.50715-.28237-7.1503.25305-10.47287-.90307-7.19888-2.50533-10.07448-11.79109-17.09879-14.74922-5.25165-2.21151-11.29727-.24266-16.38837,2.31544-5.09109,2.55837-10.12226,5.77795-15.81007,6.14133-4.94748.31622-10.32018-1.51564-14.6488.89748-3.22554,1.79815-4.91506,5.509-7.88809,7.69842-2.9087,2.14181-6.70266,2.59541-10.31137,2.79143s-7.345.2324-10.631,1.73459-6.00451,4.97162-5.32252,8.51514Z"/><path class="cls-3" d="M96.13388,80.48385c.70161-5.08809-6.49059-9.27377-11.89479-9.70871-2.57731-.20735-5.25432.186-7.69577-.66361-5.28995-1.84092-7.40294-8.66439-12.56464-10.83805-3.859-1.62505-8.30155-.1783-12.04253,1.70153s-7.438,4.24565-11.61758,4.51269c-3.63554.2324-7.58353-1.11375-10.76423.65948-2.37031,1.32136-3.61178,4.04816-5.79644,5.65709-2.13729,1.57388-4.9252,1.90715-7.577,2.0512s-5.39739.1707-7.81187,1.27458c-2.41476,1.10389-4.4123,3.6532-3.91115,6.25714Z"/><path class="cls-4" d="M1452.81949,463.50644c.70162-5.08808-6.49059-9.27376-11.89479-9.70871-2.57718-.20735-5.25418.186-7.69576-.66361-5.29-1.84092-7.40295-8.66426-12.56463-10.83805-3.859-1.625-8.30142-.1783-12.04255,1.70154-3.741,1.87983-7.438,4.24577-11.61758,4.51282-3.63554.23226-7.58352-1.11375-10.76422.65934-2.37016,1.32136-3.61179,4.0483-5.79645,5.65709-2.13728,1.57388-4.9252,1.90715-7.577,2.0512s-5.39726.1707-7.81188,1.27459-4.4123,3.65319-3.91114,6.25713Z"/><path class="cls-5" d="M976.2349,600.88675c.55147-3.99952-5.10217-7.28986-9.35031-7.63166-2.02584-.1631-4.13016.14618-6.04936-.52169-4.15832-1.44715-5.8194-6.81081-9.87682-8.51954-3.03349-1.27739-6.5257-.14019-9.46643,1.33748s-5.84689,3.33751-9.13236,3.54739c-2.85772.18269-5.96114-.87549-8.46143.51836-1.8633,1.03872-2.83918,3.18227-4.55644,4.44686-1.68018,1.23728-3.87177,1.49926-5.95622,1.61239a16.80228,16.80228,0,0,0-6.14078,1.00195c-1.89812.86775-3.46831,2.87178-3.07446,4.91858Z"/><path class="cls-6" d="M449.05027,399.29041c.55147-3.99966-5.10217-7.29-9.35031-7.6318-2.02584-.1631-4.13016.14618-6.04936-.52169-4.15832-1.447-5.81941-6.81081-9.87683-8.51954-3.03348-1.27739-6.52569-.14019-9.46642,1.33748s-5.8469,3.33751-9.13236,3.54739c-2.85772.18269-5.96128-.87549-8.46158.51849-1.86315,1.0386-2.839,3.18214-4.55644,4.44673-1.68,1.23728-3.87163,1.49926-5.95607,1.61252a16.80171,16.80171,0,0,0-6.14078,1.00182c-1.89811.86776-3.46844,2.87178-3.07446,4.91858Z"/><path class="cls-3" d="M1225.8588,200.01137c.55147-3.99952-5.10217-7.28986-9.35031-7.63166-2.02584-.1631-4.13015.14605-6.04936-.52169-4.15831-1.44716-5.8194-6.811-9.87682-8.51968-3.03349-1.27725-6.52569-.14005-9.46642,1.33762s-5.84688,3.33751-9.13237,3.54739c-2.85783.18256-5.96127-.87549-8.46157.51836-1.86315,1.03872-2.83915,3.18227-4.55644,4.44686-1.68,1.23714-3.87164,1.49912-5.95607,1.61239a16.80185,16.80185,0,0,0-6.14079,1.00195c-1.89811.86775-3.46844,2.87178-3.07446,4.91858Z"/><polygon class="cls-7" points="758.266 582.486 685.888 389.727 795.343 390.876 648.428 0 742.723 0 858.128 443.619 759.517 443.202 802.067 582.486 758.266 582.486"/><polygon class="cls-7" points="679.203 534.899 795.076 642 832.933 534.899 679.203 534.899"/><path class="cls-2" d="M175.604,569.87357c.786-5.69986-7.27108-10.38885-13.32511-10.876-2.88708-.2324-5.886.20828-8.62107-.74343-5.926-2.06226-8.29315-9.70618-14.07545-12.14129-4.323-1.8204-9.29972-.19975-13.49061,1.90609s-8.33238,4.75628-13.01454,5.05544c-4.07264.26024-8.49535-1.24767-12.05855.73876-2.65526,1.4802-4.04608,4.53495-6.49339,6.33722-2.39434,1.7631-5.51751,2.13648-8.48814,2.29786s-6.04629.19122-8.75119,1.42783-4.94282,4.09253-4.38147,7.00949Z"/><path class="cls-2" d="M1522.03925,57.20615c1.05836-7.67564-9.79154-13.98994-17.94415-14.64609-3.88779-.31288-7.92626.2805-11.60943-1.00115-7.98019-2.777-11.16783-13.0706-18.95447-16.34988-5.82155-2.45137-12.52341-.26891-18.16691,2.56689s-11.2208,6.40492-17.52588,6.80775c-5.48441.35046-11.44021-1.68008-16.23848.99488-3.57575,1.99337-5.44863,6.107-8.74426,8.53394-3.22434,2.3742-7.43017,2.87711-11.43047,3.09445s-8.1422.25745-11.78468,1.92274c-3.64275,1.66529-6.6562,5.51117-5.90028,9.43927Z"/><path class="cls-2" d="M1033.772,533.49384c1.09162-7.9171-10.09929-14.43008-18.50843-15.10662-4.01017-.32288-8.17556.2893-11.9746-1.03273-8.23109-2.86432-11.519-13.4817-19.55051-16.864-6.00452-2.52852-12.91724-.27757-18.73839,2.64751s-11.57355,6.6064-18.07708,7.022c-5.65685.36139-11.79977-1.73312-16.74912,1.02593-3.68785,2.056-5.61988,6.299-9.01932,8.80231-3.32551,2.4491-7.6636,2.96773-11.78975,3.19173s-8.39805.26571-12.1553,1.98338c-3.75727,1.71752-6.8655,5.6844-6.08568,9.736Z"/><path class="cls-8" d="M657.31605,460.13482c1.23841-8.98074-11.45636-16.36868-20.99512-17.13623-4.54883-.36619-9.274.32807-13.58337-1.17145-9.337-3.24929-13.0666-15.293-22.17721-19.12972-6.81143-2.86832-14.65267-.31475-21.25591,3.00317-6.60309,3.31819-13.12852,7.494-20.50571,7.96533-6.41692.41-13.3853-1.96578-18.99944,1.164-4.18368,2.33223-6.375,7.14528-10.231,9.985-3.77247,2.778-8.69339,3.36629-13.374,3.62055s-9.52648.30129-13.78837,2.24974-7.78785,6.44809-6.90339,11.04407Z"/><path class="cls-9" d="M657.31605,460.13482s-.26252.01972-.79744.03331c-.56028.01146-1.35372.02772-2.3878.04877-2.13448.03265-5.243.08036-9.24861.14165-8.08935.10421-19.78434.25465-34.30329.44161-29.15053.32288-69.63531.77142-115.07291,1.27472l-.28748.0032-.05605-.2837A9.41882,9.41882,0,0,1,497.229,454.343a14.02714,14.02714,0,0,1,6.6067-4.6017c5.97742-2.03428,12.2203-1.17345,18.015-2.24642a17.218,17.218,0,0,0,7.95668-3.305c2.25193-1.79948,3.90741-4.22632,5.88026-6.36853a17.03557,17.03557,0,0,1,3.29748-2.89044,12.71163,12.71163,0,0,1,4.04007-1.66543,29.54365,29.54365,0,0,1,8.48907-.20348,43.928,43.928,0,0,0,8.17183.19216,28.593,28.593,0,0,0,7.68349-2.017c4.90144-1.96085,9.30706-4.71856,13.90982-6.8168,4.58073-2.07372,9.45481-3.54632,14.27444-3.19333a16.2056,16.2056,0,0,1,6.73055,2.00976,23.62323,23.62323,0,0,1,5.261,4.23845c3.057,3.18027,5.47466,6.64557,8.30863,9.45179a17.23212,17.23212,0,0,0,9.71773,5.36806c3.54492.55447,6.978.24439,10.17565.47079a28.2063,28.2063,0,0,1,8.66964,2.046,30.31036,30.31036,0,0,1,6.5664,3.60042,20.13066,20.13066,0,0,1,4.24814,4.20181q.36357.54067.69948,1.04045c.19806.34793.35341.70146.51985,1.02794a9.9574,9.9574,0,0,1,.68572,1.8665,8.28421,8.28421,0,0,1,.25278,2.684c-.04284.61177-.0734.90174-.0734.90174s-.00347-.32914.00681-.92613a8.84571,8.84571,0,0,0-.32165-2.62406,9.97905,9.97905,0,0,0-.70709-1.82746c-.16923-.31941-.32645-.66495-.52625-1.00488q-.33772-.48831-.70335-1.01674a20.11,20.11,0,0,0-4.24093-4.10519,30.26656,30.26656,0,0,0-6.52863-3.511,27.96984,27.96984,0,0,0-8.57181-1.96618c-3.16309-.20828-6.59523.12459-10.2217-.42216a17.68737,17.68737,0,0,1-9.9936-5.45573c-2.88468-2.83727-5.32052-6.30164-8.34747-9.42715a23.11666,23.11666,0,0,0-5.14835-4.12638,15.64553,15.64553,0,0,0-6.50193-1.92087c-4.66588-.33181-9.45174,1.11241-13.97762,3.17494-4.54549,2.08118-8.95806,4.85635-13.92476,6.85491a29.21019,29.21019,0,0,1-7.853,2.07172,44.44169,44.44169,0,0,1-8.29234-.17963,28.97225,28.97225,0,0,0-8.29021.19856,12.03663,12.03663,0,0,0-3.81932,1.57734,16.37961,16.37961,0,0,0-3.16282,2.78157c-1.93228,2.09424-3.597,4.5532-5.95273,6.44476a17.8951,17.8951,0,0,1-8.26446,3.44944c-5.93551,1.08483-12.15037.24572-17.90851,2.22217a13.3287,13.3287,0,0,0-6.28652,4.371,8.73082,8.73082,0,0,0-1.93549,6.89622l-.34313-.28023c45.34778-.39124,85.75261-.73984,114.84562-.99089,14.55044-.09941,26.2708-.17963,34.37776-.23506,4.0374-.018,7.17045-.03185,9.32188-.04131,1.05236.00053,1.85981.00093,2.42984.0012C657.02376,460.12069,657.31605,460.13482,657.31605,460.13482Z"/><path class="cls-2" d="M1033.78016,269.53142c.97188-7.04854-8.99156-12.847-16.47805-13.44959-3.57015-.28729-7.27868.25759-10.66092-.91932-7.32819-2.55011-10.25546-12.00271-17.40589-15.014-5.346-2.25121-11.50027-.24705-16.68279,2.357-5.18251,2.60434-10.3039,5.88176-16.09395,6.25167-5.03622.32181-10.50543-1.543-14.91186.9136-3.28346,1.83039-5.0034,5.60791-8.02981,7.83661-2.96076,2.18032-6.82306,2.642-10.4965,2.84167s-7.477.23639-10.82188,1.76563c-3.34513,1.52924-6.11234,5.0609-5.41821,8.668Z"/><path class="cls-9" d="M1033.78016,269.53129s-.20286.019-.62113.03158c-.44751.01053-1.06851.02505-1.86954.04371-1.68379.02838-4.12.06929-7.25095.12206-6.35793.087-15.53113.21281-26.91489.36872-22.89457.26131-54.67367.6239-90.33975,1.031l-.28748.00333-.056-.28383a7.46616,7.46616,0,0,1,1.636-5.908,11.0845,11.0845,0,0,1,5.21975-3.6364c4.715-1.60293,9.61777-.92479,14.15059-1.76563a13.4409,13.4409,0,0,0,6.21167-2.57849,44.98859,44.98859,0,0,0,4.6074-4.99014,13.443,13.443,0,0,1,2.60254-2.28027,10.04966,10.04966,0,0,1,3.19458-1.31656,23.24115,23.24115,0,0,1,6.68412-.16017,34.43386,34.43386,0,0,0,6.40063.152,22.3708,22.3708,0,0,0,6.01212-1.57721c3.84-1.53483,7.297-3.6973,10.91557-5.34593,3.60111-1.62878,7.436-2.78757,11.23534-2.50827a12.781,12.781,0,0,1,5.30719,1.58681,18.59706,18.59706,0,0,1,4.14109,3.33871c2.40247,2.502,4.29818,5.22174,6.51688,7.42085a13.47615,13.47615,0,0,0,7.59727,4.2038c2.7735.436,5.468.195,7.98137.37459a22.16,22.16,0,0,1,6.815,1.61452,23.79938,23.79938,0,0,1,5.1577,2.8354,15.798,15.798,0,0,1,3.335,3.3082,9.22464,9.22464,0,0,1,1.49172,3.09752,6.44944,6.44944,0,0,1,.191,2.113c-.0371.48172-.06473.70506-.06473.70506s-.0064-.26252-.00186-.72944a7.01547,7.01547,0,0,0-.25986-2.05293,9.24671,9.24671,0,0,0-1.52348-3.01184,15.78277,15.78277,0,0,0-3.32764-3.21172,23.74927,23.74927,0,0,0-5.11993-2.74585,21.92789,21.92789,0,0,0-6.71707-1.53457c-2.47882-.16151-5.17251.10207-8.02756-.32621a13.93219,13.93219,0,0,1-7.87313-4.29122c-2.26955-2.23029-4.18313-4.9491-6.55573-7.39647a18.09051,18.09051,0,0,0-4.02859-3.22637,12.21765,12.21765,0,0,0-5.07854-1.49806c-3.64542-.25825-7.392.87216-10.9384,2.48988-3.5612,1.63157-7.02522,3.8115-10.93036,5.38418a22.99425,22.99425,0,0,1-6.18177,1.63184,34.93759,34.93759,0,0,1-6.52116-.13965,22.68021,22.68021,0,0,0-6.48525.15537,9.37379,9.37379,0,0,0-2.97383,1.22848,12.78883,12.78883,0,0,0-2.468,2.17153,44.93127,44.93127,0,0,1-4.67976,5.06623,14.11761,14.11761,0,0,1-6.51942,2.72281c-4.67376.85283-9.5485.19655-14.04408,1.74151a10.386,10.386,0,0,0-4.89958,3.40587,6.77815,6.77815,0,0,0-1.50493,5.35273l-.34314-.28023c35.57641-.2949,67.27542-.55781,90.11233-.74717,11.41539-.06862,20.614-.12392,26.98963-.1623,3.16255-.00933,5.62348-.01666,7.32407-.02159.81908.00267,1.45422.0048,1.9116.00627C1033.54754,269.51663,1033.78016,269.53129,1033.78016,269.53129Z"/><path class="cls-8" d="M959.42145,120.57736c.53092-4.42568-4.91118-8.06634-9.00023-8.44466-1.95-.18042-3.97561.16178-5.823-.57726-4.0027-1.60119-5.60146-7.53625-9.507-9.427-2.91991-1.41344-6.28145-.15511-9.11207,1.47993s-5.628,3.693-8.79044,3.92531c-2.75081.20214-5.73812-.96877-8.14486.57366-1.79335,1.14919-2.7328,3.52114-4.38588,4.92045a9.466,9.466,0,0,1-5.73318,1.78415c-2.00649.12526-4.08385.14845-5.91083,1.10869a5.47389,5.47389,0,0,0-2.9594,5.44241Z"/><path class="cls-9" d="M959.42145,120.57736a1.48466,1.48466,0,0,1-.32792.02865c-.26319.00946-.59484.02132-1.00791.03611-.94479.02265-2.25887.05423-3.9317.09434-3.49354.064-8.47773.15538-14.65481.26851-12.53341.1783-29.89593.42509-49.44044.70306l-.29669.00413-.04818-.29236c-.48113-2.917,1.8956-5.83818,4.82083-6.44769,2.70931-.69346,5.4329-.25092,7.8295-1.07537a6.18093,6.18093,0,0,0,2.99-2.07918c.80185-.95864,1.46089-2.068,2.366-3.02743a5.41427,5.41427,0,0,1,3.47952-1.766,18.51737,18.51737,0,0,1,3.74685.12206,10.559,10.559,0,0,0,3.48953-.13526,13.61622,13.61622,0,0,0,3.20419-1.2398c2.03785-1.05325,3.88659-2.393,5.92511-3.33711a9.86279,9.86279,0,0,1,6.4005-1.011,9.0785,9.0785,0,0,1,4.80028,3.66958c1.17754,1.5339,2.15917,3.08979,3.33538,4.35545a8.86216,8.86216,0,0,0,1.92734,1.57414,6.076,6.076,0,0,0,2.227.71972c1.53483.20388,3.045.03278,4.45968.23586a12.013,12.013,0,0,1,6.43414,3.1279,7.13079,7.13079,0,0,1,2.27982,3.88879,4.457,4.457,0,0,1,.0399,1.1969,2.2597,2.2597,0,0,1-.04791.386,10.35509,10.35509,0,0,0-.12946-1.55656,7.1561,7.1561,0,0,0-2.3268-3.71755,11.84271,11.84271,0,0,0-6.29747-2.94041c-1.35811-.1807-2.85625.00932-4.46914-.18323a6.52245,6.52245,0,0,1-2.39755-.75,9.30988,9.30988,0,0,1-2.0572-1.645c-1.23093-1.303-2.23351-2.86792-3.40132-4.36357a8.56271,8.56271,0,0,0-4.51413-3.43919,9.30749,9.30749,0,0,0-6.00451,1.005c-1.961.91667-3.80117,2.25988-5.88747,3.35111a14.21387,14.21387,0,0,1-3.35447,1.3083,11.202,11.202,0,0,1-3.69133.1603,18.06413,18.06413,0,0,0-3.60938-.11526,4.71931,4.71931,0,0,0-3.06619,1.56575c-.83441.88255-1.48972,1.983-2.33281,2.99917a6.88634,6.88634,0,0,1-3.29854,2.29519c-2.60908.87709-5.3671.42882-7.87141,1.09149-2.67567.547-4.72874,3.19587-4.317,5.66309l-.34447-.28784c19.4547-.1639,36.73739-.30955,49.21328-.41455,6.209-.02705,11.2188-.04891,14.73035-.06423,1.70408.00186,3.04271.0032,4.005.00426.43028.00533.77581.0096,1.04995.01293A2.29711,2.29711,0,0,1,959.42145,120.57736Z"/><path class="cls-2" d="M700.70152,509.25964c.523-3.79285-4.83831-6.913-8.86676-7.23723-1.92108-.15458-3.91663.13859-5.73667-.49464-3.94331-1.37227-5.51844-6.45875-9.366-8.07914-2.87668-1.21129-6.1883-.13285-8.977,1.26846s-5.54447,3.16481-8.66,3.3639c-2.7101.17323-5.653-.83018-8.02408.49157-1.76679.985-2.69236,3.0177-4.32088,4.217a10.31962,10.31962,0,0,1-5.64817,1.529,15.93331,15.93331,0,0,0-5.82314.95011c-1.8.82285-3.28907,2.72334-2.9155,4.66434Z"/><path class="cls-9" d="M700.70152,509.2595a1.4085,1.4085,0,0,1-.324.02879c-.26131.00919-.589.02065-.99617.03491-.93585.02145-2.234.05117-3.88485.08888-3.45363.05877-8.37429.14245-14.46555.24612-12.36513.15764-29.46966.37565-48.66422.62031l-.28735.00373-.05606-.28424a4.17678,4.17678,0,0,1,.91062-3.30726,6.12567,6.12567,0,0,1,2.88255-2.00989c2.58785-.87588,5.23243-.506,7.639-.9557a7.07617,7.07617,0,0,0,3.27145-1.35414,24.20287,24.20287,0,0,0,2.4624-2.66764,5.93237,5.93237,0,0,1,3.20152-1.981,12.641,12.641,0,0,1,3.64262-.08729,18.40464,18.40464,0,0,0,3.4164.08475,11.89588,11.89588,0,0,0,3.196-.836c2.0512-.81712,3.90967-1.97684,5.87013-2.86779a12.79037,12.79037,0,0,1,6.11421-1.354,7.00488,7.00488,0,0,1,2.90857.87442,10.12269,10.12269,0,0,1,2.25446,1.8224c1.29967,1.35893,2.31559,2.82261,3.49768,3.99885a7.14663,7.14663,0,0,0,4.02445,2.24176c1.47357.23639,2.92365.11193,4.284.21281a12.82087,12.82087,0,0,1,6.47391,2.43364,6.52687,6.52687,0,0,1,2.59159,3.489,3.44954,3.44954,0,0,1,.03657,1.52457,6.45217,6.45217,0,0,0-.172-1.489,6.52937,6.52937,0,0,0-2.616-3.30673,12.68266,12.68266,0,0,0-6.33818-2.26414c-1.32582-.08275-2.77523.06436-4.33021-.1643a7.60235,7.60235,0,0,1-4.30032-2.32944c-1.23294-1.20716-2.26688-2.67-3.53652-3.9742a7.24054,7.24054,0,0,0-4.82176-2.49588,12.25378,12.25378,0,0,0-5.81741,1.33549c-1.90305.874-3.7686,2.05106-5.88506,2.906a12.51187,12.51187,0,0,1-3.36555.89081,18.93,18.93,0,0,1-3.53678-.07222,12.071,12.071,0,0,0-3.44388.08235,5.243,5.243,0,0,0-2.84611,1.78415,24.17193,24.17193,0,0,1-2.53487,2.74373,7.75288,7.75288,0,0,1-3.57922,1.49845c-2.54742.4616-5.1641.11354-7.53254.93159-2.015.6307-3.70827,2.62073-3.34192,4.53135l-.34327-.28024c19.10489-.13272,36.12947-.25092,48.43679-.33647,6.12264-.01666,11.06892-.03011,14.5403-.03971l3.958.01159c.42441.00613.76608.01106,1.03834.01493A2.25626,2.25626,0,0,1,700.70152,509.2595Z"/><path class="cls-4" d="M730.769,117.87854c1.14925-8.33472-10.63222-15.1911-19.48472-15.90348-4.22158-.33981-8.60677.30448-12.60614-1.0871-8.66525-3.01557-12.12662-14.19289-20.58179-17.7536-6.32123-2.66191-13.59845-.2921-19.72655,2.78717s-12.184,6.95486-19.03054,7.39233c-5.95514.38058-12.42223-1.82439-17.63252,1.0803-3.88271,2.16434-5.91643,6.63118-9.495,9.26657-3.50114,2.57809-8.068,3.124-12.41182,3.36s-8.84115.27957-12.79634,2.08784c-3.95545,1.80814-7.22771,5.98423-6.40691,10.24959Z"/><path class="cls-9" d="M730.769,117.8784s-.2425.01946-.73858.03279c-.52265.01119-1.25763.02678-2.21443.047-1.983.03119-4.86821.07663-8.58063.13513-7.51011.09847-18.36189.24065-31.83261.41722-27.05836.30235-64.63217.72211-106.80245,1.19316l-.28748.00334-.05606-.28384a8.76589,8.76589,0,0,1,1.92267-6.93527,13.04253,13.04253,0,0,1,6.14279-4.27882c5.55528-1.8901,11.35012-1.0903,16.72283-2.08572a15.954,15.954,0,0,0,7.37318-3.06207c2.08616-1.66662,3.62233-3.9177,5.45465-5.9076a15.83653,15.83653,0,0,1,3.065-2.68643,11.82538,11.82538,0,0,1,3.75739-1.54883,27.43914,27.43914,0,0,1,7.88555-.18882,40.75475,40.75475,0,0,0,7.57951.1787,26.51367,26.51367,0,0,0,7.12468-1.87c4.54643-1.81827,8.63481-4.377,12.90857-6.32483,4.25308-1.925,8.77976-3.29261,13.25813-2.9644a15.06226,15.06226,0,0,1,6.25462,1.86837,21.93965,21.93965,0,0,1,4.88649,3.93756c2.83823,2.95347,5.08136,6.16946,7.70951,8.77273a15.97622,15.97622,0,0,0,9.00865,4.97868c3.28708.5149,6.4731.22787,9.44186.43868a26.18323,26.18323,0,0,1,8.04958,1.90169,28.13389,28.13389,0,0,1,6.09541,3.3447,18.67867,18.67867,0,0,1,3.94264,3.90292,10.9091,10.9091,0,0,1,1.76693,3.65492,7.66955,7.66955,0,0,1,.23208,2.49307c-.04084.5682-.07047.83591-.07047.83591s-.0044-.30688.00388-.86042a8.235,8.235,0,0,0-.301-2.433,10.93527,10.93527,0,0,0-1.79855-3.56911,18.66773,18.66773,0,0,0-3.93543-3.80643,28.09,28.09,0,0,0-6.05777-3.25516,25.94942,25.94942,0,0,0-7.95148-1.82187c-2.93433-.19255-6.11957.11713-9.48805-.39a16.43123,16.43123,0,0,1-9.28451-5.06636c-2.679-2.63419-4.94015-5.84924-7.74835-8.74808a21.436,21.436,0,0,0-4.77385-3.82536,14.50026,14.50026,0,0,0-6.026-1.77962c-4.32462-.30715-8.76294,1.03206-12.9613,2.946-4.21637,1.93073-8.31183,4.50682-12.92352,6.36307a27.1305,27.1305,0,0,1-7.29418,1.92447,41.24633,41.24633,0,0,1-7.7-.16617,26.86834,26.86834,0,0,0-7.68669.18416,11.14489,11.14489,0,0,0-3.53665,1.46074,15.182,15.182,0,0,0-2.93045,2.57756c-1.79161,1.9418-3.337,4.225-5.527,5.9837a16.63125,16.63125,0,0,1-7.68095,3.20652c-5.51363,1.00727-11.28032.22933-16.61632,2.06146a12.34394,12.34394,0,0,0-5.8226,4.04829,8.077,8.077,0,0,0-1.79162,6.38013l-.34313-.28037c42.08046-.359,79.57433-.67894,106.575-.9092,13.50236-.08928,24.37962-.16111,31.90722-.21094,3.74418-.01493,6.65409-.02665,8.6539-.03465.975.0012,1.724.00227,2.25647.00293C730.49658,117.86415,730.769,117.8784,730.769,117.8784Z"/><path class="cls-10" d="M673.38317,248.62967l2.75709,1.26792a.46462.46462,0,0,1,.05618.81392l-2.55662,1.63371a.4653.4653,0,0,0-.1719.19709l-1.2699,2.75279a.466.466,0,0,1-.81519.0561l-1.63626-2.55264a.46557.46557,0,0,0-.1974-.17164l-2.75709-1.26792a.46463.46463,0,0,1-.05619-.81392l2.55663-1.63371a.46518.46518,0,0,0,.1719-.19709l1.2699-2.75278a.466.466,0,0,1,.8152-.0561l1.63626,2.55263A.46548.46548,0,0,0,673.38317,248.62967Z"/><path class="cls-10" d="M877.856,395.91831l2.75707,1.26792a.46462.46462,0,0,1,.05619.81392l-2.55663,1.63371a.46454.46454,0,0,0-.1719.19709l-1.26989,2.75279a.46605.46605,0,0,1-.81521.0561l-1.63626-2.55264a.46666.46666,0,0,0-.19739-.17177l-2.75708-1.26779a.46462.46462,0,0,1-.05619-.81392L873.76534,396.2a.46516.46516,0,0,0,.17189-.19709l1.26991-2.75278a.466.466,0,0,1,.81519-.0561l1.63626,2.55263A.46554.46554,0,0,0,877.856,395.91831Z"/><path class="cls-10" d="M590.00153,367.1425l2.757,1.26779a.46463.46463,0,0,1,.05632.81392l-2.55676,1.63385a.46439.46439,0,0,0-.1719.19708l-1.2699,2.75265a.46589.46589,0,0,1-.81507.05624l-1.63639-2.55277a.46472.46472,0,0,0-.19739-.17164l-2.75709-1.26792a.46452.46452,0,0,1-.05619-.81379l2.55663-1.63384a.46472.46472,0,0,0,.172-.19709l1.26977-2.75265a.466.466,0,0,1,.8152-.05623l1.63626,2.55277A.465.465,0,0,0,590.00153,367.1425Z"/><path class="cls-10" d="M656.31868,263.195l1.28979.59312a.21741.21741,0,0,1,.0263.38084l-1.19611.76422a.2178.2178,0,0,0-.08034.09221l-.59418,1.28792a.218.218,0,0,1-.38131.02625l-.76554-1.19424a.21766.21766,0,0,0-.09236-.08035l-1.28979-.59312a.2174.2174,0,0,1-.02629-.38084l1.196-.76422a.21812.21812,0,0,0,.08048-.09221l.59405-1.28792a.21807.21807,0,0,1,.38144-.02625l.76554,1.19424A.2176.2176,0,0,0,656.31868,263.195Z"/><path class="cls-10" d="M868.696,378.81873l1.28979.59311a.21741.21741,0,0,1,.0263.38085l-1.1961.76435a.21747.21747,0,0,0-.08048.09221l-.59405,1.28778a.218.218,0,0,1-.3813.02625l-.76555-1.19423a.217.217,0,0,0-.09235-.08022l-1.28993-.59325a.21735.21735,0,0,1-.02629-.38071l1.1961-.76436a.21744.21744,0,0,0,.08049-.09221l.594-1.28778a.21807.21807,0,0,1,.38144-.02625l.76555,1.1941A.21672.21672,0,0,0,868.696,378.81873Z"/><path class="cls-10" d="M816.98855,139.75905l1.28979.59325a.21729.21729,0,0,1,.0263.38071l-1.19611.76436a.21617.21617,0,0,0-.08034.09221l-.59418,1.28778a.218.218,0,0,1-.38131.02625l-.76554-1.19423a.21636.21636,0,0,0-.09236-.08022l-1.28979-.59326a.21729.21729,0,0,1-.02629-.38071l1.19611-.76435a.21632.21632,0,0,0,.08033-.09221l.59418-1.28778a.218.218,0,0,1,.38131-.02625l.76554,1.19423A.2173.2173,0,0,0,816.98855,139.75905Z"/><path class="cls-9" d="M576.3828,204.99643c.19192,0,.34754,19.52163.34754,43.59712,0,24.084-.15562,43.60139-.34754,43.60139s-.34754-19.51736-.34754-43.60139C576.03526,224.51806,576.19088,204.99643,576.3828,204.99643Z"/><path class="cls-9" d="M769.67806,419.20147c.192,0,.34754,36.44624.34754,81.39471,0,44.96406-.15549,81.40257-.34754,81.40257-.19179,0-.34741-36.43851-.34741-81.40257C769.33065,455.64771,769.48627,419.20147,769.67806,419.20147Z"/><path class="cls-9" d="M929.15783,328.32458c.19192,0,.34754,22.66778.34754,50.62354,0,27.96548-.15562,50.62847-.34754,50.62847s-.34754-22.663-.34754-50.62847C928.81029,350.99236,928.96591,328.32458,929.15783,328.32458Z"/><path class="cls-9" d="M769.67819,180.17177c-.19206,0-.34754-37.83583-.34754-84.49769,0-46.67812.15548-84.50569.34754-84.50569.19179,0,.34741,37.82757.34741,84.50569C770.0256,142.33594,769.87,180.17177,769.67819,180.17177Z"/><path class="cls-9" d="M784.816,235.46018c.00053-.02172.03776.07849.05925.02252a1.32134,1.32134,0,0,0,.05966-.32421c.03176-.29649.05806-.74183.08275-1.32615.04884-1.169.08862-2.89564.122-5.1198.06687-4.44833.10717-10.887.12853-18.84323-.01161-15.95052-.0275-37.91485-.0451-62.17571-.05233-24.26978-.09971-46.23677-.134-62.18783.00334-7.92442.00614-14.35159.00814-18.84562.01482-2.191.02643-3.90865.03457-5.12394.01094-.55594.01975-.99608.02629-1.33268a.22837.22837,0,1,1,.07114-.0004c.01067.33647.02482.77648.0427,1.33215.02269,1.21516.05472,2.93268.0957,5.12327.05085,4.49376.12345,10.92066.21287,18.84482.14294,15.91348.28189,37.89953.33753,62.18877.05472,24.2807.01,46.26582-.15841,62.18037-.08423,7.95734-.1994,14.397-.34942,18.84656-.07514,2.22469-.15855,3.952-.25278,5.12179-.04724.58473-.09676,1.03033-.15215,1.328a1.03578,1.03578,0,0,1-.1.33313C784.79385,235.57172,784.81974,235.43047,784.816,235.46018Z"/><path class="cls-9" d="M748.05232,429.95623c.19192,0,.34754,16.00089.34754,35.73427,0,19.7403-.15562,35.73772-.34754,35.73772s-.34754-15.99742-.34754-35.73772C747.70478,445.95712,747.86053,429.95623,748.05232,429.95623Z"/><path class="cls-9" d="M910.70732,295.755c.19192,0,.34754,16.00089.34754,35.73426,0,19.74031-.15562,35.73773-.34754,35.73773s-.34754-15.99742-.34754-35.73773C910.35978,311.75588,910.5154,295.755,910.70732,295.755Z"/><path class="cls-9" d="M562.52289,262.045c.19206,0,.34768,16.00089.34768,35.73439,0,19.74031-.15562,35.7376-.34768,35.7376-.19178,0-.3474-15.99729-.3474-35.7376C562.17549,278.0459,562.33111,262.045,562.52289,262.045Z"/><path class="cls-11" d="M737.1122,154.79691s-13.08516,10.1186-13.5093,13.15176,2.32107,35.65324,2.32107,35.65324l-1.58822,25.10729,16.27078-1.72578-3.8-24.60466a60.03894,60.03894,0,0,0,3.359-9.12678c1.10268-4.33959.08768-11.03061.98963-12.98866s1.48731-10.4-.1328-10.16271-3.9357.48385-4.56631,5.46613-2.704,7.17193-3.51356,6.74991-2.53981-8.61748-1.64921-11.4405,8.27861-5.29823,7.30325-8.962l-3.47205.47772S740.16864,158.001,737.1122,154.79691Z"/><path class="cls-10" d="M735.14881,162.45642A21.8225,21.8225,0,0,1,732.3,163.86013c-1.70046.84324-4.1758,2.2764-5.21041,5.03012a14.46483,14.46483,0,0,0-.45124,7.38687,18.58255,18.58255,0,0,1,.43229,3.14656,11.91637,11.91637,0,0,1-.916-3.05914,13.53294,13.53294,0,0,1,.28828-7.72894,8.22228,8.22228,0,0,1,2.59973-3.47889,13.314,13.314,0,0,1,3.05177-1.74232A10.95353,10.95353,0,0,1,735.14881,162.45642Z"/><path class="cls-12" d="M842.82759,146.29616l10.89755-26.62107s-22.77232-19.79228-21.22641-24.90395L883.679,113.61783l-15.31733,42.16144Z"/><path class="cls-7" d="M868.71361,127.77181a2.28567,2.28567,0,0,0,2.34589-1.90808,2.138,2.138,0,0,0-1.80336-2.35276,2.41107,2.41107,0,0,0-2.47348,2.03361c-.02548,1.11641,1.0573,2.3942,2.14556,2.23163"/><g class="cls-13"><path class="cls-8" d="M883.679,113.6177l-1.70674,4.19088L833.53961,98.17142s-1.90426-1.85318-1.04088-3.40028Z"/></g><path class="cls-9" d="M852.79744,119.63617c.10236-.25265,1.395.09155,2.92778-.27783,1.542-.32861,2.58452-1.2029,2.77725-1.01661.2118.13446-.7247,1.52551-2.588,1.93967C854.05506,120.71234,852.6565,119.851,852.79744,119.63617Z"/><path class="cls-9" d="M848.26729,115.388c.03417-.26865,1.27712-.30516,2.52486-1.07391,1.26924-.7317,1.91493-1.82213,2.16-1.71939.24944.04624-.13026,1.60746-1.69912,2.53345C849.69256,116.06826,848.18294,115.63385,848.26729,115.388Z"/><path class="cls-9" d="M847.64362,107.69237c.247.02919.12358,1.43463-1.03488,2.59861-1.15059,1.17225-2.5326,1.29071-2.56,1.03873-.06353-.26225.97241-.73411,1.90933-1.70434C846.91664,108.67793,847.386,107.626,847.64362,107.69237Z"/><path class="cls-9" d="M850.97114,125.97286c.1907-.19428,1.20743.58073,2.656,1.00248,1.4402.45227,2.71825.37192,2.76763.63909.07635.23826-1.346.78954-3.04536.268C851.647,127.374,850.77453,126.12877,850.97114,125.97286Z"/><path class="cls-12" d="M877.65859,199.04472l24.34412-15.37153s-7.04872-29.31149-2.81941-32.57971l30.73714,44.9959-36.97362,25.46948Z"/><path class="cls-7" d="M909.50683,198.95a2.2891,2.2891,0,0,0,3.01933-.19548,2.13492,2.13492,0,0,0-.10182-2.96093,2.41493,2.41493,0,0,0-3.19632.22373,2.20214,2.20214,0,0,0,.451,3.06047"/><g class="cls-13"><path class="cls-8" d="M929.92044,196.08925l-3.82519,2.425L898.05553,154.466s-.47446-2.61247,1.12777-3.37256Z"/></g><path class="cls-9" d="M901.26973,183.10419c.23022-.14658,1.08292.88255,2.54608,1.46954,1.447.6255,2.80421.5173,2.85291.78061.09436.23226-1.47664.82285-3.235.08088C901.66878,184.70912,901.03016,183.19747,901.26973,183.10419Z"/><path class="cls-9" d="M900.04814,177.02c.18391-.19908,1.21745.49118,2.68048.58779,1.459.13912,2.61855-.37511,2.7583-.14951.17656.18216-1.04,1.23394-2.85586,1.0795C900.81382,178.39961,899.8366,177.1714,900.04814,177.02Z"/><path class="cls-9" d="M904.01147,170.39044c.18431.16683-.73285,1.24021-2.3527,1.51724-1.61837.28837-2.81274-.41562-2.68875-.63669.10063-.25039,1.21852-.03465,2.54555-.28237C902.84673,170.77208,903.84023,170.18722,904.01147,170.39044Z"/><path class="cls-9" d="M896.10029,187.20779c.26826-.04784.646,1.17238,1.581,2.355.91022,1.20249,1.99781,1.8773,1.8829,2.12369-.07621.23812-1.55511-.13672-2.63617-1.54577C895.83657,188.74049,895.84953,187.22084,896.10029,187.20779Z"/><path class="cls-9" d="M837.14872,309.24829l4.5794,44.93234-33.14082,3.07806-17.60542-93.86181a20.47138,20.47138,0,0,1,6.08312-18.67519c22.2992-21.03434,96.34948-58.39552,96.34948-58.39552L907.71709,211.174l-55.58082,43.751-19.36514,11.37107,4.37759,42.95217"/><path class="cls-14" d="M858.33,204.99643c-.43069.23879-7.571,25.3265-7.571,25.3265l5.077,21.68969-8.92043,7.09158-8.90988-32.44433,11.16808-17.61754Z"/><path class="cls-9" d="M806.03868,330.93971s-4.81749-5.05424-4.55964-11.578c.96013-24.28843,3.83493-83.42978,5.00047-91.1883,1.47877-9.84264,39.01348-102.89825,39.01348-102.89825l31.33439,14.46166s-13.69321,38.35766-18.66859,52.5708c-5.38151,15.37312-14.11281,37.266-14.11281,37.266s12.34923,63.87258,17.12228,83.574c4.38414,18.09513-.165,39.13974-11.99449,55.20312s-27.30994,19.656-27.30994,19.656Z"/><path class="cls-12" d="M806.03868,330.93971s.108.31835.29495.958q.28268.983.8212,2.85726c.71737,2.54051,1.7732,6.27952,3.1452,11.13868,2.73281,9.76867,6.72175,24.02818,11.76533,42.05722l-.24864-.14751c10.024-2.91616,20.31406-9.96856,27.78253-20.51345a71.52785,71.52785,0,0,0,5.14582-8.44718,73.89714,73.89714,0,0,0,4.01124-9.48138,68.78531,68.78531,0,0,0,3.73271-21.33244,64.03714,64.03714,0,0,0-.89435-11.35668c-.74-3.77592-1.73662-7.61061-2.5693-11.50965-1.72114-7.79637-3.3873-15.823-5.074-24.04312-3.364-16.442-6.77621-33.66294-10.24079-51.481l-.019-.09767.0371-.09341q4.77526-12.04675,9.50793-24.626c3.15188-8.37109,6.10715-16.95726,9.203-25.60686,4.78665-13.47584,9.49257-26.72394,14.06369-39.5928l.17964.42668q-16.11649-7.443-31.33052-14.46939l.45137-.1787c-11.52469,28.68826-22.16172,55.50415-31.246,79.72689-2.2574,6.05912-4.42738,11.95846-6.30614,17.73241a31.51061,31.51061,0,0,0-1.86275,8.68505c-.26479,2.92282-.46058,5.80487-.653,8.63174-.75367,11.31124-1.30967,21.782-1.82151,31.28647-1.00324,19.01073-1.7186,34.16758-2.18519,44.571-.05018,1.29937-.12866,2.52905-.14694,3.67438a13.89652,13.89652,0,0,0,.32031,3.178,18.14674,18.14674,0,0,0,1.80042,4.66287,21.16553,21.16553,0,0,0,1.68391,2.57263c.37463.47025.54786.68759.65183.818a15.61626,15.61626,0,0,1-2.43811-3.33325,17.99124,17.99124,0,0,1-1.86768-4.68219,14.00151,14.00151,0,0,1-.35208-3.21878c.00947-1.15639.07888-2.37874.12012-3.681.39518-10.4075,1.04436-25.568,1.989-44.58348.4826-9.50736,1.011-19.97936,1.73983-31.2982.18632-2.82981.37584-5.712.63542-8.64547a32.0613,32.0613,0,0,1,1.86822-8.80137c1.87477-5.7994,4.0346-11.70181,6.28372-17.76919,9.04962-24.24846,19.65675-51.07568,31.1649-79.77646l.13092-.32674.32085.14791q15.18039,7.00149,31.33773,14.45353l.28481.13139-.105.29583-14.05584,39.59213c-3.09368,8.64374-6.05336,17.2391-9.21057,25.61873q-4.71379,12.57463-9.52141,24.63663l.018-.19055c3.456,17.81676,6.85615,35.03947,10.204,51.48117,1.67856,8.21972,3.33591,16.24661,5.04612,24.03885.82933,3.907,1.81162,7.69735,2.55955,11.5379a64.56914,64.56914,0,0,1,.88713,11.46928A69.28108,69.28108,0,0,1,859.27962,349.54a74.34249,74.34249,0,0,1-4.06022,9.546,71.92735,71.92735,0,0,1-5.20253,8.50009c-.90262,1.3552-1.97367,2.56769-2.941,3.83122-1.08118,1.16931-2.06881,2.40192-3.20859,3.4649a53.31326,53.31326,0,0,1-6.931,5.89921,51.3619,51.3619,0,0,1-7.39974,4.46872,41.07572,41.07572,0,0,1-7.62517,2.95986l-.19418.05171-.05486-.19935c-4.95736-18.035-8.87811-32.29921-11.5642-42.07109-1.32808-4.87781-2.35-8.63108-3.04442-11.18131q-.50571-1.89229-.77076-2.88378C806.11262,331.27725,806.03868,330.93971,806.03868,330.93971Z"/><path class="cls-9" d="M648.76986,340.93266s-4.25428-8.80165-15.39794-14.14385c-4.75036-2.2772-11.59116-5.77488-11.59116-5.77488-1.38575-1.74472,13.21127-23.02825,16.75966-26.88372s2.62056-11.58815.12092-12.39421c-3.1472-1.015-8.16889,8.261-8.16889,8.261s2.56423-9.51269-2.36991-7.4022S617.3044,296.87727,615.3573,300.827s-2.38325,11.67276-2.38325,11.67276-.16056-6.0771-1.32823-5.7922c-1.99154.48571-2.49336,3.42253-2.57024,9.79279-.09876,8.18761,8.33292,27.22552,31.66832,26.76619"/><path class="cls-9" d="M652.5813,345.26585a99.54968,99.54968,0,0,1-16.82038-3.34617,34.7328,34.7328,0,0,1-14.65041-8.602c-.59991-.626-4.38561-5.31915-3.93223-6.05778.32431-.52809,4.2121,3.116,4.83057,3.06926,5.90255-.4476,11.79136,1.50512,16.89259,4.503a77.50921,77.50921,0,0,1,13.67986,10.43375"/><path class="cls-11" d="M632.68272,336.25753c-13.11491-5.83232-20.64705-18.31421-14.44434-31.24236l.64276-1.16172A25.68568,25.68568,0,0,1,651.914,292.8968c11.339,5.11807,23.802,10.9188,29.58616,14.20541,11.97339,6.80388,7.18139,19.87822,7.18139,19.87822-.01348.02785,18.20454,11.11642,18.20454,11.11642l-30.1052,19.00353Z"/><path class="cls-15" d="M688.77857,327.02134a33.24861,33.24861,0,0,1-13.31964,13.11125s11.85581,2.03827,17.42137-10.57234Z"/><path class="cls-9" d="M660.43415,302.15657a1.96276,1.96276,0,0,1,.8192,2.61647,1.8827,1.8827,0,0,1-2.53353.91493,1.96316,1.96316,0,0,1-.82134-2.61513A1.88452,1.88452,0,0,1,660.43415,302.15657Z"/><path class="cls-9" d="M655.49321,298.23167c.10637.337-1.57994,1.10629-2.59947,2.95907-1.04488,1.83572-.84362,3.71955-1.18168,3.79484-.15482.04331-.44-.39776-.54387-1.22675a5.38409,5.38409,0,0,1,.66825-3.19133,5.1831,5.1831,0,0,1,2.34936-2.20057C654.93773,298.03979,655.45063,298.071,655.49321,298.23167Z"/><path class="cls-9" d="M652.64563,318.38946a1.96292,1.96292,0,0,1,.81907,2.61647,1.88247,1.88247,0,0,1-2.53367.9148,1.96375,1.96375,0,0,1-.82093-2.6154A1.88444,1.88444,0,0,1,652.64563,318.38946Z"/><path class="cls-9" d="M646.20936,316.765c.106.3374-1.58114,1.10868-2.59973,2.95986-1.04475,1.83546-.84362,3.71942-1.18182,3.795-.15468.04251-.44083-.39577-.543-1.22688a5.38013,5.38013,0,0,1,.66744-3.1916,5.18924,5.18924,0,0,1,2.34949-2.20071C645.65322,316.57493,646.16652,316.60531,646.20936,316.765Z"/><path class="cls-9" d="M664.11975,317.98823a13.975,13.975,0,0,1,1.12069-3.30433c.21287-.49917.36635-.99821.08742-1.25606a2.7544,2.7544,0,0,0-1.57687-.4588q-2.086-.28164-4.376-.59205c-6.20311-.89108-11.198-1.81494-11.16021-2.064.03831-.24932,5.09737.27091,11.30061,1.16252q2.285.34721,4.36506.66268a3.133,3.133,0,0,1,1.99234.78008,1.353,1.353,0,0,1,.26185,1.15839,3.6559,3.6559,0,0,1-.33272.86389A13.75491,13.75491,0,0,1,664.11975,317.98823Z"/><path class="cls-9" d="M671.44982,320.52315c-.04618.34153-2.30278-.09128-4.2787,1.52644-1.9802,1.613-2.19334,4.063-2.51232,4.01964-.14747.00373-.33432-.6195-.16522-1.63837a5.7156,5.7156,0,0,1,1.96979-3.38029,4.9916,4.9916,0,0,1,3.55947-1.1352C670.9827,320.01211,671.49266,320.3719,671.44982,320.52315Z"/><path class="cls-9" d="M638.63438,312.71652c.40293.46053-.859,2.17566-1.79868,4.49057-.9863,2.29612-1.31929,4.39742-1.93015,4.4362-.28721.00879-.59217-.55807-.68814-1.5347a8.40025,8.40025,0,0,1,2.84077-6.80055C637.82092,312.6888,638.43886,312.50611,638.63438,312.71652Z"/><path class="cls-9" d="M648.91133,295.59642c.24051.55767-.90194,1.5908-1.77106,3.11177-.9221,1.49033-1.284,2.986-1.89,3.04155-.28561.01293-.59417-.424-.67866-1.21062a5.18165,5.18165,0,0,1,2.95008-4.95843C648.25389,295.27794,648.78561,295.33963,648.91133,295.59642Z"/><path class="cls-11" d="M642.15421,340.20268c-.20246.15618-7.03031,6.91835,1.35759,11.20557,8.38777,4.28682,10.96842-5.0052,10.73567-5.14272C654.01391,346.12788,642.15421,340.20268,642.15421,340.20268Z"/><path class="cls-15" d="M649.758,347.19952c-.04564.02318.02709.19828.014.5025a1.63619,1.63619,0,0,1-.53665,1.102c-.77863.71865-2.56744.74477-4.10026.01253a5.42594,5.42594,0,0,1-1.88264-1.47767,1.89274,1.89274,0,0,1-.55908-1.67062.83525.83525,0,0,1,.842-.65628c.292.00759.43242.14658.46953.10913.03323-.01252-.04832-.25131-.42935-.36125a1.05077,1.05077,0,0,0-.69468.06116,1.23852,1.23852,0,0,0-.627.69746,2.3,2.3,0,0,0,.5189,2.18859,5.57249,5.57249,0,0,0,2.07884,1.70113c1.71753.81006,3.74244.75449,4.71338-.277a1.75318,1.75318,0,0,0,.462-1.44769C649.95274,347.31811,649.78805,347.1782,649.758,347.19952Z"/><path class="cls-9" d="M635.22639,291.3597c-.0694-1.73765-6.53463.14005-9.73334,2.72547-4.83431,3.90744-10.12213,10.9216-11.13672,16.24608-1.22159,6.41024-.76368,12.47283,2.9398,17.84928a37.04769,37.04769,0,0,0,15.0572,12.175,11.26914,11.26914,0,0,0,5.74186,1.38892c2.45239-.24359,4.7565-1.91115,7.27642-.52756a3.95068,3.95068,0,0,0,3.01054.41216c2.41195-.71852,1.8155-3.37216.70482-5.01053-2.37245-3.49929-6.209-5.67548-9.90819-7.72841a27.56567,27.56567,0,0,0-8.2798-3.47476c-1.61064-.2909-3.26905-.2933-4.8614-.67254a5.66048,5.66048,0,0,1-3.90728-2.69935,5.86546,5.86546,0,0,1-.34954-1.02953,9.80029,9.80029,0,0,1,2.70651-9.53335c4.05461-3.89772,10.61968-10.734,10.06914-13.652-.79171-4.19808-1.93749-5.68041-1.93749-5.68041Z"/><path class="cls-16" d="M743.38231,254.97768s28.92537,33.69426,35.06429,43.56927-2.72839,20.09063-2.72839,20.09063l-26.66665,24.17691-32.62739-11.03261,32.62739-26.084,1.035-3.7582-19.046-25.60073Z"/><path class="cls-14" d="M741.96025,291.0167s3.43348-5.05371,4.14605-8.72529,1.946-21.83041,1.946-21.83041l-4.67-5.48332L737.144,286.707Z"/><path class="cls-14" d="M723.88477,325.81151c.19219-.15364,50.446-5.916,50.446-5.916L770.1676,323.67l-37.65642,14.59-12.94969-4.86754L721.876,327.417Z"/><path class="cls-16" d="M668.23522,366.949c.24584,2.16367,10.9045,26.56537,42.74551,32.66233s65.77422,3.85628,116.89576-13.06488c0,0,9.15986-29.17837-8.28727-55.30826s-24.86222-29.1785-27.04315-26.13-.43616,9.58105-4.36172,13.065-43.6636,11.10349-56.70324,12.19392c-15.05694,1.25913-13.08542-.871-20.06422-2.613s-27.91546.43561-31.841,3.91957S666.13184,348.43719,668.23522,366.949Z"/><path class="cls-16" d="M669.08993,351.50779s2.40674-16.75671,16.8416-37.68552c6.90526-10.01187,11.1514-15.242,16.45456-23.51595l9.35645-14.174,7.09812-62.49418c.67345.01945,22.10714-1.98857,27.26564,1.463,0,0-3.6262,59.94528-5.5621,67.3544S713.612,346.21743,713.612,346.21743"/><path class="cls-9" d="M713.6121,346.21743s.07407-.22147.24851-.64176c.18725-.44214.4487-1.05925.78863-1.862.71483-1.65729,1.75318-4.06468,3.08981-7.16367,2.69343-6.2598,6.587-15.30876,11.43075-26.56617,2.4026-5.64629,5.02916-11.85478,7.75034-18.58511.66491-1.68741,1.36413-3.39934,2.01369-5.15791.31324-.88082.68481-1.76123.95026-2.66377.13467-.45174.30764-.89654.41294-1.35894l.26826-1.40411c.60112-3.81.94839-7.80729,1.34611-11.89423,1.44461-16.37974,2.65206-34.55576,3.851-53.83926l.152.30636a13.06048,13.06048,0,0,0-4.57459-1.40558,46.73187,46.73187,0,0,0-5.01329-.46226c-3.395-.15365-6.862-.105-10.34955.04757-2.4046.09608-4.72647.26464-7.14629.418l.35488-.30729c-2.57037,22.51508-4.9946,43.75-7.134,62.48993l-.00854.07409-.041.062q-5.36242,8.11425-10.27894,15.554c-3.25384,4.97322-6.61085,9.51336-9.71735,13.81165-3.11115,4.29575-5.984,8.35777-8.49254,12.20844-2.46026,3.88479-4.526,7.57983-6.25556,10.99183a103.25026,103.25026,0,0,0-6.61871,16.50353c-.58738,1.975-.9588,3.51368-1.20117,4.55267-.10878.5049-.19272.89454-.25479,1.18277a3.109,3.109,0,0,1-.093.39963,3.42,3.42,0,0,1,.0431-.40829c.036-.26984.10891-.66881.20673-1.1945.21088-1.048.552-2.59795,1.111-4.58651A99.27938,99.27938,0,0,1,676.926,328.705c1.71113-3.43492,3.76153-7.15514,6.21031-11.06672,2.49977-3.88172,5.35509-7.95747,8.45144-12.26934,3.09208-4.31427,6.42666-8.85748,9.65527-13.8247q4.88776-7.43805,10.24-15.58261l-.04925.13566c2.1178-18.74236,4.51747-39.98005,7.062-62.49805l.02162-.19162.33139-.043c2.28569-.29662,4.715-.363,7.09825-.49131,3.50154-.15311,6.98493-.20188,10.41241-.046a47.3607,47.3607,0,0,1,5.088.47172,13.57,13.57,0,0,1,4.85073,1.51618l.165.10274-.01282.204c-1.21037,19.28937-2.44424,37.46259-3.92916,53.85392-.40893,4.09667-.76394,8.08073-1.384,11.93914l-.28108,1.44369c-.10984.47465-.28707.92878-.42668,1.39118-.27787.93092-.6489,1.79895-.96813,2.688-.65892,1.766-1.36374,3.47529-2.036,5.16417-2.74788,6.72832-5.40087,12.92656-7.83229,18.56246-4.86608,11.27033-8.86118,20.28358-11.62466,26.486-1.38469,3.07806-2.46041,5.46919-3.20086,7.1153-.36516.79153-.64583,1.40024-.847,1.83625C713.72634,346.01368,713.6121,346.21743,713.6121,346.21743Z"/><path class="cls-9" d="M790.63034,317.20322a2.91116,2.91116,0,0,1-.66385.30982c-.51891.20255-1.16392.4544-1.95124.76169-1.69685.65628-4.17927,1.5339-7.26868,2.55357a208.19025,208.19025,0,0,1-24.591,6.432,196.95914,196.95914,0,0,1-25.2171,3.2433c-3.24824.19575-5.88013.29409-7.69964.30235-.84536.002-1.53776.0036-2.09484.00493a2.91307,2.91307,0,0,1-.73125-.04557,2.936,2.936,0,0,1,.72751-.09421c.55534-.036,1.24588-.08062,2.08884-.13512,1.81443-.09115,4.43793-.26385,7.67414-.52183a228.67743,228.67743,0,0,0,25.11874-3.43479,244.10715,244.10715,0,0,0,24.57568-6.21862c3.10209-.95784,5.60479-1.76337,7.3274-2.34063.80465-.25758,1.4637-.46866,1.99368-.63843A2.92711,2.92711,0,0,1,790.63034,317.20322Z"/><path class="cls-9" d="M821.66,381.12617a2.91893,2.91893,0,0,1-.08007-.72784c-.025-.555-.05606-1.24473-.094-2.08664-.03737-1.81281-.18458-4.43074-.3689-7.66338-.13987-1.62171-.29215-3.38628-.455-5.27437-.26279-1.88357-.433-3.91211-.80706-6.01661a81.567,81.567,0,0,0-3.22621-13.49343A53.24573,53.24573,0,0,0,803.69813,324.504c-.578-.563-1.08932-1.14239-1.64293-1.61518q-.822-.70979-1.55658-1.34442-.7219-.626-1.35346-1.17384-.65141-.48751-1.2061-.90241c-.66892-.5121-1.21692-.93172-1.65775-1.26939a2.94756,2.94756,0,0,1-.55281-.48251,2.88,2.88,0,0,1,.63168.367c.46259.31049,1.03755.69639,1.7393,1.16745q.57437.395,1.24908.8587.65225.53008,1.3987,1.1368.75613.62,1.60369,1.31456c.56949.464,1.09747,1.03646,1.692,1.59374a51.9,51.9,0,0,1,13.24477,21.48861,78.51973,78.51973,0,0,1,3.20033,13.61668c.35874,2.12129.50862,4.1617.74752,6.05766.1332,1.89782.25772,3.67158.3721,5.30169.122,3.24636.19459,5.87256.14881,7.68856-.01482.84337-.02683,1.5343-.03656,2.09011A2.89954,2.89954,0,0,1,821.66,381.12617Z"/><path class="cls-9" d="M761.52811,301.71443c-.05458.20522-2.58571-.48931-5.75372-.29969-3.17109.15418-5.61148,1.11841-5.68782.92026-.09169-.14631,2.3304-1.44728,5.65-1.61319C759.0537,300.52779,761.60325,301.55892,761.52811,301.71443Z"/></g></svg>