<svg xmlns="http://www.w3.org/2000/svg" viewBox="0 0 1528 642"><defs><style>.cls-1{isolation:isolate;}.cls-2{fill:#f7f7f7;}.cls-3{fill:#bae5ed;}.cls-3,.cls-5,.cls-6{opacity:0.6;mix-blend-mode:multiply;}.cls-4{opacity:0.1;}.cls-5{fill:#dccce2;}.cls-6{fill:#978fc1;}.cls-7{fill:#3b428e;}.cls-8{fill:#eea3b1;}.cls-9{fill:#1d75b3;}.cls-10{fill:#2a2f66;}.cls-11{fill:#ea8176;}.cls-12{fill:#ef4946;}.cls-13{fill:#f36969;}.cls-14{fill:#fff;}.cls-15{fill:#303862;}.cls-16{fill:#f57b77;}.cls-17{fill:#199fc4;}.cls-18{fill:#fec766;}.cls-19{fill:#4a51a2;}.cls-20{fill:#424997;}.cls-21{fill:#5a6db1;}.cls-22{fill:#d04958;}.cls-23{fill:#ffff73;}.cls-24{fill:#fd973b;}.cls-25{fill:#fec041;}.cls-26{fill:#fed66a;}.cls-27{fill:#ffde45;}.cls-28{fill:#fe9c34;}.cls-29{fill:#fff7c4;opacity:0.4;}.cls-30{fill:#b1dcfb;}.cls-31{fill:#60a2f4;}</style></defs><title>the-power-of-collaborative-strategy</title><g class="cls-1"><g id="BACKGROUND"><rect class="cls-2" width="1528" height="642"/></g><g id="OBJECTS"><path class="cls-3" d="M968.39125,25.03579C844.27662-8.0269,724.66138-5.04567,599.28178,14.91,531.82547,25.64751,450.88307,40.47579,416.235,121.81008c-24.28,56.99788,4.36216,72.53772,19.80489,118.535,15.02228,44.74275-16.07238,73.13225-33.1362,107.57591-18.15737,36.65463-29.86371,93.30179-16.55113,134.38192,52.25294,161.22947,278.00266,166.8263,393.56306,156.46964,100.7998-9.03531,298.32777-1.90118,341.39481-145.71147,22.8473-76.31346-15.1072-154.56557-15.00531-231.54464.06411-50.03611,10.48853-99.49063-13.10158-145.08834C1064.94784,61.80836,1018.30116,38.33137,968.39125,25.03579Z"/><ellipse class="cls-4" cx="553.89713" cy="603.65418" rx="64.60994" ry="10.13995"/><ellipse class="cls-4" cx="938.8788" cy="613.79413" rx="66.97684" ry="10.13995"/><ellipse class="cls-4" cx="691.382" cy="598.03565" rx="71.00637" ry="27.26045"/><ellipse class="cls-4" cx="816.4221" cy="604.89625" rx="70.85095" ry="26.37614"/><path class="cls-5" d="M1095.87024,101.10087V82.88719h-14.56418c-.25443-1.61842-.58258-3.21134-.96131-4.78551l13.59517-5.36676-6.68826-16.94142-13.75751,5.432a61.94931,61.94931,0,0,0-3.80027-5.68734l10.4999-10.50009L1067.31493,32.16l-10.59814,10.59814q-2.29584-1.67829-4.7467-3.14723l5.75724-13.86294-16.82077-6.98533-5.78543,13.929c-1.85294-.45516-3.73811-.83217-5.65531-1.11593V16.48273H1011.254V31.57566c-1.55914.23087-3.09359.53064-4.611.87463l-5.54025-14.03647L984.1594,25.10226l5.51765,13.9751a61.9972,61.9972,0,0,0-5.674,3.68077L973.40682,32.16,960.526,45.038l10.498,10.50009q-1.73034,2.29876-3.24414,4.76272l-13.665-5.67422-6.98628,16.82078,13.4973,5.60436q-.74643,2.8645-1.214,5.83542H944.84763v18.21368h14.389q.34226,2.47718.87463,4.889l-13.33131,5.26327,6.69019,16.94123,13.17109-5.20091a62.213,62.213,0,0,0,3.857,5.98328l-9.97215,9.97211,12.88078,12.879,9.87232-9.87407q2.43459,1.83517,5.05016,3.4308l-5.33487,12.85549,16.82077,6.98414,5.30843-12.78654a61.41361,61.41361,0,0,0,6.13041,1.22535v13.84228h18.21178V153.66306c1.71547-.25362,3.40085-.58817,5.06348-.98021l5.0897,12.89022,16.94146-6.68825-5.11424-12.95544a61.60671,61.60671,0,0,0,5.99446-3.97556l9.87425,9.87407,12.87885-12.879-9.97215-9.97211q1.77582-2.43453,3.31788-5.04168l13.06744,5.42618,6.98434-16.82153-13.22782-5.49125q.70129-2.92386,1.11977-5.94759Zm-75.50947,26.5611a35.66842,35.66842,0,1,1,35.668-35.668A35.66916,35.66916,0,0,1,1020.36077,127.662Z"/><path class="cls-5" d="M537.3972,108.12522V89.91131H522.833c-.25442-1.61823-.58239-3.21112-.96134-4.78437l13.5952-5.36767-6.68825-16.94146-13.75926,5.432a61.648,61.648,0,0,0-3.79658-5.68738l10.49815-10.49911-12.879-12.879L498.24374,49.78244q-2.29586-1.67823-4.74651-3.14625l5.757-13.86389L482.4335,25.787,476.65,39.71589c-1.85488-.45516-3.74-.83217-5.65705-1.11593V23.507H452.77905V38.6c-1.557.23087-3.09165.53069-4.60909.87467l-5.54219-14.03647L425.68654,32.1266l5.51746,13.976a61.52554,61.52554,0,0,0-5.674,3.67982L414.932,39.18429l-12.879,12.879,10.49815,10.49911q-1.73062,2.30017-3.24239,4.76272l-13.667-5.67422-6.98609,16.82077,13.49711,5.60436q-.74357,2.86571-1.212,5.83524H386.37458v18.21391h14.39089q.33934,2.4771.87463,4.889l-13.33131,5.26327,6.68826,16.94123,13.16933-5.20091a62.39137,62.39137,0,0,0,3.85876,5.98327l-9.97215,9.97215,12.879,12.879,9.87407-9.87311q2.43744,1.83373,5.05016,3.42981l-5.33662,12.85548,16.82062,6.98514,5.31033-12.78754a61.49389,61.49389,0,0,0,6.12847,1.22539v13.84228H470.993V160.6874c1.71528-.25366,3.40066-.58817,5.0633-.97926l5.08969,12.88927,16.94145-6.68825-5.11427-12.95547a61.63733,61.63733,0,0,0,5.9945-3.97457l9.87425,9.87311,12.879-12.879-9.97234-9.97215q1.77873-2.4331,3.31787-5.04164l13.06745,5.42619,6.98243-16.82158-13.22591-5.49143q.70128-2.92357,1.11977-5.94736Zm-75.50926,26.56186a35.66882,35.66882,0,1,1,35.66977-35.66882A35.66986,35.66986,0,0,1,461.88794,134.68708Z"/><path class="cls-6" d="M355.57858,481.77277V462.476h-7.6063a67.7931,67.7931,0,0,0-1.38176-7.038l7.03129-2.88508-7.32912-17.851-7.06158,2.89841a67.82647,67.82647,0,0,0-4.20757-6.31783l5.39879-5.39894L326.7781,412.239l-5.41018,5.40748a67.92764,67.92764,0,0,0-5.94389-3.97842l2.95033-7.06253L300.57144,399.165l-2.9482,7.055a67.91248,67.91248,0,0,0-7.43859-1.46958V397.081H270.88879v7.66945a67.70834,67.70834,0,0,0-7.01831,1.36959l-2.90674-7.08052-17.85,7.32741,2.9067,7.08608a68.41043,68.41043,0,0,0-6.31877,4.19346l-5.40648-5.40748-13.64425,13.64445,5.397,5.39894a68.61119,68.61119,0,0,0-3.99462,5.94371l-7.03707-2.94087-7.44049,17.80392,7.00888,2.92929a67.60184,67.60184,0,0,0-1.48541,7.4575H205.491v19.29681h7.58932a67.84551,67.84551,0,0,0,1.3686,7.05038l-6.99746,2.87368,7.32543,17.851,6.99362-2.871a68.38466,68.38466,0,0,0,4.2151,6.3537l-5.33472,5.33564,13.64425,13.64443,5.32734-5.32639a68.361,68.361,0,0,0,5.97574,4.01334l-2.903,6.94576,17.80658,7.44128,2.89551-6.92666a67.3485,67.3485,0,0,0,7.49147,1.48446v7.52522h19.29586v-7.52522a68.21257,68.21257,0,0,0,7.07086-1.38077l2.85225,6.94845,17.85177-7.3274-2.86153-6.96927a68.34345,68.34345,0,0,0,6.35275-4.22919l5.32735,5.32639,13.64423-13.64443-5.33661-5.33564a68.09719,68.09719,0,0,0,3.9983-5.97962l6.971,2.91347,7.44243-17.80467-6.9749-2.91347a67.35473,67.35473,0,0,0,1.46843-7.47351Zm-75.042,32.30578a41.88161,41.88161,0,1,1,41.88122-41.882A41.882,41.882,0,0,1,280.53662,514.07855Z"/><path class="cls-6" d="M1147.21722,433.9116V408.9784h-9.827a86.72419,86.72419,0,0,0-1.78517-9.09383l9.08416-3.72868-9.4689-23.065-9.12373,3.74466a88.43435,88.43435,0,0,0-5.43661-8.16243l6.97471-6.97586-17.63114-17.63038-6.98822,6.987a88.23674,88.23674,0,0,0-7.67988-5.14049l3.81165-9.12492-23.00383-9.61405-3.80975,9.11544a87.89915,87.89915,0,0,0-9.61017-1.89829v-9.909h-24.93226v9.909a87.60564,87.60564,0,0,0-9.06739,1.76916l-3.75511-9.14827-23.066,9.46775,3.75876,9.156a88.14078,88.14078,0,0,0-8.16612,5.41767l-6.98628-6.987-17.62939,17.63038,6.97487,6.97586a88.514,88.514,0,0,0-5.16134,7.67984l-9.09383-3.80024-9.61386,23.0046,9.056,3.7854a87.75449,87.75449,0,0,0-1.91914,9.6357h-9.827v24.9332h9.80437a87.50509,87.50509,0,0,0,1.7682,9.10966l-9.04459,3.71284,9.46886,23.06506,9.03516-3.71a88.8523,88.8523,0,0,0,5.44414,8.20859l-6.89188,6.89382L990.509,498.82294l6.88264-6.88241a87.93012,87.93012,0,0,0,7.7231,5.18585l-3.75123,8.97493,23.00577,9.61405,3.74005-8.94944a87.67445,87.67445,0,0,0,9.68181,1.918v9.72328h24.93226v-9.72328a88.02665,88.02665,0,0,0,9.13705-1.78424l3.68541,8.97783,23.0641-9.46794-3.69659-9.00408a88.55515,88.55515,0,0,0,8.20759-5.465l6.88264,6.88241,17.63114-17.63133-6.89557-6.89382a88.32474,88.32474,0,0,0,5.16693-7.725l9.00525,3.76454,9.61576-23.00483-9.00886-3.76553a88.10189,88.10189,0,0,0,1.89654-9.65537Zm-96.96,41.7417a54.115,54.115,0,1,1,54.11554-54.11554A54.11479,54.11479,0,0,1,1050.25722,475.6533Z"/><path class="cls-6" d="M866.21722,430.98582V411.76077h-7.57616a69.25066,69.25066,0,0,0-1.37617-7.01178l7.00116-2.87465-7.299-17.785-7.03513,2.888a68.11552,68.11552,0,0,0-4.19251-6.29347l5.37814-5.37909-13.59539-13.59444-5.38567,5.38757a68.28041,68.28041,0,0,0-5.923-3.96335l2.939-7.03608-17.73695-7.41309-2.937,7.02855a67.88307,67.88307,0,0,0-7.41214-1.46379v-7.64027H781.84208v7.64027a67.65818,67.65818,0,0,0-6.99187,1.3638l-2.89551-7.05309L754.17088,355.861l2.89722,7.05963a68.34036,68.34036,0,0,0-6.29617,4.17725l-5.38563-5.38757-13.59345,13.59444,5.37619,5.37909a68.36041,68.36041,0,0,0-3.9775,5.9211l-7.01253-2.93044-7.41229,17.73787,6.98239,2.91811a68.06521,68.06521,0,0,0-1.48171,7.43025h-7.57621v19.22505h7.56114a67.92888,67.92888,0,0,0,1.36111,7.02391l-6.97106,2.86248,7.299,17.785,6.96737-2.86059a67.9725,67.9725,0,0,0,4.2,6.3292l-5.316,5.316L745.3863,481.036l5.30649-5.30747a67.85971,67.85971,0,0,0,5.95508,3.99926l-2.89182,6.92027,17.73691,7.41309,2.88414-6.90037a67.98824,67.98824,0,0,0,7.465,1.47882v7.49706h19.22426v-7.49706a67.7076,67.7076,0,0,0,7.0446-1.37613l2.84282,6.92221,17.784-7.30017-2.84841-6.94287a68.24908,68.24908,0,0,0,6.32631-4.21411l5.30649,5.30747,13.59539-13.59424-5.316-5.316a68.13671,68.13671,0,0,0,3.98325-5.956l6.94458,2.90206,7.41233-17.73771-6.94481-2.904a68.21949,68.21949,0,0,0,1.46109-7.44433Zm-74.763,32.18434a41.72526,41.72526,0,1,1,41.72659-41.72489A41.72526,41.72526,0,0,1,791.45423,463.17016Z"/><path class="cls-7" d="M974.6498,229.11071c2.36023,7.90337,3.2312,16.48991,4.266,24.42437,3.48738,1.58539,6.90505,6.397,10.10593,8.97493,4.8654,3.92012,11.37666,6.71565,15.53325,11.34828,5.68544,6.3367,3.65337,12.44256.58817,19.63136-3.44217,8.07017-10.17384,15.97624-6.55448,25.17257,2.48263,6.30953,8.17556,10.58212,5.742,18.28-3.40625,10.779-19.85949,10.24913-28.825,10.64311-5.69118.24978-10.50759-.53818-15.26935-4.05759-3.8607-2.85034-5.57039-7.82038-10.3831-9.4519-7.87019-2.67022-20.00838,5.35554-25.822-.47314-8.33966-8.36512-9.42933-28.88637-9.78739-39.88119-.19614-6.08038,1.52687-11.484,3.197-17.275,2.72779-9.45752-.47118-14.9808-3.11786-23.96517-1.95872-6.64039-.14325-11.90153.29783-18.44767.35057-5.15381-.1189-9.21045,2.01894-14.24285,3.82112-9.004,12.26636-17.41918,22.63245-17.27593,6.38289.08858,14.23995,1.19526,19.83309,4.66368C967.60718,212.44742,972.041,220.36106,974.6498,229.11071Z"/><path class="cls-8" d="M856.6163,240.00764c-1.05745.43724-8.8749,7.97018-5.80221,11.19735a377.54957,377.54957,0,0,0,30.81943,29.00042c13.38613,11.51893,32.16912,19.57578,37.68118,10.43119,4.86734-8.07386-17.35047-20.80675-34.68956-31.7649-3.68712-2.33089-7.34628-6.59694-18.96211-14.70283C865.66113,244.16792,859.66644,239.50614,856.6163,240.00764Z"/><path class="cls-8" d="M850.51626,251.62541c2.60517.55245,10.51512.96149,12.47924-2.4496,1.64756-2.85982.85591-4.2896.85591-4.2896a303.36709,303.36709,0,0,0-19.11864-43.98975c-6.334-11.61873-8.91276.74473-8.91276.74473C838.806,216.11023,840.43465,229.99767,850.51626,251.62541Z"/><path class="cls-9" d="M872.74526,245.95134c7.14071,5.40633,24.46108,17.30512,27.43573,19.18644,17.34293,10.95815,24.19334,18.29016,19.3279,26.363-5.51206,9.14481-26.12927.02743-40.61436-10.07674-12.59623-8.78538-19.18658-17.30512-30.38778-28.89759C853.51735,248.39634,865.40476,244.88062,872.74526,245.95134Z"/><path class="cls-8" d="M920.62675,522.72885s7.25771,18.54941-7.70244,78.24842c-1.19894,4.77973-4.92392,4.4763-6.91467,2.93607a4.15,4.15,0,0,1-1.34409-2.98024s-7.04826-68.01725-5.27446-76.4096C901.1668,516.131,920.62675,522.72885,920.62675,522.72885Z"/><path class="cls-8" d="M898.28829,504.87224c.494,4.53166-.71251,21.2432,2.01141,24.79948,4.03229,5.265,12.96765,6.06047,17.77089,1.84346,3.0181-2.65037,2.722-10.51976,4.2396-14.02411,1.49488-3.45164,11.912-68.22727,12.74143-82.48049.97442-16.75864.59935-12.4426.82927-29.22651q.13287-9.95219.16041-19.90587c.01313-3.95391,1.09892-9.77986-3.93424-10.77418-5.97962-1.181-7.27833-11.4915-12.47946-8.49136-6.51682,3.76261-9.96074,16.7669-12.43408,23.1913-7.4121,19.24027-9.071,39.77655-9.15406,60.22524-.06023,14.47463-1.04044,28.97767-.33162,43.44575C897.885,497.07445,897.86806,501.02007,898.28829,504.87224Z"/><path class="cls-10" d="M884.45179,607.10014c2.36-.345,3.0934-.018,5.45922-.40634a24.143,24.143,0,0,0,6.74114-2.24787,46.70643,46.70643,0,0,0,6.92951-4.594,5.84879,5.84879,0,0,1,.68625-.46851c3.19529,1.47422,5.022,1.37617,8.44524-.07161a1.257,1.257,0,0,0,.6559-.56637,1.58448,1.58448,0,0,1,.26774.27143,5.3013,5.3013,0,0,1,.77487,2.5185c.23935,1.58345.98215,8.16053.65784,9.71944-.45615,2.2037-12.45109,4.82972-16.38723,5.07372-5.299.32911-9.34247.55149-14.57366-.29593C879.00575,615.207,880.45348,607.68349,884.45179,607.10014Z"/><path class="cls-8" d="M952.28878,245.54888c-1.59468,2.95479-7.4403,5.76458-7.76267,2.721a17.15808,17.15808,0,0,1,1.885-8.63365c1.591-2.955,1.18772-3.52036,3.88326-2.068A5.83106,5.83106,0,0,1,952.28878,245.54888Z"/><path class="cls-8" d="M940.5523,250.24658c-.509-6.63845-19.96511,5.70142-19.96511,5.70142l2.083,25.32433s.20172-1.01689,9.77236-.79066c5.83253.13667,9.46137,1.97355,9.171-3.4752C941.43252,273.63861,940.72758,252.54155,940.5523,250.24658Z"/><path class="cls-11" d="M940.84629,256.64928c-2.75595,8.89386-10.65837,15.30684-18.93586,14.648L920.58719,255.948s19.458-12.33987,19.96511-5.70142c.05269.703-.07161-1.37423.22238,1.52957C940.656,251.91959,940.91036,256.43812,940.84629,256.64928Z"/><path class="cls-8" d="M919.58243,258.65974c5.2519,4.7965,16.2307,4.25737,21.33935-.34688a18.45,18.45,0,0,0,5.84-9.89685c1.02176-4.394.93874-8.61105,1.93037-13.03538a28.07277,28.07277,0,0,0,.83312-5.80144,16.24887,16.24887,0,0,0-2.63915-8.97493c-1.71163-2.63162-4.57317-4.09442-7.09555-5.87865-2.1338-1.50991-4.51469-3.35744-7.11061-3.98134-1.78689-.42986-3.0727.5712-4.62587,1.40531-8.44154,4.53185-13.256,15.76413-14.07041,24.9616C913.38046,243.95965,914.1798,253.72254,919.58243,258.65974Z"/><path class="cls-8" d="M982.95936,520.52325s11.665,16.143,12.12118,77.68669c.03591,4.92682-3.64584,5.5648-5.95878,4.57241a4.1528,4.1528,0,0,1-2.04713-2.54958s-23.84471-64.08864-24.22557-72.65837C962.46456,519.00486,982.95936,520.52325,982.95936,520.52325Z"/><path class="cls-8" d="M981.75848,505.37085c.55248,4.52607,4.251,19.96127,2.4112,24.04526-2.72216,6.04663-10.97127,7.07489-16.60961,4.06532-3.54216-1.89175-1.59486.87463-3.87013-2.19153-2.24326-3.01981-29.60735-71.8588-33.66783-85.54741-4.77314-16.09327-3.42327-11.977-7.4764-28.26615q-2.40069-9.65913-4.69941-19.344c-.91439-3.84564-3.30087-9.27083,1.37035-11.38686,5.55357-2.51584,4.46389-12.8499,10.21341-11.11646,7.205,2.17721,13.52378,14.05154,17.3995,19.74253,11.60655,17.04125,17.90855,36.65679,22.65506,56.54737,3.363,14.07779,7.62714,27.97467,10.23985,42.2233C980.3731,497.68618,981.2892,501.52427,981.75848,505.37085Z"/><path class="cls-8" d="M913.28432,378.02791c-1.49872-29.96466-7.32737-74.04863-3.5497-78.31273,6.64694-7.5046-2.63724-11.89107,2.17551-17.90467,7.1934-8.99289,30.36133-10.91937,39.35323,2.09538,3.05014,4.413-.53912,16.56616.17913,19.87072,1.59658,7.32276,2.19982,43.80869,4.00585,73.1975Z"/><path class="cls-9" d="M913.3353,276.87635c.70494-.24708,7.96824-1.32244,8.63171-1.10086.37891.12529.049,8.41492.75588,11.94494.86733,4.34694,1.60624,7.30557,2.71468,11.4886,4.87853-7.31694,6.82027-13.618,12.07966-20.66716,3.6684-4.91833,9.31233-4.55833,12.404-.46292,2.67678,3.54585,2.81637,7.926,4.4338,11.90537,1.99056,4.89383,1.41376,8.33677,1.08948,13.75272-.6955,11.56987-.52022,23.167-.47121,34.75.05269,12.613-1.07636,26.22173,1.01594,38.719l-42.7049.82194c-1.26861-1.10669-.92946-8.797-1.09892-10.38794q-1.12-10.71944-2.31506-21.4316c-1.6551-14.64819-4.42243-29.30584-4.69941-44.04824-.13012-6.98415.9613-15.02034,5.12926-20.83491C911.714,279.35433,910.64323,277.82263,913.3353,276.87635Z"/><path class="cls-8" d="M991.51018,344.91237c1.13484-.12065,10.76011-5.14456,8.72416-9.107A377.70183,377.70183,0,0,0,978.83865,299.293c-9.599-14.82633-25.34708-27.85056-33.21168-20.62953-6.94477,6.37341,10.779,24.85388,24.329,40.2553,2.87854,3.27522,5.18782,8.39989,14.04766,19.45126C984.00365,338.37,988.44133,344.53441,991.51018,344.91237Z"/><path class="cls-7" d="M944.379,203.55744a25.75628,25.75628,0,0,0-3.857,1.91142c-3.09335,1.56085-6.14155,3.38271-8.10954,6.32726a36.91169,36.91169,0,0,0-3.18969,6.4037,11.56209,11.56209,0,0,0,1.21226,11.41239,18.2026,18.2026,0,0,0,7.20672,5.71843,11.17626,11.17626,0,0,1,4.27918,3.08776c.69938.99916.43724,2.34033,1.10843,3.26324,2.29227,3.15553,3.74754-1.641,4.494-3.09164q-.58806,1.14226,1.07076-1.65331c2.41486-4.08209,3.49316-7.69011,7.23127-10.74215,3.28-2.68066,6.03791-8.53849,4.76736-12.80838-1.43465-4.821-8.49622-8.31786-12.8752-9.693A5.497,5.497,0,0,0,944.379,203.55744Z"/><path class="cls-7" d="M917.06587,221.8333c2.48647-4.92465,5.57035-10.14082,9.9287-13.65174,3.0953-2.49594,7.54048-5.10207,11.51429-5.55163,2.17162-.24518,5.43661-.55325,7.399.36289,1.02732,5.89836-6.03038,11.616-9.73835,15.55681-2.51485,2.67194-5.45362,2.64379-8.4132,4.16507-2.26218,1.16109-4.10952,2.91617-6.16993,4.37338-2.202,1.5599-4.50545,2.45249-6.351,4.51005C913.44069,230.00155,916.2138,223.51967,917.06587,221.8333Z"/><path class="cls-12" d="M895.57,429.096c.085-20.4485,14.34378-61.37111,16.46446-66.06222l42.91629-1.34121c1.689,4.0991,18.40228,32.19826,20.74919,67.40438.96324,14.44088,6.45643,69.23955,6.03425,73.09192-.04345.4108-86.79947,1.32983-86.79947,1.32983C894.571,499.8306,895.51168,443.56988,895.57,429.096Z"/><path class="cls-8" d="M1000.453,337.80368c-1.80584-1.95969-8.01165-6.87509-11.59148-5.23316-2.99919,1.37617-3.18391,3.00014-3.182,2.99649a302.8778,302.8778,0,0,0-9.90051,46.937c-1.57036,13.14,7.693,4.5554,7.693,4.5554C989.42154,373.53563,996.13989,361.27314,1000.453,337.80368Z"/><path class="cls-8" d="M973.83369,390.63632c.38644-2.98508.92363-5.39145,2.98408-7.76286h.25248c.02645.31849.05483.63912.083.96054,0,0,.21117-.94647.032.375.00947.0971.017.19419.02454.29129a2.68472,2.68472,0,0,1,2.62777-1.63249c3.71182.277,4.14906,5.7976,4.02088,8.55451-.16387,3.51571-1.36666,6.97684-1.76064,10.56222-.37317,3.398-.25442,8.21246-1.80219,11.27763-4.36584.65882-4.77295-9.74223-4.23188-18.63316.25248-3.08045-1.35547,3.63618-2.47722,3.7964C972.16528,398.96745,973.36053,392.61759,973.83369,390.63632Z"/><path class="cls-9" d="M977.71135,334.664c-5.32928-7.20019-18.59092-23.4996-20.91717-26.14358-13.5481-15.4012-18.05544-24.36764-11.11064-30.74124,7.86456-7.2208,25.07547,7.33973,36.12592,21.117,9.60846,11.97987,13.53128,22.01225,21.00943,36.29193C996.84871,337.73862,984.45055,337.76024,977.71135,334.664Z"/><path class="cls-8" d="M843.36048,195.94069c.82928,2.8936,1.28927,5.316.3374,8.31032l-.232.099q-.22326-.42278-.45615-.84837s.18107.953-.17718-.33166c-.04517-.08587-.09227-.17255-.13937-.25827a2.68379,2.68379,0,0,1-1.76087,2.54012c-3.78132,1.31012-6.54116-2.78046-8.06244-5.59972-1.83806-3.40067-4.80134-8.79965-2.1981-12.51881,1.0482-1.49678,3.5667-3.9323,5.61189-3.2594,1.37613.4525,3.77787,4.20563,4.66756,5.45263A14.42343,14.42343,0,0,1,843.36048,195.94069Z"/><path class="cls-10" d="M966.17831,607.77111c2.36-.34494,3.09534-.01872,5.45921-.40612a24.13,24.13,0,0,0,6.74114-2.24886,46.71224,46.71224,0,0,0,6.92951-4.59306,5.82441,5.82441,0,0,1,.68626-.46943c3.19335,1.47517,5.02369,1.37613,8.44524-.07065a1.26785,1.26785,0,0,0,.65593-.56657,1.61615,1.61615,0,0,1,.26774.27063,5.28074,5.28074,0,0,1,.77289,2.5193c.2413,1.58345.9841,8.16069.65978,9.71868-.45611,2.20366-12.453,4.82968-16.38528,5.07467-5.3009.32892-9.34441.55051-14.5756-.29593C960.73032,615.87814,962.18,608.35468,966.17831,607.77111Z"/><path class="cls-8" d="M621.245,318.69909c-10.08527-25.937-16.01007-26.63172-24.22538-38.04217-12.03066-16.7096-36.84981-30.14744-39.50787-17.11671-1.30452,6.38673,46.17352,54.92511,53.697,64.57683C614.81869,326.51947,617.23914,321.31742,621.245,318.69909Z"/><path class="cls-13" d="M610.47175,331.90051c-6.53747-7.95341-33.3775-39.73315-36.16374-42.56459-16.22316-16.489-23.83139-23.3563-17.47864-33.22866,7.20113-11.18247,27.15677,5.89566,40.69539,20.77933,8.93925,9.82719,13.19947,15.2194,25.50175,35.635C625.10758,319.38611,617.914,334.23988,610.47175,331.90051Z"/><path class="cls-7" d="M542.52535,184.10308a19.48893,19.48893,0,0,0-12.01579,2.25658,23.14544,23.14544,0,0,1-4.85209,1.968c-6.36413,1.70315-7.7893,11.2126-7.29339,16.69533.27333,3.01152,1.491,5.99,2.33743,8.86855,2.21873,7.56193,8.39429,15.22865,17.00359,14.848a20.40786,20.40786,0,0,0,14.51906-7.56113C560.69756,210.42193,558.43733,186.74976,542.52535,184.10308Z"/><path class="cls-8" d="M613.90255,326.65983c-2.296-1.57885-8.302-7.27642-7.13318-11.22474.98021-3.30939,2.63531-3.74,2.63162-3.7383a316.76966,316.76966,0,0,1,47.12366-17.20143c13.36913-3.57036,5.8551,7.29164,5.8551,7.29164C649.25941,309.94753,637.5606,318.7188,613.90255,326.65983Z"/><path class="cls-8" d="M661.92166,290.00228c-2.79549,3.02464-5.397,6.27727-4.81077,7.45072l.11695.2357q.4665-.18645.9368-.37237s-.78407.6411.36583-.14591c.0942-.03786.19032-.07644.28452-.1141a2.8073,2.8073,0,0,0-.29784,3.21963c2.18494,3.65528,7.60455.63623,10.38135-.57774a33.75894,33.75894,0,0,0,6.31878-3.85686c2.31871-1.7004,4.26971-7.18507,1.77764-9.48027-2.55442-2.35345-4.54132,2.44518-6.611.54765-1.14625-1.05185.80493-5.59028-2.6071-2.84647C667.12261,284.73342,664.44214,287.27551,661.92166,290.00228Z"/><path class="cls-13" d="M653.60077,295.08547c-13.09949,3.65509-29.57514,7.92209-45.84731,15.25045-2.26217,4.57122-.00388,1.78978-.98409,5.09917-1.16881,3.94736,2.626,15.10531,4.92389,16.68316,21.40341-7.18512,34.98937-19.59663,46.72409-27.07379Z"/><path class="cls-14" d="M653.72335,308.19633c1.6043-1.11787,3.1669-2.17821,4.694-3.15187l-4.81658-9.959c-1.81143.5061-3.6947,1.05471-5.627,1.63809Z"/><path class="cls-8" d="M555.22891,509.9035s-7.58758,19.39778,8.05879,81.83015c1.25183,4.99842,5.14627,4.68069,7.22932,3.071a4.33984,4.33984,0,0,0,1.40452-3.1171s7.37059-71.13031,5.51575-79.90736S555.22891,509.9035,555.22891,509.9035Z"/><path class="cls-15" d="M575.35983,366.311H539.10189c.00388.15923.00753.32234.00753.477q.03967,10.40853.16969,20.81718c.23936,17.55219-.15272,13.03926.8671,30.564.86729,14.90627,11.76117,82.64634,13.324,86.25627,1.5854,3.66569.82947,10.32751,3.985,13.09967,5.022,4.4093,14.8395,6.74384,19.05456,1.23752,2.84841-3.71934,1.56474-22.79362,2.08111-27.53278.43937-4.02845.42237-8.15589.60708-11.91949.7428-15.13174-.2847-30.29822-.34493-45.4346C578.76438,412.66264,578.7059,392.18484,575.35983,366.311Z"/><path class="cls-10" d="M593.06086,598.13739c-2.46755-.361-3.23466-.01971-5.70994-.42507a25.18,25.18,0,0,1-7.04825-2.35173,48.77558,48.77558,0,0,1-7.2463-4.80309,6.12645,6.12645,0,0,0-.72019-.49108c-3.34048,1.54293-5.2519,1.43929-8.82978-.07354a1.32142,1.32142,0,0,1-.68622-.59282,1.74479,1.74479,0,0,0-.28087.28357,5.54525,5.54525,0,0,0-.80861,2.63454c-.25078,1.656-1.02926,8.53385-.68992,10.16342.47871,2.30463,13.02206,5.05115,17.1393,5.30653,5.5422.34417,9.76849.577,15.241-.30906C598.75574,606.61561,597.24218,598.74717,593.06086,598.13739Z"/><path class="cls-8" d="M526.57555,218.85305c1.46646,3.18856,7.38391,6.50833,7.92308,3.35261a17.99293,17.99293,0,0,0-1.39892-9.13511c-1.46456-3.18969-1.00651-3.75336-3.91339-2.41584A6.0939,6.0939,0,0,0,526.57555,218.85305Z"/><path class="cls-8" d="M534.393,224.94754c.53163-6.94191,20.87935,5.96167,20.87935,5.96167l-2.17915,26.48367s-.21121-1.06323-10.21924-.82658c-6.09833.14321-9.89491,2.06411-9.58954-3.63446C533.47109,249.40957,534.20829,227.34733,534.393,224.94754Z"/><path class="cls-11" d="M534.08764,231.64253c2.87854,9.30191,11.14462,16.00812,19.79911,15.31821l1.38561-16.05153s-20.34966-12.90453-20.87935-5.96167c-.05654.73428.0753-1.43735-.23376,1.59947C534.28358,226.696,534.01969,231.42189,534.08764,231.64253Z"/><path class="cls-8" d="M559.84184,234.69826c-5.79487,4.65907-17.22035,3.37057-22.24791-1.77205a19.29342,19.29342,0,0,1-5.4405-10.7159c-.77658-4.65326-.41095-9.04924-1.1518-13.73187a29.14861,29.14861,0,0,1-.48819-6.10971,17.01368,17.01368,0,0,1,3.34972-9.19362c1.96256-2.63242,5.04279-3.97092,7.79315-5.66555,2.328-1.43464,4.93511-3.20571,7.68178-3.68541,1.89639-.33086,3.17253.79938,4.739,1.773,8.50934,5.28857,12.79236,17.32866,13.03366,26.98228C567.288,219.7663,565.8062,229.90445,559.84184,234.69826Z"/><path class="cls-7" d="M534.77367,210.65569c2.93337,2.24711,5.47447,5.31133,8.64891,7.2181,4.20757,2.52874,7.78546,2.79168,11.925.03109a15.24373,15.24373,0,0,1,11.74614-2.527c-.24324,6.82492-2.02648,15.12132-7.25192,19.32041-5.79487,4.65907-17.22035,3.37057-22.2462-1.77205a19.282,19.282,0,0,1-5.44221-10.7159c-.77289-4.64478-.41095-9.03417-1.1499-13.70733A14.02568,14.02568,0,0,1,534.77367,210.65569Z"/><path class="cls-8" d="M529.06955,507.79979s7.58544,19.3976-8.059,81.83019c-1.25164,4.99823-5.14631,4.68069-7.22932,3.0708a4.33666,4.33666,0,0,1-1.40627-3.11695s-3.759-72.41707-1.90023-81.19317C512.32982,499.61285,529.06955,507.79979,529.06955,507.79979Z"/><path class="cls-15" d="M510.12422,366.311a17.17592,17.17592,0,0,0-1.51938,4.67316c-3.11786,23.68061-3.0727,39.40323-3.15937,60.78792-.06042,15.13638,1.60042,61.97432,2.52216,79.56608.36194,6.92586,15.76317,11.83281,20.78514,7.42446,3.15572-2.77292,5.3725-5.14916,6.95789-8.81372,1.56283-3.60992,7.23492-84.1763,8.1003-99.08257,1.02172-17.5248.96884-7.81286,1.20644-25.365q.13-9.594.16216-19.19028Z"/><path class="cls-8" d="M562.90879,358.57838c1.56838-31.337,7.66306-77.43887,3.71181-81.89812-6.9523-7.84763,2.8992-1.9435-2.13011-8.23309-7.52545-9.40388-30.91942-19.2206-40.32421-5.61014-3.18775,4.61562-.411,14.63408-1.163,18.09033-1.66842,7.65827-2.29981,45.8145-4.18867,76.54822Z"/><path class="cls-16" d="M568.32664,253.80186c-1.73613-.61077-13.00912-3.00767-15.05066-3.37734-2.38473,2.15485-5.29336-.96883-8.84112-1.11109-3.69663-.148-8.03235,2.60038-10.49815.68432a3.0148,3.0148,0,0,1-.36948-.35076c-1.81915.099,2.986.25172,1.10839.41559-4.9106.561-19.90469,7.71481-23.05656,9.65849-12.91473,7.96436-8.27361,19.15725-8.00028,23.70976.72579,12.09937,1.87569,107.82375-.31118,120.89215h78.5181c1.32713-1.15644-1.87185-107.0574-2.805-122.45011C577.77469,261.30916,578.37987,257.33729,568.32664,253.80186Z"/><path class="cls-10" d="M541.74492,598.91028c-2.4695-.36095-3.23485-.01967-5.71013-.42506a25.21263,25.21263,0,0,1-7.04826-2.35174,48.7851,48.7851,0,0,1-7.24629-4.803,6.157,6.157,0,0,0-.72024-.49108c-3.34024,1.54194-5.25185,1.43925-8.82974-.07453a1.31549,1.31549,0,0,1-.68622-.592,1.7146,1.7146,0,0,0-.28086.28376,5.54619,5.54619,0,0,0-.80862,2.63451c-.25271,1.65509-1.02929,8.53385-.68991,10.16344.47871,2.30445,13.02224,5.05112,17.13736,5.30555,5.54414.34493,9.77038.577,15.241-.30807C547.4398,607.38755,545.92605,599.52006,541.74492,598.91028Z"/><path class="cls-15" d="M573.72368,591.73753c2.01316-20.78221,5.08221-73.49342,3.71361-79.95735-1.85488-8.77709-22.20644-1.87668-22.20644-1.87668s-9.08245,19.441,7.04266,81.36651Z"/><path class="cls-15" d="M522.78068,591.8543c12.95452-55.94025,13.55388-88.13755,13.55388-88.13755s-28.791-10.63387-28.04262,5.608c.31659,6.8307.97462,61.10087,2.30734,82.80481Z"/><path class="cls-14" d="M534.31,242.30265l13.139,6.202-5.6063,13.70946-19.31846-8.41222S529.013,242.77017,534.31,242.30265Z"/><path class="cls-14" d="M547.44908,248.50462l7.79124,12.15131,6.02091-7.91536s-2.1811-7.00986-7.01059-7.78934Z"/><path class="cls-7" d="M567.646,179.22919c-.24882-3.37232-2.28473-3.41284-5.19143-2.9737-2.83144.427-5.62521,1.26591-8.53579,1.395a44.04826,44.04826,0,0,1-9.17662-.99258c-5.39514-.853-10.97515.52874-15.88576,3.0953-7.36888,3.85221-11.8515,16.61908-10.51512,25.00485.44108,2.77022,1.52128,2.118,3.63636,3.96533a12.08586,12.08586,0,0,0,3.45918,2.33089c1.0783.38275,2.562-.12434,3.68907-.24035.45828-.63044,1.73807.51558,2.12646,1.04915.62968.86615,1.01419,2.576,2.46756,2.14149,1.30646-.39028,1.757-2.05192,1.89075-3.21514.28281-2.47608-.06407-4.955.0226-7.43375.17719-5.09647,4.85788-5.10016,8.88073-5.842,6.89572-1.27249,13.23535-2.24711,18.9924-6.81739C566.68836,188.16934,567.93635,183.13984,567.646,179.22919Z"/><path class="cls-17" d="M664.12148,360.76876a15.44527,15.44527,0,1,1,10.419-29.08041c3.88326,1.39121,4.87294,2.1811,1.8682.59087l19.53716-54.51876-39.57951-14.18258a15.7681,15.7681,0,0,0,.73142-1.69,15.4461,15.4461,0,1,0-29.08154-10.42073,15.64717,15.64717,0,0,0-.5071,1.77011l-29.60346-10.60837a103.3465,103.3465,0,0,0,22.4836,84.6832l-15.58419,43.49211L656.027,389.1594l9.98352-27.85905A15.40815,15.40815,0,0,1,664.12148,360.76876Z"/><path class="cls-18" d="M752.31391,227.65076v58.125a15.6253,15.6253,0,0,0-1.96047-.13762,15.4464,15.4464,0,1,0,1.96047,30.75456v29.594h47.8552v-45.0557a103.36906,103.36906,0,0,0,51.73272-73.28033Z"/><path class="cls-19" d="M703.41665,342.90286h93.23849a12.03256,12.03256,0,0,1,12.03256,12.03256v39.09791a12.0316,12.0316,0,0,1-12.0316,12.0316H703.41837a12.03256,12.03256,0,0,1-12.03256-12.03256V354.93371A12.03085,12.03085,0,0,1,703.41665,342.90286Z"/><path class="cls-20" d="M703.41837,406.06494h19.22985a412.31826,412.31826,0,0,1,40.475-17.96782H691.3858v5.937A12.03164,12.03164,0,0,0,703.41837,406.06494Z"/><path class="cls-20" d="M726.47688,362.98478c13.7612-2.54688,27.63358-4.68263,41.17434-8.28966,8.01149-2.13495,15.90832-4.61582,23.71246-7.37177H694.10219a11.97843,11.97843,0,0,0-2.71639,7.61112v12.10691h13.65754Q715.74862,364.96732,726.47688,362.98478Z"/><path class="cls-20" d="M692.626,367.70964a16.93781,16.93781,0,0,0-.90667,5.483v14.56982h13.65753q10.70849-2.49535,21.4318-4.88241c13.7612-3.06421,27.63552-5.63446,41.17415-9.97505,4.91639-1.57592,9.78374-3.32517,14.61711-5.19531Z"/><path class="cls-19" d="M821.893,346.94733c0,2.42234-1.346,4.3865-3.00863,4.3865H681.18917c-1.66068,0-3.00862-1.96416-3.00862-4.3865h0c0-2.42336,1.34794-4.3867,3.00862-4.3867H818.88433c1.66263,0,3.00863,1.96334,3.00863,4.3867Z"/><path class="cls-19" d="M821.893,346.94733c0,2.42234-1.346,4.3865-3.00863,4.3865H681.18917c-1.66068,0-3.00862-1.96416-3.00862-4.3865h0c0-2.42336,1.34794-4.3867,3.00862-4.3867H818.88433c1.66263,0,3.00863,1.96334,3.00863,4.3867Z"/><path class="cls-19" d="M821.893,367.50137c0,2.4224-1.346,4.3867-3.00863,4.3867H681.18917c-1.66068,0-3.00862-1.9643-3.00862-4.3867h0c0-2.42315,1.34794-4.3865,3.00862-4.3865H818.88433c1.66263,0,3.00863,1.96335,3.00863,4.3865Z"/><path class="cls-19" d="M821.893,388.05466c0,2.42334-1.346,4.3867-3.00863,4.3867H681.18917c-1.66068,0-3.00862-1.96336-3.00862-4.3867h0c0-2.42236,1.34794-4.38571,3.00862-4.38571H818.88433c1.66263,0,3.00863,1.96335,3.00863,4.38571Z"/><path class="cls-21" d="M821.84761,346.32054c-.20732-2.12357-1.44774-3.75991-2.96328-3.75991H761.73566Z"/><path class="cls-21" d="M821.83642,366.70683c-.25461-2.04249-1.47806-3.592-2.95209-3.592H761.73566Z"/><path class="cls-21" d="M821.84761,387.42886c-.20732-2.12357-1.44774-3.75991-2.96328-3.75991H761.73566Z"/><path class="cls-22" d="M853.30809,210.63115A103.26359,103.26359,0,0,0,751.20936,107.375v48.95881a15.44507,15.44507,0,1,1,0,19.06868v52.24829h44.77847a15.44477,15.44477,0,1,0,22.97933,0h32.93467A104.00135,104.00135,0,0,0,853.30809,210.63115Z"/><path class="cls-23" d="M763.3456,150.42215a15.40663,15.40663,0,0,0-12.13624,5.91164V107.375c-.39033-.00464-.78047-.01506-1.17251-.01506A103.324,103.324,0,0,0,648.16993,227.65076h31.44718a15.44674,15.44674,0,1,1,30.65167,0h40.94058V175.40247a15.44091,15.44091,0,1,0,12.13624-24.98032Z"/><path class="cls-8" d="M559.83046,337.88089c-6.32072-27.101-12.08914-28.62616-18.61158-41.08189-9.55169-18.24016-32.22565-35.04685-36.69708-22.52223-2.19057,6.13889,37.96013,60.89337,44.0434,71.51118C552.36543,344.71525,555.49665,339.90737,559.83046,337.88089Z"/><path class="cls-13" d="M547.30218,349.429c-5.34994-8.79676-29.21144-41.16392-31.32287-44.5287-14.64336-23.36867-18.76422-29.20216-11.08054-38.07805,8.70525-10.05418,26.05012,9.66964,37.3513,26.31494,7.46309,10.99117,10.91839,16.932,20.2157,38.87916C563.55738,339.10628,554.341,352.79588,547.30218,349.429Z"/><path class="cls-8" d="M551.43792,344.72472c-2.049-1.88692-7.19146-8.37634-5.47793-12.11923,1.44005-3.13781,3.1368-3.33006,3.133-3.32907a316.97009,316.97009,0,0,1,49.08044-10.37656c13.74225-1.64657,4.76732,8.04468,4.76732,8.04468C588.8006,333.17181,575.982,340.2033,551.43792,344.72472Z"/><path class="cls-8" d="M604.15278,315.2135c-3.197,2.60053-6.22822,5.45263-5.81727,6.69788l.08667.24883q.48648-.11757.97637-.2357s-.8671.52311.38474-.09345c.09785-.02355.1959-.048.29589-.07236a2.80623,2.80623,0,0,0-.74839,3.14605c1.64756,3.9267,7.43858,1.70239,10.36053.89259a33.71028,33.71028,0,0,0,6.79768-2.92561c2.53357-1.35627,5.24242-6.51008,3.099-9.1342-2.19788-2.69108-4.84285,1.77959-6.62224-.39127-.986-1.20355,1.58539-5.42056-2.17741-3.18563C610.04573,310.73161,607.03133,312.87044,604.15278,315.2135Z"/><path class="cls-13" d="M595.1968,319.07146c-13.48422,1.76916-30.39919,3.66745-47.54409,8.62516-2.8841,4.20659-.25267,1.77106-1.69272,4.90887-1.71353,3.74289.46927,15.32494,2.51834,17.21091,22.20469-4.09062,37.40785-14.4596,50.07957-20.20547Z"/><path class="cls-14" d="M593.46816,332.0692c1.74561-.88135,3.44028-1.71082,5.08974-2.45827l-3.3611-10.53947c-1.86626.245-3.80606.52315-5.8005.82752Z"/><path class="cls-24" d="M749.12246,587.38017c-10.42267-7.138-32.188-12.04957-57.35405-12.04957s-46.93138,4.91156-57.35409,12.04957h-6.662v9.52624h.10364c0,11.91579,28.616,21.57595,63.91241,21.57595,35.29664,0,63.91043-9.66016,63.91043-21.57595v-9.52624Z"/><path class="cls-25" d="M755.67884,587.48191c0,11.91579-28.61379,21.57577-63.91043,21.57577-35.29645,0-63.91241-9.66-63.91241-21.57577,0-11.91656,28.616-21.57581,63.91241-21.57581C727.06505,565.9061,755.67884,575.56535,755.67884,587.48191Z"/><path class="cls-26" d="M744.86414,587.48191c0,9.89956-23.77311,17.92437-53.09573,17.92437-29.32459,0-53.09576-8.02481-53.09576-17.92437s23.77117-17.92532,53.09576-17.92532C721.091,569.55659,744.86414,577.58235,744.86414,587.48191Z"/><path class="cls-27" d="M648.219,603.27054q45.112-15.26224,90.30553-30.49435-3.31678-1.20164-7.15018-2.2282-45.00494,15.1082-89.82873,30.27759C643.58151,601.69827,645.81724,602.51461,648.219,603.27054Z"/><path class="cls-27" d="M747.67279,577.03181a47.19517,47.19517,0,0,0-6.839-3.37228q-45.09527,15.16174-89.99846,30.38953c3.14069.885,6.54135,1.66643,10.14938,2.33762Q704.38633,591.7282,747.67279,577.03181Z"/><path class="cls-26" d="M744.86414,587.48191c0,9.89956-23.77311,17.92437-53.09573,17.92437-29.32459,0-53.09576-8.02481-53.09576-17.92437s23.77117-17.92532,53.09576-17.92532C721.091,569.55659,744.86414,577.58235,744.86414,587.48191Z"/><path class="cls-26" d="M720.73856,572.46328a136.98922,136.98922,0,0,0-28.97015-2.90669c-29.32459,0-53.09576,8.02576-53.09576,17.92532,0,3.59874,3.15575,6.94747,8.56223,9.75536Q683.9265,584.82971,720.73856,572.46328Z"/><path class="cls-26" d="M672.44435,604.1772a148.439,148.439,0,0,0,19.32406,1.22908c29.32262,0,53.09573-8.02481,53.09573-17.92437,0-2.32142-1.31785-4.53748-3.69679-6.57339Q706.85119,592.55857,672.44435,604.1772Z"/><path class="cls-28" d="M640.96686,588.69877c0-9.89955,23.77311-17.92452,53.09576-17.92452,18.07241,0,34.02416,3.0501,43.61542,7.70724-9.19922-5.33583-26.30841-8.9249-45.90963-8.9249-29.32459,0-53.09576,8.02576-53.09576,17.92532,0,3.79852,3.51016,7.3179,9.48031,10.21729C643.59292,595.05347,640.96686,591.98077,640.96686,588.69877Z"/><path class="cls-25" d="M689.94925,574.89416h7.23682v2.016a58.23781,58.23781,0,0,1,15.17325,2.2527l-7.97965,3.35551a44.84543,44.84543,0,0,0-7.32349-1.54484v4.25369q16.61236,1.70807,16.61326,6.3292,0,2.326-4.23012,3.91548-4.23006,1.59051-12.47175,2.09058v2.56077h-7.10693v-2.53162h-1.17615a67.493,67.493,0,0,1-9.3747-.7654,37.38188,37.38188,0,0,1-8.32653-1.95753l7.62909-3.22367a42.7721,42.7721,0,0,0,11.24829,2.11988v-4.94649A43.88986,43.88986,0,0,1,677.762,586.464q-4.16487-1.67823-4.16412-3.88615,0-2.33985,4.03229-3.95219,4.03229-1.61163,12.31905-1.74462Zm-.08861,9.582v-3.62035q-4.05489.47078-4.053,1.75119Q685.80769,583.99105,689.86064,584.47618Zm7.19554,5.21133v3.82672q4.49005-.38163,4.49015-1.89829Q701.54633,590.23185,697.05618,589.68751Z"/><path class="cls-24" d="M688.20189,574.89416h7.23492v2.016a58.23994,58.23994,0,0,1,15.175,2.2527l-7.97767,3.35551a44.9035,44.9035,0,0,0-7.32547-1.54484v4.25369q16.60951,1.70807,16.61155,6.3292,0,2.326-4.23017,3.91548-4.23033,1.59051-12.47,2.09058v2.56077h-7.105v-2.53162h-1.18a67.47005,67.47005,0,0,1-9.37276-.7654,37.39707,37.39707,0,0,1-8.32823-1.95753l7.63083-3.22367A42.75727,42.75727,0,0,0,688.115,593.765v-4.94649a43.8888,43.8888,0,0,1-12.10032-2.35444q-4.16522-1.67823-4.16435-3.88615,0-2.33985,4.03229-3.95219,4.03519-1.61163,12.31924-1.74462Zm-.08686,9.582v-3.62035q-4.05746.47078-4.0566,1.75119Q684.05843,583.99105,688.115,584.47618Zm7.1936,5.21133v3.82672q4.49034-.38163,4.49037-1.89829Q699.799,590.23185,695.30863,589.68751Z"/><path class="cls-25" d="M689.94925,574.89416h7.23682v2.016a58.23781,58.23781,0,0,1,15.17325,2.2527l-7.97965,3.35551a44.84543,44.84543,0,0,0-7.32349-1.54484v4.25369q16.61236,1.70807,16.61326,6.3292,0,2.326-4.23012,3.91548-4.23006,1.59051-12.47175,2.09058v2.56077h-7.10693v-2.53162h-1.17615a67.493,67.493,0,0,1-9.3747-.7654,37.38188,37.38188,0,0,1-8.32653-1.95753l7.62909-3.22367a42.7721,42.7721,0,0,0,11.24829,2.11988v-4.94649A43.88986,43.88986,0,0,1,677.762,586.464q-4.16487-1.67823-4.16412-3.88615,0-2.33985,4.03229-3.95219,4.03229-1.61163,12.31905-1.74462Zm-.08861,9.582v-3.62035q-4.05489.47078-4.053,1.75119Q685.80769,583.99105,689.86064,584.47618Zm7.19554,5.21133v3.82672q4.49005-.38163,4.49015-1.89829Q701.54633,590.23185,697.05618,589.68751Z"/><path class="cls-29" d="M655.86484,600.68427q37.46357-12.67653,74.99292-25.32917a73.651,73.651,0,0,0-7.21616-2.20944q-37.25715,12.51667-74.38972,25.07376A58.03119,58.03119,0,0,0,655.86484,600.68427Z"/><path class="cls-29" d="M739.66882,579.75109a34.65919,34.65919,0,0,0-6.53382-3.5034q-37.37586,12.58162-74.62347,25.20563a101.70829,101.70829,0,0,0,10.49624,2.22257Q704.3758,591.72615,739.66882,579.75109Z"/><path class="cls-24" d="M749.12246,574.61041c-10.42267-7.13783-32.188-12.04957-57.35405-12.04957s-46.93138,4.91174-57.35409,12.04957h-6.662v9.52642h.10364c0,11.91557,28.616,21.57577,63.91241,21.57577,35.29664,0,63.91043-9.6602,63.91043-21.57577v-9.52642Z"/><path class="cls-25" d="M755.67884,574.71135c0,11.91659-28.61379,21.5758-63.91043,21.5758-35.29645,0-63.91241-9.65921-63.91241-21.5758,0-11.9158,28.616-21.576,63.91241-21.576C727.06505,553.13539,755.67884,562.79555,755.67884,574.71135Z"/><path class="cls-26" d="M744.86414,574.71135c0,9.89955-23.77311,17.92531-53.09573,17.92531-29.32459,0-53.09576-8.02576-53.09576-17.92531,0-9.89876,23.77117-17.92457,53.09576-17.92457C721.091,556.78678,744.86414,564.81259,744.86414,574.71135Z"/><path class="cls-27" d="M648.219,590.5q45.112-15.26076,90.30553-30.49336-3.31678-1.20312-7.15018-2.2282Q686.3694,572.88662,641.5456,588.056C643.58151,588.92774,645.81724,589.74409,648.219,590.5Z"/><path class="cls-27" d="M747.67279,564.26223a47.20006,47.20006,0,0,0-6.839-3.37251q-45.09527,15.16209-89.99846,30.38973c3.14069.88509,6.54135,1.66647,10.14938,2.33747Q704.38633,578.95836,747.67279,564.26223Z"/><path class="cls-26" d="M744.86414,574.71135c0,9.89955-23.77311,17.92531-53.09573,17.92531-29.32459,0-53.09576-8.02576-53.09576-17.92531,0-9.89876,23.77117-17.92457,53.09576-17.92457C721.091,556.78678,744.86414,564.81259,744.86414,574.71135Z"/><path class="cls-26" d="M720.73856,559.69371a136.97317,136.97317,0,0,0-28.97015-2.90693c-29.32459,0-53.09576,8.02581-53.09576,17.92457,0,3.59949,3.15575,6.94845,8.56223,9.75634Q683.9265,572.05986,720.73856,559.69371Z"/><path class="cls-26" d="M672.44435,591.40763a148.452,148.452,0,0,0,19.32406,1.22809c29.32262,0,53.09573-8.02482,53.09573-17.92437,0-2.32066-1.31785-4.53745-3.69679-6.5724Q706.85119,579.78871,672.44435,591.40763Z"/><path class="cls-28" d="M640.96686,575.929c0-9.89956,23.77311-17.92437,53.09576-17.92437,18.07241,0,34.02416,3.05013,43.61542,7.70727-9.19922-5.33582-26.30841-8.92513-45.90963-8.92513-29.32459,0-53.09576,8.02581-53.09576,17.92457,0,3.79852,3.51016,7.31888,9.48031,10.21808C643.59292,582.2837,640.96686,579.21,640.96686,575.929Z"/><path class="cls-25" d="M689.94925,562.12459h7.23682v2.016a58.27438,58.27438,0,0,1,15.17325,2.25171l-7.97965,3.35649a44.92715,44.92715,0,0,0-7.32349-1.54582v4.25467q16.61236,1.70774,16.61326,6.3292,0,2.32565-4.23012,3.91529-4.23006,1.58937-12.47175,2.09055v2.561h-7.10693V584.8221h-1.17615a67.527,67.527,0,0,1-9.3747-.7654,37.38739,37.38739,0,0,1-8.32653-1.95776l7.62909-3.22443a42.69244,42.69244,0,0,0,11.24829,2.11992v-4.94572a43.94752,43.94752,0,0,1-12.09861-2.35444q-4.16487-1.67823-4.16412-3.88615,0-2.34134,4.03229-3.953,4.03229-1.612,12.31905-1.74367Zm-.08861,9.58182v-3.62115q-4.05489.472-4.053,1.75219Q685.80769,571.22149,689.86064,571.70641Zm7.19554,5.21054v3.82766q4.49005-.38334,4.49015-1.89924Q701.54633,577.46249,697.05618,576.917Z"/><path class="cls-24" d="M688.20189,562.12459h7.23492v2.016a58.27651,58.27651,0,0,1,15.175,2.25171l-7.97767,3.35649a44.98541,44.98541,0,0,0-7.32547-1.54582v4.25467q16.60951,1.70774,16.61155,6.3292,0,2.32565-4.23017,3.91529-4.23033,1.58937-12.47,2.09055v2.561h-7.105V584.8221h-1.18a67.504,67.504,0,0,1-9.37276-.7654,37.40258,37.40258,0,0,1-8.32823-1.95776l7.63083-3.22443a42.67769,42.67769,0,0,0,11.25019,2.11992v-4.94572a43.94644,43.94644,0,0,1-12.10032-2.35444q-4.16522-1.67823-4.16435-3.88615,0-2.34134,4.03229-3.953,4.03519-1.612,12.31924-1.74367Zm-.08686,9.58182v-3.62115q-4.05746.472-4.0566,1.75219Q684.05843,571.22149,688.115,571.70641Zm7.1936,5.21054v3.82766q4.49034-.38334,4.49037-1.89924Q699.799,577.46249,695.30863,576.917Z"/><path class="cls-25" d="M689.94925,562.12459h7.23682v2.016a58.27438,58.27438,0,0,1,15.17325,2.25171l-7.97965,3.35649a44.92715,44.92715,0,0,0-7.32349-1.54582v4.25467q16.61236,1.70774,16.61326,6.3292,0,2.32565-4.23012,3.91529-4.23006,1.58937-12.47175,2.09055v2.561h-7.10693V584.8221h-1.17615a67.527,67.527,0,0,1-9.3747-.7654,37.38739,37.38739,0,0,1-8.32653-1.95776l7.62909-3.22443a42.69244,42.69244,0,0,0,11.24829,2.11992v-4.94572a43.94752,43.94752,0,0,1-12.09861-2.35444q-4.16487-1.67823-4.16412-3.88615,0-2.34134,4.03229-3.953,4.03229-1.612,12.31905-1.74367Zm-.08861,9.58182v-3.62115q-4.05489.472-4.053,1.75219Q685.80769,571.22149,689.86064,571.70641Zm7.19554,5.21054v3.82766q4.49005-.38334,4.49015-1.89924Q701.54633,577.46249,697.05618,576.917Z"/><path class="cls-29" d="M655.86484,587.91451q37.46357-12.67624,74.99292-25.32993a73.63261,73.63261,0,0,0-7.21616-2.20849q-37.25715,12.51525-74.38972,25.07375A58.18408,58.18408,0,0,0,655.86484,587.91451Z"/><path class="cls-29" d="M739.66882,566.98052a34.67023,34.67023,0,0,0-6.53382-3.50259q-37.37586,12.58185-74.62347,25.20582a101.71745,101.71745,0,0,0,10.49624,2.22142Q704.3758,578.95716,739.66882,566.98052Z"/><path class="cls-24" d="M749.12246,560.5637c-10.42267-7.138-32.188-12.04957-57.35405-12.04957s-46.93138,4.91156-57.35409,12.04957h-6.662v9.52623h.10364c0,11.9158,28.616,21.576,63.91241,21.576,35.29664,0,63.91043-9.6602,63.91043-21.576V560.5637Z"/><path class="cls-25" d="M755.67884,560.66448c0,11.91675-28.61379,21.576-63.91043,21.576-35.29645,0-63.91241-9.65921-63.91241-21.576,0-11.9156,28.616-21.5758,63.91241-21.5758C727.06505,539.08868,755.67884,548.74888,755.67884,560.66448Z"/><ellipse class="cls-26" cx="691.7684" cy="560.66452" rx="53.09575" ry="17.92449"/><path class="cls-27" d="M648.219,576.45311q45.112-15.26082,90.30553-30.4934-3.31678-1.203-7.15018-2.228Q686.3694,558.8396,641.5456,574.0091C643.58151,574.881,645.81724,575.69719,648.219,576.45311Z"/><path class="cls-27" d="M747.67279,550.21534a47.19825,47.19825,0,0,0-6.839-3.37327q-45.09527,15.16321-89.99846,30.39052c3.14069.88505,6.54135,1.66643,10.14938,2.33762Q704.38633,564.91171,747.67279,550.21534Z"/><ellipse class="cls-26" cx="691.7684" cy="560.66452" rx="53.09575" ry="17.92449"/><path class="cls-26" d="M720.73856,545.64681a136.98918,136.98918,0,0,0-28.97015-2.9067c-29.32459,0-53.09576,8.02577-53.09576,17.92437,0,3.59969,3.15575,6.94747,8.56223,9.75631Q683.9265,558.01324,720.73856,545.64681Z"/><path class="cls-26" d="M672.44435,577.36073a148.44386,148.44386,0,0,0,19.32406,1.22828c29.32262,0,53.09573-8.025,53.09573-17.92453,0-2.32046-1.31785-4.53648-3.69679-6.57243Q706.85119,565.7421,672.44435,577.36073Z"/><path class="cls-28" d="M640.96686,561.8823c0-9.89952,23.77311-17.92452,53.09576-17.92452,18.07241,0,34.02416,3.05013,43.61542,7.70628-9.19922-5.33468-26.30841-8.92395-45.90963-8.92395-29.32459,0-53.09576,8.02577-53.09576,17.92437,0,3.79849,3.51016,7.31885,9.48031,10.21824C643.59292,568.237,640.96686,565.16331,640.96686,561.8823Z"/><path class="cls-25" d="M689.94925,548.07769h7.23682v2.016a58.198,58.198,0,0,1,15.17325,2.25271l-7.97965,3.3555a44.96874,44.96874,0,0,0-7.32349-1.54582v4.25467q16.61236,1.70808,16.61326,6.32939,0,2.3257-4.23012,3.91529-4.23006,1.58908-12.47175,2.0896v2.56176h-7.10693V570.7752h-1.17615a67.49285,67.49285,0,0,1-9.3747-.76539,37.43451,37.43451,0,0,1-8.32653-1.95754l7.62909-3.22446a42.69926,42.69926,0,0,0,11.24829,2.11972V562.002a43.91364,43.91364,0,0,1-12.09861-2.35539q-4.16487-1.67681-4.16412-3.8852,0-2.34133,4.03229-3.95315,4.03229-1.61163,12.31905-1.74367Zm-.08861,9.582v-3.6213q-4.05489.4722-4.053,1.75215Q685.80769,557.17345,689.86064,557.6597Zm7.19554,5.21038v3.82767q4.49005-.38312,4.49015-1.89928Q701.54633,563.41588,697.05618,562.87008Z"/><path class="cls-24" d="M688.20189,548.07769h7.23492v2.016a58.20013,58.20013,0,0,1,15.175,2.25271l-7.97767,3.3555a45.02709,45.02709,0,0,0-7.32547-1.54582v4.25467q16.60951,1.70808,16.61155,6.32939,0,2.3257-4.23017,3.91529-4.23033,1.58908-12.47,2.0896v2.56176h-7.105V570.7752h-1.18a67.46989,67.46989,0,0,1-9.37276-.76539,37.44972,37.44972,0,0,1-8.32823-1.95754l7.63083-3.22446a42.6845,42.6845,0,0,0,11.25019,2.11972V562.002a43.91257,43.91257,0,0,1-12.10032-2.35539q-4.16522-1.67681-4.16435-3.8852,0-2.34133,4.03229-3.95315,4.03519-1.61163,12.31924-1.74367Zm-.08686,9.582v-3.6213q-4.05746.4722-4.0566,1.75215Q684.05843,557.17345,688.115,557.6597Zm7.1936,5.21038v3.82767q4.49034-.38312,4.49037-1.89928Q699.799,563.41588,695.30863,562.87008Z"/><path class="cls-25" d="M689.94925,548.07769h7.23682v2.016a58.198,58.198,0,0,1,15.17325,2.25271l-7.97965,3.3555a44.96874,44.96874,0,0,0-7.32349-1.54582v4.25467q16.61236,1.70808,16.61326,6.32939,0,2.3257-4.23012,3.91529-4.23006,1.58908-12.47175,2.0896v2.56176h-7.10693V570.7752h-1.17615a67.49285,67.49285,0,0,1-9.3747-.76539,37.43451,37.43451,0,0,1-8.32653-1.95754l7.62909-3.22446a42.69926,42.69926,0,0,0,11.24829,2.11972V562.002a43.91364,43.91364,0,0,1-12.09861-2.35539q-4.16487-1.67681-4.16412-3.8852,0-2.34133,4.03229-3.95315,4.03229-1.61163,12.31905-1.74367Zm-.08861,9.582v-3.6213q-4.05489.4722-4.053,1.75215Q685.80769,557.17345,689.86064,557.6597Zm7.19554,5.21038v3.82767q4.49005-.38312,4.49015-1.89928Q701.54633,563.41588,697.05618,562.87008Z"/><path class="cls-29" d="M655.86484,573.8678q37.46357-12.67653,74.99292-25.33012a73.60386,73.60386,0,0,0-7.21616-2.2083q-37.25715,12.515-74.38972,25.07357A58.21575,58.21575,0,0,0,655.86484,573.8678Z"/><path class="cls-29" d="M739.66882,552.93366a34.72463,34.72463,0,0,0-6.53382-3.50339q-37.37586,12.58305-74.62347,25.20658a101.66327,101.66327,0,0,0,10.49624,2.22161Q704.3758,564.91017,739.66882,552.93366Z"/><path class="cls-24" d="M749.12246,547.79317c-10.42267-7.138-32.188-12.04862-57.35405-12.04862s-46.93138,4.91061-57.35409,12.04862h-6.662v9.52719h.10364c0,11.91579,28.616,21.57577,63.91241,21.57577,35.29664,0,63.91043-9.66,63.91043-21.57577v-9.52719Z"/><path class="cls-25" d="M755.67884,547.89487c0,11.91561-28.61379,21.57581-63.91043,21.57581-35.29645,0-63.91241-9.6602-63.91241-21.57581,0-11.91674,28.616-21.576,63.91241-21.576C727.06505,526.31891,755.67884,535.97813,755.67884,547.89487Z"/><ellipse class="cls-26" cx="691.7684" cy="547.89483" rx="53.09575" ry="17.92441"/><path class="cls-27" d="M648.219,563.68354q45.112-15.26082,90.30553-30.49435-3.31678-1.20164-7.15018-2.22725-45.00494,15.10677-89.82873,30.27759C643.58151,562.11127,645.81724,562.92761,648.219,563.68354Z"/><path class="cls-27" d="M747.67279,537.44481a47.31631,47.31631,0,0,0-6.839-3.37251q-45.09527,15.162-89.99846,30.39067c3.14069.8851,6.54135,1.66552,10.14938,2.33648Q704.38633,552.141,747.67279,537.44481Z"/><ellipse class="cls-26" cx="691.7684" cy="547.89483" rx="53.09575" ry="17.92441"/><path class="cls-26" d="M720.73856,532.87628a137.0395,137.0395,0,0,0-28.97015-2.90593c-29.32459,0-53.09576,8.025-53.09576,17.92452,0,3.5995,3.15575,6.94751,8.56223,9.75635Q683.9265,545.24189,720.73856,532.87628Z"/><path class="cls-26" d="M672.44435,564.59115a148.445,148.445,0,0,0,19.32406,1.22809c29.32262,0,53.09573-8.02481,53.09573-17.92437,0-2.32141-1.31785-4.53744-3.69679-6.5724Q706.85119,552.97225,672.44435,564.59115Z"/><path class="cls-28" d="M640.96686,549.11178c0-9.8988,23.77311-17.92457,53.09576-17.92457,18.07241,0,34.02416,3.05109,43.61542,7.70728-9.19922-5.33488-26.30841-8.92414-45.90963-8.92414-29.32459,0-53.09576,8.025-53.09576,17.92452,0,3.79853,3.51016,7.31888,9.48031,10.21729C643.59292,555.46647,640.96686,552.39373,640.96686,549.11178Z"/><path class="cls-25" d="M689.94925,535.30712h7.23682v2.017a58.24036,58.24036,0,0,1,15.17325,2.25175l-7.97965,3.35646a44.82633,44.82633,0,0,0-7.32349-1.54583v4.25373q16.61236,1.708,16.61326,6.33015,0,2.32563-4.23012,3.91529-4.23006,1.58936-12.47175,2.08978v2.56176h-7.10693v-2.53261h-1.17615a67.497,67.497,0,0,1-9.3747-.76536,37.32477,37.32477,0,0,1-8.32653-1.95776l7.62909-3.22348a42.772,42.772,0,0,0,11.24829,2.11992v-4.94554a43.91181,43.91181,0,0,1-12.09861-2.35558q-4.16487-1.678-4.16412-3.886,0-2.33985,4.03229-3.95216,4.03229-1.61165,12.31905-1.74368Zm-.08861,9.58282v-3.62115q-4.05489.47083-4.053,1.75219Q685.80769,544.40358,689.86064,544.88994Zm7.19554,5.21057v3.82767q4.49005-.38311,4.49015-1.89928Q701.54633,550.64487,697.05618,550.10051Z"/><path class="cls-24" d="M688.20189,535.30712h7.23492v2.017a58.2425,58.2425,0,0,1,15.175,2.25175l-7.97767,3.35646a44.88437,44.88437,0,0,0-7.32547-1.54583v4.25373q16.60951,1.708,16.61155,6.33015,0,2.32563-4.23017,3.91529-4.23033,1.58936-12.47,2.08978v2.56176h-7.105v-2.53261h-1.18a67.474,67.474,0,0,1-9.37276-.76536,37.33994,37.33994,0,0,1-8.32823-1.95776l7.63083-3.22348A42.7572,42.7572,0,0,0,688.115,554.178v-4.94554a43.91074,43.91074,0,0,1-12.10032-2.35558q-4.16522-1.678-4.16435-3.886,0-2.33985,4.03229-3.95216,4.03519-1.61165,12.31924-1.74368Zm-.08686,9.58282v-3.62115q-4.05746.47083-4.0566,1.75219Q684.05843,544.40358,688.115,544.88994Zm7.1936,5.21057v3.82767q4.49034-.38311,4.49037-1.89928Q699.799,550.64487,695.30863,550.10051Z"/><path class="cls-25" d="M689.94925,535.30712h7.23682v2.017a58.24036,58.24036,0,0,1,15.17325,2.25175l-7.97965,3.35646a44.82633,44.82633,0,0,0-7.32349-1.54583v4.25373q16.61236,1.708,16.61326,6.33015,0,2.32563-4.23012,3.91529-4.23006,1.58936-12.47175,2.08978v2.56176h-7.10693v-2.53261h-1.17615a67.497,67.497,0,0,1-9.3747-.76536,37.32477,37.32477,0,0,1-8.32653-1.95776l7.62909-3.22348a42.772,42.772,0,0,0,11.24829,2.11992v-4.94554a43.91181,43.91181,0,0,1-12.09861-2.35558q-4.16487-1.678-4.16412-3.886,0-2.33985,4.03229-3.95216,4.03229-1.61165,12.31905-1.74368Zm-.08861,9.58282v-3.62115q-4.05489.47083-4.053,1.75219Q685.80769,544.40358,689.86064,544.88994Zm7.19554,5.21057v3.82767q4.49005-.38311,4.49015-1.89928Q701.54633,550.64487,697.05618,550.10051Z"/><path class="cls-29" d="M655.86484,561.097q37.46357-12.67476,74.99292-25.32894a73.37713,73.37713,0,0,0-7.21616-2.20849q-37.25715,12.51525-74.38972,25.07277A57.98839,57.98839,0,0,0,655.86484,561.097Z"/><path class="cls-29" d="M739.66882,540.16409a34.71371,34.71371,0,0,0-6.53382-3.5034q-37.37586,12.58156-74.62347,25.20559a101.64894,101.64894,0,0,0,10.49624,2.22242Q704.3758,552.13919,739.66882,540.16409Z"/><path class="cls-24" d="M749.12246,535.84146c-10.42267-7.13782-32.188-12.04862-57.35405-12.04862s-46.93138,4.9108-57.35409,12.04862h-6.662v9.52642h.10364c0,11.9158,28.616,21.576,63.91241,21.576,35.29664,0,63.91043-9.66016,63.91043-21.576v-9.52642Z"/><path class="cls-25" d="M755.67884,535.94339c0,11.9156-28.61379,21.57577-63.91043,21.57577-35.29645,0-63.91241-9.66017-63.91241-21.57577,0-11.91675,28.616-21.576,63.91241-21.576C727.06505,514.36739,755.67884,524.02664,755.67884,535.94339Z"/><ellipse class="cls-26" cx="691.7684" cy="535.94334" rx="53.09575" ry="17.92442"/><path class="cls-27" d="M648.219,551.732q45.112-15.26223,90.30553-30.49435-3.31678-1.20162-7.15018-2.2282-45.00494,15.10821-89.82873,30.2776C643.58151,550.15975,645.81724,550.97609,648.219,551.732Z"/><path class="cls-27" d="M747.67279,525.49329a47.21447,47.21447,0,0,0-6.839-3.37247q-45.09527,15.162-89.99846,30.38972c3.14069.885,6.54135,1.66643,10.14938,2.33743Q704.38633,540.18943,747.67279,525.49329Z"/><ellipse class="cls-26" cx="691.7684" cy="535.94334" rx="53.09575" ry="17.92442"/><path class="cls-26" d="M720.73856,520.92476a137.04213,137.04213,0,0,0-28.97015-2.90593c-29.32459,0-53.09576,8.025-53.09576,17.92456,0,3.59855,3.15575,6.94747,8.56223,9.75536Q683.9265,533.2909,720.73856,520.92476Z"/><path class="cls-26" d="M672.44435,552.63868a148.27244,148.27244,0,0,0,19.32406,1.22908c29.32262,0,53.09573-8.02482,53.09573-17.92437,0-2.32165-1.31785-4.53748-3.69679-6.57339Q706.85119,541.01977,672.44435,552.63868Z"/><path class="cls-28" d="M640.96686,537.16025c0-9.89974,23.77311-17.92452,53.09576-17.92452,18.07241,0,34.02416,3.0501,43.61542,7.70724-9.19922-5.33583-26.30841-8.92414-45.90963-8.92414-29.32459,0-53.09576,8.025-53.09576,17.92456,0,3.79852,3.51016,7.3179,9.48031,10.21729C643.59292,543.51476,640.96686,540.442,640.96686,537.16025Z"/><path class="cls-25" d="M689.94925,523.35564h7.23682v2.016a58.23781,58.23781,0,0,1,15.17325,2.2527l-7.97965,3.3555a44.806,44.806,0,0,0-7.32349-1.54483v4.25369q16.61236,1.70806,16.61326,6.3292,0,2.32563-4.23012,3.91529-4.23006,1.5908-12.47175,2.09077v2.56077h-7.10693v-2.53162h-1.17615a67.493,67.493,0,0,1-9.3747-.7654,37.38042,37.38042,0,0,1-8.32653-1.95772l7.62909-3.22348a42.7721,42.7721,0,0,0,11.24829,2.11988V537.28a43.88168,43.88168,0,0,1-12.09861-2.35463q-4.16487-1.67823-4.16412-3.886,0-2.34013,4.03229-3.9522,4.03229-1.61162,12.31905-1.74461Zm-.08861,9.582v-3.62034q-4.05489.47076-4.053,1.7512Q685.80769,532.45253,689.86064,532.93765Zm7.19554,5.21134v3.82672q4.49005-.38193,4.49015-1.8983Q701.54633,538.69333,697.05618,538.149Z"/><path class="cls-24" d="M688.20189,523.35564h7.23492v2.016a58.23994,58.23994,0,0,1,15.175,2.2527l-7.97767,3.3555a44.864,44.864,0,0,0-7.32547-1.54483v4.25369q16.60951,1.70806,16.61155,6.3292,0,2.32563-4.23017,3.91529-4.23033,1.5908-12.47,2.09077v2.56077h-7.105v-2.53162h-1.18a67.47005,67.47005,0,0,1-9.37276-.7654A37.39561,37.39561,0,0,1,669.234,543.33l7.63083-3.22348a42.75727,42.75727,0,0,0,11.25019,2.11988V537.28a43.88062,43.88062,0,0,1-12.10032-2.35463q-4.16522-1.67823-4.16435-3.886,0-2.34013,4.03229-3.9522,4.03519-1.61162,12.31924-1.74461Zm-.08686,9.582v-3.62034q-4.05746.47076-4.0566,1.7512Q684.05843,532.45253,688.115,532.93765Zm7.1936,5.21134v3.82672q4.49034-.38193,4.49037-1.8983Q699.799,538.69333,695.30863,538.149Z"/><path class="cls-25" d="M689.94925,523.35564h7.23682v2.016a58.23781,58.23781,0,0,1,15.17325,2.2527l-7.97965,3.3555a44.806,44.806,0,0,0-7.32349-1.54483v4.25369q16.61236,1.70806,16.61326,6.3292,0,2.32563-4.23012,3.91529-4.23006,1.5908-12.47175,2.09077v2.56077h-7.10693v-2.53162h-1.17615a67.493,67.493,0,0,1-9.3747-.7654,37.38042,37.38042,0,0,1-8.32653-1.95772l7.62909-3.22348a42.7721,42.7721,0,0,0,11.24829,2.11988V537.28a43.88168,43.88168,0,0,1-12.09861-2.35463q-4.16487-1.67823-4.16412-3.886,0-2.34013,4.03229-3.9522,4.03229-1.61162,12.31905-1.74461Zm-.08861,9.582v-3.62034q-4.05489.47076-4.053,1.7512Q685.80769,532.45253,689.86064,532.93765Zm7.19554,5.21134v3.82672q4.49005-.38193,4.49015-1.8983Q701.54633,538.69333,697.05618,538.149Z"/><path class="cls-29" d="M655.86484,549.14556q37.46357-12.67624,74.99292-25.32894a73.637,73.637,0,0,0-7.21616-2.20948q-37.25715,12.51668-74.38972,25.07375A57.99592,57.99592,0,0,0,655.86484,549.14556Z"/><path class="cls-29" d="M739.66882,528.21256a34.65748,34.65748,0,0,0-6.53382-3.50335q-37.37586,12.58156-74.62347,25.20559a101.65978,101.65978,0,0,0,10.49624,2.22238Q704.3758,540.18773,739.66882,528.21256Z"/><path class="cls-24" d="M749.12246,523.07188c-10.42267-7.13781-32.188-12.04956-57.35405-12.04956s-46.93138,4.91175-57.35409,12.04956h-6.662v9.52643h.10364c0,11.91557,28.616,21.57577,63.91241,21.57577,35.29664,0,63.91043-9.6602,63.91043-21.57577v-9.52643Z"/><path class="cls-25" d="M755.67884,523.17282c0,11.91659-28.61379,21.57676-63.91043,21.57676-35.29645,0-63.91241-9.66017-63.91241-21.57676,0-11.91579,28.616-21.57595,63.91241-21.57595C727.06505,501.59687,755.67884,511.257,755.67884,523.17282Z"/><path class="cls-26" d="M744.86414,523.17282c0,9.89956-23.77311,17.92533-53.09573,17.92533-29.32459,0-53.09576-8.02577-53.09576-17.92533,0-9.89875,23.77117-17.92456,53.09576-17.92456C721.091,505.24826,744.86414,513.27407,744.86414,523.17282Z"/><path class="cls-27" d="M648.219,538.96224q45.112-15.26194,90.30553-30.49415-3.31678-1.20312-7.15018-2.2282Q686.3694,521.3481,641.5456,536.51726C643.58151,537.38922,645.81724,538.20633,648.219,538.96224Z"/><path class="cls-27" d="M747.67279,512.72371a47.20006,47.20006,0,0,0-6.839-3.37251q-45.09527,15.16181-89.99846,30.38972c3.14069.8851,6.54135,1.66628,10.14938,2.33748Q704.38633,527.41984,747.67279,512.72371Z"/><path class="cls-26" d="M744.86414,523.17282c0,9.89956-23.77311,17.92533-53.09573,17.92533-29.32459,0-53.09576-8.02577-53.09576-17.92533,0-9.89875,23.77117-17.92456,53.09576-17.92456C721.091,505.24826,744.86414,513.27407,744.86414,523.17282Z"/><path class="cls-26" d="M720.73856,508.15519a136.97317,136.97317,0,0,0-28.97015-2.90693c-29.32459,0-53.09576,8.02581-53.09576,17.92456,0,3.5995,3.15575,6.94846,8.56223,9.75635Q683.9265,520.52134,720.73856,508.15519Z"/><path class="cls-26" d="M672.44435,539.86911a148.47963,148.47963,0,0,0,19.32406,1.229c29.32262,0,53.09573-8.02577,53.09573-17.92533,0-2.32065-1.31785-4.53649-3.69679-6.57239Q706.85119,528.25018,672.44435,539.86911Z"/><path class="cls-28" d="M640.96686,524.39049c0-9.89956,23.77311-17.92437,53.09576-17.92437,18.07241,0,34.02416,3.05013,43.61542,7.70727-9.19922-5.33583-26.30841-8.92513-45.90963-8.92513-29.32459,0-53.09576,8.02581-53.09576,17.92456,0,3.79834,3.51016,7.31889,9.48031,10.21809C643.59292,530.74518,640.96686,527.67149,640.96686,524.39049Z"/><path class="cls-25" d="M689.94925,510.58607h7.23682v2.016a58.27435,58.27435,0,0,1,15.17325,2.25172l-7.97965,3.35649a44.92608,44.92608,0,0,0-7.32349-1.54582v4.25467q16.61236,1.70779,16.61326,6.3292,0,2.32565-4.23012,3.91529-4.23006,1.58908-12.47175,2.09055v2.561h-7.10693v-2.53163h-1.17615a67.527,67.527,0,0,1-9.3747-.7654,37.38795,37.38795,0,0,1-8.32653-1.95776l7.62909-3.22443a42.72239,42.72239,0,0,0,11.24829,2.12068v-4.94648a43.95421,43.95421,0,0,1-12.09861-2.35445q-4.16487-1.67822-4.16412-3.88614,0-2.33991,4.03229-3.953,4.03229-1.61049,12.31905-1.74386Zm-.08861,9.58182v-3.62134q-4.05489.47226-4.053,1.75238Q685.80769,519.683,689.86064,520.16789Zm7.19554,5.21034v3.82767q4.49005-.38306,4.49015-1.89829Q701.54633,525.92359,697.05618,525.37823Z"/><path class="cls-24" d="M688.20189,510.58607h7.23492v2.016a58.27648,58.27648,0,0,1,15.175,2.25172l-7.97767,3.35649a44.98434,44.98434,0,0,0-7.32547-1.54582v4.25467q16.60951,1.70779,16.61155,6.3292,0,2.32565-4.23017,3.91529-4.23033,1.58908-12.47,2.09055v2.561h-7.105v-2.53163h-1.18a67.504,67.504,0,0,1-9.37276-.7654,37.40314,37.40314,0,0,1-8.32823-1.95776l7.63083-3.22443a42.7076,42.7076,0,0,0,11.25019,2.12068v-4.94648a43.95313,43.95313,0,0,1-12.10032-2.35445q-4.16522-1.67822-4.16435-3.88614,0-2.33991,4.03229-3.953,4.03519-1.61049,12.31924-1.74386Zm-.08686,9.58182v-3.62134q-4.05746.47226-4.0566,1.75238Q684.05843,519.683,688.115,520.16789Zm7.1936,5.21034v3.82767q4.49034-.38306,4.49037-1.89829Q699.799,525.92359,695.30863,525.37823Z"/><path class="cls-25" d="M689.94925,510.58607h7.23682v2.016a58.27435,58.27435,0,0,1,15.17325,2.25172l-7.97965,3.35649a44.92608,44.92608,0,0,0-7.32349-1.54582v4.25467q16.61236,1.70779,16.61326,6.3292,0,2.32565-4.23012,3.91529-4.23006,1.58908-12.47175,2.09055v2.561h-7.10693v-2.53163h-1.17615a67.527,67.527,0,0,1-9.3747-.7654,37.38795,37.38795,0,0,1-8.32653-1.95776l7.62909-3.22443a42.72239,42.72239,0,0,0,11.24829,2.12068v-4.94648a43.95421,43.95421,0,0,1-12.09861-2.35445q-4.16487-1.67822-4.16412-3.88614,0-2.33991,4.03229-3.953,4.03229-1.61049,12.31905-1.74386Zm-.08861,9.58182v-3.62134q-4.05489.47226-4.053,1.75238Q685.80769,519.683,689.86064,520.16789Zm7.19554,5.21034v3.82767q4.49005-.38306,4.49015-1.89829Q701.54633,525.92359,697.05618,525.37823Z"/><path class="cls-29" d="M655.86484,536.376q37.46357-12.67624,74.99292-25.33012a73.68564,73.68564,0,0,0-7.21616-2.20831q-37.25715,12.51525-74.38972,25.07357A58.18519,58.18519,0,0,0,655.86484,536.376Z"/><path class="cls-29" d="M739.66882,515.442a34.67253,34.67253,0,0,0-6.53382-3.50259Q695.75914,524.521,658.51153,537.145a101.66853,101.66853,0,0,0,10.49624,2.22161Q704.3758,527.41864,739.66882,515.442Z"/><path class="cls-24" d="M749.12246,509.02423c-10.42267-7.13706-32.188-12.04862-57.35405-12.04862s-46.93138,4.91156-57.35409,12.04862h-6.662v9.52718h.10364c0,11.9158,28.616,21.576,63.91241,21.576,35.29664,0,63.91043-9.6602,63.91043-21.576v-9.52718Z"/><path class="cls-25" d="M755.67884,509.126c0,11.91656-28.61379,21.576-63.91043,21.576-35.29645,0-63.91241-9.6594-63.91241-21.576,0-11.9156,28.616-21.5758,63.91241-21.5758C727.06505,487.55016,755.67884,497.21036,755.67884,509.126Z"/><ellipse class="cls-26" cx="691.7684" cy="509.12595" rx="53.09575" ry="17.92435"/><path class="cls-27" d="M648.219,524.91459q45.112-15.26082,90.30553-30.4934-3.31678-1.20306-7.15018-2.2282-45.00494,15.10821-89.82873,30.2776C643.58151,523.34251,645.81724,524.15867,648.219,524.91459Z"/><path class="cls-27" d="M747.67279,498.67682a47.19926,47.19926,0,0,0-6.839-3.37328q-45.09527,15.16179-89.99846,30.39052c3.14069.88506,6.54135,1.66643,10.14938,2.33744Q704.38633,513.373,747.67279,498.67682Z"/><ellipse class="cls-26" cx="691.7684" cy="509.12595" rx="53.09575" ry="17.92435"/><path class="cls-26" d="M720.73856,494.10829a136.976,136.976,0,0,0-28.97015-2.9067c-29.32459,0-53.09576,8.02482-53.09576,17.92437,0,3.59969,3.15575,6.94842,8.56223,9.75631Q683.9265,506.47444,720.73856,494.10829Z"/><path class="cls-26" d="M672.44435,525.82221a148.445,148.445,0,0,0,19.32406,1.22809c29.32262,0,53.09573-8.02482,53.09573-17.92434,0-2.32046-1.31785-4.53747-3.69679-6.57243Q706.85119,514.20358,672.44435,525.82221Z"/><path class="cls-28" d="M640.96686,510.34378c0-9.89975,23.77311-17.92452,53.09576-17.92452,18.07241,0,34.02416,3.05013,43.61542,7.70628-9.19922-5.33487-26.30841-8.92395-45.90963-8.92395-29.32459,0-53.09576,8.02482-53.09576,17.92437,0,3.79849,3.51016,7.31885,9.48031,10.21824C643.59292,516.69847,640.96686,513.62479,640.96686,510.34378Z"/><path class="cls-25" d="M689.94925,496.53916h7.23682v2.01606a58.24036,58.24036,0,0,1,15.17325,2.25175l-7.97965,3.35645a44.9497,44.9497,0,0,0-7.32349-1.54583v4.25468q16.61236,1.70808,16.61326,6.3292,0,2.326-4.23012,3.91548-4.23006,1.58908-12.47175,2.0896v2.56175h-7.10693v-2.53162h-1.17615a67.49285,67.49285,0,0,1-9.3747-.76539,37.43507,37.43507,0,0,1-8.32653-1.95754l7.62909-3.22367a42.73305,42.73305,0,0,0,11.24829,2.11893v-4.94553a43.91364,43.91364,0,0,1-12.09861-2.35539q-4.16487-1.67681-4.16412-3.8852,0-2.34134,4.03229-3.95315,4.03229-1.61163,12.31905-1.74367Zm-.08861,9.582v-3.6213q-4.05489.4722-4.053,1.75215Q685.80769,505.63464,689.86064,506.12118Zm7.19554,5.21038v3.82767q4.49005-.38311,4.49015-1.89928Q701.54633,511.87736,697.05618,511.33156Z"/><path class="cls-24" d="M688.20189,496.53916h7.23492v2.01606a58.2425,58.2425,0,0,1,15.175,2.25175l-7.97767,3.35645a45.008,45.008,0,0,0-7.32547-1.54583v4.25468q16.60951,1.70808,16.61155,6.3292,0,2.326-4.23017,3.91548-4.23033,1.58908-12.47,2.0896v2.56175h-7.105v-2.53162h-1.18a67.46989,67.46989,0,0,1-9.37276-.76539,37.45028,37.45028,0,0,1-8.32823-1.95754l7.63083-3.22367A42.71827,42.71827,0,0,0,688.115,515.409v-4.94553a43.91257,43.91257,0,0,1-12.10032-2.35539q-4.16522-1.67681-4.16435-3.8852,0-2.34134,4.03229-3.95315,4.03519-1.61163,12.31924-1.74367Zm-.08686,9.582v-3.6213q-4.05746.4722-4.0566,1.75215Q684.05843,505.63464,688.115,506.12118Zm7.1936,5.21038v3.82767q4.49034-.38311,4.49037-1.89928Q699.799,511.87736,695.30863,511.33156Z"/><path class="cls-25" d="M689.94925,496.53916h7.23682v2.01606a58.24036,58.24036,0,0,1,15.17325,2.25175l-7.97965,3.35645a44.9497,44.9497,0,0,0-7.32349-1.54583v4.25468q16.61236,1.70808,16.61326,6.3292,0,2.326-4.23012,3.91548-4.23006,1.58908-12.47175,2.0896v2.56175h-7.10693v-2.53162h-1.17615a67.49285,67.49285,0,0,1-9.3747-.76539,37.43507,37.43507,0,0,1-8.32653-1.95754l7.62909-3.22367a42.73305,42.73305,0,0,0,11.24829,2.11893v-4.94553a43.91364,43.91364,0,0,1-12.09861-2.35539q-4.16487-1.67681-4.16412-3.8852,0-2.34134,4.03229-3.95315,4.03229-1.61163,12.31905-1.74367Zm-.08861,9.582v-3.6213q-4.05489.4722-4.053,1.75215Q685.80769,505.63464,689.86064,506.12118Zm7.19554,5.21038v3.82767q4.49005-.38311,4.49015-1.89928Q701.54633,511.87736,697.05618,511.33156Z"/><path class="cls-29" d="M655.86484,522.32909q37.46357-12.67624,74.99292-25.32894a73.37616,73.37616,0,0,0-7.21616-2.20948q-37.25715,12.51525-74.38972,25.07375A58.17645,58.17645,0,0,0,655.86484,522.32909Z"/><path class="cls-29" d="M739.66882,501.39513a34.71486,34.71486,0,0,0-6.53382-3.50339q-37.37586,12.58158-74.62347,25.20659a101.71585,101.71585,0,0,0,10.49624,2.22162Q704.3758,513.37164,739.66882,501.39513Z"/><path class="cls-24" d="M749.12246,496.25446c-10.42267-7.13782-32.188-12.04862-57.35405-12.04862s-46.93138,4.9108-57.35409,12.04862h-6.662v9.52738h.10364c0,11.9156,28.616,21.57576,63.91241,21.57576,35.29664,0,63.91043-9.66016,63.91043-21.57576v-9.52738Z"/><path class="cls-25" d="M755.67884,496.35635c0,11.91659-28.61379,21.57581-63.91043,21.57581-35.29645,0-63.91241-9.65922-63.91241-21.57581,0-11.91579,28.616-21.576,63.91241-21.576C727.06505,474.78039,755.67884,484.44056,755.67884,496.35635Z"/><ellipse class="cls-26" cx="691.7684" cy="496.35631" rx="53.09575" ry="17.92441"/><path class="cls-27" d="M648.219,512.145q45.112-15.2608,90.30553-30.49339-3.31678-1.20306-7.15018-2.2282Q686.3694,494.53019,641.5456,509.701C643.58151,510.57275,645.81724,511.38909,648.219,512.145Z"/><path class="cls-27" d="M747.67279,485.90723a47.19909,47.19909,0,0,0-6.839-3.37345q-45.09527,15.162-89.99846,30.39067c3.14069.88509,6.54135,1.66552,10.14938,2.33747Q704.38633,500.60338,747.67279,485.90723Z"/><ellipse class="cls-26" cx="691.7684" cy="496.35631" rx="53.09575" ry="17.92441"/><path class="cls-26" d="M720.73856,481.33776a137.0395,137.0395,0,0,0-28.97015-2.90593c-29.32459,0-53.09576,8.025-53.09576,17.92452,0,3.59954,3.15575,6.94751,8.56223,9.75635Q683.9265,493.70336,720.73856,481.33776Z"/><path class="cls-26" d="M672.44435,513.05263a148.445,148.445,0,0,0,19.32406,1.22809c29.32262,0,53.09573-8.02481,53.09573-17.92437,0-2.32161-1.31785-4.53744-3.69679-6.5724Q706.85119,501.43372,672.44435,513.05263Z"/><path class="cls-28" d="M640.96686,497.57306c0-9.8986,23.77311-17.92437,53.09576-17.92437,18.07241,0,34.02416,3.05109,43.61542,7.70728-9.19922-5.33488-26.30841-8.92414-45.90963-8.92414-29.32459,0-53.09576,8.025-53.09576,17.92452,0,3.79834,3.51016,7.31889,9.48031,10.21809C643.59292,503.92772,640.96686,500.855,640.96686,497.57306Z"/><path class="cls-25" d="M689.94925,483.7686h7.23682v2.017a58.23189,58.23189,0,0,1,15.17325,2.25175l-7.97965,3.35646a44.82633,44.82633,0,0,0-7.32349-1.54583v4.25468q16.61236,1.70629,16.61326,6.3292,0,2.32563-4.23012,3.91529-4.23006,1.58909-12.47175,2.08959v2.562h-7.10693v-2.53261h-1.17615a67.37988,67.37988,0,0,1-9.3747-.76536,37.33538,37.33538,0,0,1-8.32653-1.95776l7.62909-3.22348a42.772,42.772,0,0,0,11.24829,2.11992v-4.94573a43.90578,43.90578,0,0,1-12.09861-2.35539q-4.16487-1.67829-4.16412-3.88619,0-2.33985,4.03229-3.952,4.03229-1.6119,12.31905-1.74366Zm-.08861,9.58282v-3.62115q-4.05489.472-4.053,1.75219Q685.80769,492.86506,689.86064,493.35142Zm7.19554,5.21033v3.82791q4.49005-.3834,4.49015-1.89929Q701.54633,499.10607,697.05618,498.56175Z"/><path class="cls-24" d="M688.20189,483.7686h7.23492v2.017a58.234,58.234,0,0,1,15.175,2.25175l-7.97767,3.35646a44.88437,44.88437,0,0,0-7.32547-1.54583v4.25468q16.60951,1.70629,16.61155,6.3292,0,2.32563-4.23017,3.91529-4.23033,1.58909-12.47,2.08959v2.562h-7.105v-2.53261h-1.18a67.357,67.357,0,0,1-9.37276-.76536A37.35055,37.35055,0,0,1,669.234,503.743l7.63083-3.22348a42.7572,42.7572,0,0,0,11.25019,2.11992v-4.94573a43.90471,43.90471,0,0,1-12.10032-2.35539q-4.16522-1.67829-4.16435-3.88619,0-2.33985,4.03229-3.952,4.03519-1.6119,12.31924-1.74366Zm-.08686,9.58282v-3.62115q-4.05746.472-4.0566,1.75219Q684.05843,492.86506,688.115,493.35142Zm7.1936,5.21033v3.82791q4.49034-.3834,4.49037-1.89929Q699.799,499.10607,695.30863,498.56175Z"/><path class="cls-25" d="M689.94925,483.7686h7.23682v2.017a58.23189,58.23189,0,0,1,15.17325,2.25175l-7.97965,3.35646a44.82633,44.82633,0,0,0-7.32349-1.54583v4.25468q16.61236,1.70629,16.61326,6.3292,0,2.32563-4.23012,3.91529-4.23006,1.58909-12.47175,2.08959v2.562h-7.10693v-2.53261h-1.17615a67.37988,67.37988,0,0,1-9.3747-.76536,37.33538,37.33538,0,0,1-8.32653-1.95776l7.62909-3.22348a42.772,42.772,0,0,0,11.24829,2.11992v-4.94573a43.90578,43.90578,0,0,1-12.09861-2.35539q-4.16487-1.67829-4.16412-3.88619,0-2.33985,4.03229-3.952,4.03229-1.6119,12.31905-1.74366Zm-.08861,9.58282v-3.62115q-4.05489.472-4.053,1.75219Q685.80769,492.86506,689.86064,493.35142Zm7.19554,5.21033v3.82791q4.49005-.3834,4.49015-1.89929Q701.54633,499.10607,697.05618,498.56175Z"/><path class="cls-29" d="M655.86484,509.55951q37.46357-12.67624,74.99292-25.33012a73.42986,73.42986,0,0,0-7.21616-2.2083q-37.25715,12.51525-74.38972,25.07281A58.18015,58.18015,0,0,0,655.86484,509.55951Z"/><path class="cls-29" d="M739.66882,488.62556A34.72517,34.72517,0,0,0,733.135,485.122q-37.37586,12.58185-74.62347,25.20578a101.699,101.699,0,0,0,10.49624,2.22242Q704.3758,500.60067,739.66882,488.62556Z"/><path class="cls-24" d="M874.94527,594.1939c-10.42286-7.138-32.188-12.04957-57.35424-12.04957-25.166,0-46.93138,4.91156-57.3558,12.04957h-6.66006v9.5262h.10364c0,11.91679,28.61577,21.576,63.91222,21.576,35.29664,0,63.91043-9.65921,63.91043-21.576v-9.5262Z"/><path class="cls-25" d="M881.50146,594.2956c0,11.91561-28.61379,21.57581-63.91043,21.57581-35.29645,0-63.91222-9.6602-63.91222-21.57581,0-11.91579,28.61577-21.576,63.91222-21.576C852.88767,572.71965,881.50146,582.37981,881.50146,594.2956Z"/><ellipse class="cls-26" cx="817.59108" cy="594.29556" rx="53.09558" ry="17.92442"/><path class="cls-27" d="M774.0416,610.08423q45.11232-15.26076,90.30552-30.49431-3.3197-1.2017-7.15018-2.2282-45.00458,15.10821-89.82853,30.27755C769.40242,608.512,771.64005,609.32835,774.0416,610.08423Z"/><path class="cls-27" d="M873.49559,583.84554a47.405,47.405,0,0,0-6.83919-3.37251q-45.09816,15.162-89.99822,30.39067c3.14046.88411,6.54113,1.66552,10.14934,2.33649Q830.20629,598.54312,873.49559,583.84554Z"/><ellipse class="cls-26" cx="817.59108" cy="594.29556" rx="53.09558" ry="17.92442"/><path class="cls-26" d="M846.55942,579.277A136.96192,136.96192,0,0,0,817.591,576.371c-29.32455,0-53.09553,8.025-53.09553,17.92456,0,3.59855,3.15377,6.94751,8.562,9.75536Q809.74914,591.64313,846.55942,579.277Z"/><path class="cls-26" d="M798.267,610.99093A148.27766,148.27766,0,0,0,817.591,612.22c29.3228,0,53.09572-8.02481,53.09572-17.92437,0-2.3216-1.31765-4.53744-3.6966-6.57239Q832.67086,599.373,798.267,610.99093Z"/><path class="cls-28" d="M766.78971,595.51251c0-9.89975,23.77288-17.92456,53.09359-17.92456,18.07435,0,34.02609,3.05108,43.61758,7.70727-9.19945-5.33487-26.30668-8.92418-45.90985-8.92418-29.32455,0-53.09553,8.025-53.09553,17.92456,0,3.79853,3.50994,7.31794,9.47814,10.21729C769.4136,601.867,766.78971,598.79447,766.78971,595.51251Z"/><path class="cls-25" d="M815.77207,581.70786h7.23685v2.017a58.23986,58.23986,0,0,1,15.173,2.25172l-7.97942,3.35649a44.80786,44.80786,0,0,0-7.32566-1.54582V592.041q16.61534,1.70808,16.61349,6.3292,0,2.3257-4.22842,3.91628-4.23,1.58937-12.47174,2.08979V606.937h-7.10674v-2.53167h-1.17634a67.499,67.499,0,0,1-9.3747-.76536,37.375,37.375,0,0,1-8.32634-1.95776l7.6289-3.22348a42.77264,42.77264,0,0,0,11.24848,2.11992v-4.94553a43.909,43.909,0,0,1-12.09857-2.35562q-4.16229-1.67795-4.16416-3.886,0-2.33985,4.0321-3.95216,4.03229-1.61163,12.31925-1.74367Zm-.08862,9.58281v-3.62115q-4.05488.47083-4.05294,1.75219Q811.63051,590.80431,815.68345,591.29067Zm7.19341,5.21053v3.82672q4.49325-.38163,4.49228-1.89829Q827.36914,597.04675,822.87686,596.5012Z"/><path class="cls-24" d="M814.02452,581.70786h7.23491v2.017a58.24444,58.24444,0,0,1,15.17519,2.25172l-7.97771,3.35649a44.88608,44.88608,0,0,0-7.32566-1.54582V592.041q16.6098,1.70808,16.61155,6.3292,0,2.3257-4.23013,3.91628-4.23009,1.58937-12.47,2.08979V606.937H813.9359v-2.53167h-1.17824a67.47133,67.47133,0,0,1-9.3726-.76536,37.39773,37.39773,0,0,1-8.32844-1.95776l7.63084-3.22348a42.75683,42.75683,0,0,0,11.24844,2.11992v-4.94553a43.92727,43.92727,0,0,1-12.10051-2.35562q-4.16229-1.67795-4.16218-3.886,0-2.33985,4.03229-3.95216,4.03485-1.61163,12.319-1.74367Zm-.08862,9.58281v-3.62115q-4.05483.47083-4.05484,1.75219Q809.88106,590.80431,813.9359,591.29067Zm7.19535,5.21053v3.82672q4.4904-.38163,4.49038-1.89829Q825.62163,597.04675,821.13125,596.5012Z"/><path class="cls-25" d="M815.77207,581.70786h7.23685v2.017a58.23986,58.23986,0,0,1,15.173,2.25172l-7.97942,3.35649a44.80786,44.80786,0,0,0-7.32566-1.54582V592.041q16.61534,1.70808,16.61349,6.3292,0,2.3257-4.22842,3.91628-4.23,1.58937-12.47174,2.08979V606.937h-7.10674v-2.53167h-1.17634a67.499,67.499,0,0,1-9.3747-.76536,37.375,37.375,0,0,1-8.32634-1.95776l7.6289-3.22348a42.77264,42.77264,0,0,0,11.24848,2.11992v-4.94553a43.909,43.909,0,0,1-12.09857-2.35562q-4.16229-1.67795-4.16416-3.886,0-2.33985,4.0321-3.95216,4.03229-1.61163,12.31925-1.74367Zm-.08862,9.58281v-3.62115q-4.05488.47083-4.05294,1.75219Q811.63051,590.80431,815.68345,591.29067Zm7.19341,5.21053v3.82672q4.49325-.38163,4.49228-1.89829Q827.36914,597.04675,822.87686,596.5012Z"/><path class="cls-29" d="M781.68746,607.49778q37.46066-12.67624,74.993-25.32894a73.38755,73.38755,0,0,0-7.216-2.20849q-37.25707,12.51524-74.38967,25.07276A57.97708,57.97708,0,0,0,781.68746,607.49778Z"/><path class="cls-29" d="M865.49143,586.56478a34.70782,34.70782,0,0,0-6.53381-3.50335Q821.58182,595.643,784.33418,608.267a101.76072,101.76072,0,0,0,10.49621,2.22241Q830.19871,598.53994,865.49143,586.56478Z"/><path class="cls-24" d="M874.94527,581.4241c-10.42286-7.13782-32.188-12.04957-57.35424-12.04957-25.166,0-46.93138,4.91175-57.3558,12.04957h-6.66006v9.52643h.10364c0,11.9156,28.61577,21.5758,63.91222,21.5758,35.29664,0,63.91043-9.6602,63.91043-21.5758V581.4241Z"/><path class="cls-25" d="M881.50146,581.526c0,11.9156-28.61379,21.5758-63.91043,21.5758-35.29645,0-63.91222-9.6602-63.91222-21.5758,0-11.91675,28.61577-21.576,63.91222-21.576C852.88767,559.95,881.50146,569.60928,881.50146,581.526Z"/><ellipse class="cls-26" cx="817.59108" cy="581.52598" rx="53.09558" ry="17.92442"/><path class="cls-27" d="M774.0416,597.31465q45.11232-15.26219,90.30552-30.49435-3.3197-1.2019-7.15018-2.22816-45.00458,15.10815-89.82853,30.27737C769.40242,595.74144,771.64005,596.55854,774.0416,597.31465Z"/><path class="cls-27" d="M873.49559,571.07593a47.38853,47.38853,0,0,0-6.83919-3.37247q-45.09816,15.16173-89.99822,30.38972c3.14046.88505,6.54113,1.66647,10.14934,2.33743Q830.20629,585.77213,873.49559,571.07593Z"/><ellipse class="cls-26" cx="817.59108" cy="581.52598" rx="53.09558" ry="17.92442"/><path class="cls-26" d="M846.55942,566.5074a136.962,136.962,0,0,0-28.96839-2.90593c-29.32455,0-53.09553,8.02481-53.09553,17.92456,0,3.59855,3.15377,6.9475,8.562,9.75536Q809.74914,578.87354,846.55942,566.5074Z"/><path class="cls-26" d="M798.267,598.22136a148.47935,148.47935,0,0,0,19.32405,1.229c29.3228,0,53.09572-8.02482,53.09572-17.92437,0-2.32161-1.31765-4.53745-3.6966-6.57339Q832.67086,586.60247,798.267,598.22136Z"/><path class="cls-28" d="M766.78971,582.74274c0-9.89955,23.77288-17.92437,53.09359-17.92437,18.07435,0,34.02609,3.05014,43.61758,7.70727-9.19945-5.33586-26.30668-8.92417-45.90985-8.92417-29.32455,0-53.09553,8.02481-53.09553,17.92456,0,3.79833,3.50994,7.31793,9.47814,10.2171C769.4136,589.0974,766.78971,586.0247,766.78971,582.74274Z"/><path class="cls-25" d="M815.77207,568.93828h7.23685v2.01605a58.18771,58.18771,0,0,1,15.173,2.2527l-7.97942,3.3555a44.90909,44.90909,0,0,0-7.32566-1.54578v4.25464q16.61534,1.70778,16.61349,6.32919,0,2.3257-4.22842,3.91534-4.23,1.59051-12.47174,2.09054v2.561h-7.10674V591.6358h-1.17634a67.52987,67.52987,0,0,1-9.3747-.76536,37.38838,37.38838,0,0,1-8.32634-1.95776l7.6289-3.22348a42.76449,42.76449,0,0,0,11.24848,2.11969v-4.9455a43.94675,43.94675,0,0,1-12.09857-2.35543q-4.16229-1.67823-4.16416-3.88615,0-2.33985,4.0321-3.952,4.03229-1.612,12.31925-1.74465Zm-.08862,9.58182v-3.62034q-4.05488.47084-4.05294,1.75139Q811.63051,578.03523,815.68345,578.5201Zm7.19341,5.21134v3.82691q4.49325-.38193,4.49228-1.8983Q827.36914,584.27568,822.87686,583.73144Z"/><path class="cls-24" d="M814.02452,568.93828h7.23491v2.01605a58.1923,58.1923,0,0,1,15.17519,2.2527l-7.97771,3.3555a44.98766,44.98766,0,0,0-7.32566-1.54578v4.25464q16.6098,1.70778,16.61155,6.32919,0,2.3257-4.23013,3.91534-4.23009,1.59051-12.47,2.09054v2.561H813.9359V591.6358h-1.17824a67.5022,67.5022,0,0,1-9.3726-.76536,37.41118,37.41118,0,0,1-8.32844-1.95776l7.63084-3.22348a42.74868,42.74868,0,0,0,11.24844,2.11969v-4.9455a43.96507,43.96507,0,0,1-12.10051-2.35543q-4.16229-1.67823-4.16218-3.88615,0-2.33985,4.03229-3.952,4.03485-1.612,12.319-1.74465Zm-.08862,9.58182v-3.62034q-4.05483.47084-4.05484,1.75139Q809.88106,578.03523,813.9359,578.5201Zm7.19535,5.21134v3.82691q4.4904-.38193,4.49038-1.8983Q825.62163,584.27568,821.13125,583.73144Z"/><path class="cls-25" d="M815.77207,568.93828h7.23685v2.01605a58.18771,58.18771,0,0,1,15.173,2.2527l-7.97942,3.3555a44.90909,44.90909,0,0,0-7.32566-1.54578v4.25464q16.61534,1.70778,16.61349,6.32919,0,2.3257-4.22842,3.91534-4.23,1.59051-12.47174,2.09054v2.561h-7.10674V591.6358h-1.17634a67.52987,67.52987,0,0,1-9.3747-.76536,37.38838,37.38838,0,0,1-8.32634-1.95776l7.6289-3.22348a42.76449,42.76449,0,0,0,11.24848,2.11969v-4.9455a43.94675,43.94675,0,0,1-12.09857-2.35543q-4.16229-1.67823-4.16416-3.88615,0-2.33985,4.0321-3.952,4.03229-1.612,12.31925-1.74465Zm-.08862,9.58182v-3.62034q-4.05488.47084-4.05294,1.75139Q811.63051,578.03523,815.68345,578.5201Zm7.19341,5.21134v3.82691q4.49325-.38193,4.49228-1.8983Q827.36914,584.27568,822.87686,583.73144Z"/><path class="cls-29" d="M781.68746,594.7282q37.46066-12.67624,74.993-25.32913a73.70614,73.70614,0,0,0-7.216-2.20929q-37.25707,12.51525-74.38967,25.07376A58.19185,58.19185,0,0,0,781.68746,594.7282Z"/><path class="cls-29" d="M865.49143,573.79425a34.71545,34.71545,0,0,0-6.53381-3.50259q-37.3758,12.58156-74.62344,25.20559a101.767,101.767,0,0,0,10.49621,2.22261Q830.19871,585.77035,865.49143,573.79425Z"/><path class="cls-24" d="M874.94527,567.37743c-10.42286-7.138-32.188-12.04957-57.35424-12.04957-25.166,0-46.93138,4.91156-57.3558,12.04957h-6.66006v9.5262h.10364c0,11.91579,28.61577,21.576,63.91222,21.576,35.29664,0,63.91043-9.6602,63.91043-21.576v-9.5262Z"/><path class="cls-25" d="M881.50146,567.47818c0,11.91656-28.61379,21.57676-63.91043,21.57676-35.29645,0-63.91222-9.6602-63.91222-21.57676,0-11.9156,28.61577-21.57482,63.91222-21.57482C852.88767,545.90336,881.50146,555.56258,881.50146,567.47818Z"/><path class="cls-26" d="M870.68675,567.47818c0,9.89956-23.77292,17.92532-53.09572,17.92532-29.32455,0-53.09553-8.02576-53.09553-17.92532,0-9.89861,23.771-17.92437,53.09553-17.92437C846.91383,549.55381,870.68675,557.57957,870.68675,567.47818Z"/><path class="cls-27" d="M774.0416,583.26779q45.11232-15.26223,90.30552-30.49435-3.3197-1.20311-7.15018-2.2282-45.00458,15.10821-89.82853,30.27756C769.40242,581.69473,771.64005,582.51088,774.0416,583.26779Z"/><path class="cls-27" d="M873.49559,557.02907a47.38454,47.38454,0,0,0-6.83919-3.37232q-45.09816,15.16174-89.99822,30.38953c3.14046.885,6.54113,1.66647,10.14934,2.33766Q830.20629,571.7254,873.49559,557.02907Z"/><path class="cls-26" d="M870.68675,567.47818c0,9.89956-23.77292,17.92532-53.09572,17.92532-29.32455,0-53.09553-8.02576-53.09553-17.92532,0-9.89861,23.771-17.92437,53.09553-17.92437C846.91383,549.55381,870.68675,557.57957,870.68675,567.47818Z"/><path class="cls-26" d="M846.55942,552.46054a136.96868,136.96868,0,0,0-28.96839-2.90673c-29.32455,0-53.09553,8.02576-53.09553,17.92437,0,3.59969,3.15377,6.94846,8.562,9.75631Q809.74914,564.827,846.55942,552.46054Z"/><path class="cls-26" d="M798.267,584.17446a148.446,148.446,0,0,0,19.32405,1.229c29.3228,0,53.09572-8.02576,53.09572-17.92532,0-2.32047-1.31765-4.53649-3.6966-6.57244Q832.67086,572.55585,798.267,584.17446Z"/><path class="cls-28" d="M766.78971,568.696c0-9.89975,23.77288-17.92456,53.09359-17.92456,18.07435,0,34.02609,3.05013,43.61758,7.70728-9.19945-5.33587-26.30668-8.92494-45.90985-8.92494-29.32455,0-53.09553,8.02576-53.09553,17.92437,0,3.79852,3.50994,7.31888,9.47814,10.21824C769.4136,575.05073,766.78971,571.977,766.78971,568.696Z"/><path class="cls-25" d="M815.77207,554.89138h7.23685v2.016a58.28216,58.28216,0,0,1,15.173,2.25175l-7.97942,3.35649a44.93,44.93,0,0,0-7.32566-1.54582v4.25468q16.61534,1.708,16.61349,6.32916,0,2.326-4.22842,3.91552-4.23,1.589-12.47174,2.09054v2.56081h-7.10674V577.5889h-1.17634a67.50053,67.50053,0,0,1-9.3747-.76536,37.43022,37.43022,0,0,1-8.32634-1.95757l7.6289-3.22367a42.77345,42.77345,0,0,0,11.24848,2.11992v-4.94649a43.87564,43.87564,0,0,1-12.09857-2.35543q-4.16229-1.6768-4.16416-3.8852,0-2.34128,4.0321-3.95216,4.03229-1.6131,12.31925-1.74465Zm-.08862,9.582v-3.62035q-4.05488.47083-4.05294,1.7512Q811.63051,563.98833,815.68345,564.4734Zm7.19341,5.21137v3.82668q4.49325-.38163,4.49228-1.89829Q827.36914,570.22913,822.87686,569.68477Z"/><path class="cls-24" d="M814.02452,554.89138h7.23491v2.016a58.28674,58.28674,0,0,1,15.17519,2.25175l-7.97771,3.35649a45.00865,45.00865,0,0,0-7.32566-1.54582v4.25468q16.6098,1.708,16.61155,6.32916,0,2.326-4.23013,3.91552-4.23009,1.589-12.47,2.09054v2.56081H813.9359V577.5889h-1.17824a67.47287,67.47287,0,0,1-9.3726-.76536,37.45305,37.45305,0,0,1-8.32844-1.95757l7.63084-3.22367a42.75764,42.75764,0,0,0,11.24844,2.11992v-4.94649a43.89393,43.89393,0,0,1-12.10051-2.35543q-4.16229-1.6768-4.16218-3.8852,0-2.34128,4.03229-3.95216,4.03485-1.6131,12.319-1.74465Zm-.08862,9.582v-3.62035q-4.05483.47083-4.05484,1.7512Q809.88106,563.98833,813.9359,564.4734Zm7.19535,5.21137v3.82668q4.4904-.38163,4.49038-1.89829Q825.62163,570.22913,821.13125,569.68477Z"/><path class="cls-25" d="M815.77207,554.89138h7.23685v2.016a58.28216,58.28216,0,0,1,15.173,2.25175l-7.97942,3.35649a44.93,44.93,0,0,0-7.32566-1.54582v4.25468q16.61534,1.708,16.61349,6.32916,0,2.326-4.22842,3.91552-4.23,1.589-12.47174,2.09054v2.56081h-7.10674V577.5889h-1.17634a67.50053,67.50053,0,0,1-9.3747-.76536,37.43022,37.43022,0,0,1-8.32634-1.95757l7.6289-3.22367a42.77345,42.77345,0,0,0,11.24848,2.11992v-4.94649a43.87564,43.87564,0,0,1-12.09857-2.35543q-4.16229-1.6768-4.16416-3.8852,0-2.34128,4.0321-3.95216,4.03229-1.6131,12.31925-1.74465Zm-.08862,9.582v-3.62035q-4.05488.47083-4.05294,1.7512Q811.63051,563.98833,815.68345,564.4734Zm7.19341,5.21137v3.82668q4.49325-.38163,4.49228-1.89829Q827.36914,570.22913,822.87686,569.68477Z"/><path class="cls-29" d="M781.68746,580.68149q37.46066-12.67653,74.993-25.33008a73.91942,73.91942,0,0,0-7.216-2.20853q-37.25707,12.51531-74.38967,25.0738A58.19885,58.19885,0,0,0,781.68746,580.68149Z"/><path class="cls-29" d="M865.49143,559.74736a34.70629,34.70629,0,0,0-6.53381-3.50241q-37.3758,12.58156-74.62344,25.20559a101.564,101.564,0,0,0,10.49621,2.22166Q830.19871,571.72383,865.49143,559.74736Z"/><path class="cls-24" d="M874.94527,554.60668c-10.42286-7.13783-32.188-12.04862-57.35424-12.04862-25.166,0-46.93138,4.91079-57.3558,12.04862h-6.66006v9.52737h.10364c0,11.91561,28.61577,21.57581,63.91222,21.57581,35.29664,0,63.91043-9.6602,63.91043-21.57581v-9.52737Z"/><path class="cls-25" d="M881.50146,554.7086c0,11.91656-28.61379,21.57577-63.91043,21.57577-35.29645,0-63.91222-9.65921-63.91222-21.57577,0-11.91579,28.61577-21.576,63.91222-21.576C852.88767,533.13261,881.50146,542.79281,881.50146,554.7086Z"/><ellipse class="cls-26" cx="817.59108" cy="554.70856" rx="53.09558" ry="17.92442"/><path class="cls-27" d="M774.0416,570.49723q45.11232-15.26076,90.30552-30.49336-3.3197-1.20312-7.15018-2.2282-45.00458,15.10672-89.82853,30.27756C769.40242,568.925,771.64005,569.74131,774.0416,570.49723Z"/><path class="cls-27" d="M873.49559,544.25949a47.38028,47.38028,0,0,0-6.83919-3.37346q-45.09816,15.162-89.99822,30.39067c3.14046.88506,6.54113,1.66549,10.14934,2.33744Q830.20629,558.95565,873.49559,544.25949Z"/><ellipse class="cls-26" cx="817.59108" cy="554.70856" rx="53.09558" ry="17.92442"/><path class="cls-26" d="M846.55942,539.69A137.02433,137.02433,0,0,0,817.591,536.784c-29.32455,0-53.09553,8.025-53.09553,17.92456,0,3.5995,3.15377,6.94846,8.562,9.75631Q809.74914,552.05708,846.55942,539.69Z"/><path class="cls-26" d="M798.267,571.40489A148.45177,148.45177,0,0,0,817.591,572.633c29.3228,0,53.09572-8.02482,53.09572-17.92438,0-2.32065-1.31765-4.53747-3.6966-6.57243Q832.67086,559.786,798.267,571.40489Z"/><path class="cls-28" d="M766.78971,555.92627c0-9.89956,23.77288-17.92532,53.09359-17.92532,18.07435,0,34.02609,3.05108,43.61758,7.70723-9.19945-5.33487-26.30668-8.92414-45.90985-8.92414-29.32455,0-53.09553,8.025-53.09553,17.92456,0,3.79834,3.50994,7.31889,9.47814,10.218C769.4136,562.28092,766.78971,559.20724,766.78971,555.92627Z"/><path class="cls-25" d="M815.77207,542.12181h7.23685v2.01605a58.2385,58.2385,0,0,1,15.173,2.25175l-7.97942,3.35649a44.79939,44.79939,0,0,0-7.32566-1.54582v4.25463q16.61534,1.70637,16.61349,6.3292,0,2.3257-4.22842,3.91533-4.23,1.58931-12.47174,2.09055v2.561h-7.10674v-2.53262h-1.17634a67.51259,67.51259,0,0,1-9.3747-.76441,37.43886,37.43886,0,0,1-8.32634-1.95776l7.6289-3.22443a42.73247,42.73247,0,0,0,11.24848,2.11988v-4.94572a43.90466,43.90466,0,0,1-12.09857-2.35539q-4.16229-1.67681-4.16416-3.88521,0-2.34126,4.0321-3.95295,4.03229-1.61191,12.31925-1.74367Zm-.08862,9.58182v-3.62111q-4.05488.472-4.05294,1.75215Q811.63051,551.21728,815.68345,551.70363Zm7.19341,5.21057v3.82767q4.49325-.38334,4.49228-1.89924Q827.36914,557.45969,822.87686,556.9142Z"/><path class="cls-24" d="M814.02452,542.12181h7.23491v2.01605a58.24309,58.24309,0,0,1,15.17519,2.25175l-7.97771,3.35649a44.87757,44.87757,0,0,0-7.32566-1.54582v4.25463q16.6098,1.70637,16.61155,6.3292,0,2.3257-4.23013,3.91533-4.23009,1.58931-12.47,2.09055v2.561H813.9359v-2.53262h-1.17824a67.48493,67.48493,0,0,1-9.3726-.76441,37.46169,37.46169,0,0,1-8.32844-1.95776l7.63084-3.22443a42.71669,42.71669,0,0,0,11.24844,2.11988v-4.94572a43.923,43.923,0,0,1-12.10051-2.35539q-4.16229-1.67681-4.16218-3.88521,0-2.34126,4.03229-3.95295,4.03485-1.61191,12.319-1.74367Zm-.08862,9.58182v-3.62111q-4.05483.472-4.05484,1.75215Q809.88106,551.21728,813.9359,551.70363Zm7.19535,5.21057v3.82767q4.4904-.38334,4.49038-1.89924Q825.62163,557.45969,821.13125,556.9142Z"/><path class="cls-25" d="M815.77207,542.12181h7.23685v2.01605a58.2385,58.2385,0,0,1,15.173,2.25175l-7.97942,3.35649a44.79939,44.79939,0,0,0-7.32566-1.54582v4.25463q16.61534,1.70637,16.61349,6.3292,0,2.3257-4.22842,3.91533-4.23,1.58931-12.47174,2.09055v2.561h-7.10674v-2.53262h-1.17634a67.51259,67.51259,0,0,1-9.3747-.76441,37.43886,37.43886,0,0,1-8.32634-1.95776l7.6289-3.22443a42.73247,42.73247,0,0,0,11.24848,2.11988v-4.94572a43.90466,43.90466,0,0,1-12.09857-2.35539q-4.16229-1.67681-4.16416-3.88521,0-2.34126,4.0321-3.95295,4.03229-1.61191,12.31925-1.74367Zm-.08862,9.58182v-3.62111q-4.05488.472-4.05294,1.75215Q811.63051,551.21728,815.68345,551.70363Zm7.19341,5.21057v3.82767q4.49325-.38334,4.49228-1.89924Q827.36914,557.45969,822.87686,556.9142Z"/><path class="cls-29" d="M781.68746,567.91173q37.46066-12.67624,74.993-25.33012a73.72082,73.72082,0,0,0-7.216-2.2083q-37.25707,12.51524-74.38967,25.0728A57.97126,57.97126,0,0,0,781.68746,567.91173Z"/><path class="cls-29" d="M865.49143,546.97778a34.7164,34.7164,0,0,0-6.53381-3.50358q-37.3758,12.58191-74.62344,25.20676a102.07791,102.07791,0,0,0,10.49621,2.22144Q830.19871,558.95438,865.49143,546.97778Z"/><path class="cls-30" d="M1322.48975,297.46836l-39.04618.0841a4.7,4.7,0,0,1-4.70638-4.69366h0a4.69955,4.69955,0,0,1,4.69328-4.70638l39.04657-.08436a4.7001,4.7001,0,0,1,4.70637,4.69354h0A4.7003,4.7003,0,0,1,1322.48975,297.46836Z"/><path class="cls-30" d="M229.43252,301.59651l-79.85209.08436a4.7,4.7,0,0,1-4.70637-4.69353h0a4.70022,4.70022,0,0,1,4.69353-4.70663l79.85184-.08423a4.70023,4.70023,0,0,1,4.7065,4.69366h0A4.69973,4.69973,0,0,1,229.43252,301.59651Z"/><path class="cls-30" d="M1103.92319,126.64335h9.02055a2.76125,2.76125,0,0,1,2.76125,2.76125v8.56357a2.76131,2.76131,0,0,1-2.76131,2.76131h-9.02055a2.76125,2.76125,0,0,1-2.76125-2.76125v-8.56357a2.76131,2.76131,0,0,1,2.76131-2.76131Z" transform="translate(-0.18322 1.52797) rotate(-0.07898)"/><path class="cls-30" d="M51.37132,477.00323h9.02061a2.76137,2.76137,0,0,1,2.76137,2.76137v8.56384a2.76118,2.76118,0,0,1-2.76118,2.76118H51.37137a2.7612,2.7612,0,0,1-2.7612-2.7612v-8.564a2.76115,2.76115,0,0,1,2.76115-2.76115Z" transform="translate(-0.66715 0.07749) rotate(-0.07898)"/><path class="cls-14" d="M466.60357,363.12376h7.92551a2.4258,2.4258,0,0,1,2.4258,2.4258v7.52388a2.42591,2.42591,0,0,1-2.42591,2.42591h-7.92519a2.426,2.426,0,0,1-2.426-2.426v-7.52381A2.42579,2.42579,0,0,1,466.60357,363.12376Z" transform="translate(-0.49929 0.63707) rotate(-0.07753)"/><path class="cls-14" d="M603.43009,142.9429H564.52938a4.62822,4.62822,0,0,1-4.62831-4.62817h0a4.62834,4.62834,0,0,1,4.62831-4.62831h38.90071a4.62819,4.62819,0,0,1,4.628,4.62831h0A4.62808,4.62808,0,0,1,603.43009,142.9429Z"/><path class="cls-31" d="M931.53425,123.50482H892.63368a4.628,4.628,0,0,1-4.62831-4.62805h0a4.62825,4.62825,0,0,1,4.62831-4.62831h38.90057a4.62831,4.62831,0,0,1,4.62818,4.62831h0A4.62809,4.62809,0,0,1,931.53425,123.50482Z"/></g></g></svg>