<svg xmlns="http://www.w3.org/2000/svg" viewBox="0 0 1528 642"><defs><style>.cls-1{fill:#f7f7f7;}.cls-2{opacity:0.5;}.cls-3{fill:#e8e8e8;}.cls-4{fill:#373660;}.cls-5{fill:#ffa648;}.cls-6{fill:#282b40;}.cls-7{opacity:0.1;}.cls-8{fill:#ffd7c8;}.cls-9{fill:#3c989b;}.cls-10{fill:#ffac00;}.cls-11,.cls-14{fill:#fff;}.cls-12{fill:#fe6d60;}.cls-13{fill:#ddd;}.cls-14{opacity:0.2;}</style></defs><title>uncovering-the-root-causes</title><g id="BACKGROUND"><rect class="cls-1" width="1528" height="642"/></g><g id="OBJECTS"><g class="cls-2"><path class="cls-3" d="M473.46479,16.62336C457.02,24.99312,427.356,44.37688,401.47864,73.29131c-19.25288,21.51253-26.14389,35.3011-44.01912,38.77062-13.10194,2.54309-27.85819-2.06154-48.10259-12.3054-43.31378-21.91715-94.19514-7.19284-131.0201,51.16516s-22.93557,113.61644,45.03795,179.08982c49.74471,47.91508-17.15133,48.43992-55.82394,131.47754C128.87841,544.52652,183.41906,643.10866,362.87175,642c179.69743-1.11,451.34046-4.41233,451.34513-4.41228,141.87588,1.11034,294.94653,21.50526,426.83134-35.90657,47.65932-20.747,89.79993-52.74477,113.19055-93.93534,30.88859-54.39419,20.56921-122.73761-20.24521-171.68293-27.20619-32.62609-66.369-23.22992-99.01336-44.70256-34.07444-22.41361-54.57088-46.74413-5.84943-86.634s86.01862-66.76667,61.388-119.61719c-35.3373-75.82391-121.09251-85.60729-215.30661-53.46863s-207.8893,80.14529-291.837,59.23713c-85.89-21.39186-94.30175-79.14365-199.30692-88.987C560.72154-.29795,515.112-4.57349,473.46479,16.62336Z"/></g><path class="cls-4" d="M639.48636,582.7206c1.09137,1.01835,36.011,3.05536,36.011,3.05536l-19.64227,42.7765-19.64226-1.01835Z"/><path class="cls-5" d="M596.87559,629.01907c-.12,4.29246-4.94238,8.008-11.51364,8.87156a10.83649,10.83649,0,0,1-3.99675-.096,8.051,8.051,0,0,1-3.36895-1.86491,8.62261,8.62261,0,0,1-3.192-5.70531c-.3242-5.09418,6.05132-3.21109,11.10369-4.41669C590.74609,624.65358,597.01345,624.08062,596.87559,629.01907Z"/><path class="cls-5" d="M651.29238,635.74818a5.06516,5.06516,0,0,0,3.79859-2.902c.84777-2.36484-.90594-5.09115-2.96567-5.85287-2.05943-.76172-4.27277-.20361-6.41579.07969a7.75088,7.75088,0,0,1-4.88909-.58114c-1.55949-.89776-2.29909-3.03323-4.08067-3.3847-3.08717-.60932-5.47716,2.51482-4.70787,5.93164C634.102,638.2318,645.18106,637.35464,651.29238,635.74818Z"/><path class="cls-6" d="M644.94261,628.27977l-7.03847.622-6.05644.53447L607.84051,515.70759,584.92474,632.91734H572.92086v-68.464c0-28.66685,9.75569-63.55378,14.19722-79.03841,1.32017-4.583,2.17157-7.47508,2.17157-7.99865h36.01069l8.73007,24.36711C642.76017,533.11288,644.94261,628.27977,644.94261,628.27977Z"/><path class="cls-7" d="M637.90414,628.90181l-6.05644.53447L607.84051,515.70759,584.92474,632.91734H572.92086v-68.464c0-28.66685,9.75569-63.55378,14.19722-79.03841q9.24788-.06545,18.50727-.13089c3.81923-.03273,8.05318.09817,10.83615,2.71722,3.02233,2.86992,3.15353,7.56234,3.13171,11.73088A446.97693,446.97693,0,0,0,637.90414,628.90181Z"/><path class="cls-4" d="M677.67982,443.58767c-1.09137,2.33-26.18989,146.77163-26.18989,146.77163h6.54762l26.18959-145.60663Z"/><path class="cls-8" d="M617.66168,368.29241v4.36488s1.09134,0,2.18241,5.45625c1.09137,5.45625,0,9.82113-5.456,9.82113-5.45626,0-13.095-1.09106-14.18632-4.36488a131.88414,131.88414,0,0,1-3.27351-15.27738c0-1.09107,14.186-7.6387,14.186-7.6387Z"/><path class="cls-8" d="M613.29677,405.3945h-13.095l6.54762-22.91608h6.54733S610.023,398.84718,613.29677,405.3945Z"/><path class="cls-5" d="M615.13531,403.0133c1.2459-.65052,2.93719.05757,4.16339.74445,4.28974,2.403,14.56691,8.3183,18.00521,16.91414,4.36489,10.9122,6.54763,31.64584,8.73007,39.28454,1.68493,5.89771,10.52619,22.20465,14.4681,29.33039a4.24086,4.24086,0,0,1-1.36194,5.58169l-.47752.31814a4.23447,4.23447,0,0,1-5.27294-.44964c-7.22087-6.86637-28.15357-27.27066-33.54559-38.0544-6.54732-13.09494-9.82114-32.73721-8.72976-39.28453C612.11026,411.4228,608.77281,406.33559,615.13531,403.0133Z"/><path class="cls-5" d="M591.47206,407.57694s-9.82114,1.09137-13.095,13.095c-3.27347,12.00357-4.36488,44.74079-4.36488,44.74079s3.27381,14.186,12.00357,14.186c8.73007,0,10.91251-54.56192,10.91251-54.56192Z"/><path class="cls-8" d="M655.85511,497.05852s8.52949,7.32207,15.27709,3.27351c5.45625-3.27351,5.45625-9.82113,2.18278-12.00357-1.27169-.84747-2.39215.60325-6.54763,3.27381,0-2.13972,3.27378-6.54732,0-7.63869-1.0911,0-3.82165,7.09543-6.54735,9.82113Z"/><polygon class="cls-4" points="668.95 438.132 668.95 444.679 691.866 449.044 695.14 441.405 668.95 438.132"/><path class="cls-5" d="M631.8477,486.09148a1.16655,1.16655,0,0,1-1.15655,1.16772c-1.84431.04363-5.75107.22906-10.60679.44722-9.93051.45842-23.7893,1.02592-31.88611.67657-3.6774-.16361-6.16556-.513-6.54733-1.1456-.82928-1.38588.44722-33.95948,3.57923-57.0719,0-.02182.01091-.03272.01091-.04363,1.59312-11.84,3.6883-21.18085,6.231-22.54492,2.72812-1.46223,5.20507-2.84811,7.2348-4.00493a20.80582,20.80582,0,0,1,13.06223-2.53148c3.74284.49084,10.55225,4.31034,12.9856,5.99073,2.4118,1.65887,3.994,11.41425,5.05263,23.58175C631.62954,451.71751,631.82585,480.07863,631.8477,486.09148Z"/><path d="M640.21747,356.8127a24.24319,24.24319,0,0,1-.73111,2.74994c-2.18245,6.54732-12.00358,7.6387-20.73334,8.72977-5.2381.65476-6.15465,1.7025-6.04981,2.43574a2.89763,2.89763,0,0,1-1.82037,2.91749c-4.4476,1.94156-11.77209-.98835-11.77209-.98835l1.09107,8.73006a15.97943,15.97943,0,0,1-8.72976-5.45625c-1.9752-2.63-2.357-6.84213-1.877-10.48681a14.682,14.682,0,0,1,1.877-5.88165c2.18244-3.27381,10.9122-7.63869,14.186-8.73006,3.27381-1.09107,4.36488-7.6387,20.73364-9.82114C640.73043,339.102,641.6688,349.74151,640.21747,356.8127Z"/><path class="cls-5" d="M600.09126,394.43382q-.744,4.61985-1.48768,9.2397a3.12114,3.12114,0,0,0,.043,1.69765,2.55327,2.55327,0,0,0,2.53179,1.21408c2.43331-.07514,4.79422-1.55434,7.17118-1.02865,1.25983.27875,2.38756,1.10713,3.67679,1.15106a4.04391,4.04391,0,0,0,3.50533-2.27152,8.78542,8.78542,0,0,0,.812-4.27822,22.12967,22.12967,0,0,0-.56784-4.6906c-.183-.79111-.516-1.68766-1.29074-1.93126-.91745-.28845-1.77188.50751-2.58023,1.02835-2.22247,1.43284-5.20208.89594-7.57779-.26512a4.72414,4.72414,0,0,0-2.22035-.71293,2.80944,2.80944,0,0,0-2.2997,1.89247,8.25875,8.25875,0,0,0-.36719,3.10748"/><path class="cls-7" d="M631.8477,486.369a1.0778,1.0778,0,0,1-1.15655.96684c-1.84431.03636-5.75107.19-10.60679.37056a70.29024,70.29024,0,0,0,5.04146-12.119,69.39148,69.39148,0,0,0,3.05535-24.05714c-.41691-8.351-1.67735-16.47238-.5475-24.85674,2.9284,10.35107,2.976,21.39235,3.49136,31.98277.40328,8.28891.62143,16.5851.702,24.88067C631.83645,484.48078,631.8477,485.4249,631.8477,486.369Z"/><path class="cls-7" d="M588.19825,488.383c-3.6774-.16361-6.16556-.513-6.54733-1.1456-.82928-1.38588.44722-33.95948,3.57923-57.0719C583.997,449.67687,582.98226,469.65758,588.19825,488.383Z"/><path d="M572.00431,485.164a4.3954,4.3954,0,0,1,.20725.469c-.27269.02182-.53448.04363-.80744.07636Z"/><path class="cls-9" d="M232.41348,565.13v22.13588a1.09187,1.09187,0,0,0,2.18244,0V565.13a1.09188,1.09188,0,0,0-2.18244,0Z"/><circle class="cls-10" cx="235.24479" cy="555.46143" r="14.97281" transform="translate(-367.4311 529.78495) rotate(-64.60718)"/><path class="cls-7" d="M248.81436,549.133a14.97272,14.97272,0,1,1-19.898-7.24117A14.97273,14.97273,0,0,1,248.81436,549.133Z"/><path class="cls-5" d="M246.50466,556.31541a14.4198,14.4198,0,1,1-14.03361-14.79563A14.41957,14.41957,0,0,1,246.50466,556.31541Z"/><path class="cls-11" d="M237.65007,551.32122a4.3862,4.3862,0,0,0-.68931-.6175,6.12275,6.12275,0,0,0-.95987-.56538,6.83287,6.83287,0,0,0-1.1756-.43055,6.65814,6.65814,0,0,0-1.33256-.21118l-.147,5.5626.3036.07878a20.31672,20.31672,0,0,1,2.31727.70718,6.794,6.794,0,0,1,1.76038.95078,3.62366,3.62366,0,0,1,1.09228,1.34407,4.23334,4.23334,0,0,1,.33753,1.91187,4.40524,4.40524,0,0,1-.50115,2.03,3.97771,3.97771,0,0,1-1.25832,1.39952,5.61518,5.61518,0,0,1-1.864.80807,9.26288,9.26288,0,0,1-2.297.25664l-.06211,2.34757-1.0335-.02727.06272-2.37151a10.24562,10.24562,0,0,1-5.948-2.4827l1.05774-1.75644a6.71071,6.71071,0,0,0,.84838.73839,7.36011,7.36011,0,0,0,1.16833.70081,10.38966,10.38966,0,0,0,1.43011.56629,8.28784,8.28784,0,0,0,1.61222.336l.14816-5.61017-.35082-.103a20.753,20.753,0,0,1-2.21183-.716,6.06615,6.06615,0,0,1-1.5859-.88776,3.20247,3.20247,0,0,1-.9426-1.22256,3.964,3.964,0,0,1-.2839-1.69917,4.81851,4.81851,0,0,1,.4521-1.99611,4.32259,4.32259,0,0,1,1.15526-1.47283,5.27319,5.27319,0,0,1,1.728-.92928,7.75546,7.75546,0,0,1,2.16971-.3651l.06242-2.3706,1.0335.02727-.06272,2.3706a8.68357,8.68357,0,0,1,2.78933.6378,8.10574,8.10574,0,0,1,2.20793,1.37345Zm-8.31285.76656a2.36649,2.36649,0,0,0,.17214,1.01472,1.96656,1.96656,0,0,0,.58049.74384,3.74714,3.74714,0,0,0,1.01774.55538q.62992.24042,1.4689.47267l.14271-5.39808a4.07938,4.07938,0,0,0-2.533.73111A2.40655,2.40655,0,0,0,229.33722,552.08778Zm7.55992,8.1156a2.08349,2.08349,0,0,0-.21876-1.05047,2.4655,2.4655,0,0,0-.696-.79353,4.89375,4.89375,0,0,0-1.1341-.62931,15.80339,15.80339,0,0,0-1.55919-.53417l-.14387,5.445a4.94274,4.94274,0,0,0,2.739-.56144A2.12615,2.12615,0,0,0,236.89714,560.20338Z"/><path class="cls-4" d="M241.93829,575.32746a7.4824,7.4824,0,0,1,3.64922-.91928,3.66479,3.66479,0,0,1,3.11444,1.86188c1.06168,2.16971-.898,4.60636-2.91326,5.93831-3.32649,2.1982-7.87108,3.89434-11.89146,3.39289C233.6109,581.47059,238.45087,577.04087,241.93829,575.32746Z"/><path class="cls-4" d="M218.91435,579.58659a4.28713,4.28713,0,0,1-.85989-3.34016c.49115-1.77856,2.73206-2.42878,4.5649-2.21759a11.77581,11.77581,0,0,1,7.0157,3.77981c2.32121,2.44907,5.1981,7.23783.18391,8.19377C225.93191,586.74323,220.81773,582.53469,218.91435,579.58659Z"/><path class="cls-9" d="M181.69833,559.65315l1.80976,32.56754a1.09662,1.09662,0,0,0,2.14366.29q.1368-.49038.2736-.98138a1.09216,1.09216,0,0,0-2.10457-.57993q-.1368.49039-.27361.98109,1.07169.145,2.14336.29026l-1.80976-32.56754c-.07753-1.39678-2.26061-1.40587-2.18244,0Z"/><path class="cls-10" d="M200.215,550.44285a17.07452,17.07452,0,1,1-17.55891-16.576A17.07436,17.07436,0,0,1,200.215,550.44285Z"/><path class="cls-7" d="M198.2001,542.87445a17.0745,17.0745,0,1,1-23.11212-6.99272A17.07414,17.07414,0,0,1,198.2001,542.87445Z"/><path class="cls-5" d="M196.0222,551.1979a16.44389,16.44389,0,1,1-16.9105-15.96366A16.444,16.444,0,0,1,196.0222,551.1979Z"/><path class="cls-11" d="M185.62569,546.06857a5.00537,5.00537,0,0,0-.82353-.65991,7.0206,7.0206,0,0,0-1.12864-.58326,7.81216,7.81216,0,0,0-1.36558-.41631,7.57572,7.57572,0,0,0-1.5307-.15634l.1827,6.3428.35086.0706a23.13008,23.13008,0,0,1,2.683.65961,7.73278,7.73278,0,0,1,2.064.97169,4.13305,4.13305,0,0,1,1.32831,1.46163,4.82228,4.82228,0,0,1,.50452,2.15577,5.02506,5.02506,0,0,1-.44271,2.343,4.53974,4.53974,0,0,1-1.34467,1.67251,6.39791,6.39791,0,0,1-2.07185,1.03744,10.57184,10.57184,0,0,1-2.59905.43691l.0773,2.67692-1.17837.03394-.07786-2.70419a11.68283,11.68283,0,0,1-6.92909-2.45271l1.09379-2.0664a7.68021,7.68021,0,0,0,1.01229.78717,8.41261,8.41261,0,0,0,1.37467.72445,11.82518,11.82518,0,0,0,1.664.55508,9.464,9.464,0,0,0,1.85673.28118l-.18422-6.39735-.406-.09514a23.64212,23.64212,0,0,1-2.5633-.67627,6.93274,6.93274,0,0,1-1.86183-.91109,3.65091,3.65091,0,0,1-1.15019-1.33255,4.52214,4.52214,0,0,1-.43025-1.917,5.497,5.497,0,0,1,.38934-2.30121,4.93137,4.93137,0,0,1,1.22287-1.74977A6.016,6.016,0,0,1,177.251,542.693a8.84736,8.84736,0,0,1,2.44726-.55236l-.07757-2.703,1.17833-.03394.07787,2.70328a9.913,9.913,0,0,1,3.21594.55023,9.25657,9.25657,0,0,1,2.60057,1.425Zm-9.41664,1.39588a2.69284,2.69284,0,0,0,.25966,1.1447,2.23957,2.23957,0,0,0,.70779.81019,4.26041,4.26041,0,0,0,1.19348.56841q.73269.23406,1.7025.446l-.17725-6.15586a4.65619,4.65619,0,0,0-2.83841.992A2.74424,2.74424,0,0,0,176.20905,547.46445Zm9.11823,8.76491a2.37683,2.37683,0,0,0-.31511-1.18227,2.81168,2.81168,0,0,0-.84231-.85989,5.60317,5.60317,0,0,0-1.33108-.64506,18.06833,18.06833,0,0,0-1.80885-.51024l.17876,6.20888a5.63417,5.63417,0,0,0,3.08324-.81141A2.42428,2.42428,0,0,0,185.32728,556.22936Z"/><path class="cls-4" d="M191.22405,576.28612a6.50208,6.50208,0,0,1,4.40305-2.10518c2.669.09514,4.50184,3.10747,4.207,5.762s-2.107,4.88633-4.064,6.70427a29.06778,29.06778,0,0,1-12.03569,7.026c1.66342-2.17032,1.05411-6.17889,1.96974-8.84884A20.86316,20.86316,0,0,1,191.22405,576.28612Z"/><path class="cls-4" d="M168.16738,587.01441c-1.381-1.51041-2.59811-3.5259-2.067-5.50261.58234-2.1682,3.15746-3.32017,5.37838-2.98931a11.09749,11.09749,0,0,1,5.73591,3.32047c2.04822,1.94763,9.64419,9.17092,5.31112,11.73543C178.77386,595.799,170.42375,589.482,168.16738,587.01441Z"/><path class="cls-9" d="M914.343,587.26836v22.13588a1.09187,1.09187,0,0,0,2.18244,0V587.26836a1.09188,1.09188,0,0,0-2.18244,0Z"/><circle class="cls-10" cx="917.17432" cy="577.59978" r="14.97281" transform="translate(2.07255 1158.47755) rotate(-64.60718)"/><path class="cls-7" d="M930.74389,571.27137a14.97272,14.97272,0,1,1-19.898-7.24117A14.97273,14.97273,0,0,1,930.74389,571.27137Z"/><path class="cls-5" d="M928.43419,578.45376a14.41981,14.41981,0,1,1-14.03361-14.79563A14.41957,14.41957,0,0,1,928.43419,578.45376Z"/><path class="cls-11" d="M919.5796,573.45957a4.3862,4.3862,0,0,0-.68931-.6175,6.12353,6.12353,0,0,0-.95987-.56538,6.8337,6.8337,0,0,0-1.1756-.43055,6.65814,6.65814,0,0,0-1.33256-.21118l-.147,5.5626.3036.07878a20.31672,20.31672,0,0,1,2.31727.70718,6.79427,6.79427,0,0,1,1.76038.95078,3.62366,3.62366,0,0,1,1.09228,1.34407,4.23337,4.23337,0,0,1,.33753,1.91187,4.40544,4.40544,0,0,1-.50115,2.03,3.97776,3.97776,0,0,1-1.25832,1.39951,5.61494,5.61494,0,0,1-1.864.80807,9.26275,9.26275,0,0,1-2.297.25664l-.06211,2.34757-1.0335-.02727.06272-2.37151a10.24562,10.24562,0,0,1-5.948-2.4827l1.05774-1.75644a6.71,6.71,0,0,0,.84838.73839,7.36087,7.36087,0,0,0,1.16833.70082,10.3922,10.3922,0,0,0,1.43011.56629,8.28788,8.28788,0,0,0,1.61221.336l.14817-5.61017-.35082-.103a20.75406,20.75406,0,0,1-2.21184-.716,6.06654,6.06654,0,0,1-1.58589-.88777,3.20237,3.20237,0,0,1-.9426-1.22256,3.964,3.964,0,0,1-.2839-1.69917,4.81847,4.81847,0,0,1,.4521-1.9961,4.32262,4.32262,0,0,1,1.15526-1.47284,5.273,5.273,0,0,1,1.728-.92927,7.75509,7.75509,0,0,1,2.16971-.36511l.06242-2.37059,1.0335.02727-.06272,2.37059a8.68384,8.68384,0,0,1,2.78933.6378,8.10574,8.10574,0,0,1,2.20793,1.37345Zm-8.31285.76656a2.36646,2.36646,0,0,0,.17214,1.01472,1.96638,1.96638,0,0,0,.58049.74384,3.74687,3.74687,0,0,0,1.01774.55538q.62993.24042,1.4689.47267l.14271-5.39808a4.07938,4.07938,0,0,0-2.533.73111A2.40655,2.40655,0,0,0,911.26675,574.22613Zm7.55992,8.1156a2.08343,2.08343,0,0,0-.21876-1.05046,2.46543,2.46543,0,0,0-.696-.79354,4.89375,4.89375,0,0,0-1.1341-.62931,15.80339,15.80339,0,0,0-1.55919-.53417l-.14388,5.445a4.94275,4.94275,0,0,0,2.739-.56144A2.12615,2.12615,0,0,0,918.82667,582.34173Z"/><path class="cls-4" d="M923.86782,597.46581a7.48228,7.48228,0,0,1,3.64922-.91927,3.66478,3.66478,0,0,1,3.11444,1.86187c1.06168,2.16972-.898,4.60637-2.91326,5.93831-3.32649,2.1982-7.87108,3.89434-11.89146,3.39289C915.54043,603.60894,920.3804,599.17922,923.86782,597.46581Z"/><path class="cls-4" d="M900.84388,601.725a4.28715,4.28715,0,0,1-.85989-3.34017c.49115-1.77856,2.73206-2.42877,4.56489-2.21759a11.77586,11.77586,0,0,1,7.01571,3.77981c2.32121,2.44907,5.1981,7.23783.18391,8.19377C907.86144,608.88158,902.74726,604.673,900.84388,601.725Z"/><path class="cls-9" d="M863.62786,581.7915l1.80976,32.56754a1.09662,1.09662,0,0,0,2.14366.29q.1368-.49039.2736-.98139a1.09216,1.09216,0,0,0-2.10458-.57992q-.1368.49038-.2736.98108,1.07169.145,2.14336.29026L865.8103,581.7915c-.07753-1.39678-2.26062-1.40587-2.18244,0Z"/><path class="cls-10" d="M882.14451,572.5812a17.07452,17.07452,0,1,1-17.5589-16.576A17.07435,17.07435,0,0,1,882.14451,572.5812Z"/><path class="cls-7" d="M880.12963,565.0128a17.0745,17.0745,0,1,1-23.11212-6.99272A17.07414,17.07414,0,0,1,880.12963,565.0128Z"/><path class="cls-5" d="M877.95173,573.33625a16.44389,16.44389,0,1,1-16.9105-15.96366A16.444,16.444,0,0,1,877.95173,573.33625Z"/><path class="cls-11" d="M867.55522,568.20692a5.00684,5.00684,0,0,0-.82353-.65991,7.02141,7.02141,0,0,0-1.12864-.58326,7.81215,7.81215,0,0,0-1.36558-.4163,7.575,7.575,0,0,0-1.5307-.15635l.1827,6.34281.35086.07059a23.13212,23.13212,0,0,1,2.683.65961,7.73308,7.73308,0,0,1,2.064.97169,4.13314,4.13314,0,0,1,1.32831,1.46163,4.82233,4.82233,0,0,1,.50452,2.15578,5.025,5.025,0,0,1-.44271,2.343,4.53974,4.53974,0,0,1-1.34467,1.67251,6.39771,6.39771,0,0,1-2.07185,1.03744,10.57145,10.57145,0,0,1-2.599.43691l.0773,2.67692-1.17837.03394-.07787-2.70419a11.68282,11.68282,0,0,1-6.92908-2.45271l1.09379-2.0664a7.68021,7.68021,0,0,0,1.01229.78717,8.41261,8.41261,0,0,0,1.37467.72445,11.82474,11.82474,0,0,0,1.664.55508,9.464,9.464,0,0,0,1.85673.28118l-.18422-6.39734-.406-.09514a23.64429,23.64429,0,0,1-2.5633-.67628,6.9323,6.9323,0,0,1-1.86183-.91109,3.65091,3.65091,0,0,1-1.15019-1.33255,4.52213,4.52213,0,0,1-.43025-1.917,5.497,5.497,0,0,1,.38934-2.30122,4.93137,4.93137,0,0,1,1.22287-1.74977,6.01622,6.01622,0,0,1,1.90884-1.16681,8.84735,8.84735,0,0,1,2.44726-.55235l-.07757-2.703,1.17833-.03394.07787,2.70328a9.91329,9.91329,0,0,1,3.21594.55023,9.25657,9.25657,0,0,1,2.60057,1.425Zm-9.41664,1.39588a2.69284,2.69284,0,0,0,.25966,1.1447,2.23968,2.23968,0,0,0,.70779.8102,4.26068,4.26068,0,0,0,1.19348.56841q.73269.23406,1.7025.446l-.17725-6.15586a4.65619,4.65619,0,0,0-2.83841.992A2.74425,2.74425,0,0,0,858.13858,569.6028Zm9.11823,8.76491a2.37683,2.37683,0,0,0-.31511-1.18227,2.81155,2.81155,0,0,0-.84231-.85988,5.60317,5.60317,0,0,0-1.33108-.64507,18.06833,18.06833,0,0,0-1.80885-.51024l.17876,6.20888a5.63426,5.63426,0,0,0,3.08324-.8114A2.42431,2.42431,0,0,0,867.25681,578.36771Z"/><path class="cls-4" d="M873.15357,598.42447a6.50216,6.50216,0,0,1,4.40306-2.10518c2.669.09514,4.50184,3.10747,4.207,5.762s-2.107,4.88633-4.064,6.70427a29.06778,29.06778,0,0,1-12.03569,7.02605c1.66342-2.17032,1.05411-6.17888,1.96974-8.84884A20.86324,20.86324,0,0,1,873.15357,598.42447Z"/><path class="cls-4" d="M850.09691,609.15276c-1.381-1.51041-2.59811-3.5259-2.067-5.50261.58234-2.1682,3.15746-3.32017,5.37838-2.98931a11.09758,11.09758,0,0,1,5.73591,3.32048c2.04822,1.94762,9.64419,9.17091,5.31112,11.73542C860.70339,617.93736,852.35328,611.62031,850.09691,609.15276Z"/><path class="cls-9" d="M1310.98907,548.5358v22.13588a1.09187,1.09187,0,0,0,2.18244,0V548.5358a1.09188,1.09188,0,0,0-2.18244,0Z"/><circle class="cls-10" cx="1313.82038" cy="538.86722" r="14.97281" transform="translate(263.61865 1494.68007) rotate(-64.60718)"/><path class="cls-7" d="M1327.39,532.53881a14.97272,14.97272,0,1,1-19.898-7.24117A14.97272,14.97272,0,0,1,1327.39,532.53881Z"/><path class="cls-5" d="M1325.08025,539.7212a14.4198,14.4198,0,1,1-14.03361-14.79563A14.41958,14.41958,0,0,1,1325.08025,539.7212Z"/><path class="cls-11" d="M1316.22566,534.727a4.38609,4.38609,0,0,0-.6893-.6175,6.12364,6.12364,0,0,0-.95988-.56538,6.8334,6.8334,0,0,0-1.1756-.43055,6.65959,6.65959,0,0,0-1.33255-.21118l-.147,5.5626.30359.07878a20.31874,20.31874,0,0,1,2.31727.70718,6.79427,6.79427,0,0,1,1.76038.95078,3.62374,3.62374,0,0,1,1.09228,1.34407,4.23337,4.23337,0,0,1,.33753,1.91187,4.4052,4.4052,0,0,1-.50115,2.03,3.97776,3.97776,0,0,1-1.25832,1.39951,5.6151,5.6151,0,0,1-1.864.80808,9.26333,9.26333,0,0,1-2.297.25663l-.06212,2.34757-1.0335-.02727.06272-2.37151a10.2456,10.2456,0,0,1-5.948-2.4827l1.05774-1.75644a6.70906,6.70906,0,0,0,.84837.73839,7.36013,7.36013,0,0,0,1.16833.70082,10.3927,10.3927,0,0,0,1.43011.56629,8.288,8.288,0,0,0,1.61222.336l.14816-5.61017-.35082-.103a20.75383,20.75383,0,0,1-2.21183-.716,6.06672,6.06672,0,0,1-1.5859-.88776,3.2026,3.2026,0,0,1-.9426-1.22257,3.96414,3.96414,0,0,1-.2839-1.69917,4.8185,4.8185,0,0,1,.4521-1.9961,4.32284,4.32284,0,0,1,1.15526-1.47284,5.27328,5.27328,0,0,1,1.728-.92927,7.75473,7.75473,0,0,1,2.16971-.3651l.06242-2.3706,1.0335.02727-.06272,2.37059a8.68384,8.68384,0,0,1,2.78933.6378,8.10553,8.10553,0,0,1,2.20793,1.37346Zm-8.31285.76657a2.36659,2.36659,0,0,0,.17214,1.01471,1.96648,1.96648,0,0,0,.58049.74384,3.747,3.747,0,0,0,1.01775.55538q.62991.24044,1.46889.47267l.14271-5.39808a4.07931,4.07931,0,0,0-2.533.73112A2.40653,2.40653,0,0,0,1307.91281,535.49358Zm7.55992,8.1156a2.08347,2.08347,0,0,0-.21876-1.05047,2.4653,2.4653,0,0,0-.696-.79353,4.89351,4.89351,0,0,0-1.13409-.62932,15.8052,15.8052,0,0,0-1.55919-.53417l-.14388,5.445a4.94274,4.94274,0,0,0,2.739-.56144A2.12611,2.12611,0,0,0,1315.47273,543.60918Z"/><path class="cls-4" d="M1320.51388,558.73325a7.48228,7.48228,0,0,1,3.64922-.91927,3.66478,3.66478,0,0,1,3.11444,1.86187c1.06168,2.16972-.898,4.60637-2.91325,5.93831-3.32649,2.1982-7.87109,3.89434-11.89147,3.39289C1312.18649,564.87638,1317.02646,560.44666,1320.51388,558.73325Z"/><path class="cls-4" d="M1297.48994,562.99239a4.28719,4.28719,0,0,1-.85989-3.34017c.49115-1.77855,2.73207-2.42877,4.5649-2.21759a11.77583,11.77583,0,0,1,7.0157,3.77981c2.32121,2.44907,5.19811,7.23784.18392,8.19377C1304.5075,570.149,1299.39332,565.94049,1297.48994,562.99239Z"/><path class="cls-9" d="M1260.27392,543.059l1.80976,32.56754a1.09662,1.09662,0,0,0,2.14366.29q.1368-.4904.2736-.98139a1.09216,1.09216,0,0,0-2.10457-.57992q-.1368.49038-.2736.98108,1.07167.145,2.14335.29027l-1.80976-32.56754c-.07753-1.39679-2.26061-1.40588-2.18244,0Z"/><path class="cls-10" d="M1278.79058,533.84864a17.07452,17.07452,0,1,1-17.55891-16.576A17.07435,17.07435,0,0,1,1278.79058,533.84864Z"/><path class="cls-7" d="M1276.77569,526.28024a17.0745,17.0745,0,1,1-23.11211-6.99272A17.07415,17.07415,0,0,1,1276.77569,526.28024Z"/><path class="cls-5" d="M1274.59779,534.60369a16.44389,16.44389,0,1,1-16.9105-15.96366A16.444,16.444,0,0,1,1274.59779,534.60369Z"/><path class="cls-11" d="M1264.20128,529.47437a5.00549,5.00549,0,0,0-.82353-.65992,7.02059,7.02059,0,0,0-1.12864-.58325,7.81146,7.81146,0,0,0-1.36557-.41631,7.57589,7.57589,0,0,0-1.53071-.15635l.1827,6.34281.35086.07059a23.13212,23.13212,0,0,1,2.683.65961,7.7333,7.7333,0,0,1,2.064.97169,4.13333,4.13333,0,0,1,1.32831,1.46163,4.8226,4.8226,0,0,1,.50452,2.15578,5.0253,5.0253,0,0,1-.44271,2.343,4.53986,4.53986,0,0,1-1.34468,1.67251,6.39776,6.39776,0,0,1-2.07184,1.03744,10.57107,10.57107,0,0,1-2.59906.43691l.07731,2.67692-1.17837.03394-.07787-2.70419a11.68285,11.68285,0,0,1-6.92909-2.45271l1.09379-2.06639a7.68172,7.68172,0,0,0,1.01229.78717,8.415,8.415,0,0,0,1.37467.72445,11.82617,11.82617,0,0,0,1.664.55507,9.463,9.463,0,0,0,1.85672.28118l-.18422-6.39734-.406-.09514a23.64306,23.64306,0,0,1-2.5633-.67628,6.93237,6.93237,0,0,1-1.86184-.91109,3.65093,3.65093,0,0,1-1.15019-1.33255,4.52213,4.52213,0,0,1-.43025-1.917,5.49708,5.49708,0,0,1,.38934-2.30121,4.93128,4.93128,0,0,1,1.22287-1.74977,6.01606,6.01606,0,0,1,1.90884-1.16682,8.84735,8.84735,0,0,1,2.44726-.55235l-.07757-2.703,1.17833-.03394.07787,2.70329a9.91271,9.91271,0,0,1,3.21594.55023,9.25641,9.25641,0,0,1,2.60057,1.425Zm-9.41664,1.39587a2.69314,2.69314,0,0,0,.25966,1.1447,2.23978,2.23978,0,0,0,.70779.8102,4.26068,4.26068,0,0,0,1.19348.56841q.73269.23406,1.7025.446l-.17725-6.15586a4.65619,4.65619,0,0,0-2.83841.992A2.74425,2.74425,0,0,0,1254.78464,530.87024Zm9.11824,8.76491a2.377,2.377,0,0,0-.31511-1.18227,2.8117,2.8117,0,0,0-.84232-.85988,5.60328,5.60328,0,0,0-1.33107-.64507,18.06857,18.06857,0,0,0-1.80886-.51024l.17877,6.20889a5.63422,5.63422,0,0,0,3.08323-.81141A2.42432,2.42432,0,0,0,1263.90288,539.63515Z"/><path class="cls-4" d="M1269.79964,559.69191a6.50214,6.50214,0,0,1,4.40305-2.10518c2.669.09514,4.50184,3.10747,4.207,5.762s-2.107,4.88633-4.064,6.70428a29.068,29.068,0,0,1-12.0357,7.026c1.66342-2.17032,1.05411-6.17888,1.96975-8.84884A20.863,20.863,0,0,1,1269.79964,559.69191Z"/><path class="cls-4" d="M1246.743,570.4202c-1.381-1.51041-2.5981-3.5259-2.067-5.50261.58235-2.1682,3.15746-3.32017,5.37838-2.98931a11.09765,11.09765,0,0,1,5.73592,3.32048c2.04821,1.94762,9.64418,9.17091,5.31112,11.73543C1257.34945,579.2048,1248.99934,572.88775,1246.743,570.4202Z"/><polygon class="cls-8" points="1002.868 510.153 1002.727 511.474 989.774 631.281 989.261 631.106 986.5 630.189 982.135 514.518 1002.868 510.153"/><path class="cls-8" d="M975.042,515.60942l-.25122,3.14292-9.00246,111.43688h-3.69951s-8.32618-110.21492-8.32618-115.67087Z"/><path class="cls-7" d="M1002.72651,511.4736l-12.95284,119.807-.513-.17452c.22907-1.56071.18548-3.252.31663-4.8015q.91625-11.2126,1.63675-22.45765,1.44027-22.4575,2.13881-44.96985.37632-12.39109.53478-24.771a50.06716,50.06716,0,0,1,1.102-12.04751c1.01471-3.91736,3.1211-7.70414,6.5146-9.90839A10.2891,10.2891,0,0,1,1002.72651,511.4736Z"/><path class="cls-7" d="M974.79079,518.75234l-9.00246,111.43688h-2.18274q.09862-10.54135.19634-21.07178.19679-21.47537.393-42.951.11446-12.1943.22932-24.411c.05454-6.15435.15245-12.52745,2.6951-18.13641a8.60287,8.60287,0,0,1,3.8959-4.5394A5.88981,5.88981,0,0,1,974.79079,518.75234Z"/><path class="cls-8" d="M927.86513,473.80339s-4.4182,5.08722-4.73634,7.20512c-.31784,2.1176-3.97978,7.03453-2.24759,7.66748s5.09782,4.99055,6.70973,1.55828a30.35494,30.35494,0,0,0,2.02822-8.64129s-.636,4.2355,1.63372,3.72466c2.2694-.51115,2.78479-8.81187,2.78479-8.81187Z"/><path class="cls-9" d="M927.57305,474.14244c1.09137,2.18244,7.6387,4.36488,7.6387,4.36488,18.00551-18.00521,38.73885-35.465,37.64778-49.65135-.08389-1.08774,10.36651-19.09659-4.91053-21.279-9.5197,11.19187-11.45823,22.3704-15.82311,35.46534C944.01089,452.74131,935.75743,460.50211,927.57305,474.14244Z"/><path class="cls-12" d="M927.57305,474.14244c1.09137,2.18244,7.6387,4.36488,7.6387,4.36488,18.00551-18.00521,38.73885-35.465,37.64778-49.65135-.08389-1.08774,10.36651-19.09659-4.91053-21.279-9.5197,11.19187-11.45823,22.3704-15.82311,35.46534C944.01089,452.74131,935.75743,460.50211,927.57305,474.14244Z"/><path class="cls-8" d="M969.04,366.11s-6.54732,7.6387-5.45625,10.91251c1.09137,3.27351,3.27381,9.82114,5.45625,10.9122,2.18244,1.09138,9.82113,2.18244,10.9125,0,1.09107-2.18244,5.456-14.186,5.456-14.186s-6.54732-10.91251-9.82109-9.82114C972.31384,365.01859,969.04,366.11,969.04,366.11Z"/><path class="cls-8" d="M971.22247,385.75223c0,3.27382,2.18244,7.6387,0,13.09495-2.18244,5.456-3.27347,8.72976-3.27347,8.72976l9.82109-2.18244s-2.1827-4.36488,0-10.9125c2.18244-6.54733,0-9.20728,0-9.20728Z"/><path class="cls-4" d="M973.3631,400.91509c3.73678-1.368,9.79962-2.11033,13.13676.11453,3.27381,2.18244,12.00357,5.45625,12.00357,13.09464,0,7.6387-6.54732,34.91966-7.63869,38.19347-1.09107,3.27381,4.36488,17.45983,4.36488,17.45983L960.31027,471.96s2.18244-29.4634-1.09138-33.82828c-3.27381-4.36519-4.36488-6.54763-3.27351-10.91251,1.26711-5.06842,3.88045-10.12352,6.181-14.76715,2.16972-4.37912,6.01436-9.4221,10.70435-11.33154Q973.088,401.01554,973.3631,400.91509Z"/><path class="cls-6" d="M1010.50705,515.60942c-.37121,3.67739-8.16231,6.76578-18.47459,8.77369-20.27521,3.95009-50.24063,3.73194-52.45583-4.40881-3.27382-12.00358,20.73364-48.0143,20.73364-48.0143l23.81081-1.53859,10.01747-.64385S1012.0565,500.05934,1010.50705,515.60942Z"/><path class="cls-5" d="M918.84333,501.96909s6.0016-20.73364,13.64029-20.73364c10.9125,0,12.54926,20.73364,12.54926,20.73364H940.668s1.63675-17.45983-8.18438-17.45983c-7.63869,0-9.27545,17.45983-9.27545,17.45983Z"/><path class="cls-5" d="M918.84333,501.96909h26.18955l6.44824,33.31532a.43124.43124,0,0,1-.42327.513H905.30507a.43086.43086,0,0,1-.39722-.5978Z"/><path class="cls-5" d="M918.84333,515.06373l-3.27385,12.00358-6.7876-1.11289s.24028-6.5255-1.94247-17.438a27.15894,27.15894,0,0,0-1.48405-4.80149,56.66344,56.66344,0,0,0-6.16525-10.92341c-.54568-.77445-1.09137-1.53859-1.65887-2.30243-.53478-.7093-.90564-1.50586-1.495-2.18244a14.61569,14.61569,0,0,0-4.594-3.08808c-.04389-.02181-.07635-.04363-.12028-.06544-1.36407-.7093-2.739-1.41861-4.114-2.12791l13.62969-8.33708c-.18543.10907.27269,1.52767.31632,1.69129.19664.81838.38207,1.59343.52387,2.4118.02181.10908.04363.22907.06545.33814a22.10775,22.10775,0,0,0,1.59342,6.02376c.9929,1.997,1.76765,4.10279,2.78267,6.08889,1.74583,3.43743,3.65532,6.7985,5.64138,10.09413,1.42981,2.36787,2.88113,4.71393,4.40881,7.01666Z"/><path class="cls-7" d="M901.678,478.79122l-10.35591,6.3619c-1.36407-.7093-2.739-1.41861-4.114-2.12791l13.62969-8.33708c-.18543.10907.27269,1.52767.31632,1.69129C901.35074,477.1978,901.53617,477.97285,901.678,478.79122Z"/><path class="cls-8" d="M944.17637,485.52731a5.97013,5.97013,0,0,0-1.78765.78959c-1.91706,1.50768-2.37544,3.87071-4.057,5.66532a9.373,9.373,0,0,1-2.43427,2.04761,3.35271,3.35271,0,0,1-3.06959.13392,4.17742,4.17742,0,0,1-1.79068-3.17776,11.96832,11.96832,0,0,1,2.75631-9.36726,9.86306,9.86306,0,0,1,3.93736-2.91022c1.66948-.66416,2.11548-1.48041,3.77318-2.22819,1.06588-.48085,3.33982-1.49617,4.15547-.47994,1.02138,1.27226,1.28468,4.50486,1.73917,6.09738a3.336,3.336,0,0,1,.18452,1.11682C947.495,484.572,945.30406,485.15372,944.17637,485.52731Z"/><path class="cls-12" d="M989.47886,435.32724c-.03268.19633-.07636.39267-.10908.589-1.015,5.70743-1.9861,11.6-5.01964,16.65236-2.91356,4.856-7.28965,8.63189-11.6,12.3202q-6.58005,5.66334-13.18186,11.30518c-2.128,1.82249-3.75406,3.601-6.27468,4.76877-2.85932,1.32013-5.54351,3.53559-8.19528,5.2487a27.26364,27.26364,0,0,1-3.04445-5.46716,32.36917,32.36917,0,0,1-1.27681-3.66649.97378.97378,0,0,1,.6984-1.4186c4.24489-1.83339,8.63159-3.71012,12.09083-6.89667a46.46552,46.46552,0,0,0,6.88577-7.955,45.7962,45.7962,0,0,0,7.59506-18.9766c1.18924-7.73686.44726-16.00851,3.91736-23.02516a13.97325,13.97325,0,0,1,5.59805-6.25281,8.533,8.533,0,0,1,4.35432-1.08017,7.96426,7.96426,0,0,1,7.59472,6.03436C991.06112,423.26912,990.483,429.51073,989.47886,435.32724Z"/><path class="cls-7" d="M989.47886,435.32724c-.03268.19633-.07636.39267-.10908.589-1.015,5.70743-1.9861,11.6-5.01964,16.65236-2.91356,4.856-7.28965,8.63189-11.6,12.3202q-6.58005,5.66334-13.18186,11.30518c-2.128,1.82249-3.75406,3.601-6.27468,4.76877-2.85932,1.32013-5.54351,3.53559-8.19528,5.2487a27.26364,27.26364,0,0,1-3.04445-5.46716c12.37443-7.01665,24.8801-14.84078,32.00579-27.0625a48.3833,48.3833,0,0,0,4.234-9.61389,79.90852,79.90852,0,0,0,3.29563-18.8348c.21815-3.22988.32757-6.46006.393-9.69024a31.16146,31.16146,0,0,1-.06541-4.07008,7.96426,7.96426,0,0,1,7.59472,6.03436C991.06112,423.26912,990.483,429.51073,989.47886,435.32724Z"/><path class="cls-11" d="M969.41,403.73017c3.44288,4.30823,15.94154,12.91588,18.19549,2.83842a6.64792,6.64792,0,0,0-4.04129-7.37267c-4.49486-1.91823-8.8852,1.44224-13.27189,2.00277-1.37437.17543-1.39164,2.3603,0,2.18244,4.20763-.53781,13.04465-5.84741,15.09382.65446a4.09079,4.09079,0,0,1-1.81678,4.65151c-2.11457,1.13621-4.87663-.2633-6.67761-1.27953a20.59778,20.59778,0,0,1-5.93861-5.22083c-.87655-1.09682-2.4118.4563-1.54313,1.54343Z"/><path class="cls-11" d="M968.55767,402.13644a19.85594,19.85594,0,0,0,7.2645,16.97959c1.07834.88261,2.63117-.65264,1.54313-1.54343a17.83119,17.83119,0,0,1-6.62519-15.43616c.10548-1.40072-2.0773-1.394-2.18244,0Z"/><path d="M1001.77724,417.39808a8.09833,8.09833,0,0,1-2.06245-.26179c-5.44535-1.36406-9.43937-7.85684-14.30631-11.74179-5.456-4.36488-12.00357-5.45625-10.9122-10.9125,1.09111-5.456,3.27381-8.72977,5.45625-14.186,1.03653-2.586,1.02563-5.85984-.78565-8.11863-1.51707-1.89884-4.46335-2.15-6.64575-1.34225-.74207.2836-1.42955.57841-2.117.84019-1.997.77475-3.841,1.255-6.22009.08727a6.92694,6.92694,0,0,1-3.75375-7.56234,9.60448,9.60448,0,0,1,1.44042-3.17534c3.06626-4.507,9.65752-7.2133,14.49143-7.79141A22.74121,22.74121,0,0,1,986.958,354.51c3.132,1.16773,5.11816,3.91767,8.08621,5.54352,1.83339,1.015,3.874,1.88793,5.096,3.60134,2.5427,3.568.30572,8.86066,2.31364,12.76742,1.62585,3.14261,5.27052,4.354,7.73686,6.6564,2.86993,2.67358,4.16855,5.13993,3.59014,9.22091C1012.68945,399.93825,1019.14951,417.39808,1001.77724,417.39808Z"/><path class="cls-7" d="M1010.50705,515.60942c-.37121,3.67739-8.16231,6.76578-18.47459,8.77369.45843-9.27575.78566-18.58392-.21815-27.82664a84.3376,84.3376,0,0,0-1.82249-10.55225,65.35853,65.35853,0,0,0-2.80448-8.90459,38.89414,38.89414,0,0,0-3.06626-6.67822l10.01747-.64385S1012.0565,500.05934,1010.50705,515.60942Z"/><path class="cls-6" d="M974.463,639.46648c-.45267.42116-.94078.95745-.83383,1.56646a1.2901,1.2901,0,0,0,1.12349.94594,3.78266,3.78266,0,0,0,1.54434-.20664,40.69831,40.69831,0,0,0,7.85837-2.78145,13.6612,13.6612,0,0,0,6.00951-5.60775,4.33341,4.33341,0,0,0,.459-3.55256c-1.40042-3.40168-5.71951,1.188-7.26632,2.31212A95.39511,95.39511,0,0,0,974.463,639.46648Z"/><path class="cls-6" d="M950.497,638.45207c-.44843.4257-.93139.96684-.81833,1.57464a1.2898,1.2898,0,0,0,1.13283.93473,3.77837,3.77837,0,0,0,1.54192-.22149,40.71856,40.71856,0,0,0,7.83079-2.859,13.66091,13.66091,0,0,0,5.95377-5.66683,4.33124,4.33124,0,0,0,.42388-3.5568c-1.43371-3.38774-5.70743,1.24438-7.243,2.38362A95.43459,95.43459,0,0,0,950.497,638.45207Z"/><path class="cls-4" d="M862.38162,249.96492c-29.92547,21.60383-55.39632,49.58924-72.18325,82.418-2.12366,4.14976-5.84014,11.28064-1.57858,15.33283a6.50712,6.50712,0,0,0,2.14124,1.35407c3.77439,1.49465,8.75672-.32541,12.139-1.74159,11.69392-4.88,22.04256-12.74075,30.67657-21.94045a116.22883,116.22883,0,0,0,13.23493-17.13108c10.4056-16.34937,17.09291-34.687,22.56613-53.33542a4.49345,4.49345,0,0,0-2.03549-5.16993A4.42377,4.42377,0,0,0,862.38162,249.96492Z"/><path class="cls-6" d="M867.34218,249.75131q-10.92306,13.7-21.85925,27.36792-20.166,25.23441-40.34284,50.48034c-2.63879,3.308-16.33,16.49329-14.37906,21.47021,3.77439,1.49465,8.75672-.32541,12.139-1.74159,11.69392-4.88,22.04256-12.74075,30.67657-21.94045a116.22883,116.22883,0,0,0,13.23493-17.13108c10.4056-16.34937,17.09291-34.687,22.56613-53.33542A4.49345,4.49345,0,0,0,867.34218,249.75131Z"/><path class="cls-12" d="M790.10051,277.08136c17.03836,35.81984-4.11583,73.44247-15.67279,107.3053-10.93947,32.05366-10.51438,65.41383,4.87542,95.99708.63143,1.25469,2.51482.15089,1.8843-1.10167A115.54561,115.54561,0,0,1,768.707,424.44836c.46513-18.75935,6.39189-36.39734,13.06617-53.73809,11.50242-29.88395,25.07549-63.48257,10.212-94.73028-.60326-1.26772-2.48539-.1615-1.8846,1.10137Z"/><path class="cls-12" d="M911.41881,296.2446c-31.90611,25.93629-26.09532,71.71452-45.151,104.88713-21.0036,36.564-65.385,49.47077-93.375,79.2608-.96143,1.0232.579,2.56966,1.54309,1.54343,27.20582-28.95559,69.06941-41.75815,91.30709-75.77338,21.80562-33.3541,14.29449-81.61049,47.219-108.37485,1.09016-.88625-.46206-2.42211-1.54313-1.54313Z"/><path class="cls-12" d="M658.56843,210.82248c-2.557,20.69971,14.29536,35.54321,31.05922,44.086,20.66577,10.531,47.811,17.86614,54.51162,43.26644,3.19932,12.12719,1.342,24.96793.23846,37.243a163.55546,163.55546,0,0,0,.40934,36.07677A154.93734,154.93734,0,0,0,768.191,435.09939c.75657,1.178,2.64662.08483,1.8846-1.10168a152.4897,152.4897,0,0,1-23.87868-69.72144c-1.00259-12.109-.03848-23.962,1.03653-36.02315.90564-10.16321,1.64437-20.674-.98957-30.6584-5.19265-19.68408-23.18331-29.77972-40.47347-37.59627-20.33854-9.19485-48.36542-22.08649-45.01954-49.176.17184-1.39072-2.01216-1.3783-2.1824,0Z"/><path class="cls-13" d="M831.54415,482.8722,826.55723,498.968l-23.38511,75.56825h-64.383s-5.07419-24.19258-10.072-47.7307c-3.91767-18.42-7.7808-36.45824-9.123-42.16537-.21815-.93836-.37086-1.54949-.44721-1.76795Z"/><path class="cls-7" d="M831.54415,482.8722,826.55723,498.968c-23.03606,6.59125-76.50661,21.87955-97.84017,27.83755-3.91767-18.42-7.7808-36.45824-9.123-42.16537.02182-.63294.03273-1.22226.04363-1.76795Z"/><path class="cls-13" d="M700.5956,465.41268c1.09141,1.09107,8.73006,25.09822,8.73006,25.09822h133.131l7.63869-31.64585Z"/><path class="cls-5" d="M902.06549,111.30616A111.3063,111.3063,0,0,0,789.17093.01108C729.75237.83946,681.03544,48.938,679.49171,108.342A111.34527,111.34527,0,0,0,757.24149,217.4707a4.33384,4.33384,0,0,1,2.96325,4.2346l-.00031.03393v26.84435a7.88009,7.88009,0,0,0,7.85715,7.85715h45.39525a7.88,7.88,0,0,0,7.85715-7.85684V221.73923l-.00026-.03393a4.46045,4.46045,0,0,1,3.08652-4.27338A111.35037,111.35037,0,0,0,902.06549,111.30616Z"/><path class="cls-6" d="M762.79753,246.6196h55.92325a2.5932,2.5932,0,0,1,2.5932,2.5932v18.82085a2.5931,2.5931,0,0,1-2.5931,2.5931H762.79763a2.5932,2.5932,0,0,1-2.5932-2.5932V249.2127A2.5931,2.5931,0,0,1,762.79753,246.6196Z"/><path class="cls-6" d="M774.7443,261.89668h32.02983a1.9906,1.9906,0,0,1,1.9906,1.9906v20.02615a1.9907,1.9907,0,0,1-1.9907,1.9907H774.7443a1.9906,1.9906,0,0,1-1.9906-1.9906V263.88728A1.9906,1.9906,0,0,1,774.7443,261.89668Z"/><path class="cls-11" d="M784.75424,243.54213c1.96883-22.943,2.88083-45.96,2.59875-68.98761-.25421-20.75576-.74263-41.9457-3.918-62.48664-1.40588-9.09668-4.66454-33.87646-19.169-31.35225-12.85376,2.23668-15.76126,19.68045-12.82494,30.01636,3.94641,13.8906,16.71534,22.3701,30.92624,22.2992,14.75651-.07393,27.6-8.90126,34.45422-21.72988,4.99541-9.34907,11.22428-30.23481-.68567-37.20723-4.48244-2.6239-9.47239-1.36861-12.64833,2.60784-4.324,5.41444-3.47046,13.45914-3.58832,19.88678q-1.39657,76.10137-2.79327,152.20243a1.09188,1.09188,0,0,0,2.18244,0q.87579-47.736,1.75223-95.4723.44443-24.21409.88864-48.42819c.12941-7.04059-.82262-15.1371,1.00714-21.99832,1.97822-7.41751,11.35184-10.55407,15.73793-3.05081,2.77054,4.73968,1.96823,11.68967.98987,16.83506C817.02,110.586,808.06394,123.7827,794.3857,128.713c-13.97873,5.03873-31.105,1.01108-38.44464-12.67955A28.36516,28.36516,0,0,1,753.2402,95.884c2.65662-10.49408,15.1171-18.65574,21.69321-6.31524,7.27207,13.647,7.65206,31.27741,8.6831,46.34573a699.96728,699.96728,0,0,1-1.04471,107.62769c-.12,1.39921,2.06306,1.391,2.18244,0Z"/><path class="cls-6" d="M754.27863,234.616H826.9671a2.9403,2.9403,0,0,1,2.9403,2.9403v18.12655a2.9403,2.9403,0,0,1-2.9403,2.9403H754.27861a2.94029,2.94029,0,0,1-2.94029-2.94029V237.55633A2.9403,2.9403,0,0,1,754.27863,234.616Z"/><path class="cls-14" d="M844.40246,30.56131a122.86781,122.86781,0,0,1,36.40522,62.53391c1.43557,6.241,2.37908,12.7156,1.38618,19.042a16.06706,16.06706,0,0,1-2.98052,7.63567,8.176,8.176,0,0,1-7.22874,3.24745c-2.9581-.41328-5.29294-2.87326-6.46885-5.619s-1.41618-5.78378-1.76215-8.75036c-1.67225-14.329-6.43465-28.75592-16.24367-39.33423-5.58653-6.02466-12.54683-10.51317-19.74922-14.36115-7.01605-3.748-16.05213-6.25039-22.25617-11.23852-4.87875-3.92282-5.75379-12.10174-2.36116-17.31742,3.36925-5.18023,10.06864-6.96848,15.883-7.29692C829.0669,18.53562,837.28825,24.03338,844.40246,30.56131Z"/><path class="cls-14" d="M877.80171,143.57011a8.972,8.972,0,0,1-15.50129,9.03729C856.363,142.62387,872.057,133.51749,877.80171,143.57011Z"/><path class="cls-5" d="M1008.84571,268.3113c21.72957-25.97477,20.397-62.81084-3.112-81.86046-22.45765-18.19731-57.48972-13.2519-78.88535,11.15308-18.39611,20.9836-21.31235,49.55591-9.24,69.98414a2.368,2.368,0,0,1-.37874,2.69873l-.01181.01424-9.40847,11.2461a4.08921,4.08921,0,0,0,.17756,5.74349l16.93595,14.16814a4.089,4.089,0,0,0,5.68471-.83928l9.40816-11.24641.01212-.01424a2.428,2.428,0,0,1,2.649-.82686C964.4737,296.61091,991.411,289.15189,1008.84571,268.3113Z"/><path class="cls-6" d="M902.16449,288.7325h27.05084a1.33656,1.33656,0,0,1,1.33656,1.33656v10.43981a1.33657,1.33657,0,0,1-1.33657,1.33657H902.16456a1.33662,1.33662,0,0,1-1.33662-1.33662V290.069a1.33655,1.33655,0,0,1,1.33655-1.33655Z" transform="translate(402.83851 -518.75466) rotate(39.91556)"/><path class="cls-6" d="M902.60384,295.133h15.46359a1.02605,1.02605,0,0,1,1.02605,1.02605v11.06068a1.026,1.026,0,0,1-1.026,1.026H902.60383a1.026,1.026,0,0,1-1.026-1.026V296.159A1.02605,1.02605,0,0,1,902.60384,295.133Z" transform="translate(405.67523 -513.81375) rotate(39.91397)"/><path class="cls-11" d="M919.09962,287.52786c9.28848-9.54723,18.17337-19.468,26.555-29.82275,7.53572-9.30908,15.48251-18.86449,21.26084-29.39068,2.38029-4.3358,7.722-14.00907.47145-16.64933-6.09738-2.22-12.52956,4.12219-14.92258,8.98458-8.14621,16.55267,10.45287,28.019,24.84279,21.52717,4.83149-2.17941,14.07937-8.40284,13.471-14.83684-.49236-5.20992-5.156-6.23524-8.8549-3.91009-5.01812,3.15413-8.78672,9.1591-12.60349,13.57276q-7.72718,8.93565-15.454,17.87159-16.36331,18.923-32.72661,37.84564c-.91473,1.05774.62264,2.60784,1.54317,1.54313q20.90856-24.1791,41.81719-48.35819,5.00025-5.782,9.9999-11.56394c1.50924-1.74523,2.95022-3.588,4.54546-5.25628a20.3916,20.3916,0,0,1,3.97978-3.77041q2.39379.41313,4.78756.82625c3.01657,3.83647-5.033,10.19987-7.55866,11.8945-4.55611,3.05627-10.08751,4.89572-15.57255,3.868-12.83407-2.40514-15.963-18.90813-5.24931-26.19656,4.55365-3.09778,9.40725-3.15232,8.78309,4.52213-.19331,2.37757-2.024,4.85118-3.18348,6.98424a109.61643,109.61643,0,0,1-7.75235,11.79663,425.7404,425.7404,0,0,1-39.72236,46.97534c-.98018,1.00714.56174,2.55209,1.54313,1.54313Z"/><path class="cls-6" d="M902.25335,283.66124h35.18518a1.5156,1.5156,0,0,1,1.5156,1.5156v10.08179a1.51555,1.51555,0,0,1-1.51555,1.51555H902.25325a1.51552,1.51552,0,0,1-1.51552-1.51552v-10.0818A1.51562,1.51562,0,0,1,902.25335,283.66124Z" transform="translate(400.54251 -522.59642) rotate(39.91482)"/><path class="cls-14" d="M1015.63209,216.4875a69.325,69.325,0,0,1-8.33466,37.55991,30.86543,30.86543,0,0,1-6.15677,8.41011,9.42323,9.42323,0,0,1-3.788,2.26849,3.81052,3.81052,0,0,1-3.83495-.89534,4.52081,4.52081,0,0,1-.44388-4.37306,18.85078,18.85078,0,0,1,2.40908-4.21581c4.39825-6.5249,7.67778-14.05543,7.72565-21.54838a36.4163,36.4163,0,0,0-2.33485-12.18022c-1.30376-3.75981-3.798-7.62839-4.36427-11.65423-.44509-3.16625,2.09488-6.86576,5.18841-7.992,3.07263-1.11864,6.19858.223,8.48282,1.90006C1014.12532,206.663,1015.26577,211.53239,1015.63209,216.4875Z"/><path class="cls-14" d="M988.486,274.25506a5.46021,5.46021,0,0,1-5.49716,4.091,4.25615,4.25615,0,0,1-3.45344-5.143C980.81939,267.16751,989.86578,268.2507,988.486,274.25506Z"/><path class="cls-5" d="M663.59349,127.30618c-13.41066-24.11744-42.90709-33.26078-65.59865-20.20159-21.67655,12.47533-29.19283,41.14884-16.912,64.57182,10.55922,20.13978,32.15092,30.31057,52.20253,26.54712a1.926,1.926,0,0,1,2.0058,1.04108l.00727.01333,5.80621,10.442a3.41608,3.41608,0,0,0,4.58973,1.4492l16.69781-9.28484a3.41563,3.41563,0,0,0,1.19041-4.663l-5.8062-10.44226-.00728-.013a1.979,1.979,0,0,1,.21089-2.29364C671.45852,169.71546,674.35329,146.65667,663.59349,127.30618Z"/><path class="cls-6" d="M642.77878,202.03315h23.4727a1.12321,1.12321,0,0,1,1.12321,1.12321v8.4385a1.12321,1.12321,0,0,1-1.12321,1.12321H642.77882a1.12329,1.12329,0,0,1-1.12329-1.12329V203.1564a1.12325,1.12325,0,0,1,1.12325-1.12325Z" transform="translate(-18.29327 344.20968) rotate(-29.07609)"/><path class="cls-6" d="M651.10381,207.97584h13.43141a.86232.86232,0,0,1,.86232.86232v8.9604a.86222.86222,0,0,1-.86222.86222H651.10374a.86223.86223,0,0,1-.86223-.86223v-8.96042a.86229.86229,0,0,1,.86229-.86229Z" transform="translate(-20.7613 346.58229) rotate(-29.0776)"/><path class="cls-11" d="M649.58533,202.41a337.04482,337.04482,0,0,0-16.89445-32.38362c-5.47928-9.20576-11.05093-18.94994-19.139-26.1399-2.82508-2.51149-8.65007-6.04254-11.47516-1.64494-2.8572,4.4473,1.82643,12.17961,4.68818,15.33465,4.61818,5.09176,11.70906,6.60186,17.79826,3.15141,6.59187-3.735,9.87628-12.51533,9.69146-19.81952-.13483-5.3299-1.69129-11.37184-7.0612-13.32552-4.75482-1.72977-7.9438-1.07319-8.18343,4.15067-.1988,4.3367,1.40342,7.51537,3.39073,11.28094,3.36168,6.36856,6.78032,12.70772,10.17018,19.06143q10.80585,20.25234,21.6114,40.505c.66143,1.23983,2.546.13846,1.8843-1.10137Q643.35417,177.6523,630.64179,153.826c-1.94462-3.64467-14.6272-22.33434-7.47723-24.87794,3.85919-1.37285,6.64913,3.45621,7.63082,6.1098,1.96065,5.29809,1.31255,10.94856-.95806,16.06334-5.66835,12.77015-20.237,11.14793-25.16154-1.17893-1.07622-2.693-3.69952-9.50966,6.37128-5.41262.90325.36752,2.02,1.87,2.69392,2.52482a67.87836,67.87836,0,0,1,9.04427,11.28579,324.95964,324.95964,0,0,1,24.91548,45.17134c.58295,1.27589,2.46453.16785,1.8846-1.10168Z"/><path class="cls-6" d="M636.60863,197.39177h30.52005a1.27371,1.27371,0,0,1,1.27371,1.27371v8.13775a1.27361,1.27361,0,0,1-1.27361,1.27361H636.60862a1.27366,1.27366,0,0,1-1.27366-1.27366v-8.13774a1.27367,1.27367,0,0,1,1.27367-1.27367Z" transform="translate(-16.37141 342.33787) rotate(-29.07602)"/><path class="cls-14" d="M624.91857,107.69179a55.451,55.451,0,0,1,26.91677,16.87839,23.72831,23.72831,0,0,1,4.62848,7.12361,7.39191,7.39191,0,0,1,.55508,3.57983,3.366,3.366,0,0,1-1.95641,2.74176,3.81729,3.81729,0,0,1-3.59468-.86261,14.55837,14.55837,0,0,1-2.54088-3.04354c-3.71432-5.23144-8.58675-9.86931-14.4826-11.97782a31.19883,31.19883,0,0,0-10.3708-1.54677c-3.39137-.023-7.25632.85171-10.61709.18028-2.64329-.52811-4.73422-3.53045-4.61424-6.25312.11877-2.70419,2.19638-4.77,4.264-6.08708C616.67662,106.15048,620.89,106.60739,624.91857,107.69179Z"/><path class="cls-14" d="M661.64681,144.819a4.28663,4.28663,0,0,1,1.43618,5.41565,3.80126,3.80126,0,0,1-5.1833,1.27014C653.55663,148.83578,657.3595,142.08363,661.64681,144.819Z"/><path class="cls-4" d="M870.9814,298.76972c-6.82,11.10884-11.50152,23.59266-15.37522,36.1092-5.19451,16.7284-9.19943,33.88282-16.16151,49.95677-9.48273,21.87924-24.19262,41.074-39.84117,59.0686-3.52438,4.04856-7.15845,8.09682-11.61059,11.087-3.252,2.19335-9.16638,5.54351-13.14949,3.43743-.08722-.04363-.17452-.08757-.26178-.14211-3.63377-2.19334-5.489-9.12274-6.56914-12.86558-3.21927-11.07612-2.6954-23.01425-.78562-34.2758a154.17537,154.17537,0,0,1,98.36371-118.84651,4.45934,4.45934,0,0,1,5.39081,6.471Z"/><path class="cls-4" d="M768.99449,455.85333c-2.4118,1.724-9.7775-3.05536-12.222-4.16855a260.95014,260.95014,0,0,1-27.09519-14.04421A160.20414,160.20414,0,0,1,702.86564,417.682c-20.71186-19.34776-35.36721-46.94505-33.11932-75.1974a74.31961,74.31961,0,0,1,37.46235-58.10842,19.11835,19.11835,0,0,1,3.10989-1.39649h.01091c2.58637-.8514,5.31446-.96048,7.093.91655,1.96429,2.06245,1.528,5.35778.97142,8.15135-3.372,17.09988-5.93653,35.269.17449,51.58292,6.03466,16.10668,19.62045,28.05571,28.66684,42.68924,10.90129,17.63435,14.78628,38.30225,20.44974,57.95542.43661,1.49526,2.05155,5.07449,2.357,7.94441C770.21676,453.78,769.9983,455.144,768.99449,455.85333Z"/><path class="cls-4" d="M873.8186,385.11929c-.81838,4.94329-2.77176,16.97958-8.62069,18.59452a5.1596,5.1596,0,0,1-2.76085-.04363c-4.87754-1.34194-10.03928-8.56614-12.24354-11.82875a49.49761,49.49761,0,0,1-7.76958-19.52228c-2.41181-14.42629,1.03653-29.35433,7.19117-42.6238.1418.09817.29485.19634.43631.29451a55.11436,55.11436,0,0,1,23.76718,55.12943Z"/><path class="cls-6" d="M873.8186,385.11929c-.81838,4.94329-2.77176,16.97958-8.62069,18.59452a5.1596,5.1596,0,0,1-2.76085-.04363,443.85016,443.85016,0,0,0-6.65639-48.287q-2.35743-12.22748-5.41263-24.29105c-.08726-.34935-.19633-.72021-.31662-1.10228a55.11436,55.11436,0,0,1,23.76718,55.12943Z"/><path class="cls-4" d="M949.53956,362.44348a2.67905,2.67905,0,0,1-.39268,1.54949,7.93535,7.93535,0,0,1-1.135,1.495q-11.26164,12.39109-22.51219,24.771c-5.63078,6.19828-11.39275,12.50563-18.64937,16.7069-7.25662,4.19036-16.37936,6.01285-24.0835,2.739a19.7745,19.7745,0,0,1-8.92641-8.108,12.94127,12.94127,0,0,1-1.86581-6.88546c.20724-5.31445,6.12162-9.07911,9.81023-12.15659a98.60341,98.60341,0,0,1,38.80429-19.76225,97.02567,97.02567,0,0,1,23.96352-3.05535C946.64782,359.73717,949.376,360.35921,949.53956,362.44348Z"/><path class="cls-4" d="M711.759,241.01064c-.15271,5.89256-1.66948,15.51736-7.49655,18.78-.01095.0109-.03276.0109-.04367.02181-6.613,3.63407-11.77451-10.57406-13.80425-15.38646-6.60216-15.681-7.26749-33.04263-7.19117-50.15311a3.40651,3.40651,0,0,1,3.69921-3.372,3.35911,3.35911,0,0,1,1.83339.75293A62.69053,62.69053,0,0,1,711.759,241.01064Z"/><path class="cls-4" d="M694.081,277.02136A42.04425,42.04425,0,0,1,680.877,290.269a42.84081,42.84081,0,0,1-38.86974,2.96809,6.13709,6.13709,0,0,1-2.95719-2.10608,3.19343,3.19343,0,0,1-.40389-.90564,7.64619,7.64619,0,0,1,.469-4.40882,45.68382,45.68382,0,0,1,45.75584-31.0238c3.67736.18543,10.62857.40389,13.597,3.65558a5.05733,5.05733,0,0,1,.9929,1.528C701.50154,264.82145,696.56916,273.071,694.081,277.02136Z"/><path class="cls-6" d="M870.9814,298.76972c-6.82,11.10884-11.50152,23.59266-15.37522,36.1092-5.19451,16.7284-9.19943,33.88282-16.16151,49.95677-9.48273,21.87924-24.19262,41.074-39.84117,59.0686-3.52438,4.04856-7.15845,8.09682-11.61059,11.087-3.252,2.19335-9.16638,5.54351-13.14949,3.43743a13.80043,13.80043,0,0,1,.73112-5.68532,365.1006,365.1006,0,0,1,18.2782-47.1635,431.49823,431.49823,0,0,1,46.79234-76.89929c8.57709-11.33821,17.68889-25.3497,28.63412-34.50517.37086-.30541.7202-.5781,1.06955-.81837A4.35875,4.35875,0,0,1,870.9814,298.76972Z"/><path class="cls-6" d="M770.04193,452.21956c-6.078-.67657-17.19774-14.91743-20.35157-18.02733a341.90537,341.90537,0,0,1-25.5021-27.54274c-14.5899-17.9837-26.495-38.83732-30.09635-61.72038-3.43743-21.792,1.57131-45.59189,16.22665-61.94944h.01091c2.58637-.8514,5.31446-.96048,7.093.91655,1.96429,2.06245,1.528,5.35778.97142,8.15135-3.372,17.09988-5.93653,35.269.17449,51.58292,6.03466,16.10668,19.62045,28.05571,28.66684,42.68924,10.90129,17.63435,14.78628,38.30225,20.44974,57.95542C768.12158,445.77041,769.73652,449.34964,770.04193,452.21956Z"/><path class="cls-4" d="M790.64468,348.33382c-1.4077,2.24788-3.06657-1.61525-4.26671-2.89175a35.82489,35.82489,0,0,0-6.17647-4.91056c-17.678-11.97116-35.09417-26.059-43.80212-45.54826-7.486-16.73962-7.68232-35.75985-4.1031-53.91807a5.083,5.083,0,0,1,9.24273-1.80067c11.09763,17.15441,21.86834,34.52667,30.47815,53.03424a256.87388,256.87388,0,0,1,13.946,37.20027C786.83609,332.51074,792.22689,345.78021,790.64468,348.33382Z"/><path class="cls-6" d="M790.64468,348.33382c-16.83779-28.19782-33.58832-56.47168-48.41819-85.76056-2.30242-4.55031-9.31934-17.98339-6.76577-25.273a5.0053,5.0053,0,0,1,6.07829,1.96429c11.09763,17.15441,21.86834,34.52667,30.47815,53.03424a256.87388,256.87388,0,0,1,13.946,37.20027C786.83609,332.51074,792.22689,345.78021,790.64468,348.33382Z"/><path class="cls-6" d="M949.14688,363.993a7.93535,7.93535,0,0,1-1.135,1.495q-11.26164,12.39109-22.51219,24.771c-5.63078,6.19828-11.39275,12.50563-18.64937,16.7069-7.25662,4.19036-16.37936,6.01285-24.0835,2.739a19.7745,19.7745,0,0,1-8.92641-8.108c2.72813-2.45513,6.83123-4.16824,9.81023-5.9471,15.33193-9.15546,30.96957-17.92886,47.43619-24.91279C937.00121,368.227,943.025,365.95726,949.14688,363.993Z"/><path class="cls-6" d="M694.081,277.02136A42.04425,42.04425,0,0,1,680.877,290.269a42.84081,42.84081,0,0,1-38.86974,2.96809,6.13709,6.13709,0,0,1-2.95719-2.10608,3.19343,3.19343,0,0,1-.40389-.90564c3.3938-1.47314,7.1694-2.48816,9.39574-3.45925A263.58929,263.58929,0,0,0,686.006,266.36c1.18924-.76384,7.38752-4.48517,12.462-7.91169a5.05733,5.05733,0,0,1,.9929,1.528C701.50154,264.82145,696.56916,273.071,694.081,277.02136Z"/><path class="cls-6" d="M711.759,241.01064c-.15271,5.89256-1.66948,15.51736-7.49655,18.78-.01095.0109-.03276.0109-.04367.02181a384.586,384.586,0,0,0-8.20619-39.91718q-3.09369-11.86754-6.9294-23.5054c-.38207-1.16772-1.32043-3.252-2.16062-5.489a3.35911,3.35911,0,0,1,1.83339.75293A62.69053,62.69053,0,0,1,711.759,241.01064Z"/><circle class="cls-10" cx="960.58061" cy="116.48707" r="22.09521" transform="translate(627.18203 1024.85359) rotate(-76.75965)"/><path class="cls-7" d="M980.35127,106.62253a22.09508,22.09508,0,1,1-29.6352-9.906A22.095,22.095,0,0,1,980.35127,106.62253Z"/><path class="cls-5" d="M977.22441,117.3078a21.27918,21.27918,0,1,1-21.27933-21.279A21.2793,21.2793,0,0,1,977.22441,117.3078Z"/><path class="cls-11" d="M963.96736,110.28569a6.47092,6.47092,0,0,0-1.04047-.88413,9.08276,9.08276,0,0,0-1.43829-.79656,10.10233,10.10233,0,0,0-1.751-.58932,9.80684,9.80684,0,0,0-1.974-.25935v8.21134l.45115.10423a29.97,29.97,0,0,1,3.44591.95321,10.0153,10.0153,0,0,1,2.6336,1.33376,5.34743,5.34743,0,0,1,1.66372,1.94,6.24183,6.24183,0,0,1,.57265,2.80721,6.50369,6.50369,0,0,1-.65991,3.01445,5.87653,5.87653,0,0,1-1.80189,2.11336,8.2815,8.2815,0,0,1-2.71843,1.26468,13.66653,13.66653,0,0,1-3.378.46812v3.46561h-1.52556v-3.50076a15.11787,15.11787,0,0,1-8.87125-3.43045l1.49162-2.63239a9.89468,9.89468,0,0,0,1.28013,1.05623,10.89431,10.89431,0,0,0,1.75129.98835,15.31234,15.31234,0,0,0,2.13184.7796,12.24618,12.24618,0,0,0,2.3912.433V118.844l-.52175-.13816a30.59885,30.59885,0,0,1-3.29078-.97018,8.9615,8.9615,0,0,1-2.37423-1.24771,4.72983,4.72983,0,0,1-1.4383-1.76674,5.85392,5.85392,0,0,1-.48478-2.49543,7.11265,7.11265,0,0,1,.58931-2.96234,6.3764,6.3764,0,0,1,1.64676-2.21759,7.78783,7.78783,0,0,1,2.51239-1.43829,11.443,11.443,0,0,1,3.18655-.62325V101.485h1.52556v3.49924a12.8235,12.8235,0,0,1,4.13946.832,11.97334,11.97334,0,0,1,3.31047,1.94Zm-12.23263,1.455a3.4915,3.4915,0,0,0,.29329,1.49041,2.902,2.902,0,0,0,.88534,1.0744,5.521,5.521,0,0,0,1.52283.7796q.939.33,2.18547.64022v-7.96895a6.02419,6.02419,0,0,0-3.7083,1.17711A3.5522,3.5522,0,0,0,951.73473,111.74065Zm11.46849,11.67695a3.07419,3.07419,0,0,0-.36389-1.541,3.63585,3.63585,0,0,0-1.05744-1.14348,7.23359,7.23359,0,0,0-1.69765-.88383,23.36813,23.36813,0,0,0-2.32061-.72748v8.03773a7.28891,7.28891,0,0,0,4.01826-.93472A3.13738,3.13738,0,0,0,963.20322,123.4176Z"/><path class="cls-10" d="M611.57881,270.00774a22.09508,22.09508,0,1,1-29.37308-10.6586A22.09513,22.09513,0,0,1,611.57881,270.00774Z"/><path class="cls-7" d="M605.2957,262.05575a22.0951,22.0951,0,1,1-31.042,3.5765A22.09534,22.09534,0,0,1,605.2957,262.05575Z"/><path class="cls-5" d="M606.9882,273.06007a21.27907,21.27907,0,1,1-28.2884-10.26532A21.27879,21.27879,0,0,1,606.9882,273.06007Z"/><path class="cls-11" d="M592.00471,272.31289a6.456,6.456,0,0,0-1.31709-.36025,9.059,9.059,0,0,0-1.64009-.11241,10.07133,10.07133,0,0,0-1.83582.20754,9.81285,9.81285,0,0,0-1.89824.60084l3.47773,7.43871.45267-.09635a29.91872,29.91872,0,0,1,3.52529-.596,10.01692,10.01692,0,0,1,2.95082.09272,5.34923,5.34923,0,0,1,2.32879,1.05319,6.24372,6.24372,0,0,1,1.70735,2.30031,6.50441,6.50441,0,0,1,.6787,3.01021,5.87651,5.87651,0,0,1-.73718,2.67783,8.2842,8.2842,0,0,1-1.927,2.297,13.67853,13.67853,0,0,1-2.862,1.8546l1.46768,3.13959-1.38194.646-1.48253-3.17141a15.118,15.118,0,0,1-9.48906.64931l.23634-3.01627a9.90264,9.90264,0,0,0,1.60706.41449,10.88742,10.88742,0,0,0,2.00489.15362,15.31448,15.31448,0,0,0,2.26152-.19634,12.27206,12.27206,0,0,0,2.34938-.62052l-3.50738-7.50265-.53118.09574a30.58951,30.58951,0,0,1-3.39167.51478,8.95547,8.95547,0,0,1-2.67931-.12483,4.72311,4.72311,0,0,1-2.051-.99139,5.84938,5.84938,0,0,1-1.49617-2.05518,7.11172,7.11172,0,0,1-.72081-2.933,6.38264,6.38264,0,0,1,.55265-2.70661,7.78147,7.78147,0,0,1,1.66709-2.367,11.44483,11.44483,0,0,1,2.62265-1.914l-1.48192-3.16989,1.38194-.64628,1.48192,3.17019a12.82755,12.82755,0,0,1,4.10219-.99957,11.97032,11.97032,0,0,1,3.82071.35571Zm-10.46529,6.49854a3.493,3.493,0,0,0,.89685,1.2259,2.90464,2.90464,0,0,0,1.25715.5981,5.51116,5.51116,0,0,0,1.70943.06151q.99078-.09862,2.25092-.34571l-3.37471-7.21875a6.02123,6.02123,0,0,0-2.86053,2.63662A3.55157,3.55157,0,0,0,581.53942,278.81143Zm15.33435,5.72137a3.0711,3.0711,0,0,0-.98229-1.242,3.63431,3.63431,0,0,0-1.4419-.5881,7.22669,7.22669,0,0,0-1.91221-.08181,23.423,23.423,0,0,0-2.41059.3236l3.4041,7.28177a7.28786,7.28786,0,0,0,3.24412-2.54876A3.13715,3.13715,0,0,0,596.87377,284.5328Z"/><path class="cls-12" d="M1057.88108,570.04318c.889,4.5591,1.82976,12.93224-4.47967,11.99963-5.53022-.8208-11.46975-7.692-14.49935-11.89662a73.71013,73.71013,0,0,1-8.49494-16.64266c.18755.10211.373.19482.55841.28754,1.33922.65961,3.19837,1.14227,4.13976-.02.94386-1.15318.09635-2.872-.85171-4.01705a24.06875,24.06875,0,0,0-7.2745-5.90892,57.79668,57.79668,0,0,1-2.94351-16.31937c.63931.5975,1.2804,1.20439,1.91971,1.80189.79626.73535,1.79219,1.54131,2.83725,1.25377,1.60792-.44539,1.52884-2.77479.86741-4.314a18.08121,18.08121,0,0,0-4.88542-6.57186,30.15314,30.15314,0,0,1,1.13258-3.87222c1.25317-3.388,3.74466-6.89516,7.35843-7.10392,4.58546-.26723,7.50871,4.69575,9.21005,8.96277.59386,1.49677,1.1898,3.00263,1.75608,4.50577a45.92792,45.92792,0,0,0-4.18066,8.70492c-.48933,1.281-.86625,2.88386.05454,3.90978a2.64768,2.64768,0,0,0,2.8978.50539,6.54367,6.54367,0,0,0,2.41877-1.9255,27.62256,27.62256,0,0,0,1.964-2.47816q1.6716,4.83392,3.15958,9.71024a24.1362,24.1362,0,0,0-4.82694,9.04608c-.26572.94958-.38146,2.174.4412,2.72964.89257.6072,2.06968-.11634,2.84534-.86382a22.6049,22.6049,0,0,0,3.48469-4.2755Q1055.63684,558.52908,1057.88108,570.04318Z"/><path class="cls-4" d="M1067.44225,499.71757c.51236,3.16746.89413,6.35492,1.17106,9.54723-3.61342.5472-7.13634,8.79218-8.26376,11.25276.59749-1.31528,5.3596-1.95126,8.79187-3.3744.19573,4.27337.286,8.5516.34905,12.83619-4.50971.47206-10.21407,7.12028-8.46278,10.12958.51019.87806,1.77669.83958,2.76807.61264a23.5793,23.5793,0,0,0,5.82681-2.48361c-.003.49357.01454.992.0206,1.48314.23937,11.13217.72324,22.827-4.27277,32.78115-1.168,2.32484-4.92026,9.48269-7.79261,9.976-3.26412.55387-4.97722-6.42491-6.10193-9.143a141.9834,141.9834,0,0,1-7.89078-26.07445c-.17513-.849-.33385-1.711-.49024-2.56391a50.62306,50.62306,0,0,0,7.76838,5.19659c-1.71008-.97048-4.0973-14.01664-8.867-12.19082a145.19314,145.19314,0,0,1-1.28438-20.12857,81.00661,81.00661,0,0,0,10.00111,6.76275c-.74808-.39874-5.45079-8.9152-9.79053-13.98877a144.0925,144.0925,0,0,1,1.99156-17.38136c.16967-.94714.34147-1.8849.53175-2.8269a52.06172,52.06172,0,0,0,7.54173,6.02164c-.8714-.51539-3.35652-6.60277-6.14161-12.31233a136.65393,136.65393,0,0,1,5.39656-17.19471,2.00813,2.00813,0,0,1,3.4241-.57144,61.18769,61.18769,0,0,1,9.52758,17.22774c-2.73575,3.83344-4.39033,10.27926-4.76669,12.30717.17967-.988,3.69921-2.78872,7.09119-4.93693C1066.30664,493.65957,1066.94292,496.69221,1067.44225,499.71757Z"/><path class="cls-12" d="M1090.55528,498.85162a90.46658,90.46658,0,0,1,.959,10.09807q.16953,4.0331-.01939,8.06167c-.04333.90806-.1,1.80036-.16362,2.70358l.00213.00939a98.55973,98.55973,0,0,1-1.58192,11.61666,10.42317,10.42317,0,0,0-3.24018,1.07986c-.95169.5269-4.56455,5.04418-5.60593,6.4034a19.6231,19.6231,0,0,1,4.00069,1.10319c.46812.01848.9429.02575,1.42314.01242.44116-.01394.88019-.03727,1.32407-.0809a94.78184,94.78184,0,0,1-4.29671,11.78421,68.91554,68.91554,0,0,0-8.8558,3.38925,3.79149,3.79149,0,0,1-1.03774.48873q-.70583.3354-1.38406.66445c-.90231.44813-1.92248,1.09713-1.98156,2.10579-.05333,1.0747,1.00956,1.83612,1.99489,2.25788a13.3249,13.3249,0,0,0,6.27978.92958c-3.5353,6.12253-7.82837,12.68894-13.11222,17.3765-7.13967,6.32917-11.41183.15816-10.358-7.77292q.84989-6.35325,2.19365-12.61652a14.62247,14.62247,0,0,0,5.861,2.89932c1.42678-3.72709-.81929-8.51676-3.78344-11.42244q1.85748-6.88819,4.33549-13.59943c2.27,3.46046,4.56758,5.43686,6.30311,3.52287,1.46465-1.62039-1.40558-7.4069-3.39895-10.88251q3.06414-7.25131,6.80759-14.1945c1.70008,4.89542,4.7,12.09175,7.30722,8.62584,2.31853-3.08111-.67627-12.70379-2.30576-17.248q2.79373-4.50849,5.88984-8.8352A3.5796,3.5796,0,0,1,1090.55528,498.85162Z"/><path class="cls-12" d="M421.65963,595.855c1.10575,5.67087,2.276,16.08586-5.57207,14.92584-6.87882-1.021-14.26674-9.56778-18.03513-14.7977-4.55418-6.2995-7.74181-13.45263-10.5665-20.7011.23329.127.464.24233.69459.35766,1.66579.82046,3.97831,1.42082,5.14927-.02488,1.174-1.43439.11984-3.57241-1.05941-4.99663a29.9379,29.9379,0,0,0-9.04844-7.34986,71.8904,71.8904,0,0,1-3.6613-20.299c.79521.7432,1.59263,1.49809,2.38784,2.24129.99043.91468,2.22922,1.91717,3.52913,1.55952,2-.554,1.90166-3.45144,1.07894-5.366a22.49061,22.49061,0,0,0-6.07676-8.17446,37.5056,37.5056,0,0,1,1.40876-4.81649c1.55877-4.21424,4.65783-8.57659,9.15284-8.83626,5.70365-.3324,9.33976,5.84084,11.456,11.1484.73868,1.86177,1.47994,3.73485,2.18433,5.60454a57.12715,57.12715,0,0,0-5.20015,10.82768c-.60866,1.59343-1.07749,3.58711.06784,4.86322a3.29336,3.29336,0,0,0,3.60445.62863,8.13965,8.13965,0,0,0,3.00861-2.39506,34.3591,34.3591,0,0,0,2.44291-3.08247q2.07924,6.01269,3.93008,12.07815a30.02164,30.02164,0,0,0-6.004,11.252c-.33052,1.18113-.47449,2.70409.54879,3.39528,1.11022.75526,2.57439-.14472,3.53919-1.07447a28.11705,28.11705,0,0,0,4.33446-5.31811Q418.8681,581.53314,421.65963,595.855Z"/><path class="cls-4" d="M433.55236,508.38c.6373,3.93987,1.11216,7.90462,1.45663,11.87539-4.49458.68064-8.87659,10.93622-10.279,13.99684.7432-1.636,6.66658-2.42709,10.93584-4.19728.24346,5.31547.35577,10.637.43416,15.96639-5.60943.58718-12.70484,8.85661-10.52649,12.59975.6346,1.09219,2.20995,1.04433,3.44309.76205a29.32953,29.32953,0,0,0,7.24772-3.08926c-.00377.61393.01809,1.23389.02563,1.84481.29773,13.84684.89961,28.39353-5.31472,40.77507-1.45286,2.89178-6.1201,11.79512-9.6929,12.40868-4.06009.68893-6.191-7.99168-7.58992-11.37264a176.60561,176.60561,0,0,1-9.815-32.4329c-.21783-1.056-.41526-2.12823-.60979-3.18914a62.96727,62.96727,0,0,0,9.66275,6.46382c-2.12709-1.20714-5.09645-17.43471-11.0293-15.16364a180.5981,180.5981,0,0,1-1.59758-25.03707,100.7611,100.7611,0,0,0,12.44,8.41189c-.93051-.496-6.78-11.08923-12.178-17.4a179.22887,179.22887,0,0,1,2.47721-21.61993c.21105-1.17811.42474-2.34455.66142-3.51626a64.75768,64.75768,0,0,0,9.38084,7.49c-1.0839-.64106-4.175-8.2129-7.63929-15.31477a169.97923,169.97923,0,0,1,6.71255-21.38777,2.49782,2.49782,0,0,1,4.25909-.71079,76.10838,76.10838,0,0,1,11.851,21.42885c-3.40288,4.76825-5.46095,12.78593-5.92908,15.30837.22348-1.229,4.60129-3.46878,8.82042-6.14084C432.13982,500.84472,432.93126,504.61688,433.55236,508.38Z"/><path class="cls-12" d="M462.30166,507.30288a112.52554,112.52554,0,0,1,1.19282,12.56056q.21085,5.01662-.02412,10.02757c-.0539,1.1295-.12437,2.2394-.20352,3.36287l.00264.01168a122.59513,122.59513,0,0,1-1.96767,14.44947,12.9648,12.9648,0,0,0-4.03032,1.34319c-1.18378.65538-5.67766,6.27424-6.973,7.96491a24.40968,24.40968,0,0,1,4.97628,1.37221c.58228.023,1.17284.032,1.77019.01545.54873-.01733,1.09483-.04635,1.647-.10062a117.89366,117.89366,0,0,1-5.34449,14.65787,85.72061,85.72061,0,0,0-11.01536,4.21575,4.71553,4.71553,0,0,1-1.2908.6079q-.87793.41721-1.72158.82649c-1.12234.55741-2.39128,1.36468-2.46477,2.6193-.06633,1.33678,1.25575,2.28387,2.48136,2.80849a16.57439,16.57439,0,0,0,7.81115,1.15626c-4.3974,7.61555-9.73737,15.78323-16.30973,21.61389-8.88073,7.87258-14.19469.19673-12.88391-9.6684q1.05714-7.90256,2.72858-15.69316a18.18842,18.18842,0,0,0,7.29031,3.60634c1.77472-4.636-1.01907-10.59364-4.70606-14.20789q2.31045-8.56793,5.39273-16.91574c2.82362,4.30431,5.68142,6.76268,7.84017,4.38194,1.82183-2.01553-1.74833-9.21313-4.2278-13.53629q3.81135-9.0196,8.46767-17.65593c2.11466,6.0892,5.84612,15.04041,9.08914,10.72931,2.88392-3.83246-.84119-15.8017-2.868-21.4541q3.475-5.60793,7.32611-10.98973A4.4525,4.4525,0,0,1,462.30166,507.30288Z"/><path class="cls-4" d="M503.38787,532.12513c1.73159-7.659,8.66344-12.80044,13.48369-18.999,5.45534-7.01544,8.38435-16.14424,7.17117-24.94794-2.24213-16.26968-17.23712-27.7812-22.87093-43.208-1.57616-4.3164-2.3603-9.22969-.51084-13.43641,2.63393-5.99043,9.5848-8.63978,15.94245-10.19018,6.35795-1.5504,13.32885-2.8878,17.65071-7.8017,4.38579-4.98692,4.77362-12.35171,3.72527-18.90934-1.04835-6.55792-3.29745-12.96375-3.35926-19.60439-.0615-6.64065,2.759-13.95241,8.87156-16.549,4.873-2.07034,10.77465-.536,14.79321,2.91113s6.35795,8.50949,7.55962,13.66578a40.85127,40.85127,0,0,1-5.81621,31.661c-4.54728,6.75759-11.02885,11.98691-15.97608,18.457-4.94753,6.47037-8.32951,15.16316-5.32563,22.734,2.0812,5.24507,6.793,8.917,10.10257,13.48732a29.25216,29.25216,0,0,1,.71627,32.40574c-2.64995,4.0222-6.26826,7.303-9.26181,11.07673-2.99321,3.77405-5.43228,8.37072-5.05146,13.17221.57417,7.24147,7.07726,12.33838,10.9416,18.48939,6.35613,10.11685,4.75846,40.868-13.45339,34.10218C519.57575,565.758,499.89288,547.58249,503.38787,532.12513Z"/><path class="cls-12" d="M486.25073,557.95174c-3.79071-3.528-7.41627-8.31588-6.40946-13.39552,1.1856-5.98345,7.85988-8.81157,12.33595-12.95557a21.70959,21.70959,0,0,0,4.37519-25.21669c-3.40743-6.54035-9.91264-10.79373-14.81048-16.30725-4.89754-5.51382-8.11166-14.13541-3.74254-20.07645,4.85542-6.60186,16.36482-6.14374,19.95707-13.50944,2.53543-5.1978-.43115-11.33366-3.72042-16.09061-3.28926-4.75665-7.16845-9.9087-6.46942-15.64946.93409-7.67081,9.60235-11.94965,17.30861-12.51866,6.5349-.48267,13.93665,1.17742,17.46679,6.69791,3.0693,4.8,2.31121,11.15368.20816,16.44874-2.10276,5.29507-5.39929,10.06656-7.3354,15.425s-2.27758,11.82814,1.22893,16.31876c4.75907,6.09526,14.682,6.35462,19.04537,12.73954,3.73376,5.46383,1.65524,13.10555-2.167,18.50818s-9.16634,9.63419-12.6944,15.23345-4.74574,13.62094-.18725,18.41879c2.992,3.149,7.92108,4.3255,10.046,8.11409,2.90113,5.17356-1.19076,11.41941-5.379,15.61977-3.38532,3.3947-7.63809,7.41569-8.09894,12.48775-.46539,5.12478,2.89329,7.71141-3.46042,5.74015A73.79963,73.79963,0,0,1,486.25073,557.95174Z"/><path class="cls-4" d="M281.83384,568.15286c1.47559-6.52669,7.38263-10.908,11.49025-16.19021a28.83,28.83,0,0,0,6.111-21.25963c-1.91066-13.86438-14.6888-23.674-19.4897-36.8201-1.34314-3.67827-2.01135-7.86518-.43532-11.45,2.24453-5.10481,8.16778-7.36247,13.58552-8.68367,5.418-1.32119,11.35832-2.46087,15.04123-6.6483,3.7374-4.24965,4.06789-10.52563,3.17453-16.11378-.89336-5.5884-2.81-11.04719-2.86263-16.70608-.05241-5.65889,2.35114-11.88969,7.56-14.10243,4.15261-1.76426,9.18173-.45675,12.60619,2.48075s5.418,7.25145,6.442,11.64543a34.81182,34.81182,0,0,1-4.95634,26.98024c-3.875,5.75855-9.39835,10.21477-13.61418,15.72829-4.21609,5.51379-7.09808,12.92144-4.53829,19.373,1.77352,4.46964,5.78876,7.59872,8.609,11.49335a24.92756,24.92756,0,0,1,.61038,27.61489c-2.25819,3.42756-5.34157,6.22331-7.89255,9.43914-2.55069,3.2161-4.62918,7.1332-4.30465,11.22483.48928,6.1709,6.031,10.51428,9.324,15.75593,5.41644,8.62117,4.055,34.82605-11.46444,29.06052C295.6285,596.81344,278.85554,581.325,281.83384,568.15286Z"/><path class="cls-12" d="M267.23025,590.16127c-3.2303-3.00644-6.31985-7.08646-5.46189-11.41513,1.01032-5.09886,6.69787-7.50886,10.51221-11.04022a18.5,18.5,0,0,0,3.72835-21.48865c-2.90367-5.57343-8.44715-9.198-12.6209-13.89639-4.17348-4.69866-6.91243-12.04564-3.18924-17.10836,4.1376-5.62584,13.94545-5.23545,17.00663-11.5122,2.16058-4.42936-.36742-9.6581-3.1704-13.71178-2.803-4.05343-6.10867-8.4438-5.513-13.33585.796-6.53676,8.18273-10.183,14.7497-10.6679,5.56878-.41131,11.87626,1.00335,14.88451,5.70769,2.61553,4.09035,1.96952,9.50473.17738,14.017-1.79188,4.51224-4.60106,8.57832-6.25094,13.14452s-1.94086,10.07947,1.04725,13.9062c4.05549,5.19414,12.51142,5.41516,16.22971,10.85613,3.18175,4.65606,1.41053,11.168-1.84662,15.77193s-7.81119,8.20987-10.81766,12.98134-4.04413,11.60722-.15956,15.69576c2.54969,2.68344,6.75,3.686,8.56076,6.9145,2.47223,4.40871-1.01471,9.73117-4.58376,13.31055-2.88483,2.89283-6.50888,6.31935-6.90159,10.64156-.39659,4.36714,2.46554,6.57136-2.94884,4.89153A62.889,62.889,0,0,1,267.23025,590.16127Z"/><path class="cls-4" d="M1172.83384,566.85711c1.47559-6.52669,7.38263-10.908,11.49025-16.19021a28.83,28.83,0,0,0,6.111-21.25964c-1.91066-13.86437-14.6888-23.674-19.4897-36.8201-1.34314-3.67827-2.01135-7.86518-.43532-11.45,2.24453-5.1048,8.16778-7.36247,13.58552-8.68366,5.418-1.32119,11.35832-2.46087,15.04123-6.6483,3.7374-4.24966,4.06789-10.52564,3.17453-16.11378-.89336-5.58841-2.80995-11.04719-2.86263-16.70609-.05241-5.65889,2.35114-11.88968,7.56-14.10243,4.15261-1.76425,9.18173-.45675,12.60619,2.48076s5.418,7.25144,6.442,11.64543a34.81182,34.81182,0,0,1-4.95634,26.98024c-3.875,5.75855-9.39835,10.21476-13.61418,15.72829-4.21609,5.51378-7.09808,12.92144-4.53829,19.373,1.77352,4.46964,5.78876,7.59872,8.609,11.49336a24.92754,24.92754,0,0,1,.61038,27.61488c-2.25819,3.42756-5.34157,6.22331-7.89255,9.43915-2.55069,3.21609-4.62918,7.13319-4.30465,11.22483.48928,6.17089,6.031,10.51428,9.324,15.75592,5.41644,8.62118,4.055,34.82605-11.46444,29.06053C1186.6285,595.51769,1169.85554,580.02926,1172.83384,566.85711Z"/><path class="cls-12" d="M1158.23025,588.86551c-3.2303-3.00644-6.31985-7.08646-5.46189-11.41512,1.01032-5.09886,6.69787-7.50887,10.51221-11.04022a18.50005,18.50005,0,0,0,3.72835-21.48866c-2.90367-5.57343-8.44715-9.198-12.6209-13.89639-4.17348-4.69866-6.91243-12.04564-3.18924-17.10835,4.1376-5.62584,13.94545-5.23545,17.00663-11.51221,2.16058-4.42936-.36742-9.65809-3.1704-13.71178-2.803-4.05342-6.10867-8.44379-5.513-13.33584.796-6.53676,8.18273-10.183,14.7497-10.6679,5.56878-.41131,11.87626,1.00335,14.88451,5.70769,2.61553,4.09034,1.96952,9.50472.17738,14.017-1.79188,4.51225-4.60106,8.57832-6.25094,13.14453s-1.94086,10.07947,1.04725,13.9062c4.05549,5.19414,12.51142,5.41515,16.22971,10.85613,3.18175,4.656,1.41053,11.168-1.84662,15.77193s-7.81119,8.20987-10.81766,12.98134-4.04413,11.60722-.15956,15.69576c2.54969,2.68343,6.75,3.686,8.56076,6.9145,2.47223,4.4087-1.01471,9.73116-4.58376,13.31054-2.88483,2.89283-6.50888,6.31936-6.90159,10.64157-.39659,4.36713,2.46554,6.57136-2.94884,4.89153A62.88913,62.88913,0,0,1,1158.23025,588.86551Z"/></g></svg>