<svg xmlns="http://www.w3.org/2000/svg" xmlns:xlink="http://www.w3.org/1999/xlink" viewBox="0 0 1528 642"><defs><style>.cls-1{fill:#d1d1d1;}.cls-2{fill:#ffd1c1;}.cls-3{fill:#fe6d60;}.cls-4{fill:#ffc967;}.cls-5{fill:#f7f7f7;}.cls-6{fill:#e8e8e8;}.cls-7{fill:#373660;}.cls-8{fill:#fff;}.cls-9{clip-path:url(#clip-path);}.cls-10{clip-path:url(#clip-path-2);}.cls-11{clip-path:url(#clip-path-3);}.cls-12{fill:#ffb2a0;}.cls-13{fill:#4f5285;}.cls-14{clip-path:url(#clip-path-4);}.cls-15{fill:#ffa648;}.cls-16{clip-path:url(#clip-path-5);}.cls-17{clip-path:url(#clip-path-6);}.cls-18{clip-path:url(#clip-path-7);}.cls-19{clip-path:url(#clip-path-8);}.cls-20{fill:#e63e36;}.cls-21{clip-path:url(#clip-path-9);}.cls-22{clip-path:url(#clip-path-10);}.cls-23{clip-path:url(#clip-path-11);}.cls-24{clip-path:url(#clip-path-12);}.cls-25{clip-path:url(#clip-path-13);}</style><clipPath id="clip-path"><rect class="cls-1" x="417.2364" y="320.11907" width="269.60931" height="168.06814" rx="15.4215"/></clipPath><clipPath id="clip-path-2"><path class="cls-1" d="M991.19212,254.58107h115.42a6.6014,6.6014,0,0,1,6.6014,6.6014V423.285a6.6014,6.6014,0,0,1-6.6014,6.6014H991.192a6.6013,6.6013,0,0,1-6.6013-6.6013V261.18247A6.6014,6.6014,0,0,1,991.19212,254.58107Z"/></clipPath><clipPath id="clip-path-3"><path class="cls-2" d="M285.10736,109.0251c-9.92065,2.007-15.43208,16.14412-12.3102,31.57629l2.74706,13.5789a91.24546,91.24546,0,0,1,1.79545,16.37517l.37357,19.85474,22.90511-4.71167-4.20554-20.78865c9.92074-2.007,15.43217-16.14411,12.31028-31.57629S295.02807,107.01818,285.10736,109.0251Z"/></clipPath><clipPath id="clip-path-4"><path class="cls-4" d="M380.85279,227.8206l-41.30661-38.5031a56.7444,56.7444,0,0,0-38.69139-15.23641H263.28265q-.67219,0-1.3428.01588a49.57046,49.57046,0,0,0-43.70452,29.22629L197.96154,247.835l31.6871,19.03911-4.658,38.18174H334.82551l-4.92875-55.52972,16.19641,16.35956Z"/></clipPath><clipPath id="clip-path-5"><path class="cls-2" d="M264.80539,171.972s6.51609,14.873,22.733,16.41716,26.13992-16.21537,26.13992-16.21537Z"/></clipPath><clipPath id="clip-path-6"><polygon class="cls-2" points="330.594 592.017 333.354 494.286 332.512 434.446 282.737 437.014 286.428 504.068 289.447 592.017 330.594 592.017"/></clipPath><clipPath id="clip-path-7"><path class="cls-2" d="M213.80615,433.07979l-6.68249,50.66643a44.48229,44.48229,0,0,1-3.17614,11.61581l-27.26,63.99718,36.99877,16.58473,36.44663-78.03664a37.305,37.305,0,0,0,2.52663-7.29988l12.7291-54.49076Z"/></clipPath><clipPath id="clip-path-8"><path class="cls-3" d="M245.63547,184.169h165.885a10.747,10.747,0,0,1,10.747,10.747v96.7121a10.74711,10.74711,0,0,1-10.74711,10.74711H245.63552a10.7471,10.7471,0,0,1-10.7471-10.7471v-96.7121A10.74705,10.74705,0,0,1,245.63547,184.169Z" transform="translate(-41.76217 70.08726) rotate(-11.45291)"/></clipPath><clipPath id="clip-path-9"><path class="cls-2" d="M229.34048,266.31261l-29.53932-17.37237-5.809,19.4805s-8.203,27.1144,3.96937,36.63507c12.40725,9.70425,122.38216-29.36546,122.38216-29.36546l1.43347-14.89048Z"/></clipPath><clipPath id="clip-path-10"><path class="cls-2" d="M1218.66282,157.09342c2.35376.44252,4.78334-1.97217,5.42665-5.39334s-.74348-6.55342-3.09732-6.99594a4.129,4.129,0,0,0-3.91735,1.89929c-2.38312-9.85663-8.49691-16.87171-15.66631-16.87171-9.24246,0-16.735,11.655-16.735,26.0322s7.49257,26.03215,16.735,26.03215v19.36739l21.35333.06981-3.26047-17.83773a83.31009,83.31009,0,0,1-1.35792-14.981V156.94118A3.024,3.024,0,0,0,1218.66282,157.09342Z"/></clipPath><clipPath id="clip-path-11"><path class="cls-3" d="M1163.90463,339.36462l11.88351-106.98147c1.53215-13.87026,9.81474-39.92431,23.76938-39.92431h30.38668a27.37309,27.37309,0,0,1,27.012,22.94135l14.13914,120.63439Z"/></clipPath><clipPath id="clip-path-12"><rect class="cls-4" x="1043.92699" y="232.38315" width="176.72738" height="111.06961" rx="24.3559"/></clipPath><clipPath id="clip-path-13"><path class="cls-2" d="M1280.53865,270.04785a64.42425,64.42425,0,0,0-.7475-6.51912l-18.30229-48.91264a34.11543,34.11543,0,0,0-31.52114-22.157l-.02357-.00027s10.84148,66.044,14.38974,78.82088l-66.08332,65.8586a16.69273,16.69273,0,0,1-10.47144,4.81749l-18.98844,1.497s9.81651,12.45977,18.873,12.25075,21.65111-6.36113,21.65111-6.36113l76.607-48.02824A35.71085,35.71085,0,0,0,1280.53865,270.04785Z"/></clipPath></defs><title>website-revamp-and-user-experience-enhancement</title><g id="BACKGROUND"><rect class="cls-5" width="1528" height="642"/></g><g id="OBJECTS"><path class="cls-5" d="M155.4674,640.1452H1364.53661c9.63341-70.46,6.35431-154.14055-24.64953-218.142-32.69283-67.48824-98.18284-116.53879-170.65634-135.80207s-150.9261-10.208-220.237,18.41869c-48.37593,19.98012-92.5902,49.04516-140.98721,68.9742a412.08576,412.08576,0,0,1-253.05841,19.02617c-68.35044-16.76535-133.54442-51.32581-203.92087-51.35752-68.39554-.03086-135.8479,35.41378-174.61937,91.75846S131,576.27589,155.4674,640.1452Z"/><path class="cls-6" d="M358.02654,484.091a27.45581,27.45581,0,0,0,27.4559,27.45589H1161.319a27.456,27.456,0,0,0,27.4559-27.45589V63.88883H358.02654Z"/><path class="cls-7" d="M1161.319,2.11448H385.48244a27.45581,27.45581,0,0,0-27.4559,27.45594V63.88883H1188.7749V29.57042A27.456,27.456,0,0,0,1161.319,2.11448Z"/><circle class="cls-4" cx="407.35956" cy="35.18837" r="9.81264" transform="translate(279.09272 423.42496) rotate(-76.65436)"/><circle class="cls-8" cx="445.65049" cy="35.18837" r="9.81264" transform="translate(339.29234 469.38939) rotate(-80.75101)"/><circle class="cls-8" cx="483.94144" cy="35.18837" r="9.81264" transform="translate(371.42897 507.18253) rotate(-80.75101)"/><path class="cls-8" d="M755.07335,193.9567h-3.7371V192.265h3.7371Zm-7.47419,0h-3.73737V192.265h3.73737Zm-7.47447,0h-3.73733V192.265h3.73733Zm-7.47443,0h-3.7371V192.265h3.7371Zm-7.47447,0H721.4387V192.265h3.73709Zm-7.47419,0h-3.73733V192.265h3.73733Zm-7.47443,0h-3.73709V192.265h3.73709Zm-7.47442,0h-3.73714V192.265h3.73714Zm-7.47424,0h-3.73733V192.265h3.73733Zm-7.47442,0H684.067V192.265h3.7371Zm-7.47447,0h-3.7371V192.265h3.7371Zm-7.4742,0h-3.73737V192.265h3.73737Zm-7.47447,0h-3.7371V192.265h3.7371Zm-7.47438,0h-3.7371V192.265h3.7371Zm-7.47447,0H646.695V192.265h3.73709Zm-7.47419,0h-3.73737V192.265h3.73737Zm-7.47447,0h-3.7371V192.265h3.7371Zm-7.47442,0h-3.73715V192.265H628.009Zm-7.47425,0h-3.73732V192.265h3.73732Zm-7.47442,0H609.323V192.265h3.73732Zm-7.47442,0h-3.7371V192.265h3.7371Zm-7.47443,0h-3.73714V192.265h3.73714Zm-7.47424,0h-3.73732V192.265h3.73732Zm-7.47442,0h-3.7371V192.265h3.7371Zm-7.47447,0h-3.7371V192.265h3.7371Zm-7.4742,0H564.4768V192.265h3.73737Zm-7.47447,0h-3.73709V192.265h3.73709Zm-7.47437,0h-3.73715V192.265h3.73715Zm-7.47425,0h-3.73732V192.265h3.73732Zm-7.47442,0h-3.7371V192.265h3.7371Zm-7.47425,0h-3.73733V192.265h3.73733Zm-7.47443,0h-3.73709V192.265H523.368Zm-7.47446,0h-3.7371V192.265h3.7371Zm-7.4742,0H504.682V192.265h3.73733Zm-7.47442,0h-3.7371V192.265h3.7371Zm-7.47443,0h-3.73714V192.265h3.73714Zm-7.47424,0h-3.7371V192.265h3.7371Zm-7.47442,0h-3.73715V192.265h3.73715Zm-7.47425,0h-3.73732V192.265h3.73732Zm-7.47442,0H459.836V192.265h3.7371Zm-7.47446,0h-3.7371V192.265h3.7371Zm-7.4742,0h-3.73733V192.265h3.73733Zm-7.47443,0H437.413V192.265h3.73709Zm-7.47419,0h-3.73733V192.265h3.73733Zm-7.47447,0h-3.73733V192.265h3.73733Zm-7.47442,0h-3.7371V192.265h3.7371Zm-7.47425,0H407.5154V192.265h3.73732Zm-7.47442,0h-3.7371V192.265h3.7371Zm-5.38565-2.08882h-1.69172v-3.7371h1.69172Zm357.52656-.66873h-1.69172v-3.73737h1.69172Zm-357.52656-6.80547h-1.69172v-3.73727h1.69172Zm357.52656-.669h-1.69172v-3.7371h1.69172Zm-357.52656-6.80542h-1.69172v-3.7371h1.69172Zm357.52656-.669h-1.69172v-3.7371h1.69172Zm-357.52656-6.80537h-1.69172v-3.7371h1.69172Zm357.52656-.66883h-1.69172v-3.73732h1.69172Zm-357.52656-6.80537h-1.69172v-3.73737h1.69172Zm357.52656-.669h-1.69172v-3.73714h1.69172Zm-357.52656-6.80542h-1.69172v-3.7371h1.69172Zm357.52656-.669h-1.69172v-3.7371h1.69172ZM398.39265,147.0217h-1.69172v-3.73709h1.69172Zm357.52656-.66873h-1.69172V142.6156h1.69172Zm-357.52656-6.80546h-1.69172v-3.73733h1.69172Zm357.52656-.669h-1.69172v-3.7371h1.69172ZM398.39265,132.073h-1.69172v-3.7371h1.69172Zm357.52656-.669h-1.69172v-3.7371h1.69172Zm-357.52656-6.80537h-1.69172v-3.7371h1.69172Zm357.52656-.66882h-1.69172v-3.73733h1.69172Zm-357.52656-6.80565h-1.69172v-3.7371h1.69172Zm357.52656-.66878h-1.69172v-3.73714h1.69172ZM398.39265,109.65h-1.69172v-3.67041h1.75867v1.69172h-.067Zm357.52656-.669h-1.69172V107.6713h-.736v-1.69172h2.42768Zm-6.16478-1.30964h-3.7371v-1.69172h3.7371Zm-7.4742,0h-3.73714v-1.69172h3.73714Zm-7.47447,0h-3.73709v-1.69172h3.73709Zm-7.47419,0H723.5942v-1.69172h3.73737Zm-7.47447,0H716.12v-1.69172h3.7371Zm-7.4742,0h-3.73737v-1.69172h3.73737Zm-7.47447,0h-3.73728v-1.69172h3.73728Zm-7.47437,0h-3.73715v-1.69172h3.73715Zm-7.47425,0h-3.73732v-1.69172h3.73732Zm-7.47442,0h-3.7371v-1.69172h3.7371Zm-7.47447,0h-3.7371v-1.69172h3.7371Zm-7.4742,0h-3.73737v-1.69172h3.73737Zm-7.47446,0h-3.7371v-1.69172h3.7371Zm-7.47443,0h-3.73705v-1.69172h3.73705Zm-7.47419,0h-3.7371v-1.69172h3.7371Zm-7.47443,0h-3.7371v-1.69172h3.7371Zm-7.47424,0h-3.73732v-1.69172H630.165Zm-7.47442,0h-3.7371v-1.69172h3.7371Zm-7.47447,0H611.479v-1.69172h3.7371Zm-7.4742,0h-3.73732v-1.69172h3.73732Zm-7.47447,0h-3.7371v-1.69172h3.7371Zm-7.47438,0h-3.73709v-1.69172H592.793Zm-7.47424,0h-3.73732v-1.69172h3.73732Zm-7.47442,0h-3.7371v-1.69172h3.7371Zm-7.4742,0H566.6328v-1.69172h3.73737Zm-7.47447,0h-3.73732v-1.69172h3.73732Zm-7.47447,0h-3.73709v-1.69172h3.73709Zm-7.47442,0h-3.7371v-1.69172h3.7371Zm-7.47424,0h-3.73728v-1.69172h3.73728Zm-7.47438,0h-3.73711v-1.69172h3.73711Zm-7.47447,0h-3.73711v-1.69172h3.73711Zm-7.47443,0h-3.7371v-1.69172h3.7371Zm-7.47423,0h-3.73734v-1.69172h3.73734Zm-7.47444,0h-3.7371v-1.69172h3.7371Zm-7.47447,0h-3.73709v-1.69172h3.73709Zm-7.47419,0h-3.73733v-1.69172H488.152Zm-7.47443,0h-3.73709v-1.69172h3.73709Zm-7.47442,0H469.466v-1.69172h3.73714Zm-7.47424,0h-3.73732v-1.69172h3.73732Zm-7.47442,0h-3.7371v-1.69172h3.7371Zm-7.47447,0h-3.73709v-1.69172H450.78Zm-7.4742,0h-3.73737v-1.69172h3.73737Zm-7.47442,0h-3.7371v-1.69172h3.7371Zm-7.47442,0h-3.73715v-1.69172h3.73715Zm-7.47425,0h-3.73732v-1.69172h3.73732Zm-7.47442,0h-3.7371v-1.69172h3.7371Zm-7.47447,0h-3.7371v-1.69172h3.7371Z"/><path class="cls-8" d="M884.63785,193.9567h-3.7371V192.265h3.7371Zm-7.4742,0h-3.73759V192.265h3.73759Zm-7.47469,0H865.9519V192.265H869.689Zm-7.47415,0h-3.7371V192.265h3.7371Zm-7.47425,0H851.003V192.265h3.73755Zm-7.47465,0h-3.73714V192.265h3.73714Zm-7.47424,0h-3.7371V192.265h3.7371Zm-7.4742,0h-3.73759V192.265h3.73759Zm-7.47469,0h-3.7371V192.265h3.7371Zm-7.4742,0h-3.7371V192.265h3.7371Zm-7.47424,0h-3.73751V192.265h3.73751Zm-7.4746,0h-3.73715V192.265h3.73715Zm-7.47425,0H791.2084V192.265h3.73709Zm-7.47419,0h-3.7376V192.265h3.7376Zm-6.27653-1.19817h-1.69172v-3.7371h1.69172Zm104.289-3.341H883.792v-3.7371h1.69176Zm-104.289-4.13325h-1.69172V181.547h1.69172Zm104.289-3.341H883.792v-3.73732h1.69176Zm-104.289-4.13347h-1.69172v-3.7371h1.69172Zm104.289-3.341H883.792v-3.7371h1.69176Zm-104.289-4.13342h-1.69172v-3.7371h1.69172Zm104.289-3.341H883.792v-3.73709h1.69176Zm-104.289-4.13324h-1.69172v-3.73737h1.69172Zm104.289-3.34095H883.792V155.783h1.69176Zm-104.289-4.13352h-1.69172v-3.7371h1.69172Zm104.289-3.34095H883.792v-3.7371h1.69176Zm-104.289-4.13352h-1.69172v-3.7371h1.69172Zm104.289-3.34095H883.792v-3.7371h1.69176Zm-104.289-4.13324h-1.69172v-3.73733h1.69172Zm104.289-3.341H883.792v-3.73732h1.69176Zm-104.289-4.13351h-1.69172v-3.7371h1.69172Zm104.289-3.341H883.792v-3.73709h1.69176Zm-104.289-4.13342h-1.69172v-3.7371h1.69172Zm104.289-3.341H883.792v-3.7371h1.69176Zm-104.289-4.1332h-1.69172v-3.73737h1.69172Zm104.289-3.341H883.792v-3.73737h1.69176Zm-104.289-4.13352h-1.69172v-4.56106h.84586l.01108.84591h.83478Zm103.44308-2.86934h-3.36312v-1.69172h4.209v1.22011h-.8459Zm-7.10022,0h-3.7371v-1.69172h3.7371Zm-7.4742,0h-3.73714v-1.69172h3.73714Zm-7.47465,0h-3.7371v-1.69172h3.7371Zm-7.47424,0h-3.7371v-1.69172h3.7371Zm-7.4742,0h-3.7371v-1.69172h3.7371Zm-7.47469,0h-3.7371v-1.69172h3.7371Zm-7.4742,0h-3.7371v-1.69172h3.7371Zm-7.4742,0h-3.73714v-1.69172h3.73714Zm-7.47465,0h-3.73709v-1.69172h3.73709Zm-7.47424,0h-3.7371v-1.69172h3.7371Zm-7.47419,0h-3.7371v-1.69172h3.7371Zm-7.4747,0h-3.7371v-1.69172h3.7371Zm-7.4742,0h-3.73709v-1.69172h3.73709Z"/><path class="cls-8" d="M1010.03911,193.9567h-3.7371V192.265h3.7371Zm-7.4742,0h-3.7376V192.265h3.7376Zm-7.4747,0h-3.73709V192.265h3.73709Zm-7.47419,0h-3.7371V192.265h3.7371Zm-7.47424,0h-3.73751V192.265h3.73751Zm-7.47461,0H968.93V192.265h3.73714Zm-7.47424,0h-3.7371V192.265h3.7371Zm-7.4742,0h-3.73759V192.265h3.73759Zm-7.47469,0h-3.7371V192.265h3.7371Zm-7.4742,0h-3.7371V192.265h3.7371Zm-7.47424,0h-3.73755V192.265h3.73755Zm-7.47465,0h-3.73706V192.265H927.821Zm-7.4742,0h-3.7371V192.265h3.7371Zm-7.4742,0H909.135V192.265h3.73759Zm-6.27653-1.19817h-1.69176v-3.7371H906.596Zm104.289-3.341h-1.69172v-3.7371h1.69172ZM906.596,185.28433h-1.69176V181.547H906.596Zm104.289-3.341h-1.69172v-3.73732h1.69172ZM906.596,177.80991h-1.69176v-3.7371H906.596Zm104.289-3.341h-1.69172v-3.7371h1.69172ZM906.596,170.33549h-1.69176v-3.7371H906.596Zm104.289-3.341h-1.69172v-3.73709h1.69172ZM906.596,162.86129h-1.69176v-3.73737H906.596Zm104.289-3.34095h-1.69172V155.783h1.69172ZM906.596,155.38682h-1.69176v-3.7371H906.596Zm104.289-3.34095h-1.69172v-3.7371h1.69172ZM906.596,147.91235h-1.69176v-3.7371H906.596Zm104.289-3.34095h-1.69172v-3.7371h1.69172ZM906.596,140.43816h-1.69176v-3.73733H906.596Zm104.289-3.341h-1.69172v-3.73732h1.69172ZM906.596,132.96369h-1.69176v-3.7371H906.596Zm104.289-3.341h-1.69172v-3.73709h1.69172ZM906.596,125.48931h-1.69176v-3.7371H906.596Zm104.289-3.341h-1.69172v-3.7371h1.69172ZM906.596,118.01511h-1.69176v-3.73737H906.596Zm104.289-3.341h-1.69172v-3.73737h1.69172ZM906.596,110.54064h-1.69176v-4.56106h.8459l.011.84591h.83482Zm103.44309-2.86934H1006.676v-1.69172h4.209v1.22011h-.84586Zm-7.10022,0h-3.7371v-1.69172h3.7371Zm-7.4742,0h-3.73714v-1.69172h3.73714Zm-7.4747,0H984.2529v-1.69172H987.99Zm-7.47415,0H976.7787v-1.69172h3.73714Zm-7.47424,0h-3.7371v-1.69172h3.7371Zm-7.47469,0h-3.7371v-1.69172h3.7371Zm-7.4742,0h-3.7371v-1.69172h3.7371Zm-7.4742,0h-3.73714v-1.69172h3.73714Zm-7.47469,0h-3.7371v-1.69172h3.7371Zm-7.4742,0h-3.73714v-1.69172h3.73714Zm-7.47424,0h-3.7371v-1.69172h3.7371Zm-7.47465,0h-3.7371v-1.69172h3.7371Zm-7.4742,0h-3.7371v-1.69172h3.7371Z"/><path class="cls-8" d="M1134.28979,193.9567h-3.73709V192.265h3.73709Zm-7.47424,0H1123.078V192.265h3.73755Zm-7.47465,0h-3.73714V192.265h3.73714Zm-7.47424,0h-3.7371V192.265h3.7371Zm-7.4742,0h-3.73759V192.265h3.73759Zm-7.47469,0h-3.7371V192.265h3.7371Zm-7.47415,0h-3.7371V192.265h3.7371Zm-7.4742,0h-3.7376V192.265h3.7376Zm-7.4747,0h-3.73709V192.265h3.73709Zm-7.47424,0h-3.7371V192.265h3.7371Zm-7.47419,0h-3.7376V192.265h3.7376Zm-7.4747,0h-3.7371V192.265h3.7371Zm-7.4742,0h-3.7371V192.265h3.7371Zm-7.47419,0h-3.73755V192.265h3.73755Zm-6.27649-1.19817H1029.155v-3.7371h1.69176Zm104.2889-3.341h-1.69172v-3.7371h1.69172Zm-104.2889-4.13325H1029.155V181.547h1.69176Zm104.2889-3.341h-1.69172v-3.73732h1.69172Zm-104.2889-4.13347H1029.155v-3.7371h1.69176Zm104.2889-3.341h-1.69172v-3.7371h1.69172Zm-104.2889-4.13342H1029.155v-3.7371h1.69176Zm104.2889-3.341h-1.69172v-3.73709h1.69172Zm-104.2889-4.13324H1029.155v-3.73737h1.69176Zm104.2889-3.34095h-1.69172V155.783h1.69172Zm-104.2889-4.13352H1029.155v-3.7371h1.69176Zm104.2889-3.34095h-1.69172v-3.7371h1.69172Zm-104.2889-4.13352H1029.155v-3.7371h1.69176Zm104.2889-3.34095h-1.69172v-3.7371h1.69172Zm-104.2889-4.13324H1029.155v-3.73733h1.69176Zm104.2889-3.341h-1.69172v-3.73732h1.69172Zm-104.2889-4.13351H1029.155v-3.7371h1.69176Zm104.2889-3.341h-1.69172v-3.73709h1.69172Zm-104.2889-4.13342H1029.155v-3.7371h1.69176Zm104.2889-3.341h-1.69172v-3.7371h1.69172Zm-104.2889-4.1332H1029.155v-3.73737h1.69176Zm104.2889-3.341h-1.69172v-3.73737h1.69172Zm-104.2889-4.13352H1029.155v-4.56106h.84586l.01108.84591h.83482Zm103.44308-2.86934h-3.36312v-1.69172h4.20894v1.22011h-.84582Zm-7.10022,0h-3.73714v-1.69172h3.73714Zm-7.47424,0h-3.7371v-1.69172h3.7371Zm-7.47469,0h-3.7371v-1.69172h3.7371Zm-7.4742,0h-3.7371v-1.69172h3.7371Zm-7.4742,0h-3.7371v-1.69172h3.7371Zm-7.47465,0h-3.7371v-1.69172h3.7371Zm-7.47419,0h-3.73715v-1.69172h3.73715Zm-7.47425,0h-3.73709v-1.69172h3.73709Zm-7.47469,0h-3.7371v-1.69172h3.7371Zm-7.4742,0h-3.7371v-1.69172h3.7371Zm-7.47419,0h-3.7371v-1.69172h3.7371Zm-7.47465,0h-3.7371v-1.69172h3.7371Zm-7.4742,0h-3.73715v-1.69172h3.73715Z"/><path class="cls-8" d="M755.07335,450.2372h-3.7371v-1.69171h3.7371Zm-7.47419,0h-3.73737v-1.69171h3.73737Zm-7.47447,0h-3.73733v-1.69171h3.73733Zm-7.47443,0h-3.7371v-1.69171h3.7371Zm-7.47447,0H721.4387v-1.69171h3.73709Zm-7.47419,0h-3.73733v-1.69171h3.73733Zm-7.47443,0h-3.73709v-1.69171h3.73709Zm-7.47442,0h-3.73714v-1.69171h3.73714Zm-7.47424,0h-3.73733v-1.69171h3.73733Zm-7.47442,0H684.067v-1.69171h3.7371Zm-7.47447,0h-3.7371v-1.69171h3.7371Zm-7.4742,0h-3.73737v-1.69171h3.73737Zm-7.47447,0h-3.7371v-1.69171h3.7371Zm-7.47438,0h-3.7371v-1.69171h3.7371Zm-7.47447,0H646.695v-1.69171h3.73709Zm-7.47419,0h-3.73737v-1.69171h3.73737Zm-7.47447,0h-3.7371v-1.69171h3.7371Zm-7.47442,0h-3.73715v-1.69171H628.009Zm-7.47425,0h-3.73732v-1.69171h3.73732Zm-7.47442,0H609.323v-1.69171h3.73732Zm-7.47442,0h-3.7371v-1.69171h3.7371Zm-7.47443,0h-3.73714v-1.69171h3.73714Zm-7.47424,0h-3.73732v-1.69171h3.73732Zm-7.47442,0h-3.7371v-1.69171h3.7371Zm-7.47447,0h-3.7371v-1.69171h3.7371Zm-7.4742,0H564.4768v-1.69171h3.73737Zm-7.47447,0h-3.73709v-1.69171h3.73709Zm-7.47437,0h-3.73715v-1.69171h3.73715Zm-7.47425,0h-3.73732v-1.69171h3.73732Zm-7.47442,0h-3.7371v-1.69171h3.7371Zm-7.47425,0h-3.73733v-1.69171h3.73733Zm-7.47443,0h-3.73709v-1.69171H523.368Zm-7.47446,0h-3.7371v-1.69171h3.7371Zm-7.4742,0H504.682v-1.69171h3.73733Zm-7.47442,0h-3.7371v-1.69171h3.7371Zm-7.47443,0h-3.73714v-1.69171h3.73714Zm-7.47424,0h-3.7371v-1.69171h3.7371Zm-7.47442,0h-3.73715v-1.69171h3.73715Zm-7.47425,0h-3.73732v-1.69171h3.73732Zm-7.47442,0H459.836v-1.69171h3.7371Zm-7.47446,0h-3.7371v-1.69171h3.7371Zm-7.4742,0h-3.73733v-1.69171h3.73733Zm-7.47443,0H437.413v-1.69171h3.73709Zm-7.47419,0h-3.73733v-1.69171h3.73733Zm-7.47447,0h-3.73733v-1.69171h3.73733Zm-7.47442,0h-3.7371v-1.69171h3.7371Zm-7.47425,0H407.5154v-1.69171h3.73732Zm-7.47442,0h-3.7371v-1.69171h3.7371Zm-5.38565-2.08881h-1.69172v-3.7371h1.69172Zm357.52656-.97145h-1.69172v-3.7371h1.69172Zm-357.52656-6.50275h-1.69172V436.9371h1.69172Zm357.52656-.9719h-1.69172v-3.7371h1.69172ZM398.39265,433.1995h-1.69172v-3.73705h1.69172Zm357.52656-.97141h-1.69172V428.491h1.69172Zm-357.52656-6.50274h-1.69172v-3.7371h1.69172Zm357.52656-.97146h-1.69172V421.0168h1.69172Zm-357.52656-6.50278h-1.69172V414.514h1.69172Zm357.52656-.97191h-1.69172v-3.7371h1.69172Zm-357.52656-6.50274h-1.69172v-3.73715h1.69172Zm357.52656-.97146h-1.69172v-3.73714h1.69172Zm-357.52656-6.50279h-1.69172v-3.7371h1.69172Zm357.52656-.97145h-1.69172v-3.7371h1.69172ZM398.39265,395.828h-1.69172v-3.7371h1.69172Zm357.52656-.97195h-1.69172V391.119h1.69172Zm-357.52656-6.50275h-1.69172v-3.7371h1.69172Zm357.52656-.97145h-1.69172v-3.7371h1.69172Zm-357.52656-6.50275h-1.69172V377.142h1.69172Zm357.52656-.9714h-1.69172v-3.7371h1.69172Zm-357.52656-6.50284h-1.69172v-3.7371h1.69172Zm357.52656-.97186h-1.69172v-3.7371h1.69172Zm-357.52656-6.50274h-1.69172v-3.73715h1.69172Zm357.52656-.97146h-1.69172v-3.73709h1.69172ZM398.39265,358.456h-1.69172v-3.7371h1.69172Zm357.52656-.97146h-1.69172v-3.7371h1.69172Zm-357.52656-6.50274h-1.69172v-3.7371h1.69172Zm357.52656-.97191h-1.69172v-3.73714h1.69172Zm-357.52656-6.50279h-1.69172v-3.73709h1.69172Zm357.52656-.97145h-1.69172v-3.7371h1.69172ZM398.39265,336.033h-1.69172v-3.7371h1.69172Zm357.52656-.97146h-1.69172v-3.73755h1.69172ZM398.39265,328.5587h-1.69172v-3.7375h1.69172Zm357.52656-.97186h-1.69172v-3.73709h1.69172ZM398.39265,321.0841h-1.69172V317.347h1.69172Zm357.52656-.97145h-1.69172v-3.7371h1.69172Zm-357.52656-6.50279h-1.69172v-3.7371h1.69172Zm357.52656-.97146h-1.69172v-3.73755h1.69172Zm-357.52656-6.50274h-1.69172v-3.7376h1.69172Zm357.52656-.9719h-1.69172v-3.73715h1.69172ZM398.39265,298.661h-1.69172v-3.7371h1.69172Zm357.52656-.97146h-1.69172v-3.7371h1.69172Zm-357.52656-6.50274h-1.69172v-3.7371h1.69172Zm357.52656-.97145h-1.69172v-3.7376h1.69172Zm-357.52656-6.503h-1.69172v-3.7371h1.69172Zm357.52656-.97163h-1.69172v-3.7371h1.69172Zm-357.52656-6.50279h-1.69172v-3.7371h1.69172Zm357.52656-.97141h-1.69172V271.5291h1.69172Zm-357.52656-6.50279h-1.69172v-3.7371h1.69172Zm357.52656-.97168h-1.69172v-3.7371h1.69172Zm-357.52656-6.50274h-1.69172v-3.7371h1.69172Zm357.52656-.97168h-1.69172v-3.73715h1.69172Zm-357.52656-6.50279h-1.69172v-3.7371h1.69172Zm357.52656-.97145h-1.69172V249.106h1.69172Zm-357.52656-6.50275h-1.69172v-3.73737h1.69172Zm357.52656-.97168h-1.69172v-3.7371h1.69172Zm-357.52656-6.50279h-1.69172V235.129h1.69172Zm357.52656-.97168h-1.69172v-3.7371h1.69172ZM398.39265,231.3917h-1.69172v-3.82161h1.60725v.84586h.08447Zm357.52656-.97145h-1.69172v-1.15844h-.887v-1.69172h2.5787Zm-6.31621-1.15844h-3.73687v-1.69172H749.603Zm-7.47424,0h-3.7371v-1.69172h3.7371Zm-7.4742,0h-3.73732v-1.69172h3.73732Zm-7.47447,0H723.443v-1.69172h3.73709Zm-7.47442,0h-3.7371v-1.69172h3.7371Zm-7.4742,0h-3.73714v-1.69172h3.73714Zm-7.47446,0h-3.7371v-1.69172h3.7371Zm-7.4742,0h-3.73733v-1.69172h3.73733Zm-7.47442,0h-3.7371v-1.69172h3.7371Zm-7.47443,0h-3.73714v-1.69172H682.334Zm-7.47424,0H671.1224v-1.69172h3.73732Zm-7.47442,0h-3.73715v-1.69172h3.73715Zm-7.47425,0h-3.73732v-1.69172h3.73732Zm-7.47442,0h-3.73737v-1.69172h3.73737Zm-7.47447,0h-3.7371v-1.69172h3.7371Zm-7.47419,0h-3.73733v-1.69172H637.488Zm-7.47443,0h-3.7371v-1.69172h3.7371Zm-7.47442,0H618.802v-1.69172h3.73714Zm-7.47424,0h-3.73733v-1.69172h3.73733Zm-7.47443,0h-3.7371v-1.69172h3.7371Zm-7.47447,0h-3.73709v-1.69172H600.116Zm-7.47419,0h-3.7371v-1.69172h3.7371Zm-7.47447,0h-3.73705v-1.69172h3.73705Zm-7.47415,0h-3.73733v-1.69172h3.73733Zm-7.47447,0h-3.7371v-1.69172h3.7371Zm-7.47442,0h-3.7371v-1.69172h3.7371Zm-7.47447,0h-3.7371v-1.69172h3.7371Zm-7.4742,0h-3.73737v-1.69172h3.73737Zm-7.47447,0H536.584v-1.69172h3.7371Zm-7.47438,0h-3.73709v-1.69172h3.73709Zm-7.47425,0h-3.73732v-1.69172h3.73732Zm-7.47442,0H514.161v-1.69172h3.73709Zm-7.47447,0h-3.7371v-1.69172h3.7371Zm-7.47442,0h-3.73715v-1.69172h3.73715Zm-7.47425,0h-3.73732v-1.69172H495.475Zm-7.47442,0h-3.7371v-1.69172h3.7371Zm-7.47442,0H476.789v-1.69172h3.7371Zm-7.4742,0h-3.73736v-1.69172h3.73736Zm-7.47447,0h-3.7371v-1.69172h3.7371Zm-7.47447,0h-3.73709v-1.69172H458.103Zm-7.47419,0h-3.73733v-1.69172h3.73733Zm-7.47443,0h-3.73713v-1.69172h3.73713Zm-7.47446,0h-3.7371v-1.69172h3.7371Zm-7.4742,0h-3.73733v-1.69172h3.73733Zm-7.47442,0h-3.7371v-1.69172h3.7371Zm-7.47443,0H409.5197v-1.69172h3.73714Zm-7.47424,0h-3.73732v-1.69172h3.73732Z"/><path class="cls-8" d="M1136.65794,450.2372h-3.73715v-1.69171h3.73715Zm-7.47425,0h-3.73755v-1.69171h3.73755Zm-7.47469,0h-3.7371v-1.69171h3.7371Zm-7.4742,0h-3.7371v-1.69171h3.7371Zm-7.47419,0h-3.7376v-1.69171h3.7376Zm-7.4747,0h-3.7371v-1.69171h3.7371Zm-7.4742,0h-3.73714v-1.69171h3.73714Zm-7.47424,0H1080.6v-1.69171h3.7375Zm-7.47465,0h-3.7371v-1.69171h3.7371Zm-7.47419,0h-3.7371v-1.69171h3.7371Zm-7.4742,0h-3.7376v-1.69171h3.7376Zm-7.4747,0h-3.7371v-1.69171h3.7371Zm-7.47419,0h-3.73715v-1.69171h3.73715Zm-7.47425,0h-3.7375v-1.69171h3.7375Zm-7.4746,0h-3.73714v-1.69171h3.73714Zm-7.47424,0h-3.7371v-1.69171h3.7371Zm-7.4742,0h-3.7376v-1.69171h3.7376Zm-7.47469,0h-3.7371v-1.69171h3.7371Zm-7.4742,0h-3.73715v-1.69171h3.73715Zm-7.4747,0h-3.73709v-1.69171h3.73709Zm-7.47419,0h-3.73715v-1.69171h3.73715Zm-7.4742,0h-3.7371v-1.69171h3.7371Zm-7.4747,0h-3.73709v-1.69171h3.73709Zm-7.47419,0h-3.7371v-1.69171h3.7371Zm-7.4742,0h-3.7371v-1.69171h3.7371Zm-7.47469,0h-3.7371v-1.69171h3.7371Zm-7.4742,0h-3.73714v-1.69171h3.73714Zm-7.47424,0H931.113v-1.69171h3.7371Zm-7.47465,0h-3.7371v-1.69171h3.7371Zm-7.4742,0h-3.7371v-1.69171h3.7371Zm-7.4742,0h-3.7371v-1.69171h3.7371Zm-7.47469,0h-3.7371v-1.69171h3.7371Zm-7.4742,0H893.741v-1.69171h3.73714Zm-7.47424,0h-3.7371v-1.69171h3.7371Zm-7.4742,0h-3.73755v-1.69171h3.73755Zm-7.47465,0h-3.7371v-1.69171h3.7371Zm-7.47419,0h-3.7371v-1.69171h3.7371Zm-7.47425,0H856.369v-1.69171h3.73755Zm-7.47465,0h-3.73714v-1.69171h3.73714Zm-7.47424,0h-3.7371v-1.69171h3.7371Zm-7.4742,0H833.9459v-1.69171h3.73759Zm-7.47469,0h-3.7371v-1.69171h3.7371Zm-7.4742,0h-3.737v-1.69171h3.737Zm-7.47415,0h-3.73714v-1.69171h3.73714Zm-7.47469,0h-3.7371v-1.69171h3.7371Zm-7.47425,0h-3.7371v-1.69171h3.7371Zm-7.47419,0h-3.7371v-1.69171h3.7371Zm-7.4747,0h-3.7371v-1.69171h3.7371Zm-5.38538-2.08881h-1.69172v-3.7371h1.69172Zm357.52651-.97145H1135.812v-3.7371h1.69172Zm-357.52651-6.50275h-1.69172V436.9371h1.69172Zm357.52651-.9719H1135.812v-3.7371h1.69172ZM779.97724,433.1995h-1.69172v-3.73705h1.69172Zm357.52651-.97141H1135.812V428.491h1.69172Zm-357.52651-6.50274h-1.69172v-3.7371h1.69172Zm357.52651-.97146H1135.812V421.0168h1.69172Zm-357.52651-6.50278h-1.69172V414.514h1.69172Zm357.52651-.97191H1135.812v-3.7371h1.69172Zm-357.52651-6.50274h-1.69172v-3.73715h1.69172Zm357.52651-.97146H1135.812v-3.73714h1.69172Zm-357.52651-6.50279h-1.69172v-3.7371h1.69172Zm357.52651-.97145H1135.812v-3.7371h1.69172ZM779.97724,395.828h-1.69172v-3.7371h1.69172Zm357.52651-.97195H1135.812V391.119h1.69172Zm-357.52651-6.50275h-1.69172v-3.7371h1.69172Zm357.52651-.97145H1135.812v-3.7371h1.69172Zm-357.52651-6.50275h-1.69172V377.142h1.69172Zm357.52651-.9714H1135.812v-3.7371h1.69172Zm-357.52651-6.50284h-1.69172v-3.7371h1.69172Zm357.52651-.97186H1135.812v-3.7371h1.69172Zm-357.52651-6.50274h-1.69172v-3.73715h1.69172Zm357.52651-.97146H1135.812v-3.73709h1.69172ZM779.97724,358.456h-1.69172v-3.7371h1.69172Zm357.52651-.97146H1135.812v-3.7371h1.69172Zm-357.52651-6.50274h-1.69172v-3.7371h1.69172Zm357.52651-.97191H1135.812v-3.73714h1.69172Zm-357.52651-6.50279h-1.69172v-3.73709h1.69172Zm357.52651-.97145H1135.812v-3.7371h1.69172ZM779.97724,336.033h-1.69172v-3.7371h1.69172Zm357.52651-.97146H1135.812v-3.73755h1.69172ZM779.97724,328.5587h-1.69172v-3.7375h1.69172Zm357.52651-.97186H1135.812v-3.73709h1.69172ZM779.97724,321.0841h-1.69172V317.347h1.69172Zm357.52651-.97145H1135.812v-3.7371h1.69172Zm-357.52651-6.50279h-1.69172v-3.7371h1.69172Zm357.52651-.97146H1135.812v-3.73755h1.69172Zm-357.52651-6.50274h-1.69172v-3.7376h1.69172Zm357.52651-.9719H1135.812v-3.73715h1.69172ZM779.97724,298.661h-1.69172v-3.7371h1.69172Zm357.52651-.97146H1135.812v-3.7371h1.69172Zm-357.52651-6.50274h-1.69172v-3.7371h1.69172Zm357.52651-.97145H1135.812v-3.7376h1.69172Zm-357.52651-6.503h-1.69172v-3.7371h1.69172Zm357.52651-.97163H1135.812v-3.7371h1.69172Zm-357.52651-6.50279h-1.69172v-3.7371h1.69172Zm357.52651-.97141H1135.812V271.5291h1.69172Zm-357.52651-6.50279h-1.69172v-3.7371h1.69172Zm357.52651-.97168H1135.812v-3.7371h1.69172Zm-357.52651-6.50274h-1.69172v-3.7371h1.69172Zm357.52651-.97168H1135.812v-3.73715h1.69172Zm-357.52651-6.50279h-1.69172v-3.7371h1.69172Zm357.52651-.97145H1135.812V249.106h1.69172Zm-357.52651-6.50275h-1.69172v-3.73737h1.69172Zm357.52651-.97168H1135.812v-3.7371h1.69172Zm-357.52651-6.50279h-1.69172V235.129h1.69172Zm357.52651-.97168H1135.812v-3.7371h1.69172ZM779.97724,231.3917h-1.69172v-3.82161h1.6072v.84586h.08452Zm357.52651-.97145H1135.812v-1.15844h-.88694v-1.69172h2.57866Zm-6.31625-1.15844h-3.7371v-1.69172h3.7371Zm-7.47415,0h-3.7371v-1.69172h3.7371Zm-7.47425,0h-3.7371v-1.69172h3.7371Zm-7.47419,0h-3.7376v-1.69172h3.7376Zm-7.4747,0h-3.7371v-1.69172h3.7371Zm-7.4742,0h-3.73709v-1.69172h3.73709Zm-7.47419,0h-3.7376v-1.69172h3.7376Zm-7.4747,0H1075.13v-1.69172h3.7371Zm-7.47424,0h-3.7371v-1.69172h3.7371Zm-7.4742,0h-3.737v-1.69172h3.737Zm-7.47465,0h-3.7371v-1.69172h3.7371Zm-7.47419,0h-3.7371v-1.69172h3.7371Zm-7.4742,0h-3.73714v-1.69172h3.73714Zm-7.4747,0h-3.73709v-1.69172h3.73709Zm-7.47424,0h-3.7371v-1.69172h3.7371Zm-7.47419,0h-3.7371v-1.69172h3.7371Zm-7.4742,0h-3.73755v-1.69172h3.73755Zm-7.47465,0h-3.7371v-1.69172h3.7371Zm-7.4742,0h-3.73714v-1.69172h3.73714Zm-7.47424,0h-3.73755v-1.69172h3.73755Zm-7.47465,0h-3.73714v-1.69172h3.73714Zm-7.47424,0h-3.7371v-1.69172h3.7371Zm-7.4742,0h-3.7376v-1.69172h3.7376Zm-7.47465,0h-3.7371v-1.69172h3.7371Zm-7.4742,0h-3.73709v-1.69172h3.73709Zm-7.47424,0h-3.73755v-1.69172H944.329Zm-7.47465,0h-3.73714v-1.69172h3.73714Zm-7.47424,0h-3.7371v-1.69172h3.7371Zm-7.4742,0h-3.73759v-1.69172H921.906Zm-7.47469,0h-3.7371v-1.69172h3.7371Zm-7.4742,0H903.22v-1.69172h3.7371Zm-7.47465,0h-3.7371v-1.69172h3.7371Zm-7.4742,0h-3.73714v-1.69172h3.73714Zm-7.47424,0h-3.7371v-1.69172h3.7371Zm-7.47469,0h-3.7371v-1.69172h3.7371Zm-7.4742,0H865.848v-1.69172h3.7371Zm-7.4742,0h-3.7371v-1.69172h3.7371Zm-7.47465,0h-3.73709v-1.69172h3.73709Zm-7.47419,0h-3.73715v-1.69172H847.162Zm-7.47425,0H835.9507v-1.69172h3.73709Zm-7.47465,0H828.476v-1.69172h3.73714Zm-7.47424,0h-3.7371v-1.69172h3.7371Zm-7.47419,0h-3.7376v-1.69172h3.7376Zm-7.4747,0h-3.7371v-1.69172H809.79Zm-7.4742,0h-3.73705v-1.69172h3.73705Zm-7.47419,0h-3.73755v-1.69172h3.73755Zm-7.47465,0h-3.73715v-1.69172H787.367Z"/><rect class="cls-1" x="417.2364" y="320.11907" width="269.60931" height="168.06814" rx="15.4215"/><g class="cls-9"><path class="cls-8" d="M404.22987,439.5134,475.93564,387.113a40.278,40.278,0,0,1,51.23749,3.06565l52.89338,49.33471,29.65-27.49955a27.49528,27.49528,0,0,1,36.678-.64173l50.06521,43.27666v45.98838H403.06559Z"/></g><circle class="cls-8" cx="580.06651" cy="368.29581" r="19.64124" transform="matrix(0.16018, -0.98709, 0.98709, 0.16018, 123.61003, 881.87778)"/><path class="cls-8" d="M806.29233,255.70811H954.313a3.5816,3.5816,0,0,1,3.5816,3.5816v3.7856a3.5816,3.5816,0,0,1-3.5816,3.5816H806.29243a3.5816,3.5816,0,0,1-3.5816-3.5816v-3.7857A3.5815,3.5815,0,0,1,806.29233,255.70811Z"/><path class="cls-8" d="M806.29243,280.90033H954.313a3.5816,3.5816,0,0,1,3.5816,3.5816v3.78559a3.5817,3.5817,0,0,1-3.5817,3.5817H806.29243a3.5816,3.5816,0,0,1-3.5816-3.5816v-3.78569A3.5816,3.5816,0,0,1,806.29243,280.90033Z"/><rect class="cls-8" x="802.71083" y="306.09259" width="155.18376" height="10.94889" rx="3.5816"/><rect class="cls-8" x="802.71083" y="331.28485" width="155.18376" height="10.94884" rx="3.5816"/><rect class="cls-8" x="802.71083" y="356.47712" width="155.18376" height="10.94884" rx="3.5816"/><path class="cls-8" d="M806.29243,381.66933H954.313a3.5816,3.5816,0,0,1,3.5816,3.5816v3.78559a3.5817,3.5817,0,0,1-3.5817,3.5817H806.29243a3.5816,3.5816,0,0,1-3.5816-3.5816v-3.78569A3.5816,3.5816,0,0,1,806.29243,381.66933Z"/><rect class="cls-8" x="802.71083" y="406.8616" width="77.5919" height="10.94884" rx="2.5326"/><path class="cls-1" d="M991.19212,254.58107h115.42a6.6014,6.6014,0,0,1,6.6014,6.6014V423.285a6.6014,6.6014,0,0,1-6.6014,6.6014H991.192a6.6013,6.6013,0,0,1-6.6013-6.6013V261.18247A6.6014,6.6014,0,0,1,991.19212,254.58107Z"/><g class="cls-10"><polygon class="cls-6" points="1121.1 248.818 1110.249 248.79 1048.281 334.293 982.138 244.257 979.075 254.666 1042.961 341.632 974.556 436.016 985.407 436.044 1048.434 349.081 1115.442 440.295 1118.506 429.886 1053.753 341.742 1121.1 248.818"/></g><path class="cls-2" d="M285.10736,109.0251c-9.92065,2.007-15.43208,16.14412-12.3102,31.57629l2.74706,13.5789a91.24546,91.24546,0,0,1,1.79545,16.37517l.37357,19.85474,22.90511-4.71167-4.20554-20.78865c9.92074-2.007,15.43217-16.14411,12.31028-31.57629S295.02807,107.01818,285.10736,109.0251Z"/><g class="cls-11"><path class="cls-12" d="M310.181,132.45516s-1.059,1.98575-6.48663,1.32385c0,0-7.58582,2.302-11.78186-1.721,0,0-11.436,2.34371-11.41036-10.47764h0l26.89887-1.43659Z"/></g><path class="cls-12" d="M296.41281,164.90988s-7.38611.36819-13.7919-8.24545c0,0,4.14528,13.00554,14.50768,11.78362Z"/><path class="cls-7" d="M280.50219,121.58038a7.52909,7.52909,0,0,0,4.488,6.14121,5.65677,5.65677,0,0,0,6.89558-2.39149,6.43487,6.43487,0,0,0,10.73268,1.27815,5.29633,5.29633,0,0,0,4.85409.19663,9.07531,9.07531,0,0,0,3.7328-3.3096,14.30329,14.30329,0,0,0,2.41393-6.6454,8.71374,8.71374,0,0,0-.965-5.32575c-1.70166-2.83939-5.42524-3.8659-8.717-3.51559-1.673-6.137-7.91359-10.49112-14.2745-10.52446a17.77464,17.77464,0,0,0-15.36227,9.645c-3.87111-.85934-8.46932-.13279-11.40254,2.53554s-4.09963,7.31019-2.2592,10.82252a11.71246,11.71246,0,0,0,5.05905,4.63838c-3.59124,1.29449-6.41914,4.59518-6.40289,8.41249a8.056,8.056,0,0,0,6.88255,7.85672,6.79767,6.79767,0,0,0,2.52274,6.195,12.6046,12.6046,0,0,0,6.42773,2.55513,25.05852,25.05852,0,0,0,5.85849-10.71675c-1.83283.33964-3.71959-.84418-4.99213-2.20631-1.148-1.22879-2.08656-2.98593-1.45216-4.54328a3.68481,3.68481,0,0,1,4.0428-1.86785,10.77155,10.77155,0,0,1,4.26545,2.13252,9.32617,9.32617,0,0,1-3.4105-8.05475A16.36027,16.36027,0,0,1,280.50219,121.58038Z"/><path class="cls-13" d="M213.6863,575.94394l-3.97566,8.86921L238.818,614.68189a17.26083,17.26083,0,0,1,3.389,19.107h0L156.56527,595.4l16.819-37.52146Z"/><circle class="cls-7" cx="183.23724" cy="587.63051" r="7.80609"/><path class="cls-7" d="M213.218,588.41217l-5.50844,4.5474a2.75362,2.75362,0,0,0-.28553,3.97471h0a2.75361,2.75361,0,0,0,3.7181.331l6.116-4.7072Z"/><path class="cls-7" d="M220.31523,595.71788l-5.50844,4.54736a2.75365,2.75365,0,0,0-.28549,3.97471h0a2.75368,2.75368,0,0,0,3.71815.331l6.116-4.70724Z"/><path class="cls-7" d="M228.34926,603.95433l-5.5084,4.54735a2.75364,2.75364,0,0,0-.28553,3.97472h0a2.7536,2.7536,0,0,0,3.7181.331l6.116-4.70719Z"/><rect class="cls-7" x="194.47875" y="570.84654" width="6.96565" height="93.85214" transform="translate(-446.74099 545.72836) rotate(-65.85601)"/><polygon class="cls-7" points="339.742 434.073 327.803 305.056 232.358 305.056 206.329 432.64 271.403 436.471 277.399 338.216 277.995 437.258 339.742 434.073"/><path class="cls-13" d="M332.00991,591.80316v9.71955l38.7784,15.34979a17.26086,17.26086,0,0,1,10.908,16.04929H287.84419V591.80316Z"/><circle class="cls-7" cx="309.00484" cy="614.92214" r="7.80609" transform="translate(-377.13696 668.05086) rotate(-67.74763)"/><path class="cls-7" d="M336.68254,603.37228,333.516,609.775a2.75365,2.75365,0,0,0,1.36529,3.74384h0A2.75368,2.75368,0,0,0,338.4095,612.3l3.65553-6.79709Z"/><path class="cls-7" d="M346.14719,607.13576l-3.16649,6.40267a2.75372,2.75372,0,0,0,1.36529,3.74384h0a2.75366,2.75366,0,0,0,3.52826-1.21885l3.65552-6.79709Z"/><path class="cls-7" d="M356.84743,611.36546l-3.1665,6.40271a2.75366,2.75366,0,0,0,1.36525,3.7438h0a2.7537,2.7537,0,0,0,3.52825-1.2188L362.23,613.496Z"/><rect class="cls-7" x="287.84419" y="632.92179" width="93.85215" height="6.96562"/><path class="cls-4" d="M380.85279,227.8206l-41.30661-38.5031a56.7444,56.7444,0,0,0-38.69139-15.23641H263.28265q-.67219,0-1.3428.01588a49.57046,49.57046,0,0,0-43.70452,29.22629L197.96154,247.835l31.6871,19.03911-4.658,38.18174H334.82551l-4.92875-55.52972,16.19641,16.35956Z"/><g class="cls-14"><path class="cls-15" d="M205.47537,217.70834s23.47879,40.40876,25.61329,37.84744,10.24523-35.85857,10.24523-35.85857l94.769,94.34214-7.78357,2.54667H197.96154l-8.70787-71.70243Z"/><path class="cls-2" d="M264.80539,171.972s6.51609,14.873,22.733,16.41716,26.13992-16.21537,26.13992-16.21537Z"/><g class="cls-16"><path class="cls-12" d="M270.52168,172.86266s3.14428,13.6834,17.01671,15.52646h0s-12.00286-.57436-18.897-6.93119-6.08823-8.50574-6.08823-8.50574Z"/></g></g><polygon class="cls-2" points="330.594 592.017 333.354 494.286 332.512 434.446 282.737 437.014 286.428 504.068 289.447 592.017 330.594 592.017"/><g class="cls-17"><polygon class="cls-12" points="273.036 466.721 337.217 447.858 335.069 426.071 282.737 427.912 273.036 466.721"/></g><path class="cls-2" d="M213.80615,433.07979l-6.68249,50.66643a44.48229,44.48229,0,0,1-3.17614,11.61581l-27.26,63.99718,36.99877,16.58473,36.44663-78.03664a37.305,37.305,0,0,0,2.52663-7.29988l12.7291-54.49076Z"/><g class="cls-18"><path class="cls-12" d="M197.98036,455.44266s58.59252-.74452,69.30366-9.46438l3.053-14.95984-56.78624-4.88487Z"/></g><path class="cls-3" d="M245.63547,184.169h165.885a10.747,10.747,0,0,1,10.747,10.747v96.7121a10.74711,10.74711,0,0,1-10.74711,10.74711H245.63552a10.7471,10.7471,0,0,1-10.7471-10.7471v-96.7121A10.74705,10.74705,0,0,1,245.63547,184.169Z" transform="translate(-41.76217 70.08726) rotate(-11.45291)"/><g class="cls-19"><path class="cls-20" d="M243.19323,312.85344l71.54625-29.44431s21.949-1.72972,29.98818-10.14922h0l-32.96013-.51636-73.7308,19.53814Z"/><path class="cls-20" d="M330.61073,303.16425s7.01734-12.30748,16.78942-13.5846,21.56655,5.81379,21.56655,5.81379-32.30827,8.38358-38.356,7.77081"/></g><path class="cls-8" d="M274.18367,212.85655l16.479-3.3386,9.656,47.66141q1.62,7.996,4.25436,11.29558,4.25876,5.92875,14.12194,3.93,9.80978-1.98741,11.42593-9.10588,1.14168-4.06452-.47763-12.06073l-9.656-47.66141,16.479-3.33855L346.13,247.93775q2.50663,12.37239.06741,20.0464-4.5883,14.08371-24.71844,18.162-20.13062,4.07837-29.89117-7.09828-5.23429-6.119-7.74036-18.4919Z"/><path class="cls-8" d="M382.567,271.68722l-16.1106,3.26395-15.72218-77.60348,16.11059-3.26395Z"/><path class="cls-2" d="M229.34048,266.31261l-29.53932-17.37237-5.809,19.4805s-8.203,27.1144,3.96937,36.63507c12.40725,9.70425,122.38216-29.36546,122.38216-29.36546l1.43347-14.89048Z"/><g class="cls-21"><polyline class="cls-12" points="229.34 266.313 191.289 269.165 200.668 241.893 229.34 266.313"/></g><path class="cls-2" d="M314.44992,261.77743s10.94315-15.54456,11.99015-12.94034-1.52468,3.55563-1.12292,6.56748c.66829,5.0087,25.65374-8.051,26.46987-6.322s-2.97512,21.99854-7.05936,24.17734c-10.43109,5.56468-32.96013,4.41406-32.96013,4.41406Z"/><path class="cls-2" d="M367.64665,295.66087s-8.28906-4.47152-17.7-3.12709c-10.13045,1.44718-10.66793,9.47343-10.18044,9.23355s14.41589,1.43768,18.15095.00322S367.64665,295.66087,367.64665,295.66087Z"/><rect class="cls-15" x="545.86397" y="143.59551" width="460.36655" height="69.46359" rx="24.85314"/><path class="cls-4" d="M566.79554,139.73707H977.45573a24.85315,24.85315,0,0,1,24.85315,24.85315v19.7573a24.85314,24.85314,0,0,1-24.85314,24.85314H566.79549a24.85312,24.85312,0,0,1-24.85312-24.85312v-19.7573A24.85317,24.85317,0,0,1,566.79554,139.73707Z"/><path class="cls-8" d="M962.45542,195.17128a22.96491,22.96491,0,1,1,16.23845-6.72629A22.81527,22.81527,0,0,1,962.45542,195.17128Zm0-43.26372a20.2991,20.2991,0,1,0,14.35282,5.94549h0A20.16378,20.16378,0,0,0,962.45542,151.90756Z"/><path class="cls-8" d="M985.90539,198.08858a2.591,2.591,0,0,1-1.83853-.76161l-6.83935-6.83958a2.60041,2.60041,0,0,1,3.67751-3.67756l6.8389,6.83962a2.60037,2.60037,0,0,1-1.83853,4.43913Z"/><polygon class="cls-12" points="1207.477 573.105 1207.477 625.2 1178.483 625.2 1173.735 569.698 1207.477 573.105"/><path class="cls-7" d="M1207.67294,620.35841s-18.26564,3.55165-30.0236-4.90364L1151.97,624.8203a16.31232,16.31232,0,0,0-10.72317,15.3249h69.73938c2.06158-6.90174,1.16414-14.14434-3.31322-19.78679Z"/><polygon class="cls-12" points="1342.532 547.155 1372.646 589.665 1348.987 606.426 1313.029 563.881 1342.532 547.155"/><path class="cls-7" d="M1370.00705,585.60137s-12.8517,13.45661-27.33378,13.35382l-15.54067,22.48633a16.31237,16.31237,0,0,0,.10854,18.70368h0l56.90727-40.313h0c-2.30734-6.82351-7.22618-12.21473-14.14136-14.2308Z"/><path class="cls-7" d="M1201.40854,116.69262s30.28135-3.51867,32.33392,22.57791c1.03611,13.17343,9.93215,21.57049,17.01047,31.33067,11.61572,16.0168.11243,38.45559-19.673,38.45559h-49.23739s-5.86442-31.37451-3.51863-58.64391,20.23212-26.09653,20.23212-26.09653S1192.23891,119.03837,1201.40854,116.69262Z"/><path class="cls-2" d="M1218.66282,157.09342c2.35376.44252,4.78334-1.97217,5.42665-5.39334s-.74348-6.55342-3.09732-6.99594a4.129,4.129,0,0,0-3.91735,1.89929c-2.38312-9.85663-8.49691-16.87171-15.66631-16.87171-9.24246,0-16.735,11.655-16.735,26.0322s7.49257,26.03215,16.735,26.03215v19.36739l21.35333.06981-3.26047-17.83773a83.31009,83.31009,0,0,1-1.35792-14.981V156.94118A3.024,3.024,0,0,0,1218.66282,157.09342Z"/><g class="cls-22"><path class="cls-12" d="M1208.00864,129.73172s2.06416,16.14457-6.6001,22.5999c-7.08882,5.28155-19.27483,2.456-19.27483,2.456s6.57143-25.07156,11.94808-26.68261S1208.00864,129.73172,1208.00864,129.73172Z"/></g><path class="cls-3" d="M1163.90463,339.36462l11.88351-106.98147c1.53215-13.87026,9.81474-39.92431,23.76938-39.92431h30.38668a27.37309,27.37309,0,0,1,27.012,22.94135l14.13914,120.63439Z"/><g class="cls-23"><path class="cls-20" d="M1174.77013,222.70215h38.37552a16.20327,16.20327,0,0,1,15.83868,12.78547l7.44886,34.519a30.48771,30.48771,0,0,0,29.80169,24.05677h12.17076l2.21463,51.45524-125.005,1.50233Z"/></g><path class="cls-7" d="M1201.40854,128.105s1.38886,13.146-4.10492,18.44367-15.89293,5.1014-15.89293,5.1014S1182.36079,128.30124,1201.40854,128.105Z"/><path class="cls-12" d="M1201.40854,181.79607s6.67724-1.00787,10.85094-9.8769c0,0-1.3553,12.39059-10.85094,13.17315Z"/><path class="cls-7" d="M1169.4979,333.04937s-9.15021,113.62732-10.16686,120.865,13.32517,131.78189,13.32517,131.78189H1212.201V451.74972l38.01909-115.47038Z"/><path class="cls-7" d="M1294.5612,455.14306l-25.993-118.757-74.443-2.35131,3.29788,40.62539s49.91224,102.48737,52.71806,109.2361c2.80537,6.74878,78.49658,106.68772,78.49658,106.68772l34.04835-20.11232Z"/><rect class="cls-4" x="1043.92699" y="232.38315" width="176.72738" height="111.06961" rx="24.3559"/><g class="cls-24"><path class="cls-15" d="M1085.18776,231.21729s3.59776,18.13249,7.455,19.067c11.70286,2.83523,18.57152-6.40158,18.57152-6.40158l-10.20192-13.97328Z"/></g><path class="cls-8" d="M1065.05885,248.25038h14.59622v42.21685q0,7.08243,1.673,10.34394,2.60136,5.77851,11.33806,5.77837,8.68939,0,11.29138-5.77837,1.67169-3.26148,1.673-10.34394V248.25038h14.59622v42.25033q0,10.95945-3.39841,17.06811-6.33153,11.19215-24.16218,11.19215-17.83158,0-24.20891-11.19215-3.39932-6.1088-3.39836-17.06811Z"/><path class="cls-8" d="M1145.0131,316.98877H1128.318l22.10444-35.022-21.03228-33.71641h17.16131l12.25989,22.3859,12.596-22.3859h16.60216L1166.97725,281.407l22.33753,35.58177h-17.4405L1158.81265,293.551Z"/><polygon class="cls-12" points="1107.732 227.312 1156.342 232.383 1107.732 232.383 1107.732 227.312"/><path class="cls-2" d="M1105.0483,225.547a2.89094,2.89094,0,0,1,2.68394,1.76474c1.914,4.53224,4.502,15.464,3.48206,16.571-1.26449,1.37239-12.32055,3.8-16.51908,2.5036-3.28789-1.01525-4.169-9.81248-5.57613-13.39951a3.81672,3.81672,0,0,1,.48876-3.71769,7.876,7.876,0,0,1,4.87038-2.89391A62.45168,62.45168,0,0,1,1105.0483,225.547Z"/><path class="cls-2" d="M1280.53865,270.04785a64.42425,64.42425,0,0,0-.7475-6.51912l-18.30229-48.91264a34.11543,34.11543,0,0,0-31.52114-22.157l-.02357-.00027s10.84148,66.044,14.38974,78.82088l-66.08332,65.8586a16.69273,16.69273,0,0,1-10.47144,4.81749l-18.98844,1.497s9.81651,12.45977,18.873,12.25075,21.65111-6.36113,21.65111-6.36113l76.607-48.02824A35.71085,35.71085,0,0,0,1280.53865,270.04785Z"/><g class="cls-25"><path class="cls-12" d="M1148.79069,348.4815s18.91628,1.1797,26.68772-9.11688h-31.0555Z"/><path class="cls-12" d="M1250.22011,199.44234s-8.974-.1598-9.29667,9.61445,14.47593,65.02572,14.47593,65.02572l-50.64961,36.64674,31.68343-40.72262-10.03214-81.51124s20.34767,4.17836,23.81906,10.947"/></g><rect class="cls-7" x="129.69074" y="638.96333" width="1268.61852" height="2.36398"/></g></svg>