<svg xmlns="http://www.w3.org/2000/svg" viewBox="0 0 1528 642"><defs><style>.cls-1{fill:#f7f7f7;}.cls-2{fill:#f5f5f5;}.cls-3{fill:#d7eff9;}.cls-4{fill:#37474f;}.cls-5{fill:#455a64;}.cls-6{fill:#263238;}.cls-7{fill:#fc8d2a;}.cls-11,.cls-13,.cls-14,.cls-15,.cls-16,.cls-18,.cls-19,.cls-20,.cls-22,.cls-8{fill:#fff;}.cls-29,.cls-8{opacity:0.35;}.cls-9{fill:#e0e0e0;}.cls-10{fill:#344b7e;}.cls-11,.cls-28{opacity:0.2;}.cls-12,.cls-20{opacity:0.1;}.cls-13{opacity:0.7;}.cls-14,.cls-15{stroke:#fff;stroke-miterlimit:10;opacity:0.55;}.cls-14{stroke-width:0.83207px;}.cls-15{stroke-width:1.09356px;}.cls-17{fill:#ff901b;}.cls-18,.cls-25{opacity:0.25;}.cls-19,.cls-23{opacity:0.4;}.cls-21{opacity:0.05;}.cls-22,.cls-26{opacity:0.15;}.cls-24{opacity:0.5;}.cls-27{opacity:0.45;}.cls-30{fill:#fafafa;}.cls-31{fill:#0f0f0f;opacity:0.18;}.cls-32{fill:#c8856a;}.cls-33{fill:#af6152;}.cls-34{fill:#f0f0f0;}.cls-35{fill:#ba68c8;}.cls-36{opacity:0.3;}</style></defs><title>wrapping-up-the-catflix-and-bayshore-journey</title><g id="BACKGROUND"><rect class="cls-1" width="1528" height="642"/></g><g id="OBJECTS"><ellipse id="Floor" class="cls-2" cx="692.84424" cy="426.61165" rx="348.58705" ry="201.25677"/><path id="Cloud" class="cls-3" d="M307.32236,85.02232c-4.57872-.685-7.637-2.16474-8.24731-4.58742-.61411-2.43864,1.37339-5.54944,3.79792-6.49792a20.33958,20.33958,0,0,1,9.87165-1.20485c-.42149-4.20372,3.45072-9.18039,7.26916-11.29194s10.75853-2.60476,14.66082.61554c1.13171-7.5388,5.97863-11.22921,13.56933-13.87118,4.16864-1.45095,12.81647-2.324,19.4537,3.7406,4.39863-8.22692,17.50726-13.1554,30.97164-7.77065a23.36923,23.36923,0,0,1,12.14247,11.35882c1.46207,3.09511,1.73342,5.9541,2.0558,9.27863a11.78218,11.78218,0,0,1,12.478-.6057,9.68067,9.68067,0,0,1,4.54193,8.70985,24.86294,24.86294,0,0,1,8.08049,1.87515c2.91844,1.22253,5.9501,3.968,4.89212,6.84569-.80191,2.181-3.51318,3.04706-5.90249,3.378a35.96721,35.96721,0,0,1-14.2064-.88588c-8.41584,5.84245-20.91007,5.54031-29.00752-.70138.222.1711-5.44735,3.62966-5.9983,3.87248a23.59864,23.59864,0,0,1-6.97088,1.8646c-4.0684.43817-9.78994-.32866-12.96433-2.99986a2.69086,2.69086,0,0,0-1.51056-.83926,2.57085,2.57085,0,0,0-1.2914.44814,18.85988,18.85988,0,0,1-19.84837-1.40689,18.88713,18.88713,0,0,1-26.27116-1.06269A20.853,20.853,0,0,1,307.32236,85.02232Z"/><path id="Cloud-2" data-name="Cloud" class="cls-3" d="M1051.50438,169.62172c-4.57872-.685-7.637-2.16473-8.24731-4.58741-.61412-2.43865,1.37339-5.54944,3.79792-6.49792a20.33953,20.33953,0,0,1,9.87164-1.20485c-.42148-4.20372,3.45072-9.18039,7.26917-11.29195s10.75853-2.60476,14.66082.61555c1.13171-7.5388,5.97863-11.22921,13.56933-13.87118,4.16864-1.451,12.81647-2.324,19.4537,3.74059,4.39863-8.22691,17.50726-13.15539,30.97164-7.77064a23.36915,23.36915,0,0,1,12.14247,11.35882c1.46207,3.09511,1.73341,5.9541,2.0558,9.27863a11.78218,11.78218,0,0,1,12.478-.60571,9.68069,9.68069,0,0,1,4.54193,8.70986,24.86256,24.86256,0,0,1,8.08048,1.87515c2.91845,1.22253,5.95011,3.968,4.89212,6.84569-.8019,2.181-3.51317,3.04706-5.90248,3.378a35.967,35.967,0,0,1-14.2064-.88589c-8.41584,5.84246-20.91007,5.54032-29.00752-.70138.222.1711-5.44735,3.62967-5.9983,3.87249a23.59894,23.59894,0,0,1-6.97088,1.8646c-4.0684.43816-9.78994-.32866-12.96433-2.99987a2.691,2.691,0,0,0-1.51056-.83926,2.57092,2.57092,0,0,0-1.2914.44815,18.8599,18.8599,0,0,1-19.84838-1.4069,18.8871,18.8871,0,0,1-26.27115-1.06269A20.85287,20.85287,0,0,1,1051.50438,169.62172Z"/><path id="Cloud-3" data-name="Cloud" class="cls-3" d="M160.93188,265.66771c3.41892-.5116,5.70272-1.6165,6.15842-3.42562.4587-1.821-1.02548-4.14383-2.836-4.85206a15.18788,15.18788,0,0,0-7.37126-.89972c.31469-3.139-2.57681-6.85524-5.4281-8.432s-8.03357-1.945-10.9476.45969c-.84511-5.62943-4.46436-8.38518-10.13244-10.358-3.11293-1.08351-9.5705-1.73541-14.52664,2.79326-3.28461-6.14332-13.07313-9.8236-23.12728-5.80254a17.44955,17.44955,0,0,0-9.067,8.48187,19.50292,19.50292,0,0,0-1.53508,6.92853,8.79808,8.79808,0,0,0-9.3177-.45228,7.22906,7.22906,0,0,0-3.39154,6.50391,18.5677,18.5677,0,0,0-6.03381,1.40005c-2.17942.913-4.44312,2.96307-3.653,5.112.59872,1.62862,2.6233,2.27525,4.40747,2.52235a26.85472,26.85472,0,0,0,10.60825-.66146A19.02823,19.02823,0,0,0,96.399,264.462a35.20325,35.20325,0,0,0,4.47919,2.89165,17.62131,17.62131,0,0,0,5.20538,1.39235c3.03794.32723,7.31038-.24539,9.68072-2.24017a2.00974,2.00974,0,0,1,1.128-.62652,1.91907,1.91907,0,0,1,.96417.3345,14.08306,14.08306,0,0,0,14.82137-1.05057,14.10306,14.10306,0,0,0,19.61724-.79349A15.57227,15.57227,0,0,0,160.93188,265.66771Z"/><path id="Cloud-4" data-name="Cloud" class="cls-3" d="M1411.14927,58.02c3.41892-.5116,5.70272-1.6165,6.15842-3.42563.4587-1.821-1.02547-4.14383-2.836-4.852a15.18762,15.18762,0,0,0-7.37126-.89972c.31469-3.139-2.57681-6.85524-5.4281-8.432s-8.03357-1.945-10.9476.4597c-.84511-5.62943-4.46436-8.38519-10.13243-10.358-3.11294-1.08351-9.57051-1.73541-14.52665,2.79326-3.28461-6.14331-13.07313-9.82359-23.12728-5.80253a17.44953,17.44953,0,0,0-9.067,8.48186,19.503,19.503,0,0,0-1.53508,6.92853,8.79808,8.79808,0,0,0-9.3177-.45228,7.22906,7.22906,0,0,0-3.39154,6.50391,18.56821,18.56821,0,0,0-6.03381,1.40005c-2.17942.913-4.44312,2.96308-3.65305,5.112.59872,1.62862,2.6233,2.27524,4.40747,2.52234a26.85472,26.85472,0,0,0,10.60825-.66145,19.02823,19.02823,0,0,0,21.6605-.52372,35.20329,35.20329,0,0,0,4.47919,2.89164,17.62131,17.62131,0,0,0,5.20538,1.39235c3.03794.32724,7.31038-.24539,9.68073-2.24016a2.00979,2.00979,0,0,1,1.128-.62653,1.91918,1.91918,0,0,1,.96417.33451,14.08306,14.08306,0,0,0,14.82137-1.05057,14.10309,14.10309,0,0,0,19.61725-.79349A15.57231,15.57231,0,0,0,1411.14927,58.02Z"/><g id="Mountain"><g id="Rock"><polygon class="cls-4" points="623.746 330.8 756.297 411.276 819.207 428.191 903.012 397.123 977.871 397.319 1015.277 350.314 977.871 223.712 950.914 210.936 924.947 88.746 823.73 92.288 804.94 158.521 774.787 167.575 745.717 225.078 677.884 241.716 623.746 330.8"/><polygon class="cls-5" points="899.754 330.04 811.759 361.16 707.694 311.515 814.054 339.988 899.754 330.04"/><polygon class="cls-6" points="819.207 428.191 811.759 361.16 899.754 330.04 903.012 397.123 819.207 428.191"/><polygon class="cls-6" points="956.672 270.166 977.871 397.319 1015.277 350.314 977.871 223.712 956.672 270.166"/><polygon class="cls-7" points="823.73 92.288 911.341 117.53 924.947 88.746 823.73 92.288"/><polygon class="cls-8" points="823.73 92.288 911.341 117.53 924.947 88.746 823.73 92.288"/><polygon class="cls-5" points="950.914 210.936 928.59 258.532 802.786 281.612 956.672 270.166 977.871 223.712 950.914 210.936"/><polygon class="cls-6" points="950.914 210.936 928.59 258.532 911.341 117.53 924.947 88.746 950.914 210.936"/><polygon class="cls-5" points="677.884 241.716 745.717 225.078 774.086 266.309 677.884 241.716"/><polygon class="cls-5" points="804.94 158.521 827.053 192.103 908.693 200.283 809.205 209.808 774.787 167.575 804.94 158.521"/></g><g id="Rock-2" data-name="Rock"><polygon class="cls-4" points="576.076 403.048 671.86 442.72 756.297 411.276 754.709 365.042 711.873 334.788 674.38 321.579 636.686 309.46 602.678 317.915 576.076 403.048"/><polygon class="cls-5" points="711.873 334.788 696.458 371.865 646.676 379.27 591.183 364.762 675.714 401.816 737.696 386.469 754.709 365.042 711.873 334.788"/><polygon class="cls-6" points="671.86 442.72 675.714 401.816 737.696 386.469 754.709 365.042 756.297 411.276 671.86 442.72"/><polygon class="cls-5" points="636.686 309.46 602.678 317.915 640.561 331.87 674.38 321.579 636.686 309.46"/></g><g id="Rock-3" data-name="Rock"><polygon class="cls-6" points="899.614 452.291 932.765 468.058 932.765 441.375 910.934 428.438 899.614 452.291"/><polygon class="cls-4" points="947.319 432.885 932.765 441.375 932.765 468.058 954.596 457.547 947.319 432.885"/><polygon class="cls-5" points="910.934 428.438 930.744 426.417 947.319 432.885 932.765 441.375 910.934 428.438"/><polygon class="cls-5" points="946.1 449.012 952.335 453.057 962.616 451.035 955.706 447.833 950.987 447.833 946.1 449.012"/><polygon class="cls-4" points="950.65 466.54 952.335 453.057 962.616 451.035 965.312 457.776 950.65 466.54"/><polygon class="cls-6" points="946.1 449.012 940.875 464.18 950.65 466.54 952.335 453.057 946.1 449.012"/></g><g id="Rock-4" data-name="Rock"><polygon class="cls-6" points="899.614 452.291 932.765 468.058 932.765 441.375 910.934 428.438 899.614 452.291"/><polygon class="cls-4" points="947.319 432.885 932.765 441.375 932.765 468.058 954.596 457.547 947.319 432.885"/><polygon class="cls-5" points="910.934 428.438 930.744 426.417 947.319 432.885 932.765 441.375 910.934 428.438"/><polygon class="cls-5" points="946.1 449.012 952.335 453.057 962.616 451.035 955.706 447.833 950.987 447.833 946.1 449.012"/><polygon class="cls-4" points="950.65 466.54 952.335 453.057 962.616 451.035 965.312 457.776 950.65 466.54"/><polygon class="cls-6" points="946.1 449.012 940.875 464.18 950.65 466.54 952.335 453.057 946.1 449.012"/></g></g><g id="Road"><path id="Way" class="cls-7" d="M911.01941,101.50341c-36.68734,13.43159-43.20351,24.25385-46.383,90.1a113.45112,113.45112,0,0,1-3.99255,26.09321c-6.54483,22.69966-20.87457,36.13125-43.65978,48.60751-48.907,26.8204-50.51817,59.21591-50.88889,81.53059-.827,49.49155-.5702,89.52965-69.72434,142.0868C637.93914,534.337,571.99319,567.83042,545.47208,640.592c-49.021-11.2215-94.94792-28.289-134.6009-51.18832a336.02745,336.02745,0,0,1-37.94224-25.32324c31.35463-61.16933,135.32823-98.31295,184.948-113.25594C609.53575,435.2541,684.07963,413.41,697.51136,348.4621c9.86694-47.73774,8.769-72.02011,88.17509-111.78731,17.79457-8.91161,29.48676-18.19395,37.4573-27.69017,21.3307-25.4088,15.89833-52.35752,29.31565-78.08,13.04647-25.00955,36.03145-29.4012,36.03145-29.4012Z"/><path id="Way-2" data-name="Way" class="cls-8" d="M911.01941,101.50341c-36.68734,13.43159-43.20351,24.25385-46.383,90.1a113.45112,113.45112,0,0,1-3.99255,26.09321c-6.54483,22.69966-20.87457,36.13125-43.65978,48.60751-48.907,26.8204-50.51817,59.21591-50.88889,81.53059-.827,49.49155-.5702,89.52965-69.72434,142.0868C637.93914,534.337,571.99319,567.83042,545.47208,640.592c-49.021-11.2215-94.94792-28.289-134.6009-51.18832a336.02745,336.02745,0,0,1-37.94224-25.32324c31.35463-61.16933,135.32823-98.31295,184.948-113.25594C609.53575,435.2541,684.07963,413.41,697.51136,348.4621c9.86694-47.73774,8.769-72.02011,88.17509-111.78731,17.79457-8.91161,29.48676-18.19395,37.4573-27.69017,21.3307-25.4088,15.89833-52.35752,29.31565-78.08,13.04647-25.00955,36.03145-29.4012,36.03145-29.4012Z"/></g><g id="Gears"><path class="cls-9" d="M817.95021,561.96458a5.69371,5.69371,0,0,1-5.52635-4.57572l-1.32219-6.95505a78.11272,78.11272,0,0,1-8.9658-2.19625l-12.25126,5.67249a6.61817,6.61817,0,0,1-2.79041.58931,6.872,6.872,0,0,1-3.38955-.86165l-12.09313-6.98228a4.6869,4.6869,0,0,1-.39853-8.0149l7.40591-5.326a26.58512,26.58512,0,0,1-1.91422-2.88437l-15.46015-.97814a5.42049,5.42049,0,0,1-5.07078-5.4003V515.064a5.42711,5.42711,0,0,1,5.0685-5.40029l15.46243-.97786a26.56108,26.56108,0,0,1,1.91422-2.88465l-7.40591-5.32587a4.68785,4.68785,0,0,1,.40109-8.01731l12.09057-6.97987a6.87063,6.87063,0,0,1,3.38955-.86178,6.65106,6.65106,0,0,1,2.78542.58445l12.32811,5.66494a76.52538,76.52538,0,0,1,8.89394-2.18356l1.32219-6.95762a5.70578,5.70578,0,0,1,5.52635-4.57344H835.728a5.70353,5.70353,0,0,1,5.52663,4.57829l1.31963,6.95277a78.042,78.042,0,0,1,8.96566,2.19625l12.25853-5.68019a6.66624,6.66624,0,0,1,2.78071-.58189,6.8866,6.8866,0,0,1,3.39468.86178l12.0977,6.98471a4.68967,4.68967,0,0,1,.39368,8.01247l-7.40562,5.32587a26.67391,26.67391,0,0,1,1.9115,2.88465l15.46016.97786a5.421,5.421,0,0,1,5.07334,5.40029v8.98776a5.42042,5.42042,0,0,1-5.07106,5.4003l-15.46016.97814a26.94113,26.94113,0,0,1-1.91378,2.88437L882.47,538.643a4.68877,4.68877,0,0,1-.4058,8.01247l-12.09542,6.98471a6.86409,6.86409,0,0,1-3.38484.85922,6.67977,6.67977,0,0,1-2.78784-.58446L851.47043,548.25a76.54558,76.54558,0,0,1-8.89622,2.18384l-1.31963,6.95505a5.70351,5.70351,0,0,1-5.52663,4.57572Zm-9.63652-50.90685c-4.16979,2.40671-6.55895,5.50681-6.55895,8.50254,0,2.99344,2.39173,6.09112,6.55895,8.49783,4.88755,2.82006,11.46646,4.37268,18.52289,4.37268,7.05914,0,13.63791-1.55262,18.52576-4.37268,4.16692-2.40671,6.5588-5.50667,6.5588-8.50011s-2.39188-6.09355-6.5588-8.50026c-4.88785-2.82021-11.46405-4.37254-18.52319-4.37254S813.20124,508.23752,808.31369,511.05773Z"/><path class="cls-10" d="M880.16241,485.478l-12.09114-6.98072a3.25758,3.25758,0,0,0-2.67548-.12034l-12.25568,5.67777a4.49225,4.49225,0,0,1-2.8031.168,72.74785,72.74785,0,0,0-9.51489-2.262,2.31639,2.31639,0,0,1-1.77177-1.72086l-1.53337-8.07649a1.8929,1.8929,0,0,0-1.78974-1.482h-17.777a1.8941,1.8941,0,0,0-1.79017,1.48261l-1.53394,8.07606a2.31518,2.31518,0,0,1-1.77163,1.72087,72.70655,72.70655,0,0,0-9.51275,2.26127,4.4923,4.4923,0,0,1-2.8041-.16683l-12.25639-5.67791a3.2607,3.2607,0,0,0-2.67562.12006L773.515,485.478a.98411.98411,0,0,0-.56236.82215l-.004.00029-.0288,10.48048.0037-.00156a1.01012,1.01012,0,0,0,.48037.81473l5.562,4.002a2.69019,2.69019,0,0,1-1.3721.5702l-16.1112,1.02006a1.62852,1.62852,0,0,0-1.50571,1.60409l-.00057,6.84711-.003.0154-.02524,12.60616a1.62875,1.62875,0,0,0,1.50585,1.60409l16.11163,1.01935a2.70322,2.70322,0,0,1,1.39848.59216l-5.53091,3.97957a1.01314,1.01314,0,0,0-.47951.804l-.005.00114-.0288,10.49175.00342-.001a.98639.98639,0,0,0,.56278.82044l12.09043,6.98044a3.25723,3.25723,0,0,0,2.67534.12l12.256-5.67762a4.49006,4.49006,0,0,1,2.80267-.16783,72.82167,72.82167,0,0,0,9.51575,2.26227,2.31642,2.31642,0,0,1,1.77163,1.72087l1.53323,8.07635a1.89417,1.89417,0,0,0,1.7903,1.48246l17.77675-.00028a1.89348,1.89348,0,0,0,1.79031-1.48247l1.5328-8.07592a2.31406,2.31406,0,0,1,1.77034-1.72058,72.82858,72.82858,0,0,0,9.5149-2.262,4.49618,4.49618,0,0,1,2.80438.167l12.25625,5.67777a3.25752,3.25752,0,0,0,2.67548-.1202l12.09071-6.97986a.99478.99478,0,0,0,.56407-.80262l.00128.00043.02938-10.51157-.005-.00057a1.01473,1.01473,0,0,0-.47924-.80276l-5.5617-4.0021a2.68936,2.68936,0,0,1,1.37168-.56977l16.11163-1.01892a1.6291,1.6291,0,0,0,1.506-1.60409l.02053-10.43814c.00043-.01511.00841-.028.00841-.04292l-.00028-8.98847a1.62786,1.62786,0,0,0-1.50571-1.60394l-16.11177-1.01935a2.70423,2.70423,0,0,1-1.39848-.59216l5.53147-3.97957a1.01529,1.01529,0,0,0,.47923-.803l.00471.002.02909-10.49417-.00371-.002A.98552.98552,0,0,0,880.16241,485.478ZM798.543,512.633c.86821-2.89606,3.45343-5.73081,7.86646-8.27854,11.28082-6.5126,29.5696-6.51289,40.85113.00043,4.13741,2.3886,6.83457,5.01674,8.054,7.70762-.96131,3.30072-3.63922,6.467-8.05039,9.014-11.28068,6.51261-29.57117,6.51333-40.85156.00043C802.25593,518.67723,799.63634,515.72713,798.543,512.633Z"/><path class="cls-11" d="M880.16241,485.478l-12.09114-6.98072a3.25758,3.25758,0,0,0-2.67548-.12034l-12.25568,5.67777a4.49225,4.49225,0,0,1-2.8031.168,72.74785,72.74785,0,0,0-9.51489-2.262,2.31639,2.31639,0,0,1-1.77177-1.72086l-1.53337-8.07649a1.8929,1.8929,0,0,0-1.78974-1.482h-17.777a1.8941,1.8941,0,0,0-1.79017,1.48261l-1.53394,8.07606a2.31518,2.31518,0,0,1-1.77163,1.72087,72.70655,72.70655,0,0,0-9.51275,2.26127,4.4923,4.4923,0,0,1-2.8041-.16683l-12.25639-5.67791a3.2607,3.2607,0,0,0-2.67562.12006L773.515,485.478a.98411.98411,0,0,0-.56236.82215l-.004.00029-.0288,10.48048.0037-.00156a1.01012,1.01012,0,0,0,.48037.81473l5.562,4.002a2.69019,2.69019,0,0,1-1.3721.5702l-16.1112,1.02006a1.62852,1.62852,0,0,0-1.50571,1.60409l-.00057,6.84711-.003.0154-.02524,12.60616a1.62875,1.62875,0,0,0,1.50585,1.60409l16.11163,1.01935a2.70322,2.70322,0,0,1,1.39848.59216l-5.53091,3.97957a1.01314,1.01314,0,0,0-.47951.804l-.005.00114-.0288,10.49175.00342-.001a.98639.98639,0,0,0,.56278.82044l12.09043,6.98044a3.25723,3.25723,0,0,0,2.67534.12l12.256-5.67762a4.49006,4.49006,0,0,1,2.80267-.16783,72.82167,72.82167,0,0,0,9.51575,2.26227,2.31642,2.31642,0,0,1,1.77163,1.72087l1.53323,8.07635a1.89417,1.89417,0,0,0,1.7903,1.48246l17.77675-.00028a1.89348,1.89348,0,0,0,1.79031-1.48247l1.5328-8.07592a2.31406,2.31406,0,0,1,1.77034-1.72058,72.82858,72.82858,0,0,0,9.5149-2.262,4.49618,4.49618,0,0,1,2.80438.167l12.25625,5.67777a3.25752,3.25752,0,0,0,2.67548-.1202l12.09071-6.97986a.99478.99478,0,0,0,.56407-.80262l.00128.00043.02938-10.51157-.005-.00057a1.01473,1.01473,0,0,0-.47924-.80276l-5.5617-4.0021a2.68936,2.68936,0,0,1,1.37168-.56977l16.11163-1.01892a1.6291,1.6291,0,0,0,1.506-1.60409l.02053-10.43814c.00043-.01511.00841-.028.00841-.04292l-.00028-8.98847a1.62786,1.62786,0,0,0-1.50571-1.60394l-16.11177-1.01935a2.70423,2.70423,0,0,1-1.39848-.59216l5.53147-3.97957a1.01529,1.01529,0,0,0,.47923-.803l.00471.002.02909-10.49417-.00371-.002A.98552.98552,0,0,0,880.16241,485.478ZM798.543,512.633c.86821-2.89606,3.45343-5.73081,7.86646-8.27854,11.28082-6.5126,29.5696-6.51289,40.85113.00043,4.13741,2.3886,6.83457,5.01674,8.054,7.70762-.96131,3.30072-3.63922,6.467-8.05039,9.014-11.28068,6.51261-29.57117,6.51333-40.85156.00043C802.25593,518.67723,799.63634,515.72713,798.543,512.633Z"/><path class="cls-12" d="M779.76786,517.84753a2.975,2.975,0,0,0-2.17729-1.449L761.4768,515.3835a1.622,1.622,0,0,1-1.49829-1.605l-.00513-2.12638-.02824,12.60131a1.64034,1.64034,0,0,0,1.50856,1.61036l16.11363,1.0155a2.68974,2.68974,0,0,1,1.41616.58418l4.03318-2.90448a1.27528,1.27528,0,0,0,.17653-1.96654A24.42958,24.42958,0,0,1,779.76786,517.84753Zm-6.852-21.06692.01.00613a.99966.99966,0,0,0,.47795.80989l5.56356,4.00709a2.78063,2.78063,0,0,0,.79734-.88247,24.594,24.594,0,0,1,3.42634-4.74839,1.27534,1.27534,0,0,0-.1798-1.96654l-9.58434-6.89a1.21485,1.21485,0,0,1-.48394-.70409Z"/><path class="cls-12" d="M847.261,497.49582c-11.28154-6.51332-29.5656-6.52116-40.84785-.0067-7.13043,4.11659-9.75487,9.84855-7.87274,15.15459.84867-2.89378,3.4483-5.73566,7.87017-8.29251,11.28225-6.51446,29.56632-6.50676,40.84785.00671,4.13043,2.3846,6.83813,5.003,8.0638,7.69692C856.82125,506.91975,854.12452,501.45871,847.261,497.49582Z"/><path class="cls-10" d="M893.68938,513.98573a1.66188,1.66188,0,0,1-1.49244,1.39877l-16.10778,1.01535a2.17479,2.17479,0,0,0-.8106.21716l-.01882,10.497a2.2718,2.2718,0,0,1,.79006-.229l16.11363-1.02619a1.621,1.621,0,0,0,1.50984-1.59439Zm-12.96019-27.6896-.01055-.006a.63907.63907,0,0,1-.06174.32068.65163.65163,0,0,1-.19421.3124,1.24677,1.24677,0,0,1-.21844.18907l-9.58276,6.8926a.96033.96033,0,0,0-.23057.2096,1.24908,1.24908,0,0,0-.30142.593,1.2832,1.2832,0,0,0-.01326.40309,1.72059,1.72059,0,0,0,.04591.20489,1.52491,1.52491,0,0,0,.32281.55623,1.72771,1.72771,0,0,1,.17866.2126,23.99941,23.99941,0,0,1,3.24654,4.53237,3.11955,3.11955,0,0,0,.76141.86407l5.54359-3.97786a1.03788,1.03788,0,0,0,.47881-.80575l.01026.00585Zm-.00072,46.05751a1.068,1.068,0,0,1-.56535.742l-12.09655,6.97572a3.18259,3.18259,0,0,1-1.87472.32852l-.0174,10.47022a3.162,3.162,0,0,0,1.86887-.31811l12.08629-6.98171a.9815.9815,0,0,0,.56849-.7952Zm-78.98628,1.86588a3.91338,3.91338,0,0,0-1.20813.28873l-12.25269,5.68048a2.55,2.55,0,0,1-1.09278.232l-.02752,10.46409a3.01122,3.01122,0,0,0,1.0972-.21588l12.25269-5.68005a3.86526,3.86526,0,0,1,1.202-.27861ZM837.2204,547.086a1.86448,1.86448,0,0,1-1.48845.79819l-17.78531.00628a1.80542,1.80542,0,0,1-1.08721-.395l-.01284,10.48634a1.85178,1.85178,0,0,0,1.07681.38911l17.76933-.00185a1.90479,1.90479,0,0,0,1.558-.89515Z"/><path class="cls-13" d="M893.68938,513.98573a1.66188,1.66188,0,0,1-1.49244,1.39877l-16.10778,1.01535a2.17479,2.17479,0,0,0-.8106.21716l-.01882,10.497a2.2718,2.2718,0,0,1,.79006-.229l16.11363-1.02619a1.621,1.621,0,0,0,1.50984-1.59439Zm-12.96019-27.6896-.01055-.006a.63907.63907,0,0,1-.06174.32068.65163.65163,0,0,1-.19421.3124,1.24677,1.24677,0,0,1-.21844.18907l-9.58276,6.8926a.96033.96033,0,0,0-.23057.2096,1.24908,1.24908,0,0,0-.30142.593,1.2832,1.2832,0,0,0-.01326.40309,1.72059,1.72059,0,0,0,.04591.20489,1.52491,1.52491,0,0,0,.32281.55623,1.72771,1.72771,0,0,1,.17866.2126,23.99941,23.99941,0,0,1,3.24654,4.53237,3.11955,3.11955,0,0,0,.76141.86407l5.54359-3.97786a1.03788,1.03788,0,0,0,.47881-.80575l.01026.00585Zm-.00072,46.05751a1.068,1.068,0,0,1-.56535.742l-12.09655,6.97572a3.18259,3.18259,0,0,1-1.87472.32852l-.0174,10.47022a3.162,3.162,0,0,0,1.86887-.31811l12.08629-6.98171a.9815.9815,0,0,0,.56849-.7952Zm-78.98628,1.86588a3.91338,3.91338,0,0,0-1.20813.28873l-12.25269,5.68048a2.55,2.55,0,0,1-1.09278.232l-.02752,10.46409a3.01122,3.01122,0,0,0,1.0972-.21588l12.25269-5.68005a3.86526,3.86526,0,0,1,1.202-.27861ZM837.2204,547.086a1.86448,1.86448,0,0,1-1.48845.79819l-17.78531.00628a1.80542,1.80542,0,0,1-1.08721-.395l-.01284,10.48634a1.85178,1.85178,0,0,0,1.07681.38911l17.76933-.00185a1.90479,1.90479,0,0,0,1.558-.89515Z"/><path class="cls-10" d="M865.39579,478.37691l-12.25568,5.67777a4.49246,4.49246,0,0,1-2.80281.168,72.729,72.729,0,0,0-9.51518-2.262,2.31681,2.31681,0,0,1-1.77177-1.72086l-1.53323-8.07649a1.89293,1.89293,0,0,0-1.78988-1.482l-17.777.00014a1.89351,1.89351,0,0,0-1.79017,1.48247l-1.53394,8.07634a2.31587,2.31587,0,0,1-1.77163,1.72059,72.70655,72.70655,0,0,0-9.51275,2.26127,4.4923,4.4923,0,0,1-2.8041-.16683l-12.25639-5.678a3.26017,3.26017,0,0,0-2.67562.1202L773.515,485.478a.9008.9008,0,0,0-.08185,1.63532l9.58206,6.89474a1.27729,1.27729,0,0,1,.178,1.96654,24.11027,24.11027,0,0,0-3.42206,4.74512,2.97647,2.97647,0,0,1-2.17729,1.44624l-16.1112,1.02035a1.629,1.629,0,0,0-1.506,1.60409l-.00043,8.98818a1.62836,1.62836,0,0,0,1.5057,1.60381l16.11149,1.01963a2.97544,2.97544,0,0,1,2.177,1.44539,24.11146,24.11146,0,0,0,3.42206,4.74526,1.27817,1.27817,0,0,1-.17752,1.9674l-9.58177,6.89417a.90087.90087,0,0,0,.08185,1.63531l12.09042,6.98058a3.25867,3.25867,0,0,0,2.67548.12006l12.25569-5.67791a4.49238,4.49238,0,0,1,2.80281-.16754,72.72236,72.72236,0,0,0,9.51475,2.26255,2.31664,2.31664,0,0,1,1.77163,1.72087l1.53322,8.0762a1.89369,1.89369,0,0,0,1.78988,1.48247l17.77789.00014a1.893,1.893,0,0,0,1.79017-1.48189l1.53322-8.07706a2.3152,2.3152,0,0,1,1.77078-1.72073,72.806,72.806,0,0,0,9.51461-2.26184,4.49608,4.49608,0,0,1,2.80466.16711l12.256,5.67763a3.25725,3.25725,0,0,0,2.67534-.12006l12.09014-6.98072a.90107.90107,0,0,0,.08212-1.63546l-9.58162-6.89445a1.2765,1.2765,0,0,1-.178-1.96612,24.06941,24.06941,0,0,0,3.42135-4.74525,2.97553,2.97553,0,0,1,2.17686-1.44611l16.1122-1.01992a1.62852,1.62852,0,0,0,1.5057-1.60409l-.00028-8.98847a1.62775,1.62775,0,0,0-1.50571-1.60394l-16.11177-1.01935a2.97328,2.97328,0,0,1-2.17629-1.44539,24.11839,24.11839,0,0,0-3.42106-4.74583,1.27822,1.27822,0,0,1,.17738-1.96754l9.58191-6.894a.901.901,0,0,0-.08213-1.63546l-12.09114-6.98072A3.257,3.257,0,0,0,865.39579,478.37691ZM847.26415,497.4914c11.28053,6.51289,11.28025,17.072,0,23.58512-11.28068,6.51261-29.57117,6.51333-40.85156.00043-11.28025-6.51261-11.28011-17.07308.00057-23.586C817.694,490.97865,835.98318,490.97836,847.26415,497.4914Z"/><path class="cls-14" d="M865.39579,478.37691l-12.25568,5.67777a4.49246,4.49246,0,0,1-2.80281.168,72.729,72.729,0,0,0-9.51518-2.262,2.31681,2.31681,0,0,1-1.77177-1.72086l-1.53323-8.07649a1.89293,1.89293,0,0,0-1.78988-1.482l-17.777.00014a1.89351,1.89351,0,0,0-1.79017,1.48247l-1.53394,8.07634a2.31587,2.31587,0,0,1-1.77163,1.72059,72.70655,72.70655,0,0,0-9.51275,2.26127,4.4923,4.4923,0,0,1-2.8041-.16683l-12.25639-5.678a3.26017,3.26017,0,0,0-2.67562.1202L773.515,485.478a.9008.9008,0,0,0-.08185,1.63532l9.58206,6.89474a1.27729,1.27729,0,0,1,.178,1.96654,24.11027,24.11027,0,0,0-3.42206,4.74512,2.97647,2.97647,0,0,1-2.17729,1.44624l-16.1112,1.02035a1.629,1.629,0,0,0-1.506,1.60409l-.00043,8.98818a1.62836,1.62836,0,0,0,1.5057,1.60381l16.11149,1.01963a2.97544,2.97544,0,0,1,2.177,1.44539,24.11146,24.11146,0,0,0,3.42206,4.74526,1.27817,1.27817,0,0,1-.17752,1.9674l-9.58177,6.89417a.90087.90087,0,0,0,.08185,1.63531l12.09042,6.98058a3.25867,3.25867,0,0,0,2.67548.12006l12.25569-5.67791a4.49238,4.49238,0,0,1,2.80281-.16754,72.72236,72.72236,0,0,0,9.51475,2.26255,2.31664,2.31664,0,0,1,1.77163,1.72087l1.53322,8.0762a1.89369,1.89369,0,0,0,1.78988,1.48247l17.77789.00014a1.893,1.893,0,0,0,1.79017-1.48189l1.53322-8.07706a2.3152,2.3152,0,0,1,1.77078-1.72073,72.806,72.806,0,0,0,9.51461-2.26184,4.49608,4.49608,0,0,1,2.80466.16711l12.256,5.67763a3.25725,3.25725,0,0,0,2.67534-.12006l12.09014-6.98072a.90107.90107,0,0,0,.08212-1.63546l-9.58162-6.89445a1.2765,1.2765,0,0,1-.178-1.96612,24.06941,24.06941,0,0,0,3.42135-4.74525,2.97553,2.97553,0,0,1,2.17686-1.44611l16.1122-1.01992a1.62852,1.62852,0,0,0,1.5057-1.60409l-.00028-8.98847a1.62775,1.62775,0,0,0-1.50571-1.60394l-16.11177-1.01935a2.97328,2.97328,0,0,1-2.17629-1.44539,24.11839,24.11839,0,0,0-3.42106-4.74583,1.27822,1.27822,0,0,1,.17738-1.96754l9.58191-6.894a.901.901,0,0,0-.08213-1.63546l-12.09114-6.98072A3.257,3.257,0,0,0,865.39579,478.37691ZM847.26415,497.4914c11.28053,6.51289,11.28025,17.072,0,23.58512-11.28068,6.51261-29.57117,6.51333-40.85156.00043-11.28025-6.51261-11.28011-17.07308.00057-23.586C817.694,490.97865,835.98318,490.97836,847.26415,497.4914Z"/><path class="cls-9" d="M712.72784,600.37821l-11.35354-1.184a5.98673,5.98673,0,0,1-5.32815-6.68329l.34449-2.82861c-1.2944-.43945-2.54673-.91826-3.73076-1.434a3.17726,3.17726,0,0,0-.88674-.09739l-8.66993,2.71555a7.14739,7.14739,0,0,1-2.15747.321,8.12122,8.12122,0,0,1-5.05994-1.74454l-5.68847-4.73613a5.22391,5.22391,0,0,1,1.01821-8.87782l5.39388-2.70742c-.02638-.07628-.05005-.15271-.07614-.23142l-9.004-1.53935a5.725,5.725,0,0,1-4.53623-7.41732l1.54435-4.92563a6.84908,6.84908,0,0,1,6.58076-4.64673c.00528,0,10.01167.41849,10.01167.41849a1.46966,1.46966,0,0,0,.4289-.19491c.31568-.321.64463-.63922.98156-.95248l-2.38931-2.5443a5.28464,5.28464,0,0,1,1.926-8.7013l8.91717-3.57078a7.52249,7.52249,0,0,1,2.81008-.51559,8.06353,8.06353,0,0,1,4.42316,1.26046l5.92287,3.93623a2.24373,2.24373,0,0,0,.742.15271c1.976-.34478,4.03076-.60015,5.90163-.74487l2.07862-4.04417a7.14094,7.14094,0,0,1,6.23085-3.76512l.44986.01312,11.35369,1.184a5.98574,5.98574,0,0,1,5.32814,6.68072l-.34463,2.83119c1.29454.43944,2.54687.92081,3.731,1.43384a3.17941,3.17941,0,0,0,.8866.09753l8.66993-2.71541a7.1396,7.1396,0,0,1,2.15747-.321,8.1279,8.1279,0,0,1,5.05723,1.74155l5.69146,4.73884a5.22617,5.22617,0,0,1-1.02106,8.87782l-5.394,2.70756c.02638.07614.05275.15257.07628.22885l9.00672,1.54192a5.728,5.728,0,0,1,4.53608,7.41732l-1.54449,4.92549a6.85188,6.85188,0,0,1-6.58318,4.64673l-10.00383-.42092a1.67573,1.67573,0,0,0-.43431.19207c-.31312.321-.64193.64206-.984.95789l2.39445,2.5443a5.28909,5.28909,0,0,1-1.92862,8.7013l-8.91732,3.56793a7.45686,7.45686,0,0,1-2.80994.51844,8.06653,8.06653,0,0,1-4.42315-1.26046l-5.92288-3.93623a2.24508,2.24508,0,0,0-.742-.1527c-1.976.34477-4.03091.6-5.90448.74486l-2.07591,4.044a7.14123,7.14123,0,0,1-6.23329,3.76513Zm-7.22525-38.98939c-3.72563,1.492-6.2464,3.74188-6.58319,5.873-.28674,1.80257,1.09463,3.37857,2.305,4.38366C704.4503,574.33191,710.17313,576,716.15632,576a28.8678,28.8678,0,0,0,10.62236-1.90494c3.72562-1.49174,6.249-3.7416,6.58319-5.87283.28674-1.79986-1.09449-3.37572-2.30234-4.38095-3.23114-2.68646-8.954-4.35728-14.94-4.35728A28.88449,28.88449,0,0,0,705.50259,561.38882Z"/><path class="cls-10" d="M733.37841,541.07362a2.429,2.429,0,0,1-1.66812-2.51721l.51232-4.234a1.94389,1.94389,0,0,0-1.73385-2.17429l-11.14494-1.1635a3.11754,3.11754,0,0,0-2.878,1.5579l-2.21963,4.32477a3.89838,3.89838,0,0,1-2.88608,1.88227c-1.94188.14658-3.87278.38413-5.77359.71635a5.68562,5.68562,0,0,1-3.59944-.72034l-5.99744-3.983a4.22514,4.22514,0,0,0-3.4925-.36l-8.918,3.57149a1.3068,1.3068,0,0,0-.91911,1.14111l-.0077-.00613v.10466c.00043.004-.00028.00813,0,.01212l-.00513,9.10867.008-.00285a1.46015,1.46015,0,0,0,.43931,1.00366l.5173.55038a4.69185,4.69185,0,0,1-2.454.76055l-10.19-.4105a2.73,2.73,0,0,0-2.57411,1.81226l-1.54349,4.9272a1.80436,1.80436,0,0,0-.06145.60827l-.02681-.00442-.00143,9.20021.00927-.001a1.67084,1.67084,0,0,0,1.44,1.60324l7.89555,1.35114-3.076,1.54392a1.276,1.276,0,0,0-.803,1.11688l-.01013-.00585-.002,9.215.01069-.00542a1.37837,1.37837,0,0,0,.55438,1.01692l5.69217,4.73742a4.05288,4.05288,0,0,0,3.41621.67571l8.67407-2.71911a6.10777,6.10777,0,0,1,3.69055.24111,45.42212,45.42212,0,0,0,4.6483,1.71317,2.3797,2.3797,0,0,1,1.143.80518l-.00156,6.21332.00912.00257a1.93677,1.93677,0,0,0,1.73926,1.90409l11.14466,1.1635a3.11671,3.11671,0,0,0,2.87781-1.55789l2.21977-4.32477a3.89969,3.89969,0,0,1,2.88622-1.88228c1.94145-.14658,3.87278-.38441,5.77345-.71606a5.69013,5.69013,0,0,1,3.59886.72091l5.99774,3.98314a4.228,4.228,0,0,0,3.49235.35974l8.9186-3.57206a1.29752,1.29752,0,0,0,.923-1.189l.00642.00684.00214-9.18609-.00628-.00271a1.46987,1.46987,0,0,0-.44059-.9904l-.51758-.55038a4.69525,4.69525,0,0,1,2.45433-.76084l10.18961.4115a2.73046,2.73046,0,0,0,2.57424-1.81255l1.54407-4.92791a1.86694,1.86694,0,0,0,.07856-.55994l.00955-.00142.002-9.15872-.03536.0184a1.65126,1.65126,0,0,0-1.41431-1.704l-7.8964-1.35114,3.07614-1.54378a1.26915,1.26915,0,0,0,.80219-1.135l.011.00713.002-9.15287-.00927.004a1.36048,1.36048,0,0,0-.55552-1.06027l-5.69231-4.73784a4.05542,4.05542,0,0,0-3.41636-.67586L741.7154,543.028a6.106,6.106,0,0,1-3.68927-.24125A45.31874,45.31874,0,0,0,733.37841,541.07362Zm-36.99034,23.08893a16.56882,16.56882,0,0,1,7.6091-5.51023c9.66646-3.87121,22.93835-2.48485,29.64345,3.09625a12.92093,12.92093,0,0,1,2.269,2.39886,16.53764,16.53764,0,0,1-7.62849,5.53533c-9.66589,3.87206-22.93821,2.486-29.64331-3.09483A12.34968,12.34968,0,0,1,696.38807,564.16255Z"/><path class="cls-11" d="M733.37841,541.07362a2.429,2.429,0,0,1-1.66812-2.51721l.51232-4.234a1.94389,1.94389,0,0,0-1.73385-2.17429l-11.14494-1.1635a3.11754,3.11754,0,0,0-2.878,1.5579l-2.21963,4.32477a3.89838,3.89838,0,0,1-2.88608,1.88227c-1.94188.14658-3.87278.38413-5.77359.71635a5.68562,5.68562,0,0,1-3.59944-.72034l-5.99744-3.983a4.22514,4.22514,0,0,0-3.4925-.36l-8.918,3.57149a1.3068,1.3068,0,0,0-.91911,1.14111l-.0077-.00613v.10466c.00043.004-.00028.00813,0,.01212l-.00513,9.10867.008-.00285a1.46015,1.46015,0,0,0,.43931,1.00366l.5173.55038a4.69185,4.69185,0,0,1-2.454.76055l-10.19-.4105a2.73,2.73,0,0,0-2.57411,1.81226l-1.54349,4.9272a1.80436,1.80436,0,0,0-.06145.60827l-.02681-.00442-.00143,9.20021.00927-.001a1.67084,1.67084,0,0,0,1.44,1.60324l7.89555,1.35114-3.076,1.54392a1.276,1.276,0,0,0-.803,1.11688l-.01013-.00585-.002,9.215.01069-.00542a1.37837,1.37837,0,0,0,.55438,1.01692l5.69217,4.73742a4.05288,4.05288,0,0,0,3.41621.67571l8.67407-2.71911a6.10777,6.10777,0,0,1,3.69055.24111,45.42212,45.42212,0,0,0,4.6483,1.71317,2.3797,2.3797,0,0,1,1.143.80518l-.00156,6.21332.00912.00257a1.93677,1.93677,0,0,0,1.73926,1.90409l11.14466,1.1635a3.11671,3.11671,0,0,0,2.87781-1.55789l2.21977-4.32477a3.89969,3.89969,0,0,1,2.88622-1.88228c1.94145-.14658,3.87278-.38441,5.77345-.71606a5.69013,5.69013,0,0,1,3.59886.72091l5.99774,3.98314a4.228,4.228,0,0,0,3.49235.35974l8.9186-3.57206a1.29752,1.29752,0,0,0,.923-1.189l.00642.00684.00214-9.18609-.00628-.00271a1.46987,1.46987,0,0,0-.44059-.9904l-.51758-.55038a4.69525,4.69525,0,0,1,2.45433-.76084l10.18961.4115a2.73046,2.73046,0,0,0,2.57424-1.81255l1.54407-4.92791a1.86694,1.86694,0,0,0,.07856-.55994l.00955-.00142.002-9.15872-.03536.0184a1.65126,1.65126,0,0,0-1.41431-1.704l-7.8964-1.35114,3.07614-1.54378a1.26915,1.26915,0,0,0,.80219-1.135l.011.00713.002-9.15287-.00927.004a1.36048,1.36048,0,0,0-.55552-1.06027l-5.69231-4.73784a4.05542,4.05542,0,0,0-3.41636-.67586L741.7154,543.028a6.106,6.106,0,0,1-3.68927-.24125A45.31874,45.31874,0,0,0,733.37841,541.07362Zm-36.99034,23.08893a16.56882,16.56882,0,0,1,7.6091-5.51023c9.66646-3.87121,22.93835-2.48485,29.64345,3.09625a12.92093,12.92093,0,0,1,2.269,2.39886,16.53764,16.53764,0,0,1-7.62849,5.53533c-9.66589,3.87206-22.93821,2.486-29.64331-3.09483A12.34968,12.34968,0,0,1,696.38807,564.16255Z"/><path class="cls-12" d="M680.275,563.12751a3.344,3.344,0,0,0-2.36507-2.26568l-9.70169-1.65842a1.66489,1.66489,0,0,1-1.432-1.51084l-.008,9.08814a1.67629,1.67629,0,0,0,1.434,1.60195l7.89669,1.35414,4.08395-2.053a1.92548,1.92548,0,0,0,.81459-2.62686A13.1154,13.1154,0,0,1,680.275,563.12751Zm2.36935-14.80041.0134.00785a1.50531,1.50531,0,0,0,.4289,1.00366l.52514.55566a3.98288,3.98288,0,0,0,.84254-.64834,21.25491,21.25491,0,0,1,2.44278-2.17258,1.72668,1.72668,0,0,0,.24767-2.61189l-4.05214-4.302a1.42661,1.42661,0,0,1-.4366-.99026Z"/><path class="cls-12" d="M704.00059,549.47606c-8.33885,3.34179-11.27868,9.49422-7.60225,14.696a16.44785,16.44785,0,0,1,7.5964-5.51693c9.67-3.86964,22.9375-2.49354,29.65087,3.093a12.51867,12.51867,0,0,1,2.25215,2.39872c2.58294-3.6944,1.98522-8.05425-2.24616-11.57754C726.93809,546.98266,713.6709,545.60671,704.00059,549.47606Z"/><path class="cls-10" d="M718.9664,581.21681a3.222,3.222,0,0,0-.92339,1.06925l-2.22975,4.33019a3.11225,3.11225,0,0,1-1.64074,1.37524l-.00613,9.17925a3.02773,3.02773,0,0,0,1.64045-1.37567l2.23-4.3299a3.2728,3.2728,0,0,1,.95048-1.05371Zm30.66408-1.21925-.01354-.0077a1.28311,1.28311,0,0,1-.92424,1.195l-8.90463,3.57292a4.045,4.045,0,0,1-2.33841.09025l-.00642,9.17925a4.16979,4.16979,0,0,0,2.3387-.0904l8.9263-3.5789a1.28272,1.28272,0,0,0,.91625-1.18161Zm-59.17655-3.84526-8.55857,2.69245a3.86433,3.86433,0,0,1-2.15632-.03821l-.01184,9.15743a3.89169,3.89169,0,0,0,2.16189.06l8.57226-2.685Zm75.067-14.50953a2.482,2.482,0,0,1-.0951.53869l-1.53251,4.93119a2.72676,2.72676,0,0,1-2.57453,1.80827L751.1302,568.512a4.11994,4.11994,0,0,0-1.59111.32367l-.00628,9.17925a4.11265,4.11265,0,0,1,1.59155-.32381L761.313,578.1a2.749,2.749,0,0,0,2.57439-1.80856l1.53251-4.93076a1.45046,1.45046,0,0,0,.08969-.56065ZM760.077,546.77848a1.03139,1.03139,0,0,1-.07486.31682,1.00135,1.00135,0,0,1-.3077.4704,2.0433,2.0433,0,0,1-.45157.31511l-7.153,3.59473a1.334,1.334,0,0,0-.4309.30927,1.72533,1.72533,0,0,0-.48479.7463,1.88818,1.88818,0,0,0-.10594.71335,3.6322,3.6322,0,0,0,.04135.36545,4.09362,4.09362,0,0,0,.166.49221,13.027,13.027,0,0,1,.73,1.91592,3.33266,3.33266,0,0,0,2.37063,2.28694l1.79173.29629,3.08214-1.53351a1.3082,1.3082,0,0,0,.8019-1.13969l.01355.008Z"/><path class="cls-13" d="M718.9664,581.21681a3.222,3.222,0,0,0-.92339,1.06925l-2.22975,4.33019a3.11225,3.11225,0,0,1-1.64074,1.37524l-.00613,9.17925a3.02773,3.02773,0,0,0,1.64045-1.37567l2.23-4.3299a3.2728,3.2728,0,0,1,.95048-1.05371Zm30.66408-1.21925-.01354-.0077a1.28311,1.28311,0,0,1-.92424,1.195l-8.90463,3.57292a4.045,4.045,0,0,1-2.33841.09025l-.00642,9.17925a4.16979,4.16979,0,0,0,2.3387-.0904l8.9263-3.5789a1.28272,1.28272,0,0,0,.91625-1.18161Zm-59.17655-3.84526-8.55857,2.69245a3.86433,3.86433,0,0,1-2.15632-.03821l-.01184,9.15743a3.89169,3.89169,0,0,0,2.16189.06l8.57226-2.685Zm75.067-14.50953a2.482,2.482,0,0,1-.0951.53869l-1.53251,4.93119a2.72676,2.72676,0,0,1-2.57453,1.80827L751.1302,568.512a4.11994,4.11994,0,0,0-1.59111.32367l-.00628,9.17925a4.11265,4.11265,0,0,1,1.59155-.32381L761.313,578.1a2.749,2.749,0,0,0,2.57439-1.80856l1.53251-4.93076a1.45046,1.45046,0,0,0,.08969-.56065ZM760.077,546.77848a1.03139,1.03139,0,0,1-.07486.31682,1.00135,1.00135,0,0,1-.3077.4704,2.0433,2.0433,0,0,1-.45157.31511l-7.153,3.59473a1.334,1.334,0,0,0-.4309.30927,1.72533,1.72533,0,0,0-.48479.7463,1.88818,1.88818,0,0,0-.10594.71335,3.6322,3.6322,0,0,0,.04135.36545,4.09362,4.09362,0,0,0,.166.49221,13.027,13.027,0,0,1,.73,1.91592,3.33266,3.33266,0,0,0,2.37063,2.28694l1.79173.29629,3.08214-1.53351a1.3082,1.3082,0,0,0,.8019-1.13969l.01355.008Z"/><path class="cls-10" d="M750.39089,540.30922,741.7154,543.028a6.10616,6.10616,0,0,1-3.68927-.24125,45.25067,45.25067,0,0,0-4.64772-1.71317,2.42854,2.42854,0,0,1-1.66812-2.51721l.51232-4.234a1.94346,1.94346,0,0,0-1.73385-2.174l-11.14522-1.16379a3.11681,3.11681,0,0,0-2.87767,1.55818l-2.21963,4.32434a3.89814,3.89814,0,0,1-2.88608,1.88242c-1.94188.14658-3.87278.38413-5.77359.71635a5.68487,5.68487,0,0,1-3.59944-.72062l-5.99716-3.983a4.22691,4.22691,0,0,0-3.49278-.35974l-8.91817,3.57149a1.25949,1.25949,0,0,0-.48266,2.18213l4.046,4.30381a1.71752,1.71752,0,0,1-.24839,2.60818,24.09247,24.09247,0,0,0-2.44007,2.17515,4.96681,4.96681,0,0,1-3.29615,1.40319l-10.19-.41079a2.7302,2.7302,0,0,0-2.57425,1.81255l-1.54349,4.9272a1.686,1.686,0,0,0,1.36155,2.22647l9.69242,1.65871a3.314,3.314,0,0,1,2.36635,2.271,13.68092,13.68092,0,0,0,.731,1.92648,1.94058,1.94058,0,0,1-.818,2.62728l-7.1541,3.59117a1.20207,1.20207,0,0,0-.2481,2.15818l5.69231,4.7377a4.05376,4.05376,0,0,0,3.41608.67543l8.67463-2.719a6.106,6.106,0,0,1,3.69027.24111,45.395,45.395,0,0,0,4.64815,1.71289,2.43,2.43,0,0,1,1.668,2.51792l-.51216,4.233a1.944,1.944,0,0,0,1.73384,2.17457l11.14522,1.1635a3.11721,3.11721,0,0,0,2.87767-1.55817l2.21992-4.32435a3.89861,3.89861,0,0,1,2.88551-1.8827c1.94216-.14629,3.87334-.38413,5.77373-.71593a5.68594,5.68594,0,0,1,3.599.72106l5.99773,3.98285a4.22465,4.22465,0,0,0,3.49207.35975l8.91874-3.57206a1.25913,1.25913,0,0,0,.48251-2.18185l-4.0463-4.30381a1.71724,1.71724,0,0,1,.24853-2.608,24.21143,24.21143,0,0,0,2.44036-2.17572,4.96721,4.96721,0,0,1,3.29629-1.4029l10.18976.41122a2.72941,2.72941,0,0,0,2.57382-1.81213l1.54406-4.928a1.68573,1.68573,0,0,0-1.36141-2.22648l-9.69356-1.6587a3.3128,3.3128,0,0,1-2.36621-2.271,13.7142,13.7142,0,0,0-.73032-1.92677,1.94055,1.94055,0,0,1,.8173-2.62743l7.15439-3.59059a1.2015,1.2015,0,0,0,.24852-2.15747l-5.69245-4.73784A4.05294,4.05294,0,0,0,750.39089,540.30922ZM733.64305,552.569c6.70509,5.5811,4.30466,13.24281-5.36195,17.11373-9.66589,3.87192-22.93821,2.486-29.64331-3.09469-6.70552-5.58081-4.30523-13.24408,5.36123-17.11529C713.66548,545.60172,726.93766,546.98794,733.64305,552.569Z"/><path class="cls-15" d="M750.39089,540.30922,741.7154,543.028a6.10616,6.10616,0,0,1-3.68927-.24125,45.25067,45.25067,0,0,0-4.64772-1.71317,2.42854,2.42854,0,0,1-1.66812-2.51721l.51232-4.234a1.94346,1.94346,0,0,0-1.73385-2.174l-11.14522-1.16379a3.11681,3.11681,0,0,0-2.87767,1.55818l-2.21963,4.32434a3.89814,3.89814,0,0,1-2.88608,1.88242c-1.94188.14658-3.87278.38413-5.77359.71635a5.68487,5.68487,0,0,1-3.59944-.72062l-5.99716-3.983a4.22691,4.22691,0,0,0-3.49278-.35974l-8.91817,3.57149a1.25949,1.25949,0,0,0-.48266,2.18213l4.046,4.30381a1.71752,1.71752,0,0,1-.24839,2.60818,24.09247,24.09247,0,0,0-2.44007,2.17515,4.96681,4.96681,0,0,1-3.29615,1.40319l-10.19-.41079a2.7302,2.7302,0,0,0-2.57425,1.81255l-1.54349,4.9272a1.686,1.686,0,0,0,1.36155,2.22647l9.69242,1.65871a3.314,3.314,0,0,1,2.36635,2.271,13.68092,13.68092,0,0,0,.731,1.92648,1.94058,1.94058,0,0,1-.818,2.62728l-7.1541,3.59117a1.20207,1.20207,0,0,0-.2481,2.15818l5.69231,4.7377a4.05376,4.05376,0,0,0,3.41608.67543l8.67463-2.719a6.106,6.106,0,0,1,3.69027.24111,45.395,45.395,0,0,0,4.64815,1.71289,2.43,2.43,0,0,1,1.668,2.51792l-.51216,4.233a1.944,1.944,0,0,0,1.73384,2.17457l11.14522,1.1635a3.11721,3.11721,0,0,0,2.87767-1.55817l2.21992-4.32435a3.89861,3.89861,0,0,1,2.88551-1.8827c1.94216-.14629,3.87334-.38413,5.77373-.71593a5.68594,5.68594,0,0,1,3.599.72106l5.99773,3.98285a4.22465,4.22465,0,0,0,3.49207.35975l8.91874-3.57206a1.25913,1.25913,0,0,0,.48251-2.18185l-4.0463-4.30381a1.71724,1.71724,0,0,1,.24853-2.608,24.21143,24.21143,0,0,0,2.44036-2.17572,4.96721,4.96721,0,0,1,3.29629-1.4029l10.18976.41122a2.72941,2.72941,0,0,0,2.57382-1.81213l1.54406-4.928a1.68573,1.68573,0,0,0-1.36141-2.22648l-9.69356-1.6587a3.3128,3.3128,0,0,1-2.36621-2.271,13.7142,13.7142,0,0,0-.73032-1.92677,1.94055,1.94055,0,0,1,.8173-2.62743l7.15439-3.59059a1.2015,1.2015,0,0,0,.24852-2.15747l-5.69245-4.73784A4.05294,4.05294,0,0,0,750.39089,540.30922ZM733.64305,552.569c6.70509,5.5811,4.30466,13.24281-5.36195,17.11373-9.66589,3.87192-22.93821,2.486-29.64331-3.09469-6.70552-5.58081-4.30523-13.24408,5.36123-17.11529C713.66548,545.60172,726.93766,546.98794,733.64305,552.569Z"/></g><g id="Flag"><path class="cls-5" d="M840.185,28.89841l-.07015,65.556c-.01454.68385,1.76251.71792,1.78874.01312l.06987-65.384Z"/><path class="cls-4" d="M842.26109,29.24347a1.20336,1.20336,0,1,1-.92481-1.42871A1.20323,1.20323,0,0,1,842.26109,29.24347Z"/><path class="cls-10" d="M840.17606,29.75535c-5.508,6.56779-13.31809,3.63609-19.75983,3.251-6.97986-.41735-11.2265,1.83537-13.34233,4.89754,2.01431-.53584,7.66927-.02695,9.452,1.45038,0,0-7.1119,4.64844-7.12017,12.2641,2.06921-3.22615,5.66907-5.65624,12.6361-4.22454,6.11907,1.25747,13.86519,4.07226,18.11382-.63821Z"/><path class="cls-12" d="M833.37671,46.76756c-5.623,1.705-20.95014-5.76931-23.971,4.85077,2.06921-3.22615,5.66907-5.65624,12.6361-4.22454,6.11907,1.25747,13.86519,4.07226,18.11382-.63821l.02039-17.00023C840.15182,36.44634,838.99973,45.06251,833.37671,46.76756Z"/><path class="cls-16" d="M828.7739,36.22176l.96616,2.94041,3.06745.41364a.20649.20649,0,0,1,.09425.37129l-2.49782,1.82753.55452,3.04506a.20649.20649,0,0,1-.324.20447l-2.51008-1.81084-2.72453,1.46835a.20654.20654,0,0,1-.29458-.245l.94648-2.94683-2.23831-2.1375a.20643.20643,0,0,1,.14187-.35575l3.095-.01041,1.34131-2.78941A.20653.20653,0,0,1,828.7739,36.22176Z"/></g><g id="Flag-2" data-name="Flag"><path class="cls-4" d="M780.373,82.32362l-.09254,86.38464c-.0191.90114,2.32258.94605,2.35723.01725l.09211-86.15821Z"/><path class="cls-4" d="M783.10878,82.77818a1.58575,1.58575,0,1,1-1.21868-1.88256A1.58577,1.58577,0,0,1,783.10878,82.77818Z"/><path class="cls-10" d="M780.3613,83.45276c-7.25819,8.65467-17.54975,4.79131-26.03817,4.28385-9.1975-.54982-14.79357,2.41839-17.58141,6.45357,2.65424-.70608,10.10592-.0355,12.455,1.91122,0,0-9.3716,6.12535-9.38244,16.16068,2.72682-4.25119,7.47036-7.45324,16.651-5.56655,8.06323,1.65685,18.27052,5.36594,23.86887-.84125Z"/><path class="cls-12" d="M771.40149,105.8701c-7.40962,2.24687-27.60662-7.60225-31.58719,6.392,2.72682-4.25119,7.47036-7.45324,16.651-5.56655,8.06323,1.65685,18.27052,5.36594,23.86887-.84125l.02709-22.40152C780.32922,92.26969,778.8111,103.62324,771.40149,105.8701Z"/></g><g id="Flag-3" data-name="Flag"><path class="cls-4" d="M699.73642,135.74854,699.62163,242.962c-.02381,1.11845,2.88252,1.17406,2.92544.02154l.11435-106.9324Z"/><path class="cls-4" d="M703.13181,136.31275a1.96809,1.96809,0,1,1-1.51255-2.33655A1.968,1.968,0,0,1,703.13181,136.31275Z"/><path class="cls-10" d="M699.72187,137.15c-9.00814,10.74127-21.78127,5.94668-32.31637,5.31674-11.41513-.68256-18.36049,3.00157-21.82062,8.00961,3.2943-.87633,12.5427-.04406,15.45816,2.37206,0,0-11.63116,7.60225-11.64456,20.05727,3.38413-5.27611,9.27136-9.2504,20.66568-6.90886,10.00739,2.05652,22.67585,6.6599,29.62406-1.044Z"/><path class="cls-12" d="M688.60174,164.97251c-9.19621,2.78855-34.26295-9.43519-39.20326,7.93319,3.38413-5.27611,9.27136-9.2504,20.66568-6.90886,10.00739,2.05652,22.67585,6.6599,29.62406-1.044l.03365-27.80281C699.68209,148.09277,697.798,162.184,688.60174,164.97251Z"/></g><g id="Flag-4" data-name="Flag"><path class="cls-4" d="M615.47374,190.52746l-.137,128.04209c-.02852,1.33574,3.44245,1.40219,3.49378.02566l.13659-127.70658Z"/><path class="cls-4" d="M619.52874,191.20117a2.35042,2.35042,0,1,1-1.80628-2.7904A2.35023,2.35023,0,0,1,619.52874,191.20117Z"/><path class="cls-10" d="M615.45635,192.20113c-10.75811,12.828-26.01265,7.10191-38.59457,6.34963-13.63278-.81516-21.92742,3.58461-26.0597,9.56566,3.93423-1.04658,14.97935-.05247,18.4613,2.83289,0,0-13.89086,9.0793-13.907,23.95386,4.0416-6.30116,11.07265-11.04741,24.68061-8.251,11.95155,2.456,27.08119,7.95358,35.37926-1.24677Z"/><path class="cls-12" d="M602.1759,225.42876c-10.98282,3.33038-40.91929-11.26827-46.81949,9.47441,4.0416-6.30116,11.07265-11.04741,24.68061-8.251,11.95155,2.456,27.08119,7.95358,35.37926-1.24677l.04007-33.20425C615.409,205.26983,613.15872,222.09853,602.1759,225.42876Z"/></g><g id="Coin"><path class="cls-17" d="M881.98708,8.00075l-1.44425-3.01242,6.31684-3.64278h0a9.9112,9.9112,0,0,1,2.38318-.99511c.28944-.07713.58488-.14016.88431-.1932a11.74329,11.74329,0,0,1,4.44569.12163,14.61087,14.61087,0,0,1,1.60323.43189,16.35444,16.35444,0,0,1,1.65656.63607,20.61432,20.61432,0,0,1,2.12724,1.08893,25.64914,25.64914,0,0,1,2.21793,1.45652q.82129.60014,1.62291,1.27842c7.84136,6.6177,14.01034,18.41525,15.57636,29.76123q.16256,1.16158.25409,2.30818c.09254,1.09606.13788,2.18584.13389,3.26037q-.006,1.32006-.10438,2.55542-.08575,1.0694-.2404,2.06721-.15356.99475-.37229,1.92035V47.046a18.65063,18.65063,0,0,1-1.83379,4.866c-.16925.30143-.34463.59416-.52771.87448a11.76724,11.76724,0,0,1-2.799,3.02468,10.16,10.16,0,0,1-1.03047.67414h0l-5.97036,3.44787-1.322-2.75747c-.35048-.078-.70438-.169-1.06227-.27647a19.26832,19.26832,0,0,1-4.15623-1.84278,25.70343,25.70343,0,0,1-2.44036-1.62177,31.20306,31.20306,0,0,1-2.99787-2.55543c-6.54526-6.29744-11.69988-16.15169-13.58686-25.96017a43.67321,43.67321,0,0,1-.61854-4.35429c-.10822-1.20228-.1634-2.39758-.15955-3.57448a30.62308,30.62308,0,0,1,.41763-5.07193A21.99892,21.99892,0,0,1,881.98708,8.00075Z"/><path class="cls-18" d="M917.93511,28.22241l-12.81376,7.40035-1.68822-4.87529,12.82759-7.40862C916.89837,24.94123,917.45944,26.57455,917.93511,28.22241Z"/><path class="cls-18" d="M886.85967,1.34555h0a9.9112,9.9112,0,0,1,2.38318-.99511c.28944-.07713.58488-.14016.88431-.1932a11.74329,11.74329,0,0,1,4.44569.12163c.19406.04035.391.0904.58759.14016l-13.18462,7.6148.01126-.03308-1.44425-3.01242Z"/><path class="cls-18" d="M888.23319,20.05937l-1.68864-2.02985L905.76127,6.96728q.91584.90642,1.79159,1.90381Z"/><path class="cls-18" d="M911.63424,14.30917l-16.64547,9.61257-1.83337-4.79188,15.50065-8.95154A46.41175,46.41175,0,0,1,911.63424,14.30917Z"/><path class="cls-19" d="M886.85967,1.34555h0a9.9112,9.9112,0,0,1,2.38318-.99511c.28944-.07713.58488-.14016.88431-.1932a11.74329,11.74329,0,0,1,4.44569.12163,14.61087,14.61087,0,0,1,1.60323.43189,16.35444,16.35444,0,0,1,1.65656.63607,20.61432,20.61432,0,0,1,2.12724,1.08893,25.64914,25.64914,0,0,1,2.21793,1.45652q.82129.60014,1.62291,1.27842c7.30367,6.16385,13.15454,16.82171,15.18824,27.42282l-26.7367,15.43863a52.149,52.149,0,0,1-10.9312-23.113,43.67321,43.67321,0,0,1-.61854-4.35429c-.10822-1.20228-.1634-2.39758-.15955-3.57448a30.62308,30.62308,0,0,1,.41763-5.07193,21.99892,21.99892,0,0,1,1.02648-3.91768l-1.44425-3.01242Z"/><path class="cls-12" d="M906.8867,59.93322l-1.322-2.75747c-.35048-.078-.70438-.169-1.06227-.27647a19.26832,19.26832,0,0,1-4.15623-1.84278,25.70343,25.70343,0,0,1-2.44036-1.62177,31.20306,31.20306,0,0,1-2.99787-2.55543,38.3631,38.3631,0,0,1-2.65566-2.84715L918.989,32.59352c.14972.78038.28075,1.56046.38812,2.33841q.16256,1.16158.25409,2.30818c.09254,1.09606.13788,2.18584.13389,3.26037q-.006,1.32006-.10438,2.55542-.08575,1.0694-.2404,2.06721-.15356.99475-.37229,1.92035V47.046a18.65063,18.65063,0,0,1-1.83379,4.866c-.16925.30143-.34463.59416-.52771.87448a11.76724,11.76724,0,0,1-2.799,3.02468,10.16,10.16,0,0,1-1.03047.67414h0Z"/><path class="cls-12" d="M917.2142,51.91205c-.16925.30143-.34463.59416-.52771.87448a11.76724,11.76724,0,0,1-2.799,3.02468,10.16,10.16,0,0,1-1.03047.67414h0l-5.97036,3.44787-1.322-2.75747-.05247-.01254-.096-1.13028,13.27944-7.66927A17.7079,17.7079,0,0,1,917.2142,51.91205Z"/><path class="cls-17" d="M873.78825,20.8888c-.00385,1.177.05133,2.37234.15955,3.57462a43.62962,43.62962,0,0,0,.61854,4.35415c1.887,9.80862,7.0416,19.66287,13.58686,25.96032a31.20734,31.20734,0,0,0,2.99787,2.55542,25.69644,25.69644,0,0,0,2.4405,1.62177,19.26885,19.26885,0,0,0,4.15595,1.84264,12.86308,12.86308,0,0,0,4.416.57462,9.93856,9.93856,0,0,0,5.52491-1.98123,11.7644,11.7644,0,0,0,2.79911-3.02453c.18308-.28033.35846-.57305.52771-.87448a18.64866,18.64866,0,0,0,1.83379-4.866v-.00256q.2186-.92568.37229-1.92021.15357-.99859.24026-2.06735.10053-1.23408.10437-2.55557c.004-1.07438-.04135-2.16416-.13388-3.26022q-.09154-1.1481-.25409-2.30818c-1.56574-11.346-7.73486-23.14354-15.57622-29.76123q-.80076-.67906-1.62306-1.27857a25.66988,25.66988,0,0,0-2.21792-1.45651,20.627,20.627,0,0,0-2.12724-1.08879,16.32466,16.32466,0,0,0-1.65642-.63608,14.573,14.573,0,0,0-1.60338-.43189,11.7427,11.7427,0,0,0-4.44554-.12162c-.29928.0529-.59487.1162-.88446.1932a9.95441,9.95441,0,0,0-3.48037,1.72258,12.953,12.953,0,0,0-3.87834,5.12739,21.02286,21.02286,0,0,0-1.47919,5.03656A30.63751,30.63751,0,0,0,873.78825,20.8888Z"/><path class="cls-20" d="M873.78825,20.8888c-.00385,1.177.05133,2.37234.15955,3.57462a43.62962,43.62962,0,0,0,.61854,4.35415c1.887,9.80862,7.0416,19.66287,13.58686,25.96032a31.20734,31.20734,0,0,0,2.99787,2.55542,25.69644,25.69644,0,0,0,2.4405,1.62177,19.26885,19.26885,0,0,0,4.15595,1.84264,12.86308,12.86308,0,0,0,4.416.57462,9.93856,9.93856,0,0,0,5.52491-1.98123,11.7644,11.7644,0,0,0,2.79911-3.02453c.18308-.28033.35846-.57305.52771-.87448a18.64866,18.64866,0,0,0,1.83379-4.866v-.00256q.2186-.92568.37229-1.92021.15357-.99859.24026-2.06735.10053-1.23408.10437-2.55557c.004-1.07438-.04135-2.16416-.13388-3.26022q-.09154-1.1481-.25409-2.30818c-1.56574-11.346-7.73486-23.14354-15.57622-29.76123q-.80076-.67906-1.62306-1.27857a25.66988,25.66988,0,0,0-2.21792-1.45651,20.627,20.627,0,0,0-2.12724-1.08879,16.32466,16.32466,0,0,0-1.65642-.63608,14.573,14.573,0,0,0-1.60338-.43189,11.7427,11.7427,0,0,0-4.44554-.12162c-.29928.0529-.59487.1162-.88446.1932a9.95441,9.95441,0,0,0-3.48037,1.72258,12.953,12.953,0,0,0-3.87834,5.12739,21.02286,21.02286,0,0,0-1.47919,5.03656A30.63751,30.63751,0,0,0,873.78825,20.8888Z"/><path class="cls-21" d="M912.78691,36.15774c.15085.78565.283,1.571.39125,2.35424q.16233,1.16136.25395,2.308c.09253,1.0962.13788,2.186.13388,3.26036q-.00578,1.32028-.10437,2.55557-.08555,1.0694-.24026,2.06735-.15355.99455-.37229,1.92021v.00256a18.65057,18.65057,0,0,1-1.83379,4.866c-.16925.30143-.34463.59415-.52786.87448a11.76129,11.76129,0,0,1-2.799,3.02453,9.93856,9.93856,0,0,1-5.52491,1.98123,12.86308,12.86308,0,0,1-4.416-.57462,19.27276,19.27276,0,0,1-4.15609-1.84264,25.62051,25.62051,0,0,1-2.17059-1.43128Z"/><path class="cls-21" d="M912.47978,51.99832a17.66922,17.66922,0,0,1-1.4645,3.49378c-.16925.30143-.34463.59415-.52786.87448a11.76129,11.76129,0,0,1-2.799,3.02453,9.88039,9.88039,0,0,1-4.46935,1.868Z"/><path class="cls-22" d="M910.06879,26.92731c.6365,1.60024,1.19487,3.232,1.67,4.87743L888.4696,55.07389c-.10537-.099-.21188-.19505-.3164-.296a38.645,38.645,0,0,1-2.85143-3.08356Z"/><path class="cls-22" d="M902.46013,13.75793a46.49955,46.49955,0,0,1,2.9769,4.13214L879.82476,43.50234c-.834-1.56188-1.59425-3.17895-2.27638-4.83252Z"/><path class="cls-22" d="M899.55408,10.54191q.92354.91347,1.807,1.91792l-24.4884,24.48841c-.34178-.91683-.66388-1.84007-.95362-2.77158Z"/><path class="cls-22" d="M873.84514,19.119h0c.02624-.47367.064-.93636.10894-1.39192.01525-.15171.02966-.30428.04719-.45385q.02652-.23249.0569-.46113c.04491-.33636.092-.67029.14771-.9951a21.01647,21.01647,0,0,1,1.47919-5.03656,12.953,12.953,0,0,1,3.87834-5.12739,9.95184,9.95184,0,0,1,3.48037-1.72258c.28959-.077.585-.1403.88446-.1932a11.7427,11.7427,0,0,1,4.44554.12162c.1952.0405.393.09069.59074.14088Z"/><path class="cls-17" d="M878.85675,23.93029c0,10.46894,6.10381,22.55594,13.82683,27.69645.32767.21773.66132.42662.995.61939,8.18542,4.72573,14.81866-.28888,14.81866-11.20283S901.864,17.45105,893.67855,12.72519c-.33365-.19264-.6673-.36887-.995-.52943C884.96056,8.41838,878.85675,13.46121,878.85675,23.93029Z"/><path class="cls-23" d="M878.85675,23.93029c0,10.46894,6.10381,22.55594,13.82683,27.69645.32767.21773.66132.42662.995.61939,8.18542,4.72573,14.81866-.28888,14.81866-11.20283S901.864,17.45105,893.67855,12.72519c-.33365-.19264-.6673-.36887-.995-.52943C884.96056,8.41838,878.85675,13.46121,878.85675,23.93029Z"/><path class="cls-17" d="M879.51607,24.31143c0,.33607.006.67571.02181,1.01834.37415,9.75715,6.05876,20.69734,13.1909,25.44545.065.04277.128.08441.19307.127.25009.163.50233.319.75641.46569a12.29176,12.29176,0,0,0,4.44939,1.6182,7.49576,7.49576,0,0,0,7.82355-3.98427,15.52755,15.52755,0,0,0,1.83394-6.75173q.053-.76888.05318-1.587c0-.50162-.014-1.00338-.04349-1.51155a29.6738,29.6738,0,0,0-.36045-3.21774c-1.24863-7.53865-5.27283-15.22745-10.3861-19.84467a20.8438,20.8438,0,0,0-2.25713-1.78375c-.36645-.25095-.73874-.48422-1.11289-.70038-.31925-.18408-.63821-.35261-.94948-.506-.08854-.04335-.17723-.08655-.26592-.12462a9.57747,9.57747,0,0,0-5.85586-.93337c-2.982.57362-5.27881,2.95081-6.37786,6.74673A19.94175,19.94175,0,0,0,879.51607,24.31143Z"/><path class="cls-24" d="M879.51607,24.31143c0,.33607.006.67571.02181,1.01834.37415,9.75715,6.05876,20.69734,13.1909,25.44545.065.04277.128.08441.19307.127.25009.163.50233.319.75641.46569a12.29176,12.29176,0,0,0,4.44939,1.6182,7.49576,7.49576,0,0,0,7.82355-3.98427,15.52755,15.52755,0,0,0,1.83394-6.75173q.053-.76888.05318-1.587c0-.50162-.014-1.00338-.04349-1.51155a29.6738,29.6738,0,0,0-.36045-3.21774c-1.24863-7.53865-5.27283-15.22745-10.3861-19.84467a20.8438,20.8438,0,0,0-2.25713-1.78375c-.36645-.25095-.73874-.48422-1.11289-.70038-.31925-.18408-.63821-.35261-.94948-.506-.08854-.04335-.17723-.08655-.26592-.12462a9.57747,9.57747,0,0,0-5.85586-.93337c-2.982.57362-5.27881,2.95081-6.37786,6.74673A19.94175,19.94175,0,0,0,879.51607,24.31143Z"/><path class="cls-17" d="M881.88784,23.96337c-.01568-.34263-.02167-.68227-.02167-1.01834a19.94279,19.94279,0,0,1,.71307-5.52378,10.474,10.474,0,0,1,3.04777-5.1147,7.10864,7.10864,0,0,1,.98-.26549,9.57848,9.57848,0,0,1,5.85586.93337c.08869.03807.17738.08127.26592.12462.31127.15342.63023.32181.94948.506.37415.21616.74644.44943,1.11289.70038a20.8438,20.8438,0,0,1,2.25713,1.78375c5.11327,4.61722,9.13747,12.306,10.3861,19.84467a29.6738,29.6738,0,0,1,.36045,3.21774c.02952.50817.04335,1.00993.04335,1.51155q0,.81938-.053,1.587a15.52947,15.52947,0,0,1-1.83394,6.75173,8.91776,8.91776,0,0,1-1.86374,2.29477,7.72707,7.72707,0,0,1-3.60971.3231,12.29328,12.29328,0,0,1-4.44953-1.6182c-.25409-.14672-.50618-.30286-.75627-.46569-.06517-.04278-.128-.08441-.19307-.12719C887.9466,44.66071,882.26213,33.72052,881.88784,23.96337Z"/><path class="cls-25" d="M881.88784,23.96337c-.01568-.34263-.02167-.68227-.02167-1.01834a19.94279,19.94279,0,0,1,.71307-5.52378,10.474,10.474,0,0,1,3.04777-5.1147,7.10864,7.10864,0,0,1,.98-.26549,9.57848,9.57848,0,0,1,5.85586.93337c.08869.03807.17738.08127.26592.12462.31127.15342.63023.32181.94948.506.37415.21616.74644.44943,1.11289.70038a20.8438,20.8438,0,0,1,2.25713,1.78375c5.11327,4.61722,9.13747,12.306,10.3861,19.84467a29.6738,29.6738,0,0,1,.36045,3.21774c.02952.50817.04335,1.00993.04335,1.51155q0,.81938-.053,1.587a15.52947,15.52947,0,0,1-1.83394,6.75173,8.91776,8.91776,0,0,1-1.86374,2.29477,7.72707,7.72707,0,0,1-3.60971.3231,12.29328,12.29328,0,0,1-4.44953-1.6182c-.25409-.14672-.50618-.30286-.75627-.46569-.06517-.04278-.128-.08441-.19307-.12719C887.9466,44.66071,882.26213,33.72052,881.88784,23.96337Z"/><path class="cls-2" d="M883.92824,3.73729c8.55943-.96674,15.51947,6.1232,20.16749,12.49622,6.71151,9.89,10.96157,22.41692,8.6417,34.39256l.003-.02538c-.757,3.32967-2.27966,6.672-5.052,8.79042a14.97746,14.97746,0,0,0,5.27226-8.7676l-.00214.02138c2.13765-9.80292-.55053-20.10275-5.0367-28.87392C903.11973,13.09135,894.97594,2.55582,883.92824,3.73729Z"/><path class="cls-17" d="M904.2694,40.80248c-.14131-3.80505-2.12353-6.47041-4.45866-8.67678l1.12044.28945,3.23712-1.869a14.512,14.512,0,0,0-.58132-2.06991,14.08641,14.08641,0,0,0-1.68437-3.211,17.247,17.247,0,0,0-4.14753-4.12258l-.12191-3.35433-4.00709-2.31546-3.23727,1.86888.02552.85295.00642.18407a3.74775,3.74775,0,0,0-.79192.3606,2.95661,2.95661,0,0,0-.2454.17025c-.37742.27719-2.24373,1.24977-2.99173,1.69863a2.932,2.932,0,0,0-.24539.17039c-.85466.62766-1.31764,1.83379-1.24406,3.70438l-.00827.005a10.50026,10.50026,0,0,0,1.626,5.18014c.07756.12519.16868.2538.24638.37914l.026.04192q.13625.19312.27306.38626c.08084.11207.16126.22429.25038.33137.03935.04506.07029.09511.10466.132a3.01715,3.01715,0,0,0,.19848.24753,21.7214,21.7214,0,0,0,1.79643,1.91421c.27748.26407.56308.52172.85067.7711l-1.47576-.36872L885.553,35.372a15.46756,15.46756,0,0,0,6.10139,8.75392l.13032,3.34948,4.04417,2.23889,3.23726-1.869-.04063-1.04858a2.43089,2.43089,0,0,0,.6499-.27333l.025-.01455c.48921-.31782,2.65466-1.506,3.21231-1.85433l.025-.01468C903.86488,44.03732,904.345,42.78656,904.2694,40.80248Z"/><path class="cls-26" d="M886.54184,20.52235c.826-.48408,2.48713-1.35727,2.83832-1.61364.08526-.0569.16126-.11379.24667-.17082a3.70334,3.70334,0,0,1,.79734-.3606l.08541,2.41084A3.88281,3.88281,0,0,0,886.54184,20.52235Z"/><path class="cls-27" d="M895.749,40.06588c.03807,1.00608-.541,1.50913-2.22106.58845a5.98686,5.98686,0,0,1-3.13233-4.072l-4.84093-1.21483,3.23684-1.86046,1.47134.36074c.02838.02852.05675.04749.08527.07586.446.39867.8923.77838,1.31949,1.13912q.27035.21345.5126.427a19.35377,19.35377,0,0,1,2.69544,2.48684,3.66458,3.66458,0,0,1,.74986,1.31935A2.81139,2.81139,0,0,1,895.749,40.06588Z"/><path class="cls-28" d="M899.02366,46.80506l.03807,1.044-3.23684,1.86046-.12333-3.34107A5.51406,5.51406,0,0,0,899.02366,46.80506Z"/><path class="cls-26" d="M894.39162,19.65871l-4.00552-2.316,3.23655-1.86988,4.01522,2.31588.11379,3.35063a17.10084,17.10084,0,0,1,4.1481,4.129,14.11266,14.11266,0,0,1,1.68936,3.20818,14.95475,14.95475,0,0,1,.579,2.06921l-3.23655,1.86987a14.65525,14.65525,0,0,0-.57919-2.06935,13.917,13.917,0,0,0-1.6895-3.208,17.10483,17.10483,0,0,0-4.14782-4.129Z"/><path class="cls-28" d="M897.7518,21.13932a12.97873,12.97873,0,0,1,3.64178,3.09525,11.24587,11.24587,0,0,1,2.1954,4.24193,20.96111,20.96111,0,0,0-2.532-3.96945c-.48893-.611-1.02177-1.18545-1.57187-1.74753C898.93255,22.19959,898.34453,21.67316,897.7518,21.13932Z"/><path class="cls-29" d="M902.93422,44.64089l-.0191.00941c-.5598.35133-2.724,1.53779-3.21745,1.86046.93008-.60756,1.41416-1.85091,1.33817-3.83456-.17082-4.41375-2.80011-7.2897-5.59051-9.70069-2.60077-2.23047-4.89768-3.6164-4.98323-5.75191-.04748-1.33831.82571-1.45224,2.1452-.72148a6.58656,6.58656,0,0,1,3.21759,4.59411l3.98642,1.02505.00984.00941c2.33484,2.21165,4.30894,4.87886,4.45153,8.67549C904.34839,42.79012,903.86431,44.03347,902.93422,44.64089Z"/><polygon class="cls-17" points="893.633 34.713 890.396 36.582 885.553 35.372 888.79 33.503 893.633 34.713"/><polygon class="cls-26" points="893.633 34.713 890.396 36.582 885.553 35.372 888.79 33.503 893.633 34.713"/><polygon class="cls-17" points="895.829 49.714 895.699 46.364 899.026 46.797 899.066 47.845 895.829 49.714"/><polygon class="cls-27" points="895.829 49.714 895.699 46.364 899.026 46.797 899.066 47.845 895.829 49.714"/><path class="cls-17" d="M890.41419,18.19464l.09154,2.59349a3.86486,3.86486,0,0,0-4.114-.17994,2.90618,2.90618,0,0,0-.24525.17039c-.85494.62766-1.31763,1.83379-1.2442,3.70438l-.00827.005a10.49884,10.49884,0,0,0,1.626,5.18014c.07756.12519.16868.2538.24624.37914l.02609.04192q.136.19312.27306.38626c.0807.11207.16126.22429.25038.33137.03935.0452.07029.09511.10466.132a3.01715,3.01715,0,0,0,.19848.24753,21.76328,21.76328,0,0,0,1.79643,1.91421c.30286.28817.614.57148.92824.8414.44872.39582.90043.77809,1.32847,1.14026.17966.1443.34606.28531.5126.42619a19.97762,19.97762,0,0,1,2.69416,2.48712,3.73506,3.73506,0,0,1,.74786,1.31664,3.16147,3.16147,0,0,1,.12533.75c.03736,1.00951-.5414,1.51726-2.22405.58959a5.93959,5.93959,0,0,1-3.132-4.07L885.55315,35.372a15.46532,15.46532,0,0,0,6.10139,8.75392l.13018,3.34948,4.04431,2.23889-.13018-3.34977c1.6875.66145,3.05561.73446,3.97672.15884l.02481-.01455c.92723-.60242,1.40732-1.85319,1.33189-3.83727-.16355-4.407-2.79568-7.28685-5.58666-9.69313-2.604-2.232-4.89853-3.61768-4.98052-5.758-.04719-1.33589.82329-1.44554,2.14649-.71478a6.60143,6.60143,0,0,1,3.21788,4.592l5.10172,1.31764a14.551,14.551,0,0,0-.58118-2.06992,14.093,14.093,0,0,0-1.68451-3.211,17.24748,17.24748,0,0,0-4.14754-4.12259l-.12191-3.35433L890.389,17.34183Z"/><path class="cls-20" d="M890.41419,18.19464l.09154,2.59349a3.86486,3.86486,0,0,0-4.114-.17994,2.90618,2.90618,0,0,0-.24525.17039c-.85494.62766-1.31763,1.83379-1.2442,3.70438l-.00827.005a10.49884,10.49884,0,0,0,1.626,5.18014c.07756.12519.16868.2538.24624.37914l.02609.04192q.136.19312.27306.38626c.0807.11207.16126.22429.25038.33137.03935.0452.07029.09511.10466.132a3.01715,3.01715,0,0,0,.19848.24753,21.76328,21.76328,0,0,0,1.79643,1.91421c.30286.28817.614.57148.92824.8414.44872.39582.90043.77809,1.32847,1.14026.17966.1443.34606.28531.5126.42619a19.97762,19.97762,0,0,1,2.69416,2.48712,3.73506,3.73506,0,0,1,.74786,1.31664,3.16147,3.16147,0,0,1,.12533.75c.03736,1.00951-.5414,1.51726-2.22405.58959a5.93959,5.93959,0,0,1-3.132-4.07L885.55315,35.372a15.46532,15.46532,0,0,0,6.10139,8.75392l.13018,3.34948,4.04431,2.23889-.13018-3.34977c1.6875.66145,3.05561.73446,3.97672.15884l.02481-.01455c.92723-.60242,1.40732-1.85319,1.33189-3.83727-.16355-4.407-2.79568-7.28685-5.58666-9.69313-2.604-2.232-4.89853-3.61768-4.98052-5.758-.04719-1.33589.82329-1.44554,2.14649-.71478a6.60143,6.60143,0,0,1,3.21788,4.592l5.10172,1.31764a14.551,14.551,0,0,0-.58118-2.06992,14.093,14.093,0,0,0-1.68451-3.211,17.24748,17.24748,0,0,0-4.14754-4.12259l-.12191-3.35433L890.389,17.34183Z"/><path class="cls-16" d="M901.03227,42.67149a11.04724,11.04724,0,0,0-1.3269-4.59383,15.46759,15.46759,0,0,0-2.96736-3.76041c-1.14154-1.13342-2.4164-2.1214-3.64991-3.16769a13.995,13.995,0,0,1-1.73213-1.70647,3.74307,3.74307,0,0,1-.89088-2.22277,3.68683,3.68683,0,0,0,.98056,2.149,14.042,14.042,0,0,0,1.75951,1.64017c1.25191,1.0125,2.533,2.00761,3.69811,3.13774a15.10993,15.10993,0,0,1,2.96265,3.8454,10.81216,10.81216,0,0,1,.86549,2.27382A11.84707,11.84707,0,0,1,901.03227,42.67149Z"/><polygon class="cls-17" points="894.396 19.657 897.633 17.788 897.755 21.143 894.518 23.012 894.396 19.657"/><polygon class="cls-29" points="894.396 19.657 897.633 17.788 897.755 21.143 894.518 23.012 894.396 19.657"/><polygon class="cls-30" points="890.389 17.342 894.027 19.853 894.518 23.012 894.396 19.657 890.389 17.342"/><polygon class="cls-30" points="891.655 44.126 892.112 47.265 895.829 49.714 891.785 47.475 891.655 44.126"/><path class="cls-22" d="M885.55329,35.372a14.45907,14.45907,0,0,0,.5963,1.80571l1.32548-1.32562Z"/><path class="cls-22" d="M901.02129,42.52221a10.64644,10.64644,0,0,0-1.53194-5.01575L891.7,45.29593l.08455,2.17942,2.75733,1.52638,1.21212-1.2124-.05518-1.42486a9.21228,9.21228,0,0,0,1.11915.361Z"/><path class="cls-22" d="M884.944,25.15183a10.23713,10.23713,0,0,0,.769,2.95609l8.53576-8.53576-2.36094-1.36426-1.42286,1.423.04092,1.15723a3.89107,3.89107,0,0,0-.78608-.41236Z"/><path class="cls-22" d="M886.79236,30.08915c.09069.12875.18209.25765.27306.38626.0807.11207.1614.22429.25038.33137.03935.04506.07029.09511.10466.132a3.01715,3.01715,0,0,0,.19848.24753,21.762,21.762,0,0,0,1.79629,1.91421c.139.132.28389.25651.42562.38584l2.82149-2.82149c-1.26844-1.10989-2.14706-2.13651-2.19725-3.44459-.04734-1.33589.82329-1.44554,2.14649-.71493a6.20019,6.20019,0,0,1,2.17714,2.033l2.782-2.78185a18.01112,18.01112,0,0,0-3.05262-2.74506l-.04619-1.26531-7.94,7.94c.07514.11963.16055.24183.23441.361Z"/></g><ellipse id="Shadow" class="cls-31" cx="494.06382" cy="555.74902" rx="75.36342" ry="43.51103"/><g id="Character"><g id="Arm"><path id="Arm-2" data-name="Arm" class="cls-32" d="M440.56768,345.59356l11.252-28.614-1.73969-35.199c-7.14226.58974-12.15,3.18352-15.92113,12.01914-3.77125,8.83547-11.32474,37.29446-12.76814,43.92057a60.19515,60.19515,0,0,0-1.30038,17.5479c.34691,7.504,3.64008,21.07148,4.88228,28.45543.57448,3.41636.87919,6.71693,1.2174,10.19489.35233,3.62553,1.63332,7.0185,2.47985,10.56475a9.78055,9.78055,0,0,0,2.5694,4.41446c.77667.78622,1.89511.95319,2.63328,1.69363.76369.76569.836,1.9165,1.88954,2.55614,1.17235.71179,2.60776.443,3.62511,1.16036a31.45813,31.45813,0,0,0,3.12505,2.42767,6.77708,6.77708,0,0,1,2.66379,1.84677c.63408.82458,1.16963,2.59207,2.43936,2.57054,1.424-.02438,1.76322-1.37153,1.93332-2.54644a10.83135,10.83135,0,0,0-1.72172-6.54184c-1.28342-2.023-2.07919-4.31892-3.59516-6.18865a15.07985,15.07985,0,0,1-2.52035-6.2186c-.3251-1.49373-.03565-3.35077,1.77762-2.34354,2.1365,1.18674,4.31008,3.49549,7.00766,3.25709,1.86617-.16483,2.087-1.60666,1.113-2.90647a53.85377,53.85377,0,0,1-4.31165-6.75886c-1.3001-2.39729-2.33143-4.91165-3.69569-7.2656a32.72994,32.72994,0,0,0-2.4549-3.53285c-2.44221-3.15713-2.0086-7.15538-2.00846-10.90283C439.13882,363.97244,440.09743,352.274,440.56768,345.59356Z"/><path class="cls-4" d="M450.29032,279.81058c-10.38795.903-15.553,7.50329-19.075,17.91377-3.60971,10.67-8.90207,29.80871-9.97032,34.88619s-2.47757,11.02032-2.1827,18.72923c.28645,7.49146,2.67092,19.96258,2.67092,19.96258s2.721,1.64,8.51237,1.55177c8.08975-.1232,9.69327-2.57924,9.69327-2.57924l1.37866-24.558,11.36067-28.36945Z"/></g><g id="Bottom"><path class="cls-6" d="M442.1307,549.10847c0,1.83637-.34106,2.54744,1.91065,4.20657s7.13414,2.42311,10.84408,1.42244c3.25082-.87719,4.42986-1.8087,5.994-3.618a48.78651,48.78651,0,0,0,3.48152-5.249c.6519-.82942,3.67044-2.41369,6.58261-3.70837,3.06546-1.363,8.94413-4.07582,11.04969-9.05349,2.10528-4.97753.6529-8.53847.6529-8.53847Z"/><path class="cls-5" d="M461.73155,523.84939c-5.94,3.88105-10.93548,13.61937-19.05931,10.66086-.40708,4.76821-1.67367,9.90972-.54154,14.59822,3.465,4.275,11.0477,5.09745,15.41025,2.01873,2.19739-1.87072,3.42876-4.06754,5.55529-6.04564a21.272,21.272,0,0,1,5.83975-3.55979,61.85548,61.85548,0,0,0,7.06641-3.913C489.13056,527.92949,482.61553,510.20478,461.73155,523.84939Z"/><path class="cls-6" d="M482.67014,571.43114c0,1.98965.13161,3.48765,1.34872,4.33048,1.21711.84254,10.3235,2.34069,12.74575,2.62158s2.77244-1.31093,4.46992-.749c1.69763.56179,5.65624,3.46426,11.58852,4.77506,5.93243,1.31079,10.80117,2.71526,19.04063,0s9.05306-5.90534,8.94441-8.69161C540.69973,570.93152,482.67014,571.43114,482.67014,571.43114Z"/><path class="cls-5" d="M483.86073,552.834c-1.32776,5.70828-2.73793,14.25331-1.19059,18.59718,1.65756,1.64616,7.22539,2.61417,12.07873,3.26722a37.32858,37.32858,0,0,1,12.84214,4c9.41979,3.93052,25.98285,5.36123,32.58329-3.50491,6.58846-11.83762-27.70315-8.92673-31.90886-22.62438C506.73421,547.58209,490.088,554.181,483.86073,552.834Z"/><path class="cls-4" d="M439.50071,485.50407c4.58484-48.66983,2.21906-87.55941,6.59217-126.74114,0,0,68.34938-1.70091,70.02989,21.51235,0,0,1.03889,82.75968.50176,92.98608-.24253,10.362-6.44944,74.97306-6.44944,82.276-16.98055,8.42625-27.505,2.06008-27.505,2.06008.10737-9.42578-7.26646-46.06222-3.26935-69.05077L476.68652,449.526s-11.65225,69.88631-13.61766,88.73659c-5.01617,7.43343-19.24338,5.69887-21.61658,1.21027C441.45228,539.47281,437.89177,499.831,439.50071,485.50407Z"/><path class="cls-6" d="M476.68652,449.526l-3.01326-37.58064s-12.87037-2.37092-20.32191-11.68548c2.03228,7.45168,10.118,13.92051,15.24115,15.73848l5.11769,31.89988-2.12182,29.49032Z"/><path class="cls-6" d="M467.599,442.15226c-.80476,12.88677-1.63774,20.4143-2.765,26.705-1.75794,9.81789-6.71764,61.46462-7.88015,73.69336q.58368-.18286,1.14511-.41293c1.24677-13.09879,6.0907-63.442,7.81841-73.08594,1.138-6.35363,1.9731-13.91339,2.78014-26.83081.60827-9.72478,1.182-18.91,1.81939-23.68536l-1.09206-.145C468.78342,423.20346,468.20823,432.40738,467.599,442.15226Z"/><path class="cls-6" d="M501.54793,558.7979c1.47135-22.04092,4.99151-72.07815,4.707-94.37159-.33936-26.61992-1.23266-68.04781-3.39041-85.2468l-1.09192.1376c2.15148,17.1448,3.04235,58.52621,3.382,85.12318.28589,22.37556-3.27177,72.84055-4.72814,94.62609C500.79608,558.98326,501.16866,558.89542,501.54793,558.7979Z"/><path class="cls-6" d="M503.92627,406.55114c6.01626-6.065,5.18242-18.75916,4.64758-26.671-.0442-.662-.087-1.29041-.12248-1.879l1.09834-.06687c.0355.58588.07856,1.21255.12248,1.87186.56949,8.43652,1.49373,22.18094-5.74592,28.27934Z"/></g><g id="Top"><polygon class="cls-32" points="489.997 273.074 487.252 289.591 462.963 289.802 466.824 272.004 489.997 273.074"/><path class="cls-33" d="M497.33866,243.69615c1.79615,2.16474,7.38509,8.695,7.62478,9.96875l-4.34816,2.8212Z"/><path class="cls-32" d="M484.31772,227.27454c6.97245-.93522,11.63714,3.90186,14.06067,18.72893.09482.58061.982,1.47349,1.69364,3.68314,3.05233,9.47754,1.72443,18.61173.173,21.07319-3.96532,3.36331-8.43652,4.69706-14.97551,4.31336-4.98409-.29173-17.704-1.46934-24.3116-8.01375-7.7715-7.69992-11.90335-19.50246-6.69312-25.81944C461.597,232.3496,480.47646,227.79013,484.31772,227.27454Z"/><path class="cls-33" d="M500.245,270.7598c-.85965,1.36141-5.81551,4.36512-10.61638,4.49117l.368-2.62572A35.05293,35.05293,0,0,0,500.245,270.7598Z"/><path class="cls-6" d="M486.20028,253.81119a1.271,1.271,0,0,1-2.271.43731,16.88239,16.88239,0,0,0-2.56725-2.82206,6.2301,6.2301,0,0,0-4.25862-1.31592c-5.7204.58674-4.12372,8.10058-1.24078,10.65458,4.718,4.179,7.06841.40038,7.06841.40038s3.49649,7.217-1.20941,11.61162c0,0-8.61219,2.4713-15.19866.61512-5.02714-5.13823-7.99621-7.03177-11.40187-11.47631-8.06779-10.53011-9.439-23.968-4.52639-27.13537-.38056-3.80319,1.53094-9.5812,9.26608-13.09337,7.37141-3.34678,12.36747-3.16555,17.76463-3.00714s12.08615,2.44278,16.9777-1.86916a10.23863,10.23863,0,0,1-.58389,9.35692,3.38535,3.38535,0,0,1,3.08427,6.0251,2.65881,2.65881,0,0,1,1.30267,3.12221,3.231,3.231,0,0,1-2.74806,2.14306,13.62707,13.62707,0,0,1-3.39269-.127c-1.4558,4.44383-6.38356,6.11365-9.33951,6.00471C486.39006,247.27919,486.91392,251.736,486.20028,253.81119Z"/><path class="cls-34" d="M494.10053,290.16858c-5.06222-4.55661-3.53327-4.80329-6.81831-7.50429-4.08637-3.35989-21.96834-7.53923-23.40361-6.08143a19.49755,19.49755,0,0,1-5.27725,3.91241s.84953,2.74464,11.64342,5.35653C480.54133,288.34334,484.60916,287.99786,494.10053,290.16858Z"/><path class="cls-5" d="M461.84747,278.40668c5.94.99553,16.65759,3.88261,22.297,5.42083s13.35972,6.64863,13.35972,6.64863,10.83111,4.71075,12.16671,6.19479,4.05457,8.311,5.14392,23.152,1.96384,71.13836,1.96384,71.13836-4.157,1.24006-7.16451,1.748l-2.0655-16.88973-2.28394,17.71s-20.37808,1.38437-37.44518-2.17757-24.636-14.544-24.636-14.544,2.5423-29.9744,1.86473-36.05925c-.67742-6.08485-6.02026-31.75971-5.42653-41.85137.59373-10.09194,4.43727-18.16244,10.66856-19.08668C457.87874,278.68515,461.84747,278.40668,461.84747,278.40668Z"/><path class="cls-4" d="M458.95569,281.48639c1.54192.605,3.12605,1.0741,4.7156,1.52952q2.37405.71178,4.76864,1.35627c3.19021.8645,6.37858,1.73356,9.5822,2.52406,3.19477.82685,6.42235,1.421,9.68428,1.98052l9.79779,1.59938c-3.31213-.1587-6.61142-.47795-9.9033-.8856a77.64052,77.64052,0,0,1-9.80435-1.78446c-3.21716-.818-6.41037-1.71374-9.56223-2.74578A65.1081,65.1081,0,0,1,458.95569,281.48639Z"/><path class="cls-4" d="M465.10827,302.06894c1.36768,6.67844,2.44292,13.42132,3.15514,20.21212a132.89811,132.89811,0,0,1,.65432,20.47447l-1.14852,20.4113-.651,10.20188-.75029,10.19674.29088-10.22013.38983-10.21527.93336-20.42257a142.3838,142.3838,0,0,0-.43374-20.35969c-.27291-3.39027-.63964-6.7744-1.065-10.15212C466.08769,308.81325,465.59363,305.443,465.10827,302.06894Z"/><path class="cls-4" d="M508.35726,369.76485c5.86242-.93807,7.84379-2.81393,7.84379-2.81393v4.33817s-4.32634,2.263-7.84379,2.42111Z"/><g id="Arm-3" data-name="Arm"><g id="Briefcase"><path class="cls-4" d="M488.59287,433.95386l-.17666,52.57454c-.00856,2.54887,1.78888,4.02805,3.98855,5.33285l5.5195,3.2146a5.30458,5.30458,0,0,0,4.31564.86308,11.81461,11.81461,0,0,0,2.95581-1.19929.36189.36189,0,0,0,.11492-.05718l.29886-.171,56.6207-32.43743a13.346,13.346,0,0,0,6.71194-11.53519l.163-47.8732a3.79938,3.79938,0,0,0-1.712-2.97919l-9.41836-5.473a3.74591,3.74591,0,0,0-3.42092-.0117L490.325,430.99792a3.42652,3.42652,0,0,0-1.22124,1.27A3.5365,3.5365,0,0,0,488.59287,433.95386Z"/><path class="cls-6" d="M488.59287,433.95386l-.17666,52.57454c-.00856,2.54887,1.78888,4.02805,3.98855,5.33285l5.5195,3.2146a5.30458,5.30458,0,0,0,4.31564.86308,11.81461,11.81461,0,0,0,2.95581-1.19929v-.023c-2.20766,1.0259-3.93751-.12819-3.92881-2.73394l.16654-49.53618a5.30417,5.30417,0,0,1,.76668-2.55742l-13.09636-7.62121A3.5365,3.5365,0,0,0,488.59287,433.95386Z"/><path class="cls-5" d="M501.43087,442.44642a5.75453,5.75453,0,0,1,2.60947-4.48461l60.70578-34.777c2.39957-1.37467,4.35514-.23684,4.34587,2.52833l-.14615,44.82058a13.34759,13.34759,0,0,1-6.7118,11.5369l-56.624,32.44085c-2.39957,1.37467-4.35514.23683-4.34587-2.52833Z"/><path class="cls-35" d="M561.02776,395.98739,496.685,433.21527a6.025,6.025,0,0,0-2.99872,5.17743l-.18194,54.10877.97657.56891.1838-54.67454a5.04523,5.04523,0,0,1,2.51022-4.334l64.82723-37.50806Z"/><path class="cls-35" d="M538.19492,402.62989l-.02738,8.14123,3.17753,1.84948.03622-10.81115c.002-.5595-.38527-.78251-.86992-.50689Z"/><path class="cls-36" d="M538.19492,402.62989l-.02738,8.14123,3.17753,1.84948.03622-10.81115c.002-.5595-.38527-.78251-.86992-.50689Z"/><path class="cls-35" d="M515.79269,410.59916l-.0442,13.1802,3.03308,1.7695,2.05039-1.17776.03636-10.81115a1.94131,1.94131,0,0,1,.877-1.50927l15.53915-8.89921,3.22686-1.84891c.48465-.27562.87191-.05261.86992.50689l-.03622,10.81115,2.05538-1.17762.04434-13.17493a1.00467,1.00467,0,0,0-.0144-.172,1.93929,1.93929,0,0,0-.85766-1.343l-1.29254-.75542a1.93086,1.93086,0,0,0-1.744-.0057l-22.8665,13.09794A1.93507,1.93507,0,0,0,515.79269,410.59916Z"/><path class="cls-28" d="M518.82577,412.36879l-.0442,13.18007,2.05039-1.17776.03636-10.81115a1.94131,1.94131,0,0,1,.877-1.50927l15.53915-8.89921,3.22686-1.84891c.48465-.27562.87191-.05261.86992.50689l-.03622,10.81115,2.05538-1.17762.04434-13.17493a1.00467,1.00467,0,0,0-.0144-.172c-.07443-.42819-.43175-.581-.86093-.33494l-22.86635,13.09837A1.948,1.948,0,0,0,518.82577,412.36879Z"/></g><path class="cls-32" d="M539.445,399.86287a100.23,100.23,0,0,1-2.83988-12.536c-.77638-4.43671-.55494-8.9226-.96916-17.23835l-19.0114,4.86517a120.63083,120.63083,0,0,1,2.99474,12.20093c.808,4.44383-.7848,8.45791-.75528,12.85854a10.10676,10.10676,0,0,0,1.54164,5.61189c.59244.87491,1.36383,1.61764,1.95157,2.49568,1.15509,1.72572,1.1096,2.94739-.61184,3.93a2.14285,2.14285,0,0,0-.8789,2.05652,4.31234,4.31234,0,0,0,2.0568,1.31991,3.84459,3.84459,0,0,0,1.04045.15856c.35975.00428.77111-.17738,1.10889-.151.3539.02752.6904.27961,1.08522.30428a4.77289,4.77289,0,0,0,1.19416-.12234,3.89724,3.89724,0,0,0,2.0645-.85038c.537-.53071.75642-1.35557,1.38594-1.77234.86307-.57163,2.011-.10851,3.0442-.17453a2.95475,2.95475,0,0,0,2.42767-1.6423,3.55285,3.55285,0,0,1,.76312-1.38309c.43061-.34149,1.04187-.31354,1.5519-.518a2.39489,2.39489,0,0,0,1.26474-1.41117C540.83162,405.30195,540.15519,402.4076,539.445,399.86287Z"/><path class="cls-4" d="M514.92548,298.50772c5.01375,2.531,6.2752,3.56521,9.02412,9.164,2.74891,5.59863,6.3964,20.94472,7.45324,30.17772,1.05685,9.23315,3.77739,18.10228,4.444,27.49768s.589,16.96915.589,16.96915-2.7981,1.7307-8.68875,2.467a29.01289,29.01289,0,0,1-9.1168,0s-7.02563-25.92254-8.85-33.014c-1.82438-7.09136-8.395-26.33517-8.395-26.33517-2.20894-12.51776.84825-26.60852,4.28656-31.156C505.6718,294.27805,509.91174,295.97653,514.92548,298.50772Z"/></g></g></g><g id="Speech_Bubble" data-name="Speech Bubble"><g id="Speech_Bubble-2" data-name="Speech Bubble"><path class="cls-16" d="M506.19481,156.5809a31.51021,31.51021,0,0,1-8.48543,21.57595l-2.61132,2.49012a31.538,31.538,0,0,1-44.55978-44.35589l2.4884-2.61859a31.53791,31.53791,0,0,1,53.16813,22.90841Z"/><path class="cls-5" d="M474.5503,122.41049a34.23686,34.23686,0,0,0-5.54545,68.00931l3.86608,9.91115a1.98906,1.98906,0,0,0,3.70937-.00827l3.8223-9.92983a34.23631,34.23631,0,0,0-5.8523-67.98236Zm31.64436,34.17041a31.51029,31.51029,0,0,1-8.48528,21.57595l-2.61146,2.49012a31.53791,31.53791,0,0,1-44.55979-44.35575l2.48841-2.61887a31.538,31.538,0,0,1,53.16812,22.90855Z"/><path class="cls-13" d="M506.19466,156.5809a31.51029,31.51029,0,0,1-8.48528,21.57595l-2.61146,2.49012a31.53791,31.53791,0,0,1-44.55979-44.35575l2.48841-2.61887a31.538,31.538,0,0,1,53.16812,22.90855Z"/></g><path id="Star" class="cls-10" d="M475.34836,139.49242l4.342,10.78191,11.59608.79791a.77536.77536,0,0,1,.44444,1.36811l-8.91247,7.46152,2.82477,11.275a.77546.77546,0,0,1-1.16393.84554l-9.85026-6.17055-9.85026,6.17055a.77546.77546,0,0,1-1.16393-.84554l2.82463-11.275-8.91247-7.46138a.77549.77549,0,0,1,.44458-1.36825l11.59594-.79777,4.34216-10.78191A.7755.7755,0,0,1,475.34836,139.49242Z"/></g></g></svg>