<svg width="69" height="69" viewBox="0 0 69 69" fill="none" xmlns="http://www.w3.org/2000/svg">
<rect width="69" height="69" fill="white"/>
<path d="M36.6562 32.3438H43.125V36.6562H36.6562V32.3438ZM64.6875 17.25V53.9062C64.6875 54.4781 64.4603 55.0266 64.056 55.431C63.6516 55.8353 63.1031 56.0625 62.5312 56.0625H12.9375C10.65 56.0625 8.45621 55.1538 6.8387 53.5363C5.2212 51.9188 4.3125 49.725 4.3125 47.4375V17.25C4.3125 14.9625 5.2212 12.7687 6.8387 11.1512C8.45621 9.5337 10.65 8.625 12.9375 8.625H17.25C17.8219 8.625 18.3703 8.85218 18.7747 9.25655C19.1791 9.66093 19.4062 10.2094 19.4062 10.7812V15.0938H62.5312C63.1031 15.0938 63.6516 15.3209 64.056 15.7253C64.4603 16.1297 64.6875 16.6781 64.6875 17.25ZM15.0938 12.9375H12.9375C11.7938 12.9375 10.6969 13.3919 9.8881 14.2006C9.07935 15.0094 8.625 16.1063 8.625 17.25V39.9688C9.93511 39.2091 11.4231 38.8102 12.9375 38.8125H15.0938V12.9375ZM47.4375 36.6562V32.3438H51.75C52.3219 32.3438 52.8703 32.1166 53.2747 31.7122C53.6791 31.3078 53.9062 30.7594 53.9062 30.1875C53.9062 29.6156 53.6791 29.0672 53.2747 28.6628C52.8703 28.2584 52.3219 28.0312 51.75 28.0312H47.4375V25.875C47.4375 25.3031 47.2103 24.7547 46.806 24.3503C46.4016 23.9459 45.8531 23.7188 45.2812 23.7188C44.7094 23.7188 44.1609 23.9459 43.7565 24.3503C43.3522 24.7547 43.125 25.3031 43.125 25.875V28.0312H36.6562V25.875C36.6562 25.3031 36.4291 24.7547 36.0247 24.3503C35.6203 23.9459 35.0719 23.7188 34.5 23.7188C33.9281 23.7188 33.3797 23.9459 32.9753 24.3503C32.5709 24.7547 32.3438 25.3031 32.3438 25.875V28.0312H28.0312C27.4594 28.0312 26.9109 28.2584 26.5066 28.6628C26.1022 29.0672 25.875 29.6156 25.875 30.1875C25.875 30.7594 26.1022 31.3078 26.5066 31.7122C26.9109 32.1166 27.4594 32.3438 28.0312 32.3438H32.3438V36.6562H28.0312C27.4594 36.6562 26.9109 36.8834 26.5066 37.2878C26.1022 37.6922 25.875 38.2406 25.875 38.8125C25.875 39.3844 26.1022 39.9328 26.5066 40.3372C26.9109 40.7416 27.4594 40.9688 28.0312 40.9688H32.3438V43.125C32.3438 43.6969 32.5709 44.2453 32.9753 44.6497C33.3797 45.0541 33.9281 45.2812 34.5 45.2812C35.0719 45.2812 35.6203 45.0541 36.0247 44.6497C36.4291 44.2453 36.6562 43.6969 36.6562 43.125V40.9688H43.125V43.125C43.125 43.6969 43.3522 44.2453 43.7565 44.6497C44.1609 45.0541 44.7094 45.2812 45.2812 45.2812C45.8531 45.2812 46.4016 45.0541 46.806 44.6497C47.2103 44.2453 47.4375 43.6969 47.4375 43.125V40.9688H51.75C52.3219 40.9688 52.8703 40.7416 53.2747 40.3372C53.6791 39.9328 53.9062 39.3844 53.9062 38.8125C53.9062 38.2406 53.6791 37.6922 53.2747 37.2878C52.8703 36.8834 52.3219 36.6562 51.75 36.6562H47.4375Z" fill="#FE641A"/>
</svg>
