<svg width="70" height="69" viewBox="0 0 70 69" fill="none" xmlns="http://www.w3.org/2000/svg">
<rect width="69" height="69" transform="translate(0.5)" fill="white"/>
<path fill-rule="evenodd" clip-rule="evenodd" d="M51.3933 1.37992C51.6509 0.966327 52.0253 0.638365 52.4691 0.437477C52.913 0.23659 53.4065 0.171792 53.8872 0.251274L66.5586 2.36563C67.2028 2.47309 67.7781 2.83195 68.1579 3.36334C68.5378 3.89473 68.6911 4.55518 68.5842 5.19956L66.4748 17.8758C66.3943 18.3564 66.1731 18.8022 65.8393 19.1571C65.5055 19.512 65.074 19.76 64.5992 19.8697C64.1245 19.9794 63.628 19.9459 63.1723 19.7735C62.7166 19.6011 62.3222 19.2975 62.0391 18.901L58.6186 14.1203L41.0039 25.3771C40.2528 25.8578 39.3531 26.0507 38.4709 25.9203C37.5887 25.7898 36.7834 25.3449 36.2035 24.6674L26.3808 13.1838L8.01206 22.6221C7.1402 23.0704 6.12594 23.154 5.19241 22.8546C4.25888 22.5551 3.48255 21.8971 3.0342 21.0252C2.58585 20.1533 2.50221 19.1391 2.80168 18.2056C3.10115 17.272 3.7592 16.4957 4.63106 16.0473L25.6021 5.26856C26.3425 4.8882 27.1896 4.76886 28.0062 4.92987C28.8229 5.09087 29.5613 5.52279 30.1019 6.1557L39.7323 17.4175L54.3209 8.09263L51.4771 4.11527C51.1944 3.71865 51.0355 3.24714 51.0206 2.7603C51.0057 2.27345 51.1354 1.7931 51.3933 1.37992ZM19.1309 25.5792L4.8282 33.7606C4.26317 34.0834 3.79336 34.5496 3.46623 35.1121C3.13911 35.6746 2.96628 36.3135 2.9652 36.9642V65.3035C2.9652 67.3439 4.6212 68.9999 6.66163 68.9999H19.1309V25.5792ZM25.2916 68.9999H43.3696V35.4265L35.2424 39.4876L27.1201 25.2736C26.709 24.5515 26.0666 23.989 25.2966 23.6768L25.2916 68.9999ZM63.3402 68.9999H49.5303V32.3461L61.6891 26.2643C62.2527 25.9829 62.8788 25.8503 63.508 25.8789C64.1372 25.9074 64.7487 26.0964 65.2844 26.4277C65.8201 26.759 66.2623 27.2217 66.569 27.7719C66.8756 28.322 67.0366 28.9415 67.0366 29.5713V65.3035C67.0366 66.2838 66.6472 67.224 65.954 67.9173C65.2607 68.6105 64.3205 68.9999 63.3402 68.9999Z" fill="#FE641A"/>
</svg>
