<svg id="Layer_1" data-name="Layer 1" xmlns="http://www.w3.org/2000/svg" viewBox="0 0 1080 1080"><defs><style>.cls-1{fill:#fe4c17;}</style></defs><title>1</title><path class="cls-1" d="M641.11,642.19H605.93c-1.37-5.19-2.55-10.45-4.22-15.56a7.5,7.5,0,0,0-3.61-3.92c-4.16-2-8.88-2.93-12.74-5.33-4.41-2.75-7.75-2-11.59.71-3.35,2.35-7,4.22-10.17,6.07-8.44-8.44-16.6-16.59-25.15-25.15,2.1-3.56,4.3-7.79,7-11.7,2-2.91,2.3-5.31.5-8.52a54.49,54.49,0,0,1-5.19-12.28c-1.1-4.18-3.41-5.85-7.39-6.57-4.33-.79-8.57-2.13-12.9-3.25v-35.2c5-1.31,10-2.35,14.8-4a9,9,0,0,0,4.67-4.08,150.33,150.33,0,0,0,6.5-15.49,7.41,7.41,0,0,0-.19-5.29c-2.39-4.68-5.25-9.13-7.64-13.2l25.19-25.31c3.86,2.29,8.13,5.12,12.68,7.36a8.88,8.88,0,0,0,6.16.34,150.75,150.75,0,0,0,15.54-6.36,7.43,7.43,0,0,0,3.57-4c1.62-5,2.77-10.16,4.15-15.42h35.26c1.14,4.47,2.44,9,3.43,13.64.71,3.32,2.07,5.35,5.7,6.39a79.58,79.58,0,0,1,13.67,5.73c2.49,1.24,4.39,1.39,6.77-.18,4.13-2.73,8.47-5.13,12.28-7.41l25.26,25.46c-1.88,3.18-4.16,7.55-6.94,11.59-2,2.86-1.89,5.21-.2,8.09,1.58,2.69,3.31,5.57,3.79,8.56,1.23,7.71,6.23,10.35,13.1,11.34a79.73,79.73,0,0,1,8.56,2.2v35.25c-5.15,1.34-10.28,2.5-15.27,4.1a7.5,7.5,0,0,0-4.06,3.44,161.3,161.3,0,0,0-6.61,16A8.08,8.08,0,0,0,701,586c2.29,4.55,5.1,8.85,7.46,12.84l-25.25,25.23c-3.83-2.27-8.3-4.73-12.55-7.52-2.41-1.59-4.3-1.33-6.77-.14-4.75,2.29-9.82,3.91-14.53,6.24a9,9,0,0,0-4.2,4.53C643.5,632,642.46,637,641.11,642.19ZM623.45,475.58A63.52,63.52,0,1,0,687,538.91,63.56,63.56,0,0,0,623.45,475.58Z"/><path class="cls-1" d="M353.44,422.36c2-2.35,3.88-4.84,6.05-7,18.59-18.67,37.27-37.24,55.83-55.94a13.43,13.43,0,0,1,10.24-4.22q82.28.12,164.56.06c24.07,0,40.49,16.48,40.52,40.6,0,6.83,0,13.66,0,20.72H615.29c0-7,0-14,0-20.91,0-5.64-1.13-11-4.63-15.59-4.86-6.43-11.46-9.43-19.34-9.44q-79.39-.08-158.78,0c-.47,0-.93.1-1.81.2-.07,1.29-.21,2.55-.21,3.81,0,10.94.06,21.89,0,32.83-.12,14.21-8.4,23.43-22.4,24.66-5.21.46-10.5.07-16,.07V416.77c4.61,0,9,0,13.43,0,6.72-.06,9.4-2.7,9.43-9.41,0-8.24,0-16.49,0-25.52-1.38,1.24-2.17,1.9-2.89,2.62-13.7,13.69-27.44,27.34-41,41.15a8.33,8.33,0,0,0-2.2,5.26q-.15,126.66-.07,253.32c0,15.6,9.62,25.27,25.18,25.28q98,.06,196,0c15.76,0,25.29-9.65,25.35-25.48,0-6.72,0-13.44,0-20.43h15.42c-.7,11.41,1.75,23.05-1.93,34.24-4.63,14.1-14.55,22.83-29,26.28-.79.19-1.54.5-2.3.76H386.65a8.32,8.32,0,0,0-1.58-.67c-9.31-1.73-16.76-6.45-22.9-13.63-4.73-5.53-6.85-12.13-8.73-18.91Z"/><path class="cls-1" d="M422.92,547.55v-15h68.95v15Z"/><path class="cls-1" d="M438.3,478.7h61.21v14.87H438.3Z"/><path class="cls-1" d="M438.27,601.34V586.5h61.3v14.84Z"/><path class="cls-1" d="M384.46,655.65h15.18c0,4.46,0,8.85,0,13.25,0,6.81,2.86,9.68,9.59,9.72,4.31,0,8.63,0,13.23,0V694c-9-.66-18.12,1.78-26.48-3.11-6.9-4-11-10-11.47-18C384.18,667.27,384.46,661.62,384.46,655.65Z"/><path class="cls-1" d="M407.39,547.57H392.14V532.3c4.59,0,9.1-.08,13.6.1.58,0,1.55,1.37,1.57,2.13C407.47,538.72,407.39,542.91,407.39,547.57Z"/><path class="cls-1" d="M438.38,678.79h15v14.94h-15Z"/><path class="cls-1" d="M422.54,493.72H407.69V478.8h14.85Z"/><path class="cls-1" d="M422.64,586.43v14.86H407.71V586.43Z"/></svg>