<svg id="Layer_1" data-name="Layer 1" xmlns="http://www.w3.org/2000/svg" viewBox="0 0 1080 1080"><defs><style>.cls-1{fill:#fe4c17;}</style></defs><title>1</title><path class="cls-1" d="M832.67,835.8H730.84c-4-15-7.39-30.26-12.22-45-1.47-4.52-6.06-9.27-10.44-11.35-12-5.72-25.72-8.47-36.88-15.42-12.77-8-22.44-5.73-33.56,2.07-9.68,6.79-20.34,12.2-29.44,17.56l-72.78-72.79c6.07-10.33,12.45-22.57,20.19-33.87,5.78-8.45,6.66-15.39,1.47-24.68-6.25-11.19-11.77-23.2-15-35.53-3.19-12.1-9.89-17-21.4-19-12.54-2.28-24.79-6.17-37.33-9.4V486.43c14.49-3.79,29-6.82,42.83-11.6A26,26,0,0,0,539.77,463a432.59,432.59,0,0,0,18.8-44.83c1.64-4.54,1.61-11.13-.52-15.31-6.94-13.57-15.2-26.45-22.13-38.21l72.91-73.28c11.18,6.63,23.53,14.82,36.72,21.32,5,2.45,12.49,2.77,17.8,1a429.37,429.37,0,0,0,45-18.4,21.54,21.54,0,0,0,10.32-11.46c4.71-14.49,8-29.42,12-44.64h102c3.3,12.94,7.07,26.11,9.93,39.47,2.07,9.63,6,15.5,16.52,18.5,13.67,3.89,26.78,10.19,39.56,16.58,7.2,3.6,12.7,4,19.58-.52,12-7.89,24.53-14.85,35.55-21.43L1027,365.48c-5.43,9.21-12,21.87-20.07,33.55-5.69,8.28-5.47,15.07-.58,23.41,4.55,7.79,9.57,16.14,10.95,24.79,3.56,22.32,18,29.95,37.92,32.82,8.34,1.21,16.42,4.17,24.78,6.38v102c-14.9,3.9-29.75,7.25-44.18,11.89-4.6,1.49-9.73,5.66-11.77,9.95a469.23,469.23,0,0,0-19.13,46.25,23.44,23.44,0,0,0,1.12,16.56c6.65,13.17,14.77,25.6,21.61,37.16l-73.1,73c-11.08-6.57-24-13.69-36.33-21.78-7-4.58-12.43-3.85-19.6-.39-13.72,6.63-28.4,11.31-42.06,18.06-5.07,2.51-10.32,7.89-12.13,13.12C839.6,806.22,836.59,820.77,832.67,835.8ZM781.54,353.53c-101.23.06-183.61,82.41-183.68,183.62S680.14,721,781.14,721.22c101.83.21,184.6-82.55,184.41-184.38C965.36,435.74,882.77,353.47,781.54,353.53Z"/><path class="cls-1" d="M0,199.49c5.82-6.81,11.22-14,17.52-20.35,53.8-54,107.86-107.8,161.58-161.92C187.55,8.7,196.75,5,208.76,5q238.15.35,476.31.17c69.69,0,117.22,47.7,117.29,117.51,0,19.77,0,39.55,0,60H757.94c0-20.37.06-40.44,0-60.51-.07-16.33-3.28-31.73-13.41-45.14-14.07-18.62-33.17-27.29-56-27.31q-229.8-.24-459.6-.05c-1.35,0-2.7.28-5.23.56-.22,3.72-.62,7.37-.63,11-.05,31.68.19,63.37-.08,95.05-.35,41.11-24.31,67.82-64.83,71.37-15.09,1.32-30.39.22-46.22.22V183.31c13.33,0,26.1.1,38.86,0,19.46-.19,27.2-7.84,27.32-27.24.14-23.87,0-47.74,0-73.89-4,3.61-6.27,5.51-8.36,7.6C130.12,129.38,90.37,168.9,51.05,208.85a23.93,23.93,0,0,0-6.35,15.23q-.47,366.63-.23,733.26c0,45.15,27.87,73.14,72.9,73.17q283.59.16,567.18,0c45.63,0,73.19-27.93,73.37-73.77.08-19.45,0-38.89,0-59.12h44.61c-2,33,5.08,66.71-5.56,99.09-13.42,40.82-42.12,66.11-84.08,76.09-2.26.54-4.44,1.44-6.66,2.18H96.12a22.88,22.88,0,0,0-4.57-1.92c-26.95-5-48.53-18.69-66.29-39.45-13.69-16-19.82-35.13-25.26-54.75Z"/><path class="cls-1" d="M201.09,561.86V518.3H400.68v43.56Z"/><path class="cls-1" d="M245.64,362.57H422.81v43H245.64Z"/><path class="cls-1" d="M245.52,717.55V674.6H423v42.95Z"/><path class="cls-1" d="M89.77,874.75h44c0,12.91,0,25.63,0,38.35.1,19.71,8.29,28,27.76,28.15,12.5.08,25,0,38.29,0v44.57c-26-1.93-52.43,5.13-76.65-9-20-11.66-31.73-29.05-33.17-52.2C89,908.39,89.77,892.05,89.77,874.75Z"/><path class="cls-1" d="M156.15,561.9H112V517.72c13.3,0,26.36-.23,39.39.29,1.66.06,4.47,4,4.55,6.16C156.39,536.28,156.15,548.42,156.15,561.9Z"/><path class="cls-1" d="M245.85,941.74h43.41V985H245.85Z"/><path class="cls-1" d="M200,406H157V362.86h43Z"/><path class="cls-1" d="M200.29,674.38v43h-43.2v-43Z"/></svg>