<svg id="Layer_1" data-name="Layer 1" xmlns="http://www.w3.org/2000/svg" viewBox="0 0 1080 1080"><defs><style>.cls-1{fill:#fe4c17;stroke-miterlimit:10;stroke-width:0.75px;}.cls-1,.cls-2{stroke:#fe4c17;}.cls-2{fill:none;stroke-linecap:round;stroke-linejoin:round;stroke-width:53px;}</style></defs><title>1</title><path class="cls-1" d="M1080,772.49q0,122.07,0,244.13c0,37.29-18.8,56.29-55.71,56.3q-71.65,0-143.32,0c-33.15-.05-53.19-19.82-53.2-52.68q-.07-248.38,0-496.76c0-32.88,20-52.57,53.23-52.61q72.88-.11,145.75,0c33.67,0,53.22,19.81,53.24,53.86Q1080,648.6,1080,772.49ZM886.45,529.19v485h134.81v-485Z"/><path class="cls-1" d="M666.16,869.54q0,74.7,0,149.39c0,34.51-19.65,54-54.37,54q-72.25.06-144.53,0c-33.68-.05-53.32-19.84-53.33-53.77q-.06-150,0-300c0-34.56,19.55-53.93,54.34-53.95q72.25-.06,144.53,0c33.71,0,53.31,19.78,53.36,53.74Q666.25,794.24,666.16,869.54Zm-193.93,144.6H607.39V724H472.23Z"/><path class="cls-1" d="M0,946.76c0-24.7-.09-49.39,0-74.09.14-31.58,20.12-51.88,51.42-52q74.69-.21,149.38,0c30.8.09,51.25,20.23,51.38,50.8q.31,75.3,0,150.6c-.13,30.51-20.63,50.69-51.42,50.78q-74.68.24-149.38,0c-31.29-.1-51.24-20.43-51.38-52C0,996.15,0,971.45,0,946.76ZM194,879.41H58.78v134.77H194Z"/><path class="cls-2" d="M42,675.39,192.32,552.93a28.32,28.32,0,0,1,36.47,1.66l73,67.44a28.31,28.31,0,0,0,37.81.56L1048.36,29.84H856"/><line class="cls-2" x1="1048.36" y1="29.84" x2="1048.5" y2="208.5"/></svg>