<svg id="Layer_1" data-name="Layer 1" xmlns="http://www.w3.org/2000/svg" viewBox="0 0 1080 1080"><defs><style>.cls-1{fill:#fe4c17;}</style></defs><title>1</title><path class="cls-1" d="M517.75,732.75c-2.71-1.2-5.61-2.1-8.1-3.65A21.69,21.69,0,0,1,499,710.43c-.11-3.62-.21-7.26,0-10.86.16-2.54-1-3.25-3.14-4.1-10.87-4.31-21.7-8.76-32.42-13.45-2.23-1-3.47-1-5.07.82-2.33,2.6-4.85,5-7.4,7.43-9.29,8.69-22.59,8.88-31.79.07q-14.2-13.61-27.82-27.83c-8.8-9.18-8.58-22.5.15-31.77,2.57-2.73,5.41-5.21,7.84-8a4.33,4.33,0,0,0,.53-3.71q-6.83-17-14-33.8a4.31,4.31,0,0,0-3-2.26c-3.85-.29-7.74,0-11.61-.15a22.66,22.66,0,0,1-22.21-22.35q-.26-19.68,0-39.36a22.64,22.64,0,0,1,22.22-22.33c3.88-.1,7.76.14,11.62-.15a4.31,4.31,0,0,0,3-2.28q7.2-16.82,14-33.79a4.33,4.33,0,0,0-.55-3.71c-2.44-2.84-5.27-5.32-7.84-8.05-8.72-9.28-8.93-22.61-.14-31.78Q405,404.78,419.2,391.15c9.19-8.81,22.51-8.62,31.78.08,2.73,2.57,5.21,5.41,8,7.85a4.32,4.32,0,0,0,3.7.58c11.31-4.55,22.52-9.37,33.86-13.88,1.93-.77,2.45-1.62,2.39-3.47-.11-3.25-.05-6.5,0-9.75.08-11.71,6.26-19.87,17.51-23.15a7.86,7.86,0,0,0,1.29-.66h46.5a7.15,7.15,0,0,0,1.29.66c11.25,3.29,17.43,11.44,17.51,23.15,0,3.25.08,6.5,0,9.74-.06,1.86.45,2.71,2.38,3.48,11.33,4.51,22.54,9.32,33.85,13.88a4.35,4.35,0,0,0,3.71-.58c2.83-2.43,5.31-5.27,8-7.84,9.31-8.71,22.59-8.91,31.78-.1Q677,404.75,690.62,419c8.76,9.11,8.58,22.56-.11,31.8-2.48,2.63-5,5.24-7.7,7.66-1.59,1.44-1.54,2.56-.71,4.48q7.1,16.46,13.75,33.1c.76,1.9,1.4,2.86,3.6,2.75,3.74-.18,7.5-.12,11.24,0a21.75,21.75,0,0,1,18.69,10.65c1.55,2.48,2.43,5.39,3.62,8.11V564a7.53,7.53,0,0,0-.67,1.29c-3.31,11.28-11.41,17.42-23.14,17.51-3.25,0-6.5.08-9.74,0-1.86-.06-2.72.45-3.48,2.38-4.51,11.33-9.33,22.54-13.88,33.85a4.31,4.31,0,0,0,.58,3.71c2.44,2.83,5.28,5.31,7.85,8,8.68,9.22,8.86,22.65.09,31.79Q677,676.73,662.78,690.36c-9.18,8.8-22.45,8.6-31.77-.11-2.55-2.39-5.08-4.82-7.41-7.43-1.61-1.8-2.86-1.76-5.07-.79q-16.08,7-32.41,13.45c-2.15.85-3.29,1.57-3.13,4.1a106.31,106.31,0,0,1,0,10.86,22,22,0,0,1-11.27,19.1c-2.31,1.39-5,2.16-7.49,3.21Zm23-15H558c7.45,0,10-2.65,10-10.22,0-5.13,0-10.25,0-15.37,0-5.46,1.73-7.79,7-9.1A150.78,150.78,0,0,0,617.7,665.3c4.28-2.62,7.2-2.21,10.77,1.27,4,3.93,7.94,8,11.95,11.91,4.56,4.46,8.56,4.53,13,.11q12.78-12.66,25.44-25.45c4.29-4.33,4.3-8.38.07-12.75-3.92-4-8-7.95-11.9-11.95-3.72-3.78-4.18-6.6-1.47-11.05a151.69,151.69,0,0,0,17.75-42.69c1.27-5.09,3.61-6.84,8.77-6.88,5.87-.05,11.75.06,17.62,0,5.07-.09,8.21-3.15,8.25-8.22q.13-18.75,0-37.49c0-5.26-3.17-8.28-8.49-8.36-5.75-.07-11.5,0-17.25,0-5.22,0-7.63-1.77-8.87-6.76a153.48,153.48,0,0,0-17.88-43c-2.59-4.25-2.1-7.1,1.48-10.73,3.94-4,8-7.93,11.9-12,4.27-4.39,4.33-8.49.11-12.75q-12.78-12.93-25.71-25.71c-4.18-4.13-8.27-4.13-12.47-.07s-8.11,8.14-12.22,12.16c-3.62,3.55-6.51,4-10.76,1.42a151.08,151.08,0,0,0-43-17.88c-4.83-1.19-6.67-3.63-6.71-8.53-.06-5.87,0-11.75,0-17.62-.07-5.31-3.1-8.41-8.41-8.44q-18.55-.12-37.11,0c-5.52,0-8.49,3.11-8.55,8.69-.06,5.75,0,11.5,0,17.24,0,5-1.83,7.47-6.58,8.64a152.82,152.82,0,0,0-43.05,17.85c-4.45,2.7-7.23,2.22-11-1.53s-7.75-7.81-11.68-11.65c-4.57-4.47-8.55-4.52-13-.1q-12.78,12.68-25.45,25.45c-4.3,4.34-4.31,8.37-.07,12.73,3.92,4,8,7.94,11.9,12,3.72,3.78,4.18,6.63,1.47,11.06a151.4,151.4,0,0,0-17.75,42.69c-1.26,5.07-3.63,6.85-8.77,6.89-5.87.05-11.75-.06-17.62,0-5.08.08-8.21,3.15-8.25,8.22q-.12,18.73,0,37.49c0,5.25,3.18,8.28,8.5,8.36,5.87.07,11.74,0,17.62,0,4.74,0,7.29,1.88,8.4,6.4a152.62,152.62,0,0,0,18,43.39c2.51,4.11,2.1,7.06-1.22,10.48-3.92,4-8,7.94-11.91,11.95-4.65,4.72-4.7,8.65-.11,13.27Q415.83,666,428.47,678.5c4.5,4.46,8.5,4.48,13,.08,4-3.92,7.94-8,11.95-11.91,3.63-3.56,6.46-4,10.74-1.42a153.64,153.64,0,0,0,43,17.87c4.83,1.2,6.66,3.63,6.71,8.54.06,5.75,0,11.5,0,17.24s3,8.78,8.8,8.84C528.75,717.8,534.75,717.75,540.75,717.75Z"/><path class="cls-1" d="M528.23,534.4c13.54-13.57,26.71-26.73,39.83-39.93a26.39,26.39,0,0,1,14.15-7.89A25.27,25.27,0,0,1,606,528c-.9,1-1.87,2-2.84,3Q575.62,558.55,548,586.12c-12.52,12.51-27,12.52-39.49,0-10.52-10.51-21.11-21-31.52-31.58a24.89,24.89,0,0,1-5-28.09,25.31,25.31,0,0,1,24-14.89,24.92,24.92,0,0,1,17.07,7.53C518,524.07,522.94,529.05,528.23,534.4Zm69.68-22.61-.59-.4c-.16-.86-.24-1.73-.47-2.57-2.26-8.18-11.65-10.23-18.09-3.83-14.71,14.62-29.34,29.33-44,44-4.53,4.51-8.4,4.51-12.91,0-6.3-6.24-12.51-12.58-18.84-18.79-4.75-4.65-10.74-4.87-15-.71s-4.3,10.49.46,15.29q16,16.11,32.07,32.07c4.89,4.83,10.69,4.83,15.57,0Q565,548,593.79,519C595.67,517.1,596.56,514.22,597.91,511.79Z"/><path class="cls-1" d="M541.15,420C603,420.82,655,468.42,660.43,529.77a119.56,119.56,0,0,1-12,64.33c-2.85,5.82-6.73,7.84-11.07,5.76s-5.21-6.39-2.45-12.25c15.93-33.83,15.63-67.57-3.5-99.7C609.91,451.77,577,434.66,535,436a96.65,96.65,0,0,0-40.61,10.74,19,19,0,0,1-4.14,1.7,7.27,7.27,0,0,1-8.61-4.87,7,7,0,0,1,4.19-9.23c9-3.64,18-7.62,27.32-10.05C522.21,421.92,531.78,421.33,541.15,420Z"/><path class="cls-1" d="M541,661.29A121,121,0,0,1,422,555.68c-3.12-24.32,1.12-47.51,12.17-69.42,2.46-4.88,6.56-6.61,10.65-4.56s5.15,6.31,2.71,11.29c-13.2,26.9-15.21,54.56-5.4,82.89,15.09,43.59,59.28,72.83,105.12,69.72a109.29,109.29,0,0,0,41.31-11.13,12.59,12.59,0,0,1,6-1.38c3.52.24,5.61,2.7,6.18,6.08.63,3.8-1.27,6.45-4.61,8.16a111.45,111.45,0,0,1-32.45,11.14C556.18,659.74,548.58,660.37,541,661.29Z"/><path class="cls-1" d="M461.31,453.75a7.47,7.47,0,1,1-7.31,7.41A7.45,7.45,0,0,1,461.31,453.75Z"/><path class="cls-1" d="M620.36,612.8a7.48,7.48,0,1,1-7.31,7.49A7.66,7.66,0,0,1,620.36,612.8Z"/></svg>