<svg id="Layer_1" data-name="Layer 1" xmlns="http://www.w3.org/2000/svg" viewBox="0 0 1080 1080"><defs><style>.cls-1{fill:#fe4c17;stroke:#fe4c17;stroke-miterlimit:10;stroke-width:0.75px;}</style></defs><title>1</title><path class="cls-1" d="M187.81,2.11H559.06a41.49,41.49,0,0,0,5.75,2c61.36,12.17,103.71,63.14,103.9,125.54.18,56.23.3,112.47,0,168.7-.38,61.94-45.66,115.54-107,123.34-29.43,3.75-59.6,1.81-89.44,2.21-18.52.25-37.06,0-56,0v83.41a11.4,11.4,0,0,0,2.53.81q126,.1,252-.09c2.86,0,6.91-3,8.36-5.66,7.49-13.89,14.31-28.14,21.38-42.26,16.16-32.33,32.18-64.73,48.57-96.95,8.06-15.85,21.5-24.1,39.27-23.45s30.29,9.88,37.55,26.16c.89,2,1.85,4,3.13,6.72,11.66-25.59,29.33-36.69,50.15-32.35C901.72,345,913.43,362,913.44,390V508.39c15.65,0,30-.38,44.35.07,40.34,1.25,72.94,18,98.16,49.52,14.18,17.72,20.61,38.69,26.24,60.07v31.64c-.71,2.66-1.55,5.3-2.11,8-9,43.19-33.41,74.31-73.41,92.72-6.82,3.14-9,6.45-9,13.79.25,88.47-.32,176.94.46,265.4.23,26.15-8.86,44-34.05,52.52H947.19c-25.25-8.54-34.3-26.41-34.05-52.59.8-85,.3-170.09.3-255.13V762.2H170.94v12.18c0,85-.5,170.09.3,255.13.24,26.17-8.82,44-34.05,52.6H120.31c-25.25-8.54-34.28-26.41-34-52.59.79-88.55.23-177.12.44-265.68,0-6.8-1.65-10.13-8.34-13.24C32.07,729.05,5.49,692.53,2.63,641.48-1.49,568.06,56.18,508.62,129.94,508.4c63.26-.19,126.52,0,189.77,0h11V424H318.85c-38.66,0-77.32.3-116-.1-68-.7-124.12-56.62-124.64-124.46-.45-57.63-.63-115.28.09-172.9.52-40.34,17.92-72.94,49.42-98.15C145.46,14.19,166.41,7.7,187.81,2.11ZM373.4,86.48q-82.2,0-164.42,0c-29.3,0-46.44,17.15-46.47,46.46q-.07,80.1,0,160.2c0,29.26,17.21,46.42,46.51,46.43q164.41.06,328.85,0c29.25,0,46.45-17.21,46.48-46.47q.09-80.12,0-160.21c0-29.27-17.22-46.39-46.53-46.41Q455.61,86.43,373.4,86.48ZM542,592.73H168.84c-13.71,0-27.42-.34-41.11.09-30.06.95-49.64,31.31-37.61,58.55,8.18,18.5,23.3,25.81,43.16,25.81q409-.18,818.08-.09c2.46,0,4.93.06,7.38-.13a42.61,42.61,0,0,0,38.9-38,41.58,41.58,0,0,0-30-44.17c-6-1.67-12.46-2-18.71-2Q745.5,592.66,542,592.73ZM828.63,392.46l-57.46,115.3h57.46Z"/><path class="cls-1" d="M542.23,997.73q-121.22,0-242.43,0c-31.09-.05-51.65-27.34-42.25-55.55a42.22,42.22,0,0,1,36.88-28.66c2.1-.16,4.21-.12,6.32-.12q241.38,0,482.75,0c20.9,0,36.71,10.27,43,27.64,10.12,27.94-10.18,56.53-40.79,56.63-67.46.24-134.92.08-202.38.08Z"/></svg>