<svg width="250" height="250" viewBox="0 0 250 250" fill="none" xmlns="http://www.w3.org/2000/svg">
<path d="M80.2242 1.32422L69.0179 4.70018C59.0397 7.70929 50.1288 13.5062 43.3339 21.4086C36.5391 29.3111 32.143 38.9901 30.6633 49.3066C26.0213 81.6282 36.3993 119.42 61.422 162.761C86.3822 205.992 113.859 233.843 144.102 246.034C153.819 249.951 164.456 250.994 174.749 249.041C185.042 247.087 194.558 242.219 202.165 235.015L210.636 226.982C216.137 221.776 219.56 214.75 220.271 207.209C220.981 199.669 218.929 192.127 214.497 185.986L193.303 156.603C190.438 152.636 186.403 149.665 181.764 148.107C177.126 146.548 172.116 146.48 167.436 147.913L135.38 157.712L134.552 157.869C131.02 158.384 122.861 150.742 112.702 133.143C102.074 114.731 99.886 103.963 102.809 101.181L119.11 85.9732C125.071 80.4164 129.144 73.1327 130.755 65.1442C132.367 57.1556 131.438 48.8628 128.097 41.4293L117.75 18.4384C114.639 11.52 109.118 5.96895 102.217 2.82015C95.3153 -0.328644 87.4887 -0.860326 80.2242 1.32422ZM103.528 24.8465L113.843 47.8374C115.852 52.2954 116.414 57.2708 115.449 62.0645C114.485 66.8582 112.043 71.2294 108.467 74.5637L92.1182 89.7868C81.6465 99.6959 85.1162 116.607 99.1827 140.958C112.405 163.87 124.471 175.186 137.444 173.217L139.382 172.81L172.016 162.854C173.576 162.375 175.247 162.396 176.794 162.915C178.341 163.434 179.687 164.423 180.643 165.746L201.837 195.129C204.056 198.2 205.084 201.972 204.731 205.744C204.377 209.515 202.666 213.031 199.914 215.635L191.428 223.669C185.994 228.811 179.198 232.285 171.848 233.679C164.498 235.073 156.902 234.327 149.963 231.53C123.424 220.84 98.3387 195.411 74.9727 154.946C51.5442 114.388 42.0571 79.8934 46.1364 51.526C47.1924 44.1556 50.3322 37.2404 55.1862 31.5944C60.0401 25.9485 66.4062 21.807 73.5348 19.6575L84.7411 16.2816C88.3743 15.1898 92.2805 15.4568 95.7314 17.0327C99.1823 18.6086 101.942 21.3858 103.496 24.8465" fill="#979797"/>
</svg>
