<svg xmlns="http://www.w3.org/2000/svg" viewBox="0 0 1000 600"><defs><style>.cls-1{fill:#344266;}.cls-2{fill:#202a3f;}.cls-3{fill:#ff7b39;}.cls-4{fill:#a33a36;}.cls-5{fill:#943531;}.cls-6{fill:#d6794d;}.cls-7{fill:#2e2222;}.cls-8{fill:#e6885d;}.cls-9{fill:#bd653c;}.cls-10{fill:#7f7f7f;}.cls-11{fill:#c6c6c6;}.cls-12{fill:#4d6a99;}.cls-13{fill:#3b5175;}.cls-14{fill:#c7b67f;}.cls-15{fill:#f0e2b4;}.cls-16,.cls-18{fill:#fff;}.cls-17{fill:#7c9fd6;}.cls-18{opacity:0.2;}.cls-19{fill:#b56139;}.cls-20{fill:#e0d5aa;}.cls-21{fill:#ebe4ca;}.cls-22{fill:#c93535;}.cls-23{fill:#325288;}.cls-24{fill:#28426e;}.cls-25{fill:#945436;}.cls-26{fill:#76dcff;}.cls-27{fill:#dd3a3a;}.cls-28{fill:#2e6ecc;}.cls-29{fill:#bd732d;}.cls-30{fill:#f5b43b;}</style></defs><title>Rafer Image</title><g id="OBJECTS"><path class="cls-1" d="M411.27072,425.46788V182.882a102.80808,102.80808,0,0,1,102.6921-102.6921H897.3079A102.80807,102.80807,0,0,1,1000,182.882V425.46788a102.809,102.809,0,0,1-102.6921,102.692H513.96282A102.809,102.809,0,0,1,411.27072,425.46788Zm102.6921-297.88153A55.35765,55.35765,0,0,0,458.66716,182.882V425.46788a55.35852,55.35852,0,0,0,55.29566,55.29551H897.3079a55.35852,55.35852,0,0,0,55.29566-55.29551V182.882a55.35765,55.35765,0,0,0-55.29566-55.29566Z"/><path class="cls-1" d="M0,488.53358V245.94694A102.808,102.808,0,0,1,102.69211,143.25561H486.03718a102.80792,102.80792,0,0,1,102.6921,102.69133V488.53358a102.809,102.809,0,0,1-102.6921,102.692H102.69211A102.80909,102.80909,0,0,1,0,488.53358ZM102.69211,190.65205A55.35744,55.35744,0,0,0,47.3965,245.94694V488.53358a55.35848,55.35848,0,0,0,55.29561,55.29551H486.03718a55.35852,55.35852,0,0,0,55.29566-55.29551V245.94694a55.35749,55.35749,0,0,0-55.29566-55.29489Z"/><path class="cls-2" d="M542.82669,480.95321h44.33584a1.57966,1.57966,0,1,0,0-3.15932H542.82669a1.57966,1.57966,0,0,0,0,3.15932Z"/><path class="cls-2" d="M421.35,143.29276h53.49355a1.58,1.58,0,1,0,0-3.16009H421.35a1.58,1.58,0,0,0,0,3.16009Z"/><path class="cls-2" d="M411.27072,190.65205h47.39644V202.538H411.27072Z"/><path class="cls-2" d="M574.88034,539.93505H506.3795A55.43576,55.43576,0,0,0,524.663,528.04914h56.14729A102.1659,102.1659,0,0,1,574.88034,539.93505Z"/><path class="cls-2" d="M206.79146,543.82909a108.95594,108.95594,0,0,0,18.95466,25.80016c-2.90281,6.31879-30.81477,18.03618-42.38789,16.58789a416.18475,416.18475,0,0,1-25.18981-42.38805Z"/><path class="cls-3" d="M231.21919,237.58008c22.85336,6.17,53.54826,1.29438,96.11369,89.2371-7.37376,114.80423-30.6705,178.043-30.6705,217.01191h-166.412c6.31864-36.86461,0-131.69853,0-161.18938-27.38525-4.2146-33.93926-9.4767-39.86317-15.40062-3.87305-.80467-7.21908-1.45295-9.74535-2.65981,7.42848-55.66614,22.30224-105.41271,34.33694-123.262,5.88458-8.72815,24.68579-13.76546,55.49605-15.79612C182.19988,222.53485,205.48137,230.63135,231.21919,237.58008Z"/><path class="cls-4" d="M160.19814,375.8138c4.547-23.5335,11.88592-65.894,11.88592-74.884,3.68774,20.49639-.20645,82.39145-.20645,100.74649C153.94931,408.44438,148.20605,397.14145,160.19814,375.8138Z"/><path class="cls-5" d="M274.23562,294.69606c1.41657,9.08712,3.0592,18.13708,4.43924,27.22948.80763,5.32585,1.63656,10.6517,2.338,15.99263.44182,3.35986.75757,6.7303,1.3816,10.0642a102.993,102.993,0,0,0-.54195-26.04159C280.62126,312.77235,278.391,303.018,274.23562,294.69606Z"/><path class="cls-5" d="M144.99652,238.87446a59.10048,59.10048,0,0,1,18.22584,16.57173,52.30786,52.30786,0,0,1,5.93014,11.62707c1.47721,3.59508,1.89618,7.534,2.72511,11.29842.4084-3.88051.66351-8.13522-.4524-11.92914a42.918,42.918,0,0,0-5.61874-12.812C160.65054,246.75845,153.52568,240.90341,144.99652,238.87446Z"/><path class="cls-6" d="M482.82469,418.73462c5.67191-5.67191,4.87034-16.609,0-16.609s-24.18334,14.29839-39.50794,29.623c-6.12741,6.12741-52.3882-12.771-82.93121-33.30917-5.79193,30.01771-3.68774,36.86476-6.32019,48.45017,17.37873,11.58525,92.75693,34.63138,100.25071,29.755C467.68525,455.84082,476.63649,437.71214,482.82469,418.73462Z"/><path class="cls-7" d="M184.462,192.81174c-7.31018-18.33825-18.03168-32.0992-26.65956-46.97825-8.63394-14.882-13.1475-54.0658,22.68935-73.23219,29.64739-15.85458,59.785-26.031,87.46917-19.17184,26.60483,6.59271,52.56434,25.287,54.38931,40.17892,2.44886,19.96734-22.43593,24.85665-38.5834,16.29251C253.33627,140.46738,220.75887,195.11181,184.462,192.81174Z"/><path class="cls-8" d="M291.01473,143.24193c-.1382-3.46822-1.24029-36.64152-4.67291-46.29654-10.506,2.3806-43.66486,2.05491-45.28774,13.46946-1.62287,11.41673-14.80395,9.0142-18.09541,22.53155-3.29131,13.51641-5.3243,17.28-11.6308,21.5826-1.09913-23.4281-18.66612-25.50042-26.56379-17.39552-10.63646,10.91272.56775,29.21847,7.62732,33.66969-14.23605,30.05424-5.82986,42.13371-21.91654,54.718,12.71936,24.76322,45.01444,60.85456,61.84205,44.02834,4.72607-16.94,0-30.29179,4.72607-45.59587,15.91832.602,33.88159,4.95911,42.608-7.03687,6.30667-8.6795,9.50547-21.3791,10.89313-37.13107,6.0287.60957,13.04738.91459,13.06246-4.33229C303.63552,167.706,291.15449,146.7117,291.01473,143.24193Z"/><path class="cls-7" d="M282.21833,147.105c.18826,2.78356-1.1568,5.139-3.006,5.26273-1.84457.12452-3.49637-2.029-3.68307-4.81267-.18672-2.78123,1.1599-5.139,3.00742-5.26351C280.38138,142.16939,282.03317,144.32146,282.21833,147.105Z"/><path class="cls-9" d="M284.441,139.076a45.60271,45.60271,0,0,0-5.71451-.02348,25.19887,25.19887,0,0,0-5.423,1.364C275.66277,136.98859,281.23611,136.56122,284.441,139.076Z"/><path class="cls-7" d="M286.58466,131.03793c2.82087-1.98277.56479-8.54439-8.74324-8.40992-6.82124.10168-14.61724,5.15267-13.89449,8.34308.72259,3.19056,7.53326-.43639,13.4466-.15251C280.98411,130.99472,284.658,132.39528,286.58466,131.03793Z"/><path class="cls-9" d="M192.3914,170.80317a18.95764,18.95764,0,0,0,4.94325.4084c1.69735-.06747,3.29146-.61859,4.96906-.78493C199.908,172.94156,194.76749,173.9998,192.3914,170.80317Z"/><path class="cls-9" d="M203.51679,156.03652c-1.588-7.00795-5.048-16.48233-10.68046-12.31328-5.63412,4.16812-1.21913,15.53339,6.21246,19.37363C197.96925,158.34422,198.47637,155.86038,203.51679,156.03652Z"/><path class="cls-9" d="M207.21805,192.11262c-.94117,12.39226,12.00438,30.0146,28.03043,40.3375a70.373,70.373,0,0,1,1.7945-8.49652C229.34726,222.65331,212.43306,215.13372,207.21805,192.11262Z"/><path class="cls-9" d="M285.61457,194.70792c-6.30962,2.902-13.723-2.25452-13.47553-8.987,1.52727,2.21659,2.80409,4.54169,5.17552,6.00305a16.66723,16.66723,0,0,0,4.32233,1.9736C282.03317,193.81137,285.563,194.46726,285.61457,194.70792Z"/><path class="cls-10" d="M172.20408,389.15579c-8.64467,0-37.87139-.45862-34.31719,42.98751,3.554,43.44613,13.691,53.75472,48.71274,45.24374C191.602,441.62141,186.37794,408.96969,172.20408,389.15579Z"/><path class="cls-11" d="M321.47426,288.56787c-30.7403,30.7389-104.68389,78.13985-149.27018,100.58792-4.56377,21.9226-5.64,68.19566,14.39555,88.23125,31.59659,2.678,125.56816,4.56206,178.56965,14.96175C360.76968,469.04459,321.47426,315.613,321.47426,288.56787Z"/><path class="cls-11" d="M197.605,492.34879c4.26605,30.63708,16.9156,54.60028,33.23625,70.92389-2.90141,6.31863-30.81337,18.03758-42.388,16.58773-15.80887-23.69752-37.59047-59.507-43.68446-94.13247C167.115,490.59828,190.96736,492.34879,197.605,492.34879Z"/><path class="cls-12" d="M315.27393,395.977c11.84488,56.97156,36.133,100.10194,54.25111,96.33383,18.11967-3.76671,23.20409-53.00321,11.35906-109.97492-11.84332-56.97016-36.133-100.09821-54.25111-96.32994C308.515,289.77333,303.42906,339.00672,315.27393,395.977Z"/><path class="cls-13" d="M309.17839,327.95439c2.37454-8.41987,6.11078-13.77012,11.08435-14.80395,14.40006-2.99235,33.70544,31.28846,43.11965,76.56859,9.41437,45.28308,5.373,84.419-9.02866,87.41135-3.13506.65278-6.50239-.46608-9.9518-3.07428-11.45933-17.33629-22.34017-45.42284-29.128-78.07907C310.01338,370.67016,308.099,346.90144,309.17839,327.95439Z"/><path class="cls-14" d="M309.58679,356.3172c8.719,2.08445,21.41408,2.30614,32.14476,2.30614,0,10.21282,8.2529,41.13237,12.9471,62.2702-13.55139,4.22968-19.78048,9.47344-26.24043,20.77948a301.971,301.971,0,0,1-13.16429-45.696A310.95972,310.95972,0,0,1,309.58679,356.3172Z"/><path class="cls-15" d="M338.30188,391.81716c3.57689,17.195,10.90665,30.21343,16.37677,29.07638,5.467-1.13706,7.0019-15.99714,3.42811-33.19382-3.57533-17.195-10.90681-30.212-16.37521-29.07638C336.263,359.762,334.7281,374.622,338.30188,391.81716Z"/><path class="cls-16" d="M341.73155,358.62334c-2.25158.65434-3.77729,3.14113-4.70043,5.12235a25.36412,25.36412,0,0,0-2.05708,8.76453c-.48582,6.64215.61174,13.00944,1.76108,19.51945,1.51965,6.08793,2.94525,12.475,5.98921,18.027a24.42236,24.42236,0,0,0,5.28481,7.433,11.81228,11.81228,0,0,0,3.43729,2.22576c.17457.07136,3.27466,1.1128,3.23222,1.1781.123-.211-2.38511-1.49385-2.55519-1.59412a11.049,11.049,0,0,1-2.89518-2.45181,26.93691,26.93691,0,0,1-4.35716-7.76708c-2.48072-5.58251-3.65587-11.81456-5.05255-17.72945-1.14467-5.94071-2.69479-12.10916-2.52938-18.20471a30.07725,30.07725,0,0,1,.91708-8.89963C338.77713,362.26241,339.80194,359.674,341.73155,358.62334Z"/><path class="cls-17" d="M333.12947,487.5027c-6.83648-.80918-13.925-1.5425-21.14249-2.21052-39.25578-72.83826-40.194-129.35446-36.16626-159.6789,7.389-5.28185,14.42742-10.52111,20.90851-15.60708C292.60434,324.02367,277.5134,391.51354,333.12947,487.5027Z"/><path class="cls-18" d="M171.88227,412.24747a4.69977,4.69977,0,0,0,2.43517-.6772l110.35891-66.313a4.73913,4.73913,0,1,0-4.88262-8.12387l-110.35736,66.313a4.739,4.739,0,0,0,2.4459,8.80107Z"/><path class="cls-17" d="M313.72692,396.29728c-12.20632-58.70854-6.67853-107.83419,12.58582-111.83907a12.5662,12.5662,0,0,1,2.56575-.26273c18.93492,0,41.95975,42.05084,53.55417,97.81865,5.7585,27.71,7.74128,54.4955,5.57941,75.42376-2.2211,21.51125-8.67343,34.44778-18.16677,36.42a12.69639,12.69639,0,0,1-2.56561.26258C348.34478,494.12045,325.32135,452.06509,313.72692,396.29728Zm13.228-108.74583c-16.94312,3.52372-21.58416,53.02824-10.134,108.10517,10.925,52.55066,33.56117,95.30451,50.45874,95.30451a9.44031,9.44031,0,0,0,1.92355-.19728c7.91726-1.64573,13.62725-13.91129,15.66616-33.64932,2.13-20.61392.16556-47.05785-5.53231-74.45818-10.92485-52.54926-33.56118-95.30078-50.4586-95.30078A9.48115,9.48115,0,0,0,326.955,287.55145Z"/><path class="cls-8" d="M90.38722,367.23909c-2.07092,56.50719-5.9362,96.61164,7.0975,109.6469,13.0337,13.0337,159.48612,46.1106,173.11182,52.41867,10.70487,4.95678,22.46626,4.82323,35.94178,4.60916,8.02966-.129,22.3994-2.23929,28.30668-8.82221,8.98467-1.67915,15.93029-5.52779,15.93029-9.21537,3.29006-.659,14.06162-6.10767,14.06162-11.37429,7.89907-3.68618,11.18135-9.32777,8.44863-12.0605-1.06881-1.06881-61.87688,10.269-68.52509,4.67446,5.79192-10.00637,21.40957-20.26024,13.43-24.29108-6.2535-3.15932-18.57207,11.75688-22.90807,12.39148-15.60242,2.28639-16.92774,9.7225-25.08053,8.54129-32.70037-4.73369-95.28927-52.7495-118.472-59.11679,4.06411-28.56631,5.83437-39.49893,8.46837-58.827C135.47752,373.75967,106.53624,369.42381,90.38722,367.23909Z"/><path class="cls-19" d="M323.2596,508.71484c14.479,0,41.00178-3.65571,41.26748-3.69224a.47353.47353,0,0,0-.129-.93822c-.26569.03653-26.7247,3.68322-41.13844,3.68322a.47362.47362,0,1,0,0,.94724Z"/><path class="cls-19" d="M321.41658,518.42365c4.70478,0,27.81931-1.94328,28.80153-2.02677a.47319.47319,0,0,0,.43125-.51162.46353.46353,0,0,0-.51163-.4311c-.23988.01974-24.0557,2.02226-28.72115,2.02226a.47362.47362,0,1,0,0,.94723Z"/><path class="cls-19" d="M320.23087,526.48829a134.137,134.137,0,0,0,14.2603-.92609.4742.4742,0,1,0-.11691-.94117,132.98767,132.98767,0,0,1-14.14339.92.47362.47362,0,1,0,0,.94723Z"/><path class="cls-19" d="M127.61778,438.46364a.79273.79273,0,0,0,.55874-.23086c5.95283-5.95283,23.23439-2.84653,23.409-2.81466a.78976.78976,0,0,0,.287-1.55323c-.744-.14116-18.27606-3.28679-24.81343,3.25058a.78952.78952,0,0,0,.55873,1.34817Z"/><path class="cls-4" d="M751.67383,212.82681c-48.24977,2.634-125.18555,38.0284-153.76415,58.36917,20.21484,46.74443,66.93408,148.40411,86.09224,188.60121,22.158-6.90472,76.03861-41.34193,100.811-55.39127C772.62634,365.61466,770.93819,241.85391,751.67383,212.82681Z"/><path class="cls-20" d="M751.67383,212.82681c-52.115,6.88126-116.98738,38.0284-145.56737,58.36917,20.21624,46.74583,66.93408,148.40411,86.09364,188.60121,22.158-6.90317,76.03861-41.34193,100.80945-55.39127C780.82452,365.61622,770.93819,241.85391,751.67383,212.82681Z"/><path class="cls-21" d="M751.67383,212.82681c-45.91472,8.9671-109.65606,38.0284-138.2345,58.36917,20.21469,46.74583,66.93409,148.40411,86.09209,188.60121,22.15813-6.90317,76.03877-41.34193,100.811-55.39127C788.156,365.61622,770.93819,241.85391,751.67383,212.82681Z"/><path class="cls-22" d="M751.67383,212.82681c-39.55658,8.41614-98.21648,38.03-126.79492,58.37072,20.21469,46.74428,66.93253,148.404,86.09209,188.60122,22.15813-6.90473,76.03877-41.34194,100.811-55.39128C799.59558,365.61622,770.93819,241.85391,751.67383,212.82681Z"/><path class="cls-21" d="M670.56744,293.1164a1.56605,1.56605,0,0,0,.77125-.20194c21.27743-11.9352,63.28723-30.28946,63.70792-30.47244a1.57973,1.57973,0,1,0-1.26314-2.896c-.42208.183-42.57771,18.60021-63.99039,30.61283a1.58,1.58,0,0,0,.77436,2.95752Z"/><path class="cls-21" d="M677.46,305.75383a1.57872,1.57872,0,0,0,.77125-.202c21.27588-11.9352,63.28584-30.2879,63.70776-30.47244a1.57972,1.57972,0,1,0-1.26313-2.896c-.42348.18531-42.57756,18.60176-63.99022,30.6136a1.57908,1.57908,0,0,0,.77434,2.95675Z"/><path class="cls-21" d="M683.42346,319.49955a1.56109,1.56109,0,0,0,.77123-.202c21.27588-11.93442,63.28584-30.28635,63.70792-30.47011a1.58,1.58,0,0,0-1.26469-2.896c-.42208.18376-42.57771,18.59865-63.98867,30.61049a1.57935,1.57935,0,0,0,.77421,2.95753Z"/><path class="cls-7" d="M819.93168,147.43367c7.24784-19.94138,18.31089-35.07631,27.09221-51.34457,8.78272-16.27184,12.34142-58.51562-26.79152-77.92423C787.863,2.11006,736.43271,12.86032,711.52973,8.01734c-24.89987-4.84313-29.63822,21.443-2.06313,41.4133C743.16581,81.26555,781.0159,151.10089,819.93168,147.43367Z"/><path class="cls-8" d="M703.83107,97.69394c.03326-3.73251.12593-39.40471,3.49481-49.88929,11.3637,2.21193,46.9759.76814,49.09532,12.97665,2.11943,12.21161,16.1991,9.19718,20.17971,23.61015,3.98375,14.41156,6.28847,18.38613,13.20828,22.80174.407-25.20427,19.20977-28.00913,27.9622-19.56345,11.78409,11.37366.3507,31.4077-7.084,36.42371,16.28118,31.81611,27.04355,53.33715,44.73818,66.3284-22.47994,23.15776-61.78142,28.5147-80.21215,40.93805,3.47349-17.86533,5.23613-32.689-5.66447-48.85468-17.08273,1.17125-41.313,6.60033-51.0826-5.99994-7.06112-9.11665-10.91584-22.65374-12.92442-39.52908-6.4598.85318-13.987,1.41191-14.17682-4.2244C691.07812,124.39127,703.79608,101.42412,703.83107,97.69394Z"/><path class="cls-7" d="M712.38447,103.71735c-.10774,2.97105,1.4029,5.43669,3.3765,5.508,1.96909.072,3.65882-2.27582,3.76655-5.24765.10929-2.96965-1.40274-5.43825-3.37494-5.51116C714.18349,98.39757,712.49376,100.74552,712.38447,103.71735Z"/><path class="cls-9" d="M710.75553,95.97079a48.90558,48.90558,0,0,1,6.138-.2133,26.94538,26.94538,0,0,1,5.8709,1.28662C720.11813,93.4369,714.11819,93.16282,710.75553,95.97079Z"/><path class="cls-7" d="M708.18822,87.793c-3.094-2.03579-.88816-9.15926,9.11665-9.32172,7.33148-.11535,15.87121,5.05488,15.20178,8.50569-.67268,3.45019-8.10723-.22014-14.45323.27781C714.20323,87.56227,710.30455,89.18825,708.18822,87.793Z"/><path class="cls-9" d="M810.68739,124.05345a20.43687,20.43687,0,0,1-5.29693.60133c-1.82327-.01834-3.55557-.5564-5.36378-.6817C802.68354,126.59729,808.23854,127.56505,810.68739,124.05345Z"/><path class="cls-9" d="M798.25036,108.55349c1.47425-7.578,4.87953-17.87062,11.06771-13.578,6.188,4.29357,1.82032,16.647-6.03491,21.018C804.28372,110.85139,803.65814,108.20059,798.25036,108.55349Z"/><path class="cls-9" d="M795.46306,147.43367c1.418,13.28042-4.65642,31.33013-21.53254,42.94818a51.23784,51.23784,0,0,0-4.38157-7.91663C777.7731,180.8142,790.61837,172.3351,795.46306,147.43367Z"/><path class="cls-9" d="M711.32623,152.8043c6.87442,2.90964,14.66886-2.87467,14.183-10.09981-1.56831,2.43362-2.86487,4.97139-5.36223,6.62086a17.88733,17.88733,0,0,1-4.5804,2.26136C715.14611,151.72258,711.37489,152.54156,711.32623,152.8043Z"/><path class="cls-23" d="M848.02585,182.73246c-25.04554-15.04461-67.262,1.47938-98.8601,48.58744-31.59659,47.10728-72.59993,113.53642-91.5577,132.49574,19.316,19.3144,28.46153,40.86669,28.46153,54.55924,21.98354-14.33787,30.97118-23.3028,48.34989-35.679,0,42.12982.75251,62.25636-5.87736,98.06755,36.55352,0,128.15874.70555,154.49025.70555a830.15543,830.15543,0,0,1,10.42845-132.433C901.88674,296.33184,886.85053,206.05407,848.02585,182.73246Z"/><path class="cls-24" d="M810.79824,201.53974a56.90064,56.90064,0,0,1,31.61493,24.42773c6.68755,11.1299,6.69812,24.59547,5.75695,37.10091,3.32333-12.72713,3.879-26.79465-2.97572-38.56366a45.636,45.636,0,0,0-15.17427-15.81882C824.32988,205.10372,817.54812,202.232,810.79824,201.53974Z"/><path class="cls-24" d="M820.78642,302.65063c-26.34817,36.97856-60.2753,79.6337-86.37146,107.6733,0-5.38508.00451-12.33225.00451-27.62809C758.64385,364.79024,793.13858,330.29691,820.78642,302.65063Z"/><path class="cls-8" d="M657.60805,363.81564c-20.87664,5.52764-85.25709,60.42859-123.17387,64.37735-37.91694,3.95031-39.49582-15.00886-53.71523-8.68867-14.21942,6.31879-46.68286,31.2824-37.4022,44.90826-.715,9.08478,2.546,9.89241,5.40933,10.78213.29756,4.90376,5.76908,5.27423,9.35063,5.27423-.83966,5.78275,9.21382,12.59794,10.398,4.99487,7.70179-7.70179,32.38759-16.193,53.32051-18.16817,20.93278-1.97531,140.14576-33.10116,164.27438-48.92076C697.39241,396.52053,670.247,368.5554,657.60805,363.81564Z"/><path class="cls-19" d="M443.31675,464.88612a.47419.47419,0,0,0,.45551-.33845c.05006-.17007,5.16479-16.9795,21.76169-25.66505a.47332.47332,0,0,0-.43716-.83966c-16.96737,8.87693-22.18393,26.06444-22.234,26.23592a.47416.47416,0,0,0,.32041.589A.51522.51522,0,0,0,443.31675,464.88612Z"/><path class="cls-19" d="M448.72608,475.6684a.47509.47509,0,0,0,.46-.35523c.04555-.17614,4.68363-17.55036,20.48192-25.11394a.47429.47429,0,0,0-.41135-.85474c-16.20374,7.75947-20.9435,25.55422-20.989,25.73331a.47222.47222,0,0,0,.34.57537A.466.466,0,0,0,448.72608,475.6684Z"/><path class="cls-19" d="M458.07671,480.94264a.08307.08307,0,0,0,.01959-.00156.47319.47319,0,0,0,.454-.49188c-.00451-.09717-.18516-9.70882,17.06-18.98047a.4734.4734,0,1,0-.44633-.835c-17.83268,9.5874-17.57928,19.442-17.56094,19.8579A.47388.47388,0,0,0,458.07671,480.94264Z"/><path class="cls-6" d="M468.47469,485.46381c2.7646-6.91235,10.00653-22.90808,17.1146-18.16817,1.77787-4.14775,8.36065-13.43,10.928-2.76476,2.37066-5.53074,9.677-5.92546,9.677.78945,2.5673-2.56716,8.09651-1.00647,6.51761,6.21105-1.58043,7.21736-5.53075,11.56395-10.6646,11.56395-3.62088,4.28751-8.492,4.01421-10.48984,2.63261-3.6635,2.06175-8.86327,2.04356-11.49727.26724C474.53681,488.54571,471.042,488.031,468.47469,485.46381Z"/><path class="cls-6" d="M482.82469,402.12559c8.9528,0,14.01141,12.15922,17.11693,25.54209,2.36911,10.20831-13.036,3.33095-17.11693-8.93306C482.82469,410.41953,479.13851,405.81332,482.82469,402.12559Z"/><path class="cls-25" d="M480.0601,486.46888a.47542.47542,0,0,0,.42954-.27035c2.95753-6.29439,5.45955-18.30032,5.56417-18.80728a.47427.47427,0,1,0-.929-.19138c-.02426.123-2.584,12.40221-5.49282,18.59336a.47182.47182,0,0,0,.42815.67565Z"/><path class="cls-25" d="M491.55737,486.20164a.473.473,0,0,0,.44181-.30067c2.53234-6.425,4.887-20.68994,4.9857-21.29406a.47389.47389,0,0,0-.93527-.15345c-.02424.14738-2.43657,14.769-4.93253,21.0999a.473.473,0,0,0,.26569.61485A.48876.48876,0,0,0,491.55737,486.20164Z"/><path class="cls-25" d="M502.04721,483.569a.47446.47446,0,0,0,.44261-.30362c2.36086-6.1638,4.15536-17.75682,4.172-17.87217a.47307.47307,0,0,0-.39628-.54195.48112.48112,0,0,0-.539.39628c-.01819.11535-1.79745,11.6095-4.12178,17.67784a.47206.47206,0,0,0,.44244.64362Z"/><path class="cls-19" d="M497.86853,433.20153a3.81629,3.81629,0,0,0,1.01408-.129,2.13629,2.13629,0,0,0,1.35346-1.14778c1.33216-2.61738-.94055-8.83589-1.03849-9.09847a.47393.47393,0,0,0-.88878.32943c.62387,1.68661,2.03283,6.47207,1.08171,8.34089a1.20182,1.20182,0,0,1-.766.662c-2.67209.76208-10.63038-2.83906-18.1349-18.78162a.47952.47952,0,0,0-.63149-.2262.47326.47326,0,0,0-.2262.63009C486.46532,428.29326,493.97278,433.20153,497.86853,433.20153Z"/><path class="cls-26" d="M639.12864,96.8406H576.37107a22.31564,22.31564,0,0,0-22.31577,22.31453v21.83694a22.30457,22.30457,0,0,0,18.72225,21.99924c5.74793,5.99621,13.52558,13.83,16.017,14.983,2.7904,1.28817,2.92394-7.78216,2.64162-14.66653h47.69244a22.31691,22.31691,0,0,0,22.31592-22.31576V119.15513A22.31576,22.31576,0,0,0,639.12864,96.8406Z"/><path class="cls-16" d="M591.54238,119.3h-23.9873a1.86012,1.86012,0,0,1,0-3.72023h23.9873a1.86012,1.86012,0,0,1,0,3.72023Z"/><path class="cls-16" d="M647.82493,119.3h-43.2518a1.86012,1.86012,0,0,1,0-3.72023h43.2518a1.86012,1.86012,0,0,1,0,3.72023Z"/><path class="cls-16" d="M615.73025,131.93293H567.55508a1.85941,1.85941,0,0,1,0-3.71882h48.17517a1.85941,1.85941,0,1,1,0,3.71882Z"/><path class="cls-16" d="M647.82493,131.93293h-21.5554a1.85941,1.85941,0,0,1,0-3.71882h21.5554a1.85941,1.85941,0,1,1,0,3.71882Z"/><path class="cls-16" d="M631.07318,144.56507h-63.5181a1.859,1.859,0,0,1,0-3.71805h63.5181a1.859,1.859,0,0,1,0,3.71805Z"/><path class="cls-26" d="M407.32647,174.66922H344.56905a22.31629,22.31629,0,0,0-22.31747,22.31592v21.83694a22.31586,22.31586,0,0,0,22.31747,22.31437h47.69244c-.28232,6.88732-.14427,15.9578,2.64163,14.66652,2.49129-1.15073,10.2691-8.98389,16.01392-14.98071a22.30436,22.30436,0,0,0,18.7238-22.00018V196.98514A22.31563,22.31563,0,0,0,407.32647,174.66922Z"/><path class="cls-16" d="M416.13966,197.12708H371.2011a1.85825,1.85825,0,1,1,0-3.7165h44.93856a1.85826,1.85826,0,1,1,0,3.7165Z"/><path class="cls-16" d="M361.594,197.12708H335.87277a1.85825,1.85825,0,1,1,0-3.7165H361.594a1.85826,1.85826,0,1,1,0,3.7165Z"/><path class="cls-16" d="M416.13966,209.7631H383.91143a1.859,1.859,0,0,1,0-3.71805h32.22823a1.859,1.859,0,1,1,0,3.71805Z"/><path class="cls-16" d="M374.29978,209.7631h-38.427a1.859,1.859,0,1,1,0-3.71805h38.427a1.859,1.859,0,1,1,0,3.71805Z"/><path class="cls-16" d="M392.15982,222.39742H335.87277a1.85942,1.85942,0,1,1,0-3.71883h56.28705a1.85942,1.85942,0,0,1,0,3.71883Z"/><path class="cls-27" d="M30.871,495.47935a22.90874,22.90874,0,1,0,22.908-22.902A22.90527,22.90527,0,0,0,30.871,495.47935Z"/><path class="cls-16" d="M41.25844,491.661c.80617-5.56869,8.54743-7.54695,12.52053-1.73528,3.97456-5.81167,11.71584-3.83341,12.52052,1.73528,1.07953,7.42848-6.20173,13.66674-12.52052,17.48351C47.47089,505.32777,40.18052,499.08951,41.25844,491.661Z"/><path class="cls-28" d="M76.68845,543.8322A33.12775,33.12775,0,1,0,109.817,510.70228,33.1257,33.1257,0,0,0,76.68845,543.8322Z"/><path class="cls-16" d="M105.87272,532.32281h0c1.87488-2.50513,5.14816-6.86835,8.432-11.20576,3.23689-4.26917,8.98171-1.97671,6.98075,3.33545-.5906,1.585-2.03143,5.03125-3.22166,7.90374l6.90022.02114c4.27523,0,6.46446,2.25313,6.46446,4.69436a4.75448,4.75448,0,0,1-1.04611,2.94369,4.66714,4.66714,0,0,1,0,5.88909,4.66275,4.66275,0,0,1,0,5.886,4.70083,4.70083,0,0,1-3.16693,7.632v.1079H105.33529c-2.36382,0-9.604-3.4676-9.604-3.4676V537.1689Z"/><path class="cls-1" d="M88.2025,554.88468a4.6505,4.6505,0,0,0,4.65471,4.6457h0a4.657,4.657,0,0,0,4.66234-4.6457V537.54077a4.65864,4.65864,0,0,0-4.66234-4.64865h0a4.65211,4.65211,0,0,0-4.65471,4.64865Z"/><path class="cls-28" d="M16.03678,416.40423a26.93877,26.93877,0,1,0,26.93875-26.94032A26.93782,26.93782,0,0,0,16.03678,416.40423Z"/><path class="cls-16" d="M39.76758,407.04615h0c1.52427-2.03906,4.18718-5.58548,6.85767-9.11231,2.631-3.47211,7.3025-1.60764,5.67653,2.71159-.48127,1.28894-1.6518,4.09147-2.61888,6.42792l5.60966.01524c3.47677,0,5.256,1.834,5.256,3.81832a3.8493,3.8493,0,0,1-.85022,2.39257,3.79833,3.79833,0,0,1,0,4.79,3.79394,3.79394,0,0,1,0,4.78686,3.82332,3.82332,0,0,1-2.57478,6.20639v.08644H39.33186c-1.922,0-7.80958-2.81917-7.80958-2.81917V410.98573Z"/><path class="cls-1" d="M25.3994,425.39341a3.78069,3.78069,0,0,0,3.78486,3.77573h0a3.78719,3.78719,0,0,0,3.79245-3.77573V411.288a3.78916,3.78916,0,0,0-3.79245-3.78039h0A3.78267,3.78267,0,0,0,25.3994,411.288Z"/><path class="cls-29" d="M810.67526,480.46739a19.70461,19.70461,0,1,1-19.70461-19.70306A19.70513,19.70513,0,0,1,810.67526,480.46739Z"/><path class="cls-30" d="M813.78157,480.46739a19.70461,19.70461,0,1,1-19.70321-19.70306A19.70395,19.70395,0,0,1,813.78157,480.46739Z"/><path class="cls-29" d="M794.07836,497.07487a16.60523,16.60523,0,1,1,16.60452-16.60748A16.6249,16.6249,0,0,1,794.07836,497.07487Zm0-32.257a15.65177,15.65177,0,1,0,15.65107,15.64952A15.66764,15.66764,0,0,0,794.07836,464.81787Z"/><path class="cls-29" d="M793.99192,490.47982a11.267,11.267,0,0,1-2.47466-.20179,10.018,10.018,0,0,1-1.93116-.56791,4.484,4.484,0,0,1-1.30107-.71653c-.31433-.26879-.47074-.50556-.47074-.71513a1.58557,1.58557,0,0,1,.22775-.715,4.62518,4.62518,0,0,1,.51476-.77281c.19122-.22775.35366-.3431.48736-.3431a.60507.60507,0,0,1,.24283.08348c.10323.05923.243.13354.41446.22931a12.51358,12.51358,0,0,0,1.78689.759,6.72019,6.72019,0,0,0,2.59.30066,5.01116,5.01116,0,0,0,2.38822-.671,2.32557,2.32557,0,0,0,.92749-2.13156,2.66256,2.66256,0,0,0-.55718-1.75968,4.3233,4.3233,0,0,0-1.47254-1.11731q-.91552-.43958-1.97361-.84261a14.43184,14.43184,0,0,1-2.789-1.51514,6.36078,6.36078,0,0,1-1.78687-1.87349,4.52122,4.52122,0,0,1-.63011-2.38806,5.22734,5.22734,0,0,1,.74389-2.789,4.92391,4.92391,0,0,1,2.17415-1.88856,8.09342,8.09342,0,0,1,3.46138-.67253,10.54581,10.54581,0,0,1,2.18783.24439,7.67181,7.67181,0,0,1,1.9296.64221,2.35531,2.35531,0,0,1,.5435.416.64576.64576,0,0,1,.20039.44167,1.8581,1.8581,0,0,1-.18529.68777,3.51393,3.51393,0,0,1-.45692.77436c-.18221.2276-.34.34-.47215.34a.87966.87966,0,0,1-.35834-.12748,3.92391,3.92391,0,0,0-.58592-.24439,10.57548,10.57548,0,0,0-1.24341-.39938,7.33809,7.33809,0,0,0-1.84612-.19884,3.56026,3.56026,0,0,0-2.28793.68466,2.31744,2.31744,0,0,0-.85786,1.91592,2.04429,2.04429,0,0,0,.51473,1.42871,4.41169,4.41169,0,0,0,1.37243.99138q.85863.41207,1.83089.84261a14.50289,14.50289,0,0,1,2.9454,1.60158,6.66658,6.66658,0,0,1,1.887,1.98744,4.769,4.769,0,0,1,.65745,2.50186,5.58272,5.58272,0,0,1-1.5865,4.22067A6.70946,6.70946,0,0,1,793.99192,490.47982Zm.28543,1.94484c-.49795,0-.744-.19122-.744-.57086V469.08548c0-.38259.2461-.57381.744-.57381h.14271c.49484,0,.74391.19122.74391.57381V491.8538c0,.37964-.24907.57086-.74391.57086Z"/><path class="cls-29" d="M960.20818,395.14049a32.42707,32.42707,0,1,1-32.42707-32.42708A32.42782,32.42782,0,0,1,960.20818,395.14049Z"/><path class="cls-30" d="M965.3198,395.14049a32.427,32.427,0,1,1-32.424-32.42708A32.42606,32.42606,0,0,1,965.3198,395.14049Z"/><path class="cls-29" d="M932.89584,422.46946a27.32672,27.32672,0,1,1,27.326-27.329A27.36085,27.36085,0,0,1,932.89584,422.46946Zm0-53.08824a25.75919,25.75919,0,1,0,25.75461,25.75927A25.788,25.788,0,0,0,932.89584,369.38122Z"/><path class="cls-29" d="M932.75313,411.61427a18.26992,18.26992,0,0,1-4.07329-.33083,16.14914,16.14914,0,0,1-3.17766-.93837,7.37021,7.37021,0,0,1-2.14212-1.17344c-.51769-.44338-.77421-.83654-.77421-1.17965a2.596,2.596,0,0,1,.37795-1.17514,7.27728,7.27728,0,0,1,.84572-1.27371q.47125-.56247.8-.56184a.95054.95054,0,0,1,.39939.13665c.16992.09576.40078.22013.6831.37653a20.39372,20.39372,0,0,0,2.94074,1.24946,11.01535,11.01535,0,0,0,4.2631.495,8.2263,8.2263,0,0,0,3.929-1.10674,3.8199,3.8199,0,0,0,1.5288-3.50553,4.36761,4.36761,0,0,0-.92-2.89364,7.13922,7.13922,0,0,0-2.42289-1.84161q-1.50761-.72406-3.249-1.38611a23.81909,23.81909,0,0,1-4.58942-2.49284,10.522,10.522,0,0,1-2.94074-3.0819,7.472,7.472,0,0,1-1.03554-3.93212,8.61442,8.61442,0,0,1,1.22521-4.58958,8.06165,8.06165,0,0,1,3.57844-3.10615,13.2908,13.2908,0,0,1,5.69321-1.10674,17.64056,17.64056,0,0,1,3.6027.39768,12.88125,12.88125,0,0,1,3.1761,1.05823,3.90959,3.90959,0,0,1,.89407.68777,1.06681,1.06681,0,0,1,.32958.7257,3.0717,3.0717,0,0,1-.30517,1.131,5.903,5.903,0,0,1-.75151,1.27527q-.451.558-.77887.55873a1.47483,1.47483,0,0,1-.589-.20956,6.404,6.404,0,0,0-.964-.40234,16.95733,16.95733,0,0,0-2.04652-.6573,12.12546,12.12546,0,0,0-3.0379-.32647,5.87974,5.87974,0,0,0-3.76515,1.12493,3.82167,3.82167,0,0,0-1.41192,3.15792,3.35951,3.35951,0,0,0,.84712,2.34857,7.19075,7.19075,0,0,0,2.26059,1.6291q1.40965.6786,3.01209,1.38611a24.13293,24.13293,0,0,1,4.84609,2.63711,10.9992,10.9992,0,0,1,3.1077,3.26861,7.8931,7.8931,0,0,1,1.08094,4.12039,9.18586,9.18586,0,0,1-2.61269,6.94577Q937.97946,411.56957,932.75313,411.61427Zm.46918,3.20347c-.8168,0-1.22365-.31575-1.22365-.94289V376.406c0-.624.40685-.94428,1.22365-.94428h.23524c.81522,0,1.22518.32025,1.22518.94428v37.46889c0,.62714-.41.94289-1.22518.94289Z"/><path class="cls-29" d="M905.27226,458.42632a40.05517,40.05517,0,1,1-40.05595-40.05144A40.05592,40.05592,0,0,1,905.27226,458.42632Z"/><path class="cls-30" d="M911.585,458.42632a40.0537,40.0537,0,1,1-40.04987-40.05144A40.05276,40.05276,0,0,1,911.585,458.42632Z"/><path class="cls-29" d="M871.53512,492.18634a33.75551,33.75551,0,1,1,33.75238-33.76A33.798,33.798,0,0,1,871.53512,492.18634Zm0-65.57379a31.81673,31.81673,0,1,0,31.8122,31.81377A31.85126,31.85126,0,0,0,871.53512,426.61255Z"/><path class="cls-29" d="M871.35741,478.77766a22.79977,22.79977,0,0,1-5.03125-.41,20.24107,20.24107,0,0,1-3.92293-1.1568,9.08283,9.08283,0,0,1-2.64786-1.45451c-.63756-.54645-.95486-1.02776-.95486-1.45591a3.18719,3.18719,0,0,1,.46608-1.4514,9.06442,9.06442,0,0,1,1.04456-1.56971c.3871-.46468.71948-.69849.9883-.69849a1.16106,1.16106,0,0,1,.49341.17008c.20941.11846.49484.2733.844.46763a25.35437,25.35437,0,0,0,3.63317,1.541,13.59072,13.59072,0,0,0,5.26508.6119,10.14775,10.14775,0,0,0,4.85213-1.36652q1.88562-1.1886,1.88857-4.33135a5.39353,5.39353,0,0,0-1.13566-3.57378,8.79905,8.79905,0,0,0-2.99235-2.27272q-1.86042-.89266-4.014-1.71413a29.31889,29.31889,0,0,1-5.6674-3.07879,12.92441,12.92441,0,0,1-3.633-3.80775,9.20239,9.20239,0,0,1-1.27837-4.85355,10.63137,10.63137,0,0,1,1.51218-5.67207,10.00959,10.00959,0,0,1,4.4195-3.83946,16.47312,16.47312,0,0,1,7.03377-1.36481,21.723,21.723,0,0,1,4.44981.49344,15.65539,15.65539,0,0,1,3.9214,1.30868,4.791,4.791,0,0,1,1.10534.84712,1.31256,1.31256,0,0,1,.4084.89422,3.79447,3.79447,0,0,1-.37807,1.39824,7.16217,7.16217,0,0,1-.92922,1.57592c-.37031.46142-.6907.69073-.96247.69073a1.8234,1.8234,0,0,1-.7257-.25963,8.13887,8.13887,0,0,0-1.19178-.49639,20.48713,20.48713,0,0,0-2.52923-.81074,14.85949,14.85949,0,0,0-3.75007-.40685,7.25428,7.25428,0,0,0-4.65161,1.39373,4.71286,4.71286,0,0,0-1.74289,3.89559,4.16564,4.16564,0,0,0,1.04595,2.90591,8.89725,8.89725,0,0,0,2.792,2.01154c1.15991.55562,2.40035,1.12959,3.71961,1.71258a29.67535,29.67535,0,0,1,5.98781,3.25337,13.64108,13.64108,0,0,1,3.83635,4.04141,9.72227,9.72227,0,0,1,1.33605,5.086q0,5.46561-3.22772,8.58093Q877.8144,478.72286,871.35741,478.77766Zm.58143,3.95482c-1.011,0-1.51359-.38866-1.51359-1.16131V435.28909c0-.77592.50261-1.166,1.51359-1.166h.29009q1.512,0,1.512,1.166v46.28208c0,.77265-.504,1.16131-1.512,1.16131Z"/></g></svg>