<svg id="Layer_1" data-name="Layer 1" xmlns="http://www.w3.org/2000/svg" viewBox="0 0 1080 1080"><defs><style>.cls-1{fill:#fe4c17;}</style></defs><title>1</title><path class="cls-1" d="M717.12,522.27l-23.38-31.22c-.78-1.05-1.53-2.13-2.34-3.16-2.44-3.1-3-6.37.54-8.76s6.28-.65,8.58,2.47c5.66,7.69,11.43,15.31,17.17,22.94a14.72,14.72,0,0,0,4.95,4.49c0-6.42,0-12.83,0-19.24,0-2.06-.09-4.14.11-6.18.33-3.47,2.34-6.13,5.78-5.18,2,.56,4.69,3.43,4.85,5.44.6,7.26.25,14.59.27,21.9,0,1.07.1,2.14.2,4.41,1.74-1.91,2.87-3,3.79-4.18,6.09-8.08,12.18-16.15,18.18-24.3,2.44-3.3,5.38-5.08,9-2.31s2.28,5.84,0,8.86Q754,502.61,743.25,517c-1.08,1.43-2,3-3.6,5.23,7.39,0,13.87.05,20.35,0,4,0,6.87,1.6,6.9,5.67.09,12.73.78,25.57-.68,38.15-.89,7.61-5.31,14.81-8.31,22.61,3.4,0,8.13-.16,12.84,0,15.23.63,27.8,12.33,29.11,26.95,1.45,16.12-8.37,30.09-23.9,33.15-5.08,1-10.45.54-15.68.63-4.86.09-9.72,0-15.53,0v6.75q0,53.13,0,106.25c0,7.61-1.23,8.89-8.74,8.92-12.74,0-25.48.06-38.22,0-6.8,0-8.24-1.53-8.27-8.27,0-8,0-16.08,0-25H599c-7.79,0-9.22-1.4-9.23-9.1q0-36.25,0-72.52v-6.6H490.28v6.19q0,36.27,0,72.52c0,8.14-1.36,9.51-9.39,9.51H390.5c0,8.54,0,16.54,0,24.55,0,7.2-1.36,8.64-8.43,8.67q-19.12.09-38.23,0c-7.24,0-8.57-1.37-8.57-8.52q0-52.85,0-105.69v-7.71c-5.57,0-10.91.08-16.25,0-5.05-.09-10.23.32-15.11-.67-15.56-3.17-25.26-17.12-23.74-33.27,1.36-14.55,14-26.22,29.24-26.79,4.61-.18,9.23,0,15.23,0-11.13-11.49-12.23-24.7-11.7-38.43.26-6.92.07-13.86,0-20.8,0-4.84,2.22-7.27,7.18-7.2,6.36.08,12.73,0,19.93,0-1-1.66-1.58-2.9-2.38-4-6.94-9.31-13.95-18.57-20.86-27.9-2.49-3.37-6.61-7.13-1.53-11,4.92-3.75,7.63.71,10.26,4.22a297.5,297.5,0,0,0,20.78,25.63v-19.3c0-2.06-.61-4.43.2-6.11,1.05-2.17,3-4.88,5-5.4,3.47-.9,5.56,1.84,5.68,5.29.2,6.36.1,12.74.13,19.11a15.16,15.16,0,0,0,1.12,6.66c1.62-2.11,3.27-4.2,4.87-6.32,5.07-6.73,10.17-13.44,15.15-20.24,2.47-3.37,5.21-6.84,9.56-3.73,4.83,3.45,1.74,7.19-.81,10.57-7.86,10.47-15.7,20.95-24.36,32.5,7,0,13.07,0,19.11,0,7.09,0,8.46,1.42,8.49,8.58,0,7.69-.28,15.38.07,23,.57,12.6-1.63,24.22-11.3,34.34H511.78V566.49h-6.51q-38.79,0-77.58,0c-8.48,0-9.37-.89-9.37-9.34q0-68.29,0-136.6c0-19.86,11.18-31,30.93-31H630.83c19.48,0,30.83,11.18,30.85,30.55q.06,68.86,0,137.73c0,7.66-1,8.69-8.88,8.7q-39.07,0-78.14,0h-6.48v21.84h132c-1.15-1.61-2.06-2.9-3-4.18a37.05,37.05,0,0,1-7.64-21.9c-.12-10.86,0-21.73-.1-32.6-.07-5.25,2.29-7.52,7.48-7.42C703.26,522.37,709.57,522.27,717.12,522.27Zm-66.44,33V549q0-64.09,0-128.17c0-14-6.3-20.31-20.16-20.31q-90.51,0-181,0c-13.83,0-20.15,6.38-20.16,20.31q0,64.08,0,128.16c0,2,.18,4,.29,6.2ZM539.74,638.45H764c2.43,0,4.88,0,7.3-.16a19,19,0,0,0,17.47-21.85c-1.43-10.5-9.41-16.63-21.73-16.63H312.88c-1.31,0-2.62,0-3.93.05a19.15,19.15,0,0,0-17.84,17.19c-1,9.28,4.79,18.29,13.76,20.58a40.84,40.84,0,0,0,10,.79Q427.33,638.48,539.74,638.45Zm-193,11.27V760H379V649.72Zm386.64.17H701.11v110h32.27ZM390.75,682.45h88V649.82h-88Zm210.37,0h88V649.79h-88ZM390.78,726.57h88V694.28h-88Zm210.29-.05h88V694.34h-88ZM379.18,533.81h-55c0,10.09-.42,19.8.1,29.47.74,13.94,12.77,25,26.69,25.34,14.14.31,27-10.08,28-23.75C379.8,554.68,379.18,544.39,379.18,533.81Zm376.62,0H700.67c0,9.67-.2,19,.05,28.29a27.34,27.34,0,0,0,26.61,26.55c14.83.33,27.55-10.71,28.37-25.34C756.25,553.62,755.8,543.9,755.8,533.78ZM556.41,566.87H523.69v21.35h32.72Z"/><path class="cls-1" d="M401.63,358.58a49.86,49.86,0,0,1-99.71,0c-.12-27.38,22.78-50.23,50.14-50A50.13,50.13,0,0,1,401.63,358.58Zm-50.14,38.56A38.74,38.74,0,1,0,313,358.42,38.73,38.73,0,0,0,351.49,397.14Z"/><path class="cls-1" d="M700.65,375.39a38.72,38.72,0,0,1,77.44,0c.13,21.37-17.53,38.93-39.07,38.85A38.59,38.59,0,0,1,700.65,375.39Zm38.89,27.68a27.61,27.61,0,1,0-27.8-27.59A27.33,27.33,0,0,0,739.54,403.07Z"/></svg>