<svg xmlns="http://www.w3.org/2000/svg" xmlns:xlink="http://www.w3.org/1999/xlink" viewBox="0 0 779.86597 398.80273"><defs><style>.cls-1{fill:#e0e0e0;}.cls-2{fill:#ebebeb;}.cls-3{fill:#fafafa;}.cls-4{fill:#fff;}.cls-5{fill:#263238;}.cls-6{fill:#f5f5f5;}.cls-7{fill:#455a64;}.cls-8{fill:#ff725e;}.cls-9{fill:url(#linear-gradient);}.cls-10{fill:url(#linear-gradient-2);}.cls-11{fill:url(#linear-gradient-3);}.cls-12{fill:url(#linear-gradient-4);}.cls-13{fill:url(#linear-gradient-5);}.cls-14{fill:url(#linear-gradient-6);}.cls-15{fill:#312e5e;}.cls-16{opacity:0.3;}.cls-17{fill:#f47b4d;}.cls-18{fill:url(#linear-gradient-7);}.cls-19{fill:url(#linear-gradient-8);}.cls-20{fill:url(#linear-gradient-9);}.cls-21{fill:url(#linear-gradient-10);}.cls-22{fill:#ffb9a9;}.cls-23{fill:#6f4c47;}.cls-24{fill:#f77f4f;}.cls-25{fill:#eda296;}.cls-26{fill:#f4afa4;}.cls-27{fill:#f39367;}.cls-28{fill:url(#linear-gradient-11);}.cls-29{fill:url(#linear-gradient-12);}</style><linearGradient id="linear-gradient" x1="493.56879" y1="190.65109" x2="494.34557" y2="233.37355" gradientUnits="userSpaceOnUse"><stop offset="0" stop-color="#faad63"/><stop offset="1" stop-color="#f06775"/></linearGradient><linearGradient id="linear-gradient-2" x1="533.67983" y1="189.9218" x2="534.4566" y2="232.64425" xlink:href="#linear-gradient"/><linearGradient id="linear-gradient-3" x1="547.18704" y1="189.67621" x2="547.96381" y2="232.39867" xlink:href="#linear-gradient"/><linearGradient id="linear-gradient-4" x1="481.17179" y1="190.87649" x2="481.94856" y2="233.59895" xlink:href="#linear-gradient"/><linearGradient id="linear-gradient-5" x1="506.83423" y1="190.4099" x2="507.611" y2="233.13236" xlink:href="#linear-gradient"/><linearGradient id="linear-gradient-6" x1="520.23396" y1="190.16627" x2="521.01073" y2="232.88872" xlink:href="#linear-gradient"/><linearGradient id="linear-gradient-7" x1="710.34946" y1="263.30325" x2="748.85085" y2="263.30325" xlink:href="#linear-gradient"/><linearGradient id="linear-gradient-8" x1="687.17276" y1="202.50341" x2="708.1456" y2="328.72885" xlink:href="#linear-gradient"/><linearGradient id="linear-gradient-9" x1="769.51818" y1="232.64799" x2="719.80478" y2="336.73543" xlink:href="#linear-gradient"/><linearGradient id="linear-gradient-10" x1="653.83929" y1="314.2064" x2="705.17069" y2="314.2064" xlink:href="#linear-gradient"/><linearGradient id="linear-gradient-11" x1="116.57625" y1="292.04483" x2="99.48727" y2="107.17312" xlink:href="#linear-gradient"/><linearGradient id="linear-gradient-12" x1="64.90698" y1="296.82098" x2="47.818" y2="111.94927" xlink:href="#linear-gradient"/></defs><title>Asset 1</title><g id="Layer_2" data-name="Layer 2"><g id="Character"><rect class="cls-1" x="665.63148" y="4.27736" width="104.02881" height="172.19738"/><rect class="cls-2" x="662.17158" y="4.27736" width="104.02881" height="172.19738"/><rect class="cls-3" x="666.60139" y="7.76932" width="95.16918" height="165.21346"/><rect class="cls-2" x="684.71946" y="29.2376" width="58.52115" height="122.27689"/><path class="cls-1" d="M684.71946,108.24473c-.1354-11.42227,10.13485-22.57318,21.446-24.1679,5.39367-.76048,11.12431.31007,16.164-1.7566,8.9956-3.68868,11.8579-15.64067,20.91107-19.18553l.41319,88.3798H684.71946Z"/><rect class="cls-1" x="132.67172" y="0.02194" width="71.33924" height="74.36521"/><rect class="cls-3" x="127.84072" y="0.02194" width="71.33894" height="74.36521"/><path class="cls-1" d="M199.2018,74.40918H127.81849V0H199.2018Zm-71.339-.04427h71.29468V.04407H127.86275Z"/><rect class="cls-4" x="137.43046" y="10.01892" width="52.15926" height="54.37125"/><path class="cls-1" d="M137.43046,64.75184a8.53349,8.53349,0,0,1-1.287,1.49646c-.83294.879-2.00354,2.06875-3.31548,3.36124-1.31264,1.29289-2.51838,2.44434-3.4077,3.26169a8.32724,8.32724,0,0,1-1.50747,1.25567,8.29857,8.29857,0,0,1,1.28028-1.4904c.833-.8789,2.00662-2.07164,3.32293-3.3677,1.31591-1.29616,2.52443-2.45038,3.41375-3.26764A8.15688,8.15688,0,0,1,137.43046,64.75184Z"/><path class="cls-1" d="M189.58973,64.61835a8.52963,8.52963,0,0,1,1.49665,1.28693c.879.83324,2.06865,2.00364,3.36124,3.31568,1.29279,1.31244,2.44424,2.51848,3.26169,3.4076a8.32521,8.32521,0,0,1,1.25557,1.50737,8.30911,8.30911,0,0,1-1.4903-1.28c-.8789-.83314-2.07164-2.00692-3.368-3.32313-1.29576-1.31581-2.45-2.52453-3.26744-3.41385A8.16465,8.16465,0,0,1,189.58973,64.61835Z"/><path class="cls-1" d="M189.447,10.16393a8.5155,8.5155,0,0,1,1.28723-1.49656c.83294-.87919,2.00344-2.06885,3.31568-3.36114,1.31224-1.293,2.51818-2.44424,3.4075-3.26189A8.28883,8.28883,0,0,1,198.96488.789a8.32427,8.32427,0,0,1-1.28028,1.4901c-.833.879-2.00662,2.07144-3.323,3.3679-1.31591,1.29616-2.52443,2.45-3.41395,3.26764A8.1496,8.1496,0,0,1,189.447,10.16393Z"/><path class="cls-1" d="M137.28773,10.29732a8.51118,8.51118,0,0,1-1.49645-1.287c-.879-.833-2.06866-2.00375-3.36124-3.31569-1.29289-1.31264-2.44444-2.51818-3.2615-3.4075A8.29736,8.29736,0,0,1,127.913.77984a8.29121,8.29121,0,0,1,1.49,1.27988c.87919.83294,2.07163,2.00682,3.36779,3.32313,1.29636,1.31591,2.45029,2.52463,3.26765,3.41405A8.13289,8.13289,0,0,1,137.28773,10.29732Z"/><path class="cls-1" d="M189.447,64.39016a2.53418,2.53418,0,0,1-.01122-.26411c-.00288-.18551-.00655-.43523-.01151-.7588-.00566-.68168-.0132-1.662-.02343-2.93515-.0122-2.57564-.03026-6.323-.0527-11.08123-.02481-9.52274-.05985-23.08871-.10233-39.33195l.20119.201c-15.18411.00873-33.016.01885-52.01118.03h-.00516l.23086-.231c-.012,19.95644-.02322,38.62605-.03245,54.37114l-.19841-.198c15.58678.04189,28.56446.077,37.66329.10124,4.54564.02223,8.12177.0398,10.57911.05171q1.82081.015,2.799.02293c.30769.00486.5459.00863.72307.01131a2.40736,2.40736,0,0,1,.25191.01092,1.61967,1.61967,0,0,1-.22978.01142c-.1722.00278-.40307.00615-.70192.01111q-.96267.00774-2.761.02283c-2.44692.012-6.00756.02958-10.53425.05181-9.1291.02442-22.15035.05936-37.78944.10134l-.19811.0005-.0003-.19911c-.00943-15.74509-.02064-34.4147-.03265-54.37114l-.0002-.231h.23642c18.99517.01062,36.82707.02085,52.01118.02968h.20178l-.0004.20129c-.04238,16.29654-.07751,29.907-.10213,39.46068-.023,4.73879-.04069,8.47085-.053,11.03578-.01,1.25626-.01787,2.22359-.02342,2.89633-.00487.31434-.00874.55692-.01132.73707A1.75308,1.75308,0,0,1,189.447,64.39016Z"/><rect class="cls-2" x="154.80769" y="28.50213" width="17.40482" height="17.40462"/><path class="cls-5" d="M779.866,398.17525c0,.14283-196.51815.25856-389.91611.25856C196.48448,398.43381,0,398.31808,0,398.17525c0-.14263,196.48448-.25836,389.94986-.25836C583.34782,397.91689,779.866,398.03262,779.866,398.17525Z"/><path class="cls-5" d="M207.50139,88.65493H654.79794a6.74,6.74,0,0,1,6.74,6.74V379.4627a14.5674,14.5674,0,0,1-14.5674,14.5674H214.31769a14.5674,14.5674,0,0,1-14.5674-14.5674V96.406A7.7511,7.7511,0,0,1,207.50139,88.65493Z"/><path class="cls-5" d="M180.4391,371.445H680.75067a0,0,0,0,1,0,0v12.99812a13.7215,13.7215,0,0,1-13.7215,13.7215H194.1605a13.7214,13.7214,0,0,1-13.7214-13.7214V371.445a0,0,0,0,1,0,0Z"/><rect class="cls-6" x="212.14575" y="100.78806" width="435.70454" height="257.88382"/><polygon class="cls-7" points="385.121 371.445 391.33 381.32 478.69 381.32 484.455 371.445 385.121 371.445"/><rect class="cls-7" x="199.82454" y="371.35409" width="461.78754" height="1.47254"/><path class="cls-1" d="M606.61509,64.667H627.2009V288.41173c0,14.78748-9.71708,26.775-21.7037,26.775H582.29394V64.667Z"/><path class="cls-5" d="M606.61509,64.667s-.53181.01817-1.57656.027c-1.05308.00595-2.6082.01469-4.65432.0263-4.11191.01122-10.18954.02789-18.09017.04953l.10263-.10273c.0262,42.25033.08547,137.79757.15533,250.51956l-.258-.258c4.888-.0001,10.13613-.0003,15.41705-.0004q2.88028.00015,5.74743.0001c.95193-.0136,1.91957.03583,2.85-.05092l1.40534-.09082,1.38241-.26064a19.55952,19.55952,0,0,0,9.68334-5.32121,26.03024,26.03024,0,0,0,6.006-9.25893,31.52486,31.52486,0,0,0,2.12751-10.74437c.0142-14.71244.02809-29.05725.04149-42.94589.01221-27.78075.02362-53.73632.03385-77.158.05291-46.83169.09439-83.52766.118-104.43049l.09439.09439c-6.74283-.02-11.88658-.03543-15.35422-.04575q-2.58577-.01578-3.913-.024c-.87542-.00814-1.31849-.02472-1.31849-.02472s.44307-.01657,1.31849-.02471q1.32579-.00819,3.913-.024l15.35422-.04566.09439-.0003.0001.09479c.02372,20.90283.06511,57.5988.118,104.43049.01033,23.42171.02174,49.37728.034,77.158-.00765,13.89261-.01559,28.24149-.02363,42.9581a32.03294,32.03294,0,0,1-2.16017,10.91955,26.54016,26.54016,0,0,1-6.12359,9.44007,20.07176,20.07176,0,0,1-9.93792,5.45818l-1.42311.26759-1.44653.09449c-.971.08794-1.91551.03772-2.87379.05162h-5.74743c-5.28092-.0001-10.52908-.0003-15.41705-.0004h-.25836l.0002-.25816c.06987-112.72209.12913-208.26923.15523-250.51956l.0001-.10312.10283.00029c7.90073.02164,13.97826.03822,18.09017.04943,2.04612.01162,3.60124.02035,4.65432.02631C606.08328,64.64882,606.61509,64.667,606.61509,64.667Z"/><path class="cls-4" d="M606.61509,315.18674H253.5213a19.472,19.472,0,0,1-19.472-19.472V.25836H606.61509Z"/><path class="cls-5" d="M606.61509,315.18684c-.00128-1.82638-.08645-125.24648-.21757-314.92838l.21747.21746C500.89072.48764,374.21022.50173,238.26484.51682h-4.21543l.25836-.25836c-.00734,93.89416-.01439,183.28655-.02074,264.56035q-.00269,15.23874-.00526,30.0899a20.72637,20.72637,0,0,0,1.10718,7.19255,19.26581,19.26581,0,0,0,16.062,12.74365c2.359.19751,4.781.08476,7.1609.11662q3.58044.00075,7.13429.00159,7.10728.00179,14.10541.00347,13.99544.00387,27.53986.00774c36.11146.01459,69.742.02829,100.43977.0407,122.83043.1062,197.36169.17052,198.78391.17181-1.42033.00119-75.90683.0656-198.66212.17161-30.72026.0125-64.37557.0261-100.51352.04079q-13.55282.00372-27.56418.00774-7.004.00164-14.11812.00338-3.55691.00088-7.14074.00159c-2.394-.03187-4.77432.08545-7.21369-.11613a19.72321,19.72321,0,0,1-16.4497-13.04111,21.20155,21.20155,0,0,1-1.13616-7.346q-.00253-14.84763-.00526-30.0899c-.00635-81.2738-.0134-170.66619-.02074-264.56035V0h4.474C374.21022.01509,500.89072.02908,606.615.04089h.21776l-.0002.21757C606.70164,189.94046,606.61638,313.36175,606.61509,315.18684Z"/><path class="cls-5" d="M606.61509,28.74818c0,.14273-83.40836.25846-186.27391.25846-102.90138,0-186.29186-.11573-186.29186-.25846s83.39048-.25846,186.29186-.25846C523.20673,28.48972,606.61509,28.60545,606.61509,28.74818Z"/><path class="cls-1" d="M357.05155,14.68317H489.17307"/><path class="cls-8" d="M489.17307,14.68307c0,.14283-29.57884.25856-66.05763.25856-36.4914,0-66.06389-.11573-66.06389-.25856,0-.14263,29.57249-.25836,66.06389-.25836C459.59423,14.42471,489.17307,14.54044,489.17307,14.68307Z"/><circle class="cls-1" cx="246.55862" cy="14.27742" r="3.55241"/><circle class="cls-1" cx="258.60559" cy="14.27742" r="3.55241"/><circle class="cls-1" cx="270.65257" cy="14.27742" r="3.55241"/><path class="cls-5" d="M411.061,108.35619c0,.14273-7.38462.25846-16.492.25846-9.11044,0-16.49347-.11573-16.49347-.25846s7.383-.25845,16.49347-.25845C403.6764,108.09774,411.061,108.21347,411.061,108.35619Z"/><path class="cls-5" d="M456.61224,108.35619c0,.14273-8.08793.25846-18.06257.25846-9.978,0-18.06426-.11573-18.06426-.25846s8.08624-.25845,18.06426-.25845C448.52431,108.09774,456.61224,108.21347,456.61224,108.35619Z"/><path class="cls-5" d="M455.04154,125.006c0,.14272-17.16046.25845-38.324.25845-21.171,0-38.32779-.11573-38.32779-.25845s17.15677-.25846,38.32779-.25846C437.88108,124.74753,455.04154,124.86326,455.04154,125.006Z"/><path class="cls-5" d="M456.61224,139.77084c0,.14283-17.37137.25846-38.79519.25846-21.43126,0-38.79905-.11563-38.79905-.25846,0-.14263,17.36779-.25846,38.79905-.25846C439.24087,139.51238,456.61224,139.62821,456.61224,139.77084Z"/><path class="cls-5" d="M410.74688,155.79235c0,.14273-7.03306.25846-15.70658.25846-8.6766,0-15.70807-.11573-15.70807-.25846s7.03147-.25846,15.70807-.25846C403.71382,155.53389,410.74688,155.64962,410.74688,155.79235Z"/><path class="cls-5" d="M451.9,155.47821c0,.14273-7.73626.25846-17.27717.25846-9.54429,0-17.279-.11573-17.279-.25846s7.73468-.25846,17.279-.25846C444.16378,155.21975,451.9,155.33548,451.9,155.47821Z"/><path class="cls-5" d="M451.9,171.81376c0,.14283-16.31649.25856-36.43929.25856-20.12974,0-36.44275-.11573-36.44275-.25856,0-.14262,16.313-.25835,36.44275-.25835C435.58355,171.55541,451.9,171.67114,451.9,171.81376Z"/><path class="cls-5" d="M313.67549,202.286c0,.14283-6.82194.25856-15.23532.25856-8.41636,0-15.23691-.11573-15.23691-.25856,0-.14263,6.82055-.25836,15.23691-.25836C306.85355,202.02763,313.67549,202.14336,313.67549,202.286Z"/><path class="cls-5" d="M359.541,203.22851c0,.14273-7.87692.25846-17.59141.25846-9.71779,0-17.593-.11573-17.593-.25846s7.87522-.25846,17.593-.25846C351.664,202.97,359.541,203.08578,359.541,203.22851Z"/><path class="cls-5" d="M360.48336,218.3075c0,.14283-17.09008.25846-38.167.25846-21.08417,0-38.17058-.11563-38.17058-.25846,0-.14262,17.08641-.25836,38.17058-.25836C343.39328,218.04914,360.48336,218.16488,360.48336,218.3075Z"/><path class="cls-5" d="M365.19556,233.70074c0,.14272-18.42634.25845-41.15119.25845-22.73278,0-41.15525-.11573-41.15525-.25845s18.42247-.25846,41.15525-.25846C346.76922,233.44228,365.19556,233.558,365.19556,233.70074Z"/><path class="cls-5" d="M430.8523,185.95044c0,.14273-11.67477.25846-26.073.25846-14.40317,0-26.07547-.11573-26.07547-.25846s11.6723-.25846,26.07547-.25846C419.17753,185.692,430.8523,185.80771,430.8523,185.95044Z"/><path class="cls-5" d="M456.61224,185.95044a139.30692,139.30692,0,0,1-16.96393,0,139.30692,139.30692,0,0,1,16.96393,0Z"/><path class="cls-5" d="M452.84246,202.91437c0,.14273-16.03511.25846-35.81091.25846-19.78275,0-35.81448-.11573-35.81448-.25846s16.03173-.25846,35.81448-.25846C436.80735,202.65591,452.84246,202.77164,452.84246,202.91437Z"/><path class="cls-5" d="M413.88837,218.62164c0,.14283-7.877.25856-17.59141.25856-9.71778,0-17.59311-.11573-17.59311-.25856,0-.14263,7.87533-.25836,17.59311-.25836C406.01136,218.36328,413.88837,218.479,413.88837,218.62164Z"/><path class="cls-5" d="M457.24061,234.64315c0,.14283-17.23082.25846-38.48114.25846-21.25777,0-38.48482-.11563-38.48482-.25846s17.22705-.25835,38.48482-.25835C440.00979,234.3848,457.24061,234.50043,457.24061,234.64315Z"/><path class="cls-5" d="M460.382,218.93578c0,.14283-8.43959.25856-18.84788.25856-10.412,0-18.84975-.11573-18.84975-.25856,0-.14263,8.43779-.25836,18.84975-.25836C451.94242,218.67742,460.382,218.79315,460.382,218.93578Z"/><path class="cls-5" d="M552.7412,108.67033c0,.14273-17.93414.25846-40.05184.25846-22.12534,0-40.05561-.11573-40.05561-.25846s17.93027-.25845,40.05561-.25845C534.80706,108.41188,552.7412,108.52761,552.7412,108.67033Z"/><path class="cls-5" d="M489.28354,123.74933a124.22465,124.22465,0,0,1-16.02151,0,124.32061,124.32061,0,0,1,16.02151,0Z"/><path class="cls-5" d="M552.7412,124.06347c0,.14282-12.5891.25855-28.11484.25855-15.53109,0-28.11742-.11573-28.11742-.25855,0-.14263,12.58633-.25836,28.11742-.25836C540.1521,123.80511,552.7412,123.92084,552.7412,124.06347Z"/><path class="cls-5" d="M548.6573,139.14256c0,.14273-16.38686.25846-36.59642.25846-20.21649,0-36.59978-.11573-36.59978-.25846s16.38329-.25836,36.59978-.25836C532.27044,138.8842,548.6573,138.99983,548.6573,139.14256Z"/><path class="cls-5" d="M551.17042,154.22156c0,.14282-16.87917.25855-37.69575.25855-20.82393,0-37.69943-.11573-37.69943-.25855,0-.14263,16.8755-.25836,37.69943-.25836C534.29125,153.9632,551.17042,154.07893,551.17042,154.22156Z"/><path class="cls-5" d="M510.64552,170.24307c0,.14282-7.87691.25845-17.59141.25845-9.71778,0-17.593-.11563-17.593-.25845,0-.14263,7.87523-.25846,17.593-.25846C502.76861,169.98461,510.64552,170.10044,510.64552,170.24307Z"/><path class="cls-5" d="M551.17042,170.55721c0,.14282-7.033.25845-15.70659.25845-8.6766,0-15.70807-.11563-15.70807-.25845,0-.14263,7.03147-.25836,15.70807-.25836C544.13745,170.29885,551.17042,170.41458,551.17042,170.55721Z"/><path class="cls-5" d="M360.48336,66.85713c0,.14282-17.01.25855-37.98785.25855-20.98531,0-37.99162-.11573-37.99162-.25855,0-.14263,17.00631-.25836,37.99162-.25836C343.47338,66.59877,360.48336,66.7145,360.48336,66.85713Z"/><path class="cls-5" d="M562.504,66.85713c0,.14282-17.8593.25855-39.88489.25855-22.03324,0-39.88877-.11573-39.88877-.25855,0-.14263,17.85553-.25836,39.88877-.25836C544.64474,66.59877,562.504,66.7145,562.504,66.85713Z"/><path class="cls-8" d="M560.39589,188.64221c-.03643.07583-1.23135-.61706-3.57623-1.35908a22.9949,22.9949,0,0,0-10.25713-.76109,22.4183,22.4183,0,0,0-6.76477,2.17387,31.86639,31.86639,0,0,0-6.65171,4.784c-2.18121,1.92484-4.34625,4.11032-6.84368,6.13054a23.60326,23.60326,0,0,1-8.73516,4.72757,13.20663,13.20663,0,0,1-5.10018.30729,16.52657,16.52657,0,0,1-4.72579-1.45893,82.52013,82.52013,0,0,1-7.91611-4.70743,24.69815,24.69815,0,0,0-7.44556-3.33792,22.11731,22.11731,0,0,0-7.08238-.54312,22.813,22.813,0,0,0-9.77654,3.18308c-2.09753,1.28207-3.0872,2.24642-3.14317,2.17893a4.871,4.871,0,0,1,.71026-.69865,17.0012,17.0012,0,0,1,2.27579-1.73129,22.3061,22.3061,0,0,1,17.16334-3.00175,25.07911,25.07911,0,0,1,7.66351,3.35241,84.66718,84.66718,0,0,0,7.86361,4.62912,13.47039,13.47039,0,0,0,9.32733,1.0917,23.06734,23.06734,0,0,0,8.45535-4.57175c2.45793-1.97506,4.633-4.14664,6.84606-6.07525a32.02375,32.02375,0,0,1,6.83067-4.82078,22.65517,22.65517,0,0,1,17.39856-1.13139,18.16263,18.16263,0,0,1,2.627,1.1306A4.92161,4.92161,0,0,1,560.39589,188.64221Z"/><rect class="cls-9" x="489.34686" y="205.69101" width="9.45575" height="25.57373"/><rect class="cls-10" x="529.47116" y="205.69101" width="9.45575" height="25.57373"/><rect class="cls-11" x="542.84636" y="190.67285" width="9.45565" height="40.59189"/><rect class="cls-12" x="477.11011" y="223.21423" width="9.45576" height="8.60663"/><rect class="cls-13" x="502.72147" y="217.23933" width="9.45613" height="14.02541"/><rect class="cls-14" x="516.09656" y="214.01982" width="9.45575" height="17.24492"/><rect class="cls-15" x="284.45406" y="108.35619" width="79.80484" height="77.20973"/><polygon class="cls-4" points="290.642 178.958 312.718 139.226 330.775 164.621 341.747 151.135 358.071 178.958 290.642 178.958"/><path class="cls-4" d="M336.93134,127.29181c4.68182,6.148-2.26726,13.09629-8.41477,8.41407C323.83565,129.55778,330.78363,122.61019,336.93134,127.29181Z"/><g class="cls-16"><path d="M358.07129,179.17257a2.45,2.45,0,0,1-.01846-.31662c-.00387-.23146-.01052-.52545-.01787-.9q-.01354-1.23258-.03811-3.47459c-.01985-3.06189-.04834-7.49022-.08437-13.11257-.04089-11.27726-.09836-27.33689-.16754-46.6187l.32635.32585c-19.529.016-42.6789.03434-67.42277.05419-.09112.07971.71344-.715.37309-.36932v4.37751q0,2.18885-.00069,4.35884-.0009,4.33959-.00248,8.59661c-.00338,5.67386-.00615,11.22912-.00943,16.63728-.01241,10.813-.02511,21.03653-.03613,30.44086l-.33121-.33111c20.12527.07008,36.93546.128,48.75336.16893,5.89282.03693,10.53951.066,13.75087.08645q2.35427.02487,3.64809.03891c.39473.00774.70381.0138.945.01866a2.3789,2.3789,0,0,1,.3323.01886,1.61335,1.61335,0,0,1-.29479.01856c-.23285.00447-.52942.01122-.90936.01906q-1.26906.01294-3.58348.03831c-3.19439.02035-7.81587.04943-13.67613.087-11.86971.041-28.75285.09915-48.96586.16813l-.33092.00159v-.3333c-.01131-9.40433-.02382-19.62791-.03632-30.44086-.00318-5.40816-.00655-10.96342-.00983-16.63728q-.00118-4.25533-.00188-8.59661-.00105-2.17023-.0007-4.35884v-2.193l-.00079-1.09974v-1.08475c-.33875.33359.46163-.47612.38729-.39116,24.74387.01985,47.89381.03831,67.42277.0534l.32784.00089-.00129.32615c-.06928,19.36777-.12675,35.49826-.16695,46.82644-.03623,5.59089-.0652,9.9946-.085,13.03862q-.02489,2.20107-.03753,3.41207c-.00784.36009-.01379.64287-.01876.86529A1.36475,1.36475,0,0,1,358.07129,179.17257Z"/></g><path class="cls-1" d="M365.3233,249.91619c0,.14283-18.343.25856-40.96489.25856-22.62975,0-40.96875-.11573-40.96875-.25856,0-.14263,18.339-.25836,40.96875-.25836C346.98033,249.65783,365.3233,249.77356,365.3233,249.91619Z"/><path class="cls-1" d="M461.00225,249.38538c0,.14273-17.65206.25846-39.422.25846-21.77736,0-39.42565-.11573-39.42565-.25846s17.64829-.25846,39.42565-.25846C443.35019,249.12692,461.00225,249.24265,461.00225,249.38538Z"/><path class="cls-1" d="M558.56365,247.88823c0,.14283-17.5403.25856-39.17235.25856-21.63959,0-39.17612-.11573-39.17612-.25856,0-.14263,17.53653-.25836,39.17612-.25836C541.02335,247.62987,558.56365,247.7456,558.56365,247.88823Z"/><path class="cls-1" d="M365.3233,263.20156c0,.14283-18.343.25856-40.96489.25856-22.62975,0-40.96875-.11573-40.96875-.25856,0-.14263,18.339-.25836,40.96875-.25836C346.98033,262.9432,365.3233,263.05893,365.3233,263.20156Z"/><path class="cls-1" d="M461.00225,262.67075c0,.14273-17.65206.25846-39.422.25846-21.77736,0-39.42565-.11573-39.42565-.25846s17.64829-.25846,39.42565-.25846C443.35019,262.41229,461.00225,262.528,461.00225,262.67075Z"/><path class="cls-1" d="M558.56365,261.1736c0,.14283-17.5403.25856-39.17235.25856-21.63959,0-39.17612-.11573-39.17612-.25856,0-.14263,17.53653-.25836,39.17612-.25836C541.02335,260.91524,558.56365,261.031,558.56365,261.1736Z"/><path class="cls-17" d="M393.67962,68.61636a5.29963,5.29963,0,0,1-.70412,7.13865,7.47144,7.47144,0,0,1-4.93713,1.48215h-9.41224V57.03078h9.0953a7.4629,7.4629,0,0,1,4.82162,1.41055,5.11567,5.11567,0,0,1,.80577,6.79306A4.84,4.84,0,0,1,390.859,66.875,4.70079,4.70079,0,0,1,393.67962,68.61636ZM383.548,65.20574h3.2235a2.85319,2.85319,0,0,0,1.85685-.53271,1.91341,1.91341,0,0,0,.64775-1.56855,1.958,1.958,0,0,0-.64775-1.58334,2.80512,2.80512,0,0,0-1.85685-.54657H383.548Zm5.541,7.4981a1.99414,1.99414,0,0,0,.6764-1.62631,2.083,2.083,0,0,0-.7055-1.66973,2.89109,2.89109,0,0,0-1.94279-.60432H383.548v4.46171h3.62684A2.92025,2.92025,0,0,0,389.089,72.70384Z"/><path class="cls-17" d="M404.93439,73.43752h6.44793v3.79964H400.01205V57.03078h4.92234Z"/><path class="cls-17" d="M420.49148,76.11446a9.89585,9.89585,0,0,1-3.77007-3.69846,10.87983,10.87983,0,0,1,0-10.66431,9.93261,9.93261,0,0,1,3.77007-3.6846,10.96893,10.96893,0,0,1,10.449,0,9.72356,9.72356,0,0,1,3.74143,3.6846,11.02994,11.02994,0,0,1-.01386,10.66431,9.82438,9.82438,0,0,1-3.74235,3.69846,10.93978,10.93978,0,0,1-10.43423,0Zm9.09622-4.77773a6.99056,6.99056,0,0,0,0-8.53441,4.98053,4.98053,0,0,0-3.87171-1.59766,5.04015,5.04015,0,0,0-3.90037,1.58288,7.03335,7.03335,0,0,0,0,8.56351,5.01557,5.01557,0,0,0,3.90037,1.5972A4.9597,4.9597,0,0,0,429.5877,71.33673Z"/><path class="cls-17" d="M454.61432,63.421a3.69168,3.69168,0,0,0-1.56809-1.53991,5.14014,5.14014,0,0,0-2.40434-.5327,4.94475,4.94475,0,0,0-3.82737,1.569,5.9516,5.9516,0,0,0-1.43965,4.18774,6.02646,6.02646,0,0,0,1.5108,4.361,5.5053,5.5053,0,0,0,4.16,1.56855,5.02923,5.02923,0,0,0,3.065-.9208,5.22624,5.22624,0,0,0,1.82775-2.64829H449.6929V65.83871h10.70682v4.57675a9.64408,9.64408,0,0,1-1.85639,3.42541,9.78894,9.78894,0,0,1-3.32469,2.56143,10.26676,10.26676,0,0,1-4.54719.97855,10.76724,10.76724,0,0,1-5.34-1.30936,9.33339,9.33339,0,0,1-3.65549-3.64117,11.51183,11.51183,0,0,1,0-10.66431,9.3316,9.3316,0,0,1,3.64163-3.65549,10.6802,10.6802,0,0,1,5.32431-1.30982,10.34915,10.34915,0,0,1,6.11712,1.75567,8.29022,8.29022,0,0,1,3.296,4.86459Z"/><path class="cls-15" d="M362.09825,281.66572H490.82731a26.76521,26.76521,0,0,1,26.76521,26.76521v.00005a26.76521,26.76521,0,0,1-26.76521,26.76521H362.09825A26.7652,26.7652,0,0,1,335.333,308.431v-.00005A26.76521,26.76521,0,0,1,362.09825,281.66572Z"/><path class="cls-4" d="M401.15783,308.35954c0,2.38835-1.79124,3.87329-4.65443,3.87329h-2.15956v2.9553h-2.48036V304.46987h4.63992C399.36659,304.46987,401.15783,305.95481,401.15783,308.35954Zm-2.51143,0c0-1.17964-.76565-1.86876-2.28165-1.86876h-2.02091v3.721h2.02091C397.88075,310.21182,398.6464,309.5227,398.6464,308.35954Z"/><path class="cls-4" d="M402.7853,310.47256v-6.00269h2.48036v5.91068c0,2.0364.88882,2.87867,2.38925,2.87867,1.516,0,2.38835-.84227,2.38835-2.87867v-5.91068h2.45029v6.00269c0,3.1541-1.80672,4.89978-4.85412,4.89978S402.7853,313.62666,402.7853,310.47256Z"/><path class="cls-4" d="M424.77914,312.2638c0,1.85228-1.47036,2.92433-4.28709,2.92433H414.9488V304.46987h5.23695c2.67907,0,4.05742,1.1176,4.05742,2.78666a2.5774,2.5774,0,0,1-1.42391,2.35828A2.64714,2.64714,0,0,1,424.77914,312.2638Zm-7.36556-5.92617v2.52691h2.46587c1.20971,0,1.86787-.42838,1.86787-1.27075s-.65816-1.25616-1.86787-1.25616Zm4.86971,5.66543c0-.90331-.68912-1.33179-1.97536-1.33179h-2.89435v2.64909h2.89435C421.59417,313.32036,422.28329,312.922,422.28329,312.00306Z"/><path class="cls-4" d="M426.66735,304.46987h2.48036v8.69734h5.37471v2.02092h-7.85507Z"/><path class="cls-4" d="M435.92012,304.46987h2.48036v10.71826h-2.48036Z"/><path class="cls-4" d="M440.1015,314.13167l.84237-1.86787a6.30567,6.30567,0,0,0,3.53692,1.1176c1.47035,0,2.06747-.49041,2.06747-1.14857,0-2.00543-6.23247-.62718-6.23247-4.609,0-1.82122,1.47035-3.33723,4.51775-3.33723a7.18461,7.18461,0,0,1,3.72015.949l-.76575,1.88325a6.05569,6.05569,0,0,0-2.96988-.84227c-1.47035,0-2.0365.55156-2.0365,1.22519,0,1.97536,6.23158.6126,6.23158,4.54783,0,1.79124-1.48494,3.32273-4.54792,3.32273A7.64392,7.64392,0,0,1,440.1015,314.13167Z"/><path class="cls-4" d="M460.54756,304.46987v10.71826H458.0671v-4.39468h-4.86961v4.39468h-2.48036V304.46987h2.48036v4.226h4.86961v-4.226Z"/><path class="cls-2" d="M483.34655,334.82477a15.61,15.61,0,0,1,1.73625,5.34226h3.20532v-.00357l13.45261-.23573-.09707.2393s2.19183-10.31549,2.59252-13.3873c.33062-2.53426,1.895-8.58748-.01419-11.25831a2.79253,2.79253,0,0,0-3.07965-1.02777,2.18508,2.18508,0,0,0-1.54183,1.6897s-.16267-3.5798-2.73007-3.634c-2.56722-.0542-2.65764,1.95262-2.65764,1.95262s-.70509-4.086-3.56174-4.04987a2.74345,2.74345,0,0,0-2.36294,1.98816v-7.72763a2.96949,2.96949,0,0,0-2.7821-3.0078,2.89,2.89,0,0,0-2.99738,2.85088l-.23055,17.98188-4.368-5.59992c-1.13855-1.45169-3.86228-.72972-4.20679.51721,0,0-.78758,1.64078.8386,4.06069C475.75747,323.32439,483.34655,334.82477,483.34655,334.82477Z"/><path class="cls-5" d="M483.34655,334.82477s-.07543-.09468-.20943-.28793c-.139-.20357-.33439-.48972-.58867-.86193-.51841-.7714-1.27215-1.89317-2.24166-3.33583-.9719-1.45606-2.15918-3.23469-3.539-5.30176q-1.03443-1.55388-2.21019-3.31936a6.76486,6.76486,0,0,1-.973-1.97585,3.698,3.698,0,0,1,.01985-2.33456l-.00675.01806a1.86957,1.86957,0,0,1,.96734-1.04226,3.37118,3.37118,0,0,1,1.40533-.3597,2.699,2.699,0,0,1,1.45884.34114,3.41174,3.41174,0,0,1,.31732.22788c.0926.09152.18332.19.26977.28625q.23.2939.46292.59136,1.86312,2.3806,3.90238,4.98653l-.23484.0791c.05906-5.01878.12387-10.51756.19266-16.36681l.0134-1.10093a5.54076,5.54076,0,0,1,.07751-1.13477,3.01115,3.01115,0,0,1,5.51774-.93776,3.231,3.231,0,0,1,.4388,1.12833,6.576,6.576,0,0,1,.05529,1.19144q.0003,1.16961.0006,2.35173.00044,2.36379.00079,4.773l-.30362-.04695a2.98747,2.98747,0,0,1,1.32317-1.711,3.02388,3.02388,0,0,1,.87046-.33964,1.34938,1.34938,0,0,1,.4771-.034,2.80988,2.80988,0,0,1,.46531.0529,2.98562,2.98562,0,0,1,1.5846.91275,6.72486,6.72486,0,0,1,1.50469,3.20124l-.3069.01936a2.22785,2.22785,0,0,1,1.32574-1.83462,3.16048,3.16048,0,0,1,1.11353-.254,3.11741,3.11741,0,0,1,.567.00983l.28645.03215.27762.08328a2.76075,2.76075,0,0,1,1.59262,1.53427,6.07171,6.07171,0,0,1,.53052,2.11054l-.29876-.02779a2.35719,2.35719,0,0,1,1.44782-1.72792,2.94386,2.94386,0,0,1,3.16344.68416,4.05286,4.05286,0,0,1,.62122.92257,6.99022,6.99022,0,0,1,.54134,2.08315,31.58552,31.58552,0,0,1-.76367,8.07859c-.36018,2.578-.87055,5.0305-1.32931,7.36556l-1.37823,6.636-.21817-.06689.09756-.23891.1076.15672c-5.40807.07931-9.928.14551-13.45321.19722l.074-.07543v.0793l-.07553-.0003c-1.25557-.00555-2.28255-.01-3.20522-.01409l-.054-.0002-.00715-.05508a15.97736,15.97736,0,0,0-1.07294-4.02436c-.17975-.44169-.33657-.77071-.445-.98887-.10849-.21866-.15712-.33509-.15712-.33509a10.24859,10.24859,0,0,1,.66083,1.29914,15.46631,15.46631,0,0,1,1.13656,4.03687l-.06114-.05519c.92267-.00407,1.94965-.00853,3.20522-.01409l-.07534.07543v-.07752l.07415-.00148c3.52481-.07186,8.04435-.164,13.45182-.27424l.1723-.00348-.06461.1604-.09648.2393-.21816-.0668c.4259-2.089.87791-4.30614,1.35323-6.638.45151-2.33763.95324-4.782,1.30708-7.3595a31.48942,31.48942,0,0,0,.7456-8.00276,6.71586,6.71586,0,0,0-.51781-1.98826,3.77391,3.77391,0,0,0-.56744-.84287,2.6465,2.6465,0,0,0-2.84055-.6117,2.049,2.049,0,0,0-1.2638,1.518l-.21756,1.03254-.0812-1.06033a5.78919,5.78919,0,0,0-.50322-1.99323,2.45635,2.45635,0,0,0-1.41456-1.37457,3.08181,3.08181,0,0,0-2.02132.11921,1.92312,1.92312,0,0,0-1.14281,1.56722l-.09519,1.00981-.21181-.99045a6.43872,6.43872,0,0,0-1.42519-3.04026,2.3751,2.3751,0,0,0-3.015-.53726,2.67408,2.67408,0,0,0-1.18381,1.53645l-.30371.94411.00019-.99105.0006-4.773q.00045-1.182.0007-2.35173a6.34963,6.34963,0,0,0-.04943-1.13537,2.92757,2.92757,0,0,0-.39652-1.02182,2.71556,2.71556,0,0,0-4.9651.83989,5.30226,5.30226,0,0,0-.07186,1.07383q-.00727.5525-.01478,1.10093c-.0812,5.84915-.15742,11.34773-.227,16.36632l-.00516.37468-.22977-.29548q-2.02584-2.606-3.8862-4.99883a3.86115,3.86115,0,0,0-.98073-1.0515,2.4673,2.4673,0,0,0-1.32971-.31335,3.14549,3.14549,0,0,0-1.30916.32873,1.65978,1.65978,0,0,0-.85974.90064l-.0006.002-.00625.01628a3.51774,3.51774,0,0,0-.01688,2.18349,6.57491,6.57491,0,0,0,.93607,1.92226q1.16441,1.77138,2.19163,3.33444c1.363,2.079,2.536,3.86814,3.49613,5.33253.94828,1.45626,1.68573,2.58875,2.19282,3.3674.24288.37925.42948.67056.56238.878C483.28938,334.71907,483.34655,334.82477,483.34655,334.82477Z"/><path class="cls-2" d="M485.07428,339.96624h16.84451a2.31749,2.31749,0,0,1,2.31749,2.31749v.163a2.31749,2.31749,0,0,1-2.31749,2.31749H485.07427a2.31749,2.31749,0,0,1-2.31749-2.31749v-.163A2.3175,2.3175,0,0,1,485.07428,339.96624Z"/><path class="cls-5" d="M501.91879,344.76419c-.00079-.01737.17161-.01152.48308-.08347a2.33481,2.33481,0,0,0,1.171-.70223,2.31049,2.31049,0,0,0,.48557-.85676,2.81568,2.81568,0,0,0,.06352-1.16921,2.22539,2.22539,0,0,0-1.8917-1.85179c-4.4175.00536-10.46933.0128-17.15479.02094a2.18431,2.18431,0,0,0-1.90012,1.12644,2.50036,2.50036,0,0,0-.02889,2.18071,2.17311,2.17311,0,0,0,1.72217,1.17646c.73219.02243,1.49724.00913,2.21734.01568,2.8993.01251,5.51277.02383,7.71988.03335,2.17436.02065,3.94447.03742,5.20459.04933q.88779.01847,1.415.02928a2.9489,2.9489,0,0,1,.49339.03127,2.92574,2.92574,0,0,1-.49339.03136q-.52779.011-1.415.02918c-1.26012.012-3.03023.02879-5.20459.04943-2.20711.00953-4.82058.02085-7.71988.03335-.7325-.00327-1.45736.01548-2.24513-.00655a2.47141,2.47141,0,0,1-1.96564-1.33368,2.80146,2.80146,0,0,1,.02878-2.46756,2.49293,2.49293,0,0,1,2.17149-1.289c6.71176.012,12.7626-.00933,17.18556.07236a2.41325,2.41325,0,0,1,2.03293,2.04384,2.93746,2.93746,0,0,1-.0942,1.23938,2.409,2.409,0,0,1-.538.89448,2.31593,2.31593,0,0,1-1.24664.68119A1.604,1.604,0,0,1,501.91879,344.76419Z"/><path class="cls-5" d="M488.1439,319.0372a39.03544,39.03544,0,0,1,0-6.96,39.03544,39.03544,0,0,1,0,6.96Z"/><path class="cls-5" d="M494.13707,318.56406a13.84294,13.84294,0,0,1,0-4.1385,13.85175,13.85175,0,0,1,0,4.1385Z"/><path class="cls-5" d="M499.60191,320.30478a13.85153,13.85153,0,0,1,0-4.1386,13.84449,13.84449,0,0,1,0,4.1386Z"/><path class="cls-5" d="M481.27472,301.43537a41.99744,41.99744,0,0,1-6.43048-3.28313,41.99526,41.99526,0,0,1,6.43048,3.28313Z"/><path class="cls-5" d="M484.18961,299.7938a69.09283,69.09283,0,0,1-1.43283-9.1556,69.12025,69.12025,0,0,1,1.43283,9.1556Z"/><path class="cls-5" d="M487.815,300.211a45.50674,45.50674,0,0,1,4.31021-6.15942A45.52348,45.52348,0,0,1,487.815,300.211Z"/><path class="cls-7" d="M748.85085,208.606c-9.91043,5.13363-17.50983,13.97221-22.97427,23.70418s-8.98617,20.41064-12.47455,31.01267l-3.05257,54.67764c11.53145-19.61759,20.787-42.67949,23.28781-65.29744q-3.837-.34169-7.67384-.68346c5.14524-.7852,9.464-4.51339,12.21174-8.93368s4.16232-9.51778,5.54285-14.53607q-4.68113.69586-9.36235,1.39184A34.69866,34.69866,0,0,0,748.85085,208.606Z"/><path class="cls-18" d="M748.85085,208.606c-9.91043,5.13363-17.50983,13.97221-22.97427,23.70418s-8.98617,20.41064-12.47455,31.01267l-3.05257,54.67764c11.53145-19.61759,20.787-42.67949,23.28781-65.29744q-3.837-.34169-7.67384-.68346c5.14524-.7852,9.464-4.51339,12.21174-8.93368s4.16232-9.51778,5.54285-14.53607q-4.68113.69586-9.36235,1.39184A34.69866,34.69866,0,0,0,748.85085,208.606Z"/><path class="cls-19" d="M708.64238,330.81193s-25.02932-29.95809-24.74039-58.557h10.11074s-10.98219-7.22193-10.11322-11.26624,1.158-19.35486,1.158-19.35486l9.24405,2.311s-6.933-3.46655-7.79971-8.95521,2.02221-30.90994,2.02221-30.90994,11.26626,11.844,14.73269,23.97694,12.56578,26.28787,9.89386,63.26422S708.64238,330.81193,708.64238,330.81193Z"/><path class="cls-20" d="M721.33145,333.63988s27.11683-18.06446,33.14165-41.12042l-8.12881-2.21208s10.40948-3.40352,10.59559-6.84516,3.30366-15.81407,3.30366-15.81407l-7.93765-.16446s6.33242-1.27016,8.23006-5.49333,5.1369-25.29314,5.1369-25.29314-11.649,7.05737-17.09058,16.05347-15.85387,18.38545-21.79572,48.69808S721.33145,333.63988,721.33145,333.63988Z"/><path class="cls-5" d="M695.36138,230.19974a1.50686,1.50686,0,0,1,.09231.31017c.05617.23464.12893.53865.22044.92148.19007.84574.45756,2.03669.7985,3.55409.34828,1.54321.75334,3.43569,1.19214,5.63933.44645,2.20215.967,4.70762,1.47571,7.49,1.074,5.55416,2.20662,12.19506,3.37246,19.58334,1.12971,7.39375,2.25754,15.54043,3.25911,24.114.98133,8.57883,1.74223,16.76979,2.3293,24.22755.55066,7.46044.96306,14.18491,1.18461,19.83773.13954,2.825.20425,5.38306.272,7.62878.07544,2.24563.113,4.18039.12586,5.7621.01429,1.555.02551,2.77545.03345,3.642-.00189.39364-.00328.70609-.00437.94728a.16239.16239,0,1,1-.05279.00089c-.012-.24089-.02751-.553-.047-.94629-.03107-.86579-.07474-2.08523-.13052-3.639-.04377-1.58043-.11057-3.5136-.2135-5.757-.09528-2.24384-.1855-4.79944-.34838-7.62163-.268-5.64727-.7179-12.36479-1.29427-19.81769-.6127-7.45022-1.38748-15.63323-2.368-24.20542-1.00076-8.56693-2.11332-16.709-3.21643-24.1014-1.139-7.38669-2.23352-14.02938-3.2609-19.5887-.48545-2.78508-.98063-5.29392-1.39988-7.50035-.4117-2.208-.78768-4.10555-1.10558-5.65441-.30035-1.52573-.53608-2.72314-.70342-3.57335-.07067-.38729-.12685-.69488-.17023-.93219A1.50607,1.50607,0,0,1,695.36138,230.19974Z"/><path class="cls-21" d="M705.17067,349.15728s-22.905-25.98882-30.01675-41.69917l5.369-2.294c-3.89176.64207-7.8789-1.03036-10.89652-3.57037s-5.23358-5.88081-7.40645-9.17268l7.07276-1.19512a26.29533,26.29533,0,0,1-15.45338-11.97045c8.34618,1.37239,15.89694,5.957,22.1191,11.68649a110.112,110.112,0,0,1,13.40337,15.5303,52.91459,52.91459,0,0,1,5.20529,8.55819C698.41553,322.98742,705.18379,339.6129,705.17067,349.15728Z"/><path class="cls-5" d="M754.8332,251.824a1.17188,1.17188,0,0,1-.10352.2658c-.09112.197-.20635.446-.35.75632-.33408.69368-.7993,1.65913-1.39014,2.88551-1.22561,2.49625-2.96236,6.12657-5.06536,10.63122-4.211,9.00672-9.75867,21.57865-15.23561,35.72565-5.46682,14.15653-9.82011,27.19168-12.7635,36.68852-1.47452,4.74762-2.63162,8.60186-3.404,11.27289-.38788,1.3047-.69309,2.33178-.91244,3.06973-.10253.32615-.1848.58789-.24992.79493a.14307.14307,0,1,1-.05092-.014c.05221-.21062.11821-.47692.20041-.80873.197-.7444.471-1.78042.81923-3.09663.71325-2.68889,1.81734-6.5606,3.24821-11.3252,2.85582-9.53049,7.15859-22.5976,12.63087-36.76792,5.48221-14.16079,11.08868-26.7225,15.38708-35.69508,2.14677-4.48788,3.93453-8.09557,5.216-10.56521.62779-1.20822,1.12207-2.15928,1.47722-2.84264.16236-.30094.29268-.54233.39571-.73329A1.16714,1.16714,0,0,1,754.8332,251.824Z"/><path class="cls-5" d="M707.11377,360.2938a1.7669,1.7669,0,0,1-.11462-.477c-.062-.37429-.13729-.82927-.22829-1.37874-.17688-1.19929-.478-2.92859-.89945-5.05273-.4134-2.12632-1.004-4.63785-1.75482-7.3997-.77557-2.755-1.72581-5.75645-2.88373-8.8498-1.17576-3.0878-2.44652-5.969-3.68551-8.54946-1.262-2.56939-2.47877-4.8446-3.57384-6.71355-1.08763-1.87263-2.00454-3.36929-2.66428-4.38614-.29479-.47245-.53885-.86362-.73974-1.1854a.24643.24643,0,1,1,.08585-.05905c.22294.30749.494.68128.82123,1.13278.71255.98461,1.67928,2.45555,2.81138,4.31141,1.13943,1.85218,2.3953,4.11954,3.68689,6.69,1.26867,2.5815,2.55967,5.47268,3.74159,8.57685,1.16415,3.10973,2.10577,6.13192,2.85971,8.90737.72942,2.78219,1.28544,5.31367,1.65437,7.45667.37706,2.141.62381,3.884.73974,5.09392l.13231,1.39313A1.75006,1.75006,0,0,1,707.11377,360.2938Z"/><rect class="cls-15" x="687.20666" y="354.18073" width="50.13081" height="10.22596"/><polygon class="cls-15" points="691.983 364.407 697.406 398.803 727.698 398.803 732.752 364.407 691.983 364.407"/><path class="cls-5" d="M734.262,364.40669c0,.14273-9.48334.25846-21.17885.25846-11.69959,0-21.181-.11573-21.181-.25846s9.48136-.25846,21.181-.25846C724.77863,364.14823,734.262,364.264,734.262,364.40669Z"/><path class="cls-7" d="M27.018,295.96646l-1.40236-71.71452a33.00346,33.00346,0,0,1,32.95052-33.64876h.00009a33.0036,33.0036,0,0,1,33.04995,32.83368l.37309,72.5296L27.018,298.74141"/><path class="cls-7" d="M27.018,308.20222H128.08439c0-6.75762-4.55924-11.84986-11.31686-11.84986l-89.74951-.3859Z"/><rect class="cls-7" x="110.61476" y="308.20222" width="7.09816" height="89.97313" transform="translate(228.32768 706.37757) rotate(180)"/><rect class="cls-7" x="35.0323" y="308.20222" width="7.09816" height="89.97313" transform="translate(77.16276 706.37757) rotate(180)"/><path class="cls-5" d="M35.26584,296.35246c0-.13,18.80111-.23533,41.988-.23533,23.19491,0,41.99206.10531,41.99206.23533,0,.12983-18.79715.23513-41.99206.23513C54.067,296.58759,35.26584,296.48229,35.26584,296.35246Z"/><path class="cls-5" d="M28.72737,308.2446c0-.12982,22.09539-.23523,49.34512-.23523,27.25927,0,49.35.10541,49.35.23523s-22.0907.23523-49.35.23523C50.82276,308.47983,28.72737,308.37453,28.72737,308.2446Z"/><path class="cls-5" d="M34.12452,203.3764c.12992,0,.23523,20.46988.23523,45.71489,0,25.25384-.10531,45.71926-.23523,45.71926s-.23523-20.46542-.23523-45.71926C33.88929,223.84628,33.9946,203.3764,34.12452,203.3764Z"/><path class="cls-22" d="M94.70342,255.718s56.87017-.24109,61.37452,0c8.01865.42917,13.39425,9.38388,14.464,14.02s25.9254,76.10821,25.9254,76.10821L177.157,358.33908l-25.90981-58.45436-13.03733-22.67988L67.28137,289.59623Z"/><path class="cls-22" d="M138.576,275.11018s10.49812,0,16.167,8.39849c3.33226,4.93661,2.16146,13.75832,2.22846,20.41738.09111,9.065-2.26588,79.40176-2.26588,79.40176-6.69618,4.75656-14.17032,5.30435-22.33556,2.11352l-5.77451-77.86054,1.48891-11.61433-38.79161.85875s-6.90482-12.93,2.69653-23.18479C93.22443,272.32133,138.576,275.11018,138.576,275.11018Z"/><path class="cls-23" d="M143.47137,275.49042a1.35517,1.35517,0,0,1,.2929.02888c.21766.03355.49984.07722.85517.132a12.901,12.901,0,0,1,3.13187,1.11423,15.96364,15.96364,0,0,1,4.21513,3.14437,20.379,20.379,0,0,1,3.8581,5.799,23.78531,23.78531,0,0,1,1.93328,8.21408,64.394,64.394,0,0,1-.26263,9.68274c-.30759,3.39161-.47265,6.949-.60227,10.65265-.12337,3.70189-.251,7.53409-.38184,11.4592-.47364,15.69655-.90251,29.9036-1.214,40.223-.166,5.1232-.30074,9.27937-.395,12.18861-.05539,1.41477-.09886,2.52493-.12963,3.3133-.01886.35791-.034.642-.04546.86133a1.36375,1.36375,0,0,1-.03156.2931,1.37532,1.37532,0,0,1-.01648-.29429c-.0003-.21965-.00069-.50411-.00129-.86262.00983-.78887.02372-1.89982.04129-3.31549.05876-2.91023.14243-7.06779.24566-12.19278.23483-10.29544.58689-24.51836,1.07631-40.22891.13409-3.926.26491-7.759.39136-11.46178.13568-3.6996.31146-7.28208.631-10.67052a64.93039,64.93039,0,0,0,.3054-9.621,23.59752,23.59752,0,0,0-1.84851-8.10649,20.30959,20.30959,0,0,0-3.74406-5.75158,16.08546,16.08546,0,0,0-4.10873-3.16323A15.003,15.003,0,0,0,143.47137,275.49042Z"/><path class="cls-15" d="M154.69553,382.59691l.01965,1.43025s24.34169,9.49614,24.64541,14.0937l-48.14384.23166.57766-16.0236C138.968,385.60957,146.4613,385.947,154.69553,382.59691Z"/><path class="cls-1" d="M131.21655,398.35262l.139-3.854,46.09215,1.18906s2.14806.92227,1.91293,2.43322Z"/><path class="cls-15" d="M195.52949,342.8728l.5455,1.32236s26.12788-.1459,28.10512,4.01583l-44.66786,17.963-5.36995-15.10807C182.02011,351.47109,189.11013,349.02249,195.52949,342.8728Z"/><path class="cls-1" d="M179.512,366.17421l-1.29149-3.63389L221.505,346.65438s2.33664.06541,2.6751,1.55661Z"/><path class="cls-5" d="M197.88589,349.67886c-.05628.02878-.28486-.25568-.47682-.80674a4.78271,4.78271,0,0,1,.72694-4.33036c.36128-.45816.67016-.6523.71393-.60684a7.144,7.144,0,0,0-.96405,5.74394Z"/><path class="cls-5" d="M195.33148,350.11468a5.18334,5.18334,0,0,1,.99909-5.866,25.99339,25.99339,0,0,0-.91562,2.86229A26.00225,26.00225,0,0,0,195.33148,350.11468Z"/><path class="cls-5" d="M201.76851,349.35469a4.131,4.131,0,0,1-.62014-4.91943c.14432.04943-.17965,1.14748.00278,2.49862C201.30976,348.28751,201.896,349.271,201.76851,349.35469Z"/><path class="cls-5" d="M199.10771,344.31864c-.0269.05091-.66977-.28208-1.32872-1.19929a9.21287,9.21287,0,0,1-.93736-1.70747c-.1452-.33429-.28515-.68873-.42441-1.05577a3.161,3.161,0,0,1-.19295-.61944.923.923,0,0,1,.22094-.79166.724.724,0,0,1,.87036-.10481,1.60292,1.60292,0,0,1,.522.47057,5.62724,5.62724,0,0,1,.60932,1.00455,5.8574,5.8574,0,0,1,.53409,1.89655,3.07828,3.07828,0,0,1-.18818,1.78042c-.08527-.01052.01766-.68585-.1735-1.72792a6.37519,6.37519,0,0,0-.5989-1.73695,5.66312,5.66312,0,0,0-.58382-.90738c-.20833-.28942-.5312-.45835-.62182-.31364-.16477.15583-.07256.49994.07741.87413.13251.35692.26184.7054.38948,1.04912a11.462,11.462,0,0,0,.80267,1.68881C198.627,343.83249,199.161,344.25253,199.10771,344.31864Z"/><path class="cls-5" d="M199.36279,344.06345c.01806.021-.03633.10293-.17181.25241l-.10531.11612-.0258-.17558a5.87319,5.87319,0,0,1,.11821-2.0223,7.3946,7.3946,0,0,1,.50738-1.51015,8.04424,8.04424,0,0,1,.42561-.79294,1.52973,1.52973,0,0,1,.348-.41509.78405.78405,0,0,1,.6523-.1587.683.683,0,0,1,.49657.68138,2.34263,2.34263,0,0,1-.092.61944,6.37891,6.37891,0,0,1-.35424,1.03671,6.17671,6.17671,0,0,1-.98113,1.5572c-.69269.79354-1.28494,1.08793-1.31531,1.03919-.05231-.0661.44754-.45964,1.02828-1.26539a6.99238,6.99238,0,0,0,.82886-1.51511,6.67788,6.67788,0,0,0,.30065-.96912c.1055-.35295.08486-.70381-.02978-.68108-.2804-.09807-.63086.64485-.8659,1.07541a8.42812,8.42812,0,0,0-.54629,1.40048,11.85387,11.85387,0,0,0-.36258,1.91868l-.13091-.05945C199.25559,344.084,199.34482,344.04251,199.36279,344.06345Z"/><path class="cls-5" d="M154.28263,389.51344c-.06292-.005-.10888-.367.01588-.93687a4.78253,4.78253,0,0,1,2.88562-3.30982c.54758-.20139.91244-.20516.92584-.14353a7.14455,7.14455,0,0,0-3.82734,4.39022Z"/><path class="cls-5" d="M151.8779,388.54819a5.18361,5.18361,0,0,1,3.921-4.476,26.00569,26.00569,0,0,0-2.27809,1.96A25.98962,25.98962,0,0,0,151.8779,388.54819Z"/><path class="cls-5" d="M157.76089,391.26894a3.21142,3.21142,0,0,1,.26988-2.59917c.61766-1.38092,1.71273-2.03639,1.776-1.91729.09707.11752-.75354.88366-1.30519,2.13059C157.92843,390.11958,157.91325,391.26438,157.76089,391.26894Z"/><path class="cls-5" d="M158.12883,385.58515a2.91,2.91,0,0,1-.50461-1.71729,9.21293,9.21293,0,0,1,.09469-1.94548c.05131-.36089.11742-.73617.19086-1.12178a3.16935,3.16935,0,0,1,.1597-.62887.92385.92385,0,0,1,.60258-.5591.72448.72448,0,0,1,.79661.36625,1.60551,1.60551,0,0,1,.19851.67413,5.63169,5.63169,0,0,1-.00655,1.17488,5.85919,5.85919,0,0,1-.53716,1.89565c-.49836,1.014-1.05488,1.45983-1.0921,1.41864-.06719-.0536.37389-.57508.75632-1.56325a6.375,6.375,0,0,0,.3986-1.79353,5.65933,5.65933,0,0,0-.02272-1.07869c-.026-.35573-.21271-.66858-.36576-.59265-.22193.04665-.32337.38809-.39146.7854-.07384.3735-.1459.73816-.21707,1.09785a11.46992,11.46992,0,0,0-.19979,1.85913C157.97369,384.91936,158.20893,385.55667,158.12883,385.58515Z"/><path class="cls-5" d="M158.47979,385.50118c.00447.0273-.08476.06869-.27851.12516l-.15046.04387.06987-.16317a5.87668,5.87668,0,0,1,1.15909-1.66152,7.39827,7.39827,0,0,1,1.22251-1.02122,8.00614,8.00614,0,0,1,.77766-.453,1.5281,1.5281,0,0,1,.51374-.17161.78355.78355,0,0,1,.6389.20615.68288.68288,0,0,1,.0666.84039,2.344,2.344,0,0,1-.40258.47969,6.36138,6.36138,0,0,1-.84435.69806,6.17251,6.17251,0,0,1-1.651.81358,3.00035,3.00035,0,0,1-1.6646.19722c-.01-.08357.62183-.15751,1.53844-.54024a6.98882,6.98882,0,0,0,1.49914-.85726,6.67594,6.67594,0,0,0,.76336-.66857c.27464-.24546.44059-.55523.331-.59592-.18759-.23027-.875.21935-1.30062.46331a8.4223,8.4223,0,0,0-1.19849.90758,11.84529,11.84529,0,0,0-1.31294,1.44524l-.0805-.1192C158.37776,385.46257,158.47542,385.47379,158.47979,385.50118Z"/><path class="cls-22" d="M159.16008,221.94557l8.68653,1.39938,5.64448,7.81786-1.64255,5.953-1.03393.33329.21022,2.23173a2.47217,2.47217,0,0,1-1.29517,2.41168h0l-4.499-7.79423,1.85725,7.90708a3.92808,3.92808,0,0,1-3.029-.516c-1.90875-.96733-3.95071-9.78656-3.95071-9.78656l-2.99867-1.87075,2.94517,9.79778a3.29447,3.29447,0,0,1-2.55848.922c-1.66359-.08952-5.0427-8.9827-5.0427-8.9827L107.2293,238.0968l-.094-5.84577,10.96888-18.17771Z"/><path class="cls-24" d="M61.03937,148.95275a15.56692,15.56692,0,0,1-9.56169-11.33344c-.42075-2.14211-.38292-4.37463-1.03309-6.45857-.93234-2.98835-3.2447-5.57253-3.35941-8.70092-.07625-2.07948.84862-4.06724,1.033-6.14.178-2.001-.33919-3.99736-.3793-6.00577A12.99585,12.99585,0,0,1,55.70358,98.3L68.2091,93.22321l19.27943,7.85964s10.9666,10.64293,7.80972,32.54376Z"/><path class="cls-7" d="M93.19525,135.5448a3.716,3.716,0,0,1,1.3839-1.09964l-.11305.00327a2.18675,2.18675,0,0,1,.31017-.08178,1.46837,1.46837,0,0,1,1.162.0391l-.011.0002a2.73156,2.73156,0,0,1,1.60395,1.16157,3.23221,3.23221,0,0,1-.08159,3.35162,2.47059,2.47059,0,0,1-4.5912-.44019A3.06636,3.06636,0,0,1,93.19525,135.5448Z"/><path class="cls-22" d="M92.96975,115.5157c-1.278-6.99018-6.96745-15.0784-13.897-13.505l-21.25618,8.13378a4.15847,4.15847,0,0,0-3.19849,4.62564l6.30073,46.86167a12.96628,12.96628,0,0,0,11.97249,11.20868h.0001A12.96806,12.96806,0,0,0,86.69966,158.936c-.24138-3.2345-.41587-5.66444-.413-5.64925,0,0,8.82063-2.55957,9.29427-14.5197C95.81666,132.81918,94.38938,123.28174,92.96975,115.5157Z"/><path class="cls-5" d="M90.74953,125.8423a1.516,1.516,0,0,1-1.27194,1.6909,1.45,1.45,0,0,1-1.71273-1.17369,1.51654,1.51654,0,0,1,1.26995-1.69139A1.45116,1.45116,0,0,1,90.74953,125.8423Z"/><path class="cls-5" d="M91.48292,120.741c-.16317.21866-1.40395-.49031-3.02358-.29438-1.62052.1728-2.71073,1.14717-2.91.96961-.09688-.07772.05161-.45458.52445-.89289a4.16163,4.16163,0,0,1,2.30082-1.01894,3.99614,3.99614,0,0,1,2.43569.47959C91.35369,120.30719,91.56461,120.64237,91.48292,120.741Z"/><path class="cls-5" d="M76.37326,127.29836a1.51579,1.51579,0,0,1-1.27165,1.6908,1.45011,1.45011,0,0,1-1.71263-1.17339,1.51677,1.51677,0,0,1,1.27026-1.69169A1.45055,1.45055,0,0,1,76.37326,127.29836Z"/><path class="cls-5" d="M75.59431,122.92959c-.164.21846-1.40594-.49012-3.02438-.294-1.62032.1725-2.71083,1.14678-2.91013.96921-.09637-.07771.04983-.45408.525-.89269a4.15828,4.15828,0,0,1,2.30051-1.01914,3.99949,3.99949,0,0,1,2.4359.4795C75.46309,122.496,75.6751,122.83093,75.59431,122.92959Z"/><path class="cls-5" d="M82.89654,134.24794a10.8064,10.8064,0,0,1,2.57525-.78639c.40853-.09181.79036-.22035.82669-.51086a2.11909,2.11909,0,0,0-.42144-1.19353q-.76137-1.43239-1.5964-3.00512c-2.23-4.28381-3.89692-7.8262-3.72372-7.91433.1733-.08834,2.12195,3.31221,4.3519,7.59612q.80946,1.58617,1.54737,3.03a2.40987,2.40987,0,0,1,.40694,1.59839,1.04645,1.04645,0,0,1-.60872.68535,2.81327,2.81327,0,0,1-.69111.18074A10.60577,10.60577,0,0,1,82.89654,134.24794Z"/><path class="cls-25" d="M86.28666,153.28678a30.07313,30.07313,0,0,1-16.21882-2.33168s4.76956,7.6125,16.38885,5.12241Z"/><path class="cls-25" d="M83.11291,138.12858a4.01422,4.01422,0,0,0-3.48809-1.35214,2.613,2.613,0,0,0-1.99431,1.41229,2.39514,2.39514,0,0,0,3.09,3.24779,5.95346,5.95346,0,0,0,2.21089-1.75779,1.8593,1.8593,0,0,0,.44069-.667.83158.83158,0,0,0-.1609-.81408"/><path class="cls-5" d="M78.26157,135.93328c.26163-.04645.47324,1.71163,2.12642,2.7815,1.65069,1.07442,3.502.65487,3.54466.89894.03772.10759-.377.39126-1.16554.5063a4.4094,4.4094,0,0,1-2.94725-.65091,3.83912,3.83912,0,0,1-1.67015-2.34558C77.99557,136.3965,78.14028,135.93744,78.26157,135.93328Z"/><path class="cls-5" d="M75.51977,116.17514c-.10749.45935-1.74985.44218-3.62308.89647-1.88315.41657-3.34973,1.15442-3.649.78917-.13478-.17558.08328-.62143.6526-1.12158a6.49039,6.49039,0,0,1,5.54007-1.28445C75.17168,115.65346,75.56364,115.958,75.51977,116.17514Z"/><path class="cls-5" d="M90.25217,115.23332c-.24139.40158-1.40256.15206-2.74676.2929-1.349.094-2.4493.54083-2.75649.187-.13687-.17329-.00129-.56307.45389-.97031a3.9995,3.9995,0,0,1,4.43408-.38649C90.15609,114.67829,90.35658,115.03878,90.25217,115.23332Z"/><path class="cls-5" d="M69.98714,104.722a41.886,41.886,0,0,0-15.569,4.00491,7.62423,7.62423,0,0,0-3.69158,2.9676,7.477,7.477,0,0,0-.52193,4.14624c.376,4.40927,2.54957,9.68017,4.53173,13.63664l2.31314,3.37652c3.0138-.93656,5.12314-8.9825,4.64816-12.63982a8.69554,8.69554,0,0,0,4.50309-8.02926A9.62459,9.62459,0,0,0,69.98714,104.722Z"/><path class="cls-26" d="M60.29669,130.79092c-.35237-2.51094-3.48713-2.77336-5.56029-1.31353-1.13794.80157-1.931,2.27907-1.58045,4.94712.935,7.11494,7.88507,4.70852,7.87087,4.50307C61.01762,138.79984,60.7093,133.73122,60.29669,130.79092Z"/><path class="cls-23" d="M58.49914,136.51749c-.0343-.01856-.11275.10322-.30955.22669a1.25,1.25,0,0,1-.92387.14094A3.09345,3.09345,0,0,1,55.485,134.3198a4.12826,4.12826,0,0,1,.11387-1.82012,1.44332,1.44332,0,0,1,.80712-1.07383.63664.63664,0,0,1,.77616.24347c.12142.18649.09495.33448.13429.34183.02225.01508.137-.13936.04112-.4257a.79806.79806,0,0,0-.33849-.409.94342.94342,0,0,0-.70908-.091,1.75684,1.75684,0,0,0-1.14993,1.27314,4.24249,4.24249,0,0,0-.16909,2.03967c.2339,1.42767,1.14412,2.67282,2.21175,2.8348a1.33826,1.33826,0,0,0,1.10871-.33707C58.509,136.691,58.52549,136.52721,58.49914,136.51749Z"/><path class="cls-7" d="M54.61988,138.40917a3.71568,3.71568,0,0,1,1.38384-1.09954l-.113.00328a2.18489,2.18489,0,0,1,.31016-.08179,1.46827,1.46827,0,0,1,1.16193.039l-.011.0003a2.73175,2.73175,0,0,1,1.604,1.16157,3.23214,3.23214,0,0,1-.08161,3.35152,2.47058,2.47058,0,0,1-4.59117-.4401A3.06643,3.06643,0,0,1,54.61988,138.40917Z"/><path class="cls-27" d="M49.173,106.052c1.477-3.35777,4.9989-5.4563,8.59525-6.17907a20.06367,20.06367,0,0,1,3.19521-.35662,11.74877,11.74877,0,0,1-.44817-4.33016,12.50345,12.50345,0,0,1,6.99781-9.89723,15.55772,15.55772,0,0,1,11.76212-.30382,15.17258,15.17258,0,0,1,8.77814,7.25707c1.79789,3.60322,1.65754,8.48742-.93448,11.46177-3.007,2.75232-6.47217,3.92392-10.33077,4.72281A14.38512,14.38512,0,0,1,66.78768,106.99c-8.98241,7.37508-11.23781,19.57412-12.73216,30.61376-3.90192-6.86978-4.75009-14.9974-5.51734-22.86062C48.25277,111.81818,47.98969,108.74209,49.173,106.052Z"/><path class="cls-5" d="M59.79212,106.86043c-.10444-.09727.39324-.80088,1.1114-1.57119.71839-.77061,1.38521-1.31621,1.48964-1.21884s-.39316.80068-1.11156,1.57129C60.56344,106.412,59.89648,106.9578,59.79212,106.86043Z"/><path class="cls-5" d="M80.55424,103.23c-.06452-.06382.70173-.77825,1.5972-2.17327a13.01965,13.01965,0,0,0,1.02777-12.31615c-.6518-1.52415-1.28891-2.3555-1.21467-2.40771.02581-.01975.21251.16536.50193.54084a10.36843,10.36843,0,0,1,1.04515,1.715,12.37678,12.37678,0,0,1-1.05756,12.673,10.37427,10.37427,0,0,1-1.31511,1.5181C80.79136,103.10217,80.57647,103.25374,80.55424,103.23Z"/><path class="cls-5" d="M76.05644,97.06653a6.84882,6.84882,0,0,1,1.19531-1.3714,27.80088,27.80088,0,0,0,2.808-3.287,11.50721,11.50721,0,0,0,1.78539-3.86287c.253-1.06837.23335-1.76524.31811-1.76772a3.5733,3.5733,0,0,1,.04059,1.83729,9.92751,9.92751,0,0,1-1.71938,4.08789,18.82844,18.82844,0,0,1-2.97941,3.25583A6.05708,6.05708,0,0,1,76.05644,97.06653Z"/><g class="cls-16"><path d="M60.471,96.03279a13.15233,13.15233,0,0,0,6.25871,11.00432l-.12476.20238a7.22161,7.22161,0,0,1-6.134-11.2067Z"/></g><path class="cls-4" d="M51.895,111.72578a12.29559,12.29559,0,0,1,2.39416,1.17437,12.295,12.295,0,0,1,2.35956,1.243,5.09573,5.09573,0,0,1-2.59385-.78222A5.09482,5.09482,0,0,1,51.895,111.72578Z"/><path class="cls-4" d="M47.49424,119.06721a21.43784,21.43784,0,0,1,3.19467.3067,21.45125,21.45125,0,0,1,3.19764.27761,6.81768,6.81768,0,0,1-3.2447.23712A6.81979,6.81979,0,0,1,47.49424,119.06721Z"/><path class="cls-4" d="M56.35988,98.149c.14733.04447-.37219,1.96633-.5657,4.3917-.20984,2.42488-.01483,4.4058-.16751,4.42535a10.43533,10.43533,0,0,1-.34761-4.46813A10.4351,10.4351,0,0,1,56.35988,98.149Z"/><path class="cls-4" d="M59.01,110.76023c.02624-.1467.91894-.08734,2-.11216,1.0815-.02193,1.97062-.1198,2.00318.02561.03358.13191-.84377.4665-1.992.49121C59.87333,111.1898,58.98214,110.89343,59.01,110.76023Z"/><path class="cls-4" d="M52.31134,124.35537a6.07539,6.07539,0,0,1,1.96857,2.11511,6.0754,6.0754,0,0,1,1.23545,2.61237A12.53449,12.53449,0,0,1,53.852,126.7604,12.53078,12.53078,0,0,1,52.31134,124.35537Z"/><path class="cls-4" d="M70.622,104.10921a18.41856,18.41856,0,0,1,.96892-2.83311c.70232-1.88038,1.56693-4.195,2.523-6.75445.92614-2.57148,1.76355-4.89631,2.44374-6.78492a18.42674,18.42674,0,0,1,1.093-2.78735,16.11453,16.11453,0,0,1-.7459,2.902c-.53438,1.7704-1.334,4.198-2.30557,6.84824-.9724,2.649-1.93228,5.0175-2.66945,6.71346A16.13029,16.13029,0,0,1,70.622,104.10921Z"/><path class="cls-4" d="M64.41759,90.3761a7.42748,7.42748,0,0,1,1.73675-1.22777,35.07977,35.07977,0,0,1,9.46329-3.889,7.43118,7.43118,0,0,1,2.098-.34829c.036.15345-3.10894.9062-6.77618,2.42419C67.26589,88.834,64.49977,90.51049,64.41759,90.3761Z"/><path class="cls-4" d="M84.82614,94.59976a9.311,9.311,0,0,1,2.9673,7.61905c-.15722.00844-.25091-1.86082-1.08435-3.9653C85.9,96.14049,84.70465,94.69981,84.82614,94.59976Z"/><path class="cls-4" d="M71.32817,108.48225a15.66922,15.66922,0,0,0,2.85187-.765,15.65642,15.65642,0,0,0,2.40949-1.70728c.12933.04249-.55443,1.41825-2.18965,2.17516A3.72282,3.72282,0,0,1,71.32817,108.48225Z"/><path class="cls-4" d="M61.38832,101.09218a4.25686,4.25686,0,0,1,.791-2.72135c.81347-1.38748,1.92969-2.11551,2.00383-2.00434.09846.116-.80254.9713-1.55891,2.26746C61.85307,99.92078,61.53749,101.12255,61.38832,101.09218Z"/><path class="cls-4" d="M93.09441,116.08492c-.08536-.1193.23484-.487.53994-.97339.313-.48148.51176-.92653.65587-.89944.13757.01866.15107.5993-.22024,1.17765C93.70165,115.96969,93.16915,116.20194,93.09441,116.08492Z"/><path class="cls-5" d="M63.37657,104.90026c.06669.06085-1.07235,1.31413-2.70407,3.49653a53.31689,53.31689,0,0,0-9.06509,19.08648c-.66037,2.64364-.912,4.318-1.00126,4.30475a5.266,5.266,0,0,1,.08927-1.18866c.0832-.76247.26881-1.85794.55615-3.19956a47.14537,47.14537,0,0,1,9.1314-19.22613c.85826-1.07046,1.5901-1.90658,2.12855-2.45287A5.26915,5.26915,0,0,1,63.37657,104.90026Z"/><path class="cls-5" d="M48.1529,117.00382a12.781,12.781,0,0,1,1.418-2.65039,38.49253,38.49253,0,0,1,9.88377-10.54526,12.7828,12.7828,0,0,1,2.55295-1.58638A26.58646,26.58646,0,0,1,59.676,104.099a48.90237,48.90237,0,0,0-9.80053,10.45643A26.5882,26.5882,0,0,1,48.1529,117.00382Z"/><path class="cls-5" d="M66.24288,86.32266c.04486.03136-.30352.49081-.75672,1.41239a12.02864,12.02864,0,0,0-1.13844,4.153,12.52224,12.52224,0,0,0,1.05239,6.232,12.957,12.957,0,0,0,5.19963,5.66622,14.474,14.474,0,0,0,7.458,2.04355,15.23562,15.23562,0,0,0,6.23683-1.25616,10.19067,10.19067,0,0,0,3.46626-2.52543c.67374-.773.92852-1.29457.98192-1.26251a1.27567,1.27567,0,0,1-.1732.38114,6.39812,6.39812,0,0,1-.65359,1.00951,9.764,9.764,0,0,1-3.46576,2.728,15.15617,15.15617,0,0,1-6.39177,1.40167,14.69962,14.69962,0,0,1-7.72356-2.0759,13.23532,13.23532,0,0,1-5.36906-5.91466,12.60593,12.60593,0,0,1-.98172-6.46442,11.33384,11.33384,0,0,1,1.32375-4.20888,8.06058,8.06058,0,0,1,.65975-1.00375C66.13449,86.42062,66.22849,86.31214,66.24288,86.32266Z"/><path class="cls-5" d="M60.90634,93.618c.08635.0126-.086,1.071-.05735,2.77783a13.97256,13.97256,0,0,0,1.554,6.36576,10.20054,10.20054,0,0,0,4.72408,4.41,17.6224,17.6224,0,0,0,2.63778.78162,1.86034,1.86034,0,0,1-.7587.02621,7.22524,7.22524,0,0,1-2.01813-.46987,9.90761,9.90761,0,0,1-5.039-4.50088,13.05767,13.05767,0,0,1-1.46544-6.6151,13.43343,13.43343,0,0,1,.217-2.047A2.023,2.023,0,0,1,60.90634,93.618Z"/><g class="cls-16"><path d="M55.70932,115.8474a75.47038,75.47038,0,0,0-4.07171,11.47905,7.02926,7.02926,0,0,0-.38214,4.00054c.07567.25558.28595.55592.53668.4656.16157-.05826.2244-.249.26656-.41548A171.51112,171.51112,0,0,1,58.223,111.964Z"/></g><g class="cls-16"><path d="M83.08294,87.7007c2.03511,5.25263,1.7432,11.02853-2.25883,15.39453a5.34845,5.34845,0,0,0,3.89037-3.45137A12.63689,12.63689,0,0,0,83.08294,87.7007Z"/></g><path class="cls-5" d="M157.65192,255.493q-27.56538-.6652-53.16859.12l.182-.11543,5.926-55.7741L88.06341,161.92368l-1.348-1.27065c-4.69591,2.24136-9.05535,3.26963-14.18441,2.39272l-13.09444-2.23868h0c-5.90629,5.18137-16.78524,16.276-16.78524,16.66905,0,.51344,14.54814,71.12078,14.54814,71.12078l8.6558,8.49765L41.35985,274.32081s.50114,17.00363,11.99557,21.64565,62.59276,1.12535,68.5505.3859c0,0,22.32782-8.67769,25.42247-11.33036C150.423,282.36953,158.536,261.28377,157.65192,255.493Z"/><path class="cls-7" d="M96.48335,263.36255a2.2728,2.2728,0,0,1,.53061.05082c.395.06194.89348.14015,1.506.23623,1.30619.214,3.19023.56158,5.50881,1.03551,4.64063.93448,11.01066,2.41436,18.00977,4.18258,6.96189,1.80265,13.261,3.43379,17.89583,4.63378,2.242.58669,4.078,1.06708,5.41888,1.418.59781.16268,1.08425.29518,1.47005.40019a2.27709,2.27709,0,0,1,.50511.17072,2.27507,2.27507,0,0,1-.52724-.07851c-.39116-.08248-.88465-.1866-1.491-.31444-1.29288-.28218-3.15757-.71661-5.45689-1.27333-4.59994-1.10887-10.93176-2.73058-17.92978-4.50028-6.996-1.76752-13.34651-3.29683-17.96391-4.31339-2.30726-.515-4.179-.91195-5.47377-1.18093-.60545-.13131-1.09815-.23821-1.48881-.323A2.28216,2.28216,0,0,1,96.48335,263.36255Z"/><path class="cls-7" d="M91.52709,255.188a19.74057,19.74057,0,0,1,4.29453.07047,19.75154,19.75154,0,0,1,4.26148.53974,19.75355,19.75355,0,0,1-4.29493-.07057A19.7734,19.7734,0,0,1,91.52709,255.188Z"/><path class="cls-7" d="M91.2723,245.02256c.11474-.08436,1.53834,1.80653,3.66814,3.77136,2.11858,1.97824,4.10992,3.25683,4.03438,3.37752a19.04313,19.04313,0,0,1-7.70252-7.14888Z"/><path class="cls-7" d="M90.04145,215.74089c-.05727-.06184.72694-.77974,1.77923-2.113a20.85462,20.85462,0,0,0,4.4586-12.232c.0526-1.69774-.08576-2.75162-.00209-2.76205a2.30586,2.30586,0,0,1,.17032.73042,13.26548,13.26548,0,0,1,.16437,2.0351,18.87967,18.87967,0,0,1-4.53443,12.43983,13.25681,13.25681,0,0,1-1.43561,1.45219C90.275,215.60451,90.06319,215.765,90.04145,215.74089Z"/><path class="cls-28" d="M96.36662,163.07205h0c6.37877,3.94744,12.6702,14.095,14.24814,24.87757l3.53514,16.71589s2.671-1.43412,4.32043.59592a6.56709,6.56709,0,0,1,1.40872,5.0439l7.33032,5.12261-11.72381,8.52941-8.01408,9.86517s6.87921,20.207,8.01408,22.19284S118.89,261.434,118.89,261.434l-10.49683-2.01436s-7.0925-5.10653-6.80883-13.61748,1.11819-41.13639-.00834-45.39181S86.71544,160.653,86.71544,160.653Z"/><path class="cls-5" d="M108.6935,233.6517a1.97416,1.97416,0,0,1-.07167-.4922c-.03027-.37736-.06788-.847-.11384-1.42042-.06054-1.23562-.08685-3.027-.02392-5.23715.12278-4.421.60932-10.50477.91969-17.22775a157.59776,157.59776,0,0,0-.08486-17.22179c-.17459-2.19729-.314-3.97672-.46948-5.20072-.05617-.57121-.10213-1.0389-.139-1.41487a1.99639,1.99639,0,0,1-.01687-.49836,1.98407,1.98407,0,0,1,.11066.48486c.06025.3733.13529.83771.2269,1.40484.21151,1.21944.40188,2.99788.61945,5.199a135.48458,135.48458,0,0,1,.22322,17.26755c-.31106,6.73737-.85,12.8147-1.05736,17.22-.10511,2.20255-.12952,3.986-.12535,5.21889.01032.57319.01865,1.04266.0255,1.41983A2.0132,2.0132,0,0,1,108.6935,233.6517Z"/><path class="cls-29" d="M85.96945,225.15783,81.009,206.21159,59.43659,160.80707l-18.38582,8.88345a8.51665,8.51665,0,0,0-1.39988.67632l-.00675.00317.0002.001a13.37459,13.37459,0,0,0-4.391,4.705,22.04776,22.04776,0,0,0-2.70676,14.75443l7.08158,44.90885a117.7688,117.7688,0,0,0,6.92733,14.8651l-10.71109,32.333S63.21427,295.619,72.05282,295.57659c7.47473-.03583,14.00645-.08168,15.24137-14.65319S85.96945,225.15783,85.96945,225.15783Z"/><path class="cls-5" d="M63.13686,233.6517c-.0588-.02888.27044-.89844.70218-2.35133a23.505,23.505,0,0,1,.89666-2.528,6.94159,6.94159,0,0,1,1.94211-2.71173,5.41788,5.41788,0,0,1,3.14794-1.13646,6.10981,6.10981,0,0,1,2.68.495,5.043,5.043,0,0,1,1.5297,1.00435c.3067.30481.436.50729.41608.52426a9.44412,9.44412,0,0,0-2.06985-1.22,6.16862,6.16862,0,0,0-2.53247-.37072,5.15888,5.15888,0,0,0-2.878,1.07135,6.83515,6.83515,0,0,0-1.84086,2.52334c-.418.89269-.709,1.74648-.97647,2.45565A8.55461,8.55461,0,0,1,63.13686,233.6517Z"/><path class="cls-5" d="M57.20581,216.0727a1.66825,1.66825,0,0,1,.63556-.24754,6.71664,6.71664,0,0,1,1.84914-.21221,7.68249,7.68249,0,0,1,7.62163,8.11314,6.71616,6.71616,0,0,1-.327,1.83213,1.66858,1.66858,0,0,1-.28675.61885,17.76411,17.76411,0,0,0,.28119-2.45714,7.67822,7.67822,0,0,0-7.30367-7.77458A17.771,17.771,0,0,0,57.20581,216.0727Z"/><path class="cls-5" d="M57.19949,180.31637a8.1995,8.1995,0,0,1,.42618,1.35453c.24831.87909.57042,2.16106.93608,3.7527.73347,3.18258,1.58565,7.62064,2.20847,12.56826.618,4.95.88794,9.4615.96274,12.72657.03857,1.63273.0429,2.9544.01933,3.86744a8.174,8.174,0,0,1-.07868,1.41755,8.21588,8.21588,0,0,1-.10442-1.41547c-.04345-.99462-.10027-2.29267-.16865-3.857-.15961-3.25484-.48109-7.74678-1.09705-12.68051-.62093-4.93155-1.41818-9.36334-2.067-12.55685-.31986-1.53278-.58533-2.80482-.78867-3.7794A8.20216,8.20216,0,0,1,57.19949,180.31637Z"/><path class="cls-5" d="M41.17057,171.26707a6.02812,6.02812,0,0,1,2.07779-.22749,14.81577,14.81577,0,0,1,9.34134,3.43608,6.023,6.023,0,0,1,1.43479,1.51968,22.34013,22.34013,0,0,0-5.97115-3.60431A22.3518,22.3518,0,0,0,41.17057,171.26707Z"/><path class="cls-5" d="M47.37966,250.99925a2.79565,2.79565,0,0,1,.3624.46193c.24886.35086.56853.80168.96418,1.35959a15.63255,15.63255,0,0,0,4.66562,3.86267,16.19868,16.19868,0,0,0,8.754,1.60871,21.5788,21.5788,0,0,0,10.2364-3.85493,24.93555,24.93555,0,0,0,2.14648-1.69109l-.07623.17607c-.03047-7.26858-.05757-13.73827-.07732-18.46068.011-2.29049.01995-4.15428.0264-5.50742.01211-.60843.02184-1.101.02958-1.48851a2.28688,2.28688,0,0,1,.0404-.51791,2.29066,2.29066,0,0,1,.04893.51652c.01409.38719.032.87959.05409,1.48752.02888,1.35254.06878,3.21564.11762,5.50543.05846,4.72182.13846,11.19071.22848,18.4585l.00139.11514-.07782.06124a25.02532,25.02532,0,0,1-2.19153,1.73,21.74745,21.74745,0,0,1-10.46948,3.90188,16.32122,16.32122,0,0,1-8.94733-1.74668,15.10847,15.10847,0,0,1-4.65478-4.0447c-.40856-.60605-.69725-1.09577-.89968-1.42132A2.70478,2.70478,0,0,1,47.37966,250.99925Z"/><g class="cls-16"><path d="M87.19831,249.759c-3.23906,1.36574-7.32853,2.642-8.00842,6.09093a24.925,24.925,0,0,1-.46461,3.45742c-.91889,2.63381-4.22912,3.38229-7.00675,3.63916-4.69075.43384-9.528.61518-14.00453-.852s-8.56957-4.89-9.63934-9.47778c4.08064,2.51857,5.994,5.40191,10.72457,6.18721,2.65108.44,7.60345-1.28495,10.15706-2.12186s5.71029-4.28847,5.71029-4.28847c.22193-.88406-.02521-3.82546-.215-2.93386-.06333.29737,4.32907-2.50379,6.52626-3.33246,2.60919-.984,6.22045-2.71748,6.22045-2.71748"/></g><g class="cls-16"><path d="M65.85529,227.05329c-.7059,3.19271-2.74128,8.20673-3.80853,11.2975a4.875,4.875,0,0,1-.75488,1.54529,1.71718,1.71718,0,0,1-1.50634.68248,1.756,1.756,0,0,1-1.27311-1.9441,5.1104,5.1104,0,0,1,1.052-2.30647q3.1455-4.63734,6.29088-9.2747"/></g><path class="cls-5" d="M48.98283,266.71615a10.164,10.164,0,0,1,.85063-1.55541c.575-.9708,1.41466-2.35,2.43828-4.0054l.08318-.13449.15293.05548c2.08707.7582,4.607,1.63045,7.345,2.47014,3.74651,1.1576,7.18726,2.037,9.68558,2.64175,1.17785.2789,2.1697.51384,2.96363.70193a5.12784,5.12784,0,0,1,1.0788.30461,5.137,5.137,0,0,1-1.11453-.125c-.71195-.11256-1.73774-.29955-3.00055-.557-2.523-.523-5.99062-1.35472-9.75141-2.51679-2.74819-.84276-5.26892-1.74518-7.3456-2.551l.23585-.07881c-1.05911,1.63293-1.94715,2.9814-2.57909,3.91628A10.18484,10.18484,0,0,1,48.98283,266.71615Z"/><path class="cls-5" d="M71.72171,275.20278a34.62679,34.62679,0,0,1,1.40474-3.74863,34.63039,34.63039,0,0,1,1.3973-3.75181,17.1272,17.1272,0,0,1-2.802,7.50044Z"/><path class="cls-5" d="M49.02917,267.35555c.04128-.06571,1.18639.63006,3.11167,1.60256a52.9134,52.9134,0,0,0,7.78651,3.17841,57.061,57.061,0,0,0,8.19034,1.9305c2.13119.33806,3.46486.46133,3.45921.53786a3.6524,3.6524,0,0,1-.94461.01062c-.60694-.01837-1.48256-.09181-2.56095-.21906a45.98394,45.98394,0,0,1-8.28653-1.81159,43.28311,43.28311,0,0,1-7.79915-3.33265c-.95036-.52585-1.70082-.9847-2.20142-1.32852A3.65262,3.65262,0,0,1,49.02917,267.35555Z"/><g class="cls-16"><path d="M70.04143,274.5489a1.22009,1.22009,0,0,1-.56833,1.55452,3.30389,3.30389,0,0,1-1.79044.28773A31.90806,31.90806,0,0,1,49.3624,269.7038c-.53078-.41448-1.08414-1.17963-.62482-1.67213.38589-.41379,1.06852-.14124,1.55684.14441A50.83761,50.83761,0,0,0,70.626,274.83594"/></g><path class="cls-22" d="M74.66658,227.69725l40.85858-8.83968,8.54053-2.11531,6.73866,4.06645a3.69382,3.69382,0,0,1,1.75253,2.67182l.58521,4.36451-.82064.71165,1.06758,1.97089a2.47193,2.47193,0,0,1-.24694,2.72631h0l-6.88259-5.1758,4.49612,6.31455a3.92753,3.92753,0,0,1-2.989.71165c-2.13516-.14223-7.46868-7.45667-7.46868-7.45667l-3.49166-.54659,7.35156,7.90956s.33478.66322-1.231,1.23254-9.72413-5.72-9.72413-5.72L74.8496,249.26518"/><path class="cls-23" d="M74.8496,249.26518a.931.931,0,0,1,.17062-.10124c.13161-.06868.30134-.15741.51851-.27086q.71895-.36327,2.03659-1.02917c1.80931-.89865,4.43071-2.20066,7.75989-3.85434,6.71773-3.30546,16.28782-8.01437,27.77857-13.66829a.20525.20525,0,0,1,.2126.02144c1.65805,1.25566,3.41256,2.52145,5.27636,3.71846a23.6391,23.6391,0,0,0,2.91608,1.64017c.50124.19742,1.06937.4664,1.48127.25826a2.66145,2.66145,0,0,0,.69776-.3861c.20506-.14372.30412-.39483.26362-.484l.03524.05072c-2.33943-2.51272-4.81681-5.17363-7.35811-7.90322a.229.229,0,0,1,.20317-.38222c1.09239.17042,2.28761.35672,3.49176.54441a.23889.23889,0,0,1,.15107.0923,53.7169,53.7169,0,0,0,4.33472,5.19626,9.43078,9.43078,0,0,0,2.64116,2.08076,4.06128,4.06128,0,0,0,3.12889-.56217l-.02531.30252c-.42005-.59-.874-1.22747-1.32941-1.867q-1.59586-2.2417-3.16631-4.44758a.23475.23475,0,0,1,.3323-.32377q2.81967,2.12157,5.571,4.19181l.686.51642.34222.25756.17082.12853.08536.06422.02124.01608.00268.00209c.28734-.035-.38828.05032-.31811.04019l.00367-.00486.00715-.00973.02888-.0388a2.23614,2.23614,0,0,0,.45171-1.44266,3.09627,3.09627,0,0,0-.53617-1.47125q-.40035-.74008-.79731-1.47422a.22967.22967,0,0,1,.05141-.28258q.41419-.3588.82093-.71115l-.07672.203q-.26933-2.01972-.533-3.99726a3.5983,3.5983,0,0,0-1.92344-3.01793q-3.3348-2.01748-6.50383-3.93443l.16178.02451q-2.72319.67041-5.33928,1.31453c-1.7429.42957-3.44521.86232-5.126,1.20077-3.35162.718-6.54115,1.40137-9.54706,2.04523-6.00637,1.28009-11.27746,2.40335-15.64266,3.33365-4.34535.91364-7.78659,1.6372-10.16363,2.13705-1.16356.23692-2.06578.42074-2.69823.54957-.29329.056-.52168.09965-.69547.1328a1.25585,1.25585,0,0,1-.23811.03355,1.21833,1.21833,0,0,1,.23057-.06809c.1721-.04159.398-.09628.68833-.16655.629-.144,1.52633-.34967,2.68383-.61478,2.37078-.52734,5.80309-1.2908,10.137-2.25476,4.35865-.9572,9.6219-2.11292,15.61933-3.42992,3.00264-.656,6.1888-1.352,9.53694-2.08355,1.67948-.34431,3.37921-.78222,5.11963-1.21666q2.61108-.65046,5.33184-1.32832a.215.215,0,0,1,.16218.02462q3.17041,1.90836,6.51246,3.92014a4.10937,4.10937,0,0,1,1.50509,1.37854A4.26433,4.26433,0,0,1,132.83,223.818q.26636,1.97655.53865,3.99647a.23084.23084,0,0,1-.07682.20327c-.27176.236-.54411.47255-.82.71215l.05142-.28238q.3978.73368.79909,1.47313a3.5453,3.5453,0,0,1,.59314,1.67154,2.69981,2.69981,0,0,1-.54351,1.74161l-.03494.04685-.00863.01171-.00447.00586c.069-.00715-.60833.07672-.32287.0401l-.00268-.002-.02134-.01608-.08546-.06411-.17092-.12844-.34233-.25727-.68644-.51582q-2.75058-2.06721-5.57342-4.18882l.3324-.32377q1.56951,2.204,3.167,4.44708c.45538.6396.90927,1.2772,1.32931,1.86717l.01121.01568a.21415.21415,0,0,1-.03652.287,3.55135,3.55135,0,0,1-1.75343.72664,6.277,6.277,0,0,1-.91611.06759c-.15265.005-.30362-.00893-.45528-.0128a4.36162,4.36162,0,0,1-.4922-.10909,9.6617,9.6617,0,0,1-2.81991-2.19659,53.90528,53.90528,0,0,1-4.37364-5.25094l.15077.0921c-1.20395-.18917-2.39888-.377-3.49117-.54857l.20308-.38213c2.53683,2.73395,5.00965,5.39893,7.3449,7.91552l.0138.01489a.10394.10394,0,0,1,.02164.036.90409.90409,0,0,1-.37657,1.01884,3.066,3.066,0,0,1-.81488.45379,1.12123,1.12123,0,0,1-.50074.10819,1.85867,1.85867,0,0,1-.47652-.07216,5.70746,5.70746,0,0,1-.84078-.30322,23.95409,23.95409,0,0,1-2.97087-1.67889c-1.8772-1.21278-3.62963-2.48512-5.29482-3.75458l.21241.02154c-11.52133,5.59128-21.11693,10.248-27.85252,13.51693-3.35042,1.6104-5.9884,2.87847-7.809,3.75369q-1.33368.62977-2.06329.97438c-.223.10164-.39732.181-.5324.24268A.927.927,0,0,1,74.8496,249.26518Z"/><path class="cls-23" d="M130.75572,234.39264a14.8434,14.8434,0,0,1-1.65566-2.07868c-.97448-1.31989-2.29506-3.16363-3.72868-5.21551a4.513,4.513,0,0,0-2.46637-2.15968c-1.00257-.28356-1.99263-.45-2.77981-.64465a14.83976,14.83976,0,0,1-2.56523-.684,14.86476,14.86476,0,0,1,2.63064.35781c.8111.157,1.7554.27583,2.84293.55682a4.842,4.842,0,0,1,2.7416,2.33227c1.42817,2.04275,2.69892,3.90655,3.60025,5.2705A14.845,14.845,0,0,1,130.75572,234.39264Z"/><path class="cls-23" d="M132.12791,228.66805a18.95483,18.95483,0,0,1-1.58628-1.784,50.49229,50.49229,0,0,0-3.96352-4.1388q-.62217-.56561-1.21309-1.10242-.29448-.26412-.58043-.52069l-.28189-.25171c-.0399-.03156-.10669-.10372-.12734-.10441-.00615.00675.00556.00764-.00725.00208l-.0788-.0131c-.91344-.10818-1.823-.08972-2.549-.11206a13.49779,13.49779,0,0,1-2.38865-.111,10.93277,10.93277,0,0,1,2.38468-.22164,20.33283,20.33283,0,0,1,2.62726.01757l.10253.01568a.76215.76215,0,0,1,.16516.0672,1.16768,1.16768,0,0,1,.16178.12655l.288.24724q.29076.25309.59026.51394.59672.536,1.22539,1.10053a34.50179,34.50179,0,0,1,3.90139,4.27329A8.8856,8.8856,0,0,1,132.12791,228.66805Z"/><path class="cls-1" d="M189.82843,243.61921l14.31474-39.52649a5.16552,5.16552,0,0,0-4.77959-7.12487h-42.2932a5.16546,5.16546,0,0,0-4.89154,3.50586l-13.524,39.862-23.53515.07573c-1.28286.00615-2.389,1.71531-2.389,2.99837h7.74183l17.45365-.03265Z"/><path class="cls-5" d="M189.82833,243.61921s-.11622.01042-.35612.01479c-.25806.00278-.613.00645-1.07423.01141-.9713.00308-2.37664.00764-4.19815.0136-3.7003-.0009-9.07739-.00219-15.86191-.00387-6.81887-.0139-15.05-.03077-24.41405-.04983-9.38111-.05042-19.84816.059-31.19311.04367l-.24317-.00039.00387-.23891a3.615,3.615,0,0,1,.469-1.666,3.385,3.385,0,0,1,1.18818-1.287,1.87088,1.87088,0,0,1,.8907-.28158c.29856-.0131.5599-.00556.84257-.00933q.83345-.00329,1.67432-.00665,3.36367-.013,6.83941-.0265c4.6311-.017,9.39778-.03445,14.25826-.05231l-.24079.1733c1.96742-5.80211,4.02813-11.87954,6.12686-18.06873q2.062-6.07525,4.07161-11.99676,1.00449-2.95812,1.99381-5.87168.49475-1.4565.9854-2.901c.17092-.48466.30769-.95314.516-1.45457a5.32125,5.32125,0,0,1,.842-1.34221,5.43649,5.43649,0,0,1,2.61674-1.68583,5.569,5.569,0,0,1,1.54549-.21608l1.48812.00079q2.96913.00178,5.87952.00348,5.81931.00447,11.38316.00873c7.41062.00834,14.4531.01638,21.045.02382q1.23586.00179,2.45029.00358a5.376,5.376,0,0,1,5.26127,4.3111,5.1509,5.1509,0,0,1-.05042,2.33793c-.22045.75027-.49687,1.43036-.74242,2.125q-.75528,2.07183-1.4773,4.052c-3.85335,10.52521-6.9735,19.04787-9.137,24.95727-1.07839,2.91976-1.918,5.193-2.49465,6.75424-.28347.75493-.50123,1.33487-.65508,1.74479-.14918.39057-.23315.57975-.23315.57975s.06363-.21826.20248-.62282c.1465-.41945.35364-1.01269.62332-1.78509.5596-1.57616,1.37437-3.87121,2.42091-6.819,2.11768-5.91168,5.17174-14.43761,8.9435-24.967q.70971-1.97313,1.45278-4.03876c.241-.68813.5182-1.388.71731-2.07451a4.75864,4.75864,0,0,0,.0389-2.16374,5.0164,5.0164,0,0,0-2.643-3.44472c-1.36068-.75036-3.03172-.47155-4.67776-.52148-6.59186.00745-13.63434.01549-21.045.02382q-5.55877.00432-11.38316.00874-2.90975.00164-5.87952.00347a10.46962,10.46962,0,0,0-2.89356.19851,4.9329,4.9329,0,0,0-2.37158,1.5306,4.81957,4.81957,0,0,0-.76207,1.21695c-.18114.43375-.3331.94024-.49935,1.41467q-.48952,1.4449-.98331,2.9016-.98752,2.91361-1.99074,5.87277-2.00678,5.91714-4.069,11.99765c-2.10071,6.1886-4.16351,12.26524-6.13281,18.06674l-.05866.1729-.18243.0005c-4.86048.0134-9.62706.0266-14.25807.03941q-3.4731.00892-6.8393.01746l-1.67442.00417c-.27265.00308-.56645-.004-.82.00745a1.38861,1.38861,0,0,0-.66987.21409,3.23622,3.23622,0,0,0-1.4241,2.536l-.239-.239c11.33165.035,21.84019-.04953,31.16661.03424,9.33515.06809,17.54089.12794,24.33871.17747,6.79365.06163,12.17809.11057,15.88335.14411,1.8372.023,3.25455.0408,4.23418.053l1.09577.02153C189.69672,243.60759,189.82833,243.61921,189.82833,243.61921Z"/><path class="cls-5" d="M157.4274,197.10264a1.80959,1.80959,0,0,1-.11821.48386l-.43424,1.35423c-.42421,1.24385-.99453,2.91628-1.68782,4.94881-1.44653,4.17126-3.47846,9.92185-5.75277,16.2623-2.2752,6.34274-4.36182,12.07428-5.89639,16.214-.75671,2.0097-1.37934,3.66327-1.84236,4.893-.20992.52764-.38332.96366-.52555,1.32128a1.808,1.808,0,0,1-.21627.44852,1.82622,1.82622,0,0,1,.11841-.48426c.11761-.36654.26094-.81358.43433-1.35452.42422-1.24375.99463-2.91619,1.68792-4.94891,1.44653-4.17126,3.47846-9.92175,5.75337-16.26359,2.274-6.33977,4.36023-12.07011,5.8948-16.2098.75682-2.01,1.37954-3.66377,1.84266-4.89373.20992-.52783.38341-.96425.52565-1.32187A1.82761,1.82761,0,0,1,157.4274,197.10264Z"/><path class="cls-7" d="M103.923,250.61573h133.238a3.60291,3.60291,0,0,0,3.60292-3.60292h0a3.60294,3.60294,0,0,0-3.60292-3.603H103.923a3.60293,3.60293,0,0,0-3.60292,3.603h0A3.6029,3.6029,0,0,0,103.923,250.61573Z"/><rect class="cls-7" x="165.91472" y="249.26518" width="11.62425" height="148.91017" transform="translate(343.4537 647.44053) rotate(180)"/><path class="cls-7" d="M210.94536,398.17535h-79.071c.51692,0,34.04041-8.88812,34.04041-8.88812H177.539Z"/><path class="cls-5" d="M103.574,250.30864c0-.12992,30.1292-.23523,67.287-.23523,37.17069,0,67.29344.10531,67.29344.23523s-30.12275.23523-67.29344.23523C133.70317,250.54387,103.574,250.43857,103.574,250.30864Z"/></g></g></svg>